M48
;DRILL file {KiCad 4.0.3-stable} date Thursday, September 01, 2016 'PMt' 01:02:27 PM
;FORMAT={-:-/ absolute / metric / decimal}
FMAT,2
METRIC,TZ
T1C0.300
T2C0.305
T3C0.701
T4C1.016
T5C1.500
T6C0.899
T7C3.988
%
G90
G05
M71
T1
X29.75Y-58.25
X30.5Y-32.
X30.5Y-86.
X32.5Y-40.75
X32.75Y-23.
X32.75Y-26.25
X32.75Y-69.5
X34.Y-86.
X36.5Y-77.5
X37.25Y-25.
X41.Y-39.
X41.974Y-92.202
X44.5Y-65.
X45.5Y-34.25
X46.5Y-73.25
X47.816Y-76.391
X52.133Y-84.455
X52.133Y-88.265
X52.5Y-73.25
X52.5Y-80.5
X53.Y-43.5
X53.Y-59.
X53.Y-65.
X53.Y-76.5
X54.Y-24.
X56.Y-80.5
X61.5Y-25.5
X63.Y-91.
X65.25Y-31.
X66.04Y-89.218
X68.5Y-59.
X68.5Y-64.5
X69.5Y-90.
X74.25Y-38.
X76.5Y-20.75
X76.5Y-59.
X76.5Y-62.75
X80.5Y-85.
X81.5Y-77.
X88.Y-38.
X88.5Y-77.
X88.5Y-85.
X88.5Y-93.5
X90.5Y-59.5
X91.Y-28.5
X95.5Y-59.5
X95.5Y-70.5
X95.504Y-76.962
X99.5Y-27.25
X102.5Y-21.
X106.Y-38.
X108.966Y-76.708
X109.Y-66.5
X114.5Y-47.5
X126.Y-38.
X126.Y-55.5
X126.Y-66.5
X126.Y-77.75
X143.Y-66.5
X143.Y-77.75
X145.Y-38.
X152.5Y-21.
X163.Y-66.5
X165.25Y-77.75
X166.Y-44.
X167.5Y-93.
X179.5Y-55.5
X179.5Y-66.5
X181.25Y-77.75
X184.Y-38.
X186.5Y-66.5
X186.5Y-85.5
X190.5Y-21.
X192.75Y-77.75
X197.Y-45.
X198.Y-93.
X200.5Y-66.5
X203.Y-38.
X219.5Y-66.5
X223.5Y-85.5
X225.Y-38.
X228.5Y-21.
X239.Y-66.5
X245.Y-38.
X248.5Y-93.
X259.Y-66.5
X265.Y-38.
X267.Y-21.
X278.5Y-66.5
X285.Y-38.
X286.25Y-93.
X297.5Y-66.5
X300.Y-38.
X311.Y-38.
X311.Y-91.75
X312.Y-66.5
T2
X31.Y-82.25
X41.212Y-85.788
X44.Y-28.
X44.5Y-92.5
X46.863Y-93.345
X51.5Y-78.5
X56.25Y-77.25
X56.5Y-82.25
X58.75Y-81.427
X58.913Y-79.157
X59.01Y-77.071
X59.25Y-80.25
X59.546Y-81.235
X61.75Y-84.75
X62.Y-79.75
X62.Y-82.
X62.238Y-76.255
X62.5Y-57.5
X63.25Y-86.5
X65.Y-91.5
X65.621Y-71.75
X65.75Y-86.5
X66.029Y-76.316
X66.5Y-86.
X67.278Y-92.63
X68.505Y-74.495
X68.764Y-71.782
X70.75Y-69.25
X70.75Y-77.25
X70.75Y-80.25
X71.327Y-93.328
X71.5Y-64.
X71.5Y-74.
X71.57Y-84.573
X72.5Y-74.25
X73.771Y-79.72
X79.25Y-65.5
X82.25Y-91.492
X84.Y-73.25
X86.374Y-93.328
X90.75Y-88.
X92.71Y-57.219
X98.655Y-64.
X108.5Y-25.75
X110.75Y-28.25
X111.5Y-30.25
X117.705Y-50.292
X121.25Y-31.25
X122.25Y-35.75
X123.5Y-36.481
X128.Y-57.977
X128.75Y-76.454
X133.5Y-79.
X135.128Y-80.264
X136.755Y-50.292
X139.75Y-81.582
X141.5Y-83.25
X147.25Y-84.
X148.Y-84.75
X155.805Y-50.292
X162.052Y-80.264
X165.25Y-42.164
X167.75Y-61.468
X171.958Y-80.264
X184.38Y-69.596
X190.5Y-80.264
X193.905Y-50.292
X193.905Y-57.5
X196.596Y-88.392
X212.01Y-55.285
X212.852Y-76.454
X212.955Y-50.292
X232.005Y-79.
X251.055Y-81.25
X252.045Y-49.784
X270.105Y-82.
X289.155Y-82.5
T3
X32.385Y-74.93
X32.385Y-77.47
X33.02Y-36.195
X35.56Y-55.88
X42.545Y-74.93
X42.545Y-77.47
X43.18Y-36.195
X45.72Y-55.88
X48.26Y-61.468
X48.26Y-71.628
X48.26Y-80.264
X48.26Y-90.424
X52.324Y-55.88
X57.15Y-36.195
X62.484Y-55.88
X67.31Y-36.195
X67.315Y-23.368
X67.315Y-33.528
X73.66Y-55.88
X73.66Y-58.42
X83.82Y-55.88
X83.82Y-58.42
X85.095Y-80.265
X85.095Y-90.425
X86.365Y-23.368
X86.365Y-33.528
X86.365Y-61.469
X86.365Y-71.629
X92.202Y-77.724
X102.108Y-55.88
X102.362Y-77.724
X105.41Y-23.368
X105.41Y-33.528
X105.41Y-61.468
X105.41Y-71.628
X105.41Y-80.264
X105.41Y-90.424
X112.268Y-55.88
X114.808Y-42.164
X114.808Y-52.324
X124.46Y-23.368
X124.46Y-33.528
X124.46Y-61.468
X124.46Y-71.628
X124.968Y-74.295
X134.112Y-42.164
X134.112Y-52.324
X135.128Y-74.295
X143.397Y-23.368
X143.397Y-33.528
X143.51Y-61.468
X143.51Y-71.628
X151.892Y-74.295
X153.162Y-42.164
X153.162Y-52.324
X162.052Y-74.295
X162.56Y-23.368
X162.56Y-33.528
X162.56Y-61.468
X162.56Y-71.628
X172.212Y-42.164
X172.212Y-52.324
X180.34Y-74.295
X181.61Y-23.368
X181.61Y-33.528
X181.61Y-61.468
X181.61Y-71.628
X190.5Y-74.295
X191.262Y-42.164
X191.262Y-52.324
X200.66Y-23.368
X200.66Y-33.528
X200.66Y-61.468
X200.66Y-71.628
X200.66Y-80.264
X200.66Y-90.424
X210.312Y-42.164
X210.312Y-52.324
X219.705Y-23.368
X219.705Y-33.528
X219.71Y-61.468
X219.71Y-71.628
X228.6Y-74.295
X238.76Y-23.368
X238.76Y-33.528
X238.76Y-61.468
X238.76Y-71.628
X238.76Y-74.295
X238.76Y-80.264
X238.76Y-90.424
X240.283Y-55.756
X250.443Y-55.756
X257.81Y-23.368
X257.81Y-33.528
X257.81Y-80.264
X257.81Y-90.424
X257.813Y-61.468
X257.813Y-71.628
X264.159Y-55.756
X274.319Y-55.756
X276.86Y-23.368
X276.86Y-33.528
X276.86Y-61.468
X276.86Y-71.628
X276.86Y-80.264
X276.86Y-90.424
X283.21Y-55.753
X293.37Y-55.753
X295.91Y-23.368
X295.91Y-33.528
X295.91Y-61.468
X295.91Y-71.628
X295.91Y-80.264
X295.91Y-90.424
X300.736Y-55.753
X310.896Y-55.753
T4
X32.46Y-20.5
X35.Y-20.5
X37.54Y-20.5
X105.84Y-20.5
X108.38Y-20.5
X110.92Y-20.5
X113.46Y-20.5
X116.Y-20.5
X118.54Y-20.5
X121.08Y-20.5
X123.62Y-20.5
X126.16Y-20.5
X128.7Y-20.5
X131.24Y-20.5
X133.78Y-20.5
X136.32Y-20.5
X138.86Y-20.5
X141.4Y-20.5
X162.67Y-20.5
X165.21Y-20.5
X167.75Y-20.5
X170.29Y-20.5
T6
X43.647Y-23.711
X48.047Y-23.711
T7
X38.1Y-28.575
X38.1Y-47.625
X38.1Y-66.675
X38.1Y-85.725
X42.862Y-47.625
X57.15Y-28.575
X57.15Y-47.625
X57.15Y-66.675
X57.15Y-85.725
X66.675Y-47.625
X76.2Y-28.575
X76.2Y-47.625
X76.2Y-66.675
X76.2Y-85.725
X85.725Y-47.625
X95.25Y-28.575
X95.25Y-66.675
X95.25Y-85.725
X100.012Y-47.625
X104.775Y-47.625
X114.3Y-28.575
X114.3Y-66.675
X114.3Y-85.725
X123.825Y-47.625
X123.825Y-85.725
X133.35Y-28.575
X133.35Y-66.675
X133.35Y-85.725
X142.875Y-47.625
X152.4Y-28.575
X152.4Y-66.675
X152.4Y-85.725
X161.925Y-47.625
X161.925Y-85.725
X171.45Y-28.575
X171.45Y-66.675
X180.975Y-47.625
X180.975Y-85.725
X190.5Y-28.575
X190.5Y-66.675
X190.5Y-85.725
X200.025Y-47.625
X209.55Y-28.575
X209.55Y-66.675
X209.55Y-85.725
X219.075Y-47.625
X219.075Y-85.725
X228.6Y-28.575
X228.6Y-66.675
X228.6Y-85.725
X238.125Y-47.625
X242.887Y-47.625
X247.65Y-28.575
X247.65Y-66.675
X247.65Y-85.725
X257.175Y-47.625
X266.7Y-28.575
X266.7Y-47.625
X266.7Y-66.675
X266.7Y-85.725
X276.225Y-47.625
X285.75Y-28.575
X285.75Y-47.625
X285.75Y-66.675
X285.75Y-85.725
X300.037Y-47.625
X304.8Y-28.575
X304.8Y-47.625
X304.8Y-66.675
X304.8Y-85.725
T5
X35.56Y-33.654G85X35.6Y-33.076
G05
X35.56Y-52.704G85X35.6Y-52.126
G05
X35.56Y-71.754G85X35.6Y-71.176
G05
X35.56Y-90.804G85X35.6Y-90.226
G05
X40.323Y-52.704G85X40.362Y-52.126
G05
X41.1Y-32.575G85X41.91Y-31.115
G05
X41.1Y-51.625G85X41.91Y-50.165
G05
X41.1Y-70.675G85X41.91Y-69.215
G05
X41.1Y-89.725G85X41.91Y-88.265
G05
X45.862Y-51.625G85X46.673Y-50.165
G05
X54.61Y-33.654G85X54.65Y-33.076
G05
X54.61Y-52.704G85X54.65Y-52.126
G05
X54.61Y-71.754G85X54.65Y-71.176
G05
X54.61Y-90.804G85X54.65Y-90.226
G05
X60.15Y-32.575G85X60.96Y-31.115
G05
X60.15Y-51.625G85X60.96Y-50.165
G05
X60.15Y-70.675G85X60.96Y-69.215
G05
X60.15Y-89.725G85X60.96Y-88.265
G05
X64.135Y-52.704G85X64.175Y-52.126
G05
X69.675Y-51.625G85X70.485Y-50.165
G05
X73.66Y-33.654G85X73.7Y-33.076
G05
X73.66Y-52.704G85X73.7Y-52.126
G05
X73.66Y-71.754G85X73.7Y-71.176
G05
X73.66Y-90.804G85X73.7Y-90.226
G05
X79.2Y-32.575G85X80.01Y-31.115
G05
X79.2Y-51.625G85X80.01Y-50.165
G05
X79.2Y-70.675G85X80.01Y-69.215
G05
X79.2Y-89.725G85X80.01Y-88.265
G05
X83.185Y-52.704G85X83.225Y-52.126
G05
X88.725Y-51.625G85X89.535Y-50.165
G05
X92.71Y-33.654G85X92.75Y-33.076
G05
X92.71Y-71.754G85X92.75Y-71.176
G05
X92.71Y-90.804G85X92.75Y-90.226
G05
X97.473Y-52.704G85X97.512Y-52.126
G05
X98.25Y-32.575G85X99.06Y-31.115
G05
X98.25Y-70.675G85X99.06Y-69.215
G05
X98.25Y-89.725G85X99.06Y-88.265
G05
X102.235Y-52.704G85X102.275Y-52.126
G05
X103.012Y-51.625G85X103.823Y-50.165
G05
X107.775Y-51.625G85X108.585Y-50.165
G05
X111.76Y-33.654G85X111.8Y-33.076
G05
X111.76Y-71.754G85X111.8Y-71.176
G05
X111.76Y-90.804G85X111.8Y-90.226
G05
X117.3Y-32.575G85X118.11Y-31.115
G05
X117.3Y-70.675G85X118.11Y-69.215
G05
X117.3Y-89.725G85X118.11Y-88.265
G05
X121.285Y-52.704G85X121.325Y-52.126
G05
X121.285Y-90.804G85X121.325Y-90.226
G05
X126.825Y-51.625G85X127.635Y-50.165
G05
X126.825Y-89.725G85X127.635Y-88.265
G05
X130.81Y-33.654G85X130.85Y-33.076
G05
X130.81Y-71.754G85X130.85Y-71.176
G05
X130.81Y-90.804G85X130.85Y-90.226
G05
X136.35Y-32.575G85X137.16Y-31.115
G05
X136.35Y-70.675G85X137.16Y-69.215
G05
X136.35Y-89.725G85X137.16Y-88.265
G05
X140.335Y-52.704G85X140.375Y-52.126
G05
X145.875Y-51.625G85X146.685Y-50.165
G05
X149.86Y-33.654G85X149.9Y-33.076
G05
X149.86Y-71.754G85X149.9Y-71.176
G05
X149.86Y-90.804G85X149.9Y-90.226
G05
X155.4Y-32.575G85X156.21Y-31.115
G05
X155.4Y-70.675G85X156.21Y-69.215
G05
X155.4Y-89.725G85X156.21Y-88.265
G05
X159.385Y-52.704G85X159.425Y-52.126
G05
X159.385Y-90.804G85X159.425Y-90.226
G05
X164.925Y-51.625G85X165.735Y-50.165
G05
X164.925Y-89.725G85X165.735Y-88.265
G05
X168.91Y-33.654G85X168.95Y-33.076
G05
X168.91Y-71.754G85X168.95Y-71.176
G05
X174.45Y-32.575G85X175.26Y-31.115
G05
X174.45Y-70.675G85X175.26Y-69.215
G05
X178.435Y-52.704G85X178.475Y-52.126
G05
X178.435Y-90.804G85X178.475Y-90.226
G05
X183.975Y-51.625G85X184.785Y-50.165
G05
X183.975Y-89.725G85X184.785Y-88.265
G05
X187.96Y-33.654G85X188.Y-33.076
G05
X187.96Y-71.754G85X188.Y-71.176
G05
X187.96Y-90.804G85X188.Y-90.226
G05
X193.5Y-32.575G85X194.31Y-31.115
G05
X193.5Y-70.675G85X194.31Y-69.215
G05
X193.5Y-89.725G85X194.31Y-88.265
G05
X197.485Y-52.704G85X197.525Y-52.126
G05
X203.025Y-51.625G85X203.835Y-50.165
G05
X207.01Y-33.654G85X207.05Y-33.076
G05
X207.01Y-71.754G85X207.05Y-71.176
G05
X207.01Y-90.804G85X207.05Y-90.226
G05
X212.55Y-32.575G85X213.36Y-31.115
G05
X212.55Y-70.675G85X213.36Y-69.215
G05
X212.55Y-89.725G85X213.36Y-88.265
G05
X216.535Y-52.704G85X216.575Y-52.126
G05
X216.535Y-90.804G85X216.575Y-90.226
G05
X222.075Y-51.625G85X222.885Y-50.165
G05
X222.075Y-89.725G85X222.885Y-88.265
G05
X226.06Y-33.654G85X226.1Y-33.076
G05
X226.06Y-71.754G85X226.1Y-71.176
G05
X226.06Y-90.804G85X226.1Y-90.226
G05
X231.6Y-32.575G85X232.41Y-31.115
G05
X231.6Y-70.675G85X232.41Y-69.215
G05
X231.6Y-89.725G85X232.41Y-88.265
G05
X235.585Y-52.704G85X235.625Y-52.126
G05
X240.348Y-52.704G85X240.387Y-52.126
G05
X241.125Y-51.625G85X241.935Y-50.165
G05
X245.11Y-33.654G85X245.15Y-33.076
G05
X245.11Y-71.754G85X245.15Y-71.176
G05
X245.11Y-90.804G85X245.15Y-90.226
G05
X245.887Y-51.625G85X246.698Y-50.165
G05
X250.65Y-32.575G85X251.46Y-31.115
G05
X250.65Y-70.675G85X251.46Y-69.215
G05
X250.65Y-89.725G85X251.46Y-88.265
G05
X254.635Y-52.704G85X254.675Y-52.126
G05
X260.175Y-51.625G85X260.985Y-50.165
G05
X264.16Y-33.654G85X264.2Y-33.076
G05
X264.16Y-52.704G85X264.2Y-52.126
G05
X264.16Y-71.754G85X264.2Y-71.176
G05
X264.16Y-90.804G85X264.2Y-90.226
G05
X269.7Y-32.575G85X270.51Y-31.115
G05
X269.7Y-51.625G85X270.51Y-50.165
G05
X269.7Y-70.675G85X270.51Y-69.215
G05
X269.7Y-89.725G85X270.51Y-88.265
G05
X273.685Y-52.704G85X273.725Y-52.126
G05
X279.225Y-51.625G85X280.035Y-50.165
G05
X283.21Y-33.654G85X283.25Y-33.076
G05
X283.21Y-52.704G85X283.25Y-52.126
G05
X283.21Y-71.754G85X283.25Y-71.176
G05
X283.21Y-90.804G85X283.25Y-90.226
G05
X288.75Y-32.575G85X289.56Y-31.115
G05
X288.75Y-51.625G85X289.56Y-50.165
G05
X288.75Y-70.675G85X289.56Y-69.215
G05
X288.75Y-89.725G85X289.56Y-88.265
G05
X297.498Y-52.704G85X297.537Y-52.126
G05
X302.26Y-33.654G85X302.3Y-33.076
G05
X302.26Y-52.704G85X302.3Y-52.126
G05
X302.26Y-71.754G85X302.3Y-71.176
G05
X302.26Y-90.804G85X302.3Y-90.226
G05
X303.037Y-51.625G85X303.848Y-50.165
G05
X307.8Y-32.575G85X308.61Y-31.115
G05
X307.8Y-51.625G85X308.61Y-50.165
G05
X307.8Y-70.675G85X308.61Y-69.215
G05
X307.8Y-89.725G85X308.61Y-88.265
G05
T0
M30
