M48
;DRILL file {KiCad 4.0.3-stable} date Saturday, August 27, 2016 'PMt' 08:14:28 PM
;FORMAT={-:-/ absolute / metric / decimal}
FMAT,2
METRIC,TZ
T1C0.300
T2C0.305
T3C0.701
T4C0.800
T5C1.000
T6C1.500
T7C2.700
T8C0.610
T9C0.899
T10C1.000
T11C3.988
T12C5.000
%
G90
G05
M71
T1
X31.496Y-25.4
X31.496Y-42.164
X31.496Y-64.262
X31.598Y-111.201
X31.648Y-85.7
X42.977Y-76.302
X43.332Y-38.303
X43.434Y-57.658
X44.2Y-25.6
X48.26Y-28.575
X48.26Y-104.775
X48.514Y-85.725
X65.5Y-22.
X65.5Y-30.2
X65.5Y-38.
X65.5Y-48.
X65.5Y-57.
X65.5Y-66.5
X66.Y-86.
X66.Y-96.
X66.Y-107.
X73.5Y-22.
X73.5Y-38.
X73.5Y-48.
X73.5Y-57.
X73.5Y-65.
X73.5Y-71.
X73.5Y-84.
X73.5Y-90.
X73.5Y-97.
X73.5Y-107.
X76.9Y-27.9
X80.2Y-90.614
X80.264Y-47.752
X80.264Y-57.404
X85.344Y-23.673
X85.598Y-85.598
X93.3Y-47.55
X94.297Y-57.277
X96.2Y-23.3
X97.346Y-83.629
X97.65Y-103.9
X97.847Y-109.982
X99.06Y-71.12
X99.822Y-97.282
X100.266Y-82.867
X101.2Y-47.55
X101.536Y-57.277
X101.981Y-91.059
X103.8Y-27.8
X105.41Y-66.04
X105.41Y-72.962
X105.664Y-79.883
X106.02Y-47.904
X106.934Y-57.15
X107.569Y-92.202
X107.632Y-27.432
X108.077Y-80.137
X108.458Y-66.04
X108.521Y-83.439
X108.966Y-96.266
X110.236Y-36.703
X110.236Y-103.124
X113.093Y-80.391
X114.681Y-72.326
X115.252Y-27.495
X116.649Y-85.725
X118.872Y-96.266
X119.062Y-110.109
X120.396Y-48.26
X122.301Y-57.467
X124.841Y-103.886
X126.238Y-27.877
X128.4Y-84.5
X132.45Y-78.7
X133.667Y-27.813
X133.985Y-85.725
X136.779Y-99.695
X139.065Y-47.625
X140.716Y-96.266
X140.906Y-105.156
X142.951Y-21.946
X143.5Y-57.1
X143.51Y-66.675
X145.097Y-27.877
X151.701Y-100.012
X151.701Y-110.871
X153.035Y-85.725
X157.734Y-47.625
X159.766Y-21.5
X164.4Y-56.9
X165.735Y-28.575
X171.26Y-99.695
X171.26Y-110.807
X172.085Y-85.725
X175.704Y-35.179
X176.72Y-47.561
X177.Y-57.
X181.61Y-66.675
X182.22Y-22.25
X183.4Y-57.
X184.785Y-28.575
X186.944Y-66.675
X190.183Y-22.669
X190.309Y-30.035
X191.135Y-85.725
X192.976Y-97.346
X193.9Y-56.9
X197.Y-67.3
X197.034Y-48.323
X198.755Y-104.14
X202.501Y-23.304
X204.1Y-62.3
X204.3Y-57.1
X205.994Y-100.584
X206.248Y-110.998
X210.185Y-85.725
X210.4Y-56.9
X214.376Y-110.998
X216.25Y-66.65
X217.805Y-46.3
X217.932Y-93.472
X217.932Y-98.298
X219.71Y-66.675
X221.082Y-22.606
X222.885Y-28.575
X228.092Y-110.236
X228.6Y-72.39
X229.235Y-52.705
X229.235Y-85.725
X233.426Y-97.841
X234.315Y-31.75
X235.712Y-46.101
X236.8Y-57.9
X238.76Y-66.675
X239.395Y-28.575
X240.589Y-22.809
X245.173Y-45.72
X247.015Y-57.9
X248.285Y-85.09
X248.31Y-97.587
X252.73Y-47.625
X257.81Y-66.675
X259.385Y-107.848
X259.436Y-98.552
X259.639Y-22.606
X260.35Y-28.575
X260.35Y-58.42
X267.335Y-85.725
X271.78Y-47.75
X273.05Y-85.725
X276.Y-47.8
X276.86Y-66.675
X277.724Y-22.606
X279.4Y-58.42
X281.94Y-90.805
X282.575Y-66.04
X283.21Y-58.42
X285.6Y-71.3
X285.9Y-75.2
X286.004Y-27.686
X286.156Y-22.149
X286.385Y-85.725
X287.02Y-58.42
X288.855Y-105.918
X290.195Y-85.725
X290.83Y-47.75
X292.735Y-58.42
X295.212Y-66.04
X295.656Y-34.493
X300.736Y-58.166
X300.99Y-66.04
X301.142Y-111.15
X301.8Y-90.7
X303.733Y-47.701
X303.886Y-32.766
X304.292Y-79.248
X304.546Y-71.12
X304.546Y-85.09
X304.546Y-90.7
X304.698Y-22.352
X306.832Y-72.263
X307.594Y-104.394
X307.75Y-109.5
X308.1Y-90.7
X309.423Y-71.933
X310.388Y-58.166
X310.388Y-65.532
X310.4Y-47.7
X314.9Y-82.4
X314.9Y-90.7
X314.96Y-85.344
X316.23Y-104.394
X316.738Y-79.502
X317.043Y-57.861
X318.5Y-28.75
X318.516Y-74.93
X319.278Y-53.543
X321.564Y-90.424
X321.7Y-82.5
X322.021Y-69.19
X322.021Y-74.93
X323.901Y-46.685
X327.66Y-34.29
X327.863Y-20.676
X328.5Y-84.6
X328.93Y-46.685
X328.93Y-110.49
X329.032Y-52.883
X329.565Y-69.215
X329.565Y-74.93
X329.997Y-57.556
X334.01Y-47.625
X335.2Y-76.2
X335.28Y-85.09
X336.804Y-105.918
X337.9Y-76.2
X338.379Y-48.158
X339.2Y-85.1
X339.5Y-90.1
X340.309Y-72.288
X343.459Y-57.15
X343.459Y-62.535
X343.865Y-67.818
X343.916Y-71.018
X345.25Y-40.8
X345.948Y-33.528
X346.1Y-57.15
X346.202Y-62.535
X347.091Y-67.437
X347.2Y-110.998
X347.218Y-107.442
X347.98Y-71.882
X347.98Y-75.565
X349.25Y-85.725
X349.25Y-90.17
X349.5Y-21.
X349.85Y-42.05
X350.012Y-57.277
X350.52Y-47.244
X350.583Y-67.5
X350.647Y-51.689
X351.917Y-60.071
X354.33Y-90.17
X354.35Y-27.4
X354.584Y-51.689
X354.774Y-67.818
X355.092Y-47.244
X358.Y-63.7
X359.6Y-68.
X359.664Y-75.184
X359.664Y-90.17
X360.172Y-31.852
X360.426Y-85.344
X361.696Y-41.9
X361.696Y-47.244
X363.22Y-71.882
X363.347Y-51.816
X365.201Y-95.098
X365.252Y-23.368
X365.404Y-112.522
X366.166Y-83.769
X366.674Y-108.102
X367.Y-38.1
X367.03Y-68.885
X367.335Y-72.746
X368.351Y-47.498
X373.278Y-72.492
X373.38Y-68.936
X373.583Y-60.1
X373.939Y-84.023
X376.784Y-21.641
X377.698Y-105.258
X381.508Y-105.258
X382.88Y-85.09
X383.9Y-39.268
X384.302Y-31.344
X386.69Y-90.83
X390.093Y-94.285
X391.211Y-54.102
X391.414Y-73.152
X392.074Y-77.267
X393.598Y-86.614
X394.31Y-96.977
X397.Y-111.
X397.662Y-60.401
X397.764Y-22.098
X397.764Y-45.212
X398.221Y-99.72
X398.475Y-88.29
T2
X40.64Y-64.008
X48.26Y-74.168
X49.276Y-78.232
X49.506Y-73.66
X50.038Y-31.242
X50.292Y-55.372
X51.308Y-92.964
X51.562Y-30.226
X52.5Y-63.
X52.578Y-69.088
X54.554Y-64.008
X74.386Y-42.545
X74.676Y-26.416
X75.057Y-74.168
X75.184Y-82.804
X75.692Y-29.718
X75.844Y-74.693
X76.2Y-88.392
X76.898Y-77.875
X77.8Y-73.152
X78.74Y-102.108
X78.75Y-60.201
X79.248Y-41.656
X79.502Y-39.878
X80.772Y-97.028
X83.074Y-80.772
X88.392Y-45.466
X89.154Y-32.512
X90.932Y-36.83
X91.44Y-78.232
X93.98Y-91.186
X96.Y-49.967
X96.055Y-69.955
X97.79Y-44.958
X98.552Y-107.696
X99.425Y-95.018
X100.584Y-34.798
X101.092Y-79.248
X102.108Y-59.454
X102.108Y-92.964
X102.616Y-26.416
X102.616Y-40.132
X102.616Y-74.676
X102.87Y-98.298
X103.632Y-75.184
X103.949Y-41.155
X104.159Y-76.2
X105.156Y-84.158
X105.156Y-86.36
X105.156Y-87.376
X105.41Y-34.798
X105.483Y-93.98
X105.664Y-81.28
X108.204Y-73.66
X108.204Y-91.44
X108.712Y-88.392
X109.057Y-85.982
X109.22Y-93.98
X110.661Y-94.805
X110.744Y-64.008
X111.252Y-38.811
X111.451Y-92.281
X112.071Y-93.224
X112.118Y-86.196
X112.268Y-32.004
X112.633Y-101.881
X112.942Y-37.084
X116.332Y-81.597
X120.396Y-77.216
X120.396Y-86.868
X120.937Y-87.655
X121.412Y-77.724
X123.952Y-37.592
X123.952Y-93.98
X124.46Y-38.608
X124.46Y-94.805
X126.746Y-106.934
X127.508Y-40.132
X128.016Y-55.372
X129.032Y-97.028
X129.54Y-86.36
X130.556Y-39.624
X131.064Y-44.704
X132.08Y-81.508
X132.588Y-32.512
X133.325Y-37.749
X135.128Y-74.168
X146.304Y-108.458
X147.828Y-38.156
X148.844Y-94.996
X149.352Y-39.002
X149.352Y-93.98
X150.876Y-31.496
X152.908Y-39.624
X154.178Y-97.282
X154.432Y-92.456
X155.922Y-40.471
X155.956Y-45.402
X157.988Y-76.12
X161.036Y-40.132
X163.576Y-101.092
X165.1Y-105.41
X167.64Y-38.917
X170.295Y-39.363
X173.736Y-93.98
X174.244Y-40.132
X174.244Y-75.184
X174.244Y-94.996
X175.26Y-45.72
X176.276Y-31.496
X178.816Y-40.132
X178.816Y-97.282
X179.231Y-93.338
X179.578Y-50.292
X179.578Y-69.088
X181.61Y-56.388
X185.166Y-54.102
X186.182Y-31.242
X187.157Y-39.319
X199.136Y-94.996
X199.644Y-94.031
X201.168Y-34.544
X201.676Y-44.704
X202.692Y-91.948
X203.2Y-92.964
X205.74Y-96.012
X206.248Y-29.464
X212.979Y-49.022
X219.519Y-44.704
X222.504Y-101.346
X224.472Y-55.816
X225.869Y-25.654
X225.94Y-93.281
X227.076Y-26.226
X227.584Y-93.293
X229.142Y-98.047
X229.171Y-44.704
X230.378Y-23.114
X230.632Y-55.816
X231.238Y-94.654
X232.029Y-50.863
X241.351Y-98.247
X242.189Y-112.331
X242.379Y-61.658
X242.4Y-79.021
X246.444Y-31.369
X247.459Y-26.416
X248.666Y-22.987
X249.618Y-94.297
X249.618Y-95.694
X249.682Y-25.908
X251.055Y-59.182
X252.654Y-93.273
X254.157Y-99.946
X254.571Y-44.704
X255.905Y-62.989
X256.413Y-95.758
X256.794Y-45.529
X260.294Y-36.217
X260.541Y-69.469
X270.7Y-95.567
X273.939Y-26.479
X274.002Y-94.551
X274.13Y-41.91
X275.907Y-93.213
X277.05Y-25.654
X277.276Y-96.978
X278.13Y-44.704
X279.082Y-103.251
X280.606Y-100.266
X283.845Y-95.466
X284.353Y-31.242
X284.353Y-36.834
X285.051Y-93.472
X286.639Y-64.03
X287.579Y-97.338
X289.179Y-50.165
X292.227Y-86.36
X293.116Y-41.846
X293.917Y-37.338
X293.941Y-50.228
X297.434Y-76.2
X297.625Y-26.607
X298.577Y-25.717
X300.609Y-98.234
X300.609Y-103.314
X300.863Y-93.213
X304.165Y-44.895
X304.165Y-102.552
X304.546Y-73.025
X305.752Y-94.551
X306.832Y-100.901
X308.356Y-87.058
X310.325Y-94.551
X311.087Y-67.437
X311.404Y-74.676
X311.912Y-59.436
X312.991Y-40.921
X313.281Y-61.726
X313.436Y-70.548
X314.656Y-78.396
X314.738Y-60.931
X315.087Y-62.865
X315.659Y-46.101
X315.976Y-72.072
X316.8Y-77.004
X316.948Y-60.701
X317.754Y-100.838
X319.07Y-37.846
X319.405Y-95.313
X319.861Y-79.251
X320.294Y-56.388
X320.853Y-64.821
X321.636Y-80.567
X321.81Y-63.43
X322.665Y-95.32
X322.707Y-59.436
X324.739Y-94.424
X324.929Y-26.289
X325.31Y-43.434
X325.739Y-65.158
X325.882Y-68.453
X325.882Y-103.695
X325.945Y-25.781
X326.072Y-63.373
X326.327Y-54.292
X326.707Y-73.85
X327.134Y-101.854
X327.533Y-70.612
X329.081Y-102.882
X329.12Y-93.281
X330.073Y-63.373
X330.581Y-37.91
X331.851Y-44.22
X332.067Y-65.22
X332.105Y-97.536
X333.135Y-58.691
X334.772Y-23.114
X336.486Y-50.101
X336.613Y-101.917
X338.264Y-92.9
X339.28Y-79.819
X339.344Y-65.024
X339.852Y-45.237
X341.369Y-102.108
X341.707Y-82.042
X342.138Y-66.548
X342.138Y-107.696
X342.9Y-65.786
X343.916Y-80.962
X343.939Y-72.592
X344.947Y-73.421
X345.948Y-67.818
X346.302Y-38.542
X346.967Y-36.385
X347.472Y-64.249
X347.865Y-102.821
X348.424Y-104.394
X348.488Y-60.452
X348.615Y-106.172
X348.742Y-93.98
X349.504Y-103.632
X350.635Y-66.493
X350.672Y-62.474
X350.774Y-65.024
X352.869Y-58.928
X352.933Y-97.599
X353.06Y-72.39
X353.148Y-56.508
X353.314Y-64.249
X353.314Y-67.31
X353.427Y-65.593
X353.882Y-92.011
X353.885Y-93.281
X354.217Y-63.552
X354.774Y-103.188
X356.87Y-76.454
X356.997Y-95.758
X357.632Y-96.774
X358.14Y-56.388
X358.496Y-73.338
X358.563Y-83.236
X359.029Y-110.998
X359.156Y-70.053
X359.341Y-62.067
X360.207Y-61.354
X360.934Y-75.184
X361.769Y-89.608
X361.769Y-94.783
X361.835Y-64.516
X362.204Y-68.834
X362.227Y-58.756
X362.48Y-59.967
X363.474Y-88.9
X364.541Y-70.475
X364.593Y-61.468
X364.617Y-78.232
X364.998Y-57.404
X365.633Y-77.343
X366.014Y-40.64
X366.014Y-57.658
X366.776Y-58.166
X366.966Y-99.251
X367.03Y-39.878
X367.77Y-92.583
X368.3Y-58.811
X368.998Y-103.188
X375.285Y-102.743
X375.793Y-103.886
X375.983Y-40.259
X376.174Y-46.228
X377.317Y-77.153
X377.571Y-42.1
X378.206Y-74.358
X378.206Y-83.693
X378.65Y-108.966
X379.73Y-25.717
X380.301Y-45.529
X380.683Y-95.758
X381.508Y-37.02
X382.448Y-77.153
X382.524Y-83.629
X384.302Y-99.695
X384.402Y-80.925
X385.572Y-95.567
X385.826Y-58.928
X386.651Y-56.07
X387.096Y-61.722
X388.175Y-44.577
X388.366Y-58.928
X388.366Y-79.248
X388.429Y-96.647
X388.62Y-84.074
X389.636Y-88.646
X391.16Y-88.646
X392.43Y-75.184
X393.446Y-84.582
X394.218Y-81.718
X395.199Y-82.042
X396.748Y-70.612
T3
X35.559Y-36.579
X35.559Y-39.627
X35.559Y-74.933
X35.559Y-77.473
X35.559Y-96.523
X45.719Y-36.579
X45.719Y-39.627
X45.719Y-74.933
X45.719Y-77.473
X45.719Y-96.523
X48.26Y-22.86
X48.26Y-33.02
X48.263Y-42.165
X48.263Y-52.325
X48.263Y-61.215
X48.263Y-71.375
X48.263Y-80.265
X48.263Y-90.425
X48.263Y-99.315
X48.263Y-109.475
X76.707Y-36.833
X86.867Y-36.833
X90.17Y-74.676
X90.17Y-77.216
X90.805Y-22.86
X90.805Y-33.02
X92.713Y-99.187
X92.713Y-109.347
X94.615Y-43.434
X94.615Y-53.594
X100.33Y-74.676
X100.33Y-77.216
X100.587Y-43.434
X100.587Y-53.594
X105.159Y-60.961
X105.159Y-71.121
X109.982Y-22.86
X109.982Y-33.02
X114.811Y-80.265
X114.811Y-90.425
X115.951Y-99.187
X115.951Y-109.347
X119.637Y-42.165
X119.637Y-52.325
X122.177Y-99.315
X122.177Y-109.475
X124.463Y-60.961
X124.463Y-71.121
X129.032Y-22.86
X129.032Y-33.02
X133.861Y-80.265
X133.861Y-90.425
X138.687Y-42.165
X138.687Y-52.325
X143.513Y-60.961
X143.513Y-71.121
X148.082Y-22.86
X148.082Y-33.02
X152.911Y-80.265
X152.911Y-90.425
X157.737Y-42.165
X157.737Y-52.325
X162.563Y-60.961
X162.563Y-71.121
X167.132Y-22.86
X167.132Y-33.02
X171.961Y-80.265
X171.961Y-90.425
X176.787Y-42.165
X176.787Y-52.325
X181.613Y-60.961
X181.613Y-71.121
X182.88Y-99.314
X186.182Y-22.86
X186.182Y-33.02
X191.011Y-80.265
X191.011Y-90.425
X193.04Y-99.314
X195.837Y-42.165
X195.837Y-52.325
X205.232Y-22.86
X205.232Y-33.02
X209.804Y-74.676
X210.061Y-80.265
X210.061Y-90.425
X214.887Y-42.165
X214.887Y-52.325
X219.713Y-61.595
X219.713Y-71.755
X219.964Y-74.676
X224.282Y-22.86
X224.282Y-33.02
X229.111Y-80.265
X229.111Y-90.425
X233.937Y-42.165
X233.937Y-52.325
X238.763Y-60.707
X238.763Y-70.867
X243.332Y-22.86
X243.332Y-33.02
X248.161Y-80.265
X248.161Y-90.425
X252.987Y-42.165
X252.987Y-52.325
X257.813Y-60.707
X257.813Y-70.867
X262.382Y-22.86
X262.382Y-33.02
X264.925Y-99.315
X264.925Y-109.475
X267.211Y-80.265
X267.211Y-90.425
X272.037Y-42.165
X272.037Y-52.325
X276.863Y-60.707
X276.863Y-70.867
X281.432Y-22.86
X281.432Y-33.02
X286.261Y-80.265
X286.261Y-90.425
X288.547Y-99.315
X288.547Y-109.475
X291.087Y-42.165
X291.087Y-52.325
X295.913Y-60.707
X295.913Y-70.867
X300.482Y-22.86
X300.482Y-33.02
X310.137Y-42.165
X310.137Y-52.325
X312.423Y-99.315
X312.423Y-109.475
X320.5Y-22.86
X320.5Y-33.02
X332.74Y-74.93
X334.013Y-42.165
X334.013Y-52.325
X340.Y-99.315
X340.Y-109.475
X342.9Y-74.93
X343.411Y-99.315
X343.411Y-109.475
X362.461Y-99.315
X362.461Y-109.475
X368.935Y-55.626
X379.095Y-55.626
X380.495Y-80.265
X380.495Y-90.425
X380.995Y-23.495
X380.995Y-33.655
X381.508Y-42.255
X381.508Y-52.415
X381.508Y-99.314
X381.508Y-109.474
X385.445Y-36.83
X395.605Y-36.83
T4
X352.55Y-21.851
X354.55Y-21.851
X356.55Y-21.851
X358.55Y-21.851
T5
X36.83Y-23.495
X36.83Y-42.545
X36.83Y-61.595
X36.83Y-80.645
X36.83Y-99.695
X39.37Y-23.495
X39.37Y-42.545
X39.37Y-61.595
X39.37Y-80.645
X39.37Y-99.695
X55.88Y-23.495
X55.88Y-42.545
X55.88Y-61.595
X55.88Y-80.645
X55.88Y-99.695
X58.42Y-23.495
X58.42Y-42.545
X58.42Y-61.595
X58.42Y-80.645
X58.42Y-99.695
X79.692Y-23.495
X82.074Y-61.595
X82.074Y-99.695
X82.233Y-23.495
X84.455Y-42.545
X84.614Y-61.595
X84.614Y-99.695
X86.836Y-61.595
X86.995Y-42.545
X89.376Y-61.595
X91.599Y-80.645
X94.139Y-80.645
X98.742Y-23.495
X101.282Y-23.495
X105.886Y-99.695
X108.267Y-42.545
X108.426Y-99.695
X110.807Y-42.545
X113.03Y-61.595
X115.57Y-61.595
X117.792Y-23.495
X120.332Y-23.495
X122.555Y-80.645
X125.095Y-80.645
X127.317Y-42.545
X129.699Y-99.695
X129.857Y-42.545
X132.08Y-61.595
X132.239Y-99.695
X134.62Y-61.595
X136.843Y-23.495
X139.382Y-23.495
X141.605Y-80.645
X144.145Y-80.645
X146.368Y-42.545
X148.907Y-42.545
X151.13Y-61.595
X153.67Y-61.595
X155.892Y-23.495
X158.433Y-23.495
X160.655Y-80.645
X163.195Y-80.645
X165.417Y-42.545
X167.957Y-42.545
X170.18Y-61.595
X172.72Y-61.595
X174.942Y-23.495
X177.482Y-23.495
X179.705Y-80.645
X182.245Y-80.645
X184.468Y-42.545
X187.007Y-42.545
X189.23Y-61.595
X191.77Y-61.595
X193.992Y-23.495
X196.532Y-23.495
X198.755Y-80.645
X201.136Y-99.695
X201.295Y-80.645
X203.517Y-42.545
X203.676Y-99.695
X206.058Y-42.545
X208.28Y-61.595
X210.82Y-61.595
X213.042Y-23.495
X215.582Y-23.495
X217.805Y-80.645
X220.345Y-80.645
X222.567Y-42.545
X225.107Y-42.545
X227.33Y-61.595
X229.87Y-61.595
X232.093Y-23.495
X234.632Y-23.495
X236.855Y-80.645
X239.395Y-80.645
X241.617Y-42.545
X244.157Y-42.545
X246.38Y-61.595
X248.92Y-61.595
X251.142Y-23.495
X253.682Y-23.495
X255.905Y-80.645
X258.445Y-80.645
X260.667Y-42.545
X263.207Y-42.545
X265.43Y-61.595
X267.97Y-61.595
X270.192Y-23.495
X272.574Y-99.695
X272.733Y-23.495
X274.955Y-80.645
X275.114Y-99.695
X277.495Y-80.645
X279.717Y-42.545
X282.257Y-42.545
X284.48Y-61.595
X287.02Y-61.595
X289.243Y-23.495
X291.782Y-23.495
X294.005Y-80.645
X296.386Y-99.695
X296.545Y-80.645
X298.767Y-42.545
X298.926Y-99.695
X301.308Y-42.545
X303.53Y-61.595
X306.07Y-61.595
X308.292Y-23.495
X310.832Y-23.495
X317.817Y-42.545
X320.199Y-99.695
X320.357Y-42.545
X322.739Y-99.695
X329.724Y-80.645
X332.264Y-80.645
X334.486Y-61.595
X336.868Y-23.495
X337.026Y-61.595
X339.407Y-23.495
X341.63Y-42.545
X344.17Y-42.545
X351.155Y-99.695
X353.695Y-99.695
X370.205Y-23.495
X370.205Y-42.545
X370.205Y-80.645
X370.205Y-99.695
X372.745Y-23.495
X372.745Y-42.545
X372.745Y-80.645
X372.745Y-99.695
X389.255Y-23.495
X389.255Y-42.545
X389.255Y-99.695
X391.795Y-23.495
X391.795Y-42.545
X391.795Y-99.695
T7
X57.15Y-38.1
X57.15Y-95.25
X95.25Y-38.1
X95.25Y-95.25
X219.075Y-57.15
X371.475Y-38.1
X371.475Y-95.25
T8
X388.525Y-87.725
X392.525Y-83.725
T9
X354.8Y-24.851
X359.2Y-24.851
T10
X72.Y-21.
X72.Y-23.
X72.Y-27.
X72.Y-29.
X72.Y-31.
X72.Y-33.
X72.Y-37.
X72.Y-39.
X72.Y-41.
X72.Y-45.
X72.Y-47.
X72.Y-49.
X72.Y-51.
X72.Y-53.
X72.Y-56.
X72.Y-58.
X72.Y-62.
X72.Y-64.
X72.Y-66.
X72.Y-68.
X72.Y-70.
X72.Y-72.
X72.Y-77.
X72.Y-81.
X72.Y-83.
X72.Y-85.
X72.Y-87.
X72.Y-89.
X72.Y-91.
X72.Y-94.
X72.Y-96.
X72.Y-98.
X72.Y-102.
X72.Y-104.
X72.Y-106.
X72.Y-108.
X72.Y-110.
X72.Y-112.
T11
X38.1Y-28.575
X38.1Y-47.625
X38.1Y-66.675
X38.1Y-85.725
X38.1Y-104.775
X57.15Y-28.575
X57.15Y-47.625
X57.15Y-66.675
X57.15Y-85.725
X57.15Y-104.775
X80.962Y-28.575
X83.344Y-66.675
X83.344Y-104.775
X85.725Y-47.625
X88.106Y-66.675
X92.869Y-85.725
X100.012Y-28.575
X107.156Y-104.775
X109.537Y-47.625
X114.3Y-66.675
X119.062Y-28.575
X123.825Y-85.725
X128.588Y-47.625
X130.969Y-104.775
X133.35Y-66.675
X138.112Y-28.575
X142.875Y-85.725
X147.637Y-47.625
X152.4Y-66.675
X157.162Y-28.575
X161.925Y-85.725
X166.688Y-47.625
X171.45Y-66.675
X176.213Y-28.575
X180.975Y-85.725
X185.737Y-47.625
X190.5Y-66.675
X195.262Y-28.575
X200.025Y-85.725
X202.406Y-104.775
X204.787Y-47.625
X209.55Y-66.675
X214.312Y-28.575
X219.075Y-85.725
X223.837Y-47.625
X228.6Y-66.675
X233.362Y-28.575
X238.125Y-85.725
X242.887Y-47.625
X247.65Y-66.675
X252.412Y-28.575
X257.175Y-85.725
X261.938Y-47.625
X266.7Y-66.675
X271.462Y-28.575
X273.844Y-104.775
X276.225Y-85.725
X280.988Y-47.625
X285.75Y-66.675
X290.512Y-28.575
X295.275Y-85.725
X297.656Y-104.775
X300.037Y-47.625
X304.8Y-66.675
X309.562Y-28.575
X319.087Y-47.625
X321.469Y-104.775
X330.994Y-85.725
X335.756Y-66.675
X338.137Y-28.575
X342.9Y-47.625
X352.425Y-104.775
X371.475Y-28.575
X371.475Y-47.625
X371.475Y-85.725
X371.475Y-104.775
X390.525Y-28.575
X390.525Y-47.625
X390.525Y-104.775
T12
X231.14Y-104.648
X245.618Y-104.648
T6
X35.56Y-33.654G85X35.6Y-33.076
G05
X35.56Y-52.704G85X35.6Y-52.126
G05
X35.56Y-71.754G85X35.6Y-71.176
G05
X35.56Y-90.804G85X35.6Y-90.226
G05
X35.56Y-109.854G85X35.6Y-109.276
G05
X41.1Y-32.575G85X41.91Y-31.115
G05
X41.1Y-51.625G85X41.91Y-50.165
G05
X41.1Y-70.675G85X41.91Y-69.215
G05
X41.1Y-89.725G85X41.91Y-88.265
G05
X41.1Y-108.775G85X41.91Y-107.315
G05
X54.61Y-33.654G85X54.65Y-33.076
G05
X54.61Y-52.704G85X54.65Y-52.126
G05
X54.61Y-71.754G85X54.65Y-71.176
G05
X54.61Y-90.804G85X54.65Y-90.226
G05
X54.61Y-109.854G85X54.65Y-109.276
G05
X60.15Y-32.575G85X60.96Y-31.115
G05
X60.15Y-51.625G85X60.96Y-50.165
G05
X60.15Y-70.675G85X60.96Y-69.215
G05
X60.15Y-89.725G85X60.96Y-88.265
G05
X60.15Y-108.775G85X60.96Y-107.315
G05
X78.423Y-33.654G85X78.462Y-33.076
G05
X80.804Y-71.754G85X80.843Y-71.176
G05
X80.804Y-109.854G85X80.843Y-109.276
G05
X83.185Y-52.704G85X83.225Y-52.126
G05
X83.962Y-32.575G85X84.773Y-31.115
G05
X85.567Y-71.754G85X85.606Y-71.176
G05
X86.343Y-70.675G85X87.154Y-69.215
G05
X86.343Y-108.775G85X87.154Y-107.315
G05
X88.725Y-51.625G85X89.535Y-50.165
G05
X90.329Y-90.804G85X90.368Y-90.226
G05
X91.106Y-70.675G85X91.917Y-69.215
G05
X95.868Y-89.725G85X96.679Y-88.265
G05
X97.473Y-33.654G85X97.512Y-33.076
G05
X103.012Y-32.575G85X103.823Y-31.115
G05
X104.617Y-109.854G85X104.656Y-109.276
G05
X106.998Y-52.704G85X107.037Y-52.126
G05
X110.156Y-108.775G85X110.967Y-107.315
G05
X111.76Y-71.754G85X111.8Y-71.176
G05
X112.537Y-51.625G85X113.348Y-50.165
G05
X116.523Y-33.654G85X116.562Y-33.076
G05
X117.3Y-70.675G85X118.11Y-69.215
G05
X121.285Y-90.804G85X121.325Y-90.226
G05
X122.062Y-32.575G85X122.873Y-31.115
G05
X126.048Y-52.704G85X126.087Y-52.126
G05
X126.825Y-89.725G85X127.635Y-88.265
G05
X128.429Y-109.854G85X128.468Y-109.276
G05
X130.81Y-71.754G85X130.85Y-71.176
G05
X131.587Y-51.625G85X132.398Y-50.165
G05
X133.968Y-108.775G85X134.779Y-107.315
G05
X135.573Y-33.654G85X135.612Y-33.076
G05
X136.35Y-70.675G85X137.16Y-69.215
G05
X140.335Y-90.804G85X140.375Y-90.226
G05
X141.112Y-32.575G85X141.923Y-31.115
G05
X145.098Y-52.704G85X145.137Y-52.126
G05
X145.875Y-89.725G85X146.685Y-88.265
G05
X149.86Y-71.754G85X149.9Y-71.176
G05
X150.637Y-51.625G85X151.448Y-50.165
G05
X154.623Y-33.654G85X154.662Y-33.076
G05
X155.4Y-70.675G85X156.21Y-69.215
G05
X159.385Y-90.804G85X159.425Y-90.226
G05
X160.162Y-32.575G85X160.973Y-31.115
G05
X164.148Y-52.704G85X164.187Y-52.126
G05
X164.925Y-89.725G85X165.735Y-88.265
G05
X168.91Y-71.754G85X168.95Y-71.176
G05
X169.687Y-51.625G85X170.498Y-50.165
G05
X173.673Y-33.654G85X173.712Y-33.076
G05
X174.45Y-70.675G85X175.26Y-69.215
G05
X178.435Y-90.804G85X178.475Y-90.226
G05
X179.212Y-32.575G85X180.023Y-31.115
G05
X183.198Y-52.704G85X183.237Y-52.126
G05
X183.975Y-89.725G85X184.785Y-88.265
G05
X187.96Y-71.754G85X188.Y-71.176
G05
X188.737Y-51.625G85X189.548Y-50.165
G05
X192.723Y-33.654G85X192.762Y-33.076
G05
X193.5Y-70.675G85X194.31Y-69.215
G05
X197.485Y-90.804G85X197.525Y-90.226
G05
X198.262Y-32.575G85X199.073Y-31.115
G05
X199.867Y-109.854G85X199.906Y-109.276
G05
X202.248Y-52.704G85X202.287Y-52.126
G05
X203.025Y-89.725G85X203.835Y-88.265
G05
X205.406Y-108.775G85X206.217Y-107.315
G05
X207.01Y-71.754G85X207.05Y-71.176
G05
X207.787Y-51.625G85X208.598Y-50.165
G05
X211.773Y-33.654G85X211.812Y-33.076
G05
X212.55Y-70.675G85X213.36Y-69.215
G05
X216.535Y-90.804G85X216.575Y-90.226
G05
X217.312Y-32.575G85X218.123Y-31.115
G05
X221.298Y-52.704G85X221.337Y-52.126
G05
X222.075Y-89.725G85X222.885Y-88.265
G05
X226.06Y-71.754G85X226.1Y-71.176
G05
X226.837Y-51.625G85X227.648Y-50.165
G05
X230.823Y-33.654G85X230.862Y-33.076
G05
X231.6Y-70.675G85X232.41Y-69.215
G05
X235.585Y-90.804G85X235.625Y-90.226
G05
X236.362Y-32.575G85X237.173Y-31.115
G05
X240.348Y-52.704G85X240.387Y-52.126
G05
X241.125Y-89.725G85X241.935Y-88.265
G05
X245.11Y-71.754G85X245.15Y-71.176
G05
X245.887Y-51.625G85X246.698Y-50.165
G05
X249.873Y-33.654G85X249.912Y-33.076
G05
X250.65Y-70.675G85X251.46Y-69.215
G05
X254.635Y-90.804G85X254.675Y-90.226
G05
X255.412Y-32.575G85X256.223Y-31.115
G05
X259.398Y-52.704G85X259.437Y-52.126
G05
X260.175Y-89.725G85X260.985Y-88.265
G05
X264.16Y-71.754G85X264.2Y-71.176
G05
X264.937Y-51.625G85X265.748Y-50.165
G05
X268.923Y-33.654G85X268.962Y-33.076
G05
X269.7Y-70.675G85X270.51Y-69.215
G05
X271.304Y-109.854G85X271.343Y-109.276
G05
X273.685Y-90.804G85X273.725Y-90.226
G05
X274.462Y-32.575G85X275.273Y-31.115
G05
X276.843Y-108.775G85X277.654Y-107.315
G05
X278.448Y-52.704G85X278.487Y-52.126
G05
X279.225Y-89.725G85X280.035Y-88.265
G05
X283.21Y-71.754G85X283.25Y-71.176
G05
X283.987Y-51.625G85X284.798Y-50.165
G05
X287.973Y-33.654G85X288.012Y-33.076
G05
X288.75Y-70.675G85X289.56Y-69.215
G05
X292.735Y-90.804G85X292.775Y-90.226
G05
X293.512Y-32.575G85X294.323Y-31.115
G05
X295.117Y-109.854G85X295.156Y-109.276
G05
X297.498Y-52.704G85X297.537Y-52.126
G05
X298.275Y-89.725G85X299.085Y-88.265
G05
X300.656Y-108.775G85X301.467Y-107.315
G05
X302.26Y-71.754G85X302.3Y-71.176
G05
X303.037Y-51.625G85X303.848Y-50.165
G05
X307.023Y-33.654G85X307.062Y-33.076
G05
X307.8Y-70.675G85X308.61Y-69.215
G05
X312.562Y-32.575G85X313.373Y-31.115
G05
X316.548Y-52.704G85X316.587Y-52.126
G05
X318.929Y-109.854G85X318.968Y-109.276
G05
X322.087Y-51.625G85X322.898Y-50.165
G05
X324.468Y-108.775G85X325.279Y-107.315
G05
X328.454Y-90.804G85X328.493Y-90.226
G05
X333.217Y-71.754G85X333.256Y-71.176
G05
X333.993Y-89.725G85X334.804Y-88.265
G05
X335.598Y-33.654G85X335.637Y-33.076
G05
X338.756Y-70.675G85X339.567Y-69.215
G05
X340.36Y-52.704G85X340.4Y-52.126
G05
X341.137Y-32.575G85X341.948Y-31.115
G05
X345.9Y-51.625G85X346.71Y-50.165
G05
X349.885Y-109.854G85X349.925Y-109.276
G05
X355.425Y-108.775G85X356.235Y-107.315
G05
X368.935Y-33.654G85X368.975Y-33.076
G05
X368.935Y-52.704G85X368.975Y-52.126
G05
X368.935Y-90.804G85X368.975Y-90.226
G05
X368.935Y-109.854G85X368.975Y-109.276
G05
X374.475Y-32.575G85X375.285Y-31.115
G05
X374.475Y-51.625G85X375.285Y-50.165
G05
X374.475Y-89.725G85X375.285Y-88.265
G05
X374.475Y-108.775G85X375.285Y-107.315
G05
X387.985Y-33.654G85X388.025Y-33.076
G05
X387.985Y-52.704G85X388.025Y-52.126
G05
X387.985Y-109.854G85X388.025Y-109.276
G05
X393.525Y-32.575G85X394.335Y-31.115
G05
X393.525Y-51.625G85X394.335Y-50.165
G05
X393.525Y-108.775G85X394.335Y-107.315
G05
T0
M30
