G04 #@! TF.FileFunction,Legend,Top*
%FSLAX46Y46*%
G04 Gerber Fmt 4.6, Leading zero omitted, Abs format (unit mm)*
G04 Created by KiCad (PCBNEW 4.0.3-stable) date Saturday, August 27, 2016 'PMt' 08:14:25 PM*
%MOMM*%
%LPD*%
G01*
G04 APERTURE LIST*
%ADD10C,0.150000*%
%ADD11C,0.300000*%
%ADD12C,0.381000*%
G04 APERTURE END LIST*
D10*
X352100000Y-24957142D02*
X352061905Y-25014285D01*
X352061905Y-25099999D01*
X352100000Y-25185714D01*
X352176190Y-25242856D01*
X352252381Y-25271428D01*
X352404762Y-25299999D01*
X352519048Y-25299999D01*
X352671429Y-25271428D01*
X352747619Y-25242856D01*
X352823810Y-25185714D01*
X352861905Y-25099999D01*
X352861905Y-25042856D01*
X352823810Y-24957142D01*
X352785714Y-24928571D01*
X352519048Y-24928571D01*
X352519048Y-25042856D01*
X352861905Y-24671428D02*
X352061905Y-24671428D01*
X352861905Y-24328571D01*
X352061905Y-24328571D01*
X352861905Y-24042857D02*
X352061905Y-24042857D01*
X352061905Y-23900000D01*
X352100000Y-23814285D01*
X352176190Y-23757143D01*
X352252381Y-23728571D01*
X352404762Y-23700000D01*
X352519048Y-23700000D01*
X352671429Y-23728571D01*
X352747619Y-23757143D01*
X352823810Y-23814285D01*
X352861905Y-23900000D01*
X352861905Y-24042857D01*
X357811905Y-25378571D02*
X358459524Y-25378571D01*
X358535714Y-25349999D01*
X358573810Y-25321428D01*
X358611905Y-25264285D01*
X358611905Y-25149999D01*
X358573810Y-25092857D01*
X358535714Y-25064285D01*
X358459524Y-25035714D01*
X357811905Y-25035714D01*
X358573810Y-24778571D02*
X358611905Y-24692857D01*
X358611905Y-24550000D01*
X358573810Y-24492857D01*
X358535714Y-24464286D01*
X358459524Y-24435714D01*
X358383333Y-24435714D01*
X358307143Y-24464286D01*
X358269048Y-24492857D01*
X358230952Y-24550000D01*
X358192857Y-24664286D01*
X358154762Y-24721428D01*
X358116667Y-24750000D01*
X358040476Y-24778571D01*
X357964286Y-24778571D01*
X357888095Y-24750000D01*
X357850000Y-24721428D01*
X357811905Y-24664286D01*
X357811905Y-24521428D01*
X357850000Y-24435714D01*
X358192857Y-23978571D02*
X358230952Y-23892857D01*
X358269048Y-23864285D01*
X358345238Y-23835714D01*
X358459524Y-23835714D01*
X358535714Y-23864285D01*
X358573810Y-23892857D01*
X358611905Y-23949999D01*
X358611905Y-24178571D01*
X357811905Y-24178571D01*
X357811905Y-23978571D01*
X357850000Y-23921428D01*
X357888095Y-23892857D01*
X357964286Y-23864285D01*
X358040476Y-23864285D01*
X358116667Y-23892857D01*
X358154762Y-23921428D01*
X358192857Y-23978571D01*
X358192857Y-24178571D01*
X358307143Y-23578571D02*
X358307143Y-23121428D01*
X358611905Y-23349999D02*
X358002381Y-23349999D01*
X356061905Y-25378571D02*
X356709524Y-25378571D01*
X356785714Y-25349999D01*
X356823810Y-25321428D01*
X356861905Y-25264285D01*
X356861905Y-25149999D01*
X356823810Y-25092857D01*
X356785714Y-25064285D01*
X356709524Y-25035714D01*
X356061905Y-25035714D01*
X356823810Y-24778571D02*
X356861905Y-24692857D01*
X356861905Y-24550000D01*
X356823810Y-24492857D01*
X356785714Y-24464286D01*
X356709524Y-24435714D01*
X356633333Y-24435714D01*
X356557143Y-24464286D01*
X356519048Y-24492857D01*
X356480952Y-24550000D01*
X356442857Y-24664286D01*
X356404762Y-24721428D01*
X356366667Y-24750000D01*
X356290476Y-24778571D01*
X356214286Y-24778571D01*
X356138095Y-24750000D01*
X356100000Y-24721428D01*
X356061905Y-24664286D01*
X356061905Y-24521428D01*
X356100000Y-24435714D01*
X356442857Y-23978571D02*
X356480952Y-23892857D01*
X356519048Y-23864285D01*
X356595238Y-23835714D01*
X356709524Y-23835714D01*
X356785714Y-23864285D01*
X356823810Y-23892857D01*
X356861905Y-23949999D01*
X356861905Y-24178571D01*
X356061905Y-24178571D01*
X356061905Y-23978571D01*
X356100000Y-23921428D01*
X356138095Y-23892857D01*
X356214286Y-23864285D01*
X356290476Y-23864285D01*
X356366667Y-23892857D01*
X356404762Y-23921428D01*
X356442857Y-23978571D01*
X356442857Y-24178571D01*
X356557143Y-23578571D02*
X356557143Y-23121428D01*
X354557143Y-24264286D02*
X354557143Y-23807143D01*
X354861905Y-24035714D02*
X354252381Y-24035714D01*
X354061905Y-23235715D02*
X354061905Y-23521429D01*
X354442857Y-23550000D01*
X354404762Y-23521429D01*
X354366667Y-23464286D01*
X354366667Y-23321429D01*
X354404762Y-23264286D01*
X354442857Y-23235715D01*
X354519048Y-23207143D01*
X354709524Y-23207143D01*
X354785714Y-23235715D01*
X354823810Y-23264286D01*
X354861905Y-23321429D01*
X354861905Y-23464286D01*
X354823810Y-23521429D01*
X354785714Y-23550000D01*
D11*
X84357144Y-64285714D02*
X84285715Y-64357143D01*
X84071429Y-64428571D01*
X83928572Y-64428571D01*
X83714287Y-64357143D01*
X83571429Y-64214286D01*
X83500001Y-64071429D01*
X83428572Y-63785714D01*
X83428572Y-63571429D01*
X83500001Y-63285714D01*
X83571429Y-63142857D01*
X83714287Y-63000000D01*
X83928572Y-62928571D01*
X84071429Y-62928571D01*
X84285715Y-63000000D01*
X84357144Y-63071429D01*
X84928572Y-64000000D02*
X85642858Y-64000000D01*
X84785715Y-64428571D02*
X85285715Y-62928571D01*
X85785715Y-64428571D01*
X86285715Y-64428571D02*
X86285715Y-62928571D01*
X86857143Y-62928571D01*
X87000001Y-63000000D01*
X87071429Y-63071429D01*
X87142858Y-63214286D01*
X87142858Y-63428571D01*
X87071429Y-63571429D01*
X87000001Y-63642857D01*
X86857143Y-63714286D01*
X86285715Y-63714286D01*
X87714286Y-64357143D02*
X87928572Y-64428571D01*
X88285715Y-64428571D01*
X88428572Y-64357143D01*
X88500001Y-64285714D01*
X88571429Y-64142857D01*
X88571429Y-64000000D01*
X88500001Y-63857143D01*
X88428572Y-63785714D01*
X88285715Y-63714286D01*
X88000001Y-63642857D01*
X87857143Y-63571429D01*
X87785715Y-63500000D01*
X87714286Y-63357143D01*
X87714286Y-63214286D01*
X87785715Y-63071429D01*
X87857143Y-63000000D01*
X88000001Y-62928571D01*
X88357143Y-62928571D01*
X88571429Y-63000000D01*
X96285714Y-70928571D02*
X96357143Y-71000000D01*
X96428571Y-71214286D01*
X96428571Y-71357143D01*
X96357143Y-71571428D01*
X96214286Y-71714286D01*
X96071429Y-71785714D01*
X95785714Y-71857143D01*
X95571429Y-71857143D01*
X95285714Y-71785714D01*
X95142857Y-71714286D01*
X95000000Y-71571428D01*
X94928571Y-71357143D01*
X94928571Y-71214286D01*
X95000000Y-71000000D01*
X95071429Y-70928571D01*
X95642857Y-70285714D02*
X95642857Y-69785714D01*
X96428571Y-69571428D02*
X96428571Y-70285714D01*
X94928571Y-70285714D01*
X94928571Y-69571428D01*
X96428571Y-68928571D02*
X94928571Y-68928571D01*
X96428571Y-68071428D01*
X94928571Y-68071428D01*
X94928571Y-67571428D02*
X94928571Y-66714285D01*
X96428571Y-67142856D02*
X94928571Y-67142856D01*
X95642857Y-66214285D02*
X95642857Y-65714285D01*
X96428571Y-65499999D02*
X96428571Y-66214285D01*
X94928571Y-66214285D01*
X94928571Y-65499999D01*
X96428571Y-63999999D02*
X95714286Y-64499999D01*
X96428571Y-64857142D02*
X94928571Y-64857142D01*
X94928571Y-64285714D01*
X95000000Y-64142856D01*
X95071429Y-64071428D01*
X95214286Y-63999999D01*
X95428571Y-63999999D01*
X95571429Y-64071428D01*
X95642857Y-64142856D01*
X95714286Y-64285714D01*
X95714286Y-64857142D01*
X95642857Y-63357142D02*
X95642857Y-62857142D01*
X96428571Y-62642856D02*
X96428571Y-63357142D01*
X94928571Y-63357142D01*
X94928571Y-62642856D01*
X96428571Y-61999999D02*
X94928571Y-61999999D01*
X94928571Y-61642856D01*
X95000000Y-61428571D01*
X95142857Y-61285713D01*
X95285714Y-61214285D01*
X95571429Y-61142856D01*
X95785714Y-61142856D01*
X96071429Y-61214285D01*
X96214286Y-61285713D01*
X96357143Y-61428571D01*
X96428571Y-61642856D01*
X96428571Y-61999999D01*
X76607143Y-71107143D02*
X76678571Y-70892857D01*
X76678571Y-70535714D01*
X76607143Y-70392857D01*
X76535714Y-70321428D01*
X76392857Y-70250000D01*
X76250000Y-70250000D01*
X76107143Y-70321428D01*
X76035714Y-70392857D01*
X75964286Y-70535714D01*
X75892857Y-70821428D01*
X75821429Y-70964286D01*
X75750000Y-71035714D01*
X75607143Y-71107143D01*
X75464286Y-71107143D01*
X75321429Y-71035714D01*
X75250000Y-70964286D01*
X75178571Y-70821428D01*
X75178571Y-70464286D01*
X75250000Y-70250000D01*
X75178571Y-69821429D02*
X75178571Y-68964286D01*
X76678571Y-69392857D02*
X75178571Y-69392857D01*
X75892857Y-68464286D02*
X75892857Y-67964286D01*
X76678571Y-67750000D02*
X76678571Y-68464286D01*
X75178571Y-68464286D01*
X75178571Y-67750000D01*
X76678571Y-67107143D02*
X75178571Y-67107143D01*
X75178571Y-66535715D01*
X75250000Y-66392857D01*
X75321429Y-66321429D01*
X75464286Y-66250000D01*
X75678571Y-66250000D01*
X75821429Y-66321429D01*
X75892857Y-66392857D01*
X75964286Y-66535715D01*
X75964286Y-67107143D01*
X76678571Y-65607143D02*
X75178571Y-65607143D01*
X75178571Y-65035715D01*
X75250000Y-64892857D01*
X75321429Y-64821429D01*
X75464286Y-64750000D01*
X75678571Y-64750000D01*
X75821429Y-64821429D01*
X75892857Y-64892857D01*
X75964286Y-65035715D01*
X75964286Y-65607143D01*
X75892857Y-64107143D02*
X75892857Y-63607143D01*
X76678571Y-63392857D02*
X76678571Y-64107143D01*
X75178571Y-64107143D01*
X75178571Y-63392857D01*
X76678571Y-62750000D02*
X75178571Y-62750000D01*
X75178571Y-62392857D01*
X75250000Y-62178572D01*
X75392857Y-62035714D01*
X75535714Y-61964286D01*
X75821429Y-61892857D01*
X76035714Y-61892857D01*
X76321429Y-61964286D01*
X76464286Y-62035714D01*
X76607143Y-62178572D01*
X76678571Y-62392857D01*
X76678571Y-62750000D01*
D10*
X219712540Y-68961000D02*
X219712540Y-70358000D01*
X219712540Y-64516000D02*
X219712540Y-62992000D01*
X220474540Y-64897000D02*
X218950540Y-64897000D01*
X220474540Y-64643000D02*
X218950540Y-64643000D01*
X219712540Y-64389000D02*
X218950540Y-64389000D01*
X218950540Y-64389000D02*
X218950540Y-68961000D01*
X218950540Y-68961000D02*
X220474540Y-68961000D01*
X220474540Y-68961000D02*
X220474540Y-64389000D01*
X220474540Y-64389000D02*
X219712540Y-64389000D01*
X243879000Y-105648000D02*
X244879000Y-105648000D01*
X243879000Y-103648000D02*
X243879000Y-105648000D01*
X243879000Y-103648000D02*
X244879000Y-103648000D01*
X239379000Y-107648000D02*
X238379000Y-109648000D01*
X237379000Y-107648000D02*
X239379000Y-107648000D01*
X238379000Y-109648000D02*
X237379000Y-107648000D01*
X244879000Y-98148000D02*
X231879000Y-98148000D01*
X244879000Y-111148000D02*
X244879000Y-98148000D01*
X231879000Y-111148000D02*
X244879000Y-111148000D01*
X231879000Y-98148000D02*
X231879000Y-111148000D01*
D12*
X89693750Y-73025000D02*
X87915750Y-73025000D01*
X78771750Y-73025000D02*
X76993750Y-73025000D01*
X76993750Y-73025000D02*
X76993750Y-71247000D01*
X76993750Y-62103000D02*
X76993750Y-60325000D01*
X76993750Y-60325000D02*
X78771750Y-60325000D01*
X87915750Y-60325000D02*
X89693750Y-60325000D01*
X89693750Y-60325000D02*
X89693750Y-62103000D01*
X89693750Y-71247000D02*
X89693750Y-73025000D01*
D10*
X90805000Y-25654000D02*
X90805000Y-24257000D01*
X90805000Y-30099000D02*
X90805000Y-31623000D01*
X90043000Y-29718000D02*
X91567000Y-29718000D01*
X90043000Y-29972000D02*
X91567000Y-29972000D01*
X90805000Y-30226000D02*
X91567000Y-30226000D01*
X91567000Y-30226000D02*
X91567000Y-25654000D01*
X91567000Y-25654000D02*
X90043000Y-25654000D01*
X90043000Y-25654000D02*
X90043000Y-30226000D01*
X90043000Y-30226000D02*
X90805000Y-30226000D01*
X381508000Y-106680000D02*
X381508000Y-108077000D01*
X381508000Y-102235000D02*
X381508000Y-100711000D01*
X382270000Y-102616000D02*
X380746000Y-102616000D01*
X382270000Y-102362000D02*
X380746000Y-102362000D01*
X381508000Y-102108000D02*
X380746000Y-102108000D01*
X380746000Y-102108000D02*
X380746000Y-106680000D01*
X380746000Y-106680000D02*
X382270000Y-106680000D01*
X382270000Y-106680000D02*
X382270000Y-102108000D01*
X382270000Y-102108000D02*
X381508000Y-102108000D01*
X38353480Y-36578540D02*
X36956480Y-36578540D01*
X42798480Y-36578540D02*
X44322480Y-36578540D01*
X42417480Y-37340540D02*
X42417480Y-35816540D01*
X42671480Y-37340540D02*
X42671480Y-35816540D01*
X42925480Y-36578540D02*
X42925480Y-35816540D01*
X42925480Y-35816540D02*
X38353480Y-35816540D01*
X38353480Y-35816540D02*
X38353480Y-37340540D01*
X38353480Y-37340540D02*
X42925480Y-37340540D01*
X42925480Y-37340540D02*
X42925480Y-36578540D01*
X48260000Y-25654000D02*
X48260000Y-24257000D01*
X48260000Y-30099000D02*
X48260000Y-31623000D01*
X47498000Y-29718000D02*
X49022000Y-29718000D01*
X47498000Y-29972000D02*
X49022000Y-29972000D01*
X48260000Y-30226000D02*
X49022000Y-30226000D01*
X49022000Y-30226000D02*
X49022000Y-25654000D01*
X49022000Y-25654000D02*
X47498000Y-25654000D01*
X47498000Y-25654000D02*
X47498000Y-30226000D01*
X47498000Y-30226000D02*
X48260000Y-30226000D01*
X79501480Y-36832540D02*
X78104480Y-36832540D01*
X83946480Y-36832540D02*
X85470480Y-36832540D01*
X83565480Y-37594540D02*
X83565480Y-36070540D01*
X83819480Y-37594540D02*
X83819480Y-36070540D01*
X84073480Y-36832540D02*
X84073480Y-36070540D01*
X84073480Y-36070540D02*
X79501480Y-36070540D01*
X79501480Y-36070540D02*
X79501480Y-37594540D01*
X79501480Y-37594540D02*
X84073480Y-37594540D01*
X84073480Y-37594540D02*
X84073480Y-36832540D01*
X109982000Y-25654000D02*
X109982000Y-24257000D01*
X109982000Y-30099000D02*
X109982000Y-31623000D01*
X109220000Y-29718000D02*
X110744000Y-29718000D01*
X109220000Y-29972000D02*
X110744000Y-29972000D01*
X109982000Y-30226000D02*
X110744000Y-30226000D01*
X110744000Y-30226000D02*
X110744000Y-25654000D01*
X110744000Y-25654000D02*
X109220000Y-25654000D01*
X109220000Y-25654000D02*
X109220000Y-30226000D01*
X109220000Y-30226000D02*
X109982000Y-30226000D01*
X129032000Y-25654000D02*
X129032000Y-24257000D01*
X129032000Y-30099000D02*
X129032000Y-31623000D01*
X128270000Y-29718000D02*
X129794000Y-29718000D01*
X128270000Y-29972000D02*
X129794000Y-29972000D01*
X129032000Y-30226000D02*
X129794000Y-30226000D01*
X129794000Y-30226000D02*
X129794000Y-25654000D01*
X129794000Y-25654000D02*
X128270000Y-25654000D01*
X128270000Y-25654000D02*
X128270000Y-30226000D01*
X128270000Y-30226000D02*
X129032000Y-30226000D01*
X148082000Y-25654000D02*
X148082000Y-24257000D01*
X148082000Y-30099000D02*
X148082000Y-31623000D01*
X147320000Y-29718000D02*
X148844000Y-29718000D01*
X147320000Y-29972000D02*
X148844000Y-29972000D01*
X148082000Y-30226000D02*
X148844000Y-30226000D01*
X148844000Y-30226000D02*
X148844000Y-25654000D01*
X148844000Y-25654000D02*
X147320000Y-25654000D01*
X147320000Y-25654000D02*
X147320000Y-30226000D01*
X147320000Y-30226000D02*
X148082000Y-30226000D01*
X167132000Y-25654000D02*
X167132000Y-24257000D01*
X167132000Y-30099000D02*
X167132000Y-31623000D01*
X166370000Y-29718000D02*
X167894000Y-29718000D01*
X166370000Y-29972000D02*
X167894000Y-29972000D01*
X167132000Y-30226000D02*
X167894000Y-30226000D01*
X167894000Y-30226000D02*
X167894000Y-25654000D01*
X167894000Y-25654000D02*
X166370000Y-25654000D01*
X166370000Y-25654000D02*
X166370000Y-30226000D01*
X166370000Y-30226000D02*
X167132000Y-30226000D01*
X186182000Y-25654000D02*
X186182000Y-24257000D01*
X186182000Y-30099000D02*
X186182000Y-31623000D01*
X185420000Y-29718000D02*
X186944000Y-29718000D01*
X185420000Y-29972000D02*
X186944000Y-29972000D01*
X186182000Y-30226000D02*
X186944000Y-30226000D01*
X186944000Y-30226000D02*
X186944000Y-25654000D01*
X186944000Y-25654000D02*
X185420000Y-25654000D01*
X185420000Y-25654000D02*
X185420000Y-30226000D01*
X185420000Y-30226000D02*
X186182000Y-30226000D01*
X205232000Y-25654000D02*
X205232000Y-24257000D01*
X205232000Y-30099000D02*
X205232000Y-31623000D01*
X204470000Y-29718000D02*
X205994000Y-29718000D01*
X204470000Y-29972000D02*
X205994000Y-29972000D01*
X205232000Y-30226000D02*
X205994000Y-30226000D01*
X205994000Y-30226000D02*
X205994000Y-25654000D01*
X205994000Y-25654000D02*
X204470000Y-25654000D01*
X204470000Y-25654000D02*
X204470000Y-30226000D01*
X204470000Y-30226000D02*
X205232000Y-30226000D01*
X224282000Y-25654000D02*
X224282000Y-24257000D01*
X224282000Y-30099000D02*
X224282000Y-31623000D01*
X223520000Y-29718000D02*
X225044000Y-29718000D01*
X223520000Y-29972000D02*
X225044000Y-29972000D01*
X224282000Y-30226000D02*
X225044000Y-30226000D01*
X225044000Y-30226000D02*
X225044000Y-25654000D01*
X225044000Y-25654000D02*
X223520000Y-25654000D01*
X223520000Y-25654000D02*
X223520000Y-30226000D01*
X223520000Y-30226000D02*
X224282000Y-30226000D01*
X243332000Y-25654000D02*
X243332000Y-24257000D01*
X243332000Y-30099000D02*
X243332000Y-31623000D01*
X242570000Y-29718000D02*
X244094000Y-29718000D01*
X242570000Y-29972000D02*
X244094000Y-29972000D01*
X243332000Y-30226000D02*
X244094000Y-30226000D01*
X244094000Y-30226000D02*
X244094000Y-25654000D01*
X244094000Y-25654000D02*
X242570000Y-25654000D01*
X242570000Y-25654000D02*
X242570000Y-30226000D01*
X242570000Y-30226000D02*
X243332000Y-30226000D01*
X262382000Y-25654000D02*
X262382000Y-24257000D01*
X262382000Y-30099000D02*
X262382000Y-31623000D01*
X261620000Y-29718000D02*
X263144000Y-29718000D01*
X261620000Y-29972000D02*
X263144000Y-29972000D01*
X262382000Y-30226000D02*
X263144000Y-30226000D01*
X263144000Y-30226000D02*
X263144000Y-25654000D01*
X263144000Y-25654000D02*
X261620000Y-25654000D01*
X261620000Y-25654000D02*
X261620000Y-30226000D01*
X261620000Y-30226000D02*
X262382000Y-30226000D01*
X281432000Y-25654000D02*
X281432000Y-24257000D01*
X281432000Y-30099000D02*
X281432000Y-31623000D01*
X280670000Y-29718000D02*
X282194000Y-29718000D01*
X280670000Y-29972000D02*
X282194000Y-29972000D01*
X281432000Y-30226000D02*
X282194000Y-30226000D01*
X282194000Y-30226000D02*
X282194000Y-25654000D01*
X282194000Y-25654000D02*
X280670000Y-25654000D01*
X280670000Y-25654000D02*
X280670000Y-30226000D01*
X280670000Y-30226000D02*
X281432000Y-30226000D01*
X300482000Y-25654000D02*
X300482000Y-24257000D01*
X300482000Y-30099000D02*
X300482000Y-31623000D01*
X299720000Y-29718000D02*
X301244000Y-29718000D01*
X299720000Y-29972000D02*
X301244000Y-29972000D01*
X300482000Y-30226000D02*
X301244000Y-30226000D01*
X301244000Y-30226000D02*
X301244000Y-25654000D01*
X301244000Y-25654000D02*
X299720000Y-25654000D01*
X299720000Y-25654000D02*
X299720000Y-30226000D01*
X299720000Y-30226000D02*
X300482000Y-30226000D01*
X320500000Y-25654000D02*
X320500000Y-24257000D01*
X320500000Y-30099000D02*
X320500000Y-31623000D01*
X319738000Y-29718000D02*
X321262000Y-29718000D01*
X319738000Y-29972000D02*
X321262000Y-29972000D01*
X320500000Y-30226000D02*
X321262000Y-30226000D01*
X321262000Y-30226000D02*
X321262000Y-25654000D01*
X321262000Y-25654000D02*
X319738000Y-25654000D01*
X319738000Y-25654000D02*
X319738000Y-30226000D01*
X319738000Y-30226000D02*
X320500000Y-30226000D01*
X380994920Y-26289000D02*
X380994920Y-24892000D01*
X380994920Y-30734000D02*
X380994920Y-32258000D01*
X380232920Y-30353000D02*
X381756920Y-30353000D01*
X380232920Y-30607000D02*
X381756920Y-30607000D01*
X380994920Y-30861000D02*
X381756920Y-30861000D01*
X381756920Y-30861000D02*
X381756920Y-26289000D01*
X381756920Y-26289000D02*
X380232920Y-26289000D01*
X380232920Y-26289000D02*
X380232920Y-30861000D01*
X380232920Y-30861000D02*
X380994920Y-30861000D01*
X392811000Y-36830000D02*
X394208000Y-36830000D01*
X388366000Y-36830000D02*
X386842000Y-36830000D01*
X388747000Y-36068000D02*
X388747000Y-37592000D01*
X388493000Y-36068000D02*
X388493000Y-37592000D01*
X388239000Y-36830000D02*
X388239000Y-37592000D01*
X388239000Y-37592000D02*
X392811000Y-37592000D01*
X392811000Y-37592000D02*
X392811000Y-36068000D01*
X392811000Y-36068000D02*
X388239000Y-36068000D01*
X388239000Y-36068000D02*
X388239000Y-36830000D01*
X38353480Y-39626540D02*
X36956480Y-39626540D01*
X42798480Y-39626540D02*
X44322480Y-39626540D01*
X42417480Y-40388540D02*
X42417480Y-38864540D01*
X42671480Y-40388540D02*
X42671480Y-38864540D01*
X42925480Y-39626540D02*
X42925480Y-38864540D01*
X42925480Y-38864540D02*
X38353480Y-38864540D01*
X38353480Y-38864540D02*
X38353480Y-40388540D01*
X38353480Y-40388540D02*
X42925480Y-40388540D01*
X42925480Y-40388540D02*
X42925480Y-39626540D01*
X48262540Y-49530520D02*
X48262540Y-50927520D01*
X48262540Y-45085520D02*
X48262540Y-43561520D01*
X49024540Y-45466520D02*
X47500540Y-45466520D01*
X49024540Y-45212520D02*
X47500540Y-45212520D01*
X48262540Y-44958520D02*
X47500540Y-44958520D01*
X47500540Y-44958520D02*
X47500540Y-49530520D01*
X47500540Y-49530520D02*
X49024540Y-49530520D01*
X49024540Y-49530520D02*
X49024540Y-44958520D01*
X49024540Y-44958520D02*
X48262540Y-44958520D01*
X94615000Y-50800000D02*
X94615000Y-52197000D01*
X94615000Y-46355000D02*
X94615000Y-44831000D01*
X95377000Y-46736000D02*
X93853000Y-46736000D01*
X95377000Y-46482000D02*
X93853000Y-46482000D01*
X94615000Y-46228000D02*
X93853000Y-46228000D01*
X93853000Y-46228000D02*
X93853000Y-50800000D01*
X93853000Y-50800000D02*
X95377000Y-50800000D01*
X95377000Y-50800000D02*
X95377000Y-46228000D01*
X95377000Y-46228000D02*
X94615000Y-46228000D01*
X100586540Y-50800000D02*
X100586540Y-52197000D01*
X100586540Y-46355000D02*
X100586540Y-44831000D01*
X101348540Y-46736000D02*
X99824540Y-46736000D01*
X101348540Y-46482000D02*
X99824540Y-46482000D01*
X100586540Y-46228000D02*
X99824540Y-46228000D01*
X99824540Y-46228000D02*
X99824540Y-50800000D01*
X99824540Y-50800000D02*
X101348540Y-50800000D01*
X101348540Y-50800000D02*
X101348540Y-46228000D01*
X101348540Y-46228000D02*
X100586540Y-46228000D01*
X119636540Y-49530520D02*
X119636540Y-50927520D01*
X119636540Y-45085520D02*
X119636540Y-43561520D01*
X120398540Y-45466520D02*
X118874540Y-45466520D01*
X120398540Y-45212520D02*
X118874540Y-45212520D01*
X119636540Y-44958520D02*
X118874540Y-44958520D01*
X118874540Y-44958520D02*
X118874540Y-49530520D01*
X118874540Y-49530520D02*
X120398540Y-49530520D01*
X120398540Y-49530520D02*
X120398540Y-44958520D01*
X120398540Y-44958520D02*
X119636540Y-44958520D01*
X138686540Y-49530520D02*
X138686540Y-50927520D01*
X138686540Y-45085520D02*
X138686540Y-43561520D01*
X139448540Y-45466520D02*
X137924540Y-45466520D01*
X139448540Y-45212520D02*
X137924540Y-45212520D01*
X138686540Y-44958520D02*
X137924540Y-44958520D01*
X137924540Y-44958520D02*
X137924540Y-49530520D01*
X137924540Y-49530520D02*
X139448540Y-49530520D01*
X139448540Y-49530520D02*
X139448540Y-44958520D01*
X139448540Y-44958520D02*
X138686540Y-44958520D01*
X157736540Y-49530520D02*
X157736540Y-50927520D01*
X157736540Y-45085520D02*
X157736540Y-43561520D01*
X158498540Y-45466520D02*
X156974540Y-45466520D01*
X158498540Y-45212520D02*
X156974540Y-45212520D01*
X157736540Y-44958520D02*
X156974540Y-44958520D01*
X156974540Y-44958520D02*
X156974540Y-49530520D01*
X156974540Y-49530520D02*
X158498540Y-49530520D01*
X158498540Y-49530520D02*
X158498540Y-44958520D01*
X158498540Y-44958520D02*
X157736540Y-44958520D01*
X176786540Y-49530520D02*
X176786540Y-50927520D01*
X176786540Y-45085520D02*
X176786540Y-43561520D01*
X177548540Y-45466520D02*
X176024540Y-45466520D01*
X177548540Y-45212520D02*
X176024540Y-45212520D01*
X176786540Y-44958520D02*
X176024540Y-44958520D01*
X176024540Y-44958520D02*
X176024540Y-49530520D01*
X176024540Y-49530520D02*
X177548540Y-49530520D01*
X177548540Y-49530520D02*
X177548540Y-44958520D01*
X177548540Y-44958520D02*
X176786540Y-44958520D01*
X195836540Y-49530520D02*
X195836540Y-50927520D01*
X195836540Y-45085520D02*
X195836540Y-43561520D01*
X196598540Y-45466520D02*
X195074540Y-45466520D01*
X196598540Y-45212520D02*
X195074540Y-45212520D01*
X195836540Y-44958520D02*
X195074540Y-44958520D01*
X195074540Y-44958520D02*
X195074540Y-49530520D01*
X195074540Y-49530520D02*
X196598540Y-49530520D01*
X196598540Y-49530520D02*
X196598540Y-44958520D01*
X196598540Y-44958520D02*
X195836540Y-44958520D01*
X214886540Y-49530520D02*
X214886540Y-50927520D01*
X214886540Y-45085520D02*
X214886540Y-43561520D01*
X215648540Y-45466520D02*
X214124540Y-45466520D01*
X215648540Y-45212520D02*
X214124540Y-45212520D01*
X214886540Y-44958520D02*
X214124540Y-44958520D01*
X214124540Y-44958520D02*
X214124540Y-49530520D01*
X214124540Y-49530520D02*
X215648540Y-49530520D01*
X215648540Y-49530520D02*
X215648540Y-44958520D01*
X215648540Y-44958520D02*
X214886540Y-44958520D01*
X233936540Y-49530520D02*
X233936540Y-50927520D01*
X233936540Y-45085520D02*
X233936540Y-43561520D01*
X234698540Y-45466520D02*
X233174540Y-45466520D01*
X234698540Y-45212520D02*
X233174540Y-45212520D01*
X233936540Y-44958520D02*
X233174540Y-44958520D01*
X233174540Y-44958520D02*
X233174540Y-49530520D01*
X233174540Y-49530520D02*
X234698540Y-49530520D01*
X234698540Y-49530520D02*
X234698540Y-44958520D01*
X234698540Y-44958520D02*
X233936540Y-44958520D01*
X252986540Y-49530520D02*
X252986540Y-50927520D01*
X252986540Y-45085520D02*
X252986540Y-43561520D01*
X253748540Y-45466520D02*
X252224540Y-45466520D01*
X253748540Y-45212520D02*
X252224540Y-45212520D01*
X252986540Y-44958520D02*
X252224540Y-44958520D01*
X252224540Y-44958520D02*
X252224540Y-49530520D01*
X252224540Y-49530520D02*
X253748540Y-49530520D01*
X253748540Y-49530520D02*
X253748540Y-44958520D01*
X253748540Y-44958520D02*
X252986540Y-44958520D01*
X272036540Y-49530520D02*
X272036540Y-50927520D01*
X272036540Y-45085520D02*
X272036540Y-43561520D01*
X272798540Y-45466520D02*
X271274540Y-45466520D01*
X272798540Y-45212520D02*
X271274540Y-45212520D01*
X272036540Y-44958520D02*
X271274540Y-44958520D01*
X271274540Y-44958520D02*
X271274540Y-49530520D01*
X271274540Y-49530520D02*
X272798540Y-49530520D01*
X272798540Y-49530520D02*
X272798540Y-44958520D01*
X272798540Y-44958520D02*
X272036540Y-44958520D01*
X291086540Y-49530520D02*
X291086540Y-50927520D01*
X291086540Y-45085520D02*
X291086540Y-43561520D01*
X291848540Y-45466520D02*
X290324540Y-45466520D01*
X291848540Y-45212520D02*
X290324540Y-45212520D01*
X291086540Y-44958520D02*
X290324540Y-44958520D01*
X290324540Y-44958520D02*
X290324540Y-49530520D01*
X290324540Y-49530520D02*
X291848540Y-49530520D01*
X291848540Y-49530520D02*
X291848540Y-44958520D01*
X291848540Y-44958520D02*
X291086540Y-44958520D01*
X310136540Y-49530520D02*
X310136540Y-50927520D01*
X310136540Y-45085520D02*
X310136540Y-43561520D01*
X310898540Y-45466520D02*
X309374540Y-45466520D01*
X310898540Y-45212520D02*
X309374540Y-45212520D01*
X310136540Y-44958520D02*
X309374540Y-44958520D01*
X309374540Y-44958520D02*
X309374540Y-49530520D01*
X309374540Y-49530520D02*
X310898540Y-49530520D01*
X310898540Y-49530520D02*
X310898540Y-44958520D01*
X310898540Y-44958520D02*
X310136540Y-44958520D01*
X334012540Y-49530520D02*
X334012540Y-50927520D01*
X334012540Y-45085520D02*
X334012540Y-43561520D01*
X334774540Y-45466520D02*
X333250540Y-45466520D01*
X334774540Y-45212520D02*
X333250540Y-45212520D01*
X334012540Y-44958520D02*
X333250540Y-44958520D01*
X333250540Y-44958520D02*
X333250540Y-49530520D01*
X333250540Y-49530520D02*
X334774540Y-49530520D01*
X334774540Y-49530520D02*
X334774540Y-44958520D01*
X334774540Y-44958520D02*
X334012540Y-44958520D01*
X371729000Y-55626000D02*
X370332000Y-55626000D01*
X376174000Y-55626000D02*
X377698000Y-55626000D01*
X375793000Y-56388000D02*
X375793000Y-54864000D01*
X376047000Y-56388000D02*
X376047000Y-54864000D01*
X376301000Y-55626000D02*
X376301000Y-54864000D01*
X376301000Y-54864000D02*
X371729000Y-54864000D01*
X371729000Y-54864000D02*
X371729000Y-56388000D01*
X371729000Y-56388000D02*
X376301000Y-56388000D01*
X376301000Y-56388000D02*
X376301000Y-55626000D01*
X381508000Y-49621000D02*
X381508000Y-51018000D01*
X381508000Y-45176000D02*
X381508000Y-43652000D01*
X382270000Y-45557000D02*
X380746000Y-45557000D01*
X382270000Y-45303000D02*
X380746000Y-45303000D01*
X381508000Y-45049000D02*
X380746000Y-45049000D01*
X380746000Y-45049000D02*
X380746000Y-49621000D01*
X380746000Y-49621000D02*
X382270000Y-49621000D01*
X382270000Y-49621000D02*
X382270000Y-45049000D01*
X382270000Y-45049000D02*
X381508000Y-45049000D01*
X38353480Y-74932540D02*
X36956480Y-74932540D01*
X42798480Y-74932540D02*
X44322480Y-74932540D01*
X42417480Y-75694540D02*
X42417480Y-74170540D01*
X42671480Y-75694540D02*
X42671480Y-74170540D01*
X42925480Y-74932540D02*
X42925480Y-74170540D01*
X42925480Y-74170540D02*
X38353480Y-74170540D01*
X38353480Y-74170540D02*
X38353480Y-75694540D01*
X38353480Y-75694540D02*
X42925480Y-75694540D01*
X42925480Y-75694540D02*
X42925480Y-74932540D01*
X48262540Y-68580520D02*
X48262540Y-69977520D01*
X48262540Y-64135520D02*
X48262540Y-62611520D01*
X49024540Y-64516520D02*
X47500540Y-64516520D01*
X49024540Y-64262520D02*
X47500540Y-64262520D01*
X48262540Y-64008520D02*
X47500540Y-64008520D01*
X47500540Y-64008520D02*
X47500540Y-68580520D01*
X47500540Y-68580520D02*
X49024540Y-68580520D01*
X49024540Y-68580520D02*
X49024540Y-64008520D01*
X49024540Y-64008520D02*
X48262540Y-64008520D01*
X92964000Y-74676000D02*
X91567000Y-74676000D01*
X97409000Y-74676000D02*
X98933000Y-74676000D01*
X97028000Y-75438000D02*
X97028000Y-73914000D01*
X97282000Y-75438000D02*
X97282000Y-73914000D01*
X97536000Y-74676000D02*
X97536000Y-73914000D01*
X97536000Y-73914000D02*
X92964000Y-73914000D01*
X92964000Y-73914000D02*
X92964000Y-75438000D01*
X92964000Y-75438000D02*
X97536000Y-75438000D01*
X97536000Y-75438000D02*
X97536000Y-74676000D01*
X105158540Y-68326520D02*
X105158540Y-69723520D01*
X105158540Y-63881520D02*
X105158540Y-62357520D01*
X105920540Y-64262520D02*
X104396540Y-64262520D01*
X105920540Y-64008520D02*
X104396540Y-64008520D01*
X105158540Y-63754520D02*
X104396540Y-63754520D01*
X104396540Y-63754520D02*
X104396540Y-68326520D01*
X104396540Y-68326520D02*
X105920540Y-68326520D01*
X105920540Y-68326520D02*
X105920540Y-63754520D01*
X105920540Y-63754520D02*
X105158540Y-63754520D01*
X124462540Y-68326520D02*
X124462540Y-69723520D01*
X124462540Y-63881520D02*
X124462540Y-62357520D01*
X125224540Y-64262520D02*
X123700540Y-64262520D01*
X125224540Y-64008520D02*
X123700540Y-64008520D01*
X124462540Y-63754520D02*
X123700540Y-63754520D01*
X123700540Y-63754520D02*
X123700540Y-68326520D01*
X123700540Y-68326520D02*
X125224540Y-68326520D01*
X125224540Y-68326520D02*
X125224540Y-63754520D01*
X125224540Y-63754520D02*
X124462540Y-63754520D01*
X143512540Y-68326520D02*
X143512540Y-69723520D01*
X143512540Y-63881520D02*
X143512540Y-62357520D01*
X144274540Y-64262520D02*
X142750540Y-64262520D01*
X144274540Y-64008520D02*
X142750540Y-64008520D01*
X143512540Y-63754520D02*
X142750540Y-63754520D01*
X142750540Y-63754520D02*
X142750540Y-68326520D01*
X142750540Y-68326520D02*
X144274540Y-68326520D01*
X144274540Y-68326520D02*
X144274540Y-63754520D01*
X144274540Y-63754520D02*
X143512540Y-63754520D01*
X162562540Y-68326520D02*
X162562540Y-69723520D01*
X162562540Y-63881520D02*
X162562540Y-62357520D01*
X163324540Y-64262520D02*
X161800540Y-64262520D01*
X163324540Y-64008520D02*
X161800540Y-64008520D01*
X162562540Y-63754520D02*
X161800540Y-63754520D01*
X161800540Y-63754520D02*
X161800540Y-68326520D01*
X161800540Y-68326520D02*
X163324540Y-68326520D01*
X163324540Y-68326520D02*
X163324540Y-63754520D01*
X163324540Y-63754520D02*
X162562540Y-63754520D01*
X181612540Y-68326520D02*
X181612540Y-69723520D01*
X181612540Y-63881520D02*
X181612540Y-62357520D01*
X182374540Y-64262520D02*
X180850540Y-64262520D01*
X182374540Y-64008520D02*
X180850540Y-64008520D01*
X181612540Y-63754520D02*
X180850540Y-63754520D01*
X180850540Y-63754520D02*
X180850540Y-68326520D01*
X180850540Y-68326520D02*
X182374540Y-68326520D01*
X182374540Y-68326520D02*
X182374540Y-63754520D01*
X182374540Y-63754520D02*
X181612540Y-63754520D01*
X212598000Y-74676000D02*
X211201000Y-74676000D01*
X217043000Y-74676000D02*
X218567000Y-74676000D01*
X216662000Y-75438000D02*
X216662000Y-73914000D01*
X216916000Y-75438000D02*
X216916000Y-73914000D01*
X217170000Y-74676000D02*
X217170000Y-73914000D01*
X217170000Y-73914000D02*
X212598000Y-73914000D01*
X212598000Y-73914000D02*
X212598000Y-75438000D01*
X212598000Y-75438000D02*
X217170000Y-75438000D01*
X217170000Y-75438000D02*
X217170000Y-74676000D01*
X238762540Y-68072520D02*
X238762540Y-69469520D01*
X238762540Y-63627520D02*
X238762540Y-62103520D01*
X239524540Y-64008520D02*
X238000540Y-64008520D01*
X239524540Y-63754520D02*
X238000540Y-63754520D01*
X238762540Y-63500520D02*
X238000540Y-63500520D01*
X238000540Y-63500520D02*
X238000540Y-68072520D01*
X238000540Y-68072520D02*
X239524540Y-68072520D01*
X239524540Y-68072520D02*
X239524540Y-63500520D01*
X239524540Y-63500520D02*
X238762540Y-63500520D01*
X257812540Y-68072520D02*
X257812540Y-69469520D01*
X257812540Y-63627520D02*
X257812540Y-62103520D01*
X258574540Y-64008520D02*
X257050540Y-64008520D01*
X258574540Y-63754520D02*
X257050540Y-63754520D01*
X257812540Y-63500520D02*
X257050540Y-63500520D01*
X257050540Y-63500520D02*
X257050540Y-68072520D01*
X257050540Y-68072520D02*
X258574540Y-68072520D01*
X258574540Y-68072520D02*
X258574540Y-63500520D01*
X258574540Y-63500520D02*
X257812540Y-63500520D01*
X276862540Y-68072520D02*
X276862540Y-69469520D01*
X276862540Y-63627520D02*
X276862540Y-62103520D01*
X277624540Y-64008520D02*
X276100540Y-64008520D01*
X277624540Y-63754520D02*
X276100540Y-63754520D01*
X276862540Y-63500520D02*
X276100540Y-63500520D01*
X276100540Y-63500520D02*
X276100540Y-68072520D01*
X276100540Y-68072520D02*
X277624540Y-68072520D01*
X277624540Y-68072520D02*
X277624540Y-63500520D01*
X277624540Y-63500520D02*
X276862540Y-63500520D01*
X295912540Y-68072520D02*
X295912540Y-69469520D01*
X295912540Y-63627520D02*
X295912540Y-62103520D01*
X296674540Y-64008520D02*
X295150540Y-64008520D01*
X296674540Y-63754520D02*
X295150540Y-63754520D01*
X295912540Y-63500520D02*
X295150540Y-63500520D01*
X295150540Y-63500520D02*
X295150540Y-68072520D01*
X295150540Y-68072520D02*
X296674540Y-68072520D01*
X296674540Y-68072520D02*
X296674540Y-63500520D01*
X296674540Y-63500520D02*
X295912540Y-63500520D01*
X335534000Y-74930000D02*
X334137000Y-74930000D01*
X339979000Y-74930000D02*
X341503000Y-74930000D01*
X339598000Y-75692000D02*
X339598000Y-74168000D01*
X339852000Y-75692000D02*
X339852000Y-74168000D01*
X340106000Y-74930000D02*
X340106000Y-74168000D01*
X340106000Y-74168000D02*
X335534000Y-74168000D01*
X335534000Y-74168000D02*
X335534000Y-75692000D01*
X335534000Y-75692000D02*
X340106000Y-75692000D01*
X340106000Y-75692000D02*
X340106000Y-74930000D01*
X38353480Y-77472540D02*
X36956480Y-77472540D01*
X42798480Y-77472540D02*
X44322480Y-77472540D01*
X42417480Y-78234540D02*
X42417480Y-76710540D01*
X42671480Y-78234540D02*
X42671480Y-76710540D01*
X42925480Y-77472540D02*
X42925480Y-76710540D01*
X42925480Y-76710540D02*
X38353480Y-76710540D01*
X38353480Y-76710540D02*
X38353480Y-78234540D01*
X38353480Y-78234540D02*
X42925480Y-78234540D01*
X42925480Y-78234540D02*
X42925480Y-77472540D01*
X48262540Y-87630520D02*
X48262540Y-89027520D01*
X48262540Y-83185520D02*
X48262540Y-81661520D01*
X49024540Y-83566520D02*
X47500540Y-83566520D01*
X49024540Y-83312520D02*
X47500540Y-83312520D01*
X48262540Y-83058520D02*
X47500540Y-83058520D01*
X47500540Y-83058520D02*
X47500540Y-87630520D01*
X47500540Y-87630520D02*
X49024540Y-87630520D01*
X49024540Y-87630520D02*
X49024540Y-83058520D01*
X49024540Y-83058520D02*
X48262540Y-83058520D01*
X92964000Y-77216000D02*
X91567000Y-77216000D01*
X97409000Y-77216000D02*
X98933000Y-77216000D01*
X97028000Y-77978000D02*
X97028000Y-76454000D01*
X97282000Y-77978000D02*
X97282000Y-76454000D01*
X97536000Y-77216000D02*
X97536000Y-76454000D01*
X97536000Y-76454000D02*
X92964000Y-76454000D01*
X92964000Y-76454000D02*
X92964000Y-77978000D01*
X92964000Y-77978000D02*
X97536000Y-77978000D01*
X97536000Y-77978000D02*
X97536000Y-77216000D01*
X114810540Y-87630520D02*
X114810540Y-89027520D01*
X114810540Y-83185520D02*
X114810540Y-81661520D01*
X115572540Y-83566520D02*
X114048540Y-83566520D01*
X115572540Y-83312520D02*
X114048540Y-83312520D01*
X114810540Y-83058520D02*
X114048540Y-83058520D01*
X114048540Y-83058520D02*
X114048540Y-87630520D01*
X114048540Y-87630520D02*
X115572540Y-87630520D01*
X115572540Y-87630520D02*
X115572540Y-83058520D01*
X115572540Y-83058520D02*
X114810540Y-83058520D01*
X133860540Y-87630520D02*
X133860540Y-89027520D01*
X133860540Y-83185520D02*
X133860540Y-81661520D01*
X134622540Y-83566520D02*
X133098540Y-83566520D01*
X134622540Y-83312520D02*
X133098540Y-83312520D01*
X133860540Y-83058520D02*
X133098540Y-83058520D01*
X133098540Y-83058520D02*
X133098540Y-87630520D01*
X133098540Y-87630520D02*
X134622540Y-87630520D01*
X134622540Y-87630520D02*
X134622540Y-83058520D01*
X134622540Y-83058520D02*
X133860540Y-83058520D01*
X152910540Y-87630520D02*
X152910540Y-89027520D01*
X152910540Y-83185520D02*
X152910540Y-81661520D01*
X153672540Y-83566520D02*
X152148540Y-83566520D01*
X153672540Y-83312520D02*
X152148540Y-83312520D01*
X152910540Y-83058520D02*
X152148540Y-83058520D01*
X152148540Y-83058520D02*
X152148540Y-87630520D01*
X152148540Y-87630520D02*
X153672540Y-87630520D01*
X153672540Y-87630520D02*
X153672540Y-83058520D01*
X153672540Y-83058520D02*
X152910540Y-83058520D01*
X171960540Y-87630520D02*
X171960540Y-89027520D01*
X171960540Y-83185520D02*
X171960540Y-81661520D01*
X172722540Y-83566520D02*
X171198540Y-83566520D01*
X172722540Y-83312520D02*
X171198540Y-83312520D01*
X171960540Y-83058520D02*
X171198540Y-83058520D01*
X171198540Y-83058520D02*
X171198540Y-87630520D01*
X171198540Y-87630520D02*
X172722540Y-87630520D01*
X172722540Y-87630520D02*
X172722540Y-83058520D01*
X172722540Y-83058520D02*
X171960540Y-83058520D01*
X191010540Y-87630520D02*
X191010540Y-89027520D01*
X191010540Y-83185520D02*
X191010540Y-81661520D01*
X191772540Y-83566520D02*
X190248540Y-83566520D01*
X191772540Y-83312520D02*
X190248540Y-83312520D01*
X191010540Y-83058520D02*
X190248540Y-83058520D01*
X190248540Y-83058520D02*
X190248540Y-87630520D01*
X190248540Y-87630520D02*
X191772540Y-87630520D01*
X191772540Y-87630520D02*
X191772540Y-83058520D01*
X191772540Y-83058520D02*
X191010540Y-83058520D01*
X210060540Y-87630520D02*
X210060540Y-89027520D01*
X210060540Y-83185520D02*
X210060540Y-81661520D01*
X210822540Y-83566520D02*
X209298540Y-83566520D01*
X210822540Y-83312520D02*
X209298540Y-83312520D01*
X210060540Y-83058520D02*
X209298540Y-83058520D01*
X209298540Y-83058520D02*
X209298540Y-87630520D01*
X209298540Y-87630520D02*
X210822540Y-87630520D01*
X210822540Y-87630520D02*
X210822540Y-83058520D01*
X210822540Y-83058520D02*
X210060540Y-83058520D01*
X229110540Y-87630520D02*
X229110540Y-89027520D01*
X229110540Y-83185520D02*
X229110540Y-81661520D01*
X229872540Y-83566520D02*
X228348540Y-83566520D01*
X229872540Y-83312520D02*
X228348540Y-83312520D01*
X229110540Y-83058520D02*
X228348540Y-83058520D01*
X228348540Y-83058520D02*
X228348540Y-87630520D01*
X228348540Y-87630520D02*
X229872540Y-87630520D01*
X229872540Y-87630520D02*
X229872540Y-83058520D01*
X229872540Y-83058520D02*
X229110540Y-83058520D01*
X248160540Y-87630520D02*
X248160540Y-89027520D01*
X248160540Y-83185520D02*
X248160540Y-81661520D01*
X248922540Y-83566520D02*
X247398540Y-83566520D01*
X248922540Y-83312520D02*
X247398540Y-83312520D01*
X248160540Y-83058520D02*
X247398540Y-83058520D01*
X247398540Y-83058520D02*
X247398540Y-87630520D01*
X247398540Y-87630520D02*
X248922540Y-87630520D01*
X248922540Y-87630520D02*
X248922540Y-83058520D01*
X248922540Y-83058520D02*
X248160540Y-83058520D01*
X267210540Y-87630520D02*
X267210540Y-89027520D01*
X267210540Y-83185520D02*
X267210540Y-81661520D01*
X267972540Y-83566520D02*
X266448540Y-83566520D01*
X267972540Y-83312520D02*
X266448540Y-83312520D01*
X267210540Y-83058520D02*
X266448540Y-83058520D01*
X266448540Y-83058520D02*
X266448540Y-87630520D01*
X266448540Y-87630520D02*
X267972540Y-87630520D01*
X267972540Y-87630520D02*
X267972540Y-83058520D01*
X267972540Y-83058520D02*
X267210540Y-83058520D01*
X286260540Y-87630520D02*
X286260540Y-89027520D01*
X286260540Y-83185520D02*
X286260540Y-81661520D01*
X287022540Y-83566520D02*
X285498540Y-83566520D01*
X287022540Y-83312520D02*
X285498540Y-83312520D01*
X286260540Y-83058520D02*
X285498540Y-83058520D01*
X285498540Y-83058520D02*
X285498540Y-87630520D01*
X285498540Y-87630520D02*
X287022540Y-87630520D01*
X287022540Y-87630520D02*
X287022540Y-83058520D01*
X287022540Y-83058520D02*
X286260540Y-83058520D01*
X340000000Y-106680520D02*
X340000000Y-108077520D01*
X340000000Y-102235520D02*
X340000000Y-100711520D01*
X340762000Y-102616520D02*
X339238000Y-102616520D01*
X340762000Y-102362520D02*
X339238000Y-102362520D01*
X340000000Y-102108520D02*
X339238000Y-102108520D01*
X339238000Y-102108520D02*
X339238000Y-106680520D01*
X339238000Y-106680520D02*
X340762000Y-106680520D01*
X340762000Y-106680520D02*
X340762000Y-102108520D01*
X340762000Y-102108520D02*
X340000000Y-102108520D01*
X380494540Y-87630520D02*
X380494540Y-89027520D01*
X380494540Y-83185520D02*
X380494540Y-81661520D01*
X381256540Y-83566520D02*
X379732540Y-83566520D01*
X381256540Y-83312520D02*
X379732540Y-83312520D01*
X380494540Y-83058520D02*
X379732540Y-83058520D01*
X379732540Y-83058520D02*
X379732540Y-87630520D01*
X379732540Y-87630520D02*
X381256540Y-87630520D01*
X381256540Y-87630520D02*
X381256540Y-83058520D01*
X381256540Y-83058520D02*
X380494540Y-83058520D01*
X38353480Y-96522540D02*
X36956480Y-96522540D01*
X42798480Y-96522540D02*
X44322480Y-96522540D01*
X42417480Y-97284540D02*
X42417480Y-95760540D01*
X42671480Y-97284540D02*
X42671480Y-95760540D01*
X42925480Y-96522540D02*
X42925480Y-95760540D01*
X42925480Y-95760540D02*
X38353480Y-95760540D01*
X38353480Y-95760540D02*
X38353480Y-97284540D01*
X38353480Y-97284540D02*
X42925480Y-97284540D01*
X42925480Y-97284540D02*
X42925480Y-96522540D01*
X48262540Y-106680520D02*
X48262540Y-108077520D01*
X48262540Y-102235520D02*
X48262540Y-100711520D01*
X49024540Y-102616520D02*
X47500540Y-102616520D01*
X49024540Y-102362520D02*
X47500540Y-102362520D01*
X48262540Y-102108520D02*
X47500540Y-102108520D01*
X47500540Y-102108520D02*
X47500540Y-106680520D01*
X47500540Y-106680520D02*
X49024540Y-106680520D01*
X49024540Y-106680520D02*
X49024540Y-102108520D01*
X49024540Y-102108520D02*
X48262540Y-102108520D01*
X92712540Y-106553000D02*
X92712540Y-107950000D01*
X92712540Y-102108000D02*
X92712540Y-100584000D01*
X93474540Y-102489000D02*
X91950540Y-102489000D01*
X93474540Y-102235000D02*
X91950540Y-102235000D01*
X92712540Y-101981000D02*
X91950540Y-101981000D01*
X91950540Y-101981000D02*
X91950540Y-106553000D01*
X91950540Y-106553000D02*
X93474540Y-106553000D01*
X93474540Y-106553000D02*
X93474540Y-101981000D01*
X93474540Y-101981000D02*
X92712540Y-101981000D01*
X115951000Y-106553000D02*
X115951000Y-107950000D01*
X115951000Y-102108000D02*
X115951000Y-100584000D01*
X116713000Y-102489000D02*
X115189000Y-102489000D01*
X116713000Y-102235000D02*
X115189000Y-102235000D01*
X115951000Y-101981000D02*
X115189000Y-101981000D01*
X115189000Y-101981000D02*
X115189000Y-106553000D01*
X115189000Y-106553000D02*
X116713000Y-106553000D01*
X116713000Y-106553000D02*
X116713000Y-101981000D01*
X116713000Y-101981000D02*
X115951000Y-101981000D01*
X122176540Y-106680520D02*
X122176540Y-108077520D01*
X122176540Y-102235520D02*
X122176540Y-100711520D01*
X122938540Y-102616520D02*
X121414540Y-102616520D01*
X122938540Y-102362520D02*
X121414540Y-102362520D01*
X122176540Y-102108520D02*
X121414540Y-102108520D01*
X121414540Y-102108520D02*
X121414540Y-106680520D01*
X121414540Y-106680520D02*
X122938540Y-106680520D01*
X122938540Y-106680520D02*
X122938540Y-102108520D01*
X122938540Y-102108520D02*
X122176540Y-102108520D01*
X185674000Y-99314000D02*
X184277000Y-99314000D01*
X190119000Y-99314000D02*
X191643000Y-99314000D01*
X189738000Y-100076000D02*
X189738000Y-98552000D01*
X189992000Y-100076000D02*
X189992000Y-98552000D01*
X190246000Y-99314000D02*
X190246000Y-98552000D01*
X190246000Y-98552000D02*
X185674000Y-98552000D01*
X185674000Y-98552000D02*
X185674000Y-100076000D01*
X185674000Y-100076000D02*
X190246000Y-100076000D01*
X190246000Y-100076000D02*
X190246000Y-99314000D01*
X264924540Y-106680520D02*
X264924540Y-108077520D01*
X264924540Y-102235520D02*
X264924540Y-100711520D01*
X265686540Y-102616520D02*
X264162540Y-102616520D01*
X265686540Y-102362520D02*
X264162540Y-102362520D01*
X264924540Y-102108520D02*
X264162540Y-102108520D01*
X264162540Y-102108520D02*
X264162540Y-106680520D01*
X264162540Y-106680520D02*
X265686540Y-106680520D01*
X265686540Y-106680520D02*
X265686540Y-102108520D01*
X265686540Y-102108520D02*
X264924540Y-102108520D01*
X288546540Y-106680520D02*
X288546540Y-108077520D01*
X288546540Y-102235520D02*
X288546540Y-100711520D01*
X289308540Y-102616520D02*
X287784540Y-102616520D01*
X289308540Y-102362520D02*
X287784540Y-102362520D01*
X288546540Y-102108520D02*
X287784540Y-102108520D01*
X287784540Y-102108520D02*
X287784540Y-106680520D01*
X287784540Y-106680520D02*
X289308540Y-106680520D01*
X289308540Y-106680520D02*
X289308540Y-102108520D01*
X289308540Y-102108520D02*
X288546540Y-102108520D01*
X312422540Y-106680520D02*
X312422540Y-108077520D01*
X312422540Y-102235520D02*
X312422540Y-100711520D01*
X313184540Y-102616520D02*
X311660540Y-102616520D01*
X313184540Y-102362520D02*
X311660540Y-102362520D01*
X312422540Y-102108520D02*
X311660540Y-102108520D01*
X311660540Y-102108520D02*
X311660540Y-106680520D01*
X311660540Y-106680520D02*
X313184540Y-106680520D01*
X313184540Y-106680520D02*
X313184540Y-102108520D01*
X313184540Y-102108520D02*
X312422540Y-102108520D01*
X343410540Y-106680520D02*
X343410540Y-108077520D01*
X343410540Y-102235520D02*
X343410540Y-100711520D01*
X344172540Y-102616520D02*
X342648540Y-102616520D01*
X344172540Y-102362520D02*
X342648540Y-102362520D01*
X343410540Y-102108520D02*
X342648540Y-102108520D01*
X342648540Y-102108520D02*
X342648540Y-106680520D01*
X342648540Y-106680520D02*
X344172540Y-106680520D01*
X344172540Y-106680520D02*
X344172540Y-102108520D01*
X344172540Y-102108520D02*
X343410540Y-102108520D01*
X362460540Y-106680520D02*
X362460540Y-108077520D01*
X362460540Y-102235520D02*
X362460540Y-100711520D01*
X363222540Y-102616520D02*
X361698540Y-102616520D01*
X363222540Y-102362520D02*
X361698540Y-102362520D01*
X362460540Y-102108520D02*
X361698540Y-102108520D01*
X361698540Y-102108520D02*
X361698540Y-106680520D01*
X361698540Y-106680520D02*
X363222540Y-106680520D01*
X363222540Y-106680520D02*
X363222540Y-102108520D01*
X363222540Y-102108520D02*
X362460540Y-102108520D01*
D12*
X337343750Y-92075000D02*
X335565750Y-92075000D01*
X326421750Y-92075000D02*
X324643750Y-92075000D01*
X324643750Y-92075000D02*
X324643750Y-90297000D01*
X324643750Y-81153000D02*
X324643750Y-79375000D01*
X324643750Y-79375000D02*
X326421750Y-79375000D01*
X335565750Y-79375000D02*
X337343750Y-79375000D01*
X337343750Y-79375000D02*
X337343750Y-81153000D01*
X337343750Y-90297000D02*
X337343750Y-92075000D01*
X396875000Y-111125000D02*
X395097000Y-111125000D01*
X385953000Y-111125000D02*
X384175000Y-111125000D01*
X384175000Y-111125000D02*
X384175000Y-109347000D01*
X384175000Y-100203000D02*
X384175000Y-98425000D01*
X384175000Y-98425000D02*
X385953000Y-98425000D01*
X395097000Y-98425000D02*
X396875000Y-98425000D01*
X396875000Y-98425000D02*
X396875000Y-100203000D01*
X396875000Y-109347000D02*
X396875000Y-111125000D01*
X377825000Y-111125000D02*
X376047000Y-111125000D01*
X366903000Y-111125000D02*
X365125000Y-111125000D01*
X365125000Y-111125000D02*
X365125000Y-109347000D01*
X365125000Y-100203000D02*
X365125000Y-98425000D01*
X365125000Y-98425000D02*
X366903000Y-98425000D01*
X376047000Y-98425000D02*
X377825000Y-98425000D01*
X377825000Y-98425000D02*
X377825000Y-100203000D01*
X377825000Y-109347000D02*
X377825000Y-111125000D01*
X358775000Y-111125000D02*
X356997000Y-111125000D01*
X347853000Y-111125000D02*
X346075000Y-111125000D01*
X346075000Y-111125000D02*
X346075000Y-109347000D01*
X346075000Y-100203000D02*
X346075000Y-98425000D01*
X346075000Y-98425000D02*
X347853000Y-98425000D01*
X356997000Y-98425000D02*
X358775000Y-98425000D01*
X358775000Y-98425000D02*
X358775000Y-100203000D01*
X358775000Y-109347000D02*
X358775000Y-111125000D01*
X327818750Y-111125000D02*
X326040750Y-111125000D01*
X316896750Y-111125000D02*
X315118750Y-111125000D01*
X315118750Y-111125000D02*
X315118750Y-109347000D01*
X315118750Y-100203000D02*
X315118750Y-98425000D01*
X315118750Y-98425000D02*
X316896750Y-98425000D01*
X326040750Y-98425000D02*
X327818750Y-98425000D01*
X327818750Y-98425000D02*
X327818750Y-100203000D01*
X327818750Y-109347000D02*
X327818750Y-111125000D01*
X304006250Y-111125000D02*
X302228250Y-111125000D01*
X293084250Y-111125000D02*
X291306250Y-111125000D01*
X291306250Y-111125000D02*
X291306250Y-109347000D01*
X291306250Y-100203000D02*
X291306250Y-98425000D01*
X291306250Y-98425000D02*
X293084250Y-98425000D01*
X302228250Y-98425000D02*
X304006250Y-98425000D01*
X304006250Y-98425000D02*
X304006250Y-100203000D01*
X304006250Y-109347000D02*
X304006250Y-111125000D01*
X280193750Y-111125000D02*
X278415750Y-111125000D01*
X269271750Y-111125000D02*
X267493750Y-111125000D01*
X267493750Y-111125000D02*
X267493750Y-109347000D01*
X267493750Y-100203000D02*
X267493750Y-98425000D01*
X267493750Y-98425000D02*
X269271750Y-98425000D01*
X278415750Y-98425000D02*
X280193750Y-98425000D01*
X280193750Y-98425000D02*
X280193750Y-100203000D01*
X280193750Y-109347000D02*
X280193750Y-111125000D01*
X208756250Y-111125000D02*
X206978250Y-111125000D01*
X197834250Y-111125000D02*
X196056250Y-111125000D01*
X196056250Y-111125000D02*
X196056250Y-109347000D01*
X196056250Y-100203000D02*
X196056250Y-98425000D01*
X196056250Y-98425000D02*
X197834250Y-98425000D01*
X206978250Y-98425000D02*
X208756250Y-98425000D01*
X208756250Y-98425000D02*
X208756250Y-100203000D01*
X208756250Y-109347000D02*
X208756250Y-111125000D01*
X137318750Y-111125000D02*
X135540750Y-111125000D01*
X126396750Y-111125000D02*
X124618750Y-111125000D01*
X124618750Y-111125000D02*
X124618750Y-109347000D01*
X124618750Y-100203000D02*
X124618750Y-98425000D01*
X124618750Y-98425000D02*
X126396750Y-98425000D01*
X135540750Y-98425000D02*
X137318750Y-98425000D01*
X137318750Y-98425000D02*
X137318750Y-100203000D01*
X137318750Y-109347000D02*
X137318750Y-111125000D01*
X113506250Y-111125000D02*
X111728250Y-111125000D01*
X102584250Y-111125000D02*
X100806250Y-111125000D01*
X100806250Y-111125000D02*
X100806250Y-109347000D01*
X100806250Y-100203000D02*
X100806250Y-98425000D01*
X100806250Y-98425000D02*
X102584250Y-98425000D01*
X111728250Y-98425000D02*
X113506250Y-98425000D01*
X113506250Y-98425000D02*
X113506250Y-100203000D01*
X113506250Y-109347000D02*
X113506250Y-111125000D01*
X89693750Y-111125000D02*
X87915750Y-111125000D01*
X78771750Y-111125000D02*
X76993750Y-111125000D01*
X76993750Y-111125000D02*
X76993750Y-109347000D01*
X76993750Y-100203000D02*
X76993750Y-98425000D01*
X76993750Y-98425000D02*
X78771750Y-98425000D01*
X87915750Y-98425000D02*
X89693750Y-98425000D01*
X89693750Y-98425000D02*
X89693750Y-100203000D01*
X89693750Y-109347000D02*
X89693750Y-111125000D01*
X63500000Y-111125000D02*
X61722000Y-111125000D01*
X52578000Y-111125000D02*
X50800000Y-111125000D01*
X50800000Y-111125000D02*
X50800000Y-109347000D01*
X50800000Y-100203000D02*
X50800000Y-98425000D01*
X50800000Y-98425000D02*
X52578000Y-98425000D01*
X61722000Y-98425000D02*
X63500000Y-98425000D01*
X63500000Y-98425000D02*
X63500000Y-100203000D01*
X63500000Y-109347000D02*
X63500000Y-111125000D01*
X44450000Y-111125000D02*
X42672000Y-111125000D01*
X33528000Y-111125000D02*
X31750000Y-111125000D01*
X31750000Y-111125000D02*
X31750000Y-109347000D01*
X31750000Y-100203000D02*
X31750000Y-98425000D01*
X31750000Y-98425000D02*
X33528000Y-98425000D01*
X42672000Y-98425000D02*
X44450000Y-98425000D01*
X44450000Y-98425000D02*
X44450000Y-100203000D01*
X44450000Y-109347000D02*
X44450000Y-111125000D01*
X377825000Y-92075000D02*
X376047000Y-92075000D01*
X366903000Y-92075000D02*
X365125000Y-92075000D01*
X365125000Y-92075000D02*
X365125000Y-90297000D01*
X365125000Y-81153000D02*
X365125000Y-79375000D01*
X365125000Y-79375000D02*
X366903000Y-79375000D01*
X376047000Y-79375000D02*
X377825000Y-79375000D01*
X377825000Y-79375000D02*
X377825000Y-81153000D01*
X377825000Y-90297000D02*
X377825000Y-92075000D01*
X301625000Y-92075000D02*
X299847000Y-92075000D01*
X290703000Y-92075000D02*
X288925000Y-92075000D01*
X288925000Y-92075000D02*
X288925000Y-90297000D01*
X288925000Y-81153000D02*
X288925000Y-79375000D01*
X288925000Y-79375000D02*
X290703000Y-79375000D01*
X299847000Y-79375000D02*
X301625000Y-79375000D01*
X301625000Y-79375000D02*
X301625000Y-81153000D01*
X301625000Y-90297000D02*
X301625000Y-92075000D01*
X282575000Y-92075000D02*
X280797000Y-92075000D01*
X271653000Y-92075000D02*
X269875000Y-92075000D01*
X269875000Y-92075000D02*
X269875000Y-90297000D01*
X269875000Y-81153000D02*
X269875000Y-79375000D01*
X269875000Y-79375000D02*
X271653000Y-79375000D01*
X280797000Y-79375000D02*
X282575000Y-79375000D01*
X282575000Y-79375000D02*
X282575000Y-81153000D01*
X282575000Y-90297000D02*
X282575000Y-92075000D01*
X263525000Y-92075000D02*
X261747000Y-92075000D01*
X252603000Y-92075000D02*
X250825000Y-92075000D01*
X250825000Y-92075000D02*
X250825000Y-90297000D01*
X250825000Y-81153000D02*
X250825000Y-79375000D01*
X250825000Y-79375000D02*
X252603000Y-79375000D01*
X261747000Y-79375000D02*
X263525000Y-79375000D01*
X263525000Y-79375000D02*
X263525000Y-81153000D01*
X263525000Y-90297000D02*
X263525000Y-92075000D01*
X244475000Y-92075000D02*
X242697000Y-92075000D01*
X233553000Y-92075000D02*
X231775000Y-92075000D01*
X231775000Y-92075000D02*
X231775000Y-90297000D01*
X231775000Y-81153000D02*
X231775000Y-79375000D01*
X231775000Y-79375000D02*
X233553000Y-79375000D01*
X242697000Y-79375000D02*
X244475000Y-79375000D01*
X244475000Y-79375000D02*
X244475000Y-81153000D01*
X244475000Y-90297000D02*
X244475000Y-92075000D01*
X225425000Y-92075000D02*
X223647000Y-92075000D01*
X214503000Y-92075000D02*
X212725000Y-92075000D01*
X212725000Y-92075000D02*
X212725000Y-90297000D01*
X212725000Y-81153000D02*
X212725000Y-79375000D01*
X212725000Y-79375000D02*
X214503000Y-79375000D01*
X223647000Y-79375000D02*
X225425000Y-79375000D01*
X225425000Y-79375000D02*
X225425000Y-81153000D01*
X225425000Y-90297000D02*
X225425000Y-92075000D01*
X206375000Y-92075000D02*
X204597000Y-92075000D01*
X195453000Y-92075000D02*
X193675000Y-92075000D01*
X193675000Y-92075000D02*
X193675000Y-90297000D01*
X193675000Y-81153000D02*
X193675000Y-79375000D01*
X193675000Y-79375000D02*
X195453000Y-79375000D01*
X204597000Y-79375000D02*
X206375000Y-79375000D01*
X206375000Y-79375000D02*
X206375000Y-81153000D01*
X206375000Y-90297000D02*
X206375000Y-92075000D01*
X187325000Y-92075000D02*
X185547000Y-92075000D01*
X176403000Y-92075000D02*
X174625000Y-92075000D01*
X174625000Y-92075000D02*
X174625000Y-90297000D01*
X174625000Y-81153000D02*
X174625000Y-79375000D01*
X174625000Y-79375000D02*
X176403000Y-79375000D01*
X185547000Y-79375000D02*
X187325000Y-79375000D01*
X187325000Y-79375000D02*
X187325000Y-81153000D01*
X187325000Y-90297000D02*
X187325000Y-92075000D01*
X168275000Y-92075000D02*
X166497000Y-92075000D01*
X157353000Y-92075000D02*
X155575000Y-92075000D01*
X155575000Y-92075000D02*
X155575000Y-90297000D01*
X155575000Y-81153000D02*
X155575000Y-79375000D01*
X155575000Y-79375000D02*
X157353000Y-79375000D01*
X166497000Y-79375000D02*
X168275000Y-79375000D01*
X168275000Y-79375000D02*
X168275000Y-81153000D01*
X168275000Y-90297000D02*
X168275000Y-92075000D01*
X149225000Y-92075000D02*
X147447000Y-92075000D01*
X138303000Y-92075000D02*
X136525000Y-92075000D01*
X136525000Y-92075000D02*
X136525000Y-90297000D01*
X136525000Y-81153000D02*
X136525000Y-79375000D01*
X136525000Y-79375000D02*
X138303000Y-79375000D01*
X147447000Y-79375000D02*
X149225000Y-79375000D01*
X149225000Y-79375000D02*
X149225000Y-81153000D01*
X149225000Y-90297000D02*
X149225000Y-92075000D01*
X130175000Y-92075000D02*
X128397000Y-92075000D01*
X119253000Y-92075000D02*
X117475000Y-92075000D01*
X117475000Y-92075000D02*
X117475000Y-90297000D01*
X117475000Y-81153000D02*
X117475000Y-79375000D01*
X117475000Y-79375000D02*
X119253000Y-79375000D01*
X128397000Y-79375000D02*
X130175000Y-79375000D01*
X130175000Y-79375000D02*
X130175000Y-81153000D01*
X130175000Y-90297000D02*
X130175000Y-92075000D01*
X99218750Y-92075000D02*
X97440750Y-92075000D01*
X88296750Y-92075000D02*
X86518750Y-92075000D01*
X86518750Y-92075000D02*
X86518750Y-90297000D01*
X86518750Y-81153000D02*
X86518750Y-79375000D01*
X86518750Y-79375000D02*
X88296750Y-79375000D01*
X97440750Y-79375000D02*
X99218750Y-79375000D01*
X99218750Y-79375000D02*
X99218750Y-81153000D01*
X99218750Y-90297000D02*
X99218750Y-92075000D01*
X63500000Y-92075000D02*
X61722000Y-92075000D01*
X52578000Y-92075000D02*
X50800000Y-92075000D01*
X50800000Y-92075000D02*
X50800000Y-90297000D01*
X50800000Y-81153000D02*
X50800000Y-79375000D01*
X50800000Y-79375000D02*
X52578000Y-79375000D01*
X61722000Y-79375000D02*
X63500000Y-79375000D01*
X63500000Y-79375000D02*
X63500000Y-81153000D01*
X63500000Y-90297000D02*
X63500000Y-92075000D01*
X44450000Y-92075000D02*
X42672000Y-92075000D01*
X33528000Y-92075000D02*
X31750000Y-92075000D01*
X31750000Y-92075000D02*
X31750000Y-90297000D01*
X31750000Y-81153000D02*
X31750000Y-79375000D01*
X31750000Y-79375000D02*
X33528000Y-79375000D01*
X42672000Y-79375000D02*
X44450000Y-79375000D01*
X44450000Y-79375000D02*
X44450000Y-81153000D01*
X44450000Y-90297000D02*
X44450000Y-92075000D01*
X342106250Y-73025000D02*
X340328250Y-73025000D01*
X331184250Y-73025000D02*
X329406250Y-73025000D01*
X329406250Y-73025000D02*
X329406250Y-71247000D01*
X329406250Y-62103000D02*
X329406250Y-60325000D01*
X329406250Y-60325000D02*
X331184250Y-60325000D01*
X340328250Y-60325000D02*
X342106250Y-60325000D01*
X342106250Y-60325000D02*
X342106250Y-62103000D01*
X342106250Y-71247000D02*
X342106250Y-73025000D01*
X311150000Y-73025000D02*
X309372000Y-73025000D01*
X300228000Y-73025000D02*
X298450000Y-73025000D01*
X298450000Y-73025000D02*
X298450000Y-71247000D01*
X298450000Y-62103000D02*
X298450000Y-60325000D01*
X298450000Y-60325000D02*
X300228000Y-60325000D01*
X309372000Y-60325000D02*
X311150000Y-60325000D01*
X311150000Y-60325000D02*
X311150000Y-62103000D01*
X311150000Y-71247000D02*
X311150000Y-73025000D01*
X292100000Y-73025000D02*
X290322000Y-73025000D01*
X281178000Y-73025000D02*
X279400000Y-73025000D01*
X279400000Y-73025000D02*
X279400000Y-71247000D01*
X279400000Y-62103000D02*
X279400000Y-60325000D01*
X279400000Y-60325000D02*
X281178000Y-60325000D01*
X290322000Y-60325000D02*
X292100000Y-60325000D01*
X292100000Y-60325000D02*
X292100000Y-62103000D01*
X292100000Y-71247000D02*
X292100000Y-73025000D01*
X273050000Y-73025000D02*
X271272000Y-73025000D01*
X262128000Y-73025000D02*
X260350000Y-73025000D01*
X260350000Y-73025000D02*
X260350000Y-71247000D01*
X260350000Y-62103000D02*
X260350000Y-60325000D01*
X260350000Y-60325000D02*
X262128000Y-60325000D01*
X271272000Y-60325000D02*
X273050000Y-60325000D01*
X273050000Y-60325000D02*
X273050000Y-62103000D01*
X273050000Y-71247000D02*
X273050000Y-73025000D01*
X254000000Y-73025000D02*
X252222000Y-73025000D01*
X243078000Y-73025000D02*
X241300000Y-73025000D01*
X241300000Y-73025000D02*
X241300000Y-71247000D01*
X241300000Y-62103000D02*
X241300000Y-60325000D01*
X241300000Y-60325000D02*
X243078000Y-60325000D01*
X252222000Y-60325000D02*
X254000000Y-60325000D01*
X254000000Y-60325000D02*
X254000000Y-62103000D01*
X254000000Y-71247000D02*
X254000000Y-73025000D01*
X234950000Y-73025000D02*
X233172000Y-73025000D01*
X224028000Y-73025000D02*
X222250000Y-73025000D01*
X222250000Y-73025000D02*
X222250000Y-71247000D01*
X222250000Y-62103000D02*
X222250000Y-60325000D01*
X222250000Y-60325000D02*
X224028000Y-60325000D01*
X233172000Y-60325000D02*
X234950000Y-60325000D01*
X234950000Y-60325000D02*
X234950000Y-62103000D01*
X234950000Y-71247000D02*
X234950000Y-73025000D01*
X215900000Y-73025000D02*
X214122000Y-73025000D01*
X204978000Y-73025000D02*
X203200000Y-73025000D01*
X203200000Y-73025000D02*
X203200000Y-71247000D01*
X203200000Y-62103000D02*
X203200000Y-60325000D01*
X203200000Y-60325000D02*
X204978000Y-60325000D01*
X214122000Y-60325000D02*
X215900000Y-60325000D01*
X215900000Y-60325000D02*
X215900000Y-62103000D01*
X215900000Y-71247000D02*
X215900000Y-73025000D01*
X196850000Y-73025000D02*
X195072000Y-73025000D01*
X185928000Y-73025000D02*
X184150000Y-73025000D01*
X184150000Y-73025000D02*
X184150000Y-71247000D01*
X184150000Y-62103000D02*
X184150000Y-60325000D01*
X184150000Y-60325000D02*
X185928000Y-60325000D01*
X195072000Y-60325000D02*
X196850000Y-60325000D01*
X196850000Y-60325000D02*
X196850000Y-62103000D01*
X196850000Y-71247000D02*
X196850000Y-73025000D01*
X177800000Y-73025000D02*
X176022000Y-73025000D01*
X166878000Y-73025000D02*
X165100000Y-73025000D01*
X165100000Y-73025000D02*
X165100000Y-71247000D01*
X165100000Y-62103000D02*
X165100000Y-60325000D01*
X165100000Y-60325000D02*
X166878000Y-60325000D01*
X176022000Y-60325000D02*
X177800000Y-60325000D01*
X177800000Y-60325000D02*
X177800000Y-62103000D01*
X177800000Y-71247000D02*
X177800000Y-73025000D01*
X158750000Y-73025000D02*
X156972000Y-73025000D01*
X147828000Y-73025000D02*
X146050000Y-73025000D01*
X146050000Y-73025000D02*
X146050000Y-71247000D01*
X146050000Y-62103000D02*
X146050000Y-60325000D01*
X146050000Y-60325000D02*
X147828000Y-60325000D01*
X156972000Y-60325000D02*
X158750000Y-60325000D01*
X158750000Y-60325000D02*
X158750000Y-62103000D01*
X158750000Y-71247000D02*
X158750000Y-73025000D01*
X139700000Y-73025000D02*
X137922000Y-73025000D01*
X128778000Y-73025000D02*
X127000000Y-73025000D01*
X127000000Y-73025000D02*
X127000000Y-71247000D01*
X127000000Y-62103000D02*
X127000000Y-60325000D01*
X127000000Y-60325000D02*
X128778000Y-60325000D01*
X137922000Y-60325000D02*
X139700000Y-60325000D01*
X139700000Y-60325000D02*
X139700000Y-62103000D01*
X139700000Y-71247000D02*
X139700000Y-73025000D01*
X120650000Y-73025000D02*
X118872000Y-73025000D01*
X109728000Y-73025000D02*
X107950000Y-73025000D01*
X107950000Y-73025000D02*
X107950000Y-71247000D01*
X107950000Y-62103000D02*
X107950000Y-60325000D01*
X107950000Y-60325000D02*
X109728000Y-60325000D01*
X118872000Y-60325000D02*
X120650000Y-60325000D01*
X120650000Y-60325000D02*
X120650000Y-62103000D01*
X120650000Y-71247000D02*
X120650000Y-73025000D01*
X94456250Y-73025000D02*
X92678250Y-73025000D01*
X83534250Y-73025000D02*
X81756250Y-73025000D01*
X81756250Y-73025000D02*
X81756250Y-71247000D01*
X81756250Y-62103000D02*
X81756250Y-60325000D01*
X81756250Y-60325000D02*
X83534250Y-60325000D01*
X92678250Y-60325000D02*
X94456250Y-60325000D01*
X94456250Y-60325000D02*
X94456250Y-62103000D01*
X94456250Y-71247000D02*
X94456250Y-73025000D01*
X63500000Y-73025000D02*
X61722000Y-73025000D01*
X52578000Y-73025000D02*
X50800000Y-73025000D01*
X50800000Y-73025000D02*
X50800000Y-71247000D01*
X50800000Y-62103000D02*
X50800000Y-60325000D01*
X50800000Y-60325000D02*
X52578000Y-60325000D01*
X61722000Y-60325000D02*
X63500000Y-60325000D01*
X63500000Y-60325000D02*
X63500000Y-62103000D01*
X63500000Y-71247000D02*
X63500000Y-73025000D01*
X44450000Y-73025000D02*
X42672000Y-73025000D01*
X33528000Y-73025000D02*
X31750000Y-73025000D01*
X31750000Y-73025000D02*
X31750000Y-71247000D01*
X31750000Y-62103000D02*
X31750000Y-60325000D01*
X31750000Y-60325000D02*
X33528000Y-60325000D01*
X42672000Y-60325000D02*
X44450000Y-60325000D01*
X44450000Y-60325000D02*
X44450000Y-62103000D01*
X44450000Y-71247000D02*
X44450000Y-73025000D01*
X396875000Y-53975000D02*
X395097000Y-53975000D01*
X385953000Y-53975000D02*
X384175000Y-53975000D01*
X384175000Y-53975000D02*
X384175000Y-52197000D01*
X384175000Y-43053000D02*
X384175000Y-41275000D01*
X384175000Y-41275000D02*
X385953000Y-41275000D01*
X395097000Y-41275000D02*
X396875000Y-41275000D01*
X396875000Y-41275000D02*
X396875000Y-43053000D01*
X396875000Y-52197000D02*
X396875000Y-53975000D01*
X377825000Y-53975000D02*
X376047000Y-53975000D01*
X366903000Y-53975000D02*
X365125000Y-53975000D01*
X365125000Y-53975000D02*
X365125000Y-52197000D01*
X365125000Y-43053000D02*
X365125000Y-41275000D01*
X365125000Y-41275000D02*
X366903000Y-41275000D01*
X376047000Y-41275000D02*
X377825000Y-41275000D01*
X377825000Y-41275000D02*
X377825000Y-43053000D01*
X377825000Y-52197000D02*
X377825000Y-53975000D01*
X349250000Y-53975000D02*
X347472000Y-53975000D01*
X338328000Y-53975000D02*
X336550000Y-53975000D01*
X336550000Y-53975000D02*
X336550000Y-52197000D01*
X336550000Y-43053000D02*
X336550000Y-41275000D01*
X336550000Y-41275000D02*
X338328000Y-41275000D01*
X347472000Y-41275000D02*
X349250000Y-41275000D01*
X349250000Y-41275000D02*
X349250000Y-43053000D01*
X349250000Y-52197000D02*
X349250000Y-53975000D01*
X325437500Y-53975000D02*
X323659500Y-53975000D01*
X314515500Y-53975000D02*
X312737500Y-53975000D01*
X312737500Y-53975000D02*
X312737500Y-52197000D01*
X312737500Y-43053000D02*
X312737500Y-41275000D01*
X312737500Y-41275000D02*
X314515500Y-41275000D01*
X323659500Y-41275000D02*
X325437500Y-41275000D01*
X325437500Y-41275000D02*
X325437500Y-43053000D01*
X325437500Y-52197000D02*
X325437500Y-53975000D01*
X306387500Y-53975000D02*
X304609500Y-53975000D01*
X295465500Y-53975000D02*
X293687500Y-53975000D01*
X293687500Y-53975000D02*
X293687500Y-52197000D01*
X293687500Y-43053000D02*
X293687500Y-41275000D01*
X293687500Y-41275000D02*
X295465500Y-41275000D01*
X304609500Y-41275000D02*
X306387500Y-41275000D01*
X306387500Y-41275000D02*
X306387500Y-43053000D01*
X306387500Y-52197000D02*
X306387500Y-53975000D01*
X287337500Y-53975000D02*
X285559500Y-53975000D01*
X276415500Y-53975000D02*
X274637500Y-53975000D01*
X274637500Y-53975000D02*
X274637500Y-52197000D01*
X274637500Y-43053000D02*
X274637500Y-41275000D01*
X274637500Y-41275000D02*
X276415500Y-41275000D01*
X285559500Y-41275000D02*
X287337500Y-41275000D01*
X287337500Y-41275000D02*
X287337500Y-43053000D01*
X287337500Y-52197000D02*
X287337500Y-53975000D01*
X268287500Y-53975000D02*
X266509500Y-53975000D01*
X257365500Y-53975000D02*
X255587500Y-53975000D01*
X255587500Y-53975000D02*
X255587500Y-52197000D01*
X255587500Y-43053000D02*
X255587500Y-41275000D01*
X255587500Y-41275000D02*
X257365500Y-41275000D01*
X266509500Y-41275000D02*
X268287500Y-41275000D01*
X268287500Y-41275000D02*
X268287500Y-43053000D01*
X268287500Y-52197000D02*
X268287500Y-53975000D01*
X249237500Y-53975000D02*
X247459500Y-53975000D01*
X238315500Y-53975000D02*
X236537500Y-53975000D01*
X236537500Y-53975000D02*
X236537500Y-52197000D01*
X236537500Y-43053000D02*
X236537500Y-41275000D01*
X236537500Y-41275000D02*
X238315500Y-41275000D01*
X247459500Y-41275000D02*
X249237500Y-41275000D01*
X249237500Y-41275000D02*
X249237500Y-43053000D01*
X249237500Y-52197000D02*
X249237500Y-53975000D01*
X230187500Y-53975000D02*
X228409500Y-53975000D01*
X219265500Y-53975000D02*
X217487500Y-53975000D01*
X217487500Y-53975000D02*
X217487500Y-52197000D01*
X217487500Y-43053000D02*
X217487500Y-41275000D01*
X217487500Y-41275000D02*
X219265500Y-41275000D01*
X228409500Y-41275000D02*
X230187500Y-41275000D01*
X230187500Y-41275000D02*
X230187500Y-43053000D01*
X230187500Y-52197000D02*
X230187500Y-53975000D01*
X211137500Y-53975000D02*
X209359500Y-53975000D01*
X200215500Y-53975000D02*
X198437500Y-53975000D01*
X198437500Y-53975000D02*
X198437500Y-52197000D01*
X198437500Y-43053000D02*
X198437500Y-41275000D01*
X198437500Y-41275000D02*
X200215500Y-41275000D01*
X209359500Y-41275000D02*
X211137500Y-41275000D01*
X211137500Y-41275000D02*
X211137500Y-43053000D01*
X211137500Y-52197000D02*
X211137500Y-53975000D01*
X192087500Y-53975000D02*
X190309500Y-53975000D01*
X181165500Y-53975000D02*
X179387500Y-53975000D01*
X179387500Y-53975000D02*
X179387500Y-52197000D01*
X179387500Y-43053000D02*
X179387500Y-41275000D01*
X179387500Y-41275000D02*
X181165500Y-41275000D01*
X190309500Y-41275000D02*
X192087500Y-41275000D01*
X192087500Y-41275000D02*
X192087500Y-43053000D01*
X192087500Y-52197000D02*
X192087500Y-53975000D01*
X173037500Y-53975000D02*
X171259500Y-53975000D01*
X162115500Y-53975000D02*
X160337500Y-53975000D01*
X160337500Y-53975000D02*
X160337500Y-52197000D01*
X160337500Y-43053000D02*
X160337500Y-41275000D01*
X160337500Y-41275000D02*
X162115500Y-41275000D01*
X171259500Y-41275000D02*
X173037500Y-41275000D01*
X173037500Y-41275000D02*
X173037500Y-43053000D01*
X173037500Y-52197000D02*
X173037500Y-53975000D01*
X153987500Y-53975000D02*
X152209500Y-53975000D01*
X143065500Y-53975000D02*
X141287500Y-53975000D01*
X141287500Y-53975000D02*
X141287500Y-52197000D01*
X141287500Y-43053000D02*
X141287500Y-41275000D01*
X141287500Y-41275000D02*
X143065500Y-41275000D01*
X152209500Y-41275000D02*
X153987500Y-41275000D01*
X153987500Y-41275000D02*
X153987500Y-43053000D01*
X153987500Y-52197000D02*
X153987500Y-53975000D01*
X134937500Y-53975000D02*
X133159500Y-53975000D01*
X124015500Y-53975000D02*
X122237500Y-53975000D01*
X122237500Y-53975000D02*
X122237500Y-52197000D01*
X122237500Y-43053000D02*
X122237500Y-41275000D01*
X122237500Y-41275000D02*
X124015500Y-41275000D01*
X133159500Y-41275000D02*
X134937500Y-41275000D01*
X134937500Y-41275000D02*
X134937500Y-43053000D01*
X134937500Y-52197000D02*
X134937500Y-53975000D01*
X115887500Y-53975000D02*
X114109500Y-53975000D01*
X104965500Y-53975000D02*
X103187500Y-53975000D01*
X103187500Y-53975000D02*
X103187500Y-52197000D01*
X103187500Y-43053000D02*
X103187500Y-41275000D01*
X103187500Y-41275000D02*
X104965500Y-41275000D01*
X114109500Y-41275000D02*
X115887500Y-41275000D01*
X115887500Y-41275000D02*
X115887500Y-43053000D01*
X115887500Y-52197000D02*
X115887500Y-53975000D01*
X92075000Y-53975000D02*
X90297000Y-53975000D01*
X81153000Y-53975000D02*
X79375000Y-53975000D01*
X79375000Y-53975000D02*
X79375000Y-52197000D01*
X79375000Y-43053000D02*
X79375000Y-41275000D01*
X79375000Y-41275000D02*
X81153000Y-41275000D01*
X90297000Y-41275000D02*
X92075000Y-41275000D01*
X92075000Y-41275000D02*
X92075000Y-43053000D01*
X92075000Y-52197000D02*
X92075000Y-53975000D01*
X63500000Y-53975000D02*
X61722000Y-53975000D01*
X52578000Y-53975000D02*
X50800000Y-53975000D01*
X50800000Y-53975000D02*
X50800000Y-52197000D01*
X50800000Y-43053000D02*
X50800000Y-41275000D01*
X50800000Y-41275000D02*
X52578000Y-41275000D01*
X61722000Y-41275000D02*
X63500000Y-41275000D01*
X63500000Y-41275000D02*
X63500000Y-43053000D01*
X63500000Y-52197000D02*
X63500000Y-53975000D01*
X44450000Y-53975000D02*
X42672000Y-53975000D01*
X33528000Y-53975000D02*
X31750000Y-53975000D01*
X31750000Y-53975000D02*
X31750000Y-52197000D01*
X31750000Y-43053000D02*
X31750000Y-41275000D01*
X31750000Y-41275000D02*
X33528000Y-41275000D01*
X42672000Y-41275000D02*
X44450000Y-41275000D01*
X44450000Y-41275000D02*
X44450000Y-43053000D01*
X44450000Y-52197000D02*
X44450000Y-53975000D01*
X396875000Y-34925000D02*
X395097000Y-34925000D01*
X385953000Y-34925000D02*
X384175000Y-34925000D01*
X384175000Y-34925000D02*
X384175000Y-33147000D01*
X384175000Y-24003000D02*
X384175000Y-22225000D01*
X384175000Y-22225000D02*
X385953000Y-22225000D01*
X395097000Y-22225000D02*
X396875000Y-22225000D01*
X396875000Y-22225000D02*
X396875000Y-24003000D01*
X396875000Y-33147000D02*
X396875000Y-34925000D01*
X377825000Y-34925000D02*
X376047000Y-34925000D01*
X366903000Y-34925000D02*
X365125000Y-34925000D01*
X365125000Y-34925000D02*
X365125000Y-33147000D01*
X365125000Y-24003000D02*
X365125000Y-22225000D01*
X365125000Y-22225000D02*
X366903000Y-22225000D01*
X376047000Y-22225000D02*
X377825000Y-22225000D01*
X377825000Y-22225000D02*
X377825000Y-24003000D01*
X377825000Y-33147000D02*
X377825000Y-34925000D01*
X344487500Y-34925000D02*
X342709500Y-34925000D01*
X333565500Y-34925000D02*
X331787500Y-34925000D01*
X331787500Y-34925000D02*
X331787500Y-33147000D01*
X331787500Y-24003000D02*
X331787500Y-22225000D01*
X331787500Y-22225000D02*
X333565500Y-22225000D01*
X342709500Y-22225000D02*
X344487500Y-22225000D01*
X344487500Y-22225000D02*
X344487500Y-24003000D01*
X344487500Y-33147000D02*
X344487500Y-34925000D01*
X315912500Y-34925000D02*
X314134500Y-34925000D01*
X304990500Y-34925000D02*
X303212500Y-34925000D01*
X303212500Y-34925000D02*
X303212500Y-33147000D01*
X303212500Y-24003000D02*
X303212500Y-22225000D01*
X303212500Y-22225000D02*
X304990500Y-22225000D01*
X314134500Y-22225000D02*
X315912500Y-22225000D01*
X315912500Y-22225000D02*
X315912500Y-24003000D01*
X315912500Y-33147000D02*
X315912500Y-34925000D01*
X296862500Y-34925000D02*
X295084500Y-34925000D01*
X285940500Y-34925000D02*
X284162500Y-34925000D01*
X284162500Y-34925000D02*
X284162500Y-33147000D01*
X284162500Y-24003000D02*
X284162500Y-22225000D01*
X284162500Y-22225000D02*
X285940500Y-22225000D01*
X295084500Y-22225000D02*
X296862500Y-22225000D01*
X296862500Y-22225000D02*
X296862500Y-24003000D01*
X296862500Y-33147000D02*
X296862500Y-34925000D01*
X277812500Y-34925000D02*
X276034500Y-34925000D01*
X266890500Y-34925000D02*
X265112500Y-34925000D01*
X265112500Y-34925000D02*
X265112500Y-33147000D01*
X265112500Y-24003000D02*
X265112500Y-22225000D01*
X265112500Y-22225000D02*
X266890500Y-22225000D01*
X276034500Y-22225000D02*
X277812500Y-22225000D01*
X277812500Y-22225000D02*
X277812500Y-24003000D01*
X277812500Y-33147000D02*
X277812500Y-34925000D01*
X258762500Y-34925000D02*
X256984500Y-34925000D01*
X247840500Y-34925000D02*
X246062500Y-34925000D01*
X246062500Y-34925000D02*
X246062500Y-33147000D01*
X246062500Y-24003000D02*
X246062500Y-22225000D01*
X246062500Y-22225000D02*
X247840500Y-22225000D01*
X256984500Y-22225000D02*
X258762500Y-22225000D01*
X258762500Y-22225000D02*
X258762500Y-24003000D01*
X258762500Y-33147000D02*
X258762500Y-34925000D01*
X239712500Y-34925000D02*
X237934500Y-34925000D01*
X228790500Y-34925000D02*
X227012500Y-34925000D01*
X227012500Y-34925000D02*
X227012500Y-33147000D01*
X227012500Y-24003000D02*
X227012500Y-22225000D01*
X227012500Y-22225000D02*
X228790500Y-22225000D01*
X237934500Y-22225000D02*
X239712500Y-22225000D01*
X239712500Y-22225000D02*
X239712500Y-24003000D01*
X239712500Y-33147000D02*
X239712500Y-34925000D01*
X220662500Y-34925000D02*
X218884500Y-34925000D01*
X209740500Y-34925000D02*
X207962500Y-34925000D01*
X207962500Y-34925000D02*
X207962500Y-33147000D01*
X207962500Y-24003000D02*
X207962500Y-22225000D01*
X207962500Y-22225000D02*
X209740500Y-22225000D01*
X218884500Y-22225000D02*
X220662500Y-22225000D01*
X220662500Y-22225000D02*
X220662500Y-24003000D01*
X220662500Y-33147000D02*
X220662500Y-34925000D01*
X201612500Y-34925000D02*
X199834500Y-34925000D01*
X190690500Y-34925000D02*
X188912500Y-34925000D01*
X188912500Y-34925000D02*
X188912500Y-33147000D01*
X188912500Y-24003000D02*
X188912500Y-22225000D01*
X188912500Y-22225000D02*
X190690500Y-22225000D01*
X199834500Y-22225000D02*
X201612500Y-22225000D01*
X201612500Y-22225000D02*
X201612500Y-24003000D01*
X201612500Y-33147000D02*
X201612500Y-34925000D01*
X182562500Y-34925000D02*
X180784500Y-34925000D01*
X171640500Y-34925000D02*
X169862500Y-34925000D01*
X169862500Y-34925000D02*
X169862500Y-33147000D01*
X169862500Y-24003000D02*
X169862500Y-22225000D01*
X169862500Y-22225000D02*
X171640500Y-22225000D01*
X180784500Y-22225000D02*
X182562500Y-22225000D01*
X182562500Y-22225000D02*
X182562500Y-24003000D01*
X182562500Y-33147000D02*
X182562500Y-34925000D01*
X163512500Y-34925000D02*
X161734500Y-34925000D01*
X152590500Y-34925000D02*
X150812500Y-34925000D01*
X150812500Y-34925000D02*
X150812500Y-33147000D01*
X150812500Y-24003000D02*
X150812500Y-22225000D01*
X150812500Y-22225000D02*
X152590500Y-22225000D01*
X161734500Y-22225000D02*
X163512500Y-22225000D01*
X163512500Y-22225000D02*
X163512500Y-24003000D01*
X163512500Y-33147000D02*
X163512500Y-34925000D01*
X144462500Y-34925000D02*
X142684500Y-34925000D01*
X133540500Y-34925000D02*
X131762500Y-34925000D01*
X131762500Y-34925000D02*
X131762500Y-33147000D01*
X131762500Y-24003000D02*
X131762500Y-22225000D01*
X131762500Y-22225000D02*
X133540500Y-22225000D01*
X142684500Y-22225000D02*
X144462500Y-22225000D01*
X144462500Y-22225000D02*
X144462500Y-24003000D01*
X144462500Y-33147000D02*
X144462500Y-34925000D01*
X125412500Y-34925000D02*
X123634500Y-34925000D01*
X114490500Y-34925000D02*
X112712500Y-34925000D01*
X112712500Y-34925000D02*
X112712500Y-33147000D01*
X112712500Y-24003000D02*
X112712500Y-22225000D01*
X112712500Y-22225000D02*
X114490500Y-22225000D01*
X123634500Y-22225000D02*
X125412500Y-22225000D01*
X125412500Y-22225000D02*
X125412500Y-24003000D01*
X125412500Y-33147000D02*
X125412500Y-34925000D01*
X106362500Y-34925000D02*
X104584500Y-34925000D01*
X95440500Y-34925000D02*
X93662500Y-34925000D01*
X93662500Y-34925000D02*
X93662500Y-33147000D01*
X93662500Y-24003000D02*
X93662500Y-22225000D01*
X93662500Y-22225000D02*
X95440500Y-22225000D01*
X104584500Y-22225000D02*
X106362500Y-22225000D01*
X106362500Y-22225000D02*
X106362500Y-24003000D01*
X106362500Y-33147000D02*
X106362500Y-34925000D01*
X87312500Y-34925000D02*
X85534500Y-34925000D01*
X76390500Y-34925000D02*
X74612500Y-34925000D01*
X74612500Y-34925000D02*
X74612500Y-33147000D01*
X74612500Y-24003000D02*
X74612500Y-22225000D01*
X74612500Y-22225000D02*
X76390500Y-22225000D01*
X85534500Y-22225000D02*
X87312500Y-22225000D01*
X87312500Y-22225000D02*
X87312500Y-24003000D01*
X87312500Y-33147000D02*
X87312500Y-34925000D01*
X63500000Y-34925000D02*
X61722000Y-34925000D01*
X52578000Y-34925000D02*
X50800000Y-34925000D01*
X50800000Y-34925000D02*
X50800000Y-33147000D01*
X50800000Y-24003000D02*
X50800000Y-22225000D01*
X50800000Y-22225000D02*
X52578000Y-22225000D01*
X61722000Y-22225000D02*
X63500000Y-22225000D01*
X63500000Y-22225000D02*
X63500000Y-24003000D01*
X63500000Y-33147000D02*
X63500000Y-34925000D01*
X44450000Y-34925000D02*
X42672000Y-34925000D01*
X33528000Y-34925000D02*
X31750000Y-34925000D01*
X31750000Y-34925000D02*
X31750000Y-33147000D01*
X31750000Y-24003000D02*
X31750000Y-22225000D01*
X31750000Y-22225000D02*
X33528000Y-22225000D01*
X42672000Y-22225000D02*
X44450000Y-22225000D01*
X44450000Y-22225000D02*
X44450000Y-24003000D01*
X44450000Y-33147000D02*
X44450000Y-34925000D01*
D10*
X388525000Y-86725000D02*
X388525000Y-87125000D01*
X392525000Y-87725000D02*
X392025000Y-87725000D01*
X392525000Y-86725000D02*
X392525000Y-87725000D01*
X388525000Y-83725000D02*
X389125000Y-83725000D01*
X388525000Y-83725000D02*
X388525000Y-84125000D01*
X391925000Y-84125000D02*
X392525000Y-84725000D01*
X392525000Y-86725000D02*
X392525000Y-84125000D01*
X388525000Y-84125000D02*
X388525000Y-86725000D01*
X353549920Y-22851160D02*
X353549920Y-20851160D01*
X353549920Y-20851160D02*
X359549920Y-20851160D01*
X359549920Y-20851160D02*
X359549920Y-22851160D01*
X359549920Y-22851160D02*
X353549920Y-22851160D01*
X352549920Y-23351160D02*
X351049920Y-23351160D01*
X351049920Y-23351160D02*
X351049920Y-21851160D01*
X218638381Y-68904766D02*
X217638381Y-68904766D01*
X217638381Y-68666671D01*
X217686000Y-68523813D01*
X217781238Y-68428575D01*
X217876476Y-68380956D01*
X218066952Y-68333337D01*
X218209810Y-68333337D01*
X218400286Y-68380956D01*
X218495524Y-68428575D01*
X218590762Y-68523813D01*
X218638381Y-68666671D01*
X218638381Y-68904766D01*
X217971714Y-67476194D02*
X218638381Y-67476194D01*
X217590762Y-67714290D02*
X218305048Y-67952385D01*
X218305048Y-67333337D01*
X217638381Y-66523813D02*
X217638381Y-66714290D01*
X217686000Y-66809528D01*
X217733619Y-66857147D01*
X217876476Y-66952385D01*
X218066952Y-67000004D01*
X218447905Y-67000004D01*
X218543143Y-66952385D01*
X218590762Y-66904766D01*
X218638381Y-66809528D01*
X218638381Y-66619051D01*
X218590762Y-66523813D01*
X218543143Y-66476194D01*
X218447905Y-66428575D01*
X218209810Y-66428575D01*
X218114571Y-66476194D01*
X218066952Y-66523813D01*
X218019333Y-66619051D01*
X218019333Y-66809528D01*
X218066952Y-66904766D01*
X218114571Y-66952385D01*
X218209810Y-67000004D01*
X240836572Y-96624857D02*
X241636572Y-97824857D01*
X241636572Y-96624857D02*
X240836572Y-97824857D01*
X242036571Y-96739143D02*
X242093714Y-96682000D01*
X242208000Y-96624857D01*
X242493714Y-96624857D01*
X242608000Y-96682000D01*
X242665143Y-96739143D01*
X242722286Y-96853429D01*
X242722286Y-96967714D01*
X242665143Y-97139143D01*
X241979429Y-97824857D01*
X242722286Y-97824857D01*
X80311655Y-61761667D02*
X80787846Y-61761667D01*
X80216417Y-62047381D02*
X80549750Y-61047381D01*
X80883084Y-62047381D01*
X85875845Y-62047381D02*
X85875845Y-61047381D01*
X86447274Y-62047381D02*
X86018702Y-61475952D01*
X86447274Y-61047381D02*
X85875845Y-61618810D01*
X89860381Y-30202095D02*
X88860381Y-30202095D01*
X88860381Y-29964000D01*
X88908000Y-29821142D01*
X89003238Y-29725904D01*
X89098476Y-29678285D01*
X89288952Y-29630666D01*
X89431810Y-29630666D01*
X89622286Y-29678285D01*
X89717524Y-29725904D01*
X89812762Y-29821142D01*
X89860381Y-29964000D01*
X89860381Y-30202095D01*
X89193714Y-28773523D02*
X89860381Y-28773523D01*
X88812762Y-29011619D02*
X89527048Y-29249714D01*
X89527048Y-28630666D01*
X381960381Y-98115286D02*
X380960381Y-98115286D01*
X380960381Y-97877191D01*
X381008000Y-97734333D01*
X381103238Y-97639095D01*
X381198476Y-97591476D01*
X381388952Y-97543857D01*
X381531810Y-97543857D01*
X381722286Y-97591476D01*
X381817524Y-97639095D01*
X381912762Y-97734333D01*
X381960381Y-97877191D01*
X381960381Y-98115286D01*
X380960381Y-97210524D02*
X380960381Y-96543857D01*
X381960381Y-96972429D01*
X381388952Y-96020048D02*
X381341333Y-96115286D01*
X381293714Y-96162905D01*
X381198476Y-96210524D01*
X381150857Y-96210524D01*
X381055619Y-96162905D01*
X381008000Y-96115286D01*
X380960381Y-96020048D01*
X380960381Y-95829571D01*
X381008000Y-95734333D01*
X381055619Y-95686714D01*
X381150857Y-95639095D01*
X381198476Y-95639095D01*
X381293714Y-95686714D01*
X381341333Y-95734333D01*
X381388952Y-95829571D01*
X381388952Y-96020048D01*
X381436571Y-96115286D01*
X381484190Y-96162905D01*
X381579429Y-96210524D01*
X381769905Y-96210524D01*
X381865143Y-96162905D01*
X381912762Y-96115286D01*
X381960381Y-96020048D01*
X381960381Y-95829571D01*
X381912762Y-95734333D01*
X381865143Y-95686714D01*
X381769905Y-95639095D01*
X381579429Y-95639095D01*
X381484190Y-95686714D01*
X381436571Y-95734333D01*
X381388952Y-95829571D01*
X33043905Y-37028381D02*
X33043905Y-36028381D01*
X33282000Y-36028381D01*
X33424858Y-36076000D01*
X33520096Y-36171238D01*
X33567715Y-36266476D01*
X33615334Y-36456952D01*
X33615334Y-36599810D01*
X33567715Y-36790286D01*
X33520096Y-36885524D01*
X33424858Y-36980762D01*
X33282000Y-37028381D01*
X33043905Y-37028381D01*
X34567715Y-37028381D02*
X33996286Y-37028381D01*
X34282000Y-37028381D02*
X34282000Y-36028381D01*
X34186762Y-36171238D01*
X34091524Y-36266476D01*
X33996286Y-36314095D01*
X47188381Y-30202095D02*
X46188381Y-30202095D01*
X46188381Y-29964000D01*
X46236000Y-29821142D01*
X46331238Y-29725904D01*
X46426476Y-29678285D01*
X46616952Y-29630666D01*
X46759810Y-29630666D01*
X46950286Y-29678285D01*
X47045524Y-29725904D01*
X47140762Y-29821142D01*
X47188381Y-29964000D01*
X47188381Y-30202095D01*
X46283619Y-29249714D02*
X46236000Y-29202095D01*
X46188381Y-29106857D01*
X46188381Y-28868761D01*
X46236000Y-28773523D01*
X46283619Y-28725904D01*
X46378857Y-28678285D01*
X46474095Y-28678285D01*
X46616952Y-28725904D01*
X47188381Y-29297333D01*
X47188381Y-28678285D01*
X79525905Y-38806381D02*
X79525905Y-37806381D01*
X79764000Y-37806381D01*
X79906858Y-37854000D01*
X80002096Y-37949238D01*
X80049715Y-38044476D01*
X80097334Y-38234952D01*
X80097334Y-38377810D01*
X80049715Y-38568286D01*
X80002096Y-38663524D01*
X79906858Y-38758762D01*
X79764000Y-38806381D01*
X79525905Y-38806381D01*
X80430667Y-37806381D02*
X81049715Y-37806381D01*
X80716381Y-38187333D01*
X80859239Y-38187333D01*
X80954477Y-38234952D01*
X81002096Y-38282571D01*
X81049715Y-38377810D01*
X81049715Y-38615905D01*
X81002096Y-38711143D01*
X80954477Y-38758762D01*
X80859239Y-38806381D01*
X80573524Y-38806381D01*
X80478286Y-38758762D01*
X80430667Y-38711143D01*
X108910381Y-30202095D02*
X107910381Y-30202095D01*
X107910381Y-29964000D01*
X107958000Y-29821142D01*
X108053238Y-29725904D01*
X108148476Y-29678285D01*
X108338952Y-29630666D01*
X108481810Y-29630666D01*
X108672286Y-29678285D01*
X108767524Y-29725904D01*
X108862762Y-29821142D01*
X108910381Y-29964000D01*
X108910381Y-30202095D01*
X107910381Y-28725904D02*
X107910381Y-29202095D01*
X108386571Y-29249714D01*
X108338952Y-29202095D01*
X108291333Y-29106857D01*
X108291333Y-28868761D01*
X108338952Y-28773523D01*
X108386571Y-28725904D01*
X108481810Y-28678285D01*
X108719905Y-28678285D01*
X108815143Y-28725904D01*
X108862762Y-28773523D01*
X108910381Y-28868761D01*
X108910381Y-29106857D01*
X108862762Y-29202095D01*
X108815143Y-29249714D01*
X127960381Y-30202095D02*
X126960381Y-30202095D01*
X126960381Y-29964000D01*
X127008000Y-29821142D01*
X127103238Y-29725904D01*
X127198476Y-29678285D01*
X127388952Y-29630666D01*
X127531810Y-29630666D01*
X127722286Y-29678285D01*
X127817524Y-29725904D01*
X127912762Y-29821142D01*
X127960381Y-29964000D01*
X127960381Y-30202095D01*
X126960381Y-28773523D02*
X126960381Y-28964000D01*
X127008000Y-29059238D01*
X127055619Y-29106857D01*
X127198476Y-29202095D01*
X127388952Y-29249714D01*
X127769905Y-29249714D01*
X127865143Y-29202095D01*
X127912762Y-29154476D01*
X127960381Y-29059238D01*
X127960381Y-28868761D01*
X127912762Y-28773523D01*
X127865143Y-28725904D01*
X127769905Y-28678285D01*
X127531810Y-28678285D01*
X127436571Y-28725904D01*
X127388952Y-28773523D01*
X127341333Y-28868761D01*
X127341333Y-29059238D01*
X127388952Y-29154476D01*
X127436571Y-29202095D01*
X127531810Y-29249714D01*
X147010381Y-30202095D02*
X146010381Y-30202095D01*
X146010381Y-29964000D01*
X146058000Y-29821142D01*
X146153238Y-29725904D01*
X146248476Y-29678285D01*
X146438952Y-29630666D01*
X146581810Y-29630666D01*
X146772286Y-29678285D01*
X146867524Y-29725904D01*
X146962762Y-29821142D01*
X147010381Y-29964000D01*
X147010381Y-30202095D01*
X146010381Y-29297333D02*
X146010381Y-28630666D01*
X147010381Y-29059238D01*
X166060381Y-30202095D02*
X165060381Y-30202095D01*
X165060381Y-29964000D01*
X165108000Y-29821142D01*
X165203238Y-29725904D01*
X165298476Y-29678285D01*
X165488952Y-29630666D01*
X165631810Y-29630666D01*
X165822286Y-29678285D01*
X165917524Y-29725904D01*
X166012762Y-29821142D01*
X166060381Y-29964000D01*
X166060381Y-30202095D01*
X165488952Y-29059238D02*
X165441333Y-29154476D01*
X165393714Y-29202095D01*
X165298476Y-29249714D01*
X165250857Y-29249714D01*
X165155619Y-29202095D01*
X165108000Y-29154476D01*
X165060381Y-29059238D01*
X165060381Y-28868761D01*
X165108000Y-28773523D01*
X165155619Y-28725904D01*
X165250857Y-28678285D01*
X165298476Y-28678285D01*
X165393714Y-28725904D01*
X165441333Y-28773523D01*
X165488952Y-28868761D01*
X165488952Y-29059238D01*
X165536571Y-29154476D01*
X165584190Y-29202095D01*
X165679429Y-29249714D01*
X165869905Y-29249714D01*
X165965143Y-29202095D01*
X166012762Y-29154476D01*
X166060381Y-29059238D01*
X166060381Y-28868761D01*
X166012762Y-28773523D01*
X165965143Y-28725904D01*
X165869905Y-28678285D01*
X165679429Y-28678285D01*
X165584190Y-28725904D01*
X165536571Y-28773523D01*
X165488952Y-28868761D01*
X185110381Y-30202095D02*
X184110381Y-30202095D01*
X184110381Y-29964000D01*
X184158000Y-29821142D01*
X184253238Y-29725904D01*
X184348476Y-29678285D01*
X184538952Y-29630666D01*
X184681810Y-29630666D01*
X184872286Y-29678285D01*
X184967524Y-29725904D01*
X185062762Y-29821142D01*
X185110381Y-29964000D01*
X185110381Y-30202095D01*
X185110381Y-29154476D02*
X185110381Y-28964000D01*
X185062762Y-28868761D01*
X185015143Y-28821142D01*
X184872286Y-28725904D01*
X184681810Y-28678285D01*
X184300857Y-28678285D01*
X184205619Y-28725904D01*
X184158000Y-28773523D01*
X184110381Y-28868761D01*
X184110381Y-29059238D01*
X184158000Y-29154476D01*
X184205619Y-29202095D01*
X184300857Y-29249714D01*
X184538952Y-29249714D01*
X184634190Y-29202095D01*
X184681810Y-29154476D01*
X184729429Y-29059238D01*
X184729429Y-28868761D01*
X184681810Y-28773523D01*
X184634190Y-28725904D01*
X184538952Y-28678285D01*
X204160381Y-30170286D02*
X203160381Y-30170286D01*
X203160381Y-29932191D01*
X203208000Y-29789333D01*
X203303238Y-29694095D01*
X203398476Y-29646476D01*
X203588952Y-29598857D01*
X203731810Y-29598857D01*
X203922286Y-29646476D01*
X204017524Y-29694095D01*
X204112762Y-29789333D01*
X204160381Y-29932191D01*
X204160381Y-30170286D01*
X204160381Y-28646476D02*
X204160381Y-29217905D01*
X204160381Y-28932191D02*
X203160381Y-28932191D01*
X203303238Y-29027429D01*
X203398476Y-29122667D01*
X203446095Y-29217905D01*
X203160381Y-28027429D02*
X203160381Y-27932190D01*
X203208000Y-27836952D01*
X203255619Y-27789333D01*
X203350857Y-27741714D01*
X203541333Y-27694095D01*
X203779429Y-27694095D01*
X203969905Y-27741714D01*
X204065143Y-27789333D01*
X204112762Y-27836952D01*
X204160381Y-27932190D01*
X204160381Y-28027429D01*
X204112762Y-28122667D01*
X204065143Y-28170286D01*
X203969905Y-28217905D01*
X203779429Y-28265524D01*
X203541333Y-28265524D01*
X203350857Y-28217905D01*
X203255619Y-28170286D01*
X203208000Y-28122667D01*
X203160381Y-28027429D01*
X223210381Y-30170286D02*
X222210381Y-30170286D01*
X222210381Y-29932191D01*
X222258000Y-29789333D01*
X222353238Y-29694095D01*
X222448476Y-29646476D01*
X222638952Y-29598857D01*
X222781810Y-29598857D01*
X222972286Y-29646476D01*
X223067524Y-29694095D01*
X223162762Y-29789333D01*
X223210381Y-29932191D01*
X223210381Y-30170286D01*
X223210381Y-28646476D02*
X223210381Y-29217905D01*
X223210381Y-28932191D02*
X222210381Y-28932191D01*
X222353238Y-29027429D01*
X222448476Y-29122667D01*
X222496095Y-29217905D01*
X223210381Y-27694095D02*
X223210381Y-28265524D01*
X223210381Y-27979810D02*
X222210381Y-27979810D01*
X222353238Y-28075048D01*
X222448476Y-28170286D01*
X222496095Y-28265524D01*
X246324381Y-28804286D02*
X245324381Y-28804286D01*
X245324381Y-28566191D01*
X245372000Y-28423333D01*
X245467238Y-28328095D01*
X245562476Y-28280476D01*
X245752952Y-28232857D01*
X245895810Y-28232857D01*
X246086286Y-28280476D01*
X246181524Y-28328095D01*
X246276762Y-28423333D01*
X246324381Y-28566191D01*
X246324381Y-28804286D01*
X246324381Y-27280476D02*
X246324381Y-27851905D01*
X246324381Y-27566191D02*
X245324381Y-27566191D01*
X245467238Y-27661429D01*
X245562476Y-27756667D01*
X245610095Y-27851905D01*
X245419619Y-26899524D02*
X245372000Y-26851905D01*
X245324381Y-26756667D01*
X245324381Y-26518571D01*
X245372000Y-26423333D01*
X245419619Y-26375714D01*
X245514857Y-26328095D01*
X245610095Y-26328095D01*
X245752952Y-26375714D01*
X246324381Y-26947143D01*
X246324381Y-26328095D01*
X261310381Y-30170286D02*
X260310381Y-30170286D01*
X260310381Y-29932191D01*
X260358000Y-29789333D01*
X260453238Y-29694095D01*
X260548476Y-29646476D01*
X260738952Y-29598857D01*
X260881810Y-29598857D01*
X261072286Y-29646476D01*
X261167524Y-29694095D01*
X261262762Y-29789333D01*
X261310381Y-29932191D01*
X261310381Y-30170286D01*
X261310381Y-28646476D02*
X261310381Y-29217905D01*
X261310381Y-28932191D02*
X260310381Y-28932191D01*
X260453238Y-29027429D01*
X260548476Y-29122667D01*
X260596095Y-29217905D01*
X260310381Y-28313143D02*
X260310381Y-27694095D01*
X260691333Y-28027429D01*
X260691333Y-27884571D01*
X260738952Y-27789333D01*
X260786571Y-27741714D01*
X260881810Y-27694095D01*
X261119905Y-27694095D01*
X261215143Y-27741714D01*
X261262762Y-27789333D01*
X261310381Y-27884571D01*
X261310381Y-28170286D01*
X261262762Y-28265524D01*
X261215143Y-28313143D01*
X280360381Y-30170286D02*
X279360381Y-30170286D01*
X279360381Y-29932191D01*
X279408000Y-29789333D01*
X279503238Y-29694095D01*
X279598476Y-29646476D01*
X279788952Y-29598857D01*
X279931810Y-29598857D01*
X280122286Y-29646476D01*
X280217524Y-29694095D01*
X280312762Y-29789333D01*
X280360381Y-29932191D01*
X280360381Y-30170286D01*
X280360381Y-28646476D02*
X280360381Y-29217905D01*
X280360381Y-28932191D02*
X279360381Y-28932191D01*
X279503238Y-29027429D01*
X279598476Y-29122667D01*
X279646095Y-29217905D01*
X279693714Y-27789333D02*
X280360381Y-27789333D01*
X279312762Y-28027429D02*
X280027048Y-28265524D01*
X280027048Y-27646476D01*
X299410381Y-30170286D02*
X298410381Y-30170286D01*
X298410381Y-29932191D01*
X298458000Y-29789333D01*
X298553238Y-29694095D01*
X298648476Y-29646476D01*
X298838952Y-29598857D01*
X298981810Y-29598857D01*
X299172286Y-29646476D01*
X299267524Y-29694095D01*
X299362762Y-29789333D01*
X299410381Y-29932191D01*
X299410381Y-30170286D01*
X299410381Y-28646476D02*
X299410381Y-29217905D01*
X299410381Y-28932191D02*
X298410381Y-28932191D01*
X298553238Y-29027429D01*
X298648476Y-29122667D01*
X298696095Y-29217905D01*
X298410381Y-27741714D02*
X298410381Y-28217905D01*
X298886571Y-28265524D01*
X298838952Y-28217905D01*
X298791333Y-28122667D01*
X298791333Y-27884571D01*
X298838952Y-27789333D01*
X298886571Y-27741714D01*
X298981810Y-27694095D01*
X299219905Y-27694095D01*
X299315143Y-27741714D01*
X299362762Y-27789333D01*
X299410381Y-27884571D01*
X299410381Y-28122667D01*
X299362762Y-28217905D01*
X299315143Y-28265524D01*
X319428381Y-30170286D02*
X318428381Y-30170286D01*
X318428381Y-29932191D01*
X318476000Y-29789333D01*
X318571238Y-29694095D01*
X318666476Y-29646476D01*
X318856952Y-29598857D01*
X318999810Y-29598857D01*
X319190286Y-29646476D01*
X319285524Y-29694095D01*
X319380762Y-29789333D01*
X319428381Y-29932191D01*
X319428381Y-30170286D01*
X319428381Y-28646476D02*
X319428381Y-29217905D01*
X319428381Y-28932191D02*
X318428381Y-28932191D01*
X318571238Y-29027429D01*
X318666476Y-29122667D01*
X318714095Y-29217905D01*
X318428381Y-27789333D02*
X318428381Y-27979810D01*
X318476000Y-28075048D01*
X318523619Y-28122667D01*
X318666476Y-28217905D01*
X318856952Y-28265524D01*
X319237905Y-28265524D01*
X319333143Y-28217905D01*
X319380762Y-28170286D01*
X319428381Y-28075048D01*
X319428381Y-27884571D01*
X319380762Y-27789333D01*
X319333143Y-27741714D01*
X319237905Y-27694095D01*
X318999810Y-27694095D01*
X318904571Y-27741714D01*
X318856952Y-27789333D01*
X318809333Y-27884571D01*
X318809333Y-28075048D01*
X318856952Y-28170286D01*
X318904571Y-28217905D01*
X318999810Y-28265524D01*
X382973841Y-28773806D02*
X381973841Y-28773806D01*
X381973841Y-28535711D01*
X382021460Y-28392853D01*
X382116698Y-28297615D01*
X382211936Y-28249996D01*
X382402412Y-28202377D01*
X382545270Y-28202377D01*
X382735746Y-28249996D01*
X382830984Y-28297615D01*
X382926222Y-28392853D01*
X382973841Y-28535711D01*
X382973841Y-28773806D01*
X382973841Y-27249996D02*
X382973841Y-27821425D01*
X382973841Y-27535711D02*
X381973841Y-27535711D01*
X382116698Y-27630949D01*
X382211936Y-27726187D01*
X382259555Y-27821425D01*
X381973841Y-26916663D02*
X381973841Y-26249996D01*
X382973841Y-26678568D01*
X388167714Y-38806381D02*
X388167714Y-37806381D01*
X388405809Y-37806381D01*
X388548667Y-37854000D01*
X388643905Y-37949238D01*
X388691524Y-38044476D01*
X388739143Y-38234952D01*
X388739143Y-38377810D01*
X388691524Y-38568286D01*
X388643905Y-38663524D01*
X388548667Y-38758762D01*
X388405809Y-38806381D01*
X388167714Y-38806381D01*
X389691524Y-38806381D02*
X389120095Y-38806381D01*
X389405809Y-38806381D02*
X389405809Y-37806381D01*
X389310571Y-37949238D01*
X389215333Y-38044476D01*
X389120095Y-38092095D01*
X390262952Y-38234952D02*
X390167714Y-38187333D01*
X390120095Y-38139714D01*
X390072476Y-38044476D01*
X390072476Y-37996857D01*
X390120095Y-37901619D01*
X390167714Y-37854000D01*
X390262952Y-37806381D01*
X390453429Y-37806381D01*
X390548667Y-37854000D01*
X390596286Y-37901619D01*
X390643905Y-37996857D01*
X390643905Y-38044476D01*
X390596286Y-38139714D01*
X390548667Y-38187333D01*
X390453429Y-38234952D01*
X390262952Y-38234952D01*
X390167714Y-38282571D01*
X390120095Y-38330190D01*
X390072476Y-38425429D01*
X390072476Y-38615905D01*
X390120095Y-38711143D01*
X390167714Y-38758762D01*
X390262952Y-38806381D01*
X390453429Y-38806381D01*
X390548667Y-38758762D01*
X390596286Y-38711143D01*
X390643905Y-38615905D01*
X390643905Y-38425429D01*
X390596286Y-38330190D01*
X390548667Y-38282571D01*
X390453429Y-38234952D01*
X32059714Y-40076381D02*
X32059714Y-39076381D01*
X32297809Y-39076381D01*
X32440667Y-39124000D01*
X32535905Y-39219238D01*
X32583524Y-39314476D01*
X32631143Y-39504952D01*
X32631143Y-39647810D01*
X32583524Y-39838286D01*
X32535905Y-39933524D01*
X32440667Y-40028762D01*
X32297809Y-40076381D01*
X32059714Y-40076381D01*
X33583524Y-40076381D02*
X33012095Y-40076381D01*
X33297809Y-40076381D02*
X33297809Y-39076381D01*
X33202571Y-39219238D01*
X33107333Y-39314476D01*
X33012095Y-39362095D01*
X34059714Y-40076381D02*
X34250190Y-40076381D01*
X34345429Y-40028762D01*
X34393048Y-39981143D01*
X34488286Y-39838286D01*
X34535905Y-39647810D01*
X34535905Y-39266857D01*
X34488286Y-39171619D01*
X34440667Y-39124000D01*
X34345429Y-39076381D01*
X34154952Y-39076381D01*
X34059714Y-39124000D01*
X34012095Y-39171619D01*
X33964476Y-39266857D01*
X33964476Y-39504952D01*
X34012095Y-39600190D01*
X34059714Y-39647810D01*
X34154952Y-39695429D01*
X34345429Y-39695429D01*
X34440667Y-39647810D01*
X34488286Y-39600190D01*
X34535905Y-39504952D01*
X47188381Y-49474286D02*
X46188381Y-49474286D01*
X46188381Y-49236191D01*
X46236000Y-49093333D01*
X46331238Y-48998095D01*
X46426476Y-48950476D01*
X46616952Y-48902857D01*
X46759810Y-48902857D01*
X46950286Y-48950476D01*
X47045524Y-48998095D01*
X47140762Y-49093333D01*
X47188381Y-49236191D01*
X47188381Y-49474286D01*
X46283619Y-48521905D02*
X46236000Y-48474286D01*
X46188381Y-48379048D01*
X46188381Y-48140952D01*
X46236000Y-48045714D01*
X46283619Y-47998095D01*
X46378857Y-47950476D01*
X46474095Y-47950476D01*
X46616952Y-47998095D01*
X47188381Y-48569524D01*
X47188381Y-47950476D01*
X46188381Y-47331429D02*
X46188381Y-47236190D01*
X46236000Y-47140952D01*
X46283619Y-47093333D01*
X46378857Y-47045714D01*
X46569333Y-46998095D01*
X46807429Y-46998095D01*
X46997905Y-47045714D01*
X47093143Y-47093333D01*
X47140762Y-47140952D01*
X47188381Y-47236190D01*
X47188381Y-47331429D01*
X47140762Y-47426667D01*
X47093143Y-47474286D01*
X46997905Y-47521905D01*
X46807429Y-47569524D01*
X46569333Y-47569524D01*
X46378857Y-47521905D01*
X46283619Y-47474286D01*
X46236000Y-47426667D01*
X46188381Y-47331429D01*
X96972381Y-50743766D02*
X95972381Y-50743766D01*
X95972381Y-50505671D01*
X96020000Y-50362813D01*
X96115238Y-50267575D01*
X96210476Y-50219956D01*
X96400952Y-50172337D01*
X96543810Y-50172337D01*
X96734286Y-50219956D01*
X96829524Y-50267575D01*
X96924762Y-50362813D01*
X96972381Y-50505671D01*
X96972381Y-50743766D01*
X96067619Y-49791385D02*
X96020000Y-49743766D01*
X95972381Y-49648528D01*
X95972381Y-49410432D01*
X96020000Y-49315194D01*
X96067619Y-49267575D01*
X96162857Y-49219956D01*
X96258095Y-49219956D01*
X96400952Y-49267575D01*
X96972381Y-49839004D01*
X96972381Y-49219956D01*
X96972381Y-48267575D02*
X96972381Y-48839004D01*
X96972381Y-48553290D02*
X95972381Y-48553290D01*
X96115238Y-48648528D01*
X96210476Y-48743766D01*
X96258095Y-48839004D01*
X99512381Y-50743766D02*
X98512381Y-50743766D01*
X98512381Y-50505671D01*
X98560000Y-50362813D01*
X98655238Y-50267575D01*
X98750476Y-50219956D01*
X98940952Y-50172337D01*
X99083810Y-50172337D01*
X99274286Y-50219956D01*
X99369524Y-50267575D01*
X99464762Y-50362813D01*
X99512381Y-50505671D01*
X99512381Y-50743766D01*
X98607619Y-49791385D02*
X98560000Y-49743766D01*
X98512381Y-49648528D01*
X98512381Y-49410432D01*
X98560000Y-49315194D01*
X98607619Y-49267575D01*
X98702857Y-49219956D01*
X98798095Y-49219956D01*
X98940952Y-49267575D01*
X99512381Y-49839004D01*
X99512381Y-49219956D01*
X98607619Y-48839004D02*
X98560000Y-48791385D01*
X98512381Y-48696147D01*
X98512381Y-48458051D01*
X98560000Y-48362813D01*
X98607619Y-48315194D01*
X98702857Y-48267575D01*
X98798095Y-48267575D01*
X98940952Y-48315194D01*
X99512381Y-48886623D01*
X99512381Y-48267575D01*
X118562381Y-49474286D02*
X117562381Y-49474286D01*
X117562381Y-49236191D01*
X117610000Y-49093333D01*
X117705238Y-48998095D01*
X117800476Y-48950476D01*
X117990952Y-48902857D01*
X118133810Y-48902857D01*
X118324286Y-48950476D01*
X118419524Y-48998095D01*
X118514762Y-49093333D01*
X118562381Y-49236191D01*
X118562381Y-49474286D01*
X117657619Y-48521905D02*
X117610000Y-48474286D01*
X117562381Y-48379048D01*
X117562381Y-48140952D01*
X117610000Y-48045714D01*
X117657619Y-47998095D01*
X117752857Y-47950476D01*
X117848095Y-47950476D01*
X117990952Y-47998095D01*
X118562381Y-48569524D01*
X118562381Y-47950476D01*
X117562381Y-47617143D02*
X117562381Y-46998095D01*
X117943333Y-47331429D01*
X117943333Y-47188571D01*
X117990952Y-47093333D01*
X118038571Y-47045714D01*
X118133810Y-46998095D01*
X118371905Y-46998095D01*
X118467143Y-47045714D01*
X118514762Y-47093333D01*
X118562381Y-47188571D01*
X118562381Y-47474286D01*
X118514762Y-47569524D01*
X118467143Y-47617143D01*
X137612381Y-49474286D02*
X136612381Y-49474286D01*
X136612381Y-49236191D01*
X136660000Y-49093333D01*
X136755238Y-48998095D01*
X136850476Y-48950476D01*
X137040952Y-48902857D01*
X137183810Y-48902857D01*
X137374286Y-48950476D01*
X137469524Y-48998095D01*
X137564762Y-49093333D01*
X137612381Y-49236191D01*
X137612381Y-49474286D01*
X136707619Y-48521905D02*
X136660000Y-48474286D01*
X136612381Y-48379048D01*
X136612381Y-48140952D01*
X136660000Y-48045714D01*
X136707619Y-47998095D01*
X136802857Y-47950476D01*
X136898095Y-47950476D01*
X137040952Y-47998095D01*
X137612381Y-48569524D01*
X137612381Y-47950476D01*
X136945714Y-47093333D02*
X137612381Y-47093333D01*
X136564762Y-47331429D02*
X137279048Y-47569524D01*
X137279048Y-46950476D01*
X156662381Y-49474286D02*
X155662381Y-49474286D01*
X155662381Y-49236191D01*
X155710000Y-49093333D01*
X155805238Y-48998095D01*
X155900476Y-48950476D01*
X156090952Y-48902857D01*
X156233810Y-48902857D01*
X156424286Y-48950476D01*
X156519524Y-48998095D01*
X156614762Y-49093333D01*
X156662381Y-49236191D01*
X156662381Y-49474286D01*
X155757619Y-48521905D02*
X155710000Y-48474286D01*
X155662381Y-48379048D01*
X155662381Y-48140952D01*
X155710000Y-48045714D01*
X155757619Y-47998095D01*
X155852857Y-47950476D01*
X155948095Y-47950476D01*
X156090952Y-47998095D01*
X156662381Y-48569524D01*
X156662381Y-47950476D01*
X155662381Y-47045714D02*
X155662381Y-47521905D01*
X156138571Y-47569524D01*
X156090952Y-47521905D01*
X156043333Y-47426667D01*
X156043333Y-47188571D01*
X156090952Y-47093333D01*
X156138571Y-47045714D01*
X156233810Y-46998095D01*
X156471905Y-46998095D01*
X156567143Y-47045714D01*
X156614762Y-47093333D01*
X156662381Y-47188571D01*
X156662381Y-47426667D01*
X156614762Y-47521905D01*
X156567143Y-47569524D01*
X175712381Y-49474286D02*
X174712381Y-49474286D01*
X174712381Y-49236191D01*
X174760000Y-49093333D01*
X174855238Y-48998095D01*
X174950476Y-48950476D01*
X175140952Y-48902857D01*
X175283810Y-48902857D01*
X175474286Y-48950476D01*
X175569524Y-48998095D01*
X175664762Y-49093333D01*
X175712381Y-49236191D01*
X175712381Y-49474286D01*
X174807619Y-48521905D02*
X174760000Y-48474286D01*
X174712381Y-48379048D01*
X174712381Y-48140952D01*
X174760000Y-48045714D01*
X174807619Y-47998095D01*
X174902857Y-47950476D01*
X174998095Y-47950476D01*
X175140952Y-47998095D01*
X175712381Y-48569524D01*
X175712381Y-47950476D01*
X174712381Y-47093333D02*
X174712381Y-47283810D01*
X174760000Y-47379048D01*
X174807619Y-47426667D01*
X174950476Y-47521905D01*
X175140952Y-47569524D01*
X175521905Y-47569524D01*
X175617143Y-47521905D01*
X175664762Y-47474286D01*
X175712381Y-47379048D01*
X175712381Y-47188571D01*
X175664762Y-47093333D01*
X175617143Y-47045714D01*
X175521905Y-46998095D01*
X175283810Y-46998095D01*
X175188571Y-47045714D01*
X175140952Y-47093333D01*
X175093333Y-47188571D01*
X175093333Y-47379048D01*
X175140952Y-47474286D01*
X175188571Y-47521905D01*
X175283810Y-47569524D01*
X194762381Y-49474286D02*
X193762381Y-49474286D01*
X193762381Y-49236191D01*
X193810000Y-49093333D01*
X193905238Y-48998095D01*
X194000476Y-48950476D01*
X194190952Y-48902857D01*
X194333810Y-48902857D01*
X194524286Y-48950476D01*
X194619524Y-48998095D01*
X194714762Y-49093333D01*
X194762381Y-49236191D01*
X194762381Y-49474286D01*
X193857619Y-48521905D02*
X193810000Y-48474286D01*
X193762381Y-48379048D01*
X193762381Y-48140952D01*
X193810000Y-48045714D01*
X193857619Y-47998095D01*
X193952857Y-47950476D01*
X194048095Y-47950476D01*
X194190952Y-47998095D01*
X194762381Y-48569524D01*
X194762381Y-47950476D01*
X193762381Y-47617143D02*
X193762381Y-46950476D01*
X194762381Y-47379048D01*
X213812381Y-49474286D02*
X212812381Y-49474286D01*
X212812381Y-49236191D01*
X212860000Y-49093333D01*
X212955238Y-48998095D01*
X213050476Y-48950476D01*
X213240952Y-48902857D01*
X213383810Y-48902857D01*
X213574286Y-48950476D01*
X213669524Y-48998095D01*
X213764762Y-49093333D01*
X213812381Y-49236191D01*
X213812381Y-49474286D01*
X212907619Y-48521905D02*
X212860000Y-48474286D01*
X212812381Y-48379048D01*
X212812381Y-48140952D01*
X212860000Y-48045714D01*
X212907619Y-47998095D01*
X213002857Y-47950476D01*
X213098095Y-47950476D01*
X213240952Y-47998095D01*
X213812381Y-48569524D01*
X213812381Y-47950476D01*
X213240952Y-47379048D02*
X213193333Y-47474286D01*
X213145714Y-47521905D01*
X213050476Y-47569524D01*
X213002857Y-47569524D01*
X212907619Y-47521905D01*
X212860000Y-47474286D01*
X212812381Y-47379048D01*
X212812381Y-47188571D01*
X212860000Y-47093333D01*
X212907619Y-47045714D01*
X213002857Y-46998095D01*
X213050476Y-46998095D01*
X213145714Y-47045714D01*
X213193333Y-47093333D01*
X213240952Y-47188571D01*
X213240952Y-47379048D01*
X213288571Y-47474286D01*
X213336190Y-47521905D01*
X213431429Y-47569524D01*
X213621905Y-47569524D01*
X213717143Y-47521905D01*
X213764762Y-47474286D01*
X213812381Y-47379048D01*
X213812381Y-47188571D01*
X213764762Y-47093333D01*
X213717143Y-47045714D01*
X213621905Y-46998095D01*
X213431429Y-46998095D01*
X213336190Y-47045714D01*
X213288571Y-47093333D01*
X213240952Y-47188571D01*
X232862381Y-49474286D02*
X231862381Y-49474286D01*
X231862381Y-49236191D01*
X231910000Y-49093333D01*
X232005238Y-48998095D01*
X232100476Y-48950476D01*
X232290952Y-48902857D01*
X232433810Y-48902857D01*
X232624286Y-48950476D01*
X232719524Y-48998095D01*
X232814762Y-49093333D01*
X232862381Y-49236191D01*
X232862381Y-49474286D01*
X231957619Y-48521905D02*
X231910000Y-48474286D01*
X231862381Y-48379048D01*
X231862381Y-48140952D01*
X231910000Y-48045714D01*
X231957619Y-47998095D01*
X232052857Y-47950476D01*
X232148095Y-47950476D01*
X232290952Y-47998095D01*
X232862381Y-48569524D01*
X232862381Y-47950476D01*
X232862381Y-47474286D02*
X232862381Y-47283810D01*
X232814762Y-47188571D01*
X232767143Y-47140952D01*
X232624286Y-47045714D01*
X232433810Y-46998095D01*
X232052857Y-46998095D01*
X231957619Y-47045714D01*
X231910000Y-47093333D01*
X231862381Y-47188571D01*
X231862381Y-47379048D01*
X231910000Y-47474286D01*
X231957619Y-47521905D01*
X232052857Y-47569524D01*
X232290952Y-47569524D01*
X232386190Y-47521905D01*
X232433810Y-47474286D01*
X232481429Y-47379048D01*
X232481429Y-47188571D01*
X232433810Y-47093333D01*
X232386190Y-47045714D01*
X232290952Y-46998095D01*
X251912381Y-49474286D02*
X250912381Y-49474286D01*
X250912381Y-49236191D01*
X250960000Y-49093333D01*
X251055238Y-48998095D01*
X251150476Y-48950476D01*
X251340952Y-48902857D01*
X251483810Y-48902857D01*
X251674286Y-48950476D01*
X251769524Y-48998095D01*
X251864762Y-49093333D01*
X251912381Y-49236191D01*
X251912381Y-49474286D01*
X250912381Y-48569524D02*
X250912381Y-47950476D01*
X251293333Y-48283810D01*
X251293333Y-48140952D01*
X251340952Y-48045714D01*
X251388571Y-47998095D01*
X251483810Y-47950476D01*
X251721905Y-47950476D01*
X251817143Y-47998095D01*
X251864762Y-48045714D01*
X251912381Y-48140952D01*
X251912381Y-48426667D01*
X251864762Y-48521905D01*
X251817143Y-48569524D01*
X250912381Y-47331429D02*
X250912381Y-47236190D01*
X250960000Y-47140952D01*
X251007619Y-47093333D01*
X251102857Y-47045714D01*
X251293333Y-46998095D01*
X251531429Y-46998095D01*
X251721905Y-47045714D01*
X251817143Y-47093333D01*
X251864762Y-47140952D01*
X251912381Y-47236190D01*
X251912381Y-47331429D01*
X251864762Y-47426667D01*
X251817143Y-47474286D01*
X251721905Y-47521905D01*
X251531429Y-47569524D01*
X251293333Y-47569524D01*
X251102857Y-47521905D01*
X251007619Y-47474286D01*
X250960000Y-47426667D01*
X250912381Y-47331429D01*
X270962381Y-49474286D02*
X269962381Y-49474286D01*
X269962381Y-49236191D01*
X270010000Y-49093333D01*
X270105238Y-48998095D01*
X270200476Y-48950476D01*
X270390952Y-48902857D01*
X270533810Y-48902857D01*
X270724286Y-48950476D01*
X270819524Y-48998095D01*
X270914762Y-49093333D01*
X270962381Y-49236191D01*
X270962381Y-49474286D01*
X269962381Y-48569524D02*
X269962381Y-47950476D01*
X270343333Y-48283810D01*
X270343333Y-48140952D01*
X270390952Y-48045714D01*
X270438571Y-47998095D01*
X270533810Y-47950476D01*
X270771905Y-47950476D01*
X270867143Y-47998095D01*
X270914762Y-48045714D01*
X270962381Y-48140952D01*
X270962381Y-48426667D01*
X270914762Y-48521905D01*
X270867143Y-48569524D01*
X270962381Y-46998095D02*
X270962381Y-47569524D01*
X270962381Y-47283810D02*
X269962381Y-47283810D01*
X270105238Y-47379048D01*
X270200476Y-47474286D01*
X270248095Y-47569524D01*
X290012381Y-49474286D02*
X289012381Y-49474286D01*
X289012381Y-49236191D01*
X289060000Y-49093333D01*
X289155238Y-48998095D01*
X289250476Y-48950476D01*
X289440952Y-48902857D01*
X289583810Y-48902857D01*
X289774286Y-48950476D01*
X289869524Y-48998095D01*
X289964762Y-49093333D01*
X290012381Y-49236191D01*
X290012381Y-49474286D01*
X289012381Y-48569524D02*
X289012381Y-47950476D01*
X289393333Y-48283810D01*
X289393333Y-48140952D01*
X289440952Y-48045714D01*
X289488571Y-47998095D01*
X289583810Y-47950476D01*
X289821905Y-47950476D01*
X289917143Y-47998095D01*
X289964762Y-48045714D01*
X290012381Y-48140952D01*
X290012381Y-48426667D01*
X289964762Y-48521905D01*
X289917143Y-48569524D01*
X289107619Y-47569524D02*
X289060000Y-47521905D01*
X289012381Y-47426667D01*
X289012381Y-47188571D01*
X289060000Y-47093333D01*
X289107619Y-47045714D01*
X289202857Y-46998095D01*
X289298095Y-46998095D01*
X289440952Y-47045714D01*
X290012381Y-47617143D01*
X290012381Y-46998095D01*
X309062381Y-49474286D02*
X308062381Y-49474286D01*
X308062381Y-49236191D01*
X308110000Y-49093333D01*
X308205238Y-48998095D01*
X308300476Y-48950476D01*
X308490952Y-48902857D01*
X308633810Y-48902857D01*
X308824286Y-48950476D01*
X308919524Y-48998095D01*
X309014762Y-49093333D01*
X309062381Y-49236191D01*
X309062381Y-49474286D01*
X308062381Y-48569524D02*
X308062381Y-47950476D01*
X308443333Y-48283810D01*
X308443333Y-48140952D01*
X308490952Y-48045714D01*
X308538571Y-47998095D01*
X308633810Y-47950476D01*
X308871905Y-47950476D01*
X308967143Y-47998095D01*
X309014762Y-48045714D01*
X309062381Y-48140952D01*
X309062381Y-48426667D01*
X309014762Y-48521905D01*
X308967143Y-48569524D01*
X308062381Y-47617143D02*
X308062381Y-46998095D01*
X308443333Y-47331429D01*
X308443333Y-47188571D01*
X308490952Y-47093333D01*
X308538571Y-47045714D01*
X308633810Y-46998095D01*
X308871905Y-46998095D01*
X308967143Y-47045714D01*
X309014762Y-47093333D01*
X309062381Y-47188571D01*
X309062381Y-47474286D01*
X309014762Y-47569524D01*
X308967143Y-47617143D01*
X332938381Y-49474286D02*
X331938381Y-49474286D01*
X331938381Y-49236191D01*
X331986000Y-49093333D01*
X332081238Y-48998095D01*
X332176476Y-48950476D01*
X332366952Y-48902857D01*
X332509810Y-48902857D01*
X332700286Y-48950476D01*
X332795524Y-48998095D01*
X332890762Y-49093333D01*
X332938381Y-49236191D01*
X332938381Y-49474286D01*
X331938381Y-48569524D02*
X331938381Y-47950476D01*
X332319333Y-48283810D01*
X332319333Y-48140952D01*
X332366952Y-48045714D01*
X332414571Y-47998095D01*
X332509810Y-47950476D01*
X332747905Y-47950476D01*
X332843143Y-47998095D01*
X332890762Y-48045714D01*
X332938381Y-48140952D01*
X332938381Y-48426667D01*
X332890762Y-48521905D01*
X332843143Y-48569524D01*
X332271714Y-47093333D02*
X332938381Y-47093333D01*
X331890762Y-47331429D02*
X332605048Y-47569524D01*
X332605048Y-46950476D01*
X365271714Y-56078381D02*
X365271714Y-55078381D01*
X365509809Y-55078381D01*
X365652667Y-55126000D01*
X365747905Y-55221238D01*
X365795524Y-55316476D01*
X365843143Y-55506952D01*
X365843143Y-55649810D01*
X365795524Y-55840286D01*
X365747905Y-55935524D01*
X365652667Y-56030762D01*
X365509809Y-56078381D01*
X365271714Y-56078381D01*
X366176476Y-55078381D02*
X366795524Y-55078381D01*
X366462190Y-55459333D01*
X366605048Y-55459333D01*
X366700286Y-55506952D01*
X366747905Y-55554571D01*
X366795524Y-55649810D01*
X366795524Y-55887905D01*
X366747905Y-55983143D01*
X366700286Y-56030762D01*
X366605048Y-56078381D01*
X366319333Y-56078381D01*
X366224095Y-56030762D01*
X366176476Y-55983143D01*
X367700286Y-55078381D02*
X367224095Y-55078381D01*
X367176476Y-55554571D01*
X367224095Y-55506952D01*
X367319333Y-55459333D01*
X367557429Y-55459333D01*
X367652667Y-55506952D01*
X367700286Y-55554571D01*
X367747905Y-55649810D01*
X367747905Y-55887905D01*
X367700286Y-55983143D01*
X367652667Y-56030762D01*
X367557429Y-56078381D01*
X367319333Y-56078381D01*
X367224095Y-56030762D01*
X367176476Y-55983143D01*
X381960381Y-56078286D02*
X380960381Y-56078286D01*
X380960381Y-55840191D01*
X381008000Y-55697333D01*
X381103238Y-55602095D01*
X381198476Y-55554476D01*
X381388952Y-55506857D01*
X381531810Y-55506857D01*
X381722286Y-55554476D01*
X381817524Y-55602095D01*
X381912762Y-55697333D01*
X381960381Y-55840191D01*
X381960381Y-56078286D01*
X380960381Y-55173524D02*
X380960381Y-54554476D01*
X381341333Y-54887810D01*
X381341333Y-54744952D01*
X381388952Y-54649714D01*
X381436571Y-54602095D01*
X381531810Y-54554476D01*
X381769905Y-54554476D01*
X381865143Y-54602095D01*
X381912762Y-54649714D01*
X381960381Y-54744952D01*
X381960381Y-55030667D01*
X381912762Y-55125905D01*
X381865143Y-55173524D01*
X380960381Y-53697333D02*
X380960381Y-53887810D01*
X381008000Y-53983048D01*
X381055619Y-54030667D01*
X381198476Y-54125905D01*
X381388952Y-54173524D01*
X381769905Y-54173524D01*
X381865143Y-54125905D01*
X381912762Y-54078286D01*
X381960381Y-53983048D01*
X381960381Y-53792571D01*
X381912762Y-53697333D01*
X381865143Y-53649714D01*
X381769905Y-53602095D01*
X381531810Y-53602095D01*
X381436571Y-53649714D01*
X381388952Y-53697333D01*
X381341333Y-53792571D01*
X381341333Y-53983048D01*
X381388952Y-54078286D01*
X381436571Y-54125905D01*
X381531810Y-54173524D01*
X32059714Y-75382381D02*
X32059714Y-74382381D01*
X32297809Y-74382381D01*
X32440667Y-74430000D01*
X32535905Y-74525238D01*
X32583524Y-74620476D01*
X32631143Y-74810952D01*
X32631143Y-74953810D01*
X32583524Y-75144286D01*
X32535905Y-75239524D01*
X32440667Y-75334762D01*
X32297809Y-75382381D01*
X32059714Y-75382381D01*
X32964476Y-74382381D02*
X33583524Y-74382381D01*
X33250190Y-74763333D01*
X33393048Y-74763333D01*
X33488286Y-74810952D01*
X33535905Y-74858571D01*
X33583524Y-74953810D01*
X33583524Y-75191905D01*
X33535905Y-75287143D01*
X33488286Y-75334762D01*
X33393048Y-75382381D01*
X33107333Y-75382381D01*
X33012095Y-75334762D01*
X32964476Y-75287143D01*
X33916857Y-74382381D02*
X34583524Y-74382381D01*
X34154952Y-75382381D01*
X47188381Y-68524286D02*
X46188381Y-68524286D01*
X46188381Y-68286191D01*
X46236000Y-68143333D01*
X46331238Y-68048095D01*
X46426476Y-68000476D01*
X46616952Y-67952857D01*
X46759810Y-67952857D01*
X46950286Y-68000476D01*
X47045524Y-68048095D01*
X47140762Y-68143333D01*
X47188381Y-68286191D01*
X47188381Y-68524286D01*
X46188381Y-67619524D02*
X46188381Y-67000476D01*
X46569333Y-67333810D01*
X46569333Y-67190952D01*
X46616952Y-67095714D01*
X46664571Y-67048095D01*
X46759810Y-67000476D01*
X46997905Y-67000476D01*
X47093143Y-67048095D01*
X47140762Y-67095714D01*
X47188381Y-67190952D01*
X47188381Y-67476667D01*
X47140762Y-67571905D01*
X47093143Y-67619524D01*
X46616952Y-66429048D02*
X46569333Y-66524286D01*
X46521714Y-66571905D01*
X46426476Y-66619524D01*
X46378857Y-66619524D01*
X46283619Y-66571905D01*
X46236000Y-66524286D01*
X46188381Y-66429048D01*
X46188381Y-66238571D01*
X46236000Y-66143333D01*
X46283619Y-66095714D01*
X46378857Y-66048095D01*
X46426476Y-66048095D01*
X46521714Y-66095714D01*
X46569333Y-66143333D01*
X46616952Y-66238571D01*
X46616952Y-66429048D01*
X46664571Y-66524286D01*
X46712190Y-66571905D01*
X46807429Y-66619524D01*
X46997905Y-66619524D01*
X47093143Y-66571905D01*
X47140762Y-66524286D01*
X47188381Y-66429048D01*
X47188381Y-66238571D01*
X47140762Y-66143333D01*
X47093143Y-66095714D01*
X46997905Y-66048095D01*
X46807429Y-66048095D01*
X46712190Y-66095714D01*
X46664571Y-66143333D01*
X46616952Y-66238571D01*
X86669714Y-75128381D02*
X86669714Y-74128381D01*
X86907809Y-74128381D01*
X87050667Y-74176000D01*
X87145905Y-74271238D01*
X87193524Y-74366476D01*
X87241143Y-74556952D01*
X87241143Y-74699810D01*
X87193524Y-74890286D01*
X87145905Y-74985524D01*
X87050667Y-75080762D01*
X86907809Y-75128381D01*
X86669714Y-75128381D01*
X87574476Y-74128381D02*
X88193524Y-74128381D01*
X87860190Y-74509333D01*
X88003048Y-74509333D01*
X88098286Y-74556952D01*
X88145905Y-74604571D01*
X88193524Y-74699810D01*
X88193524Y-74937905D01*
X88145905Y-75033143D01*
X88098286Y-75080762D01*
X88003048Y-75128381D01*
X87717333Y-75128381D01*
X87622095Y-75080762D01*
X87574476Y-75033143D01*
X88669714Y-75128381D02*
X88860190Y-75128381D01*
X88955429Y-75080762D01*
X89003048Y-75033143D01*
X89098286Y-74890286D01*
X89145905Y-74699810D01*
X89145905Y-74318857D01*
X89098286Y-74223619D01*
X89050667Y-74176000D01*
X88955429Y-74128381D01*
X88764952Y-74128381D01*
X88669714Y-74176000D01*
X88622095Y-74223619D01*
X88574476Y-74318857D01*
X88574476Y-74556952D01*
X88622095Y-74652190D01*
X88669714Y-74699810D01*
X88764952Y-74747429D01*
X88955429Y-74747429D01*
X89050667Y-74699810D01*
X89098286Y-74652190D01*
X89145905Y-74556952D01*
X104084381Y-68524286D02*
X103084381Y-68524286D01*
X103084381Y-68286191D01*
X103132000Y-68143333D01*
X103227238Y-68048095D01*
X103322476Y-68000476D01*
X103512952Y-67952857D01*
X103655810Y-67952857D01*
X103846286Y-68000476D01*
X103941524Y-68048095D01*
X104036762Y-68143333D01*
X104084381Y-68286191D01*
X104084381Y-68524286D01*
X103417714Y-67095714D02*
X104084381Y-67095714D01*
X103036762Y-67333810D02*
X103751048Y-67571905D01*
X103751048Y-66952857D01*
X103084381Y-66381429D02*
X103084381Y-66286190D01*
X103132000Y-66190952D01*
X103179619Y-66143333D01*
X103274857Y-66095714D01*
X103465333Y-66048095D01*
X103703429Y-66048095D01*
X103893905Y-66095714D01*
X103989143Y-66143333D01*
X104036762Y-66190952D01*
X104084381Y-66286190D01*
X104084381Y-66381429D01*
X104036762Y-66476667D01*
X103989143Y-66524286D01*
X103893905Y-66571905D01*
X103703429Y-66619524D01*
X103465333Y-66619524D01*
X103274857Y-66571905D01*
X103179619Y-66524286D01*
X103132000Y-66476667D01*
X103084381Y-66381429D01*
X123388381Y-68270286D02*
X122388381Y-68270286D01*
X122388381Y-68032191D01*
X122436000Y-67889333D01*
X122531238Y-67794095D01*
X122626476Y-67746476D01*
X122816952Y-67698857D01*
X122959810Y-67698857D01*
X123150286Y-67746476D01*
X123245524Y-67794095D01*
X123340762Y-67889333D01*
X123388381Y-68032191D01*
X123388381Y-68270286D01*
X122721714Y-66841714D02*
X123388381Y-66841714D01*
X122340762Y-67079810D02*
X123055048Y-67317905D01*
X123055048Y-66698857D01*
X123388381Y-65794095D02*
X123388381Y-66365524D01*
X123388381Y-66079810D02*
X122388381Y-66079810D01*
X122531238Y-66175048D01*
X122626476Y-66270286D01*
X122674095Y-66365524D01*
X142438381Y-68270286D02*
X141438381Y-68270286D01*
X141438381Y-68032191D01*
X141486000Y-67889333D01*
X141581238Y-67794095D01*
X141676476Y-67746476D01*
X141866952Y-67698857D01*
X142009810Y-67698857D01*
X142200286Y-67746476D01*
X142295524Y-67794095D01*
X142390762Y-67889333D01*
X142438381Y-68032191D01*
X142438381Y-68270286D01*
X141771714Y-66841714D02*
X142438381Y-66841714D01*
X141390762Y-67079810D02*
X142105048Y-67317905D01*
X142105048Y-66698857D01*
X141533619Y-66365524D02*
X141486000Y-66317905D01*
X141438381Y-66222667D01*
X141438381Y-65984571D01*
X141486000Y-65889333D01*
X141533619Y-65841714D01*
X141628857Y-65794095D01*
X141724095Y-65794095D01*
X141866952Y-65841714D01*
X142438381Y-66413143D01*
X142438381Y-65794095D01*
X161488381Y-68270286D02*
X160488381Y-68270286D01*
X160488381Y-68032191D01*
X160536000Y-67889333D01*
X160631238Y-67794095D01*
X160726476Y-67746476D01*
X160916952Y-67698857D01*
X161059810Y-67698857D01*
X161250286Y-67746476D01*
X161345524Y-67794095D01*
X161440762Y-67889333D01*
X161488381Y-68032191D01*
X161488381Y-68270286D01*
X160821714Y-66841714D02*
X161488381Y-66841714D01*
X160440762Y-67079810D02*
X161155048Y-67317905D01*
X161155048Y-66698857D01*
X160488381Y-66413143D02*
X160488381Y-65794095D01*
X160869333Y-66127429D01*
X160869333Y-65984571D01*
X160916952Y-65889333D01*
X160964571Y-65841714D01*
X161059810Y-65794095D01*
X161297905Y-65794095D01*
X161393143Y-65841714D01*
X161440762Y-65889333D01*
X161488381Y-65984571D01*
X161488381Y-66270286D01*
X161440762Y-66365524D01*
X161393143Y-66413143D01*
X180538381Y-68270286D02*
X179538381Y-68270286D01*
X179538381Y-68032191D01*
X179586000Y-67889333D01*
X179681238Y-67794095D01*
X179776476Y-67746476D01*
X179966952Y-67698857D01*
X180109810Y-67698857D01*
X180300286Y-67746476D01*
X180395524Y-67794095D01*
X180490762Y-67889333D01*
X180538381Y-68032191D01*
X180538381Y-68270286D01*
X179871714Y-66841714D02*
X180538381Y-66841714D01*
X179490762Y-67079810D02*
X180205048Y-67317905D01*
X180205048Y-66698857D01*
X179871714Y-65889333D02*
X180538381Y-65889333D01*
X179490762Y-66127429D02*
X180205048Y-66365524D01*
X180205048Y-65746476D01*
X212654234Y-73601841D02*
X212654234Y-72601841D01*
X212892329Y-72601841D01*
X213035187Y-72649460D01*
X213130425Y-72744698D01*
X213178044Y-72839936D01*
X213225663Y-73030412D01*
X213225663Y-73173270D01*
X213178044Y-73363746D01*
X213130425Y-73458984D01*
X213035187Y-73554222D01*
X212892329Y-73601841D01*
X212654234Y-73601841D01*
X214082806Y-72935174D02*
X214082806Y-73601841D01*
X213844710Y-72554222D02*
X213606615Y-73268508D01*
X214225663Y-73268508D01*
X215082806Y-72601841D02*
X214606615Y-72601841D01*
X214558996Y-73078031D01*
X214606615Y-73030412D01*
X214701853Y-72982793D01*
X214939949Y-72982793D01*
X215035187Y-73030412D01*
X215082806Y-73078031D01*
X215130425Y-73173270D01*
X215130425Y-73411365D01*
X215082806Y-73506603D01*
X215035187Y-73554222D01*
X214939949Y-73601841D01*
X214701853Y-73601841D01*
X214606615Y-73554222D01*
X214558996Y-73506603D01*
X237688381Y-68016286D02*
X236688381Y-68016286D01*
X236688381Y-67778191D01*
X236736000Y-67635333D01*
X236831238Y-67540095D01*
X236926476Y-67492476D01*
X237116952Y-67444857D01*
X237259810Y-67444857D01*
X237450286Y-67492476D01*
X237545524Y-67540095D01*
X237640762Y-67635333D01*
X237688381Y-67778191D01*
X237688381Y-68016286D01*
X237021714Y-66587714D02*
X237688381Y-66587714D01*
X236640762Y-66825810D02*
X237355048Y-67063905D01*
X237355048Y-66444857D01*
X236688381Y-66159143D02*
X236688381Y-65492476D01*
X237688381Y-65921048D01*
X256738381Y-68016286D02*
X255738381Y-68016286D01*
X255738381Y-67778191D01*
X255786000Y-67635333D01*
X255881238Y-67540095D01*
X255976476Y-67492476D01*
X256166952Y-67444857D01*
X256309810Y-67444857D01*
X256500286Y-67492476D01*
X256595524Y-67540095D01*
X256690762Y-67635333D01*
X256738381Y-67778191D01*
X256738381Y-68016286D01*
X256071714Y-66587714D02*
X256738381Y-66587714D01*
X255690762Y-66825810D02*
X256405048Y-67063905D01*
X256405048Y-66444857D01*
X256166952Y-65921048D02*
X256119333Y-66016286D01*
X256071714Y-66063905D01*
X255976476Y-66111524D01*
X255928857Y-66111524D01*
X255833619Y-66063905D01*
X255786000Y-66016286D01*
X255738381Y-65921048D01*
X255738381Y-65730571D01*
X255786000Y-65635333D01*
X255833619Y-65587714D01*
X255928857Y-65540095D01*
X255976476Y-65540095D01*
X256071714Y-65587714D01*
X256119333Y-65635333D01*
X256166952Y-65730571D01*
X256166952Y-65921048D01*
X256214571Y-66016286D01*
X256262190Y-66063905D01*
X256357429Y-66111524D01*
X256547905Y-66111524D01*
X256643143Y-66063905D01*
X256690762Y-66016286D01*
X256738381Y-65921048D01*
X256738381Y-65730571D01*
X256690762Y-65635333D01*
X256643143Y-65587714D01*
X256547905Y-65540095D01*
X256357429Y-65540095D01*
X256262190Y-65587714D01*
X256214571Y-65635333D01*
X256166952Y-65730571D01*
X275788381Y-68016286D02*
X274788381Y-68016286D01*
X274788381Y-67778191D01*
X274836000Y-67635333D01*
X274931238Y-67540095D01*
X275026476Y-67492476D01*
X275216952Y-67444857D01*
X275359810Y-67444857D01*
X275550286Y-67492476D01*
X275645524Y-67540095D01*
X275740762Y-67635333D01*
X275788381Y-67778191D01*
X275788381Y-68016286D01*
X275121714Y-66587714D02*
X275788381Y-66587714D01*
X274740762Y-66825810D02*
X275455048Y-67063905D01*
X275455048Y-66444857D01*
X275788381Y-66016286D02*
X275788381Y-65825810D01*
X275740762Y-65730571D01*
X275693143Y-65682952D01*
X275550286Y-65587714D01*
X275359810Y-65540095D01*
X274978857Y-65540095D01*
X274883619Y-65587714D01*
X274836000Y-65635333D01*
X274788381Y-65730571D01*
X274788381Y-65921048D01*
X274836000Y-66016286D01*
X274883619Y-66063905D01*
X274978857Y-66111524D01*
X275216952Y-66111524D01*
X275312190Y-66063905D01*
X275359810Y-66016286D01*
X275407429Y-65921048D01*
X275407429Y-65730571D01*
X275359810Y-65635333D01*
X275312190Y-65587714D01*
X275216952Y-65540095D01*
X293824921Y-67350806D02*
X292824921Y-67350806D01*
X292824921Y-67112711D01*
X292872540Y-66969853D01*
X292967778Y-66874615D01*
X293063016Y-66826996D01*
X293253492Y-66779377D01*
X293396350Y-66779377D01*
X293586826Y-66826996D01*
X293682064Y-66874615D01*
X293777302Y-66969853D01*
X293824921Y-67112711D01*
X293824921Y-67350806D01*
X292824921Y-65874615D02*
X292824921Y-66350806D01*
X293301111Y-66398425D01*
X293253492Y-66350806D01*
X293205873Y-66255568D01*
X293205873Y-66017472D01*
X293253492Y-65922234D01*
X293301111Y-65874615D01*
X293396350Y-65826996D01*
X293634445Y-65826996D01*
X293729683Y-65874615D01*
X293777302Y-65922234D01*
X293824921Y-66017472D01*
X293824921Y-66255568D01*
X293777302Y-66350806D01*
X293729683Y-66398425D01*
X292824921Y-65207949D02*
X292824921Y-65112710D01*
X292872540Y-65017472D01*
X292920159Y-64969853D01*
X293015397Y-64922234D01*
X293205873Y-64874615D01*
X293443969Y-64874615D01*
X293634445Y-64922234D01*
X293729683Y-64969853D01*
X293777302Y-65017472D01*
X293824921Y-65112710D01*
X293824921Y-65207949D01*
X293777302Y-65303187D01*
X293729683Y-65350806D01*
X293634445Y-65398425D01*
X293443969Y-65446044D01*
X293205873Y-65446044D01*
X293015397Y-65398425D01*
X292920159Y-65350806D01*
X292872540Y-65303187D01*
X292824921Y-65207949D01*
X328985714Y-75382381D02*
X328985714Y-74382381D01*
X329223809Y-74382381D01*
X329366667Y-74430000D01*
X329461905Y-74525238D01*
X329509524Y-74620476D01*
X329557143Y-74810952D01*
X329557143Y-74953810D01*
X329509524Y-75144286D01*
X329461905Y-75239524D01*
X329366667Y-75334762D01*
X329223809Y-75382381D01*
X328985714Y-75382381D01*
X330461905Y-74382381D02*
X329985714Y-74382381D01*
X329938095Y-74858571D01*
X329985714Y-74810952D01*
X330080952Y-74763333D01*
X330319048Y-74763333D01*
X330414286Y-74810952D01*
X330461905Y-74858571D01*
X330509524Y-74953810D01*
X330509524Y-75191905D01*
X330461905Y-75287143D01*
X330414286Y-75334762D01*
X330319048Y-75382381D01*
X330080952Y-75382381D01*
X329985714Y-75334762D01*
X329938095Y-75287143D01*
X331461905Y-75382381D02*
X330890476Y-75382381D01*
X331176190Y-75382381D02*
X331176190Y-74382381D01*
X331080952Y-74525238D01*
X330985714Y-74620476D01*
X330890476Y-74668095D01*
X32059714Y-77922381D02*
X32059714Y-76922381D01*
X32297809Y-76922381D01*
X32440667Y-76970000D01*
X32535905Y-77065238D01*
X32583524Y-77160476D01*
X32631143Y-77350952D01*
X32631143Y-77493810D01*
X32583524Y-77684286D01*
X32535905Y-77779524D01*
X32440667Y-77874762D01*
X32297809Y-77922381D01*
X32059714Y-77922381D01*
X33535905Y-76922381D02*
X33059714Y-76922381D01*
X33012095Y-77398571D01*
X33059714Y-77350952D01*
X33154952Y-77303333D01*
X33393048Y-77303333D01*
X33488286Y-77350952D01*
X33535905Y-77398571D01*
X33583524Y-77493810D01*
X33583524Y-77731905D01*
X33535905Y-77827143D01*
X33488286Y-77874762D01*
X33393048Y-77922381D01*
X33154952Y-77922381D01*
X33059714Y-77874762D01*
X33012095Y-77827143D01*
X33964476Y-77017619D02*
X34012095Y-76970000D01*
X34107333Y-76922381D01*
X34345429Y-76922381D01*
X34440667Y-76970000D01*
X34488286Y-77017619D01*
X34535905Y-77112857D01*
X34535905Y-77208095D01*
X34488286Y-77350952D01*
X33916857Y-77922381D01*
X34535905Y-77922381D01*
X47188381Y-87574286D02*
X46188381Y-87574286D01*
X46188381Y-87336191D01*
X46236000Y-87193333D01*
X46331238Y-87098095D01*
X46426476Y-87050476D01*
X46616952Y-87002857D01*
X46759810Y-87002857D01*
X46950286Y-87050476D01*
X47045524Y-87098095D01*
X47140762Y-87193333D01*
X47188381Y-87336191D01*
X47188381Y-87574286D01*
X46188381Y-86098095D02*
X46188381Y-86574286D01*
X46664571Y-86621905D01*
X46616952Y-86574286D01*
X46569333Y-86479048D01*
X46569333Y-86240952D01*
X46616952Y-86145714D01*
X46664571Y-86098095D01*
X46759810Y-86050476D01*
X46997905Y-86050476D01*
X47093143Y-86098095D01*
X47140762Y-86145714D01*
X47188381Y-86240952D01*
X47188381Y-86479048D01*
X47140762Y-86574286D01*
X47093143Y-86621905D01*
X46188381Y-85717143D02*
X46188381Y-85098095D01*
X46569333Y-85431429D01*
X46569333Y-85288571D01*
X46616952Y-85193333D01*
X46664571Y-85145714D01*
X46759810Y-85098095D01*
X46997905Y-85098095D01*
X47093143Y-85145714D01*
X47140762Y-85193333D01*
X47188381Y-85288571D01*
X47188381Y-85574286D01*
X47140762Y-85669524D01*
X47093143Y-85717143D01*
X86669714Y-77668381D02*
X86669714Y-76668381D01*
X86907809Y-76668381D01*
X87050667Y-76716000D01*
X87145905Y-76811238D01*
X87193524Y-76906476D01*
X87241143Y-77096952D01*
X87241143Y-77239810D01*
X87193524Y-77430286D01*
X87145905Y-77525524D01*
X87050667Y-77620762D01*
X86907809Y-77668381D01*
X86669714Y-77668381D01*
X88145905Y-76668381D02*
X87669714Y-76668381D01*
X87622095Y-77144571D01*
X87669714Y-77096952D01*
X87764952Y-77049333D01*
X88003048Y-77049333D01*
X88098286Y-77096952D01*
X88145905Y-77144571D01*
X88193524Y-77239810D01*
X88193524Y-77477905D01*
X88145905Y-77573143D01*
X88098286Y-77620762D01*
X88003048Y-77668381D01*
X87764952Y-77668381D01*
X87669714Y-77620762D01*
X87622095Y-77573143D01*
X89050667Y-77001714D02*
X89050667Y-77668381D01*
X88812571Y-76620762D02*
X88574476Y-77335048D01*
X89193524Y-77335048D01*
X113736381Y-87574286D02*
X112736381Y-87574286D01*
X112736381Y-87336191D01*
X112784000Y-87193333D01*
X112879238Y-87098095D01*
X112974476Y-87050476D01*
X113164952Y-87002857D01*
X113307810Y-87002857D01*
X113498286Y-87050476D01*
X113593524Y-87098095D01*
X113688762Y-87193333D01*
X113736381Y-87336191D01*
X113736381Y-87574286D01*
X112736381Y-86098095D02*
X112736381Y-86574286D01*
X113212571Y-86621905D01*
X113164952Y-86574286D01*
X113117333Y-86479048D01*
X113117333Y-86240952D01*
X113164952Y-86145714D01*
X113212571Y-86098095D01*
X113307810Y-86050476D01*
X113545905Y-86050476D01*
X113641143Y-86098095D01*
X113688762Y-86145714D01*
X113736381Y-86240952D01*
X113736381Y-86479048D01*
X113688762Y-86574286D01*
X113641143Y-86621905D01*
X112736381Y-85145714D02*
X112736381Y-85621905D01*
X113212571Y-85669524D01*
X113164952Y-85621905D01*
X113117333Y-85526667D01*
X113117333Y-85288571D01*
X113164952Y-85193333D01*
X113212571Y-85145714D01*
X113307810Y-85098095D01*
X113545905Y-85098095D01*
X113641143Y-85145714D01*
X113688762Y-85193333D01*
X113736381Y-85288571D01*
X113736381Y-85526667D01*
X113688762Y-85621905D01*
X113641143Y-85669524D01*
X132786381Y-87574286D02*
X131786381Y-87574286D01*
X131786381Y-87336191D01*
X131834000Y-87193333D01*
X131929238Y-87098095D01*
X132024476Y-87050476D01*
X132214952Y-87002857D01*
X132357810Y-87002857D01*
X132548286Y-87050476D01*
X132643524Y-87098095D01*
X132738762Y-87193333D01*
X132786381Y-87336191D01*
X132786381Y-87574286D01*
X131786381Y-86098095D02*
X131786381Y-86574286D01*
X132262571Y-86621905D01*
X132214952Y-86574286D01*
X132167333Y-86479048D01*
X132167333Y-86240952D01*
X132214952Y-86145714D01*
X132262571Y-86098095D01*
X132357810Y-86050476D01*
X132595905Y-86050476D01*
X132691143Y-86098095D01*
X132738762Y-86145714D01*
X132786381Y-86240952D01*
X132786381Y-86479048D01*
X132738762Y-86574286D01*
X132691143Y-86621905D01*
X131786381Y-85193333D02*
X131786381Y-85383810D01*
X131834000Y-85479048D01*
X131881619Y-85526667D01*
X132024476Y-85621905D01*
X132214952Y-85669524D01*
X132595905Y-85669524D01*
X132691143Y-85621905D01*
X132738762Y-85574286D01*
X132786381Y-85479048D01*
X132786381Y-85288571D01*
X132738762Y-85193333D01*
X132691143Y-85145714D01*
X132595905Y-85098095D01*
X132357810Y-85098095D01*
X132262571Y-85145714D01*
X132214952Y-85193333D01*
X132167333Y-85288571D01*
X132167333Y-85479048D01*
X132214952Y-85574286D01*
X132262571Y-85621905D01*
X132357810Y-85669524D01*
X151836381Y-87574286D02*
X150836381Y-87574286D01*
X150836381Y-87336191D01*
X150884000Y-87193333D01*
X150979238Y-87098095D01*
X151074476Y-87050476D01*
X151264952Y-87002857D01*
X151407810Y-87002857D01*
X151598286Y-87050476D01*
X151693524Y-87098095D01*
X151788762Y-87193333D01*
X151836381Y-87336191D01*
X151836381Y-87574286D01*
X150836381Y-86098095D02*
X150836381Y-86574286D01*
X151312571Y-86621905D01*
X151264952Y-86574286D01*
X151217333Y-86479048D01*
X151217333Y-86240952D01*
X151264952Y-86145714D01*
X151312571Y-86098095D01*
X151407810Y-86050476D01*
X151645905Y-86050476D01*
X151741143Y-86098095D01*
X151788762Y-86145714D01*
X151836381Y-86240952D01*
X151836381Y-86479048D01*
X151788762Y-86574286D01*
X151741143Y-86621905D01*
X150836381Y-85717143D02*
X150836381Y-85050476D01*
X151836381Y-85479048D01*
X170886381Y-87574286D02*
X169886381Y-87574286D01*
X169886381Y-87336191D01*
X169934000Y-87193333D01*
X170029238Y-87098095D01*
X170124476Y-87050476D01*
X170314952Y-87002857D01*
X170457810Y-87002857D01*
X170648286Y-87050476D01*
X170743524Y-87098095D01*
X170838762Y-87193333D01*
X170886381Y-87336191D01*
X170886381Y-87574286D01*
X169886381Y-86098095D02*
X169886381Y-86574286D01*
X170362571Y-86621905D01*
X170314952Y-86574286D01*
X170267333Y-86479048D01*
X170267333Y-86240952D01*
X170314952Y-86145714D01*
X170362571Y-86098095D01*
X170457810Y-86050476D01*
X170695905Y-86050476D01*
X170791143Y-86098095D01*
X170838762Y-86145714D01*
X170886381Y-86240952D01*
X170886381Y-86479048D01*
X170838762Y-86574286D01*
X170791143Y-86621905D01*
X170314952Y-85479048D02*
X170267333Y-85574286D01*
X170219714Y-85621905D01*
X170124476Y-85669524D01*
X170076857Y-85669524D01*
X169981619Y-85621905D01*
X169934000Y-85574286D01*
X169886381Y-85479048D01*
X169886381Y-85288571D01*
X169934000Y-85193333D01*
X169981619Y-85145714D01*
X170076857Y-85098095D01*
X170124476Y-85098095D01*
X170219714Y-85145714D01*
X170267333Y-85193333D01*
X170314952Y-85288571D01*
X170314952Y-85479048D01*
X170362571Y-85574286D01*
X170410190Y-85621905D01*
X170505429Y-85669524D01*
X170695905Y-85669524D01*
X170791143Y-85621905D01*
X170838762Y-85574286D01*
X170886381Y-85479048D01*
X170886381Y-85288571D01*
X170838762Y-85193333D01*
X170791143Y-85145714D01*
X170695905Y-85098095D01*
X170505429Y-85098095D01*
X170410190Y-85145714D01*
X170362571Y-85193333D01*
X170314952Y-85288571D01*
X189936381Y-87574286D02*
X188936381Y-87574286D01*
X188936381Y-87336191D01*
X188984000Y-87193333D01*
X189079238Y-87098095D01*
X189174476Y-87050476D01*
X189364952Y-87002857D01*
X189507810Y-87002857D01*
X189698286Y-87050476D01*
X189793524Y-87098095D01*
X189888762Y-87193333D01*
X189936381Y-87336191D01*
X189936381Y-87574286D01*
X188936381Y-86098095D02*
X188936381Y-86574286D01*
X189412571Y-86621905D01*
X189364952Y-86574286D01*
X189317333Y-86479048D01*
X189317333Y-86240952D01*
X189364952Y-86145714D01*
X189412571Y-86098095D01*
X189507810Y-86050476D01*
X189745905Y-86050476D01*
X189841143Y-86098095D01*
X189888762Y-86145714D01*
X189936381Y-86240952D01*
X189936381Y-86479048D01*
X189888762Y-86574286D01*
X189841143Y-86621905D01*
X189936381Y-85574286D02*
X189936381Y-85383810D01*
X189888762Y-85288571D01*
X189841143Y-85240952D01*
X189698286Y-85145714D01*
X189507810Y-85098095D01*
X189126857Y-85098095D01*
X189031619Y-85145714D01*
X188984000Y-85193333D01*
X188936381Y-85288571D01*
X188936381Y-85479048D01*
X188984000Y-85574286D01*
X189031619Y-85621905D01*
X189126857Y-85669524D01*
X189364952Y-85669524D01*
X189460190Y-85621905D01*
X189507810Y-85574286D01*
X189555429Y-85479048D01*
X189555429Y-85288571D01*
X189507810Y-85193333D01*
X189460190Y-85145714D01*
X189364952Y-85098095D01*
X208986381Y-87574286D02*
X207986381Y-87574286D01*
X207986381Y-87336191D01*
X208034000Y-87193333D01*
X208129238Y-87098095D01*
X208224476Y-87050476D01*
X208414952Y-87002857D01*
X208557810Y-87002857D01*
X208748286Y-87050476D01*
X208843524Y-87098095D01*
X208938762Y-87193333D01*
X208986381Y-87336191D01*
X208986381Y-87574286D01*
X207986381Y-86145714D02*
X207986381Y-86336191D01*
X208034000Y-86431429D01*
X208081619Y-86479048D01*
X208224476Y-86574286D01*
X208414952Y-86621905D01*
X208795905Y-86621905D01*
X208891143Y-86574286D01*
X208938762Y-86526667D01*
X208986381Y-86431429D01*
X208986381Y-86240952D01*
X208938762Y-86145714D01*
X208891143Y-86098095D01*
X208795905Y-86050476D01*
X208557810Y-86050476D01*
X208462571Y-86098095D01*
X208414952Y-86145714D01*
X208367333Y-86240952D01*
X208367333Y-86431429D01*
X208414952Y-86526667D01*
X208462571Y-86574286D01*
X208557810Y-86621905D01*
X207986381Y-85431429D02*
X207986381Y-85336190D01*
X208034000Y-85240952D01*
X208081619Y-85193333D01*
X208176857Y-85145714D01*
X208367333Y-85098095D01*
X208605429Y-85098095D01*
X208795905Y-85145714D01*
X208891143Y-85193333D01*
X208938762Y-85240952D01*
X208986381Y-85336190D01*
X208986381Y-85431429D01*
X208938762Y-85526667D01*
X208891143Y-85574286D01*
X208795905Y-85621905D01*
X208605429Y-85669524D01*
X208367333Y-85669524D01*
X208176857Y-85621905D01*
X208081619Y-85574286D01*
X208034000Y-85526667D01*
X207986381Y-85431429D01*
X228036381Y-87574286D02*
X227036381Y-87574286D01*
X227036381Y-87336191D01*
X227084000Y-87193333D01*
X227179238Y-87098095D01*
X227274476Y-87050476D01*
X227464952Y-87002857D01*
X227607810Y-87002857D01*
X227798286Y-87050476D01*
X227893524Y-87098095D01*
X227988762Y-87193333D01*
X228036381Y-87336191D01*
X228036381Y-87574286D01*
X227036381Y-86145714D02*
X227036381Y-86336191D01*
X227084000Y-86431429D01*
X227131619Y-86479048D01*
X227274476Y-86574286D01*
X227464952Y-86621905D01*
X227845905Y-86621905D01*
X227941143Y-86574286D01*
X227988762Y-86526667D01*
X228036381Y-86431429D01*
X228036381Y-86240952D01*
X227988762Y-86145714D01*
X227941143Y-86098095D01*
X227845905Y-86050476D01*
X227607810Y-86050476D01*
X227512571Y-86098095D01*
X227464952Y-86145714D01*
X227417333Y-86240952D01*
X227417333Y-86431429D01*
X227464952Y-86526667D01*
X227512571Y-86574286D01*
X227607810Y-86621905D01*
X228036381Y-85098095D02*
X228036381Y-85669524D01*
X228036381Y-85383810D02*
X227036381Y-85383810D01*
X227179238Y-85479048D01*
X227274476Y-85574286D01*
X227322095Y-85669524D01*
X247086381Y-87574286D02*
X246086381Y-87574286D01*
X246086381Y-87336191D01*
X246134000Y-87193333D01*
X246229238Y-87098095D01*
X246324476Y-87050476D01*
X246514952Y-87002857D01*
X246657810Y-87002857D01*
X246848286Y-87050476D01*
X246943524Y-87098095D01*
X247038762Y-87193333D01*
X247086381Y-87336191D01*
X247086381Y-87574286D01*
X246086381Y-86145714D02*
X246086381Y-86336191D01*
X246134000Y-86431429D01*
X246181619Y-86479048D01*
X246324476Y-86574286D01*
X246514952Y-86621905D01*
X246895905Y-86621905D01*
X246991143Y-86574286D01*
X247038762Y-86526667D01*
X247086381Y-86431429D01*
X247086381Y-86240952D01*
X247038762Y-86145714D01*
X246991143Y-86098095D01*
X246895905Y-86050476D01*
X246657810Y-86050476D01*
X246562571Y-86098095D01*
X246514952Y-86145714D01*
X246467333Y-86240952D01*
X246467333Y-86431429D01*
X246514952Y-86526667D01*
X246562571Y-86574286D01*
X246657810Y-86621905D01*
X246181619Y-85669524D02*
X246134000Y-85621905D01*
X246086381Y-85526667D01*
X246086381Y-85288571D01*
X246134000Y-85193333D01*
X246181619Y-85145714D01*
X246276857Y-85098095D01*
X246372095Y-85098095D01*
X246514952Y-85145714D01*
X247086381Y-85717143D01*
X247086381Y-85098095D01*
X266136381Y-87574286D02*
X265136381Y-87574286D01*
X265136381Y-87336191D01*
X265184000Y-87193333D01*
X265279238Y-87098095D01*
X265374476Y-87050476D01*
X265564952Y-87002857D01*
X265707810Y-87002857D01*
X265898286Y-87050476D01*
X265993524Y-87098095D01*
X266088762Y-87193333D01*
X266136381Y-87336191D01*
X266136381Y-87574286D01*
X265136381Y-86145714D02*
X265136381Y-86336191D01*
X265184000Y-86431429D01*
X265231619Y-86479048D01*
X265374476Y-86574286D01*
X265564952Y-86621905D01*
X265945905Y-86621905D01*
X266041143Y-86574286D01*
X266088762Y-86526667D01*
X266136381Y-86431429D01*
X266136381Y-86240952D01*
X266088762Y-86145714D01*
X266041143Y-86098095D01*
X265945905Y-86050476D01*
X265707810Y-86050476D01*
X265612571Y-86098095D01*
X265564952Y-86145714D01*
X265517333Y-86240952D01*
X265517333Y-86431429D01*
X265564952Y-86526667D01*
X265612571Y-86574286D01*
X265707810Y-86621905D01*
X265136381Y-85717143D02*
X265136381Y-85098095D01*
X265517333Y-85431429D01*
X265517333Y-85288571D01*
X265564952Y-85193333D01*
X265612571Y-85145714D01*
X265707810Y-85098095D01*
X265945905Y-85098095D01*
X266041143Y-85145714D01*
X266088762Y-85193333D01*
X266136381Y-85288571D01*
X266136381Y-85574286D01*
X266088762Y-85669524D01*
X266041143Y-85717143D01*
X285186381Y-87574286D02*
X284186381Y-87574286D01*
X284186381Y-87336191D01*
X284234000Y-87193333D01*
X284329238Y-87098095D01*
X284424476Y-87050476D01*
X284614952Y-87002857D01*
X284757810Y-87002857D01*
X284948286Y-87050476D01*
X285043524Y-87098095D01*
X285138762Y-87193333D01*
X285186381Y-87336191D01*
X285186381Y-87574286D01*
X284186381Y-86145714D02*
X284186381Y-86336191D01*
X284234000Y-86431429D01*
X284281619Y-86479048D01*
X284424476Y-86574286D01*
X284614952Y-86621905D01*
X284995905Y-86621905D01*
X285091143Y-86574286D01*
X285138762Y-86526667D01*
X285186381Y-86431429D01*
X285186381Y-86240952D01*
X285138762Y-86145714D01*
X285091143Y-86098095D01*
X284995905Y-86050476D01*
X284757810Y-86050476D01*
X284662571Y-86098095D01*
X284614952Y-86145714D01*
X284567333Y-86240952D01*
X284567333Y-86431429D01*
X284614952Y-86526667D01*
X284662571Y-86574286D01*
X284757810Y-86621905D01*
X284519714Y-85193333D02*
X285186381Y-85193333D01*
X284138762Y-85431429D02*
X284853048Y-85669524D01*
X284853048Y-85050476D01*
X338925841Y-106624286D02*
X337925841Y-106624286D01*
X337925841Y-106386191D01*
X337973460Y-106243333D01*
X338068698Y-106148095D01*
X338163936Y-106100476D01*
X338354412Y-106052857D01*
X338497270Y-106052857D01*
X338687746Y-106100476D01*
X338782984Y-106148095D01*
X338878222Y-106243333D01*
X338925841Y-106386191D01*
X338925841Y-106624286D01*
X337925841Y-105195714D02*
X337925841Y-105386191D01*
X337973460Y-105481429D01*
X338021079Y-105529048D01*
X338163936Y-105624286D01*
X338354412Y-105671905D01*
X338735365Y-105671905D01*
X338830603Y-105624286D01*
X338878222Y-105576667D01*
X338925841Y-105481429D01*
X338925841Y-105290952D01*
X338878222Y-105195714D01*
X338830603Y-105148095D01*
X338735365Y-105100476D01*
X338497270Y-105100476D01*
X338402031Y-105148095D01*
X338354412Y-105195714D01*
X338306793Y-105290952D01*
X338306793Y-105481429D01*
X338354412Y-105576667D01*
X338402031Y-105624286D01*
X338497270Y-105671905D01*
X337925841Y-104195714D02*
X337925841Y-104671905D01*
X338402031Y-104719524D01*
X338354412Y-104671905D01*
X338306793Y-104576667D01*
X338306793Y-104338571D01*
X338354412Y-104243333D01*
X338402031Y-104195714D01*
X338497270Y-104148095D01*
X338735365Y-104148095D01*
X338830603Y-104195714D01*
X338878222Y-104243333D01*
X338925841Y-104338571D01*
X338925841Y-104576667D01*
X338878222Y-104671905D01*
X338830603Y-104719524D01*
X382468381Y-87574286D02*
X381468381Y-87574286D01*
X381468381Y-87336191D01*
X381516000Y-87193333D01*
X381611238Y-87098095D01*
X381706476Y-87050476D01*
X381896952Y-87002857D01*
X382039810Y-87002857D01*
X382230286Y-87050476D01*
X382325524Y-87098095D01*
X382420762Y-87193333D01*
X382468381Y-87336191D01*
X382468381Y-87574286D01*
X381468381Y-86145714D02*
X381468381Y-86336191D01*
X381516000Y-86431429D01*
X381563619Y-86479048D01*
X381706476Y-86574286D01*
X381896952Y-86621905D01*
X382277905Y-86621905D01*
X382373143Y-86574286D01*
X382420762Y-86526667D01*
X382468381Y-86431429D01*
X382468381Y-86240952D01*
X382420762Y-86145714D01*
X382373143Y-86098095D01*
X382277905Y-86050476D01*
X382039810Y-86050476D01*
X381944571Y-86098095D01*
X381896952Y-86145714D01*
X381849333Y-86240952D01*
X381849333Y-86431429D01*
X381896952Y-86526667D01*
X381944571Y-86574286D01*
X382039810Y-86621905D01*
X381468381Y-85193333D02*
X381468381Y-85383810D01*
X381516000Y-85479048D01*
X381563619Y-85526667D01*
X381706476Y-85621905D01*
X381896952Y-85669524D01*
X382277905Y-85669524D01*
X382373143Y-85621905D01*
X382420762Y-85574286D01*
X382468381Y-85479048D01*
X382468381Y-85288571D01*
X382420762Y-85193333D01*
X382373143Y-85145714D01*
X382277905Y-85098095D01*
X382039810Y-85098095D01*
X381944571Y-85145714D01*
X381896952Y-85193333D01*
X381849333Y-85288571D01*
X381849333Y-85479048D01*
X381896952Y-85574286D01*
X381944571Y-85621905D01*
X382039810Y-85669524D01*
X38409714Y-95448381D02*
X38409714Y-94448381D01*
X38647809Y-94448381D01*
X38790667Y-94496000D01*
X38885905Y-94591238D01*
X38933524Y-94686476D01*
X38981143Y-94876952D01*
X38981143Y-95019810D01*
X38933524Y-95210286D01*
X38885905Y-95305524D01*
X38790667Y-95400762D01*
X38647809Y-95448381D01*
X38409714Y-95448381D01*
X39838286Y-94448381D02*
X39647809Y-94448381D01*
X39552571Y-94496000D01*
X39504952Y-94543619D01*
X39409714Y-94686476D01*
X39362095Y-94876952D01*
X39362095Y-95257905D01*
X39409714Y-95353143D01*
X39457333Y-95400762D01*
X39552571Y-95448381D01*
X39743048Y-95448381D01*
X39838286Y-95400762D01*
X39885905Y-95353143D01*
X39933524Y-95257905D01*
X39933524Y-95019810D01*
X39885905Y-94924571D01*
X39838286Y-94876952D01*
X39743048Y-94829333D01*
X39552571Y-94829333D01*
X39457333Y-94876952D01*
X39409714Y-94924571D01*
X39362095Y-95019810D01*
X40266857Y-94448381D02*
X40933524Y-94448381D01*
X40504952Y-95448381D01*
X47188381Y-106624286D02*
X46188381Y-106624286D01*
X46188381Y-106386191D01*
X46236000Y-106243333D01*
X46331238Y-106148095D01*
X46426476Y-106100476D01*
X46616952Y-106052857D01*
X46759810Y-106052857D01*
X46950286Y-106100476D01*
X47045524Y-106148095D01*
X47140762Y-106243333D01*
X47188381Y-106386191D01*
X47188381Y-106624286D01*
X46188381Y-105195714D02*
X46188381Y-105386191D01*
X46236000Y-105481429D01*
X46283619Y-105529048D01*
X46426476Y-105624286D01*
X46616952Y-105671905D01*
X46997905Y-105671905D01*
X47093143Y-105624286D01*
X47140762Y-105576667D01*
X47188381Y-105481429D01*
X47188381Y-105290952D01*
X47140762Y-105195714D01*
X47093143Y-105148095D01*
X46997905Y-105100476D01*
X46759810Y-105100476D01*
X46664571Y-105148095D01*
X46616952Y-105195714D01*
X46569333Y-105290952D01*
X46569333Y-105481429D01*
X46616952Y-105576667D01*
X46664571Y-105624286D01*
X46759810Y-105671905D01*
X46616952Y-104529048D02*
X46569333Y-104624286D01*
X46521714Y-104671905D01*
X46426476Y-104719524D01*
X46378857Y-104719524D01*
X46283619Y-104671905D01*
X46236000Y-104624286D01*
X46188381Y-104529048D01*
X46188381Y-104338571D01*
X46236000Y-104243333D01*
X46283619Y-104195714D01*
X46378857Y-104148095D01*
X46426476Y-104148095D01*
X46521714Y-104195714D01*
X46569333Y-104243333D01*
X46616952Y-104338571D01*
X46616952Y-104529048D01*
X46664571Y-104624286D01*
X46712190Y-104671905D01*
X46807429Y-104719524D01*
X46997905Y-104719524D01*
X47093143Y-104671905D01*
X47140762Y-104624286D01*
X47188381Y-104529048D01*
X47188381Y-104338571D01*
X47140762Y-104243333D01*
X47093143Y-104195714D01*
X46997905Y-104148095D01*
X46807429Y-104148095D01*
X46712190Y-104195714D01*
X46664571Y-104243333D01*
X46616952Y-104338571D01*
X91638381Y-104210766D02*
X90638381Y-104210766D01*
X90638381Y-103972671D01*
X90686000Y-103829813D01*
X90781238Y-103734575D01*
X90876476Y-103686956D01*
X91066952Y-103639337D01*
X91209810Y-103639337D01*
X91400286Y-103686956D01*
X91495524Y-103734575D01*
X91590762Y-103829813D01*
X91638381Y-103972671D01*
X91638381Y-104210766D01*
X90638381Y-102782194D02*
X90638381Y-102972671D01*
X90686000Y-103067909D01*
X90733619Y-103115528D01*
X90876476Y-103210766D01*
X91066952Y-103258385D01*
X91447905Y-103258385D01*
X91543143Y-103210766D01*
X91590762Y-103163147D01*
X91638381Y-103067909D01*
X91638381Y-102877432D01*
X91590762Y-102782194D01*
X91543143Y-102734575D01*
X91447905Y-102686956D01*
X91209810Y-102686956D01*
X91114571Y-102734575D01*
X91066952Y-102782194D01*
X91019333Y-102877432D01*
X91019333Y-103067909D01*
X91066952Y-103163147D01*
X91114571Y-103210766D01*
X91209810Y-103258385D01*
X91638381Y-102210766D02*
X91638381Y-102020290D01*
X91590762Y-101925051D01*
X91543143Y-101877432D01*
X91400286Y-101782194D01*
X91209810Y-101734575D01*
X90828857Y-101734575D01*
X90733619Y-101782194D01*
X90686000Y-101829813D01*
X90638381Y-101925051D01*
X90638381Y-102115528D01*
X90686000Y-102210766D01*
X90733619Y-102258385D01*
X90828857Y-102306004D01*
X91066952Y-102306004D01*
X91162190Y-102258385D01*
X91209810Y-102210766D01*
X91257429Y-102115528D01*
X91257429Y-101925051D01*
X91209810Y-101829813D01*
X91162190Y-101782194D01*
X91066952Y-101734575D01*
X118054381Y-106624286D02*
X117054381Y-106624286D01*
X117054381Y-106386191D01*
X117102000Y-106243333D01*
X117197238Y-106148095D01*
X117292476Y-106100476D01*
X117482952Y-106052857D01*
X117625810Y-106052857D01*
X117816286Y-106100476D01*
X117911524Y-106148095D01*
X118006762Y-106243333D01*
X118054381Y-106386191D01*
X118054381Y-106624286D01*
X117054381Y-105719524D02*
X117054381Y-105052857D01*
X118054381Y-105481429D01*
X117054381Y-104481429D02*
X117054381Y-104386190D01*
X117102000Y-104290952D01*
X117149619Y-104243333D01*
X117244857Y-104195714D01*
X117435333Y-104148095D01*
X117673429Y-104148095D01*
X117863905Y-104195714D01*
X117959143Y-104243333D01*
X118006762Y-104290952D01*
X118054381Y-104386190D01*
X118054381Y-104481429D01*
X118006762Y-104576667D01*
X117959143Y-104624286D01*
X117863905Y-104671905D01*
X117673429Y-104719524D01*
X117435333Y-104719524D01*
X117244857Y-104671905D01*
X117149619Y-104624286D01*
X117102000Y-104576667D01*
X117054381Y-104481429D01*
X121102381Y-106624286D02*
X120102381Y-106624286D01*
X120102381Y-106386191D01*
X120150000Y-106243333D01*
X120245238Y-106148095D01*
X120340476Y-106100476D01*
X120530952Y-106052857D01*
X120673810Y-106052857D01*
X120864286Y-106100476D01*
X120959524Y-106148095D01*
X121054762Y-106243333D01*
X121102381Y-106386191D01*
X121102381Y-106624286D01*
X120102381Y-105719524D02*
X120102381Y-105052857D01*
X121102381Y-105481429D01*
X121102381Y-104148095D02*
X121102381Y-104719524D01*
X121102381Y-104433810D02*
X120102381Y-104433810D01*
X120245238Y-104529048D01*
X120340476Y-104624286D01*
X120388095Y-104719524D01*
X185730234Y-98239841D02*
X185730234Y-97239841D01*
X185968329Y-97239841D01*
X186111187Y-97287460D01*
X186206425Y-97382698D01*
X186254044Y-97477936D01*
X186301663Y-97668412D01*
X186301663Y-97811270D01*
X186254044Y-98001746D01*
X186206425Y-98096984D01*
X186111187Y-98192222D01*
X185968329Y-98239841D01*
X185730234Y-98239841D01*
X186634996Y-97239841D02*
X187301663Y-97239841D01*
X186873091Y-98239841D01*
X187634996Y-97335079D02*
X187682615Y-97287460D01*
X187777853Y-97239841D01*
X188015949Y-97239841D01*
X188111187Y-97287460D01*
X188158806Y-97335079D01*
X188206425Y-97430317D01*
X188206425Y-97525555D01*
X188158806Y-97668412D01*
X187587377Y-98239841D01*
X188206425Y-98239841D01*
X263850381Y-106624286D02*
X262850381Y-106624286D01*
X262850381Y-106386191D01*
X262898000Y-106243333D01*
X262993238Y-106148095D01*
X263088476Y-106100476D01*
X263278952Y-106052857D01*
X263421810Y-106052857D01*
X263612286Y-106100476D01*
X263707524Y-106148095D01*
X263802762Y-106243333D01*
X263850381Y-106386191D01*
X263850381Y-106624286D01*
X262850381Y-105719524D02*
X262850381Y-105052857D01*
X263850381Y-105481429D01*
X262850381Y-104767143D02*
X262850381Y-104148095D01*
X263231333Y-104481429D01*
X263231333Y-104338571D01*
X263278952Y-104243333D01*
X263326571Y-104195714D01*
X263421810Y-104148095D01*
X263659905Y-104148095D01*
X263755143Y-104195714D01*
X263802762Y-104243333D01*
X263850381Y-104338571D01*
X263850381Y-104624286D01*
X263802762Y-104719524D01*
X263755143Y-104767143D01*
X287472381Y-106624286D02*
X286472381Y-106624286D01*
X286472381Y-106386191D01*
X286520000Y-106243333D01*
X286615238Y-106148095D01*
X286710476Y-106100476D01*
X286900952Y-106052857D01*
X287043810Y-106052857D01*
X287234286Y-106100476D01*
X287329524Y-106148095D01*
X287424762Y-106243333D01*
X287472381Y-106386191D01*
X287472381Y-106624286D01*
X286472381Y-105719524D02*
X286472381Y-105052857D01*
X287472381Y-105481429D01*
X286805714Y-104243333D02*
X287472381Y-104243333D01*
X286424762Y-104481429D02*
X287139048Y-104719524D01*
X287139048Y-104100476D01*
X311348381Y-106624286D02*
X310348381Y-106624286D01*
X310348381Y-106386191D01*
X310396000Y-106243333D01*
X310491238Y-106148095D01*
X310586476Y-106100476D01*
X310776952Y-106052857D01*
X310919810Y-106052857D01*
X311110286Y-106100476D01*
X311205524Y-106148095D01*
X311300762Y-106243333D01*
X311348381Y-106386191D01*
X311348381Y-106624286D01*
X310348381Y-105719524D02*
X310348381Y-105052857D01*
X311348381Y-105481429D01*
X310348381Y-104195714D02*
X310348381Y-104671905D01*
X310824571Y-104719524D01*
X310776952Y-104671905D01*
X310729333Y-104576667D01*
X310729333Y-104338571D01*
X310776952Y-104243333D01*
X310824571Y-104195714D01*
X310919810Y-104148095D01*
X311157905Y-104148095D01*
X311253143Y-104195714D01*
X311300762Y-104243333D01*
X311348381Y-104338571D01*
X311348381Y-104576667D01*
X311300762Y-104671905D01*
X311253143Y-104719524D01*
X342336381Y-106624286D02*
X341336381Y-106624286D01*
X341336381Y-106386191D01*
X341384000Y-106243333D01*
X341479238Y-106148095D01*
X341574476Y-106100476D01*
X341764952Y-106052857D01*
X341907810Y-106052857D01*
X342098286Y-106100476D01*
X342193524Y-106148095D01*
X342288762Y-106243333D01*
X342336381Y-106386191D01*
X342336381Y-106624286D01*
X341336381Y-105719524D02*
X341336381Y-105052857D01*
X342336381Y-105481429D01*
X341336381Y-104243333D02*
X341336381Y-104433810D01*
X341384000Y-104529048D01*
X341431619Y-104576667D01*
X341574476Y-104671905D01*
X341764952Y-104719524D01*
X342145905Y-104719524D01*
X342241143Y-104671905D01*
X342288762Y-104624286D01*
X342336381Y-104529048D01*
X342336381Y-104338571D01*
X342288762Y-104243333D01*
X342241143Y-104195714D01*
X342145905Y-104148095D01*
X341907810Y-104148095D01*
X341812571Y-104195714D01*
X341764952Y-104243333D01*
X341717333Y-104338571D01*
X341717333Y-104529048D01*
X341764952Y-104624286D01*
X341812571Y-104671905D01*
X341907810Y-104719524D01*
X361386381Y-106624286D02*
X360386381Y-106624286D01*
X360386381Y-106386191D01*
X360434000Y-106243333D01*
X360529238Y-106148095D01*
X360624476Y-106100476D01*
X360814952Y-106052857D01*
X360957810Y-106052857D01*
X361148286Y-106100476D01*
X361243524Y-106148095D01*
X361338762Y-106243333D01*
X361386381Y-106386191D01*
X361386381Y-106624286D01*
X360386381Y-105719524D02*
X360386381Y-105052857D01*
X361386381Y-105481429D01*
X360386381Y-104767143D02*
X360386381Y-104100476D01*
X361386381Y-104529048D01*
X327961655Y-80811667D02*
X328437846Y-80811667D01*
X327866417Y-81097381D02*
X328199750Y-80097381D01*
X328533084Y-81097381D01*
X333525845Y-81097381D02*
X333525845Y-80097381D01*
X334097274Y-81097381D02*
X333668702Y-80525952D01*
X334097274Y-80097381D02*
X333525845Y-80668810D01*
X387492905Y-99861667D02*
X387969096Y-99861667D01*
X387397667Y-100147381D02*
X387731000Y-99147381D01*
X388064334Y-100147381D01*
X393057095Y-100147381D02*
X393057095Y-99147381D01*
X393628524Y-100147381D02*
X393199952Y-99575952D01*
X393628524Y-99147381D02*
X393057095Y-99718810D01*
X368442905Y-99861667D02*
X368919096Y-99861667D01*
X368347667Y-100147381D02*
X368681000Y-99147381D01*
X369014334Y-100147381D01*
X374007095Y-100147381D02*
X374007095Y-99147381D01*
X374578524Y-100147381D02*
X374149952Y-99575952D01*
X374578524Y-99147381D02*
X374007095Y-99718810D01*
X349392905Y-99861667D02*
X349869096Y-99861667D01*
X349297667Y-100147381D02*
X349631000Y-99147381D01*
X349964334Y-100147381D01*
X354957095Y-100147381D02*
X354957095Y-99147381D01*
X355528524Y-100147381D02*
X355099952Y-99575952D01*
X355528524Y-99147381D02*
X354957095Y-99718810D01*
X318436655Y-99861667D02*
X318912846Y-99861667D01*
X318341417Y-100147381D02*
X318674750Y-99147381D01*
X319008084Y-100147381D01*
X324000845Y-100147381D02*
X324000845Y-99147381D01*
X324572274Y-100147381D02*
X324143702Y-99575952D01*
X324572274Y-99147381D02*
X324000845Y-99718810D01*
X294624155Y-99861667D02*
X295100346Y-99861667D01*
X294528917Y-100147381D02*
X294862250Y-99147381D01*
X295195584Y-100147381D01*
X300188345Y-100147381D02*
X300188345Y-99147381D01*
X300759774Y-100147381D02*
X300331202Y-99575952D01*
X300759774Y-99147381D02*
X300188345Y-99718810D01*
X270811655Y-99861667D02*
X271287846Y-99861667D01*
X270716417Y-100147381D02*
X271049750Y-99147381D01*
X271383084Y-100147381D01*
X276375845Y-100147381D02*
X276375845Y-99147381D01*
X276947274Y-100147381D02*
X276518702Y-99575952D01*
X276947274Y-99147381D02*
X276375845Y-99718810D01*
X199374155Y-99861667D02*
X199850346Y-99861667D01*
X199278917Y-100147381D02*
X199612250Y-99147381D01*
X199945584Y-100147381D01*
X204938345Y-100147381D02*
X204938345Y-99147381D01*
X205509774Y-100147381D02*
X205081202Y-99575952D01*
X205509774Y-99147381D02*
X204938345Y-99718810D01*
X127936655Y-99861667D02*
X128412846Y-99861667D01*
X127841417Y-100147381D02*
X128174750Y-99147381D01*
X128508084Y-100147381D01*
X133500845Y-100147381D02*
X133500845Y-99147381D01*
X134072274Y-100147381D02*
X133643702Y-99575952D01*
X134072274Y-99147381D02*
X133500845Y-99718810D01*
X104124155Y-99861667D02*
X104600346Y-99861667D01*
X104028917Y-100147381D02*
X104362250Y-99147381D01*
X104695584Y-100147381D01*
X109688345Y-100147381D02*
X109688345Y-99147381D01*
X110259774Y-100147381D02*
X109831202Y-99575952D01*
X110259774Y-99147381D02*
X109688345Y-99718810D01*
X80311655Y-99861667D02*
X80787846Y-99861667D01*
X80216417Y-100147381D02*
X80549750Y-99147381D01*
X80883084Y-100147381D01*
X85875845Y-100147381D02*
X85875845Y-99147381D01*
X86447274Y-100147381D02*
X86018702Y-99575952D01*
X86447274Y-99147381D02*
X85875845Y-99718810D01*
X54117905Y-99861667D02*
X54594096Y-99861667D01*
X54022667Y-100147381D02*
X54356000Y-99147381D01*
X54689334Y-100147381D01*
X59682095Y-100147381D02*
X59682095Y-99147381D01*
X60253524Y-100147381D02*
X59824952Y-99575952D01*
X60253524Y-99147381D02*
X59682095Y-99718810D01*
X35067905Y-99861667D02*
X35544096Y-99861667D01*
X34972667Y-100147381D02*
X35306000Y-99147381D01*
X35639334Y-100147381D01*
X40632095Y-100147381D02*
X40632095Y-99147381D01*
X41203524Y-100147381D02*
X40774952Y-99575952D01*
X41203524Y-99147381D02*
X40632095Y-99718810D01*
X368442905Y-80811667D02*
X368919096Y-80811667D01*
X368347667Y-81097381D02*
X368681000Y-80097381D01*
X369014334Y-81097381D01*
X374007095Y-81097381D02*
X374007095Y-80097381D01*
X374578524Y-81097381D02*
X374149952Y-80525952D01*
X374578524Y-80097381D02*
X374007095Y-80668810D01*
X292242905Y-80811667D02*
X292719096Y-80811667D01*
X292147667Y-81097381D02*
X292481000Y-80097381D01*
X292814334Y-81097381D01*
X297807095Y-81097381D02*
X297807095Y-80097381D01*
X298378524Y-81097381D02*
X297949952Y-80525952D01*
X298378524Y-80097381D02*
X297807095Y-80668810D01*
X273192905Y-80811667D02*
X273669096Y-80811667D01*
X273097667Y-81097381D02*
X273431000Y-80097381D01*
X273764334Y-81097381D01*
X278757095Y-81097381D02*
X278757095Y-80097381D01*
X279328524Y-81097381D02*
X278899952Y-80525952D01*
X279328524Y-80097381D02*
X278757095Y-80668810D01*
X254142905Y-80811667D02*
X254619096Y-80811667D01*
X254047667Y-81097381D02*
X254381000Y-80097381D01*
X254714334Y-81097381D01*
X259707095Y-81097381D02*
X259707095Y-80097381D01*
X260278524Y-81097381D02*
X259849952Y-80525952D01*
X260278524Y-80097381D02*
X259707095Y-80668810D01*
X235092905Y-80811667D02*
X235569096Y-80811667D01*
X234997667Y-81097381D02*
X235331000Y-80097381D01*
X235664334Y-81097381D01*
X240657095Y-81097381D02*
X240657095Y-80097381D01*
X241228524Y-81097381D02*
X240799952Y-80525952D01*
X241228524Y-80097381D02*
X240657095Y-80668810D01*
X216042905Y-80811667D02*
X216519096Y-80811667D01*
X215947667Y-81097381D02*
X216281000Y-80097381D01*
X216614334Y-81097381D01*
X221607095Y-81097381D02*
X221607095Y-80097381D01*
X222178524Y-81097381D02*
X221749952Y-80525952D01*
X222178524Y-80097381D02*
X221607095Y-80668810D01*
X196992905Y-80811667D02*
X197469096Y-80811667D01*
X196897667Y-81097381D02*
X197231000Y-80097381D01*
X197564334Y-81097381D01*
X202557095Y-81097381D02*
X202557095Y-80097381D01*
X203128524Y-81097381D02*
X202699952Y-80525952D01*
X203128524Y-80097381D02*
X202557095Y-80668810D01*
X177942905Y-80811667D02*
X178419096Y-80811667D01*
X177847667Y-81097381D02*
X178181000Y-80097381D01*
X178514334Y-81097381D01*
X183507095Y-81097381D02*
X183507095Y-80097381D01*
X184078524Y-81097381D02*
X183649952Y-80525952D01*
X184078524Y-80097381D02*
X183507095Y-80668810D01*
X158892905Y-80811667D02*
X159369096Y-80811667D01*
X158797667Y-81097381D02*
X159131000Y-80097381D01*
X159464334Y-81097381D01*
X164457095Y-81097381D02*
X164457095Y-80097381D01*
X165028524Y-81097381D02*
X164599952Y-80525952D01*
X165028524Y-80097381D02*
X164457095Y-80668810D01*
X139842905Y-80811667D02*
X140319096Y-80811667D01*
X139747667Y-81097381D02*
X140081000Y-80097381D01*
X140414334Y-81097381D01*
X145407095Y-81097381D02*
X145407095Y-80097381D01*
X145978524Y-81097381D02*
X145549952Y-80525952D01*
X145978524Y-80097381D02*
X145407095Y-80668810D01*
X120792905Y-80811667D02*
X121269096Y-80811667D01*
X120697667Y-81097381D02*
X121031000Y-80097381D01*
X121364334Y-81097381D01*
X126357095Y-81097381D02*
X126357095Y-80097381D01*
X126928524Y-81097381D02*
X126499952Y-80525952D01*
X126928524Y-80097381D02*
X126357095Y-80668810D01*
X89836655Y-80811667D02*
X90312846Y-80811667D01*
X89741417Y-81097381D02*
X90074750Y-80097381D01*
X90408084Y-81097381D01*
X95400845Y-81097381D02*
X95400845Y-80097381D01*
X95972274Y-81097381D02*
X95543702Y-80525952D01*
X95972274Y-80097381D02*
X95400845Y-80668810D01*
X54117905Y-80811667D02*
X54594096Y-80811667D01*
X54022667Y-81097381D02*
X54356000Y-80097381D01*
X54689334Y-81097381D01*
X59682095Y-81097381D02*
X59682095Y-80097381D01*
X60253524Y-81097381D02*
X59824952Y-80525952D01*
X60253524Y-80097381D02*
X59682095Y-80668810D01*
X35067905Y-80811667D02*
X35544096Y-80811667D01*
X34972667Y-81097381D02*
X35306000Y-80097381D01*
X35639334Y-81097381D01*
X40632095Y-81097381D02*
X40632095Y-80097381D01*
X41203524Y-81097381D02*
X40774952Y-80525952D01*
X41203524Y-80097381D02*
X40632095Y-80668810D01*
X332724155Y-61761667D02*
X333200346Y-61761667D01*
X332628917Y-62047381D02*
X332962250Y-61047381D01*
X333295584Y-62047381D01*
X338288345Y-62047381D02*
X338288345Y-61047381D01*
X338859774Y-62047381D02*
X338431202Y-61475952D01*
X338859774Y-61047381D02*
X338288345Y-61618810D01*
X301767905Y-61761667D02*
X302244096Y-61761667D01*
X301672667Y-62047381D02*
X302006000Y-61047381D01*
X302339334Y-62047381D01*
X307332095Y-62047381D02*
X307332095Y-61047381D01*
X307903524Y-62047381D02*
X307474952Y-61475952D01*
X307903524Y-61047381D02*
X307332095Y-61618810D01*
X282717905Y-61761667D02*
X283194096Y-61761667D01*
X282622667Y-62047381D02*
X282956000Y-61047381D01*
X283289334Y-62047381D01*
X288282095Y-62047381D02*
X288282095Y-61047381D01*
X288853524Y-62047381D02*
X288424952Y-61475952D01*
X288853524Y-61047381D02*
X288282095Y-61618810D01*
X263667905Y-61761667D02*
X264144096Y-61761667D01*
X263572667Y-62047381D02*
X263906000Y-61047381D01*
X264239334Y-62047381D01*
X269232095Y-62047381D02*
X269232095Y-61047381D01*
X269803524Y-62047381D02*
X269374952Y-61475952D01*
X269803524Y-61047381D02*
X269232095Y-61618810D01*
X244617905Y-61761667D02*
X245094096Y-61761667D01*
X244522667Y-62047381D02*
X244856000Y-61047381D01*
X245189334Y-62047381D01*
X250182095Y-62047381D02*
X250182095Y-61047381D01*
X250753524Y-62047381D02*
X250324952Y-61475952D01*
X250753524Y-61047381D02*
X250182095Y-61618810D01*
X225567905Y-61761667D02*
X226044096Y-61761667D01*
X225472667Y-62047381D02*
X225806000Y-61047381D01*
X226139334Y-62047381D01*
X231132095Y-62047381D02*
X231132095Y-61047381D01*
X231703524Y-62047381D02*
X231274952Y-61475952D01*
X231703524Y-61047381D02*
X231132095Y-61618810D01*
X206517905Y-61761667D02*
X206994096Y-61761667D01*
X206422667Y-62047381D02*
X206756000Y-61047381D01*
X207089334Y-62047381D01*
X212082095Y-62047381D02*
X212082095Y-61047381D01*
X212653524Y-62047381D02*
X212224952Y-61475952D01*
X212653524Y-61047381D02*
X212082095Y-61618810D01*
X187467905Y-61761667D02*
X187944096Y-61761667D01*
X187372667Y-62047381D02*
X187706000Y-61047381D01*
X188039334Y-62047381D01*
X193032095Y-62047381D02*
X193032095Y-61047381D01*
X193603524Y-62047381D02*
X193174952Y-61475952D01*
X193603524Y-61047381D02*
X193032095Y-61618810D01*
X168417905Y-61761667D02*
X168894096Y-61761667D01*
X168322667Y-62047381D02*
X168656000Y-61047381D01*
X168989334Y-62047381D01*
X173982095Y-62047381D02*
X173982095Y-61047381D01*
X174553524Y-62047381D02*
X174124952Y-61475952D01*
X174553524Y-61047381D02*
X173982095Y-61618810D01*
X149367905Y-61761667D02*
X149844096Y-61761667D01*
X149272667Y-62047381D02*
X149606000Y-61047381D01*
X149939334Y-62047381D01*
X154932095Y-62047381D02*
X154932095Y-61047381D01*
X155503524Y-62047381D02*
X155074952Y-61475952D01*
X155503524Y-61047381D02*
X154932095Y-61618810D01*
X130317905Y-61761667D02*
X130794096Y-61761667D01*
X130222667Y-62047381D02*
X130556000Y-61047381D01*
X130889334Y-62047381D01*
X135882095Y-62047381D02*
X135882095Y-61047381D01*
X136453524Y-62047381D02*
X136024952Y-61475952D01*
X136453524Y-61047381D02*
X135882095Y-61618810D01*
X111267905Y-61761667D02*
X111744096Y-61761667D01*
X111172667Y-62047381D02*
X111506000Y-61047381D01*
X111839334Y-62047381D01*
X116832095Y-62047381D02*
X116832095Y-61047381D01*
X117403524Y-62047381D02*
X116974952Y-61475952D01*
X117403524Y-61047381D02*
X116832095Y-61618810D01*
X85074155Y-61761667D02*
X85550346Y-61761667D01*
X84978917Y-62047381D02*
X85312250Y-61047381D01*
X85645584Y-62047381D01*
X90638345Y-62047381D02*
X90638345Y-61047381D01*
X91209774Y-62047381D02*
X90781202Y-61475952D01*
X91209774Y-61047381D02*
X90638345Y-61618810D01*
X54117905Y-61761667D02*
X54594096Y-61761667D01*
X54022667Y-62047381D02*
X54356000Y-61047381D01*
X54689334Y-62047381D01*
X59682095Y-62047381D02*
X59682095Y-61047381D01*
X60253524Y-62047381D02*
X59824952Y-61475952D01*
X60253524Y-61047381D02*
X59682095Y-61618810D01*
X35067905Y-61761667D02*
X35544096Y-61761667D01*
X34972667Y-62047381D02*
X35306000Y-61047381D01*
X35639334Y-62047381D01*
X40632095Y-62047381D02*
X40632095Y-61047381D01*
X41203524Y-62047381D02*
X40774952Y-61475952D01*
X41203524Y-61047381D02*
X40632095Y-61618810D01*
X387492905Y-42711667D02*
X387969096Y-42711667D01*
X387397667Y-42997381D02*
X387731000Y-41997381D01*
X388064334Y-42997381D01*
X393057095Y-42997381D02*
X393057095Y-41997381D01*
X393628524Y-42997381D02*
X393199952Y-42425952D01*
X393628524Y-41997381D02*
X393057095Y-42568810D01*
X368442905Y-42711667D02*
X368919096Y-42711667D01*
X368347667Y-42997381D02*
X368681000Y-41997381D01*
X369014334Y-42997381D01*
X374007095Y-42997381D02*
X374007095Y-41997381D01*
X374578524Y-42997381D02*
X374149952Y-42425952D01*
X374578524Y-41997381D02*
X374007095Y-42568810D01*
X339867905Y-42711667D02*
X340344096Y-42711667D01*
X339772667Y-42997381D02*
X340106000Y-41997381D01*
X340439334Y-42997381D01*
X345432095Y-42997381D02*
X345432095Y-41997381D01*
X346003524Y-42997381D02*
X345574952Y-42425952D01*
X346003524Y-41997381D02*
X345432095Y-42568810D01*
X316055405Y-42711667D02*
X316531596Y-42711667D01*
X315960167Y-42997381D02*
X316293500Y-41997381D01*
X316626834Y-42997381D01*
X321619595Y-42997381D02*
X321619595Y-41997381D01*
X322191024Y-42997381D02*
X321762452Y-42425952D01*
X322191024Y-41997381D02*
X321619595Y-42568810D01*
X297005405Y-42711667D02*
X297481596Y-42711667D01*
X296910167Y-42997381D02*
X297243500Y-41997381D01*
X297576834Y-42997381D01*
X302569595Y-42997381D02*
X302569595Y-41997381D01*
X303141024Y-42997381D02*
X302712452Y-42425952D01*
X303141024Y-41997381D02*
X302569595Y-42568810D01*
X277955405Y-42711667D02*
X278431596Y-42711667D01*
X277860167Y-42997381D02*
X278193500Y-41997381D01*
X278526834Y-42997381D01*
X283519595Y-42997381D02*
X283519595Y-41997381D01*
X284091024Y-42997381D02*
X283662452Y-42425952D01*
X284091024Y-41997381D02*
X283519595Y-42568810D01*
X258905405Y-42711667D02*
X259381596Y-42711667D01*
X258810167Y-42997381D02*
X259143500Y-41997381D01*
X259476834Y-42997381D01*
X264469595Y-42997381D02*
X264469595Y-41997381D01*
X265041024Y-42997381D02*
X264612452Y-42425952D01*
X265041024Y-41997381D02*
X264469595Y-42568810D01*
X239855405Y-42711667D02*
X240331596Y-42711667D01*
X239760167Y-42997381D02*
X240093500Y-41997381D01*
X240426834Y-42997381D01*
X245419595Y-42997381D02*
X245419595Y-41997381D01*
X245991024Y-42997381D02*
X245562452Y-42425952D01*
X245991024Y-41997381D02*
X245419595Y-42568810D01*
X220805405Y-42711667D02*
X221281596Y-42711667D01*
X220710167Y-42997381D02*
X221043500Y-41997381D01*
X221376834Y-42997381D01*
X226369595Y-42997381D02*
X226369595Y-41997381D01*
X226941024Y-42997381D02*
X226512452Y-42425952D01*
X226941024Y-41997381D02*
X226369595Y-42568810D01*
X201755405Y-42711667D02*
X202231596Y-42711667D01*
X201660167Y-42997381D02*
X201993500Y-41997381D01*
X202326834Y-42997381D01*
X207319595Y-42997381D02*
X207319595Y-41997381D01*
X207891024Y-42997381D02*
X207462452Y-42425952D01*
X207891024Y-41997381D02*
X207319595Y-42568810D01*
X182705405Y-42711667D02*
X183181596Y-42711667D01*
X182610167Y-42997381D02*
X182943500Y-41997381D01*
X183276834Y-42997381D01*
X188269595Y-42997381D02*
X188269595Y-41997381D01*
X188841024Y-42997381D02*
X188412452Y-42425952D01*
X188841024Y-41997381D02*
X188269595Y-42568810D01*
X163655405Y-42711667D02*
X164131596Y-42711667D01*
X163560167Y-42997381D02*
X163893500Y-41997381D01*
X164226834Y-42997381D01*
X169219595Y-42997381D02*
X169219595Y-41997381D01*
X169791024Y-42997381D02*
X169362452Y-42425952D01*
X169791024Y-41997381D02*
X169219595Y-42568810D01*
X144605405Y-42711667D02*
X145081596Y-42711667D01*
X144510167Y-42997381D02*
X144843500Y-41997381D01*
X145176834Y-42997381D01*
X150169595Y-42997381D02*
X150169595Y-41997381D01*
X150741024Y-42997381D02*
X150312452Y-42425952D01*
X150741024Y-41997381D02*
X150169595Y-42568810D01*
X125555405Y-42711667D02*
X126031596Y-42711667D01*
X125460167Y-42997381D02*
X125793500Y-41997381D01*
X126126834Y-42997381D01*
X131119595Y-42997381D02*
X131119595Y-41997381D01*
X131691024Y-42997381D02*
X131262452Y-42425952D01*
X131691024Y-41997381D02*
X131119595Y-42568810D01*
X106505405Y-42711667D02*
X106981596Y-42711667D01*
X106410167Y-42997381D02*
X106743500Y-41997381D01*
X107076834Y-42997381D01*
X112069595Y-42997381D02*
X112069595Y-41997381D01*
X112641024Y-42997381D02*
X112212452Y-42425952D01*
X112641024Y-41997381D02*
X112069595Y-42568810D01*
X82692905Y-42711667D02*
X83169096Y-42711667D01*
X82597667Y-42997381D02*
X82931000Y-41997381D01*
X83264334Y-42997381D01*
X88257095Y-42997381D02*
X88257095Y-41997381D01*
X88828524Y-42997381D02*
X88399952Y-42425952D01*
X88828524Y-41997381D02*
X88257095Y-42568810D01*
X54117905Y-42711667D02*
X54594096Y-42711667D01*
X54022667Y-42997381D02*
X54356000Y-41997381D01*
X54689334Y-42997381D01*
X59682095Y-42997381D02*
X59682095Y-41997381D01*
X60253524Y-42997381D02*
X59824952Y-42425952D01*
X60253524Y-41997381D02*
X59682095Y-42568810D01*
X35067905Y-42711667D02*
X35544096Y-42711667D01*
X34972667Y-42997381D02*
X35306000Y-41997381D01*
X35639334Y-42997381D01*
X40632095Y-42997381D02*
X40632095Y-41997381D01*
X41203524Y-42997381D02*
X40774952Y-42425952D01*
X41203524Y-41997381D02*
X40632095Y-42568810D01*
X387492905Y-23661667D02*
X387969096Y-23661667D01*
X387397667Y-23947381D02*
X387731000Y-22947381D01*
X388064334Y-23947381D01*
X393057095Y-23947381D02*
X393057095Y-22947381D01*
X393628524Y-23947381D02*
X393199952Y-23375952D01*
X393628524Y-22947381D02*
X393057095Y-23518810D01*
X368442905Y-23661667D02*
X368919096Y-23661667D01*
X368347667Y-23947381D02*
X368681000Y-22947381D01*
X369014334Y-23947381D01*
X374007095Y-23947381D02*
X374007095Y-22947381D01*
X374578524Y-23947381D02*
X374149952Y-23375952D01*
X374578524Y-22947381D02*
X374007095Y-23518810D01*
X335105405Y-23661667D02*
X335581596Y-23661667D01*
X335010167Y-23947381D02*
X335343500Y-22947381D01*
X335676834Y-23947381D01*
X340669595Y-23947381D02*
X340669595Y-22947381D01*
X341241024Y-23947381D02*
X340812452Y-23375952D01*
X341241024Y-22947381D02*
X340669595Y-23518810D01*
X306530405Y-23661667D02*
X307006596Y-23661667D01*
X306435167Y-23947381D02*
X306768500Y-22947381D01*
X307101834Y-23947381D01*
X312094595Y-23947381D02*
X312094595Y-22947381D01*
X312666024Y-23947381D02*
X312237452Y-23375952D01*
X312666024Y-22947381D02*
X312094595Y-23518810D01*
X287480405Y-23661667D02*
X287956596Y-23661667D01*
X287385167Y-23947381D02*
X287718500Y-22947381D01*
X288051834Y-23947381D01*
X293044595Y-23947381D02*
X293044595Y-22947381D01*
X293616024Y-23947381D02*
X293187452Y-23375952D01*
X293616024Y-22947381D02*
X293044595Y-23518810D01*
X268430405Y-23661667D02*
X268906596Y-23661667D01*
X268335167Y-23947381D02*
X268668500Y-22947381D01*
X269001834Y-23947381D01*
X273994595Y-23947381D02*
X273994595Y-22947381D01*
X274566024Y-23947381D02*
X274137452Y-23375952D01*
X274566024Y-22947381D02*
X273994595Y-23518810D01*
X249380405Y-23661667D02*
X249856596Y-23661667D01*
X249285167Y-23947381D02*
X249618500Y-22947381D01*
X249951834Y-23947381D01*
X254944595Y-23947381D02*
X254944595Y-22947381D01*
X255516024Y-23947381D02*
X255087452Y-23375952D01*
X255516024Y-22947381D02*
X254944595Y-23518810D01*
X230330405Y-23661667D02*
X230806596Y-23661667D01*
X230235167Y-23947381D02*
X230568500Y-22947381D01*
X230901834Y-23947381D01*
X235894595Y-23947381D02*
X235894595Y-22947381D01*
X236466024Y-23947381D02*
X236037452Y-23375952D01*
X236466024Y-22947381D02*
X235894595Y-23518810D01*
X211280405Y-23661667D02*
X211756596Y-23661667D01*
X211185167Y-23947381D02*
X211518500Y-22947381D01*
X211851834Y-23947381D01*
X216844595Y-23947381D02*
X216844595Y-22947381D01*
X217416024Y-23947381D02*
X216987452Y-23375952D01*
X217416024Y-22947381D02*
X216844595Y-23518810D01*
X192230405Y-23661667D02*
X192706596Y-23661667D01*
X192135167Y-23947381D02*
X192468500Y-22947381D01*
X192801834Y-23947381D01*
X197794595Y-23947381D02*
X197794595Y-22947381D01*
X198366024Y-23947381D02*
X197937452Y-23375952D01*
X198366024Y-22947381D02*
X197794595Y-23518810D01*
X173180405Y-23661667D02*
X173656596Y-23661667D01*
X173085167Y-23947381D02*
X173418500Y-22947381D01*
X173751834Y-23947381D01*
X178744595Y-23947381D02*
X178744595Y-22947381D01*
X179316024Y-23947381D02*
X178887452Y-23375952D01*
X179316024Y-22947381D02*
X178744595Y-23518810D01*
X154130405Y-23661667D02*
X154606596Y-23661667D01*
X154035167Y-23947381D02*
X154368500Y-22947381D01*
X154701834Y-23947381D01*
X159694595Y-23947381D02*
X159694595Y-22947381D01*
X160266024Y-23947381D02*
X159837452Y-23375952D01*
X160266024Y-22947381D02*
X159694595Y-23518810D01*
X135080405Y-23661667D02*
X135556596Y-23661667D01*
X134985167Y-23947381D02*
X135318500Y-22947381D01*
X135651834Y-23947381D01*
X140644595Y-23947381D02*
X140644595Y-22947381D01*
X141216024Y-23947381D02*
X140787452Y-23375952D01*
X141216024Y-22947381D02*
X140644595Y-23518810D01*
X116030405Y-23661667D02*
X116506596Y-23661667D01*
X115935167Y-23947381D02*
X116268500Y-22947381D01*
X116601834Y-23947381D01*
X121594595Y-23947381D02*
X121594595Y-22947381D01*
X122166024Y-23947381D02*
X121737452Y-23375952D01*
X122166024Y-22947381D02*
X121594595Y-23518810D01*
X96980405Y-23661667D02*
X97456596Y-23661667D01*
X96885167Y-23947381D02*
X97218500Y-22947381D01*
X97551834Y-23947381D01*
X102544595Y-23947381D02*
X102544595Y-22947381D01*
X103116024Y-23947381D02*
X102687452Y-23375952D01*
X103116024Y-22947381D02*
X102544595Y-23518810D01*
X77930405Y-23661667D02*
X78406596Y-23661667D01*
X77835167Y-23947381D02*
X78168500Y-22947381D01*
X78501834Y-23947381D01*
X83494595Y-23947381D02*
X83494595Y-22947381D01*
X84066024Y-23947381D02*
X83637452Y-23375952D01*
X84066024Y-22947381D02*
X83494595Y-23518810D01*
X54117905Y-23661667D02*
X54594096Y-23661667D01*
X54022667Y-23947381D02*
X54356000Y-22947381D01*
X54689334Y-23947381D01*
X59682095Y-23947381D02*
X59682095Y-22947381D01*
X60253524Y-23947381D02*
X59824952Y-23375952D01*
X60253524Y-22947381D02*
X59682095Y-23518810D01*
X35067905Y-23661667D02*
X35544096Y-23661667D01*
X34972667Y-23947381D02*
X35306000Y-22947381D01*
X35639334Y-23947381D01*
X40632095Y-23947381D02*
X40632095Y-22947381D01*
X41203524Y-23947381D02*
X40774952Y-23375952D01*
X41203524Y-22947381D02*
X40632095Y-23518810D01*
X388982143Y-82677381D02*
X388648809Y-82201190D01*
X388410714Y-82677381D02*
X388410714Y-81677381D01*
X388791667Y-81677381D01*
X388886905Y-81725000D01*
X388934524Y-81772619D01*
X388982143Y-81867857D01*
X388982143Y-82010714D01*
X388934524Y-82105952D01*
X388886905Y-82153571D01*
X388791667Y-82201190D01*
X388410714Y-82201190D01*
X389934524Y-81725000D02*
X389839286Y-81677381D01*
X389696429Y-81677381D01*
X389553571Y-81725000D01*
X389458333Y-81820238D01*
X389410714Y-81915476D01*
X389363095Y-82105952D01*
X389363095Y-82248810D01*
X389410714Y-82439286D01*
X389458333Y-82534524D01*
X389553571Y-82629762D01*
X389696429Y-82677381D01*
X389791667Y-82677381D01*
X389934524Y-82629762D01*
X389982143Y-82582143D01*
X389982143Y-82248810D01*
X389791667Y-82248810D01*
X390744048Y-82153571D02*
X390886905Y-82201190D01*
X390934524Y-82248810D01*
X390982143Y-82344048D01*
X390982143Y-82486905D01*
X390934524Y-82582143D01*
X390886905Y-82629762D01*
X390791667Y-82677381D01*
X390410714Y-82677381D01*
X390410714Y-81677381D01*
X390744048Y-81677381D01*
X390839286Y-81725000D01*
X390886905Y-81772619D01*
X390934524Y-81867857D01*
X390934524Y-81963095D01*
X390886905Y-82058333D01*
X390839286Y-82105952D01*
X390744048Y-82153571D01*
X390410714Y-82153571D01*
X391315476Y-81677381D02*
X391934524Y-81677381D01*
X391601190Y-82058333D01*
X391744048Y-82058333D01*
X391839286Y-82105952D01*
X391886905Y-82153571D01*
X391934524Y-82248810D01*
X391934524Y-82486905D01*
X391886905Y-82582143D01*
X391839286Y-82629762D01*
X391744048Y-82677381D01*
X391458333Y-82677381D01*
X391363095Y-82629762D01*
X391315476Y-82582143D01*
X392267857Y-81677381D02*
X392886905Y-81677381D01*
X392553571Y-82058333D01*
X392696429Y-82058333D01*
X392791667Y-82105952D01*
X392839286Y-82153571D01*
X392886905Y-82248810D01*
X392886905Y-82486905D01*
X392839286Y-82582143D01*
X392791667Y-82629762D01*
X392696429Y-82677381D01*
X392410714Y-82677381D01*
X392315476Y-82629762D01*
X392267857Y-82582143D01*
X388234524Y-84177381D02*
X387901190Y-83701190D01*
X387663095Y-84177381D02*
X387663095Y-83177381D01*
X388044048Y-83177381D01*
X388139286Y-83225000D01*
X388186905Y-83272619D01*
X388234524Y-83367857D01*
X388234524Y-83510714D01*
X388186905Y-83605952D01*
X388139286Y-83653571D01*
X388044048Y-83701190D01*
X387663095Y-83701190D01*
X393096429Y-87253571D02*
X393239286Y-87301190D01*
X393286905Y-87348810D01*
X393334524Y-87444048D01*
X393334524Y-87586905D01*
X393286905Y-87682143D01*
X393239286Y-87729762D01*
X393144048Y-87777381D01*
X392763095Y-87777381D01*
X392763095Y-86777381D01*
X393096429Y-86777381D01*
X393191667Y-86825000D01*
X393239286Y-86872619D01*
X393286905Y-86967857D01*
X393286905Y-87063095D01*
X393239286Y-87158333D01*
X393191667Y-87205952D01*
X393096429Y-87253571D01*
X392763095Y-87253571D01*
X387786905Y-86725000D02*
X387691667Y-86677381D01*
X387548810Y-86677381D01*
X387405952Y-86725000D01*
X387310714Y-86820238D01*
X387263095Y-86915476D01*
X387215476Y-87105952D01*
X387215476Y-87248810D01*
X387263095Y-87439286D01*
X387310714Y-87534524D01*
X387405952Y-87629762D01*
X387548810Y-87677381D01*
X387644048Y-87677381D01*
X387786905Y-87629762D01*
X387834524Y-87582143D01*
X387834524Y-87248810D01*
X387644048Y-87248810D01*
X393186905Y-83891667D02*
X393663096Y-83891667D01*
X393091667Y-84177381D02*
X393425000Y-83177381D01*
X393758334Y-84177381D01*
M02*
