G04 #@! TF.FileFunction,Soldermask,Bot*
%FSLAX46Y46*%
G04 Gerber Fmt 4.6, Leading zero omitted, Abs format (unit mm)*
G04 Created by KiCad (PCBNEW 4.0.3-stable) date Tuesday, August 30, 2016 'AMt' 11:28:48 AM*
%MOMM*%
%LPD*%
G01*
G04 APERTURE LIST*
%ADD10C,0.150000*%
%ADD11C,3.100000*%
%ADD12C,2.099260*%
%ADD13R,2.099260X2.099260*%
%ADD14C,5.400000*%
%ADD15R,2.150000X0.850000*%
%ADD16C,4.387810*%
%ADD17C,2.900000*%
%ADD18R,2.400000X2.400000*%
%ADD19C,2.400000*%
%ADD20R,0.950000X1.900000*%
%ADD21R,1.900000X0.950000*%
%ADD22R,1.900000X1.650000*%
%ADD23R,1.650000X1.900000*%
%ADD24R,1.901140X3.399740*%
%ADD25R,2.429460X3.051760*%
%ADD26R,0.900380X2.701240*%
%ADD27R,2.398980X2.899360*%
%ADD28C,1.299160*%
%ADD29R,1.400000X3.600000*%
%ADD30R,1.700000X2.400000*%
%ADD31R,1.900000X1.700000*%
%ADD32R,1.700000X1.900000*%
%ADD33R,2.000000X1.400000*%
%ADD34C,1.009600*%
%ADD35R,1.750000X1.750000*%
%ADD36C,1.750000*%
%ADD37R,4.400000X1.600000*%
G04 APERTURE END LIST*
D10*
D11*
X95250000Y-38100000D03*
X95250000Y-95250000D03*
D12*
X219712540Y-71755000D03*
D13*
X219712540Y-61595000D03*
D14*
X244500000Y-105500000D03*
X232000000Y-105500000D03*
D15*
X324148000Y-61307000D03*
X324148000Y-61957000D03*
X324148000Y-62607000D03*
X324148000Y-63257000D03*
X324148000Y-63907000D03*
X324148000Y-64557000D03*
X324148000Y-65207000D03*
X324148000Y-65857000D03*
X324148000Y-66507000D03*
X324148000Y-67157000D03*
X324148000Y-67807000D03*
X324148000Y-68457000D03*
X324148000Y-69107000D03*
X324148000Y-69757000D03*
X316948000Y-69757000D03*
X316948000Y-69107000D03*
X316948000Y-68457000D03*
X316948000Y-67807000D03*
X316948000Y-67157000D03*
X316948000Y-66507000D03*
X316948000Y-65857000D03*
X316948000Y-65207000D03*
X316948000Y-64557000D03*
X316948000Y-63907000D03*
X316948000Y-63257000D03*
X316948000Y-62607000D03*
X316948000Y-61957000D03*
X316948000Y-61307000D03*
D16*
X83343750Y-66675000D03*
D17*
X86343297Y-70674954D02*
X87154203Y-69215046D01*
X80804026Y-71754328D02*
X80843474Y-71175672D01*
D18*
X84613750Y-61595000D03*
D19*
X82073750Y-61595000D03*
D11*
X219075000Y-57150000D03*
X371475000Y-95250000D03*
X371475000Y-38100000D03*
X57150000Y-95250000D03*
D20*
X353708000Y-59974000D03*
X354508000Y-59974000D03*
X355308000Y-59974000D03*
X356108000Y-59974000D03*
X356908000Y-59974000D03*
X357708000Y-59974000D03*
X358508000Y-59974000D03*
X359308000Y-59974000D03*
X360108000Y-59974000D03*
X360908000Y-59974000D03*
X361708000Y-59974000D03*
D21*
X363408000Y-61674000D03*
X363408000Y-62474000D03*
X363408000Y-63274000D03*
X363408000Y-64074000D03*
X363408000Y-64874000D03*
X363408000Y-65674000D03*
X363408000Y-66474000D03*
X363408000Y-67274000D03*
X363408000Y-68074000D03*
X363408000Y-68874000D03*
X363408000Y-69674000D03*
D20*
X361708000Y-71374000D03*
X360908000Y-71374000D03*
X360108000Y-71374000D03*
X359308000Y-71374000D03*
X358508000Y-71374000D03*
X357708000Y-71374000D03*
X356908000Y-71374000D03*
X356108000Y-71374000D03*
X355308000Y-71374000D03*
X354508000Y-71374000D03*
X353708000Y-71374000D03*
D21*
X352008000Y-69674000D03*
X352008000Y-68874000D03*
X352008000Y-68074000D03*
X352008000Y-67274000D03*
X352008000Y-66474000D03*
X352008000Y-65674000D03*
X352008000Y-64874000D03*
X352008000Y-64074000D03*
X352008000Y-63274000D03*
X352008000Y-62474000D03*
X352008000Y-61674000D03*
D12*
X90805000Y-22860000D03*
D13*
X90805000Y-33020000D03*
D12*
X381508000Y-109474000D03*
D13*
X381508000Y-99314000D03*
D12*
X35559480Y-36578540D03*
D13*
X45719480Y-36578540D03*
D12*
X48260000Y-22860000D03*
D13*
X48260000Y-33020000D03*
D12*
X76707480Y-36832540D03*
D13*
X86867480Y-36832540D03*
D12*
X109982000Y-22860000D03*
D13*
X109982000Y-33020000D03*
D12*
X129032000Y-22860000D03*
D13*
X129032000Y-33020000D03*
D12*
X148082000Y-22860000D03*
D13*
X148082000Y-33020000D03*
D12*
X167132000Y-22860000D03*
D13*
X167132000Y-33020000D03*
D12*
X186182000Y-22860000D03*
D13*
X186182000Y-33020000D03*
D12*
X205232000Y-22860000D03*
D13*
X205232000Y-33020000D03*
D12*
X224282000Y-22860000D03*
D13*
X224282000Y-33020000D03*
D12*
X243332000Y-22860000D03*
D13*
X243332000Y-33020000D03*
D12*
X262382000Y-22860000D03*
D13*
X262382000Y-33020000D03*
D12*
X281432000Y-22860000D03*
D13*
X281432000Y-33020000D03*
D12*
X300482000Y-22860000D03*
D13*
X300482000Y-33020000D03*
D12*
X320500000Y-22860000D03*
D13*
X320500000Y-33020000D03*
D12*
X380994920Y-23495000D03*
D13*
X380994920Y-33655000D03*
D12*
X395605000Y-36830000D03*
D13*
X385445000Y-36830000D03*
D12*
X35559480Y-39626540D03*
D13*
X45719480Y-39626540D03*
D12*
X48262540Y-52324520D03*
D13*
X48262540Y-42164520D03*
D12*
X94615000Y-53594000D03*
D13*
X94615000Y-43434000D03*
D12*
X100586540Y-53594000D03*
D13*
X100586540Y-43434000D03*
D12*
X119636540Y-52324520D03*
D13*
X119636540Y-42164520D03*
D12*
X138686540Y-52324520D03*
D13*
X138686540Y-42164520D03*
D12*
X157736540Y-52324520D03*
D13*
X157736540Y-42164520D03*
D12*
X176786540Y-52324520D03*
D13*
X176786540Y-42164520D03*
D12*
X195836540Y-52324520D03*
D13*
X195836540Y-42164520D03*
D12*
X214886540Y-52324520D03*
D13*
X214886540Y-42164520D03*
D12*
X233936540Y-52324520D03*
D13*
X233936540Y-42164520D03*
D12*
X252986540Y-52324520D03*
D13*
X252986540Y-42164520D03*
D12*
X272036540Y-52324520D03*
D13*
X272036540Y-42164520D03*
D12*
X291086540Y-52324520D03*
D13*
X291086540Y-42164520D03*
D12*
X310136540Y-52324520D03*
D13*
X310136540Y-42164520D03*
D12*
X334012540Y-52324520D03*
D13*
X334012540Y-42164520D03*
D12*
X368935000Y-55626000D03*
D13*
X379095000Y-55626000D03*
D12*
X381508000Y-52415000D03*
D13*
X381508000Y-42255000D03*
D12*
X35559480Y-74932540D03*
D13*
X45719480Y-74932540D03*
D12*
X48262540Y-71374520D03*
D13*
X48262540Y-61214520D03*
D12*
X90170000Y-74676000D03*
D13*
X100330000Y-74676000D03*
D12*
X105158540Y-71120520D03*
D13*
X105158540Y-60960520D03*
D12*
X124462540Y-71120520D03*
D13*
X124462540Y-60960520D03*
D12*
X143512540Y-71120520D03*
D13*
X143512540Y-60960520D03*
D12*
X162562540Y-71120520D03*
D13*
X162562540Y-60960520D03*
D12*
X181612540Y-71120520D03*
D13*
X181612540Y-60960520D03*
D12*
X209804000Y-74676000D03*
D13*
X219964000Y-74676000D03*
D12*
X238762540Y-70866520D03*
D13*
X238762540Y-60706520D03*
D12*
X257812540Y-70866520D03*
D13*
X257812540Y-60706520D03*
D12*
X276862540Y-70866520D03*
D13*
X276862540Y-60706520D03*
D12*
X295912540Y-70866520D03*
D13*
X295912540Y-60706520D03*
D12*
X332740000Y-74930000D03*
D13*
X342900000Y-74930000D03*
D12*
X35559480Y-77472540D03*
D13*
X45719480Y-77472540D03*
D12*
X48262540Y-90424520D03*
D13*
X48262540Y-80264520D03*
D12*
X90170000Y-77216000D03*
D13*
X100330000Y-77216000D03*
D12*
X114810540Y-90424520D03*
D13*
X114810540Y-80264520D03*
D12*
X133860540Y-90424520D03*
D13*
X133860540Y-80264520D03*
D12*
X152910540Y-90424520D03*
D13*
X152910540Y-80264520D03*
D12*
X171960540Y-90424520D03*
D13*
X171960540Y-80264520D03*
D12*
X191010540Y-90424520D03*
D13*
X191010540Y-80264520D03*
D12*
X210060540Y-90424520D03*
D13*
X210060540Y-80264520D03*
D12*
X229110540Y-90424520D03*
D13*
X229110540Y-80264520D03*
D12*
X248160540Y-90424520D03*
D13*
X248160540Y-80264520D03*
D12*
X267210540Y-90424520D03*
D13*
X267210540Y-80264520D03*
D12*
X286260540Y-90424520D03*
D13*
X286260540Y-80264520D03*
D12*
X340000000Y-109474520D03*
D13*
X340000000Y-99314520D03*
D12*
X380494540Y-90424520D03*
D13*
X380494540Y-80264520D03*
D12*
X35559480Y-96522540D03*
D13*
X45719480Y-96522540D03*
D12*
X48262540Y-109474520D03*
D13*
X48262540Y-99314520D03*
D12*
X92712540Y-109347000D03*
D13*
X92712540Y-99187000D03*
D12*
X115951000Y-109347000D03*
D13*
X115951000Y-99187000D03*
D12*
X122176540Y-109474520D03*
D13*
X122176540Y-99314520D03*
D12*
X182880000Y-99314000D03*
D13*
X193040000Y-99314000D03*
D12*
X264924540Y-109474520D03*
D13*
X264924540Y-99314520D03*
D12*
X288546540Y-109474520D03*
D13*
X288546540Y-99314520D03*
D12*
X312422540Y-109474520D03*
D13*
X312422540Y-99314520D03*
D12*
X343410540Y-109474520D03*
D13*
X343410540Y-99314520D03*
D12*
X362460540Y-109474520D03*
D13*
X362460540Y-99314520D03*
D22*
X107930000Y-78232000D03*
X105430000Y-78232000D03*
D16*
X330993750Y-85725000D03*
D17*
X333993297Y-89724954D02*
X334804203Y-88265046D01*
X328454026Y-90804328D02*
X328493474Y-90225672D01*
D18*
X332263750Y-80645000D03*
D19*
X329723750Y-80645000D03*
D16*
X390525000Y-104775000D03*
D17*
X393524547Y-108774954D02*
X394335453Y-107315046D01*
X387985276Y-109854328D02*
X388024724Y-109275672D01*
D18*
X391795000Y-99695000D03*
D19*
X389255000Y-99695000D03*
D16*
X371475000Y-104775000D03*
D17*
X374474547Y-108774954D02*
X375285453Y-107315046D01*
X368935276Y-109854328D02*
X368974724Y-109275672D01*
D18*
X372745000Y-99695000D03*
D19*
X370205000Y-99695000D03*
D16*
X352425000Y-104775000D03*
D17*
X355424547Y-108774954D02*
X356235453Y-107315046D01*
X349885276Y-109854328D02*
X349924724Y-109275672D01*
D18*
X353695000Y-99695000D03*
D19*
X351155000Y-99695000D03*
D16*
X321468750Y-104775000D03*
D17*
X324468297Y-108774954D02*
X325279203Y-107315046D01*
X318929026Y-109854328D02*
X318968474Y-109275672D01*
D18*
X322738750Y-99695000D03*
D19*
X320198750Y-99695000D03*
D16*
X297656250Y-104775000D03*
D17*
X300655797Y-108774954D02*
X301466703Y-107315046D01*
X295116526Y-109854328D02*
X295155974Y-109275672D01*
D18*
X298926250Y-99695000D03*
D19*
X296386250Y-99695000D03*
D16*
X273843750Y-104775000D03*
D17*
X276843297Y-108774954D02*
X277654203Y-107315046D01*
X271304026Y-109854328D02*
X271343474Y-109275672D01*
D18*
X275113750Y-99695000D03*
D19*
X272573750Y-99695000D03*
D16*
X202406250Y-104775000D03*
D17*
X205405797Y-108774954D02*
X206216703Y-107315046D01*
X199866526Y-109854328D02*
X199905974Y-109275672D01*
D18*
X203676250Y-99695000D03*
D19*
X201136250Y-99695000D03*
D16*
X130968750Y-104775000D03*
D17*
X133968297Y-108774954D02*
X134779203Y-107315046D01*
X128429026Y-109854328D02*
X128468474Y-109275672D01*
D18*
X132238750Y-99695000D03*
D19*
X129698750Y-99695000D03*
D16*
X107156250Y-104775000D03*
D17*
X110155797Y-108774954D02*
X110966703Y-107315046D01*
X104616526Y-109854328D02*
X104655974Y-109275672D01*
D18*
X108426250Y-99695000D03*
D19*
X105886250Y-99695000D03*
D16*
X83343750Y-104775000D03*
D17*
X86343297Y-108774954D02*
X87154203Y-107315046D01*
X80804026Y-109854328D02*
X80843474Y-109275672D01*
D18*
X84613750Y-99695000D03*
D19*
X82073750Y-99695000D03*
D16*
X57150000Y-104775000D03*
D17*
X60149547Y-108774954D02*
X60960453Y-107315046D01*
X54610276Y-109854328D02*
X54649724Y-109275672D01*
D18*
X58420000Y-99695000D03*
D19*
X55880000Y-99695000D03*
D16*
X38100000Y-104775000D03*
D17*
X41099547Y-108774954D02*
X41910453Y-107315046D01*
X35560276Y-109854328D02*
X35599724Y-109275672D01*
D18*
X39370000Y-99695000D03*
D19*
X36830000Y-99695000D03*
D16*
X371475000Y-85725000D03*
D17*
X374474547Y-89724954D02*
X375285453Y-88265046D01*
X368935276Y-90804328D02*
X368974724Y-90225672D01*
D18*
X372745000Y-80645000D03*
D19*
X370205000Y-80645000D03*
D16*
X295275000Y-85725000D03*
D17*
X298274547Y-89724954D02*
X299085453Y-88265046D01*
X292735276Y-90804328D02*
X292774724Y-90225672D01*
D18*
X296545000Y-80645000D03*
D19*
X294005000Y-80645000D03*
D16*
X276225000Y-85725000D03*
D17*
X279224547Y-89724954D02*
X280035453Y-88265046D01*
X273685276Y-90804328D02*
X273724724Y-90225672D01*
D18*
X277495000Y-80645000D03*
D19*
X274955000Y-80645000D03*
D16*
X257175000Y-85725000D03*
D17*
X260174547Y-89724954D02*
X260985453Y-88265046D01*
X254635276Y-90804328D02*
X254674724Y-90225672D01*
D18*
X258445000Y-80645000D03*
D19*
X255905000Y-80645000D03*
D16*
X238125000Y-85725000D03*
D17*
X241124547Y-89724954D02*
X241935453Y-88265046D01*
X235585276Y-90804328D02*
X235624724Y-90225672D01*
D18*
X239395000Y-80645000D03*
D19*
X236855000Y-80645000D03*
D16*
X219075000Y-85725000D03*
D17*
X222074547Y-89724954D02*
X222885453Y-88265046D01*
X216535276Y-90804328D02*
X216574724Y-90225672D01*
D18*
X220345000Y-80645000D03*
D19*
X217805000Y-80645000D03*
D16*
X200025000Y-85725000D03*
D17*
X203024547Y-89724954D02*
X203835453Y-88265046D01*
X197485276Y-90804328D02*
X197524724Y-90225672D01*
D18*
X201295000Y-80645000D03*
D19*
X198755000Y-80645000D03*
D16*
X180975000Y-85725000D03*
D17*
X183974547Y-89724954D02*
X184785453Y-88265046D01*
X178435276Y-90804328D02*
X178474724Y-90225672D01*
D18*
X182245000Y-80645000D03*
D19*
X179705000Y-80645000D03*
D16*
X161925000Y-85725000D03*
D17*
X164924547Y-89724954D02*
X165735453Y-88265046D01*
X159385276Y-90804328D02*
X159424724Y-90225672D01*
D18*
X163195000Y-80645000D03*
D19*
X160655000Y-80645000D03*
D16*
X142875000Y-85725000D03*
D17*
X145874547Y-89724954D02*
X146685453Y-88265046D01*
X140335276Y-90804328D02*
X140374724Y-90225672D01*
D18*
X144145000Y-80645000D03*
D19*
X141605000Y-80645000D03*
D16*
X123825000Y-85725000D03*
D17*
X126824547Y-89724954D02*
X127635453Y-88265046D01*
X121285276Y-90804328D02*
X121324724Y-90225672D01*
D18*
X125095000Y-80645000D03*
D19*
X122555000Y-80645000D03*
D16*
X92868750Y-85725000D03*
D17*
X95868297Y-89724954D02*
X96679203Y-88265046D01*
X90329026Y-90804328D02*
X90368474Y-90225672D01*
D18*
X94138750Y-80645000D03*
D19*
X91598750Y-80645000D03*
D16*
X57150000Y-85725000D03*
D17*
X60149547Y-89724954D02*
X60960453Y-88265046D01*
X54610276Y-90804328D02*
X54649724Y-90225672D01*
D18*
X58420000Y-80645000D03*
D19*
X55880000Y-80645000D03*
D16*
X38100000Y-85725000D03*
D17*
X41099547Y-89724954D02*
X41910453Y-88265046D01*
X35560276Y-90804328D02*
X35599724Y-90225672D01*
D18*
X39370000Y-80645000D03*
D19*
X36830000Y-80645000D03*
D16*
X335756250Y-66675000D03*
D17*
X338755797Y-70674954D02*
X339566703Y-69215046D01*
X333216526Y-71754328D02*
X333255974Y-71175672D01*
D18*
X337026250Y-61595000D03*
D19*
X334486250Y-61595000D03*
D16*
X304800000Y-66675000D03*
D17*
X307799547Y-70674954D02*
X308610453Y-69215046D01*
X302260276Y-71754328D02*
X302299724Y-71175672D01*
D18*
X306070000Y-61595000D03*
D19*
X303530000Y-61595000D03*
D16*
X285750000Y-66675000D03*
D17*
X288749547Y-70674954D02*
X289560453Y-69215046D01*
X283210276Y-71754328D02*
X283249724Y-71175672D01*
D18*
X287020000Y-61595000D03*
D19*
X284480000Y-61595000D03*
D16*
X266700000Y-66675000D03*
D17*
X269699547Y-70674954D02*
X270510453Y-69215046D01*
X264160276Y-71754328D02*
X264199724Y-71175672D01*
D18*
X267970000Y-61595000D03*
D19*
X265430000Y-61595000D03*
D16*
X247650000Y-66675000D03*
D17*
X250649547Y-70674954D02*
X251460453Y-69215046D01*
X245110276Y-71754328D02*
X245149724Y-71175672D01*
D18*
X248920000Y-61595000D03*
D19*
X246380000Y-61595000D03*
D16*
X228600000Y-66675000D03*
D17*
X231599547Y-70674954D02*
X232410453Y-69215046D01*
X226060276Y-71754328D02*
X226099724Y-71175672D01*
D18*
X229870000Y-61595000D03*
D19*
X227330000Y-61595000D03*
D16*
X209550000Y-66675000D03*
D17*
X212549547Y-70674954D02*
X213360453Y-69215046D01*
X207010276Y-71754328D02*
X207049724Y-71175672D01*
D18*
X210820000Y-61595000D03*
D19*
X208280000Y-61595000D03*
D16*
X190500000Y-66675000D03*
D17*
X193499547Y-70674954D02*
X194310453Y-69215046D01*
X187960276Y-71754328D02*
X187999724Y-71175672D01*
D18*
X191770000Y-61595000D03*
D19*
X189230000Y-61595000D03*
D16*
X171450000Y-66675000D03*
D17*
X174449547Y-70674954D02*
X175260453Y-69215046D01*
X168910276Y-71754328D02*
X168949724Y-71175672D01*
D18*
X172720000Y-61595000D03*
D19*
X170180000Y-61595000D03*
D16*
X152400000Y-66675000D03*
D17*
X155399547Y-70674954D02*
X156210453Y-69215046D01*
X149860276Y-71754328D02*
X149899724Y-71175672D01*
D18*
X153670000Y-61595000D03*
D19*
X151130000Y-61595000D03*
D16*
X133350000Y-66675000D03*
D17*
X136349547Y-70674954D02*
X137160453Y-69215046D01*
X130810276Y-71754328D02*
X130849724Y-71175672D01*
D18*
X134620000Y-61595000D03*
D19*
X132080000Y-61595000D03*
D16*
X114300000Y-66675000D03*
D17*
X117299547Y-70674954D02*
X118110453Y-69215046D01*
X111760276Y-71754328D02*
X111799724Y-71175672D01*
D18*
X115570000Y-61595000D03*
D19*
X113030000Y-61595000D03*
D16*
X88106250Y-66675000D03*
D17*
X91105797Y-70674954D02*
X91916703Y-69215046D01*
X85566526Y-71754328D02*
X85605974Y-71175672D01*
D18*
X89376250Y-61595000D03*
D19*
X86836250Y-61595000D03*
D16*
X57150000Y-66675000D03*
D17*
X60149547Y-70674954D02*
X60960453Y-69215046D01*
X54610276Y-71754328D02*
X54649724Y-71175672D01*
D18*
X58420000Y-61595000D03*
D19*
X55880000Y-61595000D03*
D16*
X38100000Y-66675000D03*
D17*
X41099547Y-70674954D02*
X41910453Y-69215046D01*
X35560276Y-71754328D02*
X35599724Y-71175672D01*
D18*
X39370000Y-61595000D03*
D19*
X36830000Y-61595000D03*
D16*
X390525000Y-47625000D03*
D17*
X393524547Y-51624954D02*
X394335453Y-50165046D01*
X387985276Y-52704328D02*
X388024724Y-52125672D01*
D18*
X391795000Y-42545000D03*
D19*
X389255000Y-42545000D03*
D16*
X371475000Y-47625000D03*
D17*
X374474547Y-51624954D02*
X375285453Y-50165046D01*
X368935276Y-52704328D02*
X368974724Y-52125672D01*
D18*
X372745000Y-42545000D03*
D19*
X370205000Y-42545000D03*
D16*
X342900000Y-47625000D03*
D17*
X345899547Y-51624954D02*
X346710453Y-50165046D01*
X340360276Y-52704328D02*
X340399724Y-52125672D01*
D18*
X344170000Y-42545000D03*
D19*
X341630000Y-42545000D03*
D16*
X319087500Y-47625000D03*
D17*
X322087047Y-51624954D02*
X322897953Y-50165046D01*
X316547776Y-52704328D02*
X316587224Y-52125672D01*
D18*
X320357500Y-42545000D03*
D19*
X317817500Y-42545000D03*
D16*
X300037500Y-47625000D03*
D17*
X303037047Y-51624954D02*
X303847953Y-50165046D01*
X297497776Y-52704328D02*
X297537224Y-52125672D01*
D18*
X301307500Y-42545000D03*
D19*
X298767500Y-42545000D03*
D16*
X280987500Y-47625000D03*
D17*
X283987047Y-51624954D02*
X284797953Y-50165046D01*
X278447776Y-52704328D02*
X278487224Y-52125672D01*
D18*
X282257500Y-42545000D03*
D19*
X279717500Y-42545000D03*
D16*
X261937500Y-47625000D03*
D17*
X264937047Y-51624954D02*
X265747953Y-50165046D01*
X259397776Y-52704328D02*
X259437224Y-52125672D01*
D18*
X263207500Y-42545000D03*
D19*
X260667500Y-42545000D03*
D16*
X242887500Y-47625000D03*
D17*
X245887047Y-51624954D02*
X246697953Y-50165046D01*
X240347776Y-52704328D02*
X240387224Y-52125672D01*
D18*
X244157500Y-42545000D03*
D19*
X241617500Y-42545000D03*
D16*
X223837500Y-47625000D03*
D17*
X226837047Y-51624954D02*
X227647953Y-50165046D01*
X221297776Y-52704328D02*
X221337224Y-52125672D01*
D18*
X225107500Y-42545000D03*
D19*
X222567500Y-42545000D03*
D16*
X204787500Y-47625000D03*
D17*
X207787047Y-51624954D02*
X208597953Y-50165046D01*
X202247776Y-52704328D02*
X202287224Y-52125672D01*
D18*
X206057500Y-42545000D03*
D19*
X203517500Y-42545000D03*
D16*
X185737500Y-47625000D03*
D17*
X188737047Y-51624954D02*
X189547953Y-50165046D01*
X183197776Y-52704328D02*
X183237224Y-52125672D01*
D18*
X187007500Y-42545000D03*
D19*
X184467500Y-42545000D03*
D16*
X166687500Y-47625000D03*
D17*
X169687047Y-51624954D02*
X170497953Y-50165046D01*
X164147776Y-52704328D02*
X164187224Y-52125672D01*
D18*
X167957500Y-42545000D03*
D19*
X165417500Y-42545000D03*
D16*
X147637500Y-47625000D03*
D17*
X150637047Y-51624954D02*
X151447953Y-50165046D01*
X145097776Y-52704328D02*
X145137224Y-52125672D01*
D18*
X148907500Y-42545000D03*
D19*
X146367500Y-42545000D03*
D16*
X128587500Y-47625000D03*
D17*
X131587047Y-51624954D02*
X132397953Y-50165046D01*
X126047776Y-52704328D02*
X126087224Y-52125672D01*
D18*
X129857500Y-42545000D03*
D19*
X127317500Y-42545000D03*
D16*
X109537500Y-47625000D03*
D17*
X112537047Y-51624954D02*
X113347953Y-50165046D01*
X106997776Y-52704328D02*
X107037224Y-52125672D01*
D18*
X110807500Y-42545000D03*
D19*
X108267500Y-42545000D03*
D16*
X85725000Y-47625000D03*
D17*
X88724547Y-51624954D02*
X89535453Y-50165046D01*
X83185276Y-52704328D02*
X83224724Y-52125672D01*
D18*
X86995000Y-42545000D03*
D19*
X84455000Y-42545000D03*
D16*
X57150000Y-47625000D03*
D17*
X60149547Y-51624954D02*
X60960453Y-50165046D01*
X54610276Y-52704328D02*
X54649724Y-52125672D01*
D18*
X58420000Y-42545000D03*
D19*
X55880000Y-42545000D03*
D16*
X38100000Y-47625000D03*
D17*
X41099547Y-51624954D02*
X41910453Y-50165046D01*
X35560276Y-52704328D02*
X35599724Y-52125672D01*
D18*
X39370000Y-42545000D03*
D19*
X36830000Y-42545000D03*
D16*
X390525000Y-28575000D03*
D17*
X393524547Y-32574954D02*
X394335453Y-31115046D01*
X387985276Y-33654328D02*
X388024724Y-33075672D01*
D18*
X391795000Y-23495000D03*
D19*
X389255000Y-23495000D03*
D16*
X371475000Y-28575000D03*
D17*
X374474547Y-32574954D02*
X375285453Y-31115046D01*
X368935276Y-33654328D02*
X368974724Y-33075672D01*
D18*
X372745000Y-23495000D03*
D19*
X370205000Y-23495000D03*
D16*
X338137500Y-28575000D03*
D17*
X341137047Y-32574954D02*
X341947953Y-31115046D01*
X335597776Y-33654328D02*
X335637224Y-33075672D01*
D18*
X339407500Y-23495000D03*
D19*
X336867500Y-23495000D03*
D16*
X309562500Y-28575000D03*
D17*
X312562047Y-32574954D02*
X313372953Y-31115046D01*
X307022776Y-33654328D02*
X307062224Y-33075672D01*
D18*
X310832500Y-23495000D03*
D19*
X308292500Y-23495000D03*
D16*
X290512500Y-28575000D03*
D17*
X293512047Y-32574954D02*
X294322953Y-31115046D01*
X287972776Y-33654328D02*
X288012224Y-33075672D01*
D18*
X291782500Y-23495000D03*
D19*
X289242500Y-23495000D03*
D16*
X271462500Y-28575000D03*
D17*
X274462047Y-32574954D02*
X275272953Y-31115046D01*
X268922776Y-33654328D02*
X268962224Y-33075672D01*
D18*
X272732500Y-23495000D03*
D19*
X270192500Y-23495000D03*
D16*
X252412500Y-28575000D03*
D17*
X255412047Y-32574954D02*
X256222953Y-31115046D01*
X249872776Y-33654328D02*
X249912224Y-33075672D01*
D18*
X253682500Y-23495000D03*
D19*
X251142500Y-23495000D03*
D16*
X233362500Y-28575000D03*
D17*
X236362047Y-32574954D02*
X237172953Y-31115046D01*
X230822776Y-33654328D02*
X230862224Y-33075672D01*
D18*
X234632500Y-23495000D03*
D19*
X232092500Y-23495000D03*
D16*
X214312500Y-28575000D03*
D17*
X217312047Y-32574954D02*
X218122953Y-31115046D01*
X211772776Y-33654328D02*
X211812224Y-33075672D01*
D18*
X215582500Y-23495000D03*
D19*
X213042500Y-23495000D03*
D16*
X195262500Y-28575000D03*
D17*
X198262047Y-32574954D02*
X199072953Y-31115046D01*
X192722776Y-33654328D02*
X192762224Y-33075672D01*
D18*
X196532500Y-23495000D03*
D19*
X193992500Y-23495000D03*
D16*
X176212500Y-28575000D03*
D17*
X179212047Y-32574954D02*
X180022953Y-31115046D01*
X173672776Y-33654328D02*
X173712224Y-33075672D01*
D18*
X177482500Y-23495000D03*
D19*
X174942500Y-23495000D03*
D16*
X157162500Y-28575000D03*
D17*
X160162047Y-32574954D02*
X160972953Y-31115046D01*
X154622776Y-33654328D02*
X154662224Y-33075672D01*
D18*
X158432500Y-23495000D03*
D19*
X155892500Y-23495000D03*
D16*
X138112500Y-28575000D03*
D17*
X141112047Y-32574954D02*
X141922953Y-31115046D01*
X135572776Y-33654328D02*
X135612224Y-33075672D01*
D18*
X139382500Y-23495000D03*
D19*
X136842500Y-23495000D03*
D16*
X119062500Y-28575000D03*
D17*
X122062047Y-32574954D02*
X122872953Y-31115046D01*
X116522776Y-33654328D02*
X116562224Y-33075672D01*
D18*
X120332500Y-23495000D03*
D19*
X117792500Y-23495000D03*
D16*
X100012500Y-28575000D03*
D17*
X103012047Y-32574954D02*
X103822953Y-31115046D01*
X97472776Y-33654328D02*
X97512224Y-33075672D01*
D18*
X101282500Y-23495000D03*
D19*
X98742500Y-23495000D03*
D16*
X80962500Y-28575000D03*
D17*
X83962047Y-32574954D02*
X84772953Y-31115046D01*
X78422776Y-33654328D02*
X78462224Y-33075672D01*
D18*
X82232500Y-23495000D03*
D19*
X79692500Y-23495000D03*
D16*
X57150000Y-28575000D03*
D17*
X60149547Y-32574954D02*
X60960453Y-31115046D01*
X54610276Y-33654328D02*
X54649724Y-33075672D01*
D18*
X58420000Y-23495000D03*
D19*
X55880000Y-23495000D03*
D16*
X38100000Y-28575000D03*
D17*
X41099547Y-32574954D02*
X41910453Y-31115046D01*
X35560276Y-33654328D02*
X35599724Y-33075672D01*
D18*
X39370000Y-23495000D03*
D19*
X36830000Y-23495000D03*
D22*
X107930000Y-76200000D03*
X105430000Y-76200000D03*
D23*
X100584000Y-89916000D03*
X100584000Y-87416000D03*
D24*
X349250000Y-31275020D03*
X349250000Y-35272980D03*
D23*
X349504000Y-69830000D03*
X349504000Y-67330000D03*
D22*
X360954000Y-73914000D03*
X363454000Y-73914000D03*
X366542000Y-59944000D03*
X369042000Y-59944000D03*
X361930000Y-56642000D03*
X359430000Y-56642000D03*
D23*
X371602000Y-69068000D03*
X371602000Y-66568000D03*
X371602000Y-61488000D03*
X371602000Y-63988000D03*
D22*
X361930000Y-54610000D03*
X359430000Y-54610000D03*
D23*
X349504000Y-64242000D03*
X349504000Y-61742000D03*
D25*
X352552000Y-31188660D03*
X352552000Y-35359340D03*
D26*
X355399800Y-27449320D03*
X356199900Y-27449320D03*
X357000000Y-27449320D03*
X357800100Y-27449320D03*
X358600200Y-27449320D03*
D27*
X352549920Y-27350260D03*
X352549920Y-21851160D03*
X361450080Y-27350260D03*
X361450080Y-21851160D03*
D28*
X354800360Y-24850900D03*
X359199640Y-24850900D03*
D29*
X392525000Y-63275000D03*
X392525000Y-70075000D03*
X388525000Y-70075000D03*
X388525000Y-63275000D03*
D30*
X366973000Y-67024000D03*
X366973000Y-63024000D03*
X369373000Y-63024000D03*
X369373000Y-67024000D03*
D31*
X391240000Y-92202000D03*
X388540000Y-92202000D03*
X112602000Y-78232000D03*
X109902000Y-78232000D03*
X113966000Y-84328000D03*
X116666000Y-84328000D03*
X391240000Y-80518000D03*
X388540000Y-80518000D03*
X391240000Y-89916000D03*
X388540000Y-89916000D03*
D32*
X354900000Y-56534000D03*
X354900000Y-53834000D03*
X356525000Y-56534000D03*
X356525000Y-53834000D03*
D31*
X388446000Y-59944000D03*
X385746000Y-59944000D03*
D11*
X57150000Y-38100000D03*
D15*
X110661000Y-81119000D03*
X110661000Y-81769000D03*
X110661000Y-82419000D03*
X110661000Y-83069000D03*
X110661000Y-83719000D03*
X110661000Y-84369000D03*
X110661000Y-85019000D03*
X110661000Y-85669000D03*
X110661000Y-86319000D03*
X110661000Y-86969000D03*
X110661000Y-87619000D03*
X110661000Y-88269000D03*
X110661000Y-88919000D03*
X110661000Y-89569000D03*
X103461000Y-89569000D03*
X103461000Y-88919000D03*
X103461000Y-88269000D03*
X103461000Y-87619000D03*
X103461000Y-86969000D03*
X103461000Y-86319000D03*
X103461000Y-85669000D03*
X103461000Y-85019000D03*
X103461000Y-84369000D03*
X103461000Y-83719000D03*
X103461000Y-83069000D03*
X103461000Y-82419000D03*
X103461000Y-81769000D03*
X103461000Y-81119000D03*
D31*
X327326000Y-64516000D03*
X330026000Y-64516000D03*
X326470000Y-58420000D03*
X323770000Y-58420000D03*
D23*
X314452000Y-71862000D03*
X314452000Y-69362000D03*
X312420000Y-71862000D03*
X312420000Y-69362000D03*
D22*
X321564000Y-58420000D03*
X319064000Y-58420000D03*
D31*
X312594000Y-76708000D03*
X315294000Y-76708000D03*
X312594000Y-74676000D03*
X315294000Y-74676000D03*
D33*
X204140000Y-94278000D03*
X204140000Y-95778000D03*
X200940000Y-94278000D03*
X200940000Y-95778000D03*
X385267000Y-56082500D03*
X385267000Y-57582500D03*
X382067000Y-56082500D03*
X382067000Y-57582500D03*
X379140000Y-37350000D03*
X379140000Y-38850000D03*
X375940000Y-37350000D03*
X375940000Y-38850000D03*
X385648000Y-77990000D03*
X385648000Y-79490000D03*
X382448000Y-77990000D03*
X382448000Y-79490000D03*
X379140000Y-94278000D03*
X379140000Y-95778000D03*
X375940000Y-94278000D03*
X375940000Y-95778000D03*
X354140000Y-94278000D03*
X354140000Y-95778000D03*
X350940000Y-94278000D03*
X350940000Y-95778000D03*
X329140000Y-94278000D03*
X329140000Y-95778000D03*
X325940000Y-94278000D03*
X325940000Y-95778000D03*
X254140000Y-94278000D03*
X254140000Y-95778000D03*
X250940000Y-94278000D03*
X250940000Y-95778000D03*
X279140000Y-94278000D03*
X279140000Y-95778000D03*
X275940000Y-94278000D03*
X275940000Y-95778000D03*
X329140000Y-37350000D03*
X329140000Y-38850000D03*
X325940000Y-37350000D03*
X325940000Y-38850000D03*
X254140000Y-37350000D03*
X254140000Y-38850000D03*
X250940000Y-37350000D03*
X250940000Y-38850000D03*
X229140000Y-94278000D03*
X229140000Y-95778000D03*
X225940000Y-94278000D03*
X225940000Y-95778000D03*
X304140000Y-94278000D03*
X304140000Y-95778000D03*
X300940000Y-94278000D03*
X300940000Y-95778000D03*
X304140000Y-37350000D03*
X304140000Y-38850000D03*
X300940000Y-37350000D03*
X300940000Y-38850000D03*
X229140000Y-37350000D03*
X229140000Y-38850000D03*
X225940000Y-37350000D03*
X225940000Y-38850000D03*
X279140000Y-37350000D03*
X279140000Y-38850000D03*
X275940000Y-37350000D03*
X275940000Y-38850000D03*
X154140000Y-37350000D03*
X154140000Y-38850000D03*
X150940000Y-37350000D03*
X150940000Y-38850000D03*
X51384000Y-75208000D03*
X51384000Y-76708000D03*
X48184000Y-75208000D03*
X48184000Y-76708000D03*
X179140000Y-37350000D03*
X179140000Y-38850000D03*
X175940000Y-37350000D03*
X175940000Y-38850000D03*
X129140000Y-94278000D03*
X129140000Y-95778000D03*
X125940000Y-94278000D03*
X125940000Y-95778000D03*
X154140000Y-94278000D03*
X154140000Y-95778000D03*
X150940000Y-94278000D03*
X150940000Y-95778000D03*
X179140000Y-94278000D03*
X179140000Y-95778000D03*
X175940000Y-94278000D03*
X175940000Y-95778000D03*
X129140000Y-37350000D03*
X129140000Y-38850000D03*
X125940000Y-37350000D03*
X125940000Y-38850000D03*
X104140000Y-94278000D03*
X104140000Y-95778000D03*
X100940000Y-94278000D03*
X100940000Y-95778000D03*
X51384000Y-37350000D03*
X51384000Y-38850000D03*
X48184000Y-37350000D03*
X48184000Y-38850000D03*
X51384000Y-94278000D03*
X51384000Y-95778000D03*
X48184000Y-94278000D03*
X48184000Y-95778000D03*
X79140000Y-94278000D03*
X79140000Y-95778000D03*
X75940000Y-94278000D03*
X75940000Y-95778000D03*
X50368000Y-56654000D03*
X50368000Y-58154000D03*
X47168000Y-56654000D03*
X47168000Y-58154000D03*
X204140000Y-37350000D03*
X204140000Y-38850000D03*
X200940000Y-37350000D03*
X200940000Y-38850000D03*
X77800000Y-39890000D03*
X77800000Y-41390000D03*
X74600000Y-39890000D03*
X74600000Y-41390000D03*
X104140000Y-37350000D03*
X104140000Y-38850000D03*
X100940000Y-37350000D03*
X100940000Y-38850000D03*
D34*
X392525000Y-83725000D03*
X388525000Y-87725000D03*
D35*
X352549920Y-21851160D03*
D36*
X354549920Y-21851160D03*
X356549920Y-21851160D03*
X358549920Y-21851160D03*
D37*
X238379000Y-99900000D03*
X238379000Y-111100000D03*
M02*
