<?xml version="1.0" standalone="no"?>
 <!DOCTYPE svg PUBLIC "-//W3C//DTD SVG 1.1//EN" 
 "http://www.w3.org/Graphics/SVG/1.1/DTD/svg11.dtd"> 
<svg xmlns="http://www.w3.org/2000/svg" version="1.1" 
    width="29.812cm" height="8.50646cm" viewBox="0 0 117370 33490 ">
<title>SVG Picture created as 58r-mxalps-B.SilkS.svg date 2016/09/01 13:02:48 </title>
  <desc>Picture generated by PCBNEW </desc>
<g style="fill:#000000; fill-opacity:1;stroke:#000000; stroke-opacity:1;
stroke-linecap:round; stroke-linejoin:round; "
 transform="translate(0 0) scale(1 1)">
</g>
<g style="fill:#840084; fill-opacity:0.0; 
stroke:#840084; stroke-width:-0.000393701; stroke-opacity:1; 
stroke-linecap:round; stroke-linejoin:round;">
</g>
<g style="fill:#840084; fill-opacity:0.0; 
stroke:#840084; stroke-width:78.7402; stroke-opacity:1; 
stroke-linecap:round; stroke-linejoin:round;">
<path d="M4833 2173
L4815 2143
L4815 2098
L4833 2053
L4871 2023
L4908 2008
L4983 1993
L5040 1993
L5114 2008
L5152 2023
L5189 2053
L5208 2098
L5208 2128
L5189 2173
L5171 2188
L5040 2188
L5040 2128
" />
<path d="M5208 2323
L4815 2323
L5208 2502
L4815 2502
" />
<path d="M5208 2652
L4815 2652
L4815 2727
L4833 2772
L4871 2802
L4908 2817
L4983 2832
L5040 2832
L5114 2817
L5152 2802
L5189 2772
L5208 2727
L5208 2652
" />
<path d="M3747 3378
L3747 2984
L3627 2984
L3597 3003
L3582 3022
L3567 3059
L3567 3116
L3582 3153
L3597 3172
L3627 3191
L3747 3191
" />
<path d="M3252 3341
L3267 3359
L3312 3378
L3342 3378
L3387 3359
L3417 3322
L3432 3284
L3447 3209
L3447 3153
L3432 3078
L3417 3041
L3387 3003
L3342 2984
L3312 2984
L3267 3003
L3252 3022
" />
<path d="M3147 2984
L2937 2984
L3072 3378
" />
<path d="M1613 2121
L1613 2361
" />
<path d="M1763 2241
L1463 2241
" />
<path d="M1370 2661
L1370 2511
L1557 2496
L1538 2511
L1520 2541
L1520 2616
L1538 2646
L1557 2661
L1595 2676
L1688 2676
L1726 2661
L1745 2646
L1763 2616
L1763 2541
L1745 2511
L1726 2496
" />
<path d="M1501 2781
L1763 2856
L1501 2931
" />
<path d="M57445 2591
L57550 2403
" />
<path d="M57625 2591
L57625 2197
L57505 2197
L57475 2216
L57460 2234
L57445 2272
L57445 2328
L57460 2366
L57475 2384
L57505 2403
L57625 2403
" />
<path d="M57325 2234
L57310 2216
L57280 2197
L57205 2197
L57175 2216
L57160 2234
L57145 2272
L57145 2309
L57160 2366
L57340 2591
L57145 2591
" />
<path d="M52917 2591
L53022 2403
" />
<path d="M53097 2591
L53097 2197
L52977 2197
L52947 2216
L52932 2234
L52917 2272
L52917 2328
L52932 2366
L52947 2384
L52977 2403
L53097 2403
" />
<path d="M52617 2591
L52797 2591
" />
<path d="M52707 2591
L52707 2197
L52737 2253
L52767 2291
L52797 2309
" />
<path d="M52021 2591
L52126 2403
" />
<path d="M52201 2591
L52201 2197
L52081 2197
L52051 2216
L52036 2234
L52021 2272
L52021 2328
L52036 2366
L52051 2384
L52081 2403
L52201 2403
" />
<path d="M51841 2591
L51871 2572
L51886 2553
L51901 2516
L51901 2403
L51886 2366
L51871 2347
L51841 2328
L51796 2328
L51766 2347
L51751 2366
L51736 2403
L51736 2516
L51751 2553
L51766 2572
L51796 2591
L51841 2591
" />
<path d="M51631 2328
L51571 2591
L51511 2403
L51451 2591
L51391 2328
" />
<path d="M51286 2572
L51256 2591
L51196 2591
L51166 2572
L51151 2534
L51151 2516
L51166 2478
L51196 2459
L51241 2459
L51271 2441
L51286 2403
L51286 2384
L51271 2347
L51241 2328
L51196 2328
L51166 2347
" />
<path d="M29402 2553
L29417 2572
L29462 2591
L29492 2591
L29537 2572
L29567 2534
L29582 2497
L29597 2422
L29597 2366
L29582 2291
L29567 2253
L29537 2216
L29492 2197
L29462 2197
L29417 2216
L29402 2234
" />
<path d="M29222 2591
L29252 2572
L29267 2553
L29282 2516
L29282 2403
L29267 2366
L29252 2347
L29222 2328
L29177 2328
L29147 2347
L29132 2366
L29117 2403
L29117 2516
L29132 2553
L29147 2572
L29177 2591
L29222 2591
" />
<path d="M28937 2591
L28967 2572
L28982 2534
L28982 2197
" />
<path d="M28682 2328
L28682 2591
" />
<path d="M28817 2328
L28817 2534
L28802 2572
L28772 2591
L28727 2591
L28697 2572
L28682 2553
" />
<path d="M28532 2591
L28532 2328
" />
<path d="M28532 2366
L28517 2347
L28487 2328
L28442 2328
L28412 2347
L28397 2384
L28397 2591
" />
<path d="M28397 2384
L28382 2347
L28352 2328
L28307 2328
L28277 2347
L28262 2384
L28262 2591
" />
<path d="M28112 2328
L28112 2591
" />
<path d="M28112 2366
L28097 2347
L28067 2328
L28022 2328
L27992 2347
L27977 2384
L27977 2591
" />
<path d="M27842 2572
L27812 2591
L27752 2591
L27722 2572
L27707 2534
L27707 2516
L27722 2478
L27752 2459
L27797 2459
L27827 2441
L27842 2403
L27842 2384
L27827 2347
L27797 2328
L27752 2328
L27722 2347
" />
<path d="M46374 2553
L46389 2572
L46434 2591
L46464 2591
L46509 2572
L46539 2534
L46554 2497
L46569 2422
L46569 2366
L46554 2291
L46539 2253
L46509 2216
L46464 2197
L46434 2197
L46389 2216
L46374 2234
" />
<path d="M46074 2591
L46254 2591
" />
<path d="M46164 2591
L46164 2197
L46194 2253
L46224 2291
L46254 2309
" />
<path d="M45789 2197
L45939 2197
L45954 2384
L45939 2366
L45909 2347
L45834 2347
L45804 2366
L45789 2384
L45774 2422
L45774 2516
L45789 2553
L45804 2572
L45834 2591
L45909 2591
L45939 2572
L45954 2553
" />
<path d="M30476 2553
L30491 2572
L30536 2591
L30566 2591
L30611 2572
L30641 2534
L30656 2497
L30671 2422
L30671 2366
L30656 2291
L30641 2253
L30611 2216
L30566 2197
L30536 2197
L30491 2216
L30476 2234
" />
<path d="M30176 2591
L30356 2591
" />
<path d="M30266 2591
L30266 2197
L30296 2253
L30326 2291
L30356 2309
" />
<circle cx="14085.8" cy="23771.3" r="220.085" /> 
</g>
<g style="fill:#C2C200; fill-opacity:0.0; 
stroke:#C2C200; stroke-width:78.7402; stroke-opacity:1; 
stroke-linecap:round; stroke-linejoin:round;">
</g>
<g style="fill:#C2C200; fill-opacity:0.0; 
stroke:#C2C200; stroke-width:59.0551; stroke-opacity:1; 
stroke-linecap:round; stroke-linejoin:round;">
<path d="M113298 1920
L896 1920
" />
<path d="M113298 31743
L113298 1920
" />
<path d="M896 31743
L113298 31743
" />
<path d="M896 1920
L896 31743
" />
</g>
<g style="fill:#008484; fill-opacity:0.0; 
stroke:#008484; stroke-width:59.0551; stroke-opacity:1; 
stroke-linecap:round; stroke-linejoin:round;">
</g>
<g style="fill:#008484; fill-opacity:0.0; 
stroke:#008484; stroke-width:78.7402; stroke-opacity:1; 
stroke-linecap:round; stroke-linejoin:round;">
<path d="M110538 27070
L110482 27089
L110388 27089
L110351 27070
L110332 27051
L110313 27014
L110313 26976
L110332 26939
L110351 26920
L110388 26901
L110463 26882
L110501 26864
L110519 26845
L110538 26807
L110538 26770
L110519 26732
L110501 26714
L110463 26695
L110369 26695
L110313 26714
" />
<path d="M110182 26695
L110088 27089
L110013 26807
L109938 27089
L109845 26695
" />
<path d="M109788 27126
L109488 27126
" />
<path d="M109432 26695
L109170 26695
L109338 27089
" />
<path d="M108945 26695
L108907 26695
L108870 26714
L108851 26732
L108832 26770
L108813 26845
L108813 26939
L108832 27014
L108851 27051
L108870 27070
L108907 27089
L108945 27089
L108982 27070
L109001 27051
L109020 27014
L109038 26939
L109038 26845
L109020 26770
L109001 26732
L108982 26714
L108945 26695
" />
<path d="M103038 27070
L102982 27089
L102888 27089
L102851 27070
L102832 27051
L102813 27014
L102813 26976
L102832 26939
L102851 26920
L102888 26901
L102963 26882
L103001 26864
L103019 26845
L103038 26807
L103038 26770
L103019 26732
L103001 26714
L102963 26695
L102869 26695
L102813 26714
" />
<path d="M102682 26695
L102588 27089
L102513 26807
L102438 27089
L102345 26695
" />
<path d="M102288 27126
L101988 27126
" />
<path d="M101726 26695
L101801 26695
L101838 26714
L101857 26732
L101895 26789
L101913 26864
L101913 27014
L101895 27051
L101876 27070
L101838 27089
L101763 27089
L101726 27070
L101707 27051
L101688 27014
L101688 26920
L101707 26882
L101726 26864
L101763 26845
L101838 26845
L101876 26864
L101895 26882
L101913 26920
" />
<path d="M101501 27089
L101426 27089
L101388 27070
L101370 27051
L101332 26995
L101313 26920
L101313 26770
L101332 26732
L101351 26714
L101388 26695
L101463 26695
L101501 26714
L101520 26732
L101538 26770
L101538 26864
L101520 26901
L101501 26920
L101463 26939
L101388 26939
L101351 26920
L101332 26901
L101313 26864
" />
<path d="M95538 27070
L95482 27089
L95388 27089
L95351 27070
L95332 27051
L95313 27014
L95313 26976
L95332 26939
L95351 26920
L95388 26901
L95463 26882
L95501 26864
L95519 26845
L95538 26807
L95538 26770
L95519 26732
L95501 26714
L95463 26695
L95369 26695
L95313 26714
" />
<path d="M95182 26695
L95088 27089
L95013 26807
L94938 27089
L94845 26695
" />
<path d="M94788 27126
L94488 27126
" />
<path d="M94226 26695
L94301 26695
L94338 26714
L94357 26732
L94395 26789
L94413 26864
L94413 27014
L94395 27051
L94376 27070
L94338 27089
L94263 27089
L94226 27070
L94207 27051
L94188 27014
L94188 26920
L94207 26882
L94226 26864
L94263 26845
L94338 26845
L94376 26864
L94395 26882
L94413 26920
" />
<path d="M93963 26864
L94001 26845
L94020 26826
L94038 26789
L94038 26770
L94020 26732
L94001 26714
L93963 26695
L93888 26695
L93851 26714
L93832 26732
L93813 26770
L93813 26789
L93832 26826
L93851 26845
L93888 26864
L93963 26864
L94001 26882
L94020 26901
L94038 26939
L94038 27014
L94020 27051
L94001 27070
L93963 27089
L93888 27089
L93851 27070
L93832 27051
L93813 27014
L93813 26939
L93832 26901
L93851 26882
L93888 26864
" />
<path d="M88038 27070
L87982 27089
L87888 27089
L87851 27070
L87832 27051
L87813 27014
L87813 26976
L87832 26939
L87851 26920
L87888 26901
L87963 26882
L88001 26864
L88019 26845
L88038 26807
L88038 26770
L88019 26732
L88001 26714
L87963 26695
L87869 26695
L87813 26714
" />
<path d="M87682 26695
L87588 27089
L87513 26807
L87438 27089
L87345 26695
" />
<path d="M87288 27126
L86988 27126
" />
<path d="M86726 26695
L86801 26695
L86838 26714
L86857 26732
L86895 26789
L86913 26864
L86913 27014
L86895 27051
L86876 27070
L86838 27089
L86763 27089
L86726 27070
L86707 27051
L86688 27014
L86688 26920
L86707 26882
L86726 26864
L86763 26845
L86838 26845
L86876 26864
L86895 26882
L86913 26920
" />
<path d="M86557 26695
L86295 26695
L86463 27089
" />
<path d="M80538 27070
L80482 27089
L80388 27089
L80351 27070
L80332 27051
L80313 27014
L80313 26976
L80332 26939
L80351 26920
L80388 26901
L80463 26882
L80501 26864
L80519 26845
L80538 26807
L80538 26770
L80519 26732
L80501 26714
L80463 26695
L80369 26695
L80313 26714
" />
<path d="M80182 26695
L80088 27089
L80013 26807
L79938 27089
L79845 26695
" />
<path d="M79788 27126
L79488 27126
" />
<path d="M79226 26695
L79301 26695
L79338 26714
L79357 26732
L79395 26789
L79413 26864
L79413 27014
L79395 27051
L79376 27070
L79338 27089
L79263 27089
L79226 27070
L79207 27051
L79188 27014
L79188 26920
L79207 26882
L79226 26864
L79263 26845
L79338 26845
L79376 26864
L79395 26882
L79413 26920
" />
<path d="M78851 26695
L78926 26695
L78963 26714
L78982 26732
L79020 26789
L79038 26864
L79038 27014
L79020 27051
L79001 27070
L78963 27089
L78888 27089
L78851 27070
L78832 27051
L78813 27014
L78813 26920
L78832 26882
L78851 26864
L78888 26845
L78963 26845
L79001 26864
L79020 26882
L79038 26920
" />
<path d="M73038 27070
L72982 27089
L72888 27089
L72851 27070
L72832 27051
L72813 27014
L72813 26976
L72832 26939
L72851 26920
L72888 26901
L72963 26882
L73001 26864
L73019 26845
L73038 26807
L73038 26770
L73019 26732
L73001 26714
L72963 26695
L72869 26695
L72813 26714
" />
<path d="M72682 26695
L72588 27089
L72513 26807
L72438 27089
L72345 26695
" />
<path d="M72288 27126
L71988 27126
" />
<path d="M71726 26695
L71801 26695
L71838 26714
L71857 26732
L71895 26789
L71913 26864
L71913 27014
L71895 27051
L71876 27070
L71838 27089
L71763 27089
L71726 27070
L71707 27051
L71688 27014
L71688 26920
L71707 26882
L71726 26864
L71763 26845
L71838 26845
L71876 26864
L71895 26882
L71913 26920
" />
<path d="M71351 26826
L71351 27089
" />
<path d="M71445 26676
L71538 26957
L71295 26957
" />
<path d="M65538 27070
L65482 27089
L65388 27089
L65351 27070
L65332 27051
L65313 27014
L65313 26976
L65332 26939
L65351 26920
L65388 26901
L65463 26882
L65501 26864
L65519 26845
L65538 26807
L65538 26770
L65519 26732
L65501 26714
L65463 26695
L65369 26695
L65313 26714
" />
<path d="M65182 26695
L65088 27089
L65013 26807
L64938 27089
L64845 26695
" />
<path d="M64788 27126
L64488 27126
" />
<path d="M64226 26695
L64301 26695
L64338 26714
L64357 26732
L64395 26789
L64413 26864
L64413 27014
L64395 27051
L64376 27070
L64338 27089
L64263 27089
L64226 27070
L64207 27051
L64188 27014
L64188 26920
L64207 26882
L64226 26864
L64263 26845
L64338 26845
L64376 26864
L64395 26882
L64413 26920
" />
<path d="M64057 26695
L63813 26695
L63945 26845
L63888 26845
L63851 26864
L63832 26882
L63813 26920
L63813 27014
L63832 27051
L63851 27070
L63888 27089
L64001 27089
L64038 27070
L64057 27051
" />
<path d="M54190 27070
L54134 27089
L54040 27089
L54002 27070
L53984 27051
L53965 27014
L53965 26976
L53984 26939
L54002 26920
L54040 26901
L54115 26882
L54152 26864
L54171 26845
L54190 26807
L54190 26770
L54171 26732
L54152 26714
L54115 26695
L54021 26695
L53965 26714
" />
<path d="M53834 26695
L53740 27089
L53665 26807
L53590 27089
L53496 26695
" />
<path d="M53440 27126
L53140 27126
" />
<path d="M52877 26695
L52952 26695
L52990 26714
L53009 26732
L53046 26789
L53065 26864
L53065 27014
L53046 27051
L53027 27070
L52990 27089
L52915 27089
L52877 27070
L52859 27051
L52840 27014
L52840 26920
L52859 26882
L52877 26864
L52915 26845
L52990 26845
L53027 26864
L53046 26882
L53065 26920
" />
<path d="M52465 27089
L52690 27089
" />
<path d="M52577 27089
L52577 26695
L52615 26751
L52652 26789
L52690 26807
" />
<path d="M39190 27070
L39134 27089
L39040 27089
L39002 27070
L38984 27051
L38965 27014
L38965 26976
L38984 26939
L39002 26920
L39040 26901
L39115 26882
L39152 26864
L39171 26845
L39190 26807
L39190 26770
L39171 26732
L39152 26714
L39115 26695
L39021 26695
L38965 26714
" />
<path d="M38834 26695
L38740 27089
L38665 26807
L38590 27089
L38496 26695
" />
<path d="M38440 27126
L38140 27126
" />
<path d="M37859 26695
L38046 26695
L38065 26882
L38046 26864
L38009 26845
L37915 26845
L37877 26864
L37859 26882
L37840 26920
L37840 27014
L37859 27051
L37877 27070
L37915 27089
L38009 27089
L38046 27070
L38065 27051
" />
<path d="M37615 26864
L37652 26845
L37671 26826
L37690 26789
L37690 26770
L37671 26732
L37652 26714
L37615 26695
L37540 26695
L37502 26714
L37484 26732
L37465 26770
L37465 26789
L37484 26826
L37502 26845
L37540 26864
L37615 26864
L37652 26882
L37671 26901
L37690 26939
L37690 27014
L37671 27051
L37652 27070
L37615 27089
L37540 27089
L37502 27070
L37484 27051
L37465 27014
L37465 26939
L37484 26901
L37502 26882
L37540 26864
" />
<path d="M27940 27070
L27884 27089
L27790 27089
L27752 27070
L27734 27051
L27715 27014
L27715 26976
L27734 26939
L27752 26920
L27790 26901
L27865 26882
L27902 26864
L27921 26845
L27940 26807
L27940 26770
L27921 26732
L27902 26714
L27865 26695
L27771 26695
L27715 26714
" />
<path d="M27584 26695
L27490 27089
L27415 26807
L27340 27089
L27246 26695
" />
<path d="M27190 27126
L26890 27126
" />
<path d="M26609 26695
L26796 26695
L26815 26882
L26796 26864
L26759 26845
L26665 26845
L26627 26864
L26609 26882
L26590 26920
L26590 27014
L26609 27051
L26627 27070
L26665 27089
L26759 27089
L26796 27070
L26815 27051
" />
<path d="M26252 26695
L26327 26695
L26365 26714
L26384 26732
L26421 26789
L26440 26864
L26440 27014
L26421 27051
L26402 27070
L26365 27089
L26290 27089
L26252 27070
L26234 27051
L26215 27014
L26215 26920
L26234 26882
L26252 26864
L26290 26845
L26365 26845
L26402 26864
L26421 26882
L26440 26920
" />
<path d="M22240 28101
L22184 28120
L22090 28120
L22052 28101
L22034 28082
L22015 28045
L22015 28007
L22034 27970
L22052 27951
L22090 27932
L22165 27914
L22202 27895
L22221 27876
L22240 27839
L22240 27801
L22221 27764
L22202 27745
L22165 27726
L22071 27726
L22015 27745
" />
<path d="M21884 27726
L21790 28120
L21715 27839
L21640 28120
L21546 27726
" />
<path d="M21490 28157
L21190 28157
" />
<path d="M20909 27726
L21096 27726
L21115 27914
L21096 27895
L21059 27876
L20965 27876
L20927 27895
L20909 27914
L20890 27951
L20890 28045
L20909 28082
L20927 28101
L20965 28120
L21059 28120
L21096 28101
L21115 28082
" />
<path d="M20534 27726
L20721 27726
L20740 27914
L20721 27895
L20684 27876
L20590 27876
L20552 27895
L20534 27914
L20515 27951
L20515 28045
L20534 28082
L20552 28101
L20590 28120
L20684 28120
L20721 28101
L20740 28082
" />
<path d="M11095 27141
L11114 27197
L11114 27291
L11095 27328
L11076 27347
L11039 27366
L11001 27366
L10964 27347
L10945 27328
L10926 27291
L10908 27216
L10889 27178
L10870 27159
L10833 27141
L10795 27141
L10758 27159
L10739 27178
L10720 27216
L10720 27309
L10739 27366
" />
<path d="M10720 27497
L11114 27591
L10833 27666
L11114 27741
L10720 27834
" />
<path d="M11151 27891
L11151 28191
" />
<path d="M10720 28472
L10720 28284
L10908 28266
L10889 28284
L10870 28322
L10870 28415
L10889 28453
L10908 28472
L10945 28490
L11039 28490
L11076 28472
L11095 28453
L11114 28415
L11114 28322
L11095 28284
L11076 28266
" />
<path d="M10851 28828
L11114 28828
" />
<path d="M10701 28734
L10983 28640
L10983 28884
" />
<path d="M5440 27070
L5384 27089
L5290 27089
L5252 27070
L5234 27051
L5215 27014
L5215 26976
L5234 26939
L5252 26920
L5290 26901
L5365 26882
L5402 26864
L5421 26845
L5440 26807
L5440 26770
L5421 26732
L5402 26714
L5365 26695
L5271 26695
L5215 26714
" />
<path d="M5084 26695
L4990 27089
L4915 26807
L4840 27089
L4746 26695
" />
<path d="M4690 27126
L4390 27126
" />
<path d="M4109 26695
L4296 26695
L4315 26882
L4296 26864
L4259 26845
L4165 26845
L4127 26864
L4109 26882
L4090 26920
L4090 27014
L4109 27051
L4127 27070
L4165 27089
L4259 27089
L4296 27070
L4315 27051
" />
<path d="M3959 26695
L3715 26695
L3846 26845
L3790 26845
L3752 26864
L3734 26882
L3715 26920
L3715 27014
L3734 27051
L3752 27070
L3790 27089
L3902 27089
L3940 27070
L3959 27051
" />
<path d="M110440 19570
L110384 19589
L110290 19589
L110252 19570
L110234 19551
L110215 19514
L110215 19476
L110234 19439
L110252 19420
L110290 19401
L110365 19382
L110402 19364
L110421 19345
L110440 19307
L110440 19270
L110421 19232
L110402 19214
L110365 19195
L110271 19195
L110215 19214
" />
<path d="M110084 19195
L109990 19589
L109915 19307
L109840 19589
L109746 19195
" />
<path d="M109690 19626
L109390 19626
" />
<path d="M109109 19195
L109296 19195
L109315 19382
L109296 19364
L109259 19345
L109165 19345
L109127 19364
L109109 19382
L109090 19420
L109090 19514
L109109 19551
L109127 19570
L109165 19589
L109259 19589
L109296 19570
L109315 19551
" />
<path d="M108940 19232
L108921 19214
L108884 19195
L108790 19195
L108752 19214
L108734 19232
L108715 19270
L108715 19307
L108734 19364
L108959 19589
L108715 19589
" />
<path d="M102940 19570
L102884 19589
L102790 19589
L102752 19570
L102734 19551
L102715 19514
L102715 19476
L102734 19439
L102752 19420
L102790 19401
L102865 19382
L102902 19364
L102921 19345
L102940 19307
L102940 19270
L102921 19232
L102902 19214
L102865 19195
L102771 19195
L102715 19214
" />
<path d="M102584 19195
L102490 19589
L102415 19307
L102340 19589
L102246 19195
" />
<path d="M102190 19626
L101890 19626
" />
<path d="M101609 19195
L101796 19195
L101815 19382
L101796 19364
L101759 19345
L101665 19345
L101627 19364
L101609 19382
L101590 19420
L101590 19514
L101609 19551
L101627 19570
L101665 19589
L101759 19589
L101796 19570
L101815 19551
" />
<path d="M101215 19589
L101440 19589
" />
<path d="M101327 19589
L101327 19195
L101365 19251
L101402 19289
L101440 19307
" />
<path d="M95440 19570
L95384 19589
L95290 19589
L95252 19570
L95234 19551
L95215 19514
L95215 19476
L95234 19439
L95252 19420
L95290 19401
L95365 19382
L95402 19364
L95421 19345
L95440 19307
L95440 19270
L95421 19232
L95402 19214
L95365 19195
L95271 19195
L95215 19214
" />
<path d="M95084 19195
L94990 19589
L94915 19307
L94840 19589
L94746 19195
" />
<path d="M94690 19626
L94390 19626
" />
<path d="M94109 19195
L94296 19195
L94315 19382
L94296 19364
L94259 19345
L94165 19345
L94127 19364
L94109 19382
L94090 19420
L94090 19514
L94109 19551
L94127 19570
L94165 19589
L94259 19589
L94296 19570
L94315 19551
" />
<path d="M93846 19195
L93809 19195
L93771 19214
L93752 19232
L93734 19270
L93715 19345
L93715 19439
L93734 19514
L93752 19551
L93771 19570
L93809 19589
L93846 19589
L93884 19570
L93902 19551
L93921 19514
L93940 19439
L93940 19345
L93921 19270
L93902 19232
L93884 19214
L93846 19195
" />
<path d="M87940 19570
L87884 19589
L87790 19589
L87752 19570
L87734 19551
L87715 19514
L87715 19476
L87734 19439
L87752 19420
L87790 19401
L87865 19382
L87902 19364
L87921 19345
L87940 19307
L87940 19270
L87921 19232
L87902 19214
L87865 19195
L87771 19195
L87715 19214
" />
<path d="M87584 19195
L87490 19589
L87415 19307
L87340 19589
L87246 19195
" />
<path d="M87190 19626
L86890 19626
" />
<path d="M86627 19326
L86627 19589
" />
<path d="M86721 19176
L86815 19457
L86571 19457
" />
<path d="M86402 19589
L86327 19589
L86290 19570
L86271 19551
L86234 19495
L86215 19420
L86215 19270
L86234 19232
L86252 19214
L86290 19195
L86365 19195
L86402 19214
L86421 19232
L86440 19270
L86440 19364
L86421 19401
L86402 19420
L86365 19439
L86290 19439
L86252 19420
L86234 19401
L86215 19364
" />
<path d="M80440 19570
L80384 19589
L80290 19589
L80252 19570
L80234 19551
L80215 19514
L80215 19476
L80234 19439
L80252 19420
L80290 19401
L80365 19382
L80402 19364
L80421 19345
L80440 19307
L80440 19270
L80421 19232
L80402 19214
L80365 19195
L80271 19195
L80215 19214
" />
<path d="M80084 19195
L79990 19589
L79915 19307
L79840 19589
L79746 19195
" />
<path d="M79690 19626
L79390 19626
" />
<path d="M79127 19326
L79127 19589
" />
<path d="M79221 19176
L79315 19457
L79071 19457
" />
<path d="M78865 19364
L78902 19345
L78921 19326
L78940 19289
L78940 19270
L78921 19232
L78902 19214
L78865 19195
L78790 19195
L78752 19214
L78734 19232
L78715 19270
L78715 19289
L78734 19326
L78752 19345
L78790 19364
L78865 19364
L78902 19382
L78921 19401
L78940 19439
L78940 19514
L78921 19551
L78902 19570
L78865 19589
L78790 19589
L78752 19570
L78734 19551
L78715 19514
L78715 19439
L78734 19401
L78752 19382
L78790 19364
" />
<path d="M72940 19570
L72884 19589
L72790 19589
L72752 19570
L72734 19551
L72715 19514
L72715 19476
L72734 19439
L72752 19420
L72790 19401
L72865 19382
L72902 19364
L72921 19345
L72940 19307
L72940 19270
L72921 19232
L72902 19214
L72865 19195
L72771 19195
L72715 19214
" />
<path d="M72584 19195
L72490 19589
L72415 19307
L72340 19589
L72246 19195
" />
<path d="M72190 19626
L71890 19626
" />
<path d="M71627 19326
L71627 19589
" />
<path d="M71721 19176
L71815 19457
L71571 19457
" />
<path d="M71459 19195
L71196 19195
L71365 19589
" />
<path d="M65440 19570
L65384 19589
L65290 19589
L65252 19570
L65234 19551
L65215 19514
L65215 19476
L65234 19439
L65252 19420
L65290 19401
L65365 19382
L65402 19364
L65421 19345
L65440 19307
L65440 19270
L65421 19232
L65402 19214
L65365 19195
L65271 19195
L65215 19214
" />
<path d="M65084 19195
L64990 19589
L64915 19307
L64840 19589
L64746 19195
" />
<path d="M64690 19626
L64390 19626
" />
<path d="M64127 19326
L64127 19589
" />
<path d="M64221 19176
L64315 19457
L64071 19457
" />
<path d="M63752 19195
L63827 19195
L63865 19214
L63884 19232
L63921 19289
L63940 19364
L63940 19514
L63921 19551
L63902 19570
L63865 19589
L63790 19589
L63752 19570
L63734 19551
L63715 19514
L63715 19420
L63734 19382
L63752 19364
L63790 19345
L63865 19345
L63902 19364
L63921 19382
L63940 19420
" />
<path d="M57940 19570
L57884 19589
L57790 19589
L57752 19570
L57734 19551
L57715 19514
L57715 19476
L57734 19439
L57752 19420
L57790 19401
L57865 19382
L57902 19364
L57921 19345
L57940 19307
L57940 19270
L57921 19232
L57902 19214
L57865 19195
L57771 19195
L57715 19214
" />
<path d="M57584 19195
L57490 19589
L57415 19307
L57340 19589
L57246 19195
" />
<path d="M57190 19626
L56890 19626
" />
<path d="M56627 19326
L56627 19589
" />
<path d="M56721 19176
L56815 19457
L56571 19457
" />
<path d="M56234 19195
L56421 19195
L56440 19382
L56421 19364
L56384 19345
L56290 19345
L56252 19364
L56234 19382
L56215 19420
L56215 19514
L56234 19551
L56252 19570
L56290 19589
L56384 19589
L56421 19570
L56440 19551
" />
<path d="M50440 19570
L50384 19589
L50290 19589
L50252 19570
L50234 19551
L50215 19514
L50215 19476
L50234 19439
L50252 19420
L50290 19401
L50365 19382
L50402 19364
L50421 19345
L50440 19307
L50440 19270
L50421 19232
L50402 19214
L50365 19195
L50271 19195
L50215 19214
" />
<path d="M50084 19195
L49990 19589
L49915 19307
L49840 19589
L49746 19195
" />
<path d="M49690 19626
L49390 19626
" />
<path d="M49127 19326
L49127 19589
" />
<path d="M49221 19176
L49315 19457
L49071 19457
" />
<path d="M48752 19326
L48752 19589
" />
<path d="M48846 19176
L48940 19457
L48696 19457
" />
<path d="M42940 19570
L42884 19589
L42790 19589
L42752 19570
L42734 19551
L42715 19514
L42715 19476
L42734 19439
L42752 19420
L42790 19401
L42865 19382
L42902 19364
L42921 19345
L42940 19307
L42940 19270
L42921 19232
L42902 19214
L42865 19195
L42771 19195
L42715 19214
" />
<path d="M42584 19195
L42490 19589
L42415 19307
L42340 19589
L42246 19195
" />
<path d="M42190 19626
L41890 19626
" />
<path d="M41627 19326
L41627 19589
" />
<path d="M41721 19176
L41815 19457
L41571 19457
" />
<path d="M41459 19195
L41215 19195
L41346 19345
L41290 19345
L41252 19364
L41234 19382
L41215 19420
L41215 19514
L41234 19551
L41252 19570
L41290 19589
L41402 19589
L41440 19570
L41459 19551
" />
<path d="M35440 19570
L35384 19589
L35290 19589
L35252 19570
L35234 19551
L35215 19514
L35215 19476
L35234 19439
L35252 19420
L35290 19401
L35365 19382
L35402 19364
L35421 19345
L35440 19307
L35440 19270
L35421 19232
L35402 19214
L35365 19195
L35271 19195
L35215 19214
" />
<path d="M35084 19195
L34990 19589
L34915 19307
L34840 19589
L34746 19195
" />
<path d="M34690 19626
L34390 19626
" />
<path d="M34127 19326
L34127 19589
" />
<path d="M34221 19176
L34315 19457
L34071 19457
" />
<path d="M33940 19232
L33921 19214
L33884 19195
L33790 19195
L33752 19214
L33734 19232
L33715 19270
L33715 19307
L33734 19364
L33959 19589
L33715 19589
" />
<path d="M27940 19570
L27884 19589
L27790 19589
L27752 19570
L27734 19551
L27715 19514
L27715 19476
L27734 19439
L27752 19420
L27790 19401
L27865 19382
L27902 19364
L27921 19345
L27940 19307
L27940 19270
L27921 19232
L27902 19214
L27865 19195
L27771 19195
L27715 19214
" />
<path d="M27584 19195
L27490 19589
L27415 19307
L27340 19589
L27246 19195
" />
<path d="M27190 19626
L26890 19626
" />
<path d="M26627 19326
L26627 19589
" />
<path d="M26721 19176
L26815 19457
L26571 19457
" />
<path d="M26215 19589
L26440 19589
" />
<path d="M26327 19589
L26327 19195
L26365 19251
L26402 19289
L26440 19307
" />
<path d="M20440 19570
L20384 19589
L20290 19589
L20252 19570
L20234 19551
L20215 19514
L20215 19476
L20234 19439
L20252 19420
L20290 19401
L20365 19382
L20402 19364
L20421 19345
L20440 19307
L20440 19270
L20421 19232
L20402 19214
L20365 19195
L20271 19195
L20215 19214
" />
<path d="M20084 19195
L19990 19589
L19915 19307
L19840 19589
L19746 19195
" />
<path d="M19690 19626
L19390 19626
" />
<path d="M19127 19326
L19127 19589
" />
<path d="M19221 19176
L19315 19457
L19071 19457
" />
<path d="M18846 19195
L18809 19195
L18771 19214
L18752 19232
L18734 19270
L18715 19345
L18715 19439
L18734 19514
L18752 19551
L18771 19570
L18809 19589
L18846 19589
L18884 19570
L18902 19551
L18921 19514
L18940 19439
L18940 19345
L18921 19270
L18902 19232
L18884 19214
L18846 19195
" />
<path d="M12940 19570
L12884 19589
L12790 19589
L12752 19570
L12734 19551
L12715 19514
L12715 19476
L12734 19439
L12752 19420
L12790 19401
L12865 19382
L12902 19364
L12921 19345
L12940 19307
L12940 19270
L12921 19232
L12902 19214
L12865 19195
L12771 19195
L12715 19214
" />
<path d="M12584 19195
L12490 19589
L12415 19307
L12340 19589
L12246 19195
" />
<path d="M12190 19626
L11890 19626
" />
<path d="M11834 19195
L11590 19195
L11721 19345
L11665 19345
L11627 19364
L11609 19382
L11590 19420
L11590 19514
L11609 19551
L11627 19570
L11665 19589
L11777 19589
L11815 19570
L11834 19551
" />
<path d="M11402 19589
L11327 19589
L11290 19570
L11271 19551
L11234 19495
L11215 19420
L11215 19270
L11234 19232
L11252 19214
L11290 19195
L11365 19195
L11402 19214
L11421 19232
L11440 19270
L11440 19364
L11421 19401
L11402 19420
L11365 19439
L11290 19439
L11252 19420
L11234 19401
L11215 19364
" />
<path d="M5440 19570
L5384 19589
L5290 19589
L5252 19570
L5234 19551
L5215 19514
L5215 19476
L5234 19439
L5252 19420
L5290 19401
L5365 19382
L5402 19364
L5421 19345
L5440 19307
L5440 19270
L5421 19232
L5402 19214
L5365 19195
L5271 19195
L5215 19214
" />
<path d="M5084 19195
L4990 19589
L4915 19307
L4840 19589
L4746 19195
" />
<path d="M4690 19626
L4390 19626
" />
<path d="M4334 19195
L4090 19195
L4221 19345
L4165 19345
L4127 19364
L4109 19382
L4090 19420
L4090 19514
L4109 19551
L4127 19570
L4165 19589
L4277 19589
L4315 19570
L4334 19551
" />
<path d="M3865 19364
L3902 19345
L3921 19326
L3940 19289
L3940 19270
L3921 19232
L3902 19214
L3865 19195
L3790 19195
L3752 19214
L3734 19232
L3715 19270
L3715 19289
L3734 19326
L3752 19345
L3790 19364
L3865 19364
L3902 19382
L3921 19401
L3940 19439
L3940 19514
L3921 19551
L3902 19570
L3865 19589
L3790 19589
L3752 19570
L3734 19551
L3715 19514
L3715 19439
L3734 19401
L3752 19382
L3790 19364
" />
<path d="M111140 12070
L111084 12089
L110990 12089
L110952 12070
L110934 12051
L110915 12014
L110915 11976
L110934 11939
L110952 11920
L110990 11901
L111065 11882
L111102 11864
L111121 11845
L111140 11807
L111140 11770
L111121 11732
L111102 11714
L111065 11695
L110971 11695
L110915 11714
" />
<path d="M110784 11695
L110690 12089
L110615 11807
L110540 12089
L110446 11695
" />
<path d="M110390 12126
L110090 12126
" />
<path d="M110034 11695
L109790 11695
L109921 11845
L109865 11845
L109827 11864
L109809 11882
L109790 11920
L109790 12014
L109809 12051
L109827 12070
L109865 12089
L109977 12089
L110015 12070
L110034 12051
" />
<path d="M109659 11695
L109396 11695
L109565 12089
" />
<path d="M102940 12070
L102884 12089
L102790 12089
L102752 12070
L102734 12051
L102715 12014
L102715 11976
L102734 11939
L102752 11920
L102790 11901
L102865 11882
L102902 11864
L102921 11845
L102940 11807
L102940 11770
L102921 11732
L102902 11714
L102865 11695
L102771 11695
L102715 11714
" />
<path d="M102584 11695
L102490 12089
L102415 11807
L102340 12089
L102246 11695
" />
<path d="M102190 12126
L101890 12126
" />
<path d="M101834 11695
L101590 11695
L101721 11845
L101665 11845
L101627 11864
L101609 11882
L101590 11920
L101590 12014
L101609 12051
L101627 12070
L101665 12089
L101777 12089
L101815 12070
L101834 12051
" />
<path d="M101234 11695
L101421 11695
L101440 11882
L101421 11864
L101384 11845
L101290 11845
L101252 11864
L101234 11882
L101215 11920
L101215 12014
L101234 12051
L101252 12070
L101290 12089
L101384 12089
L101421 12070
L101440 12051
" />
<path d="M95440 12070
L95384 12089
L95290 12089
L95252 12070
L95234 12051
L95215 12014
L95215 11976
L95234 11939
L95252 11920
L95290 11901
L95365 11882
L95402 11864
L95421 11845
L95440 11807
L95440 11770
L95421 11732
L95402 11714
L95365 11695
L95271 11695
L95215 11714
" />
<path d="M95084 11695
L94990 12089
L94915 11807
L94840 12089
L94746 11695
" />
<path d="M94690 12126
L94390 12126
" />
<path d="M94334 11695
L94090 11695
L94221 11845
L94165 11845
L94127 11864
L94109 11882
L94090 11920
L94090 12014
L94109 12051
L94127 12070
L94165 12089
L94277 12089
L94315 12070
L94334 12051
" />
<path d="M93959 11695
L93715 11695
L93846 11845
L93790 11845
L93752 11864
L93734 11882
L93715 11920
L93715 12014
L93734 12051
L93752 12070
L93790 12089
L93902 12089
L93940 12070
L93959 12051
" />
<path d="M86740 12070
L86684 12089
L86590 12089
L86552 12070
L86534 12051
L86515 12014
L86515 11976
L86534 11939
L86552 11920
L86590 11901
L86665 11882
L86702 11864
L86721 11845
L86740 11807
L86740 11770
L86721 11732
L86702 11714
L86665 11695
L86571 11695
L86515 11714
" />
<path d="M86384 11695
L86290 12089
L86215 11807
L86140 12089
L86046 11695
" />
<path d="M85990 12126
L85690 12126
" />
<path d="M85634 11695
L85390 11695
L85521 11845
L85465 11845
L85427 11864
L85409 11882
L85390 11920
L85390 12014
L85409 12051
L85427 12070
L85465 12089
L85577 12089
L85615 12070
L85634 12051
" />
<path d="M85015 12089
L85240 12089
" />
<path d="M85127 12089
L85127 11695
L85165 11751
L85202 11789
L85240 11807
" />
<path d="M76690 12070
L76634 12089
L76540 12089
L76502 12070
L76484 12051
L76465 12014
L76465 11976
L76484 11939
L76502 11920
L76540 11901
L76615 11882
L76652 11864
L76671 11845
L76690 11807
L76690 11770
L76671 11732
L76652 11714
L76615 11695
L76521 11695
L76465 11714
" />
<path d="M76334 11695
L76240 12089
L76165 11807
L76090 12089
L75996 11695
" />
<path d="M75940 12126
L75640 12126
" />
<path d="M75565 11732
L75546 11714
L75509 11695
L75415 11695
L75377 11714
L75359 11732
L75340 11770
L75340 11807
L75359 11864
L75584 12089
L75340 12089
" />
<path d="M75152 12089
L75077 12089
L75040 12070
L75021 12051
L74984 11995
L74965 11920
L74965 11770
L74984 11732
L75002 11714
L75040 11695
L75115 11695
L75152 11714
L75171 11732
L75190 11770
L75190 11864
L75171 11901
L75152 11920
L75115 11939
L75040 11939
L75002 11920
L74984 11901
L74965 11864
" />
<path d="M69190 12070
L69134 12089
L69040 12089
L69002 12070
L68984 12051
L68965 12014
L68965 11976
L68984 11939
L69002 11920
L69040 11901
L69115 11882
L69152 11864
L69171 11845
L69190 11807
L69190 11770
L69171 11732
L69152 11714
L69115 11695
L69021 11695
L68965 11714
" />
<path d="M68834 11695
L68740 12089
L68665 11807
L68590 12089
L68496 11695
" />
<path d="M68440 12126
L68140 12126
" />
<path d="M68065 11732
L68046 11714
L68009 11695
L67915 11695
L67877 11714
L67859 11732
L67840 11770
L67840 11807
L67859 11864
L68084 12089
L67840 12089
" />
<path d="M67615 11864
L67652 11845
L67671 11826
L67690 11789
L67690 11770
L67671 11732
L67652 11714
L67615 11695
L67540 11695
L67502 11714
L67484 11732
L67465 11770
L67465 11789
L67484 11826
L67502 11845
L67540 11864
L67615 11864
L67652 11882
L67671 11901
L67690 11939
L67690 12014
L67671 12051
L67652 12070
L67615 12089
L67540 12089
L67502 12070
L67484 12051
L67465 12014
L67465 11939
L67484 11901
L67502 11882
L67540 11864
" />
<path d="M61690 12070
L61634 12089
L61540 12089
L61502 12070
L61484 12051
L61465 12014
L61465 11976
L61484 11939
L61502 11920
L61540 11901
L61615 11882
L61652 11864
L61671 11845
L61690 11807
L61690 11770
L61671 11732
L61652 11714
L61615 11695
L61521 11695
L61465 11714
" />
<path d="M61334 11695
L61240 12089
L61165 11807
L61090 12089
L60996 11695
" />
<path d="M60940 12126
L60640 12126
" />
<path d="M60565 11732
L60546 11714
L60509 11695
L60415 11695
L60377 11714
L60359 11732
L60340 11770
L60340 11807
L60359 11864
L60584 12089
L60340 12089
" />
<path d="M60209 11695
L59946 11695
L60115 12089
" />
<path d="M54190 12070
L54134 12089
L54040 12089
L54002 12070
L53984 12051
L53965 12014
L53965 11976
L53984 11939
L54002 11920
L54040 11901
L54115 11882
L54152 11864
L54171 11845
L54190 11807
L54190 11770
L54171 11732
L54152 11714
L54115 11695
L54021 11695
L53965 11714
" />
<path d="M53834 11695
L53740 12089
L53665 11807
L53590 12089
L53496 11695
" />
<path d="M53440 12126
L53140 12126
" />
<path d="M53065 11732
L53046 11714
L53009 11695
L52915 11695
L52877 11714
L52859 11732
L52840 11770
L52840 11807
L52859 11864
L53084 12089
L52840 12089
" />
<path d="M52502 11695
L52577 11695
L52615 11714
L52634 11732
L52671 11789
L52690 11864
L52690 12014
L52671 12051
L52652 12070
L52615 12089
L52540 12089
L52502 12070
L52484 12051
L52465 12014
L52465 11920
L52484 11882
L52502 11864
L52540 11845
L52615 11845
L52652 11864
L52671 11882
L52690 11920
" />
<path d="M46690 12070
L46634 12089
L46540 12089
L46502 12070
L46484 12051
L46465 12014
L46465 11976
L46484 11939
L46502 11920
L46540 11901
L46615 11882
L46652 11864
L46671 11845
L46690 11807
L46690 11770
L46671 11732
L46652 11714
L46615 11695
L46521 11695
L46465 11714
" />
<path d="M46334 11695
L46240 12089
L46165 11807
L46090 12089
L45996 11695
" />
<path d="M45940 12126
L45640 12126
" />
<path d="M45565 11732
L45546 11714
L45509 11695
L45415 11695
L45377 11714
L45359 11732
L45340 11770
L45340 11807
L45359 11864
L45584 12089
L45340 12089
" />
<path d="M44984 11695
L45171 11695
L45190 11882
L45171 11864
L45134 11845
L45040 11845
L45002 11864
L44984 11882
L44965 11920
L44965 12014
L44984 12051
L45002 12070
L45040 12089
L45134 12089
L45171 12070
L45190 12051
" />
<path d="M39190 12070
L39134 12089
L39040 12089
L39002 12070
L38984 12051
L38965 12014
L38965 11976
L38984 11939
L39002 11920
L39040 11901
L39115 11882
L39152 11864
L39171 11845
L39190 11807
L39190 11770
L39171 11732
L39152 11714
L39115 11695
L39021 11695
L38965 11714
" />
<path d="M38834 11695
L38740 12089
L38665 11807
L38590 12089
L38496 11695
" />
<path d="M38440 12126
L38140 12126
" />
<path d="M38065 11732
L38046 11714
L38009 11695
L37915 11695
L37877 11714
L37859 11732
L37840 11770
L37840 11807
L37859 11864
L38084 12089
L37840 12089
" />
<path d="M37502 11826
L37502 12089
" />
<path d="M37596 11676
L37690 11957
L37446 11957
" />
<path d="M32540 12001
L32484 12020
L32390 12020
L32352 12001
L32334 11982
L32315 11945
L32315 11907
L32334 11870
L32352 11851
L32390 11832
L32465 11814
L32502 11795
L32521 11776
L32540 11739
L32540 11701
L32521 11664
L32502 11645
L32465 11626
L32371 11626
L32315 11645
" />
<path d="M32184 11626
L32090 12020
L32015 11739
L31940 12020
L31846 11626
" />
<path d="M31790 12057
L31490 12057
" />
<path d="M31415 11664
L31396 11645
L31359 11626
L31265 11626
L31227 11645
L31209 11664
L31190 11701
L31190 11739
L31209 11795
L31434 12020
L31190 12020
" />
<path d="M31059 11626
L30815 11626
L30946 11776
L30890 11776
L30852 11795
L30834 11814
L30815 11851
L30815 11945
L30834 11982
L30852 12001
L30890 12020
L31002 12020
L31040 12001
L31059 11982
" />
<path d="M24190 12070
L24134 12089
L24040 12089
L24002 12070
L23984 12051
L23965 12014
L23965 11976
L23984 11939
L24002 11920
L24040 11901
L24115 11882
L24152 11864
L24171 11845
L24190 11807
L24190 11770
L24171 11732
L24152 11714
L24115 11695
L24021 11695
L23965 11714
" />
<path d="M23834 11695
L23740 12089
L23665 11807
L23590 12089
L23496 11695
" />
<path d="M23440 12126
L23140 12126
" />
<path d="M23065 11732
L23046 11714
L23009 11695
L22915 11695
L22877 11714
L22859 11732
L22840 11770
L22840 11807
L22859 11864
L23084 12089
L22840 12089
" />
<path d="M22465 12089
L22690 12089
" />
<path d="M22577 12089
L22577 11695
L22615 11751
L22652 11789
L22690 11807
" />
<path d="M16719 12119
L16663 12138
L16569 12138
L16532 12119
L16513 12100
L16494 12063
L16494 12025
L16513 11988
L16532 11969
L16569 11950
L16644 11932
L16682 11913
L16701 11894
L16719 11857
L16719 11819
L16701 11782
L16682 11763
L16644 11744
L16551 11744
L16494 11763
" />
<path d="M16363 11744
L16269 12138
L16194 11857
L16119 12138
L16026 11744
" />
<path d="M15969 12175
L15669 12175
" />
<path d="M15369 12138
L15594 12138
" />
<path d="M15482 12138
L15482 11744
L15519 11800
L15557 11838
L15594 11857
" />
<path d="M15182 12138
L15107 12138
L15070 12119
L15051 12100
L15013 12044
L14995 11969
L14995 11819
L15013 11782
L15032 11763
L15070 11744
L15144 11744
L15182 11763
L15201 11782
L15219 11819
L15219 11913
L15201 11950
L15182 11969
L15144 11988
L15070 11988
L15032 11969
L15013 11950
L14995 11913
" />
<path d="M7959 12119
L7903 12138
L7809 12138
L7772 12119
L7753 12100
L7734 12063
L7734 12025
L7753 11988
L7772 11969
L7809 11950
L7884 11932
L7922 11913
L7941 11894
L7959 11857
L7959 11819
L7941 11782
L7922 11763
L7884 11744
L7791 11744
L7734 11763
" />
<path d="M7603 11744
L7510 12138
L7435 11857
L7360 12138
L7266 11744
" />
<path d="M7210 12175
L6910 12175
" />
<path d="M6610 12138
L6835 12138
" />
<path d="M6722 12138
L6722 11744
L6760 11800
L6797 11838
L6835 11857
" />
<path d="M6478 11744
L6216 11744
L6385 12138
" />
<path d="M110440 4570
L110384 4589
L110290 4589
L110252 4570
L110234 4551
L110215 4514
L110215 4476
L110234 4439
L110252 4420
L110290 4401
L110365 4382
L110402 4364
L110421 4345
L110440 4307
L110440 4270
L110421 4232
L110402 4214
L110365 4195
L110271 4195
L110215 4214
" />
<path d="M110084 4195
L109990 4589
L109915 4307
L109840 4589
L109746 4195
" />
<path d="M109690 4626
L109390 4626
" />
<path d="M109090 4589
L109315 4589
" />
<path d="M109202 4589
L109202 4195
L109240 4251
L109277 4289
L109315 4307
" />
<path d="M108734 4195
L108921 4195
L108940 4382
L108921 4364
L108884 4345
L108790 4345
L108752 4364
L108734 4382
L108715 4420
L108715 4514
L108734 4551
L108752 4570
L108790 4589
L108884 4589
L108921 4570
L108940 4551
" />
<path d="M102940 4570
L102884 4589
L102790 4589
L102752 4570
L102734 4551
L102715 4514
L102715 4476
L102734 4439
L102752 4420
L102790 4401
L102865 4382
L102902 4364
L102921 4345
L102940 4307
L102940 4270
L102921 4232
L102902 4214
L102865 4195
L102771 4195
L102715 4214
" />
<path d="M102584 4195
L102490 4589
L102415 4307
L102340 4589
L102246 4195
" />
<path d="M102190 4626
L101890 4626
" />
<path d="M101590 4589
L101815 4589
" />
<path d="M101702 4589
L101702 4195
L101740 4251
L101777 4289
L101815 4307
" />
<path d="M101252 4326
L101252 4589
" />
<path d="M101346 4176
L101440 4457
L101196 4457
" />
<path d="M95440 4570
L95384 4589
L95290 4589
L95252 4570
L95234 4551
L95215 4514
L95215 4476
L95234 4439
L95252 4420
L95290 4401
L95365 4382
L95402 4364
L95421 4345
L95440 4307
L95440 4270
L95421 4232
L95402 4214
L95365 4195
L95271 4195
L95215 4214
" />
<path d="M95084 4195
L94990 4589
L94915 4307
L94840 4589
L94746 4195
" />
<path d="M94690 4626
L94390 4626
" />
<path d="M94090 4589
L94315 4589
" />
<path d="M94202 4589
L94202 4195
L94240 4251
L94277 4289
L94315 4307
" />
<path d="M93959 4195
L93715 4195
L93846 4345
L93790 4345
L93752 4364
L93734 4382
L93715 4420
L93715 4514
L93734 4551
L93752 4570
L93790 4589
L93902 4589
L93940 4570
L93959 4551
" />
<path d="M87940 4570
L87884 4589
L87790 4589
L87752 4570
L87734 4551
L87715 4514
L87715 4476
L87734 4439
L87752 4420
L87790 4401
L87865 4382
L87902 4364
L87921 4345
L87940 4307
L87940 4270
L87921 4232
L87902 4214
L87865 4195
L87771 4195
L87715 4214
" />
<path d="M87584 4195
L87490 4589
L87415 4307
L87340 4589
L87246 4195
" />
<path d="M87190 4626
L86890 4626
" />
<path d="M86590 4589
L86815 4589
" />
<path d="M86702 4589
L86702 4195
L86740 4251
L86777 4289
L86815 4307
" />
<path d="M86440 4232
L86421 4214
L86384 4195
L86290 4195
L86252 4214
L86234 4232
L86215 4270
L86215 4307
L86234 4364
L86459 4589
L86215 4589
" />
<path d="M80440 4570
L80384 4589
L80290 4589
L80252 4570
L80234 4551
L80215 4514
L80215 4476
L80234 4439
L80252 4420
L80290 4401
L80365 4382
L80402 4364
L80421 4345
L80440 4307
L80440 4270
L80421 4232
L80402 4214
L80365 4195
L80271 4195
L80215 4214
" />
<path d="M80084 4195
L79990 4589
L79915 4307
L79840 4589
L79746 4195
" />
<path d="M79690 4626
L79390 4626
" />
<path d="M79090 4589
L79315 4589
" />
<path d="M79202 4589
L79202 4195
L79240 4251
L79277 4289
L79315 4307
" />
<path d="M78715 4589
L78940 4589
" />
<path d="M78827 4589
L78827 4195
L78865 4251
L78902 4289
L78940 4307
" />
<path d="M72940 4570
L72884 4589
L72790 4589
L72752 4570
L72734 4551
L72715 4514
L72715 4476
L72734 4439
L72752 4420
L72790 4401
L72865 4382
L72902 4364
L72921 4345
L72940 4307
L72940 4270
L72921 4232
L72902 4214
L72865 4195
L72771 4195
L72715 4214
" />
<path d="M72584 4195
L72490 4589
L72415 4307
L72340 4589
L72246 4195
" />
<path d="M72190 4626
L71890 4626
" />
<path d="M71590 4589
L71815 4589
" />
<path d="M71702 4589
L71702 4195
L71740 4251
L71777 4289
L71815 4307
" />
<path d="M71346 4195
L71309 4195
L71271 4214
L71252 4232
L71234 4270
L71215 4345
L71215 4439
L71234 4514
L71252 4551
L71271 4570
L71309 4589
L71346 4589
L71384 4570
L71402 4551
L71421 4514
L71440 4439
L71440 4345
L71421 4270
L71402 4232
L71384 4214
L71346 4195
" />
<path d="M65252 4570
L65196 4589
L65102 4589
L65065 4570
L65046 4551
L65027 4514
L65027 4476
L65046 4439
L65065 4420
L65102 4401
L65177 4382
L65215 4364
L65234 4345
L65252 4307
L65252 4270
L65234 4232
L65215 4214
L65177 4195
L65084 4195
L65027 4214
" />
<path d="M64896 4195
L64802 4589
L64727 4307
L64652 4589
L64559 4195
" />
<path d="M64502 4626
L64202 4626
" />
<path d="M64090 4589
L64015 4589
L63977 4570
L63959 4551
L63921 4495
L63902 4420
L63902 4270
L63921 4232
L63940 4214
L63977 4195
L64052 4195
L64090 4214
L64109 4232
L64127 4270
L64127 4364
L64109 4401
L64090 4420
L64052 4439
L63977 4439
L63940 4420
L63921 4401
L63902 4364
" />
<path d="M57752 4570
L57696 4589
L57602 4589
L57565 4570
L57546 4551
L57527 4514
L57527 4476
L57546 4439
L57565 4420
L57602 4401
L57677 4382
L57715 4364
L57734 4345
L57752 4307
L57752 4270
L57734 4232
L57715 4214
L57677 4195
L57584 4195
L57527 4214
" />
<path d="M57396 4195
L57302 4589
L57227 4307
L57152 4589
L57059 4195
" />
<path d="M57002 4626
L56702 4626
" />
<path d="M56552 4364
L56590 4345
L56609 4326
L56627 4289
L56627 4270
L56609 4232
L56590 4214
L56552 4195
L56477 4195
L56440 4214
L56421 4232
L56402 4270
L56402 4289
L56421 4326
L56440 4345
L56477 4364
L56552 4364
L56590 4382
L56609 4401
L56627 4439
L56627 4514
L56609 4551
L56590 4570
L56552 4589
L56477 4589
L56440 4570
L56421 4551
L56402 4514
L56402 4439
L56421 4401
L56440 4382
L56477 4364
" />
<path d="M50252 4570
L50196 4589
L50102 4589
L50065 4570
L50046 4551
L50027 4514
L50027 4476
L50046 4439
L50065 4420
L50102 4401
L50177 4382
L50215 4364
L50234 4345
L50252 4307
L50252 4270
L50234 4232
L50215 4214
L50177 4195
L50084 4195
L50027 4214
" />
<path d="M49896 4195
L49802 4589
L49727 4307
L49652 4589
L49559 4195
" />
<path d="M49502 4626
L49202 4626
" />
<path d="M49146 4195
L48884 4195
L49052 4589
" />
<path d="M42752 4570
L42696 4589
L42602 4589
L42565 4570
L42546 4551
L42527 4514
L42527 4476
L42546 4439
L42565 4420
L42602 4401
L42677 4382
L42715 4364
L42734 4345
L42752 4307
L42752 4270
L42734 4232
L42715 4214
L42677 4195
L42584 4195
L42527 4214
" />
<path d="M42396 4195
L42302 4589
L42227 4307
L42152 4589
L42059 4195
" />
<path d="M42002 4626
L41702 4626
" />
<path d="M41440 4195
L41515 4195
L41552 4214
L41571 4232
L41609 4289
L41627 4364
L41627 4514
L41609 4551
L41590 4570
L41552 4589
L41477 4589
L41440 4570
L41421 4551
L41402 4514
L41402 4420
L41421 4382
L41440 4364
L41477 4345
L41552 4345
L41590 4364
L41609 4382
L41627 4420
" />
<path d="M35252 4570
L35196 4589
L35102 4589
L35065 4570
L35046 4551
L35027 4514
L35027 4476
L35046 4439
L35065 4420
L35102 4401
L35177 4382
L35215 4364
L35234 4345
L35252 4307
L35252 4270
L35234 4232
L35215 4214
L35177 4195
L35084 4195
L35027 4214
" />
<path d="M34896 4195
L34802 4589
L34727 4307
L34652 4589
L34559 4195
" />
<path d="M34502 4626
L34202 4626
" />
<path d="M33921 4195
L34109 4195
L34127 4382
L34109 4364
L34071 4345
L33977 4345
L33940 4364
L33921 4382
L33902 4420
L33902 4514
L33921 4551
L33940 4570
L33977 4589
L34071 4589
L34109 4570
L34127 4551
" />
<path d="M27752 4570
L27696 4589
L27602 4589
L27565 4570
L27546 4551
L27527 4514
L27527 4476
L27546 4439
L27565 4420
L27602 4401
L27677 4382
L27715 4364
L27734 4345
L27752 4307
L27752 4270
L27734 4232
L27715 4214
L27677 4195
L27584 4195
L27527 4214
" />
<path d="M27396 4195
L27302 4589
L27227 4307
L27152 4589
L27059 4195
" />
<path d="M27002 4626
L26702 4626
" />
<path d="M26440 4326
L26440 4589
" />
<path d="M26534 4176
L26627 4457
L26384 4457
" />
<path d="M20252 4570
L20196 4589
L20102 4589
L20065 4570
L20046 4551
L20027 4514
L20027 4476
L20046 4439
L20065 4420
L20102 4401
L20177 4382
L20215 4364
L20234 4345
L20252 4307
L20252 4270
L20234 4232
L20215 4214
L20177 4195
L20084 4195
L20027 4214
" />
<path d="M19896 4195
L19802 4589
L19727 4307
L19652 4589
L19559 4195
" />
<path d="M19502 4626
L19202 4626
" />
<path d="M19146 4195
L18902 4195
L19034 4345
L18977 4345
L18940 4364
L18921 4382
L18902 4420
L18902 4514
L18921 4551
L18940 4570
L18977 4589
L19090 4589
L19127 4570
L19146 4551
" />
<path d="M12752 4570
L12696 4589
L12602 4589
L12565 4570
L12546 4551
L12527 4514
L12527 4476
L12546 4439
L12565 4420
L12602 4401
L12677 4382
L12715 4364
L12734 4345
L12752 4307
L12752 4270
L12734 4232
L12715 4214
L12677 4195
L12584 4195
L12527 4214
" />
<path d="M12396 4195
L12302 4589
L12227 4307
L12152 4589
L12059 4195
" />
<path d="M12002 4626
L11702 4626
" />
<path d="M11627 4232
L11609 4214
L11571 4195
L11477 4195
L11440 4214
L11421 4232
L11402 4270
L11402 4307
L11421 4364
L11646 4589
L11402 4589
" />
<path d="M5252 4540
L5196 4559
L5102 4559
L5065 4540
L5046 4522
L5027 4484
L5027 4447
L5046 4409
L5065 4390
L5102 4372
L5177 4353
L5215 4334
L5234 4315
L5252 4278
L5252 4240
L5234 4203
L5215 4184
L5177 4165
L5084 4165
L5027 4184
" />
<path d="M4896 4165
L4802 4559
L4727 4278
L4652 4559
L4559 4165
" />
<path d="M4502 4597
L4202 4597
" />
<path d="M3902 4559
L4127 4559
" />
<path d="M4015 4559
L4015 4165
L4052 4222
L4090 4259
L4127 4278
" />
<path d="M76788 27070
L76732 27089
L76638 27089
L76601 27070
L76582 27051
L76563 27014
L76563 26976
L76582 26939
L76601 26920
L76638 26901
L76713 26882
L76751 26864
L76769 26845
L76788 26807
L76788 26770
L76769 26732
L76751 26714
L76713 26695
L76619 26695
L76563 26714
" />
<path d="M76432 26695
L76338 27089
L76263 26807
L76188 27089
L76095 26695
" />
<path d="M76038 27126
L75738 27126
" />
<path d="M75476 26695
L75551 26695
L75588 26714
L75607 26732
L75645 26789
L75663 26864
L75663 27014
L75645 27051
L75626 27070
L75588 27089
L75513 27089
L75476 27070
L75457 27051
L75438 27014
L75438 26920
L75457 26882
L75476 26864
L75513 26845
L75588 26845
L75626 26864
L75645 26882
L75663 26920
" />
<path d="M75082 26695
L75270 26695
L75288 26882
L75270 26864
L75232 26845
L75138 26845
L75101 26864
L75082 26882
L75063 26920
L75063 27014
L75082 27051
L75101 27070
L75138 27089
L75232 27089
L75270 27070
L75288 27051
" />
<path d="M61788 27070
L61732 27089
L61638 27089
L61601 27070
L61582 27051
L61563 27014
L61563 26976
L61582 26939
L61601 26920
L61638 26901
L61713 26882
L61751 26864
L61769 26845
L61788 26807
L61788 26770
L61769 26732
L61751 26714
L61713 26695
L61619 26695
L61563 26714
" />
<path d="M61432 26695
L61338 27089
L61263 26807
L61188 27089
L61095 26695
" />
<path d="M61038 27126
L60738 27126
" />
<path d="M60476 26695
L60551 26695
L60588 26714
L60607 26732
L60645 26789
L60663 26864
L60663 27014
L60645 27051
L60626 27070
L60588 27089
L60513 27089
L60476 27070
L60457 27051
L60438 27014
L60438 26920
L60457 26882
L60476 26864
L60513 26845
L60588 26845
L60626 26864
L60645 26882
L60663 26920
" />
<path d="M60288 26732
L60270 26714
L60232 26695
L60138 26695
L60101 26714
L60082 26732
L60063 26770
L60063 26807
L60082 26864
L60307 27089
L60063 27089
" />
<path d="M4613 12119
L4557 12138
L4463 12138
L4426 12119
L4407 12100
L4388 12063
L4388 12025
L4407 11988
L4426 11969
L4463 11950
L4538 11932
L4576 11913
L4594 11894
L4613 11857
L4613 11819
L4594 11782
L4576 11763
L4538 11744
L4444 11744
L4388 11763
" />
<path d="M4257 11744
L4163 12138
L4088 11857
L4013 12138
L3919 11744
" />
<path d="M3863 12175
L3563 12175
" />
<path d="M3263 12138
L3488 12138
" />
<path d="M3376 12138
L3376 11744
L3413 11800
L3451 11838
L3488 11857
" />
<path d="M2926 11744
L3001 11744
L3038 11763
L3057 11782
L3094 11838
L3113 11913
L3113 12063
L3094 12100
L3076 12119
L3038 12138
L2963 12138
L2926 12119
L2907 12100
L2888 12063
L2888 11969
L2907 11932
L2926 11913
L2963 11894
L3038 11894
L3076 11913
L3094 11932
L3113 11969
" />
<path d="M12940 12119
L12884 12138
L12790 12138
L12752 12119
L12734 12100
L12715 12063
L12715 12025
L12734 11988
L12752 11969
L12790 11950
L12865 11932
L12902 11913
L12921 11894
L12940 11857
L12940 11819
L12921 11782
L12902 11763
L12865 11744
L12771 11744
L12715 11763
" />
<path d="M12584 11744
L12490 12138
L12415 11857
L12340 12138
L12246 11744
" />
<path d="M12190 12175
L11890 12175
" />
<path d="M11590 12138
L11815 12138
" />
<path d="M11702 12138
L11702 11744
L11740 11800
L11777 11838
L11815 11857
" />
<path d="M11365 11913
L11402 11894
L11421 11875
L11440 11838
L11440 11819
L11421 11782
L11402 11763
L11365 11744
L11290 11744
L11252 11763
L11234 11782
L11215 11819
L11215 11838
L11234 11875
L11252 11894
L11290 11913
L11365 11913
L11402 11932
L11421 11950
L11440 11988
L11440 12063
L11421 12100
L11402 12119
L11365 12138
L11290 12138
L11252 12119
L11234 12100
L11215 12063
L11215 11988
L11234 11950
L11252 11932
L11290 11913
" />
<path d="M20440 12070
L20384 12089
L20290 12089
L20252 12070
L20234 12051
L20215 12014
L20215 11976
L20234 11939
L20252 11920
L20290 11901
L20365 11882
L20402 11864
L20421 11845
L20440 11807
L20440 11770
L20421 11732
L20402 11714
L20365 11695
L20271 11695
L20215 11714
" />
<path d="M20084 11695
L19990 12089
L19915 11807
L19840 12089
L19746 11695
" />
<path d="M19690 12126
L19390 12126
" />
<path d="M19315 11732
L19296 11714
L19259 11695
L19165 11695
L19127 11714
L19109 11732
L19090 11770
L19090 11807
L19109 11864
L19334 12089
L19090 12089
" />
<path d="M18846 11695
L18809 11695
L18771 11714
L18752 11732
L18734 11770
L18715 11845
L18715 11939
L18734 12014
L18752 12051
L18771 12070
L18809 12089
L18846 12089
L18884 12070
L18902 12051
L18921 12014
L18940 11939
L18940 11845
L18921 11770
L18902 11732
L18884 11714
L18846 11695
" />
<path d="M107740 12070
L107684 12089
L107590 12089
L107552 12070
L107534 12051
L107515 12014
L107515 11976
L107534 11939
L107552 11920
L107590 11901
L107665 11882
L107702 11864
L107721 11845
L107740 11807
L107740 11770
L107721 11732
L107702 11714
L107665 11695
L107571 11695
L107515 11714
" />
<path d="M107384 11695
L107290 12089
L107215 11807
L107140 12089
L107046 11695
" />
<path d="M106990 12126
L106690 12126
" />
<path d="M106634 11695
L106390 11695
L106521 11845
L106465 11845
L106427 11864
L106409 11882
L106390 11920
L106390 12014
L106409 12051
L106427 12070
L106465 12089
L106577 12089
L106615 12070
L106634 12051
" />
<path d="M106052 11695
L106127 11695
L106165 11714
L106184 11732
L106221 11789
L106240 11864
L106240 12014
L106221 12051
L106202 12070
L106165 12089
L106090 12089
L106052 12070
L106034 12051
L106015 12014
L106015 11920
L106034 11882
L106052 11864
L106090 11845
L106165 11845
L106202 11864
L106221 11882
L106240 11920
" />
<path d="M83240 12101
L83184 12120
L83090 12120
L83052 12101
L83034 12082
L83015 12045
L83015 12007
L83034 11970
L83052 11951
L83090 11932
L83165 11914
L83202 11895
L83221 11876
L83240 11839
L83240 11801
L83221 11764
L83202 11745
L83165 11726
L83071 11726
L83015 11745
" />
<path d="M82884 11726
L82790 12120
L82715 11839
L82640 12120
L82546 11726
" />
<path d="M82490 12157
L82190 12157
" />
<path d="M82134 11726
L81890 11726
L82021 11876
L81965 11876
L81927 11895
L81909 11914
L81890 11951
L81890 12045
L81909 12082
L81927 12101
L81965 12120
L82077 12120
L82115 12101
L82134 12082
" />
<path d="M81646 11726
L81609 11726
L81571 11745
L81552 11764
L81534 11801
L81515 11876
L81515 11970
L81534 12045
L81552 12082
L81571 12101
L81609 12120
L81646 12120
L81684 12101
L81702 12082
L81721 12045
L81740 11970
L81740 11876
L81721 11801
L81702 11764
L81684 11745
L81646 11726
" />
<path d="M99190 12070
L99134 12089
L99040 12089
L99002 12070
L98984 12051
L98965 12014
L98965 11976
L98984 11939
L99002 11920
L99040 11901
L99115 11882
L99152 11864
L99171 11845
L99190 11807
L99190 11770
L99171 11732
L99152 11714
L99115 11695
L99021 11695
L98965 11714
" />
<path d="M98834 11695
L98740 12089
L98665 11807
L98590 12089
L98496 11695
" />
<path d="M98440 12126
L98140 12126
" />
<path d="M98084 11695
L97840 11695
L97971 11845
L97915 11845
L97877 11864
L97859 11882
L97840 11920
L97840 12014
L97859 12051
L97877 12070
L97915 12089
L98027 12089
L98065 12070
L98084 12051
" />
<path d="M97502 11826
L97502 12089
" />
<path d="M97596 11676
L97690 11957
L97446 11957
" />
<path d="M91690 12070
L91634 12089
L91540 12089
L91502 12070
L91484 12051
L91465 12014
L91465 11976
L91484 11939
L91502 11920
L91540 11901
L91615 11882
L91652 11864
L91671 11845
L91690 11807
L91690 11770
L91671 11732
L91652 11714
L91615 11695
L91521 11695
L91465 11714
" />
<path d="M91334 11695
L91240 12089
L91165 11807
L91090 12089
L90996 11695
" />
<path d="M90940 12126
L90640 12126
" />
<path d="M90584 11695
L90340 11695
L90471 11845
L90415 11845
L90377 11864
L90359 11882
L90340 11920
L90340 12014
L90359 12051
L90377 12070
L90415 12089
L90527 12089
L90565 12070
L90584 12051
" />
<path d="M90190 11732
L90171 11714
L90134 11695
L90040 11695
L90002 11714
L89984 11732
L89965 11770
L89965 11807
L89984 11864
L90209 12089
L89965 12089
" />
<path d="M42940 27070
L42884 27089
L42790 27089
L42752 27070
L42734 27051
L42715 27014
L42715 26976
L42734 26939
L42752 26920
L42790 26901
L42865 26882
L42902 26864
L42921 26845
L42940 26807
L42940 26770
L42921 26732
L42902 26714
L42865 26695
L42771 26695
L42715 26714
" />
<path d="M42584 26695
L42490 27089
L42415 26807
L42340 27089
L42246 26695
" />
<path d="M42190 27126
L41890 27126
" />
<path d="M41609 26695
L41796 26695
L41815 26882
L41796 26864
L41759 26845
L41665 26845
L41627 26864
L41609 26882
L41590 26920
L41590 27014
L41609 27051
L41627 27070
L41665 27089
L41759 27089
L41796 27070
L41815 27051
" />
<path d="M41402 27089
L41327 27089
L41290 27070
L41271 27051
L41234 26995
L41215 26920
L41215 26770
L41234 26732
L41252 26714
L41290 26695
L41365 26695
L41402 26714
L41421 26732
L41440 26770
L41440 26864
L41421 26901
L41402 26920
L41365 26939
L41290 26939
L41252 26920
L41234 26901
L41215 26864
" />
<path d="M50440 27070
L50384 27089
L50290 27089
L50252 27070
L50234 27051
L50215 27014
L50215 26976
L50234 26939
L50252 26920
L50290 26901
L50365 26882
L50402 26864
L50421 26845
L50440 26807
L50440 26770
L50421 26732
L50402 26714
L50365 26695
L50271 26695
L50215 26714
" />
<path d="M50084 26695
L49990 27089
L49915 26807
L49840 27089
L49746 26695
" />
<path d="M49690 27126
L49390 27126
" />
<path d="M49127 26695
L49202 26695
L49240 26714
L49259 26732
L49296 26789
L49315 26864
L49315 27014
L49296 27051
L49277 27070
L49240 27089
L49165 27089
L49127 27070
L49109 27051
L49090 27014
L49090 26920
L49109 26882
L49127 26864
L49165 26845
L49240 26845
L49277 26864
L49296 26882
L49315 26920
" />
<path d="M48846 26695
L48809 26695
L48771 26714
L48752 26732
L48734 26770
L48715 26845
L48715 26939
L48734 27014
L48752 27051
L48771 27070
L48809 27089
L48846 27089
L48884 27070
L48902 27051
L48921 27014
L48940 26939
L48940 26845
L48921 26770
L48902 26732
L48884 26714
L48846 26695
" />
<path d="M35440 27070
L35384 27089
L35290 27089
L35252 27070
L35234 27051
L35215 27014
L35215 26976
L35234 26939
L35252 26920
L35290 26901
L35365 26882
L35402 26864
L35421 26845
L35440 26807
L35440 26770
L35421 26732
L35402 26714
L35365 26695
L35271 26695
L35215 26714
" />
<path d="M35084 26695
L34990 27089
L34915 26807
L34840 27089
L34746 26695
" />
<path d="M34690 27126
L34390 27126
" />
<path d="M34109 26695
L34296 26695
L34315 26882
L34296 26864
L34259 26845
L34165 26845
L34127 26864
L34109 26882
L34090 26920
L34090 27014
L34109 27051
L34127 27070
L34165 27089
L34259 27089
L34296 27070
L34315 27051
" />
<path d="M33959 26695
L33696 26695
L33865 27089
" />
<path d="M28740 12001
L28684 12020
L28590 12020
L28552 12001
L28534 11982
L28515 11945
L28515 11907
L28534 11870
L28552 11851
L28590 11832
L28665 11814
L28702 11795
L28721 11776
L28740 11739
L28740 11701
L28721 11664
L28702 11645
L28665 11626
L28571 11626
L28515 11645
" />
<path d="M28384 11626
L28290 12020
L28215 11739
L28140 12020
L28046 11626
" />
<path d="M27990 12057
L27690 12057
" />
<path d="M27615 11664
L27596 11645
L27559 11626
L27465 11626
L27427 11645
L27409 11664
L27390 11701
L27390 11739
L27409 11795
L27634 12020
L27390 12020
" />
<path d="M27240 11664
L27221 11645
L27184 11626
L27090 11626
L27052 11645
L27034 11664
L27015 11701
L27015 11739
L27034 11795
L27259 12020
L27015 12020
" />
</g>
<g style="fill:#840000; fill-opacity:0.0; 
stroke:#840000; stroke-width:78.7402; stroke-opacity:1; 
stroke-linecap:round; stroke-linejoin:round;">
</g>
<g style="fill:#840000; fill-opacity:0.0; 
stroke:#840000; stroke-width:59.0551; stroke-opacity:1; 
stroke-linecap:round; stroke-linejoin:round;">
<path d="M10522 3051
L10129 3051
L10129 3201
L10148 3239
L10166 3257
L10204 3276
L10260 3276
L10298 3257
L10316 3239
L10335 3201
L10335 3051
" />
<path d="M10522 3651
L10522 3426
" />
<path d="M10522 3538
L10129 3538
L10185 3501
L10223 3463
L10241 3426
" />
<path d="M15615 22076
L15428 21945
" />
<path d="M15615 21851
L15222 21851
L15222 22001
L15241 22039
L15259 22057
L15297 22076
L15353 22076
L15391 22057
L15409 22039
L15428 22001
L15428 21851
" />
<path d="M15615 22451
L15615 22226
" />
<path d="M15615 22338
L15222 22338
L15278 22301
L15316 22263
L15334 22226
" />
<path d="M14825 22076
L14638 21945
" />
<path d="M14825 21851
L14432 21851
L14432 22001
L14451 22039
L14469 22057
L14507 22076
L14563 22076
L14601 22057
L14619 22039
L14638 22001
L14638 21851
" />
<path d="M14469 22226
L14451 22245
L14432 22282
L14432 22376
L14451 22413
L14469 22432
L14507 22451
L14544 22451
L14601 22432
L14825 22207
L14825 22451
" />
<path d="M13598 22866
L13598 23185
L13579 23222
L13560 23241
L13523 23260
L13448 23260
L13410 23241
L13392 23222
L13373 23185
L13373 22866
" />
<path d="M12979 23260
L13204 23260
" />
<path d="M13092 23260
L13092 22866
L13129 22922
L13167 22960
L13204 22979
" />
<path d="M21237 26963
L21256 26981
L21312 27000
L21350 27000
L21406 26981
L21444 26944
L21462 26906
L21481 26831
L21481 26775
L21462 26700
L21444 26663
L21406 26625
L21350 26606
L21312 26606
L21256 26625
L21237 26644
" />
<path d="M20863 27000
L21088 27000
" />
<path d="M20975 27000
L20975 26606
L21013 26663
L21050 26700
L21088 26719
" />
<path d="M21237 23911
L21256 23930
L21312 23949
L21350 23949
L21406 23930
L21444 23893
L21462 23855
L21481 23780
L21481 23724
L21462 23649
L21444 23611
L21406 23574
L21350 23555
L21312 23555
L21256 23574
L21237 23593
" />
<path d="M21088 23593
L21069 23574
L21031 23555
L20938 23555
L20900 23574
L20881 23593
L20863 23630
L20863 23668
L20881 23724
L21106 23949
L20863 23949
" />
<path d="M2907 6874
L2926 6856
L2944 6799
L2944 6762
L2926 6706
L2888 6668
L2851 6649
L2776 6631
L2719 6631
L2644 6649
L2607 6668
L2570 6706
L2551 6762
L2551 6799
L2570 6856
L2588 6874
" />
<path d="M2551 7006
L2551 7249
L2701 7118
L2701 7174
L2719 7212
L2738 7231
L2776 7249
L2869 7249
L2907 7231
L2926 7212
L2944 7174
L2944 7062
L2926 7024
L2907 7006
" />
</g>
<g style="fill:#840084; fill-opacity:0.0; 
stroke:#840084; stroke-width:59.0551; stroke-opacity:1; 
stroke-linecap:round; stroke-linejoin:round;">
<path d="M3680 6101
L3680 6401
" />
<path d="M3830 6251
L3530 6251
" />
</g>
<g style="fill:#840000; fill-opacity:0.0; 
stroke:#840000; stroke-width:59.0551; stroke-opacity:1; 
stroke-linecap:round; stroke-linejoin:round;">
<path d="M11765 24197
L11784 24179
L11803 24122
L11803 24085
L11784 24029
L11746 23991
L11709 23972
L11634 23954
L11578 23954
L11503 23972
L11465 23991
L11428 24029
L11409 24085
L11409 24122
L11428 24179
L11447 24197
" />
<path d="M11540 24535
L11803 24535
" />
<path d="M11390 24441
L11671 24347
L11671 24591
" />
<path d="M16318 20076
L16337 20057
L16355 20001
L16355 19964
L16337 19907
L16299 19870
L16262 19851
L16187 19832
L16131 19832
L16056 19851
L16018 19870
L15981 19907
L15962 19964
L15962 20001
L15981 20057
L15999 20076
" />
<path d="M15962 20432
L15962 20245
L16149 20226
L16131 20245
L16112 20282
L16112 20376
L16131 20413
L16149 20432
L16187 20451
L16280 20451
L16318 20432
L16337 20413
L16355 20376
L16355 20282
L16337 20245
L16318 20226
" />
<path d="M17202 29758
L17221 29777
L17277 29795
L17315 29795
L17371 29777
L17408 29739
L17427 29702
L17446 29627
L17446 29570
L17427 29495
L17408 29458
L17371 29420
L17315 29402
L17277 29402
L17221 29420
L17202 29439
" />
<path d="M16865 29402
L16940 29402
L16977 29420
L16996 29439
L17033 29495
L17052 29570
L17052 29720
L17033 29758
L17015 29777
L16977 29795
L16902 29795
L16865 29777
L16846 29758
L16827 29720
L16827 29627
L16846 29589
L16865 29570
L16902 29552
L16977 29552
L17015 29570
L17033 29589
L17052 29627
" />
<path d="M17118 20076
L17137 20057
L17155 20001
L17155 19964
L17137 19907
L17099 19870
L17062 19851
L16987 19832
L16931 19832
L16856 19851
L16818 19870
L16781 19907
L16762 19964
L16762 20001
L16781 20057
L16799 20076
" />
<path d="M16762 20207
L16762 20470
L17155 20301
" />
<path d="M20056 24049
L20075 24068
L20131 24087
L20169 24087
L20225 24068
L20263 24030
L20281 23993
L20300 23918
L20300 23862
L20281 23787
L20263 23749
L20225 23712
L20169 23693
L20131 23693
L20075 23712
L20056 23730
" />
<path d="M19831 23862
L19869 23843
L19888 23824
L19906 23787
L19906 23768
L19888 23730
L19869 23712
L19831 23693
L19756 23693
L19719 23712
L19700 23730
L19681 23768
L19681 23787
L19700 23824
L19719 23843
L19756 23862
L19831 23862
L19869 23880
L19888 23899
L19906 23937
L19906 24012
L19888 24049
L19869 24068
L19831 24087
L19756 24087
L19719 24068
L19700 24049
L19681 24012
L19681 23937
L19700 23899
L19719 23880
L19756 23862
" />
<path d="M11765 26264
L11784 26245
L11803 26189
L11803 26152
L11784 26095
L11746 26058
L11709 26039
L11634 26020
L11578 26020
L11503 26039
L11465 26058
L11428 26095
L11409 26152
L11409 26189
L11428 26245
L11447 26264
" />
<path d="M11803 26452
L11803 26527
L11784 26564
L11765 26583
L11709 26620
L11634 26639
L11484 26639
L11447 26620
L11428 26602
L11409 26564
L11409 26489
L11428 26452
L11447 26433
L11484 26414
L11578 26414
L11615 26433
L11634 26452
L11653 26489
L11653 26564
L11634 26602
L11615 26620
L11578 26639
" />
<path d="M1754 6710
L1754 6579
" />
<path d="M1960 6579
L1567 6579
L1567 6767
" />
<path d="M1960 7123
L1960 6898
" />
<path d="M1960 7010
L1567 7010
L1623 6973
L1660 6935
L1679 6898
" />
<path d="M21455 18576
L21268 18445
" />
<path d="M21455 18351
L21062 18351
L21062 18501
L21081 18539
L21099 18557
L21137 18576
L21193 18576
L21231 18557
L21249 18539
L21268 18501
L21268 18351
" />
<path d="M21062 18707
L21062 18951
L21212 18820
L21212 18876
L21231 18913
L21249 18932
L21287 18951
L21380 18951
L21418 18932
L21437 18913
L21455 18876
L21455 18763
L21437 18726
L21418 18707
" />
<path d="M25221 21980
L25221 21587
L25071 21587
L25034 21605
L25015 21624
L24996 21662
L24996 21718
L25015 21755
L25034 21774
L25071 21793
L25221 21793
" />
<path d="M24603 21980
L24734 21793
" />
<path d="M24828 21980
L24828 21587
L24678 21587
L24640 21605
L24621 21624
L24603 21662
L24603 21718
L24621 21755
L24640 21774
L24678 21793
L24828 21793
" />
<path d="M24359 21587
L24284 21587
L24246 21605
L24209 21643
L24190 21718
L24190 21849
L24209 21924
L24246 21962
L24284 21980
L24359 21980
L24396 21962
L24434 21924
L24453 21849
L24453 21718
L24434 21643
L24396 21605
L24359 21587
" />
<path d="M23815 21605
L23853 21587
L23909 21587
L23965 21605
L24003 21643
L24022 21680
L24040 21755
L24040 21812
L24022 21887
L24003 21924
L23965 21962
L23909 21980
L23872 21980
L23815 21962
L23797 21943
L23797 21812
L23872 21812
" />
<path d="M23403 21980
L23534 21793
" />
<path d="M23628 21980
L23628 21587
L23478 21587
L23440 21605
L23422 21624
L23403 21662
L23403 21718
L23422 21755
L23440 21774
L23478 21793
L23628 21793
" />
<path d="M23253 21868
L23065 21868
" />
<path d="M23290 21980
L23159 21587
L23028 21980
" />
<path d="M22897 21980
L22897 21587
L22765 21868
L22634 21587
L22634 21980
" />
<path d="M21753 24844
L21753 25032
" />
<path d="M21884 24638
L21753 24844
L21622 24638
" />
<path d="M21284 25032
L21509 25032
" />
<path d="M21397 25032
L21397 24638
L21434 24694
L21472 24732
L21509 24750
" />
</g>
<g style="fill:#840084; fill-opacity:0.0; 
stroke:#840084; stroke-width:59.0551; stroke-opacity:1; 
stroke-linecap:round; stroke-linejoin:round;">
<path d="M6111 1925
L9143 1925
" />
<path d="M6111 1531
L9143 1531
" />
<path d="M9143 1531
L9143 5153
" />
<path d="M9143 5153
L6111 5153
" />
<path d="M6111 5153
L6111 1531
" />
<path d="M14993 20605
L14993 21078
" />
<path d="M15682 21078
L15682 20605
" />
<path d="M14303 20605
L14303 21078
" />
<path d="M14992 21078
L14992 20605
" />
<path d="M13690 23354
L13954 23354
" />
<path d="M13690 27429
L13954 27429
" />
<path d="M17765 27429
L17501 27429
" />
<path d="M17765 23354
L17501 23354
" />
<path d="M13690 23354
L13690 23618
" />
<path d="M17765 23354
L17765 23618
" />
<path d="M17765 27429
L17765 27165
" />
<path d="M13690 27429
L13690 27165
" />
<path d="M13954 23354
L13954 22774
" />
<path d="M20188 27157
L19794 27157
" />
<path d="M19794 26487
L20188 26487
" />
<path d="M20188 24105
L19794 24105
" />
<path d="M19794 23436
L20188 23436
" />
<path d="M2491 5996
L2491 3948
" />
<path d="M3435 3948
L3435 5996
" />
<path d="M3868 6783
L3435 6783
" />
<path d="M3671 7019
L3671 6547
" />
<path d="M3435 6545
L2491 6545
" />
<path d="M11881 24460
L11881 24066
" />
<path d="M12550 24066
L12550 24460
" />
<path d="M16487 21212
L16487 21605
" />
<path d="M15818 21605
L15818 21212
" />
<path d="M17333 29125
L16940 29125
" />
<path d="M16940 28456
L17333 28456
" />
<path d="M17274 21212
L17274 21605
" />
<path d="M16605 21605
L16605 21212
" />
<path d="M20188 23416
L19794 23416
" />
<path d="M19794 22747
L20188 22747
" />
<path d="M12550 26035
L12550 26428
" />
<path d="M11881 26428
L11881 26035
" />
<path d="M21615 20168
L21615 19696
" />
<path d="M20926 19696
L20926 20168
" />
<path d="M25207 21409
L25207 21330
" />
<path d="M25207 19046
L25207 19125
" />
<path d="M22648 19046
L22648 19125
" />
<path d="M22648 21409
L22648 21330
" />
<path d="M22648 20700
L22648 19755
" />
<path d="M25207 20700
L25207 19755
" />
<path d="M25207 21409
L22648 21409
" />
<path d="M22648 19046
L25207 19046
" />
<circle cx="23928.3" cy="20228" r="393.701" /> 
<circle cx="23928.3" cy="20228" r="590.551" /> 
<path d="M21014 25326
L21290 25326
" />
<path d="M20266 25916
L20266 26113
" />
<path d="M19714 25916
L20266 25916
" />
<path d="M20267 24578
L19715 24578
" />
<path d="M18967 25326
L18967 25168
" />
<path d="M21014 25326
L21014 25168
" />
</g>
<g style="fill:#840000; fill-opacity:0.0; 
stroke:#840000; stroke-width:59.0551; stroke-opacity:1; 
stroke-linecap:round; stroke-linejoin:round;">
</g>
<g style="fill:#840000; fill-opacity:1.0; 
stroke:#840000; stroke-width:0; stroke-opacity:1; 
stroke-linecap:round; stroke-linejoin:round;">
<circle cx="6761.88" cy="3677.13" r="177" /> 
</g>
<g style="fill:#840000; fill-opacity:1.0; 
stroke:#840000; stroke-width:39.3701; stroke-opacity:1; 
stroke-linecap:round; stroke-linejoin:round;">
</g>
<g style="fill:#840000; fill-opacity:1.0; 
stroke:#840000; stroke-width:0; stroke-opacity:1; 
stroke-linecap:round; stroke-linejoin:round;">
<circle cx="8493.88" cy="3677.13" r="177" /> 
</g>
<g style="fill:#840000; fill-opacity:1.0; 
stroke:#840000; stroke-width:39.3701; stroke-opacity:1; 
stroke-linecap:round; stroke-linejoin:round;">
</g> 
</svg>
