  0
SECTION
  2
HEADER
  9
$ACADVER
  1
AC1009
  9
$EXTMIN
 10
0.0
 20
0.0
 30
0.0
  9
$EXTMAX
 10
1000.0
 20
1000.0
 30
0.0
  9
$FILLMODE
 70
 0
  9
$SPLFRAME
 70
 1
  0
ENDSEC
  0
SECTION
  2
TABLES
  0
TABLE
  2
LAYER
 70
1
  0
LAYER
  2
0
 70
     0
 62
     7
  6
CONTINUOUS
  0
ENDTAB
  0
ENDSEC
  0
SECTION
  2
ENTITIES
  0
LINE
  8
0
 62
     0
 10
343.706
 20
115.343
 30
0.0
 11
344.099
 21
115.328
 31
0.0
  0
LINE
  8
0
 62
     0
 10
344.099
 20
115.328
 30
0.0
 11
344.489
 21
115.282
 31
0.0
  0
LINE
  8
0
 62
     0
 10
344.489
 20
115.282
 30
0.0
 11
344.873
 21
115.207
 31
0.0
  0
LINE
  8
0
 62
     0
 10
344.873
 20
115.207
 30
0.0
 11
345.252
 21
115.098
 31
0.0
  0
LINE
  8
0
 62
     0
 10
345.252
 20
115.098
 30
0.0
 11
345.62
 21
114.961
 31
0.0
  0
LINE
  8
0
 62
     0
 10
345.62
 20
114.961
 30
0.0
 11
345.976
 21
114.797
 31
0.0
  0
LINE
  8
0
 62
     0
 10
345.976
 20
114.797
 30
0.0
 11
346.319
 21
114.607
 31
0.0
  0
LINE
  8
0
 62
     0
 10
346.319
 20
114.607
 30
0.0
 11
346.644
 21
114.388
 31
0.0
  0
LINE
  8
0
 62
     0
 10
346.644
 20
114.388
 30
0.0
 11
346.954
 21
114.146
 31
0.0
  0
LINE
  8
0
 62
     0
 10
346.954
 20
114.146
 30
0.0
 11
347.242
 21
113.88
 31
0.0
  0
LINE
  8
0
 62
     0
 10
347.242
 20
113.88
 30
0.0
 11
347.508
 21
113.592
 31
0.0
  0
LINE
  8
0
 62
     0
 10
347.508
 20
113.592
 30
0.0
 11
347.752
 21
113.283
 31
0.0
  0
LINE
  8
0
 62
     0
 10
347.752
 20
113.283
 30
0.0
 11
347.97
 21
112.955
 31
0.0
  0
LINE
  8
0
 62
     0
 10
347.97
 20
112.955
 30
0.0
 11
348.161
 21
112.613
 31
0.0
  0
LINE
  8
0
 62
     0
 10
348.161
 20
112.613
 30
0.0
 11
348.325
 21
112.256
 31
0.0
  0
LINE
  8
0
 62
     0
 10
348.325
 20
112.256
 30
0.0
 11
348.462
 21
111.888
 31
0.0
  0
LINE
  8
0
 62
     0
 10
348.462
 20
111.888
 30
0.0
 11
348.568
 21
111.51
 31
0.0
  0
LINE
  8
0
 62
     0
 10
348.568
 20
111.51
 30
0.0
 11
348.645
 21
111.125
 31
0.0
  0
LINE
  8
0
 62
     0
 10
348.645
 20
111.125
 30
0.0
 11
348.69
 21
110.735
 31
0.0
  0
LINE
  8
0
 62
     0
 10
348.69
 20
110.735
 30
0.0
 11
348.706
 21
110.344
 31
0.0
  0
LINE
  8
0
 62
     0
 10
348.706
 20
110.344
 30
0.0
 11
348.707
 21
5.09323
 31
0.0
  0
LINE
  8
0
 62
     0
 10
348.707
 20
5.09323
 30
0.0
 11
348.69
 21
4.70186
 31
0.0
  0
LINE
  8
0
 62
     0
 10
348.69
 20
4.70186
 30
0.0
 11
348.645
 21
4.31052
 31
0.0
  0
LINE
  8
0
 62
     0
 10
348.645
 20
4.31052
 30
0.0
 11
348.568
 21
3.92603
 31
0.0
  0
LINE
  8
0
 62
     0
 10
348.568
 20
3.92603
 30
0.0
 11
348.462
 21
3.54845
 31
0.0
  0
LINE
  8
0
 62
     0
 10
348.462
 20
3.54845
 30
0.0
 11
348.325
 21
3.18051
 31
0.0
  0
LINE
  8
0
 62
     0
 10
348.325
 20
3.18051
 30
0.0
 11
348.161
 21
2.8236
 31
0.0
  0
LINE
  8
0
 62
     0
 10
348.161
 20
2.8236
 30
0.0
 11
347.97
 21
2.48185
 31
0.0
  0
LINE
  8
0
 62
     0
 10
347.97
 20
2.48185
 30
0.0
 11
347.752
 21
2.15387
 31
0.0
  0
LINE
  8
0
 62
     0
 10
347.752
 20
2.15387
 30
0.0
 11
347.508
 21
1.84795
 31
0.0
  0
LINE
  8
0
 62
     0
 10
347.508
 20
1.84795
 30
0.0
 11
347.242
 21
1.55718
 31
0.0
  0
LINE
  8
0
 62
     0
 10
347.242
 20
1.55718
 30
0.0
 11
346.954
 21
1.29122
 31
0.0
  0
LINE
  8
0
 62
     0
 10
346.954
 20
1.29122
 30
0.0
 11
346.644
 21
1.04869
 31
0.0
  0
LINE
  8
0
 62
     0
 10
346.644
 20
1.04869
 30
0.0
 11
346.319
 21
0.829578
 31
0.0
  0
LINE
  8
0
 62
     0
 10
346.319
 20
0.829578
 30
0.0
 11
345.976
 21
0.63803
 31
0.0
  0
LINE
  8
0
 62
     0
 10
345.976
 20
0.63803
 30
0.0
 11
345.62
 21
0.474045
 31
0.0
  0
LINE
  8
0
 62
     0
 10
345.62
 20
0.474045
 30
0.0
 11
345.252
 21
0.337619
 31
0.0
  0
LINE
  8
0
 62
     0
 10
345.252
 20
0.337619
 30
0.0
 11
344.873
 21
0.232888
 31
0.0
  0
LINE
  8
0
 62
     0
 10
344.873
 20
0.232888
 30
0.0
 11
344.489
 21
0.157097
 31
0.0
  0
LINE
  8
0
 62
     0
 10
344.489
 20
0.157097
 30
0.0
 11
344.099
 21
0.107487
 31
0.0
  0
LINE
  8
0
 62
     0
 10
344.099
 20
0.107487
 30
0.0
 11
343.706
 21
0.0937066
 31
0.0
  0
LINE
  8
0
 62
     0
 10
343.706
 20
0.0937066
 30
0.0
 11
5.09323
 21
0.0937066
 31
0.0
  0
LINE
  8
0
 62
     0
 10
5.09323
 20
0.0937066
 30
0.0
 11
4.70186
 21
0.107487
 31
0.0
  0
LINE
  8
0
 62
     0
 10
4.70186
 20
0.107487
 30
0.0
 11
4.3119
 21
0.157097
 31
0.0
  0
LINE
  8
0
 62
     0
 10
4.3119
 20
0.157097
 30
0.0
 11
3.9274
 21
0.232888
 31
0.0
  0
LINE
  8
0
 62
     0
 10
3.9274
 20
0.232888
 30
0.0
 11
3.54845
 21
0.337619
 31
0.0
  0
LINE
  8
0
 62
     0
 10
3.54845
 20
0.337619
 30
0.0
 11
3.18051
 21
0.474045
 31
0.0
  0
LINE
  8
0
 62
     0
 10
3.18051
 20
0.474045
 30
0.0
 11
2.8236
 21
0.63803
 31
0.0
  0
LINE
  8
0
 62
     0
 10
2.8236
 20
0.63803
 30
0.0
 11
2.48185
 21
0.829578
 31
0.0
  0
LINE
  8
0
 62
     0
 10
2.48185
 20
0.829578
 30
0.0
 11
2.15525
 21
1.04869
 31
0.0
  0
LINE
  8
0
 62
     0
 10
2.15525
 20
1.04869
 30
0.0
 11
1.84657
 21
1.29122
 31
0.0
  0
LINE
  8
0
 62
     0
 10
1.84657
 20
1.29122
 30
0.0
 11
1.55718
 21
1.55718
 31
0.0
  0
LINE
  8
0
 62
     0
 10
1.55718
 20
1.55718
 30
0.0
 11
1.29122
 21
1.84795
 31
0.0
  0
LINE
  8
0
 62
     0
 10
1.29122
 20
1.84795
 30
0.0
 11
1.04869
 21
2.15387
 31
0.0
  0
LINE
  8
0
 62
     0
 10
1.04869
 20
2.15387
 30
0.0
 11
0.830957
 21
2.48185
 31
0.0
  0
LINE
  8
0
 62
     0
 10
0.830957
 20
2.48185
 30
0.0
 11
0.63941
 21
2.8236
 31
0.0
  0
LINE
  8
0
 62
     0
 10
0.63941
 20
2.8236
 30
0.0
 11
0.475424
 21
3.18051
 31
0.0
  0
LINE
  8
0
 62
     0
 10
0.475424
 20
3.18051
 30
0.0
 11
0.338998
 21
3.54845
 31
0.0
  0
LINE
  8
0
 62
     0
 10
0.338998
 20
3.54845
 30
0.0
 11
0.23151
 21
3.92603
 31
0.0
  0
LINE
  8
0
 62
     0
 10
0.23151
 20
3.92603
 30
0.0
 11
0.155718
 21
4.31052
 31
0.0
  0
LINE
  8
0
 62
     0
 10
0.155718
 20
4.31052
 30
0.0
 11
0.108865
 21
4.70186
 31
0.0
  0
LINE
  8
0
 62
     0
 10
0.108865
 20
4.70186
 30
0.0
 11
0.0937066
 21
5.09323
 31
0.0
  0
LINE
  8
0
 62
     0
 10
0.0937066
 20
5.09323
 30
0.0
 11
0.0937066
 21
110.344
 31
0.0
  0
LINE
  8
0
 62
     0
 10
0.0937066
 20
110.344
 30
0.0
 11
0.108865
 21
110.735
 31
0.0
  0
LINE
  8
0
 62
     0
 10
0.108865
 20
110.735
 30
0.0
 11
0.155718
 21
111.125
 31
0.0
  0
LINE
  8
0
 62
     0
 10
0.155718
 20
111.125
 30
0.0
 11
0.23151
 21
111.51
 31
0.0
  0
LINE
  8
0
 62
     0
 10
0.23151
 20
111.51
 30
0.0
 11
0.338998
 21
111.888
 31
0.0
  0
LINE
  8
0
 62
     0
 10
0.338998
 20
111.888
 30
0.0
 11
0.475424
 21
112.256
 31
0.0
  0
LINE
  8
0
 62
     0
 10
0.475424
 20
112.256
 30
0.0
 11
0.63941
 21
112.613
 31
0.0
  0
LINE
  8
0
 62
     0
 10
0.63941
 20
112.613
 30
0.0
 11
0.830957
 21
112.955
 31
0.0
  0
LINE
  8
0
 62
     0
 10
0.830957
 20
112.955
 30
0.0
 11
1.04869
 21
113.283
 31
0.0
  0
LINE
  8
0
 62
     0
 10
1.04869
 20
113.283
 30
0.0
 11
1.29122
 21
113.592
 31
0.0
  0
LINE
  8
0
 62
     0
 10
1.29122
 20
113.592
 30
0.0
 11
1.55718
 21
113.88
 31
0.0
  0
LINE
  8
0
 62
     0
 10
1.55718
 20
113.88
 30
0.0
 11
1.84657
 21
114.146
 31
0.0
  0
LINE
  8
0
 62
     0
 10
1.84657
 20
114.146
 30
0.0
 11
2.15525
 21
114.388
 31
0.0
  0
LINE
  8
0
 62
     0
 10
2.15525
 20
114.388
 30
0.0
 11
2.48185
 21
114.607
 31
0.0
  0
LINE
  8
0
 62
     0
 10
2.48185
 20
114.607
 30
0.0
 11
2.8236
 21
114.797
 31
0.0
  0
LINE
  8
0
 62
     0
 10
2.8236
 20
114.797
 30
0.0
 11
3.18051
 21
114.961
 31
0.0
  0
LINE
  8
0
 62
     0
 10
3.18051
 20
114.961
 30
0.0
 11
3.54845
 21
115.098
 31
0.0
  0
LINE
  8
0
 62
     0
 10
3.54845
 20
115.098
 30
0.0
 11
3.9274
 21
115.207
 31
0.0
  0
LINE
  8
0
 62
     0
 10
3.9274
 20
115.207
 30
0.0
 11
4.3119
 21
115.282
 31
0.0
  0
LINE
  8
0
 62
     0
 10
4.3119
 20
115.282
 30
0.0
 11
4.70186
 21
115.328
 31
0.0
  0
LINE
  8
0
 62
     0
 10
4.70186
 20
115.328
 30
0.0
 11
5.09323
 21
115.343
 31
0.0
  0
LINE
  8
0
 62
     0
 10
5.09323
 20
115.343
 30
0.0
 11
343.706
 21
115.343
 31
0.0
  0
LINE
  8
0
 62
     0
 10
117.964
 20
112.043
 30
0.0
 11
118.489
 21
111.961
 31
0.0
  0
LINE
  8
0
 62
     0
 10
118.489
 20
111.961
 30
0.0
 11
118.963
 21
111.718
 31
0.0
  0
LINE
  8
0
 62
     0
 10
118.963
 20
111.718
 30
0.0
 11
119.339
 21
111.344
 31
0.0
  0
LINE
  8
0
 62
     0
 10
119.339
 20
111.344
 30
0.0
 11
119.582
 21
110.87
 31
0.0
  0
LINE
  8
0
 62
     0
 10
119.582
 20
110.87
 30
0.0
 11
119.665
 21
110.344
 31
0.0
  0
LINE
  8
0
 62
     0
 10
119.665
 20
110.344
 30
0.0
 11
119.582
 21
109.819
 31
0.0
  0
LINE
  8
0
 62
     0
 10
119.582
 20
109.819
 30
0.0
 11
119.339
 21
109.345
 31
0.0
  0
LINE
  8
0
 62
     0
 10
119.339
 20
109.345
 30
0.0
 11
118.963
 21
108.968
 31
0.0
  0
LINE
  8
0
 62
     0
 10
118.963
 20
108.968
 30
0.0
 11
118.489
 21
108.727
 31
0.0
  0
LINE
  8
0
 62
     0
 10
118.489
 20
108.727
 30
0.0
 11
117.964
 21
108.643
 31
0.0
  0
LINE
  8
0
 62
     0
 10
117.964
 20
108.643
 30
0.0
 11
117.439
 21
108.727
 31
0.0
  0
LINE
  8
0
 62
     0
 10
117.439
 20
108.727
 30
0.0
 11
116.965
 21
108.968
 31
0.0
  0
LINE
  8
0
 62
     0
 10
116.965
 20
108.968
 30
0.0
 11
116.59
 21
109.345
 31
0.0
  0
LINE
  8
0
 62
     0
 10
116.59
 20
109.345
 30
0.0
 11
116.348
 21
109.819
 31
0.0
  0
LINE
  8
0
 62
     0
 10
116.348
 20
109.819
 30
0.0
 11
116.265
 21
110.344
 31
0.0
  0
LINE
  8
0
 62
     0
 10
116.265
 20
110.344
 30
0.0
 11
116.348
 21
110.87
 31
0.0
  0
LINE
  8
0
 62
     0
 10
116.348
 20
110.87
 30
0.0
 11
116.59
 21
111.344
 31
0.0
  0
LINE
  8
0
 62
     0
 10
116.59
 20
111.344
 30
0.0
 11
116.965
 21
111.718
 31
0.0
  0
LINE
  8
0
 62
     0
 10
116.965
 20
111.718
 30
0.0
 11
117.439
 21
111.961
 31
0.0
  0
LINE
  8
0
 62
     0
 10
117.439
 20
111.961
 30
0.0
 11
117.964
 21
112.043
 31
0.0
  0
LINE
  8
0
 62
     0
 10
230.835
 20
112.043
 30
0.0
 11
231.36
 21
111.961
 31
0.0
  0
LINE
  8
0
 62
     0
 10
231.36
 20
111.961
 30
0.0
 11
231.834
 21
111.718
 31
0.0
  0
LINE
  8
0
 62
     0
 10
231.834
 20
111.718
 30
0.0
 11
232.21
 21
111.344
 31
0.0
  0
LINE
  8
0
 62
     0
 10
232.21
 20
111.344
 30
0.0
 11
232.452
 21
110.87
 31
0.0
  0
LINE
  8
0
 62
     0
 10
232.452
 20
110.87
 30
0.0
 11
232.536
 21
110.344
 31
0.0
  0
LINE
  8
0
 62
     0
 10
232.536
 20
110.344
 30
0.0
 11
232.452
 21
109.819
 31
0.0
  0
LINE
  8
0
 62
     0
 10
232.452
 20
109.819
 30
0.0
 11
232.21
 21
109.345
 31
0.0
  0
LINE
  8
0
 62
     0
 10
232.21
 20
109.345
 30
0.0
 11
231.834
 21
108.968
 31
0.0
  0
LINE
  8
0
 62
     0
 10
231.834
 20
108.968
 30
0.0
 11
231.36
 21
108.727
 31
0.0
  0
LINE
  8
0
 62
     0
 10
231.36
 20
108.727
 30
0.0
 11
230.835
 21
108.643
 31
0.0
  0
LINE
  8
0
 62
     0
 10
230.835
 20
108.643
 30
0.0
 11
230.31
 21
108.727
 31
0.0
  0
LINE
  8
0
 62
     0
 10
230.31
 20
108.727
 30
0.0
 11
229.836
 21
108.968
 31
0.0
  0
LINE
  8
0
 62
     0
 10
229.836
 20
108.968
 30
0.0
 11
229.46
 21
109.345
 31
0.0
  0
LINE
  8
0
 62
     0
 10
229.46
 20
109.345
 30
0.0
 11
229.219
 21
109.819
 31
0.0
  0
LINE
  8
0
 62
     0
 10
229.219
 20
109.819
 30
0.0
 11
229.136
 21
110.344
 31
0.0
  0
LINE
  8
0
 62
     0
 10
229.136
 20
110.344
 30
0.0
 11
229.219
 21
110.87
 31
0.0
  0
LINE
  8
0
 62
     0
 10
229.219
 20
110.87
 30
0.0
 11
229.46
 21
111.344
 31
0.0
  0
LINE
  8
0
 62
     0
 10
229.46
 20
111.344
 30
0.0
 11
229.836
 21
111.718
 31
0.0
  0
LINE
  8
0
 62
     0
 10
229.836
 20
111.718
 30
0.0
 11
230.31
 21
111.961
 31
0.0
  0
LINE
  8
0
 62
     0
 10
230.31
 20
111.961
 30
0.0
 11
230.835
 21
112.043
 31
0.0
  0
LINE
  8
0
 62
     0
 10
343.706
 20
112.043
 30
0.0
 11
344.231
 21
111.961
 31
0.0
  0
LINE
  8
0
 62
     0
 10
344.231
 20
111.961
 30
0.0
 11
344.705
 21
111.718
 31
0.0
  0
LINE
  8
0
 62
     0
 10
344.705
 20
111.718
 30
0.0
 11
345.082
 21
111.344
 31
0.0
  0
LINE
  8
0
 62
     0
 10
345.082
 20
111.344
 30
0.0
 11
345.323
 21
110.87
 31
0.0
  0
LINE
  8
0
 62
     0
 10
345.323
 20
110.87
 30
0.0
 11
345.406
 21
110.344
 31
0.0
  0
LINE
  8
0
 62
     0
 10
345.406
 20
110.344
 30
0.0
 11
345.323
 21
109.819
 31
0.0
  0
LINE
  8
0
 62
     0
 10
345.323
 20
109.819
 30
0.0
 11
345.082
 21
109.345
 31
0.0
  0
LINE
  8
0
 62
     0
 10
345.082
 20
109.345
 30
0.0
 11
344.705
 21
108.968
 31
0.0
  0
LINE
  8
0
 62
     0
 10
344.705
 20
108.968
 30
0.0
 11
344.231
 21
108.727
 31
0.0
  0
LINE
  8
0
 62
     0
 10
344.231
 20
108.727
 30
0.0
 11
343.706
 21
108.643
 31
0.0
  0
LINE
  8
0
 62
     0
 10
343.706
 20
108.643
 30
0.0
 11
343.181
 21
108.727
 31
0.0
  0
LINE
  8
0
 62
     0
 10
343.181
 20
108.727
 30
0.0
 11
342.707
 21
108.968
 31
0.0
  0
LINE
  8
0
 62
     0
 10
342.707
 20
108.968
 30
0.0
 11
342.331
 21
109.345
 31
0.0
  0
LINE
  8
0
 62
     0
 10
342.331
 20
109.345
 30
0.0
 11
342.09
 21
109.819
 31
0.0
  0
LINE
  8
0
 62
     0
 10
342.09
 20
109.819
 30
0.0
 11
342.007
 21
110.344
 31
0.0
  0
LINE
  8
0
 62
     0
 10
342.007
 20
110.344
 30
0.0
 11
342.09
 21
110.87
 31
0.0
  0
LINE
  8
0
 62
     0
 10
342.09
 20
110.87
 30
0.0
 11
342.331
 21
111.344
 31
0.0
  0
LINE
  8
0
 62
     0
 10
342.331
 20
111.344
 30
0.0
 11
342.707
 21
111.718
 31
0.0
  0
LINE
  8
0
 62
     0
 10
342.707
 20
111.718
 30
0.0
 11
343.181
 21
111.961
 31
0.0
  0
LINE
  8
0
 62
     0
 10
343.181
 20
111.961
 30
0.0
 11
343.706
 21
112.043
 31
0.0
  0
LINE
  8
0
 62
     0
 10
343.706
 20
6.79372
 30
0.0
 11
344.231
 21
6.70966
 31
0.0
  0
LINE
  8
0
 62
     0
 10
344.231
 20
6.70966
 30
0.0
 11
344.705
 21
6.4685
 31
0.0
  0
LINE
  8
0
 62
     0
 10
344.705
 20
6.4685
 30
0.0
 11
345.082
 21
6.0923
 31
0.0
  0
LINE
  8
0
 62
     0
 10
345.082
 20
6.0923
 30
0.0
 11
345.323
 21
5.61827
 31
0.0
  0
LINE
  8
0
 62
     0
 10
345.323
 20
5.61827
 30
0.0
 11
345.406
 21
5.09323
 31
0.0
  0
LINE
  8
0
 62
     0
 10
345.406
 20
5.09323
 30
0.0
 11
345.323
 21
4.56957
 31
0.0
  0
LINE
  8
0
 62
     0
 10
345.323
 20
4.56957
 30
0.0
 11
345.082
 21
4.09416
 31
0.0
  0
LINE
  8
0
 62
     0
 10
345.082
 20
4.09416
 30
0.0
 11
344.705
 21
3.71796
 31
0.0
  0
LINE
  8
0
 62
     0
 10
344.705
 20
3.71796
 30
0.0
 11
344.231
 21
3.47679
 31
0.0
  0
LINE
  8
0
 62
     0
 10
344.231
 20
3.47679
 30
0.0
 11
343.706
 21
3.39411
 31
0.0
  0
LINE
  8
0
 62
     0
 10
343.706
 20
3.39411
 30
0.0
 11
343.181
 21
3.47679
 31
0.0
  0
LINE
  8
0
 62
     0
 10
343.181
 20
3.47679
 30
0.0
 11
342.707
 21
3.71796
 31
0.0
  0
LINE
  8
0
 62
     0
 10
342.707
 20
3.71796
 30
0.0
 11
342.331
 21
4.09416
 31
0.0
  0
LINE
  8
0
 62
     0
 10
342.331
 20
4.09416
 30
0.0
 11
342.09
 21
4.56957
 31
0.0
  0
LINE
  8
0
 62
     0
 10
342.09
 20
4.56957
 30
0.0
 11
342.007
 21
5.09323
 31
0.0
  0
LINE
  8
0
 62
     0
 10
342.007
 20
5.09323
 30
0.0
 11
342.09
 21
5.61827
 31
0.0
  0
LINE
  8
0
 62
     0
 10
342.09
 20
5.61827
 30
0.0
 11
342.331
 21
6.0923
 31
0.0
  0
LINE
  8
0
 62
     0
 10
342.331
 20
6.0923
 30
0.0
 11
342.707
 21
6.4685
 31
0.0
  0
LINE
  8
0
 62
     0
 10
342.707
 20
6.4685
 30
0.0
 11
343.181
 21
6.70966
 31
0.0
  0
LINE
  8
0
 62
     0
 10
343.181
 20
6.70966
 30
0.0
 11
343.706
 21
6.79372
 31
0.0
  0
LINE
  8
0
 62
     0
 10
230.835
 20
6.79372
 30
0.0
 11
231.36
 21
6.70966
 31
0.0
  0
LINE
  8
0
 62
     0
 10
231.36
 20
6.70966
 30
0.0
 11
231.834
 21
6.4685
 31
0.0
  0
LINE
  8
0
 62
     0
 10
231.834
 20
6.4685
 30
0.0
 11
232.21
 21
6.0923
 31
0.0
  0
LINE
  8
0
 62
     0
 10
232.21
 20
6.0923
 30
0.0
 11
232.452
 21
5.61827
 31
0.0
  0
LINE
  8
0
 62
     0
 10
232.452
 20
5.61827
 30
0.0
 11
232.536
 21
5.09323
 31
0.0
  0
LINE
  8
0
 62
     0
 10
232.536
 20
5.09323
 30
0.0
 11
232.452
 21
4.56957
 31
0.0
  0
LINE
  8
0
 62
     0
 10
232.452
 20
4.56957
 30
0.0
 11
232.21
 21
4.09416
 31
0.0
  0
LINE
  8
0
 62
     0
 10
232.21
 20
4.09416
 30
0.0
 11
231.834
 21
3.71796
 31
0.0
  0
LINE
  8
0
 62
     0
 10
231.834
 20
3.71796
 30
0.0
 11
231.36
 21
3.47679
 31
0.0
  0
LINE
  8
0
 62
     0
 10
231.36
 20
3.47679
 30
0.0
 11
230.835
 21
3.39411
 31
0.0
  0
LINE
  8
0
 62
     0
 10
230.835
 20
3.39411
 30
0.0
 11
230.31
 21
3.47679
 31
0.0
  0
LINE
  8
0
 62
     0
 10
230.31
 20
3.47679
 30
0.0
 11
229.836
 21
3.71796
 31
0.0
  0
LINE
  8
0
 62
     0
 10
229.836
 20
3.71796
 30
0.0
 11
229.46
 21
4.09416
 31
0.0
  0
LINE
  8
0
 62
     0
 10
229.46
 20
4.09416
 30
0.0
 11
229.219
 21
4.56957
 31
0.0
  0
LINE
  8
0
 62
     0
 10
229.219
 20
4.56957
 30
0.0
 11
229.136
 21
5.09323
 31
0.0
  0
LINE
  8
0
 62
     0
 10
229.136
 20
5.09323
 30
0.0
 11
229.219
 21
5.61827
 31
0.0
  0
LINE
  8
0
 62
     0
 10
229.219
 20
5.61827
 30
0.0
 11
229.46
 21
6.0923
 31
0.0
  0
LINE
  8
0
 62
     0
 10
229.46
 20
6.0923
 30
0.0
 11
229.836
 21
6.4685
 31
0.0
  0
LINE
  8
0
 62
     0
 10
229.836
 20
6.4685
 30
0.0
 11
230.31
 21
6.70966
 31
0.0
  0
LINE
  8
0
 62
     0
 10
230.31
 20
6.70966
 30
0.0
 11
230.835
 21
6.79372
 31
0.0
  0
LINE
  8
0
 62
     0
 10
117.964
 20
6.79372
 30
0.0
 11
118.489
 21
6.70966
 31
0.0
  0
LINE
  8
0
 62
     0
 10
118.489
 20
6.70966
 30
0.0
 11
118.963
 21
6.4685
 31
0.0
  0
LINE
  8
0
 62
     0
 10
118.963
 20
6.4685
 30
0.0
 11
119.339
 21
6.0923
 31
0.0
  0
LINE
  8
0
 62
     0
 10
119.339
 20
6.0923
 30
0.0
 11
119.582
 21
5.61827
 31
0.0
  0
LINE
  8
0
 62
     0
 10
119.582
 20
5.61827
 30
0.0
 11
119.665
 21
5.09323
 31
0.0
  0
LINE
  8
0
 62
     0
 10
119.665
 20
5.09323
 30
0.0
 11
119.582
 21
4.56957
 31
0.0
  0
LINE
  8
0
 62
     0
 10
119.582
 20
4.56957
 30
0.0
 11
119.339
 21
4.09416
 31
0.0
  0
LINE
  8
0
 62
     0
 10
119.339
 20
4.09416
 30
0.0
 11
118.963
 21
3.71796
 31
0.0
  0
LINE
  8
0
 62
     0
 10
118.963
 20
3.71796
 30
0.0
 11
118.489
 21
3.47679
 31
0.0
  0
LINE
  8
0
 62
     0
 10
118.489
 20
3.47679
 30
0.0
 11
117.964
 21
3.39411
 31
0.0
  0
LINE
  8
0
 62
     0
 10
117.964
 20
3.39411
 30
0.0
 11
117.439
 21
3.47679
 31
0.0
  0
LINE
  8
0
 62
     0
 10
117.439
 20
3.47679
 30
0.0
 11
116.965
 21
3.71796
 31
0.0
  0
LINE
  8
0
 62
     0
 10
116.965
 20
3.71796
 30
0.0
 11
116.59
 21
4.09416
 31
0.0
  0
LINE
  8
0
 62
     0
 10
116.59
 20
4.09416
 30
0.0
 11
116.348
 21
4.56957
 31
0.0
  0
LINE
  8
0
 62
     0
 10
116.348
 20
4.56957
 30
0.0
 11
116.265
 21
5.09323
 31
0.0
  0
LINE
  8
0
 62
     0
 10
116.265
 20
5.09323
 30
0.0
 11
116.348
 21
5.61827
 31
0.0
  0
LINE
  8
0
 62
     0
 10
116.348
 20
5.61827
 30
0.0
 11
116.59
 21
6.0923
 31
0.0
  0
LINE
  8
0
 62
     0
 10
116.59
 20
6.0923
 30
0.0
 11
116.965
 21
6.4685
 31
0.0
  0
LINE
  8
0
 62
     0
 10
116.965
 20
6.4685
 30
0.0
 11
117.439
 21
6.70966
 31
0.0
  0
LINE
  8
0
 62
     0
 10
117.439
 20
6.70966
 30
0.0
 11
117.964
 21
6.79372
 31
0.0
  0
LINE
  8
0
 62
     0
 10
5.09323
 20
6.79372
 30
0.0
 11
5.61827
 21
6.70966
 31
0.0
  0
LINE
  8
0
 62
     0
 10
5.61827
 20
6.70966
 30
0.0
 11
6.0923
 21
6.4685
 31
0.0
  0
LINE
  8
0
 62
     0
 10
6.0923
 20
6.4685
 30
0.0
 11
6.4685
 21
6.0923
 31
0.0
  0
LINE
  8
0
 62
     0
 10
6.4685
 20
6.0923
 30
0.0
 11
6.71103
 21
5.61827
 31
0.0
  0
LINE
  8
0
 62
     0
 10
6.71103
 20
5.61827
 30
0.0
 11
6.79372
 21
5.09323
 31
0.0
  0
LINE
  8
0
 62
     0
 10
6.79372
 20
5.09323
 30
0.0
 11
6.71103
 21
4.56957
 31
0.0
  0
LINE
  8
0
 62
     0
 10
6.71103
 20
4.56957
 30
0.0
 11
6.4685
 21
4.09416
 31
0.0
  0
LINE
  8
0
 62
     0
 10
6.4685
 20
4.09416
 30
0.0
 11
6.0923
 21
3.71796
 31
0.0
  0
LINE
  8
0
 62
     0
 10
6.0923
 20
3.71796
 30
0.0
 11
5.61827
 21
3.47679
 31
0.0
  0
LINE
  8
0
 62
     0
 10
5.61827
 20
3.47679
 30
0.0
 11
5.09323
 21
3.39411
 31
0.0
  0
LINE
  8
0
 62
     0
 10
5.09323
 20
3.39411
 30
0.0
 11
4.56819
 21
3.47679
 31
0.0
  0
LINE
  8
0
 62
     0
 10
4.56819
 20
3.47679
 30
0.0
 11
4.09416
 21
3.71796
 31
0.0
  0
LINE
  8
0
 62
     0
 10
4.09416
 20
3.71796
 30
0.0
 11
3.71934
 21
4.09416
 31
0.0
  0
LINE
  8
0
 62
     0
 10
3.71934
 20
4.09416
 30
0.0
 11
3.47679
 21
4.56957
 31
0.0
  0
LINE
  8
0
 62
     0
 10
3.47679
 20
4.56957
 30
0.0
 11
3.39411
 21
5.09323
 31
0.0
  0
LINE
  8
0
 62
     0
 10
3.39411
 20
5.09323
 30
0.0
 11
3.47679
 21
5.61827
 31
0.0
  0
LINE
  8
0
 62
     0
 10
3.47679
 20
5.61827
 30
0.0
 11
3.71934
 21
6.0923
 31
0.0
  0
LINE
  8
0
 62
     0
 10
3.71934
 20
6.0923
 30
0.0
 11
4.09416
 21
6.4685
 31
0.0
  0
LINE
  8
0
 62
     0
 10
4.09416
 20
6.4685
 30
0.0
 11
4.56819
 21
6.70966
 31
0.0
  0
LINE
  8
0
 62
     0
 10
4.56819
 20
6.70966
 30
0.0
 11
5.09323
 21
6.79372
 31
0.0
  0
LINE
  8
0
 62
     0
 10
5.09323
 20
112.043
 30
0.0
 11
5.61827
 21
111.961
 31
0.0
  0
LINE
  8
0
 62
     0
 10
5.61827
 20
111.961
 30
0.0
 11
6.0923
 21
111.718
 31
0.0
  0
LINE
  8
0
 62
     0
 10
6.0923
 20
111.718
 30
0.0
 11
6.4685
 21
111.344
 31
0.0
  0
LINE
  8
0
 62
     0
 10
6.4685
 20
111.344
 30
0.0
 11
6.71103
 21
110.87
 31
0.0
  0
LINE
  8
0
 62
     0
 10
6.71103
 20
110.87
 30
0.0
 11
6.79372
 21
110.344
 31
0.0
  0
LINE
  8
0
 62
     0
 10
6.79372
 20
110.344
 30
0.0
 11
6.71103
 21
109.819
 31
0.0
  0
LINE
  8
0
 62
     0
 10
6.71103
 20
109.819
 30
0.0
 11
6.4685
 21
109.345
 31
0.0
  0
LINE
  8
0
 62
     0
 10
6.4685
 20
109.345
 30
0.0
 11
6.0923
 21
108.968
 31
0.0
  0
LINE
  8
0
 62
     0
 10
6.0923
 20
108.968
 30
0.0
 11
5.61827
 21
108.727
 31
0.0
  0
LINE
  8
0
 62
     0
 10
5.61827
 20
108.727
 30
0.0
 11
5.09323
 21
108.643
 31
0.0
  0
LINE
  8
0
 62
     0
 10
5.09323
 20
108.643
 30
0.0
 11
4.56819
 21
108.727
 31
0.0
  0
LINE
  8
0
 62
     0
 10
4.56819
 20
108.727
 30
0.0
 11
4.09416
 21
108.968
 31
0.0
  0
LINE
  8
0
 62
     0
 10
4.09416
 20
108.968
 30
0.0
 11
3.71934
 21
109.345
 31
0.0
  0
LINE
  8
0
 62
     0
 10
3.71934
 20
109.345
 30
0.0
 11
3.47679
 21
109.819
 31
0.0
  0
LINE
  8
0
 62
     0
 10
3.47679
 20
109.819
 30
0.0
 11
3.39411
 21
110.344
 31
0.0
  0
LINE
  8
0
 62
     0
 10
3.39411
 20
110.344
 30
0.0
 11
3.47679
 21
110.87
 31
0.0
  0
LINE
  8
0
 62
     0
 10
3.47679
 20
110.87
 30
0.0
 11
3.71934
 21
111.344
 31
0.0
  0
LINE
  8
0
 62
     0
 10
3.71934
 20
111.344
 30
0.0
 11
4.09416
 21
111.718
 31
0.0
  0
LINE
  8
0
 62
     0
 10
4.09416
 20
111.718
 30
0.0
 11
4.56819
 21
111.961
 31
0.0
  0
LINE
  8
0
 62
     0
 10
4.56819
 20
111.961
 30
0.0
 11
5.09323
 21
112.043
 31
0.0
  0
LINE
  8
0
 62
     0
 10
26.6182
 20
89.4182
 30
0.0
 11
26.6182
 21
88.8189
 31
0.0
  0
LINE
  8
0
 62
     0
 10
26.6182
 20
88.8189
 30
0.0
 11
12.6187
 21
88.8189
 31
0.0
  0
LINE
  8
0
 62
     0
 10
12.6187
 20
88.8189
 30
0.0
 11
12.6187
 21
89.4182
 31
0.0
  0
LINE
  8
0
 62
     0
 10
12.6187
 20
89.4182
 30
0.0
 11
11.8194
 21
89.4182
 31
0.0
  0
LINE
  8
0
 62
     0
 10
11.8194
 20
89.4182
 30
0.0
 11
11.8194
 21
102.219
 31
0.0
  0
LINE
  8
0
 62
     0
 10
11.8194
 20
102.219
 30
0.0
 11
12.6187
 21
102.219
 31
0.0
  0
LINE
  8
0
 62
     0
 10
12.6187
 20
102.219
 30
0.0
 11
12.6187
 21
102.818
 31
0.0
  0
LINE
  8
0
 62
     0
 10
12.6187
 20
102.818
 30
0.0
 11
26.6182
 21
102.818
 31
0.0
  0
LINE
  8
0
 62
     0
 10
26.6182
 20
102.818
 30
0.0
 11
26.6182
 21
102.219
 31
0.0
  0
LINE
  8
0
 62
     0
 10
26.6182
 20
102.219
 30
0.0
 11
27.4188
 21
102.219
 31
0.0
  0
LINE
  8
0
 62
     0
 10
27.4188
 20
102.219
 30
0.0
 11
27.4188
 21
89.4182
 31
0.0
  0
LINE
  8
0
 62
     0
 10
27.4188
 20
89.4182
 30
0.0
 11
26.6182
 21
89.4182
 31
0.0
  0
LINE
  8
0
 62
     0
 10
28.9994
 20
13.2182
 30
0.0
 11
28.9994
 21
12.6187
 31
0.0
  0
LINE
  8
0
 62
     0
 10
28.9994
 20
12.6187
 30
0.0
 11
14.9999
 21
12.6187
 31
0.0
  0
LINE
  8
0
 62
     0
 10
14.9999
 20
12.6187
 30
0.0
 11
14.9999
 21
13.2182
 31
0.0
  0
LINE
  8
0
 62
     0
 10
14.9999
 20
13.2182
 30
0.0
 11
14.1993
 21
13.2182
 31
0.0
  0
LINE
  8
0
 62
     0
 10
14.1993
 20
13.2182
 30
0.0
 11
14.1993
 21
26.0187
 31
0.0
  0
LINE
  8
0
 62
     0
 10
14.1993
 20
26.0187
 30
0.0
 11
14.9999
 21
26.0187
 31
0.0
  0
LINE
  8
0
 62
     0
 10
14.9999
 20
26.0187
 30
0.0
 11
14.9999
 21
26.6182
 31
0.0
  0
LINE
  8
0
 62
     0
 10
14.9999
 20
26.6182
 30
0.0
 11
28.9994
 21
26.6182
 31
0.0
  0
LINE
  8
0
 62
     0
 10
28.9994
 20
26.6182
 30
0.0
 11
28.9994
 21
26.0187
 31
0.0
  0
LINE
  8
0
 62
     0
 10
28.9994
 20
26.0187
 30
0.0
 11
29.8001
 21
26.0187
 31
0.0
  0
LINE
  8
0
 62
     0
 10
29.8001
 20
26.0187
 30
0.0
 11
29.8001
 21
13.2182
 31
0.0
  0
LINE
  8
0
 62
     0
 10
29.8001
 20
13.2182
 30
0.0
 11
28.9994
 21
13.2182
 31
0.0
  0
LINE
  8
0
 62
     0
 10
31.3821
 20
70.3682
 30
0.0
 11
31.3821
 21
69.7689
 31
0.0
  0
LINE
  8
0
 62
     0
 10
31.3821
 20
69.7689
 30
0.0
 11
17.3812
 21
69.7689
 31
0.0
  0
LINE
  8
0
 62
     0
 10
17.3812
 20
69.7689
 30
0.0
 11
17.3812
 21
70.3682
 31
0.0
  0
LINE
  8
0
 62
     0
 10
17.3812
 20
70.3682
 30
0.0
 11
16.5819
 21
70.3682
 31
0.0
  0
LINE
  8
0
 62
     0
 10
16.5819
 20
70.3682
 30
0.0
 11
16.5819
 21
83.1688
 31
0.0
  0
LINE
  8
0
 62
     0
 10
16.5819
 20
83.1688
 30
0.0
 11
17.3812
 21
83.1688
 31
0.0
  0
LINE
  8
0
 62
     0
 10
17.3812
 20
83.1688
 30
0.0
 11
17.3812
 21
83.7681
 31
0.0
  0
LINE
  8
0
 62
     0
 10
17.3812
 20
83.7681
 30
0.0
 11
31.3821
 21
83.7681
 31
0.0
  0
LINE
  8
0
 62
     0
 10
31.3821
 20
83.7681
 30
0.0
 11
31.3821
 21
83.1688
 31
0.0
  0
LINE
  8
0
 62
     0
 10
31.3821
 20
83.1688
 30
0.0
 11
32.1813
 21
83.1688
 31
0.0
  0
LINE
  8
0
 62
     0
 10
32.1813
 20
83.1688
 30
0.0
 11
32.1813
 21
70.3682
 31
0.0
  0
LINE
  8
0
 62
     0
 10
32.1813
 20
70.3682
 30
0.0
 11
31.3821
 21
70.3682
 31
0.0
  0
LINE
  8
0
 62
     0
 10
33.7633
 20
51.3182
 30
0.0
 11
33.7633
 21
50.7189
 31
0.0
  0
LINE
  8
0
 62
     0
 10
33.7633
 20
50.7189
 30
0.0
 11
19.7624
 21
50.7189
 31
0.0
  0
LINE
  8
0
 62
     0
 10
19.7624
 20
50.7189
 30
0.0
 11
19.7624
 21
51.3182
 31
0.0
  0
LINE
  8
0
 62
     0
 10
19.7624
 20
51.3182
 30
0.0
 11
18.9632
 21
51.3182
 31
0.0
  0
LINE
  8
0
 62
     0
 10
18.9632
 20
51.3182
 30
0.0
 11
18.9632
 21
64.1188
 31
0.0
  0
LINE
  8
0
 62
     0
 10
18.9632
 20
64.1188
 30
0.0
 11
19.7624
 21
64.1188
 31
0.0
  0
LINE
  8
0
 62
     0
 10
19.7624
 20
64.1188
 30
0.0
 11
19.7624
 21
64.7181
 31
0.0
  0
LINE
  8
0
 62
     0
 10
19.7624
 20
64.7181
 30
0.0
 11
33.7633
 21
64.7181
 31
0.0
  0
LINE
  8
0
 62
     0
 10
33.7633
 20
64.7181
 30
0.0
 11
33.7633
 21
64.1188
 31
0.0
  0
LINE
  8
0
 62
     0
 10
33.7633
 20
64.1188
 30
0.0
 11
34.5626
 21
64.1188
 31
0.0
  0
LINE
  8
0
 62
     0
 10
34.5626
 20
64.1188
 30
0.0
 11
34.5626
 21
51.3182
 31
0.0
  0
LINE
  8
0
 62
     0
 10
34.5626
 20
51.3182
 30
0.0
 11
33.7633
 21
51.3182
 31
0.0
  0
LINE
  8
0
 62
     0
 10
45.6681
 20
89.4182
 30
0.0
 11
45.6681
 21
88.8189
 31
0.0
  0
LINE
  8
0
 62
     0
 10
45.6681
 20
88.8189
 30
0.0
 11
31.6687
 21
88.8189
 31
0.0
  0
LINE
  8
0
 62
     0
 10
31.6687
 20
88.8189
 30
0.0
 11
31.6687
 21
89.4182
 31
0.0
  0
LINE
  8
0
 62
     0
 10
31.6687
 20
89.4182
 30
0.0
 11
30.8694
 21
89.4182
 31
0.0
  0
LINE
  8
0
 62
     0
 10
30.8694
 20
89.4182
 30
0.0
 11
30.8694
 21
102.219
 31
0.0
  0
LINE
  8
0
 62
     0
 10
30.8694
 20
102.219
 30
0.0
 11
31.6687
 21
102.219
 31
0.0
  0
LINE
  8
0
 62
     0
 10
31.6687
 20
102.219
 30
0.0
 11
31.6687
 21
102.818
 31
0.0
  0
LINE
  8
0
 62
     0
 10
31.6687
 20
102.818
 30
0.0
 11
45.6681
 21
102.818
 31
0.0
  0
LINE
  8
0
 62
     0
 10
45.6681
 20
102.818
 30
0.0
 11
45.6681
 21
102.219
 31
0.0
  0
LINE
  8
0
 62
     0
 10
45.6681
 20
102.219
 30
0.0
 11
46.4689
 21
102.219
 31
0.0
  0
LINE
  8
0
 62
     0
 10
46.4689
 20
102.219
 30
0.0
 11
46.4689
 21
89.4182
 31
0.0
  0
LINE
  8
0
 62
     0
 10
46.4689
 20
89.4182
 30
0.0
 11
45.6681
 21
89.4182
 31
0.0
  0
LINE
  8
0
 62
     0
 10
46.7501
 20
38.1688
 30
0.0
 11
46.7501
 21
31.8975
 31
0.0
  0
LINE
  8
0
 62
     0
 10
46.7501
 20
31.8975
 30
0.0
 11
45.1252
 21
31.8975
 31
0.0
  0
LINE
  8
0
 62
     0
 10
45.1252
 20
31.8975
 30
0.0
 11
45.1252
 21
30.9177
 31
0.0
  0
LINE
  8
0
 62
     0
 10
45.1252
 20
30.9177
 30
0.0
 11
41.825
 21
30.9177
 31
0.0
  0
LINE
  8
0
 62
     0
 10
41.825
 20
30.9177
 30
0.0
 11
41.825
 21
31.8975
 31
0.0
  0
LINE
  8
0
 62
     0
 10
41.825
 20
31.8975
 30
0.0
 11
40.0995
 21
31.8975
 31
0.0
  0
LINE
  8
0
 62
     0
 10
40.0995
 20
31.8975
 30
0.0
 11
40.0995
 21
32.6981
 31
0.0
  0
LINE
  8
0
 62
     0
 10
40.0995
 20
32.6981
 30
0.0
 11
39.3252
 21
32.6981
 31
0.0
  0
LINE
  8
0
 62
     0
 10
39.3252
 20
32.6981
 30
0.0
 11
39.3252
 21
32.2682
 31
0.0
  0
LINE
  8
0
 62
     0
 10
39.3252
 20
32.2682
 30
0.0
 11
38.5244
 21
32.2682
 31
0.0
  0
LINE
  8
0
 62
     0
 10
38.5244
 20
32.2682
 30
0.0
 11
38.5244
 21
31.6687
 31
0.0
  0
LINE
  8
0
 62
     0
 10
38.5244
 20
31.6687
 30
0.0
 11
24.5249
 21
31.6687
 31
0.0
  0
LINE
  8
0
 62
     0
 10
24.5249
 20
31.6687
 30
0.0
 11
24.5249
 21
32.2682
 31
0.0
  0
LINE
  8
0
 62
     0
 10
24.5249
 20
32.2682
 30
0.0
 11
23.7243
 21
32.2682
 31
0.0
  0
LINE
  8
0
 62
     0
 10
23.7243
 20
32.2682
 30
0.0
 11
23.7243
 21
32.6981
 31
0.0
  0
LINE
  8
0
 62
     0
 10
23.7243
 20
32.6981
 30
0.0
 11
22.9499
 21
32.6981
 31
0.0
  0
LINE
  8
0
 62
     0
 10
22.9499
 20
32.6981
 30
0.0
 11
22.9499
 21
31.8975
 31
0.0
  0
LINE
  8
0
 62
     0
 10
22.9499
 20
31.8975
 30
0.0
 11
21.2246
 21
31.8975
 31
0.0
  0
LINE
  8
0
 62
     0
 10
21.2246
 20
31.8975
 30
0.0
 11
21.2246
 21
30.9177
 31
0.0
  0
LINE
  8
0
 62
     0
 10
21.2246
 20
30.9177
 30
0.0
 11
17.9241
 21
30.9177
 31
0.0
  0
LINE
  8
0
 62
     0
 10
17.9241
 20
30.9177
 30
0.0
 11
17.9241
 21
31.8975
 31
0.0
  0
LINE
  8
0
 62
     0
 10
17.9241
 20
31.8975
 30
0.0
 11
16.2994
 21
31.8975
 31
0.0
  0
LINE
  8
0
 62
     0
 10
16.2994
 20
31.8975
 30
0.0
 11
16.2994
 21
38.1688
 31
0.0
  0
LINE
  8
0
 62
     0
 10
16.2994
 20
38.1688
 30
0.0
 11
15.4244
 21
38.1688
 31
0.0
  0
LINE
  8
0
 62
     0
 10
15.4244
 20
38.1688
 30
0.0
 11
15.4244
 21
40.9677
 31
0.0
  0
LINE
  8
0
 62
     0
 10
15.4244
 20
40.9677
 30
0.0
 11
16.2994
 21
40.9677
 31
0.0
  0
LINE
  8
0
 62
     0
 10
16.2994
 20
40.9677
 30
0.0
 11
16.2994
 21
44.1978
 31
0.0
  0
LINE
  8
0
 62
     0
 10
16.2994
 20
44.1978
 30
0.0
 11
17.9241
 21
44.1978
 31
0.0
  0
LINE
  8
0
 62
     0
 10
17.9241
 20
44.1978
 30
0.0
 11
17.9241
 21
45.1185
 31
0.0
  0
LINE
  8
0
 62
     0
 10
17.9241
 20
45.1185
 30
0.0
 11
21.2246
 21
45.1185
 31
0.0
  0
LINE
  8
0
 62
     0
 10
21.2246
 20
45.1185
 30
0.0
 11
21.2246
 21
44.1978
 31
0.0
  0
LINE
  8
0
 62
     0
 10
21.2246
 20
44.1978
 30
0.0
 11
22.9499
 21
44.1978
 31
0.0
  0
LINE
  8
0
 62
     0
 10
22.9499
 20
44.1978
 30
0.0
 11
22.9499
 21
43.3987
 31
0.0
  0
LINE
  8
0
 62
     0
 10
22.9499
 20
43.3987
 30
0.0
 11
23.7243
 21
43.3987
 31
0.0
  0
LINE
  8
0
 62
     0
 10
23.7243
 20
43.3987
 30
0.0
 11
23.7243
 21
45.0688
 31
0.0
  0
LINE
  8
0
 62
     0
 10
23.7243
 20
45.0688
 30
0.0
 11
24.5249
 21
45.0688
 31
0.0
  0
LINE
  8
0
 62
     0
 10
24.5249
 20
45.0688
 30
0.0
 11
24.5249
 21
45.6681
 31
0.0
  0
LINE
  8
0
 62
     0
 10
24.5249
 20
45.6681
 30
0.0
 11
38.5244
 21
45.6681
 31
0.0
  0
LINE
  8
0
 62
     0
 10
38.5244
 20
45.6681
 30
0.0
 11
38.5244
 21
45.0688
 31
0.0
  0
LINE
  8
0
 62
     0
 10
38.5244
 20
45.0688
 30
0.0
 11
39.3252
 21
45.0688
 31
0.0
  0
LINE
  8
0
 62
     0
 10
39.3252
 20
45.0688
 30
0.0
 11
39.3252
 21
43.3987
 31
0.0
  0
LINE
  8
0
 62
     0
 10
39.3252
 20
43.3987
 30
0.0
 11
40.0995
 21
43.3987
 31
0.0
  0
LINE
  8
0
 62
     0
 10
40.0995
 20
43.3987
 30
0.0
 11
40.0995
 21
44.1978
 31
0.0
  0
LINE
  8
0
 62
     0
 10
40.0995
 20
44.1978
 30
0.0
 11
41.825
 21
44.1978
 31
0.0
  0
LINE
  8
0
 62
     0
 10
41.825
 20
44.1978
 30
0.0
 11
41.825
 21
45.1185
 31
0.0
  0
LINE
  8
0
 62
     0
 10
41.825
 20
45.1185
 30
0.0
 11
45.1252
 21
45.1185
 31
0.0
  0
LINE
  8
0
 62
     0
 10
45.1252
 20
45.1185
 30
0.0
 11
45.1252
 21
44.1978
 31
0.0
  0
LINE
  8
0
 62
     0
 10
45.1252
 20
44.1978
 30
0.0
 11
46.7501
 21
44.1978
 31
0.0
  0
LINE
  8
0
 62
     0
 10
46.7501
 20
44.1978
 30
0.0
 11
46.7501
 21
40.9677
 31
0.0
  0
LINE
  8
0
 62
     0
 10
46.7501
 20
40.9677
 30
0.0
 11
47.625
 21
40.9677
 31
0.0
  0
LINE
  8
0
 62
     0
 10
47.625
 20
40.9677
 30
0.0
 11
47.625
 21
38.1688
 31
0.0
  0
LINE
  8
0
 62
     0
 10
47.625
 20
38.1688
 30
0.0
 11
46.7501
 21
38.1688
 31
0.0
  0
LINE
  8
0
 62
     0
 10
52.8133
 20
13.2182
 30
0.0
 11
52.8133
 21
12.6187
 31
0.0
  0
LINE
  8
0
 62
     0
 10
52.8133
 20
12.6187
 30
0.0
 11
38.8126
 21
12.6187
 31
0.0
  0
LINE
  8
0
 62
     0
 10
38.8126
 20
12.6187
 30
0.0
 11
38.8126
 21
13.2182
 31
0.0
  0
LINE
  8
0
 62
     0
 10
38.8126
 20
13.2182
 30
0.0
 11
38.0132
 21
13.2182
 31
0.0
  0
LINE
  8
0
 62
     0
 10
38.0132
 20
13.2182
 30
0.0
 11
38.0132
 21
26.0187
 31
0.0
  0
LINE
  8
0
 62
     0
 10
38.0132
 20
26.0187
 30
0.0
 11
38.8126
 21
26.0187
 31
0.0
  0
LINE
  8
0
 62
     0
 10
38.8126
 20
26.0187
 30
0.0
 11
38.8126
 21
26.6182
 31
0.0
  0
LINE
  8
0
 62
     0
 10
38.8126
 20
26.6182
 30
0.0
 11
52.8133
 21
26.6182
 31
0.0
  0
LINE
  8
0
 62
     0
 10
52.8133
 20
26.6182
 30
0.0
 11
52.8133
 21
26.0187
 31
0.0
  0
LINE
  8
0
 62
     0
 10
52.8133
 20
26.0187
 30
0.0
 11
53.6127
 21
26.0187
 31
0.0
  0
LINE
  8
0
 62
     0
 10
53.6127
 20
26.0187
 30
0.0
 11
53.6127
 21
13.2182
 31
0.0
  0
LINE
  8
0
 62
     0
 10
53.6127
 20
13.2182
 30
0.0
 11
52.8133
 21
13.2182
 31
0.0
  0
LINE
  8
0
 62
     0
 10
55.1931
 20
70.3682
 30
0.0
 11
55.1931
 21
69.7689
 31
0.0
  0
LINE
  8
0
 62
     0
 10
55.1931
 20
69.7689
 30
0.0
 11
41.1939
 21
69.7689
 31
0.0
  0
LINE
  8
0
 62
     0
 10
41.1939
 20
69.7689
 30
0.0
 11
41.1939
 21
70.3682
 31
0.0
  0
LINE
  8
0
 62
     0
 10
41.1939
 20
70.3682
 30
0.0
 11
40.3945
 21
70.3682
 31
0.0
  0
LINE
  8
0
 62
     0
 10
40.3945
 20
70.3682
 30
0.0
 11
40.3945
 21
83.1688
 31
0.0
  0
LINE
  8
0
 62
     0
 10
40.3945
 20
83.1688
 30
0.0
 11
41.1939
 21
83.1688
 31
0.0
  0
LINE
  8
0
 62
     0
 10
41.1939
 20
83.1688
 30
0.0
 11
41.1939
 21
83.7681
 31
0.0
  0
LINE
  8
0
 62
     0
 10
41.1939
 20
83.7681
 30
0.0
 11
55.1931
 21
83.7681
 31
0.0
  0
LINE
  8
0
 62
     0
 10
55.1931
 20
83.7681
 30
0.0
 11
55.1931
 21
83.1688
 31
0.0
  0
LINE
  8
0
 62
     0
 10
55.1931
 20
83.1688
 30
0.0
 11
55.9939
 21
83.1688
 31
0.0
  0
LINE
  8
0
 62
     0
 10
55.9939
 20
83.1688
 30
0.0
 11
55.9939
 21
70.3682
 31
0.0
  0
LINE
  8
0
 62
     0
 10
55.9939
 20
70.3682
 30
0.0
 11
55.1931
 21
70.3682
 31
0.0
  0
LINE
  8
0
 62
     0
 10
59.9556
 20
51.3182
 30
0.0
 11
59.9556
 21
50.7189
 31
0.0
  0
LINE
  8
0
 62
     0
 10
59.9556
 20
50.7189
 30
0.0
 11
45.9564
 21
50.7189
 31
0.0
  0
LINE
  8
0
 62
     0
 10
45.9564
 20
50.7189
 30
0.0
 11
45.9564
 21
51.3182
 31
0.0
  0
LINE
  8
0
 62
     0
 10
45.9564
 20
51.3182
 30
0.0
 11
45.1556
 21
51.3182
 31
0.0
  0
LINE
  8
0
 62
     0
 10
45.1556
 20
51.3182
 30
0.0
 11
45.1556
 21
64.1188
 31
0.0
  0
LINE
  8
0
 62
     0
 10
45.1556
 20
64.1188
 30
0.0
 11
45.9564
 21
64.1188
 31
0.0
  0
LINE
  8
0
 62
     0
 10
45.9564
 20
64.1188
 30
0.0
 11
45.9564
 21
64.7181
 31
0.0
  0
LINE
  8
0
 62
     0
 10
45.9564
 20
64.7181
 30
0.0
 11
59.9556
 21
64.7181
 31
0.0
  0
LINE
  8
0
 62
     0
 10
59.9556
 20
64.7181
 30
0.0
 11
59.9556
 21
64.1188
 31
0.0
  0
LINE
  8
0
 62
     0
 10
59.9556
 20
64.1188
 30
0.0
 11
60.7564
 21
64.1188
 31
0.0
  0
LINE
  8
0
 62
     0
 10
60.7564
 20
64.1188
 30
0.0
 11
60.7564
 21
51.3182
 31
0.0
  0
LINE
  8
0
 62
     0
 10
60.7564
 20
51.3182
 30
0.0
 11
59.9556
 21
51.3182
 31
0.0
  0
LINE
  8
0
 62
     0
 10
64.7181
 20
89.4182
 30
0.0
 11
64.7181
 21
88.8189
 31
0.0
  0
LINE
  8
0
 62
     0
 10
64.7181
 20
88.8189
 30
0.0
 11
50.7189
 21
88.8189
 31
0.0
  0
LINE
  8
0
 62
     0
 10
50.7189
 20
88.8189
 30
0.0
 11
50.7189
 21
89.4182
 31
0.0
  0
LINE
  8
0
 62
     0
 10
50.7189
 20
89.4182
 30
0.0
 11
49.9195
 21
89.4182
 31
0.0
  0
LINE
  8
0
 62
     0
 10
49.9195
 20
89.4182
 30
0.0
 11
49.9195
 21
102.219
 31
0.0
  0
LINE
  8
0
 62
     0
 10
49.9195
 20
102.219
 30
0.0
 11
50.7189
 21
102.219
 31
0.0
  0
LINE
  8
0
 62
     0
 10
50.7189
 20
102.219
 30
0.0
 11
50.7189
 21
102.818
 31
0.0
  0
LINE
  8
0
 62
     0
 10
50.7189
 20
102.818
 30
0.0
 11
64.7181
 21
102.818
 31
0.0
  0
LINE
  8
0
 62
     0
 10
64.7181
 20
102.818
 30
0.0
 11
64.7181
 21
102.219
 31
0.0
  0
LINE
  8
0
 62
     0
 10
64.7181
 20
102.219
 30
0.0
 11
65.519
 21
102.219
 31
0.0
  0
LINE
  8
0
 62
     0
 10
65.519
 20
102.219
 30
0.0
 11
65.519
 21
89.4182
 31
0.0
  0
LINE
  8
0
 62
     0
 10
65.519
 20
89.4182
 30
0.0
 11
64.7181
 21
89.4182
 31
0.0
  0
LINE
  8
0
 62
     0
 10
69.4821
 20
32.2682
 30
0.0
 11
69.4821
 21
31.6687
 31
0.0
  0
LINE
  8
0
 62
     0
 10
69.4821
 20
31.6687
 30
0.0
 11
55.4814
 21
31.6687
 31
0.0
  0
LINE
  8
0
 62
     0
 10
55.4814
 20
31.6687
 30
0.0
 11
55.4814
 21
32.2682
 31
0.0
  0
LINE
  8
0
 62
     0
 10
55.4814
 20
32.2682
 30
0.0
 11
54.682
 21
32.2682
 31
0.0
  0
LINE
  8
0
 62
     0
 10
54.682
 20
32.2682
 30
0.0
 11
54.682
 21
45.0688
 31
0.0
  0
LINE
  8
0
 62
     0
 10
54.682
 20
45.0688
 30
0.0
 11
55.4814
 21
45.0688
 31
0.0
  0
LINE
  8
0
 62
     0
 10
55.4814
 20
45.0688
 30
0.0
 11
55.4814
 21
45.6681
 31
0.0
  0
LINE
  8
0
 62
     0
 10
55.4814
 20
45.6681
 30
0.0
 11
69.4821
 21
45.6681
 31
0.0
  0
LINE
  8
0
 62
     0
 10
69.4821
 20
45.6681
 30
0.0
 11
69.4821
 21
45.0688
 31
0.0
  0
LINE
  8
0
 62
     0
 10
69.4821
 20
45.0688
 30
0.0
 11
70.2815
 21
45.0688
 31
0.0
  0
LINE
  8
0
 62
     0
 10
70.2815
 20
45.0688
 30
0.0
 11
70.2815
 21
32.2682
 31
0.0
  0
LINE
  8
0
 62
     0
 10
70.2815
 20
32.2682
 30
0.0
 11
69.4821
 21
32.2682
 31
0.0
  0
LINE
  8
0
 62
     0
 10
74.2431
 20
70.3682
 30
0.0
 11
74.2431
 21
69.7689
 31
0.0
  0
LINE
  8
0
 62
     0
 10
74.2431
 20
69.7689
 30
0.0
 11
60.2439
 21
69.7689
 31
0.0
  0
LINE
  8
0
 62
     0
 10
60.2439
 20
69.7689
 30
0.0
 11
60.2439
 21
70.3682
 31
0.0
  0
LINE
  8
0
 62
     0
 10
60.2439
 20
70.3682
 30
0.0
 11
59.4445
 21
70.3682
 31
0.0
  0
LINE
  8
0
 62
     0
 10
59.4445
 20
70.3682
 30
0.0
 11
59.4445
 21
83.1688
 31
0.0
  0
LINE
  8
0
 62
     0
 10
59.4445
 20
83.1688
 30
0.0
 11
60.2439
 21
83.1688
 31
0.0
  0
LINE
  8
0
 62
     0
 10
60.2439
 20
83.1688
 30
0.0
 11
60.2439
 21
83.7681
 31
0.0
  0
LINE
  8
0
 62
     0
 10
60.2439
 20
83.7681
 30
0.0
 11
74.2431
 21
83.7681
 31
0.0
  0
LINE
  8
0
 62
     0
 10
74.2431
 20
83.7681
 30
0.0
 11
74.2431
 21
83.1688
 31
0.0
  0
LINE
  8
0
 62
     0
 10
74.2431
 20
83.1688
 30
0.0
 11
75.044
 21
83.1688
 31
0.0
  0
LINE
  8
0
 62
     0
 10
75.044
 20
83.1688
 30
0.0
 11
75.044
 21
70.3682
 31
0.0
  0
LINE
  8
0
 62
     0
 10
75.044
 20
70.3682
 30
0.0
 11
74.2431
 21
70.3682
 31
0.0
  0
LINE
  8
0
 62
     0
 10
76.6244
 20
13.2182
 30
0.0
 11
76.6244
 21
12.6187
 31
0.0
  0
LINE
  8
0
 62
     0
 10
76.6244
 20
12.6187
 30
0.0
 11
62.6251
 21
12.6187
 31
0.0
  0
LINE
  8
0
 62
     0
 10
62.6251
 20
12.6187
 30
0.0
 11
62.6251
 21
13.2182
 31
0.0
  0
LINE
  8
0
 62
     0
 10
62.6251
 20
13.2182
 30
0.0
 11
61.8243
 21
13.2182
 31
0.0
  0
LINE
  8
0
 62
     0
 10
61.8243
 20
13.2182
 30
0.0
 11
61.8243
 21
26.0187
 31
0.0
  0
LINE
  8
0
 62
     0
 10
61.8243
 20
26.0187
 30
0.0
 11
62.6251
 21
26.0187
 31
0.0
  0
LINE
  8
0
 62
     0
 10
62.6251
 20
26.0187
 30
0.0
 11
62.6251
 21
26.6182
 31
0.0
  0
LINE
  8
0
 62
     0
 10
62.6251
 20
26.6182
 30
0.0
 11
76.6244
 21
26.6182
 31
0.0
  0
LINE
  8
0
 62
     0
 10
76.6244
 20
26.6182
 30
0.0
 11
76.6244
 21
26.0187
 31
0.0
  0
LINE
  8
0
 62
     0
 10
76.6244
 20
26.0187
 30
0.0
 11
77.4252
 21
26.0187
 31
0.0
  0
LINE
  8
0
 62
     0
 10
77.4252
 20
26.0187
 30
0.0
 11
77.4252
 21
13.2182
 31
0.0
  0
LINE
  8
0
 62
     0
 10
77.4252
 20
13.2182
 30
0.0
 11
76.6244
 21
13.2182
 31
0.0
  0
LINE
  8
0
 62
     0
 10
79.0056
 20
51.3182
 30
0.0
 11
79.0056
 21
50.7189
 31
0.0
  0
LINE
  8
0
 62
     0
 10
79.0056
 20
50.7189
 30
0.0
 11
65.0064
 21
50.7189
 31
0.0
  0
LINE
  8
0
 62
     0
 10
65.0064
 20
50.7189
 30
0.0
 11
65.0064
 21
51.3182
 31
0.0
  0
LINE
  8
0
 62
     0
 10
65.0064
 20
51.3182
 30
0.0
 11
64.2056
 21
51.3182
 31
0.0
  0
LINE
  8
0
 62
     0
 10
64.2056
 20
51.3182
 30
0.0
 11
64.2056
 21
64.1188
 31
0.0
  0
LINE
  8
0
 62
     0
 10
64.2056
 20
64.1188
 30
0.0
 11
65.0064
 21
64.1188
 31
0.0
  0
LINE
  8
0
 62
     0
 10
65.0064
 20
64.1188
 30
0.0
 11
65.0064
 21
64.7181
 31
0.0
  0
LINE
  8
0
 62
     0
 10
65.0064
 20
64.7181
 30
0.0
 11
79.0056
 21
64.7181
 31
0.0
  0
LINE
  8
0
 62
     0
 10
79.0056
 20
64.7181
 30
0.0
 11
79.0056
 21
64.1188
 31
0.0
  0
LINE
  8
0
 62
     0
 10
79.0056
 20
64.1188
 30
0.0
 11
79.8065
 21
64.1188
 31
0.0
  0
LINE
  8
0
 62
     0
 10
79.8065
 20
64.1188
 30
0.0
 11
79.8065
 21
51.3182
 31
0.0
  0
LINE
  8
0
 62
     0
 10
79.8065
 20
51.3182
 30
0.0
 11
79.0056
 21
51.3182
 31
0.0
  0
LINE
  8
0
 62
     0
 10
83.7681
 20
89.4182
 30
0.0
 11
83.7681
 21
88.8189
 31
0.0
  0
LINE
  8
0
 62
     0
 10
83.7681
 20
88.8189
 30
0.0
 11
69.7689
 21
88.8189
 31
0.0
  0
LINE
  8
0
 62
     0
 10
69.7689
 20
88.8189
 30
0.0
 11
69.7689
 21
89.4182
 31
0.0
  0
LINE
  8
0
 62
     0
 10
69.7689
 20
89.4182
 30
0.0
 11
68.9695
 21
89.4182
 31
0.0
  0
LINE
  8
0
 62
     0
 10
68.9695
 20
89.4182
 30
0.0
 11
68.9695
 21
102.219
 31
0.0
  0
LINE
  8
0
 62
     0
 10
68.9695
 20
102.219
 30
0.0
 11
69.7689
 21
102.219
 31
0.0
  0
LINE
  8
0
 62
     0
 10
69.7689
 20
102.219
 30
0.0
 11
69.7689
 21
102.818
 31
0.0
  0
LINE
  8
0
 62
     0
 10
69.7689
 20
102.818
 30
0.0
 11
83.7681
 21
102.818
 31
0.0
  0
LINE
  8
0
 62
     0
 10
83.7681
 20
102.818
 30
0.0
 11
83.7681
 21
102.219
 31
0.0
  0
LINE
  8
0
 62
     0
 10
83.7681
 20
102.219
 30
0.0
 11
84.569
 21
102.219
 31
0.0
  0
LINE
  8
0
 62
     0
 10
84.569
 20
102.219
 30
0.0
 11
84.569
 21
89.4182
 31
0.0
  0
LINE
  8
0
 62
     0
 10
84.569
 20
89.4182
 30
0.0
 11
83.7681
 21
89.4182
 31
0.0
  0
LINE
  8
0
 62
     0
 10
88.5321
 20
32.2682
 30
0.0
 11
88.5321
 21
31.6687
 31
0.0
  0
LINE
  8
0
 62
     0
 10
88.5321
 20
31.6687
 30
0.0
 11
74.5314
 21
31.6687
 31
0.0
  0
LINE
  8
0
 62
     0
 10
74.5314
 20
31.6687
 30
0.0
 11
74.5314
 21
32.2682
 31
0.0
  0
LINE
  8
0
 62
     0
 10
74.5314
 20
32.2682
 30
0.0
 11
73.732
 21
32.2682
 31
0.0
  0
LINE
  8
0
 62
     0
 10
73.732
 20
32.2682
 30
0.0
 11
73.732
 21
45.0688
 31
0.0
  0
LINE
  8
0
 62
     0
 10
73.732
 20
45.0688
 30
0.0
 11
74.5314
 21
45.0688
 31
0.0
  0
LINE
  8
0
 62
     0
 10
74.5314
 20
45.0688
 30
0.0
 11
74.5314
 21
45.6681
 31
0.0
  0
LINE
  8
0
 62
     0
 10
74.5314
 20
45.6681
 30
0.0
 11
88.5321
 21
45.6681
 31
0.0
  0
LINE
  8
0
 62
     0
 10
88.5321
 20
45.6681
 30
0.0
 11
88.5321
 21
45.0688
 31
0.0
  0
LINE
  8
0
 62
     0
 10
88.5321
 20
45.0688
 30
0.0
 11
89.3315
 21
45.0688
 31
0.0
  0
LINE
  8
0
 62
     0
 10
89.3315
 20
45.0688
 30
0.0
 11
89.3315
 21
32.2682
 31
0.0
  0
LINE
  8
0
 62
     0
 10
89.3315
 20
32.2682
 30
0.0
 11
88.5321
 21
32.2682
 31
0.0
  0
LINE
  8
0
 62
     0
 10
93.2931
 20
70.3682
 30
0.0
 11
93.2931
 21
69.7689
 31
0.0
  0
LINE
  8
0
 62
     0
 10
93.2931
 20
69.7689
 30
0.0
 11
79.2939
 21
69.7689
 31
0.0
  0
LINE
  8
0
 62
     0
 10
79.2939
 20
69.7689
 30
0.0
 11
79.2939
 21
70.3682
 31
0.0
  0
LINE
  8
0
 62
     0
 10
79.2939
 20
70.3682
 30
0.0
 11
78.4945
 21
70.3682
 31
0.0
  0
LINE
  8
0
 62
     0
 10
78.4945
 20
70.3682
 30
0.0
 11
78.4945
 21
83.1688
 31
0.0
  0
LINE
  8
0
 62
     0
 10
78.4945
 20
83.1688
 30
0.0
 11
79.2939
 21
83.1688
 31
0.0
  0
LINE
  8
0
 62
     0
 10
79.2939
 20
83.1688
 30
0.0
 11
79.2939
 21
83.7681
 31
0.0
  0
LINE
  8
0
 62
     0
 10
79.2939
 20
83.7681
 30
0.0
 11
93.2931
 21
83.7681
 31
0.0
  0
LINE
  8
0
 62
     0
 10
93.2931
 20
83.7681
 30
0.0
 11
93.2931
 21
83.1688
 31
0.0
  0
LINE
  8
0
 62
     0
 10
93.2931
 20
83.1688
 30
0.0
 11
94.0939
 21
83.1688
 31
0.0
  0
LINE
  8
0
 62
     0
 10
94.0939
 20
83.1688
 30
0.0
 11
94.0939
 21
70.3682
 31
0.0
  0
LINE
  8
0
 62
     0
 10
94.0939
 20
70.3682
 30
0.0
 11
93.2931
 21
70.3682
 31
0.0
  0
LINE
  8
0
 62
     0
 10
98.0556
 20
51.3182
 30
0.0
 11
98.0556
 21
50.7189
 31
0.0
  0
LINE
  8
0
 62
     0
 10
98.0556
 20
50.7189
 30
0.0
 11
84.0564
 21
50.7189
 31
0.0
  0
LINE
  8
0
 62
     0
 10
84.0564
 20
50.7189
 30
0.0
 11
84.0564
 21
51.3182
 31
0.0
  0
LINE
  8
0
 62
     0
 10
84.0564
 20
51.3182
 30
0.0
 11
83.2556
 21
51.3182
 31
0.0
  0
LINE
  8
0
 62
     0
 10
83.2556
 20
51.3182
 30
0.0
 11
83.2556
 21
64.1188
 31
0.0
  0
LINE
  8
0
 62
     0
 10
83.2556
 20
64.1188
 30
0.0
 11
84.0564
 21
64.1188
 31
0.0
  0
LINE
  8
0
 62
     0
 10
84.0564
 20
64.1188
 30
0.0
 11
84.0564
 21
64.7181
 31
0.0
  0
LINE
  8
0
 62
     0
 10
84.0564
 20
64.7181
 30
0.0
 11
98.0556
 21
64.7181
 31
0.0
  0
LINE
  8
0
 62
     0
 10
98.0556
 20
64.7181
 30
0.0
 11
98.0556
 21
64.1188
 31
0.0
  0
LINE
  8
0
 62
     0
 10
98.0556
 20
64.1188
 30
0.0
 11
98.8564
 21
64.1188
 31
0.0
  0
LINE
  8
0
 62
     0
 10
98.8564
 20
64.1188
 30
0.0
 11
98.8564
 21
51.3182
 31
0.0
  0
LINE
  8
0
 62
     0
 10
98.8564
 20
51.3182
 30
0.0
 11
98.0556
 21
51.3182
 31
0.0
  0
LINE
  8
0
 62
     0
 10
102.818
 20
89.4182
 30
0.0
 11
102.818
 21
88.8189
 31
0.0
  0
LINE
  8
0
 62
     0
 10
102.818
 20
88.8189
 30
0.0
 11
88.8189
 21
88.8189
 31
0.0
  0
LINE
  8
0
 62
     0
 10
88.8189
 20
88.8189
 30
0.0
 11
88.8189
 21
89.4182
 31
0.0
  0
LINE
  8
0
 62
     0
 10
88.8189
 20
89.4182
 30
0.0
 11
88.0195
 21
89.4182
 31
0.0
  0
LINE
  8
0
 62
     0
 10
88.0195
 20
89.4182
 30
0.0
 11
88.0195
 21
102.219
 31
0.0
  0
LINE
  8
0
 62
     0
 10
88.0195
 20
102.219
 30
0.0
 11
88.8189
 21
102.219
 31
0.0
  0
LINE
  8
0
 62
     0
 10
88.8189
 20
102.219
 30
0.0
 11
88.8189
 21
102.818
 31
0.0
  0
LINE
  8
0
 62
     0
 10
88.8189
 20
102.818
 30
0.0
 11
102.818
 21
102.818
 31
0.0
  0
LINE
  8
0
 62
     0
 10
102.818
 20
102.818
 30
0.0
 11
102.818
 21
102.219
 31
0.0
  0
LINE
  8
0
 62
     0
 10
102.818
 20
102.219
 30
0.0
 11
103.619
 21
102.219
 31
0.0
  0
LINE
  8
0
 62
     0
 10
103.619
 20
102.219
 30
0.0
 11
103.619
 21
89.4182
 31
0.0
  0
LINE
  8
0
 62
     0
 10
103.619
 20
89.4182
 30
0.0
 11
102.818
 21
89.4182
 31
0.0
  0
LINE
  8
0
 62
     0
 10
107.582
 20
32.2682
 30
0.0
 11
107.582
 21
31.6687
 31
0.0
  0
LINE
  8
0
 62
     0
 10
107.582
 20
31.6687
 30
0.0
 11
93.5814
 21
31.6687
 31
0.0
  0
LINE
  8
0
 62
     0
 10
93.5814
 20
31.6687
 30
0.0
 11
93.5814
 21
32.2682
 31
0.0
  0
LINE
  8
0
 62
     0
 10
93.5814
 20
32.2682
 30
0.0
 11
92.782
 21
32.2682
 31
0.0
  0
LINE
  8
0
 62
     0
 10
92.782
 20
32.2682
 30
0.0
 11
92.782
 21
45.0688
 31
0.0
  0
LINE
  8
0
 62
     0
 10
92.782
 20
45.0688
 30
0.0
 11
93.5814
 21
45.0688
 31
0.0
  0
LINE
  8
0
 62
     0
 10
93.5814
 20
45.0688
 30
0.0
 11
93.5814
 21
45.6681
 31
0.0
  0
LINE
  8
0
 62
     0
 10
93.5814
 20
45.6681
 30
0.0
 11
107.582
 21
45.6681
 31
0.0
  0
LINE
  8
0
 62
     0
 10
107.582
 20
45.6681
 30
0.0
 11
107.582
 21
45.0688
 31
0.0
  0
LINE
  8
0
 62
     0
 10
107.582
 20
45.0688
 30
0.0
 11
108.381
 21
45.0688
 31
0.0
  0
LINE
  8
0
 62
     0
 10
108.381
 20
45.0688
 30
0.0
 11
108.381
 21
32.2682
 31
0.0
  0
LINE
  8
0
 62
     0
 10
108.381
 20
32.2682
 30
0.0
 11
107.582
 21
32.2682
 31
0.0
  0
LINE
  8
0
 62
     0
 10
112.343
 20
70.3682
 30
0.0
 11
112.343
 21
69.7689
 31
0.0
  0
LINE
  8
0
 62
     0
 10
112.343
 20
69.7689
 30
0.0
 11
98.3439
 21
69.7689
 31
0.0
  0
LINE
  8
0
 62
     0
 10
98.3439
 20
69.7689
 30
0.0
 11
98.3439
 21
70.3682
 31
0.0
  0
LINE
  8
0
 62
     0
 10
98.3439
 20
70.3682
 30
0.0
 11
97.5445
 21
70.3682
 31
0.0
  0
LINE
  8
0
 62
     0
 10
97.5445
 20
70.3682
 30
0.0
 11
97.5445
 21
83.1688
 31
0.0
  0
LINE
  8
0
 62
     0
 10
97.5445
 20
83.1688
 30
0.0
 11
98.3439
 21
83.1688
 31
0.0
  0
LINE
  8
0
 62
     0
 10
98.3439
 20
83.1688
 30
0.0
 11
98.3439
 21
83.7681
 31
0.0
  0
LINE
  8
0
 62
     0
 10
98.3439
 20
83.7681
 30
0.0
 11
112.343
 21
83.7681
 31
0.0
  0
LINE
  8
0
 62
     0
 10
112.343
 20
83.7681
 30
0.0
 11
112.343
 21
83.1688
 31
0.0
  0
LINE
  8
0
 62
     0
 10
112.343
 20
83.1688
 30
0.0
 11
113.144
 21
83.1688
 31
0.0
  0
LINE
  8
0
 62
     0
 10
113.144
 20
83.1688
 30
0.0
 11
113.144
 21
70.3682
 31
0.0
  0
LINE
  8
0
 62
     0
 10
113.144
 20
70.3682
 30
0.0
 11
112.343
 21
70.3682
 31
0.0
  0
LINE
  8
0
 62
     0
 10
117.106
 20
51.3182
 30
0.0
 11
117.106
 21
50.7189
 31
0.0
  0
LINE
  8
0
 62
     0
 10
117.106
 20
50.7189
 30
0.0
 11
103.106
 21
50.7189
 31
0.0
  0
LINE
  8
0
 62
     0
 10
103.106
 20
50.7189
 30
0.0
 11
103.106
 21
51.3182
 31
0.0
  0
LINE
  8
0
 62
     0
 10
103.106
 20
51.3182
 30
0.0
 11
102.306
 21
51.3182
 31
0.0
  0
LINE
  8
0
 62
     0
 10
102.306
 20
51.3182
 30
0.0
 11
102.306
 21
64.1188
 31
0.0
  0
LINE
  8
0
 62
     0
 10
102.306
 20
64.1188
 30
0.0
 11
103.106
 21
64.1188
 31
0.0
  0
LINE
  8
0
 62
     0
 10
103.106
 20
64.1188
 30
0.0
 11
103.106
 21
64.7181
 31
0.0
  0
LINE
  8
0
 62
     0
 10
103.106
 20
64.7181
 30
0.0
 11
117.106
 21
64.7181
 31
0.0
  0
LINE
  8
0
 62
     0
 10
117.106
 20
64.7181
 30
0.0
 11
117.106
 21
64.1188
 31
0.0
  0
LINE
  8
0
 62
     0
 10
117.106
 20
64.1188
 30
0.0
 11
117.906
 21
64.1188
 31
0.0
  0
LINE
  8
0
 62
     0
 10
117.906
 20
64.1188
 30
0.0
 11
117.906
 21
51.3182
 31
0.0
  0
LINE
  8
0
 62
     0
 10
117.906
 20
51.3182
 30
0.0
 11
117.106
 21
51.3182
 31
0.0
  0
LINE
  8
0
 62
     0
 10
121.868
 20
89.4182
 30
0.0
 11
121.868
 21
88.8189
 31
0.0
  0
LINE
  8
0
 62
     0
 10
121.868
 20
88.8189
 30
0.0
 11
107.869
 21
88.8189
 31
0.0
  0
LINE
  8
0
 62
     0
 10
107.869
 20
88.8189
 30
0.0
 11
107.869
 21
89.4182
 31
0.0
  0
LINE
  8
0
 62
     0
 10
107.869
 20
89.4182
 30
0.0
 11
107.069
 21
89.4182
 31
0.0
  0
LINE
  8
0
 62
     0
 10
107.069
 20
89.4182
 30
0.0
 11
107.069
 21
102.219
 31
0.0
  0
LINE
  8
0
 62
     0
 10
107.069
 20
102.219
 30
0.0
 11
107.869
 21
102.219
 31
0.0
  0
LINE
  8
0
 62
     0
 10
107.869
 20
102.219
 30
0.0
 11
107.869
 21
102.818
 31
0.0
  0
LINE
  8
0
 62
     0
 10
107.869
 20
102.818
 30
0.0
 11
121.868
 21
102.818
 31
0.0
  0
LINE
  8
0
 62
     0
 10
121.868
 20
102.818
 30
0.0
 11
121.868
 21
102.219
 31
0.0
  0
LINE
  8
0
 62
     0
 10
121.868
 20
102.219
 30
0.0
 11
122.669
 21
102.219
 31
0.0
  0
LINE
  8
0
 62
     0
 10
122.669
 20
102.219
 30
0.0
 11
122.669
 21
89.4182
 31
0.0
  0
LINE
  8
0
 62
     0
 10
122.669
 20
89.4182
 30
0.0
 11
121.868
 21
89.4182
 31
0.0
  0
LINE
  8
0
 62
     0
 10
126.632
 20
32.2682
 30
0.0
 11
126.632
 21
31.6687
 31
0.0
  0
LINE
  8
0
 62
     0
 10
126.632
 20
31.6687
 30
0.0
 11
112.631
 21
31.6687
 31
0.0
  0
LINE
  8
0
 62
     0
 10
112.631
 20
31.6687
 30
0.0
 11
112.631
 21
32.2682
 31
0.0
  0
LINE
  8
0
 62
     0
 10
112.631
 20
32.2682
 30
0.0
 11
111.832
 21
32.2682
 31
0.0
  0
LINE
  8
0
 62
     0
 10
111.832
 20
32.2682
 30
0.0
 11
111.832
 21
45.0688
 31
0.0
  0
LINE
  8
0
 62
     0
 10
111.832
 20
45.0688
 30
0.0
 11
112.631
 21
45.0688
 31
0.0
  0
LINE
  8
0
 62
     0
 10
112.631
 20
45.0688
 30
0.0
 11
112.631
 21
45.6681
 31
0.0
  0
LINE
  8
0
 62
     0
 10
112.631
 20
45.6681
 30
0.0
 11
126.632
 21
45.6681
 31
0.0
  0
LINE
  8
0
 62
     0
 10
126.632
 20
45.6681
 30
0.0
 11
126.632
 21
45.0688
 31
0.0
  0
LINE
  8
0
 62
     0
 10
126.632
 20
45.0688
 30
0.0
 11
127.431
 21
45.0688
 31
0.0
  0
LINE
  8
0
 62
     0
 10
127.431
 20
45.0688
 30
0.0
 11
127.431
 21
32.2682
 31
0.0
  0
LINE
  8
0
 62
     0
 10
127.431
 20
32.2682
 30
0.0
 11
126.632
 21
32.2682
 31
0.0
  0
LINE
  8
0
 62
     0
 10
131.393
 20
70.3682
 30
0.0
 11
131.393
 21
69.7689
 31
0.0
  0
LINE
  8
0
 62
     0
 10
131.393
 20
69.7689
 30
0.0
 11
117.394
 21
69.7689
 31
0.0
  0
LINE
  8
0
 62
     0
 10
117.394
 20
69.7689
 30
0.0
 11
117.394
 21
70.3682
 31
0.0
  0
LINE
  8
0
 62
     0
 10
117.394
 20
70.3682
 30
0.0
 11
116.594
 21
70.3682
 31
0.0
  0
LINE
  8
0
 62
     0
 10
116.594
 20
70.3682
 30
0.0
 11
116.594
 21
83.1688
 31
0.0
  0
LINE
  8
0
 62
     0
 10
116.594
 20
83.1688
 30
0.0
 11
117.394
 21
83.1688
 31
0.0
  0
LINE
  8
0
 62
     0
 10
117.394
 20
83.1688
 30
0.0
 11
117.394
 21
83.7681
 31
0.0
  0
LINE
  8
0
 62
     0
 10
117.394
 20
83.7681
 30
0.0
 11
131.393
 21
83.7681
 31
0.0
  0
LINE
  8
0
 62
     0
 10
131.393
 20
83.7681
 30
0.0
 11
131.393
 21
83.1688
 31
0.0
  0
LINE
  8
0
 62
     0
 10
131.393
 20
83.1688
 30
0.0
 11
132.194
 21
83.1688
 31
0.0
  0
LINE
  8
0
 62
     0
 10
132.194
 20
83.1688
 30
0.0
 11
132.194
 21
70.3682
 31
0.0
  0
LINE
  8
0
 62
     0
 10
132.194
 20
70.3682
 30
0.0
 11
131.393
 21
70.3682
 31
0.0
  0
LINE
  8
0
 62
     0
 10
136.156
 20
51.3182
 30
0.0
 11
136.156
 21
50.7189
 31
0.0
  0
LINE
  8
0
 62
     0
 10
136.156
 20
50.7189
 30
0.0
 11
122.156
 21
50.7189
 31
0.0
  0
LINE
  8
0
 62
     0
 10
122.156
 20
50.7189
 30
0.0
 11
122.156
 21
51.3182
 31
0.0
  0
LINE
  8
0
 62
     0
 10
122.156
 20
51.3182
 30
0.0
 11
121.357
 21
51.3182
 31
0.0
  0
LINE
  8
0
 62
     0
 10
121.357
 20
51.3182
 30
0.0
 11
121.357
 21
64.1188
 31
0.0
  0
LINE
  8
0
 62
     0
 10
121.357
 20
64.1188
 30
0.0
 11
122.156
 21
64.1188
 31
0.0
  0
LINE
  8
0
 62
     0
 10
122.156
 20
64.1188
 30
0.0
 11
122.156
 21
64.7181
 31
0.0
  0
LINE
  8
0
 62
     0
 10
122.156
 20
64.7181
 30
0.0
 11
136.156
 21
64.7181
 31
0.0
  0
LINE
  8
0
 62
     0
 10
136.156
 20
64.7181
 30
0.0
 11
136.156
 21
64.1188
 31
0.0
  0
LINE
  8
0
 62
     0
 10
136.156
 20
64.1188
 30
0.0
 11
136.956
 21
64.1188
 31
0.0
  0
LINE
  8
0
 62
     0
 10
136.956
 20
64.1188
 30
0.0
 11
136.956
 21
51.3182
 31
0.0
  0
LINE
  8
0
 62
     0
 10
136.956
 20
51.3182
 30
0.0
 11
136.156
 21
51.3182
 31
0.0
  0
LINE
  8
0
 62
     0
 10
140.918
 20
89.4182
 30
0.0
 11
140.918
 21
88.8189
 31
0.0
  0
LINE
  8
0
 62
     0
 10
140.918
 20
88.8189
 30
0.0
 11
126.919
 21
88.8189
 31
0.0
  0
LINE
  8
0
 62
     0
 10
126.919
 20
88.8189
 30
0.0
 11
126.919
 21
89.4182
 31
0.0
  0
LINE
  8
0
 62
     0
 10
126.919
 20
89.4182
 30
0.0
 11
126.119
 21
89.4182
 31
0.0
  0
LINE
  8
0
 62
     0
 10
126.119
 20
89.4182
 30
0.0
 11
126.119
 21
102.219
 31
0.0
  0
LINE
  8
0
 62
     0
 10
126.119
 20
102.219
 30
0.0
 11
126.919
 21
102.219
 31
0.0
  0
LINE
  8
0
 62
     0
 10
126.919
 20
102.219
 30
0.0
 11
126.919
 21
102.818
 31
0.0
  0
LINE
  8
0
 62
     0
 10
126.919
 20
102.818
 30
0.0
 11
140.918
 21
102.818
 31
0.0
  0
LINE
  8
0
 62
     0
 10
140.918
 20
102.818
 30
0.0
 11
140.918
 21
102.219
 31
0.0
  0
LINE
  8
0
 62
     0
 10
140.918
 20
102.219
 30
0.0
 11
141.719
 21
102.219
 31
0.0
  0
LINE
  8
0
 62
     0
 10
141.719
 20
102.219
 30
0.0
 11
141.719
 21
89.4182
 31
0.0
  0
LINE
  8
0
 62
     0
 10
141.719
 20
89.4182
 30
0.0
 11
140.918
 21
89.4182
 31
0.0
  0
LINE
  8
0
 62
     0
 10
145.682
 20
32.2682
 30
0.0
 11
145.682
 21
31.6687
 31
0.0
  0
LINE
  8
0
 62
     0
 10
145.682
 20
31.6687
 30
0.0
 11
131.681
 21
31.6687
 31
0.0
  0
LINE
  8
0
 62
     0
 10
131.681
 20
31.6687
 30
0.0
 11
131.681
 21
32.2682
 31
0.0
  0
LINE
  8
0
 62
     0
 10
131.681
 20
32.2682
 30
0.0
 11
130.881
 21
32.2682
 31
0.0
  0
LINE
  8
0
 62
     0
 10
130.881
 20
32.2682
 30
0.0
 11
130.881
 21
45.0688
 31
0.0
  0
LINE
  8
0
 62
     0
 10
130.881
 20
45.0688
 30
0.0
 11
131.681
 21
45.0688
 31
0.0
  0
LINE
  8
0
 62
     0
 10
131.681
 20
45.0688
 30
0.0
 11
131.681
 21
45.6681
 31
0.0
  0
LINE
  8
0
 62
     0
 10
131.681
 20
45.6681
 30
0.0
 11
145.682
 21
45.6681
 31
0.0
  0
LINE
  8
0
 62
     0
 10
145.682
 20
45.6681
 30
0.0
 11
145.682
 21
45.0688
 31
0.0
  0
LINE
  8
0
 62
     0
 10
145.682
 20
45.0688
 30
0.0
 11
146.481
 21
45.0688
 31
0.0
  0
LINE
  8
0
 62
     0
 10
146.481
 20
45.0688
 30
0.0
 11
146.481
 21
32.2682
 31
0.0
  0
LINE
  8
0
 62
     0
 10
146.481
 20
32.2682
 30
0.0
 11
145.682
 21
32.2682
 31
0.0
  0
LINE
  8
0
 62
     0
 10
150.443
 20
70.3682
 30
0.0
 11
150.443
 21
69.7689
 31
0.0
  0
LINE
  8
0
 62
     0
 10
150.443
 20
69.7689
 30
0.0
 11
136.444
 21
69.7689
 31
0.0
  0
LINE
  8
0
 62
     0
 10
136.444
 20
69.7689
 30
0.0
 11
136.444
 21
70.3682
 31
0.0
  0
LINE
  8
0
 62
     0
 10
136.444
 20
70.3682
 30
0.0
 11
135.644
 21
70.3682
 31
0.0
  0
LINE
  8
0
 62
     0
 10
135.644
 20
70.3682
 30
0.0
 11
135.644
 21
83.1688
 31
0.0
  0
LINE
  8
0
 62
     0
 10
135.644
 20
83.1688
 30
0.0
 11
136.444
 21
83.1688
 31
0.0
  0
LINE
  8
0
 62
     0
 10
136.444
 20
83.1688
 30
0.0
 11
136.444
 21
83.7681
 31
0.0
  0
LINE
  8
0
 62
     0
 10
136.444
 20
83.7681
 30
0.0
 11
150.443
 21
83.7681
 31
0.0
  0
LINE
  8
0
 62
     0
 10
150.443
 20
83.7681
 30
0.0
 11
150.443
 21
83.1688
 31
0.0
  0
LINE
  8
0
 62
     0
 10
150.443
 20
83.1688
 30
0.0
 11
151.244
 21
83.1688
 31
0.0
  0
LINE
  8
0
 62
     0
 10
151.244
 20
83.1688
 30
0.0
 11
151.244
 21
70.3682
 31
0.0
  0
LINE
  8
0
 62
     0
 10
151.244
 20
70.3682
 30
0.0
 11
150.443
 21
70.3682
 31
0.0
  0
LINE
  8
0
 62
     0
 10
155.207
 20
51.3182
 30
0.0
 11
155.207
 21
50.7189
 31
0.0
  0
LINE
  8
0
 62
     0
 10
155.207
 20
50.7189
 30
0.0
 11
141.206
 21
50.7189
 31
0.0
  0
LINE
  8
0
 62
     0
 10
141.206
 20
50.7189
 30
0.0
 11
141.206
 21
51.3182
 31
0.0
  0
LINE
  8
0
 62
     0
 10
141.206
 20
51.3182
 30
0.0
 11
140.406
 21
51.3182
 31
0.0
  0
LINE
  8
0
 62
     0
 10
140.406
 20
51.3182
 30
0.0
 11
140.406
 21
64.1188
 31
0.0
  0
LINE
  8
0
 62
     0
 10
140.406
 20
64.1188
 30
0.0
 11
141.206
 21
64.1188
 31
0.0
  0
LINE
  8
0
 62
     0
 10
141.206
 20
64.1188
 30
0.0
 11
141.206
 21
64.7181
 31
0.0
  0
LINE
  8
0
 62
     0
 10
141.206
 20
64.7181
 30
0.0
 11
155.207
 21
64.7181
 31
0.0
  0
LINE
  8
0
 62
     0
 10
155.207
 20
64.7181
 30
0.0
 11
155.207
 21
64.1188
 31
0.0
  0
LINE
  8
0
 62
     0
 10
155.207
 20
64.1188
 30
0.0
 11
156.006
 21
64.1188
 31
0.0
  0
LINE
  8
0
 62
     0
 10
156.006
 20
64.1188
 30
0.0
 11
156.006
 21
51.3182
 31
0.0
  0
LINE
  8
0
 62
     0
 10
156.006
 20
51.3182
 30
0.0
 11
155.207
 21
51.3182
 31
0.0
  0
LINE
  8
0
 62
     0
 10
159.968
 20
89.4182
 30
0.0
 11
159.968
 21
88.8189
 31
0.0
  0
LINE
  8
0
 62
     0
 10
159.968
 20
88.8189
 30
0.0
 11
145.969
 21
88.8189
 31
0.0
  0
LINE
  8
0
 62
     0
 10
145.969
 20
88.8189
 30
0.0
 11
145.969
 21
89.4182
 31
0.0
  0
LINE
  8
0
 62
     0
 10
145.969
 20
89.4182
 30
0.0
 11
145.169
 21
89.4182
 31
0.0
  0
LINE
  8
0
 62
     0
 10
145.169
 20
89.4182
 30
0.0
 11
145.169
 21
102.219
 31
0.0
  0
LINE
  8
0
 62
     0
 10
145.169
 20
102.219
 30
0.0
 11
145.969
 21
102.219
 31
0.0
  0
LINE
  8
0
 62
     0
 10
145.969
 20
102.219
 30
0.0
 11
145.969
 21
102.818
 31
0.0
  0
LINE
  8
0
 62
     0
 10
145.969
 20
102.818
 30
0.0
 11
159.968
 21
102.818
 31
0.0
  0
LINE
  8
0
 62
     0
 10
159.968
 20
102.818
 30
0.0
 11
159.968
 21
102.219
 31
0.0
  0
LINE
  8
0
 62
     0
 10
159.968
 20
102.219
 30
0.0
 11
160.769
 21
102.219
 31
0.0
  0
LINE
  8
0
 62
     0
 10
160.769
 20
102.219
 30
0.0
 11
160.769
 21
89.4182
 31
0.0
  0
LINE
  8
0
 62
     0
 10
160.769
 20
89.4182
 30
0.0
 11
159.968
 21
89.4182
 31
0.0
  0
LINE
  8
0
 62
     0
 10
164.732
 20
32.2682
 30
0.0
 11
164.732
 21
31.6687
 31
0.0
  0
LINE
  8
0
 62
     0
 10
164.732
 20
31.6687
 30
0.0
 11
150.731
 21
31.6687
 31
0.0
  0
LINE
  8
0
 62
     0
 10
150.731
 20
31.6687
 30
0.0
 11
150.731
 21
32.2682
 31
0.0
  0
LINE
  8
0
 62
     0
 10
150.731
 20
32.2682
 30
0.0
 11
149.932
 21
32.2682
 31
0.0
  0
LINE
  8
0
 62
     0
 10
149.932
 20
32.2682
 30
0.0
 11
149.932
 21
45.0688
 31
0.0
  0
LINE
  8
0
 62
     0
 10
149.932
 20
45.0688
 30
0.0
 11
150.731
 21
45.0688
 31
0.0
  0
LINE
  8
0
 62
     0
 10
150.731
 20
45.0688
 30
0.0
 11
150.731
 21
45.6681
 31
0.0
  0
LINE
  8
0
 62
     0
 10
150.731
 20
45.6681
 30
0.0
 11
164.732
 21
45.6681
 31
0.0
  0
LINE
  8
0
 62
     0
 10
164.732
 20
45.6681
 30
0.0
 11
164.732
 21
45.0688
 31
0.0
  0
LINE
  8
0
 62
     0
 10
164.732
 20
45.0688
 30
0.0
 11
165.531
 21
45.0688
 31
0.0
  0
LINE
  8
0
 62
     0
 10
165.531
 20
45.0688
 30
0.0
 11
165.531
 21
32.2682
 31
0.0
  0
LINE
  8
0
 62
     0
 10
165.531
 20
32.2682
 30
0.0
 11
164.732
 21
32.2682
 31
0.0
  0
LINE
  8
0
 62
     0
 10
169.493
 20
70.3682
 30
0.0
 11
169.493
 21
69.7689
 31
0.0
  0
LINE
  8
0
 62
     0
 10
169.493
 20
69.7689
 30
0.0
 11
155.494
 21
69.7689
 31
0.0
  0
LINE
  8
0
 62
     0
 10
155.494
 20
69.7689
 30
0.0
 11
155.494
 21
70.3682
 31
0.0
  0
LINE
  8
0
 62
     0
 10
155.494
 20
70.3682
 30
0.0
 11
154.694
 21
70.3682
 31
0.0
  0
LINE
  8
0
 62
     0
 10
154.694
 20
70.3682
 30
0.0
 11
154.694
 21
83.1688
 31
0.0
  0
LINE
  8
0
 62
     0
 10
154.694
 20
83.1688
 30
0.0
 11
155.494
 21
83.1688
 31
0.0
  0
LINE
  8
0
 62
     0
 10
155.494
 20
83.1688
 30
0.0
 11
155.494
 21
83.7681
 31
0.0
  0
LINE
  8
0
 62
     0
 10
155.494
 20
83.7681
 30
0.0
 11
169.493
 21
83.7681
 31
0.0
  0
LINE
  8
0
 62
     0
 10
169.493
 20
83.7681
 30
0.0
 11
169.493
 21
83.1688
 31
0.0
  0
LINE
  8
0
 62
     0
 10
169.493
 20
83.1688
 30
0.0
 11
170.294
 21
83.1688
 31
0.0
  0
LINE
  8
0
 62
     0
 10
170.294
 20
83.1688
 30
0.0
 11
170.294
 21
70.3682
 31
0.0
  0
LINE
  8
0
 62
     0
 10
170.294
 20
70.3682
 30
0.0
 11
169.493
 21
70.3682
 31
0.0
  0
LINE
  8
0
 62
     0
 10
174.257
 20
51.3182
 30
0.0
 11
174.257
 21
50.7189
 31
0.0
  0
LINE
  8
0
 62
     0
 10
174.257
 20
50.7189
 30
0.0
 11
160.256
 21
50.7189
 31
0.0
  0
LINE
  8
0
 62
     0
 10
160.256
 20
50.7189
 30
0.0
 11
160.256
 21
51.3182
 31
0.0
  0
LINE
  8
0
 62
     0
 10
160.256
 20
51.3182
 30
0.0
 11
159.457
 21
51.3182
 31
0.0
  0
LINE
  8
0
 62
     0
 10
159.457
 20
51.3182
 30
0.0
 11
159.457
 21
64.1188
 31
0.0
  0
LINE
  8
0
 62
     0
 10
159.457
 20
64.1188
 30
0.0
 11
160.256
 21
64.1188
 31
0.0
  0
LINE
  8
0
 62
     0
 10
160.256
 20
64.1188
 30
0.0
 11
160.256
 21
64.7181
 31
0.0
  0
LINE
  8
0
 62
     0
 10
160.256
 20
64.7181
 30
0.0
 11
174.257
 21
64.7181
 31
0.0
  0
LINE
  8
0
 62
     0
 10
174.257
 20
64.7181
 30
0.0
 11
174.257
 21
64.1188
 31
0.0
  0
LINE
  8
0
 62
     0
 10
174.257
 20
64.1188
 30
0.0
 11
175.056
 21
64.1188
 31
0.0
  0
LINE
  8
0
 62
     0
 10
175.056
 20
64.1188
 30
0.0
 11
175.056
 21
51.3182
 31
0.0
  0
LINE
  8
0
 62
     0
 10
175.056
 20
51.3182
 30
0.0
 11
174.257
 21
51.3182
 31
0.0
  0
LINE
  8
0
 62
     0
 10
179.018
 20
89.4182
 30
0.0
 11
179.018
 21
88.8189
 31
0.0
  0
LINE
  8
0
 62
     0
 10
179.018
 20
88.8189
 30
0.0
 11
165.019
 21
88.8189
 31
0.0
  0
LINE
  8
0
 62
     0
 10
165.019
 20
88.8189
 30
0.0
 11
165.019
 21
89.4182
 31
0.0
  0
LINE
  8
0
 62
     0
 10
165.019
 20
89.4182
 30
0.0
 11
164.219
 21
89.4182
 31
0.0
  0
LINE
  8
0
 62
     0
 10
164.219
 20
89.4182
 30
0.0
 11
164.219
 21
102.219
 31
0.0
  0
LINE
  8
0
 62
     0
 10
164.219
 20
102.219
 30
0.0
 11
165.019
 21
102.219
 31
0.0
  0
LINE
  8
0
 62
     0
 10
165.019
 20
102.219
 30
0.0
 11
165.019
 21
102.818
 31
0.0
  0
LINE
  8
0
 62
     0
 10
165.019
 20
102.818
 30
0.0
 11
179.018
 21
102.818
 31
0.0
  0
LINE
  8
0
 62
     0
 10
179.018
 20
102.818
 30
0.0
 11
179.018
 21
102.219
 31
0.0
  0
LINE
  8
0
 62
     0
 10
179.018
 20
102.219
 30
0.0
 11
179.819
 21
102.219
 31
0.0
  0
LINE
  8
0
 62
     0
 10
179.819
 20
102.219
 30
0.0
 11
179.819
 21
89.4182
 31
0.0
  0
LINE
  8
0
 62
     0
 10
179.819
 20
89.4182
 30
0.0
 11
179.018
 21
89.4182
 31
0.0
  0
LINE
  8
0
 62
     0
 10
183.782
 20
32.2682
 30
0.0
 11
183.782
 21
31.6687
 31
0.0
  0
LINE
  8
0
 62
     0
 10
183.782
 20
31.6687
 30
0.0
 11
169.781
 21
31.6687
 31
0.0
  0
LINE
  8
0
 62
     0
 10
169.781
 20
31.6687
 30
0.0
 11
169.781
 21
32.2682
 31
0.0
  0
LINE
  8
0
 62
     0
 10
169.781
 20
32.2682
 30
0.0
 11
168.982
 21
32.2682
 31
0.0
  0
LINE
  8
0
 62
     0
 10
168.982
 20
32.2682
 30
0.0
 11
168.982
 21
45.0688
 31
0.0
  0
LINE
  8
0
 62
     0
 10
168.982
 20
45.0688
 30
0.0
 11
169.781
 21
45.0688
 31
0.0
  0
LINE
  8
0
 62
     0
 10
169.781
 20
45.0688
 30
0.0
 11
169.781
 21
45.6681
 31
0.0
  0
LINE
  8
0
 62
     0
 10
169.781
 20
45.6681
 30
0.0
 11
183.782
 21
45.6681
 31
0.0
  0
LINE
  8
0
 62
     0
 10
183.782
 20
45.6681
 30
0.0
 11
183.782
 21
45.0688
 31
0.0
  0
LINE
  8
0
 62
     0
 10
183.782
 20
45.0688
 30
0.0
 11
184.581
 21
45.0688
 31
0.0
  0
LINE
  8
0
 62
     0
 10
184.581
 20
45.0688
 30
0.0
 11
184.581
 21
32.2682
 31
0.0
  0
LINE
  8
0
 62
     0
 10
184.581
 20
32.2682
 30
0.0
 11
183.782
 21
32.2682
 31
0.0
  0
LINE
  8
0
 62
     0
 10
188.543
 20
70.3682
 30
0.0
 11
188.543
 21
69.7689
 31
0.0
  0
LINE
  8
0
 62
     0
 10
188.543
 20
69.7689
 30
0.0
 11
174.544
 21
69.7689
 31
0.0
  0
LINE
  8
0
 62
     0
 10
174.544
 20
69.7689
 30
0.0
 11
174.544
 21
70.3682
 31
0.0
  0
LINE
  8
0
 62
     0
 10
174.544
 20
70.3682
 30
0.0
 11
173.744
 21
70.3682
 31
0.0
  0
LINE
  8
0
 62
     0
 10
173.744
 20
70.3682
 30
0.0
 11
173.744
 21
83.1688
 31
0.0
  0
LINE
  8
0
 62
     0
 10
173.744
 20
83.1688
 30
0.0
 11
174.544
 21
83.1688
 31
0.0
  0
LINE
  8
0
 62
     0
 10
174.544
 20
83.1688
 30
0.0
 11
174.544
 21
83.7681
 31
0.0
  0
LINE
  8
0
 62
     0
 10
174.544
 20
83.7681
 30
0.0
 11
188.543
 21
83.7681
 31
0.0
  0
LINE
  8
0
 62
     0
 10
188.543
 20
83.7681
 30
0.0
 11
188.543
 21
83.1688
 31
0.0
  0
LINE
  8
0
 62
     0
 10
188.543
 20
83.1688
 30
0.0
 11
189.344
 21
83.1688
 31
0.0
  0
LINE
  8
0
 62
     0
 10
189.344
 20
83.1688
 30
0.0
 11
189.344
 21
70.3682
 31
0.0
  0
LINE
  8
0
 62
     0
 10
189.344
 20
70.3682
 30
0.0
 11
188.543
 21
70.3682
 31
0.0
  0
LINE
  8
0
 62
     0
 10
193.307
 20
51.3182
 30
0.0
 11
193.307
 21
50.7189
 31
0.0
  0
LINE
  8
0
 62
     0
 10
193.307
 20
50.7189
 30
0.0
 11
179.306
 21
50.7189
 31
0.0
  0
LINE
  8
0
 62
     0
 10
179.306
 20
50.7189
 30
0.0
 11
179.306
 21
51.3182
 31
0.0
  0
LINE
  8
0
 62
     0
 10
179.306
 20
51.3182
 30
0.0
 11
178.507
 21
51.3182
 31
0.0
  0
LINE
  8
0
 62
     0
 10
178.507
 20
51.3182
 30
0.0
 11
178.507
 21
64.1188
 31
0.0
  0
LINE
  8
0
 62
     0
 10
178.507
 20
64.1188
 30
0.0
 11
179.306
 21
64.1188
 31
0.0
  0
LINE
  8
0
 62
     0
 10
179.306
 20
64.1188
 30
0.0
 11
179.306
 21
64.7181
 31
0.0
  0
LINE
  8
0
 62
     0
 10
179.306
 20
64.7181
 30
0.0
 11
193.307
 21
64.7181
 31
0.0
  0
LINE
  8
0
 62
     0
 10
193.307
 20
64.7181
 30
0.0
 11
193.307
 21
64.1188
 31
0.0
  0
LINE
  8
0
 62
     0
 10
193.307
 20
64.1188
 30
0.0
 11
194.106
 21
64.1188
 31
0.0
  0
LINE
  8
0
 62
     0
 10
194.106
 20
64.1188
 30
0.0
 11
194.106
 21
51.3182
 31
0.0
  0
LINE
  8
0
 62
     0
 10
194.106
 20
51.3182
 30
0.0
 11
193.307
 21
51.3182
 31
0.0
  0
LINE
  8
0
 62
     0
 10
194.388
 20
19.1189
 30
0.0
 11
194.388
 21
12.8475
 31
0.0
  0
LINE
  8
0
 62
     0
 10
194.388
 20
12.8475
 30
0.0
 11
192.713
 21
12.8475
 31
0.0
  0
LINE
  8
0
 62
     0
 10
192.713
 20
12.8475
 30
0.0
 11
192.713
 21
11.8677
 31
0.0
  0
LINE
  8
0
 62
     0
 10
192.713
 20
11.8677
 30
0.0
 11
189.413
 21
11.8677
 31
0.0
  0
LINE
  8
0
 62
     0
 10
189.413
 20
11.8677
 30
0.0
 11
189.413
 21
12.8475
 31
0.0
  0
LINE
  8
0
 62
     0
 10
189.413
 20
12.8475
 30
0.0
 11
187.738
 21
12.8475
 31
0.0
  0
LINE
  8
0
 62
     0
 10
187.738
 20
12.8475
 30
0.0
 11
187.738
 21
17.3178
 31
0.0
  0
LINE
  8
0
 62
     0
 10
187.738
 20
17.3178
 30
0.0
 11
148.863
 21
17.3178
 31
0.0
  0
LINE
  8
0
 62
     0
 10
148.863
 20
17.3178
 30
0.0
 11
148.863
 21
13.2182
 31
0.0
  0
LINE
  8
0
 62
     0
 10
148.863
 20
13.2182
 30
0.0
 11
148.063
 21
13.2182
 31
0.0
  0
LINE
  8
0
 62
     0
 10
148.063
 20
13.2182
 30
0.0
 11
148.063
 21
12.6187
 31
0.0
  0
LINE
  8
0
 62
     0
 10
148.063
 20
12.6187
 30
0.0
 11
134.063
 21
12.6187
 31
0.0
  0
LINE
  8
0
 62
     0
 10
134.063
 20
12.6187
 30
0.0
 11
134.063
 21
13.2182
 31
0.0
  0
LINE
  8
0
 62
     0
 10
134.063
 20
13.2182
 30
0.0
 11
133.263
 21
13.2182
 31
0.0
  0
LINE
  8
0
 62
     0
 10
133.263
 20
13.2182
 30
0.0
 11
133.263
 21
17.3178
 31
0.0
  0
LINE
  8
0
 62
     0
 10
133.263
 20
17.3178
 30
0.0
 11
94.3875
 21
17.3178
 31
0.0
  0
LINE
  8
0
 62
     0
 10
94.3875
 20
17.3178
 30
0.0
 11
94.3875
 21
12.8475
 31
0.0
  0
LINE
  8
0
 62
     0
 10
94.3875
 20
12.8475
 30
0.0
 11
92.7132
 21
12.8475
 31
0.0
  0
LINE
  8
0
 62
     0
 10
92.7132
 20
12.8475
 30
0.0
 11
92.7132
 21
11.8677
 31
0.0
  0
LINE
  8
0
 62
     0
 10
92.7132
 20
11.8677
 30
0.0
 11
89.4126
 21
11.8677
 31
0.0
  0
LINE
  8
0
 62
     0
 10
89.4126
 20
11.8677
 30
0.0
 11
89.4126
 21
12.8475
 31
0.0
  0
LINE
  8
0
 62
     0
 10
89.4126
 20
12.8475
 30
0.0
 11
87.7383
 21
12.8475
 31
0.0
  0
LINE
  8
0
 62
     0
 10
87.7383
 20
12.8475
 30
0.0
 11
87.7383
 21
19.1189
 31
0.0
  0
LINE
  8
0
 62
     0
 10
87.7383
 20
19.1189
 30
0.0
 11
86.8634
 21
19.1189
 31
0.0
  0
LINE
  8
0
 62
     0
 10
86.8634
 20
19.1189
 30
0.0
 11
86.8634
 21
21.9177
 31
0.0
  0
LINE
  8
0
 62
     0
 10
86.8634
 20
21.9177
 30
0.0
 11
87.7383
 21
21.9177
 31
0.0
  0
LINE
  8
0
 62
     0
 10
87.7383
 20
21.9177
 30
0.0
 11
87.7383
 21
25.1478
 31
0.0
  0
LINE
  8
0
 62
     0
 10
87.7383
 20
25.1478
 30
0.0
 11
89.4126
 21
25.1478
 31
0.0
  0
LINE
  8
0
 62
     0
 10
89.4126
 20
25.1478
 30
0.0
 11
89.4126
 21
26.0683
 31
0.0
  0
LINE
  8
0
 62
     0
 10
89.4126
 20
26.0683
 30
0.0
 11
92.7132
 21
26.0683
 31
0.0
  0
LINE
  8
0
 62
     0
 10
92.7132
 20
26.0683
 30
0.0
 11
92.7132
 21
25.1478
 31
0.0
  0
LINE
  8
0
 62
     0
 10
92.7132
 20
25.1478
 30
0.0
 11
94.3875
 21
25.1478
 31
0.0
  0
LINE
  8
0
 62
     0
 10
94.3875
 20
25.1478
 30
0.0
 11
94.3875
 21
21.9177
 31
0.0
  0
LINE
  8
0
 62
     0
 10
94.3875
 20
21.9177
 30
0.0
 11
133.263
 21
21.9177
 31
0.0
  0
LINE
  8
0
 62
     0
 10
133.263
 20
21.9177
 30
0.0
 11
133.263
 21
26.0187
 31
0.0
  0
LINE
  8
0
 62
     0
 10
133.263
 20
26.0187
 30
0.0
 11
134.063
 21
26.0187
 31
0.0
  0
LINE
  8
0
 62
     0
 10
134.063
 20
26.0187
 30
0.0
 11
134.063
 21
26.6182
 31
0.0
  0
LINE
  8
0
 62
     0
 10
134.063
 20
26.6182
 30
0.0
 11
148.063
 21
26.6182
 31
0.0
  0
LINE
  8
0
 62
     0
 10
148.063
 20
26.6182
 30
0.0
 11
148.063
 21
26.0187
 31
0.0
  0
LINE
  8
0
 62
     0
 10
148.063
 20
26.0187
 30
0.0
 11
148.863
 21
26.0187
 31
0.0
  0
LINE
  8
0
 62
     0
 10
148.863
 20
26.0187
 30
0.0
 11
148.863
 21
21.9177
 31
0.0
  0
LINE
  8
0
 62
     0
 10
148.863
 20
21.9177
 30
0.0
 11
187.738
 21
21.9177
 31
0.0
  0
LINE
  8
0
 62
     0
 10
187.738
 20
21.9177
 30
0.0
 11
187.738
 21
25.1478
 31
0.0
  0
LINE
  8
0
 62
     0
 10
187.738
 20
25.1478
 30
0.0
 11
189.413
 21
25.1478
 31
0.0
  0
LINE
  8
0
 62
     0
 10
189.413
 20
25.1478
 30
0.0
 11
189.413
 21
26.0683
 31
0.0
  0
LINE
  8
0
 62
     0
 10
189.413
 20
26.0683
 30
0.0
 11
192.713
 21
26.0683
 31
0.0
  0
LINE
  8
0
 62
     0
 10
192.713
 20
26.0683
 30
0.0
 11
192.713
 21
25.1478
 31
0.0
  0
LINE
  8
0
 62
     0
 10
192.713
 20
25.1478
 30
0.0
 11
194.388
 21
25.1478
 31
0.0
  0
LINE
  8
0
 62
     0
 10
194.388
 20
25.1478
 30
0.0
 11
194.388
 21
21.9177
 31
0.0
  0
LINE
  8
0
 62
     0
 10
194.388
 20
21.9177
 30
0.0
 11
195.263
 21
21.9177
 31
0.0
  0
LINE
  8
0
 62
     0
 10
195.263
 20
21.9177
 30
0.0
 11
195.263
 21
19.1189
 31
0.0
  0
LINE
  8
0
 62
     0
 10
195.263
 20
19.1189
 30
0.0
 11
194.388
 21
19.1189
 31
0.0
  0
LINE
  8
0
 62
     0
 10
198.068
 20
89.4182
 30
0.0
 11
198.068
 21
88.8189
 31
0.0
  0
LINE
  8
0
 62
     0
 10
198.068
 20
88.8189
 30
0.0
 11
184.069
 21
88.8189
 31
0.0
  0
LINE
  8
0
 62
     0
 10
184.069
 20
88.8189
 30
0.0
 11
184.069
 21
89.4182
 31
0.0
  0
LINE
  8
0
 62
     0
 10
184.069
 20
89.4182
 30
0.0
 11
183.269
 21
89.4182
 31
0.0
  0
LINE
  8
0
 62
     0
 10
183.269
 20
89.4182
 30
0.0
 11
183.269
 21
102.219
 31
0.0
  0
LINE
  8
0
 62
     0
 10
183.269
 20
102.219
 30
0.0
 11
184.069
 21
102.219
 31
0.0
  0
LINE
  8
0
 62
     0
 10
184.069
 20
102.219
 30
0.0
 11
184.069
 21
102.818
 31
0.0
  0
LINE
  8
0
 62
     0
 10
184.069
 20
102.818
 30
0.0
 11
198.068
 21
102.818
 31
0.0
  0
LINE
  8
0
 62
     0
 10
198.068
 20
102.818
 30
0.0
 11
198.068
 21
102.219
 31
0.0
  0
LINE
  8
0
 62
     0
 10
198.068
 20
102.219
 30
0.0
 11
198.869
 21
102.219
 31
0.0
  0
LINE
  8
0
 62
     0
 10
198.869
 20
102.219
 30
0.0
 11
198.869
 21
89.4182
 31
0.0
  0
LINE
  8
0
 62
     0
 10
198.869
 20
89.4182
 30
0.0
 11
198.068
 21
89.4182
 31
0.0
  0
LINE
  8
0
 62
     0
 10
202.832
 20
32.2682
 30
0.0
 11
202.832
 21
31.6687
 31
0.0
  0
LINE
  8
0
 62
     0
 10
202.832
 20
31.6687
 30
0.0
 11
188.831
 21
31.6687
 31
0.0
  0
LINE
  8
0
 62
     0
 10
188.831
 20
31.6687
 30
0.0
 11
188.831
 21
32.2682
 31
0.0
  0
LINE
  8
0
 62
     0
 10
188.831
 20
32.2682
 30
0.0
 11
188.032
 21
32.2682
 31
0.0
  0
LINE
  8
0
 62
     0
 10
188.032
 20
32.2682
 30
0.0
 11
188.032
 21
45.0688
 31
0.0
  0
LINE
  8
0
 62
     0
 10
188.032
 20
45.0688
 30
0.0
 11
188.831
 21
45.0688
 31
0.0
  0
LINE
  8
0
 62
     0
 10
188.831
 20
45.0688
 30
0.0
 11
188.831
 21
45.6681
 31
0.0
  0
LINE
  8
0
 62
     0
 10
188.831
 20
45.6681
 30
0.0
 11
202.832
 21
45.6681
 31
0.0
  0
LINE
  8
0
 62
     0
 10
202.832
 20
45.6681
 30
0.0
 11
202.832
 21
45.0688
 31
0.0
  0
LINE
  8
0
 62
     0
 10
202.832
 20
45.0688
 30
0.0
 11
203.631
 21
45.0688
 31
0.0
  0
LINE
  8
0
 62
     0
 10
203.631
 20
45.0688
 30
0.0
 11
203.631
 21
32.2682
 31
0.0
  0
LINE
  8
0
 62
     0
 10
203.631
 20
32.2682
 30
0.0
 11
202.832
 21
32.2682
 31
0.0
  0
LINE
  8
0
 62
     0
 10
207.593
 20
70.3682
 30
0.0
 11
207.593
 21
69.7689
 31
0.0
  0
LINE
  8
0
 62
     0
 10
207.593
 20
69.7689
 30
0.0
 11
193.594
 21
69.7689
 31
0.0
  0
LINE
  8
0
 62
     0
 10
193.594
 20
69.7689
 30
0.0
 11
193.594
 21
70.3682
 31
0.0
  0
LINE
  8
0
 62
     0
 10
193.594
 20
70.3682
 30
0.0
 11
192.794
 21
70.3682
 31
0.0
  0
LINE
  8
0
 62
     0
 10
192.794
 20
70.3682
 30
0.0
 11
192.794
 21
83.1688
 31
0.0
  0
LINE
  8
0
 62
     0
 10
192.794
 20
83.1688
 30
0.0
 11
193.594
 21
83.1688
 31
0.0
  0
LINE
  8
0
 62
     0
 10
193.594
 20
83.1688
 30
0.0
 11
193.594
 21
83.7681
 31
0.0
  0
LINE
  8
0
 62
     0
 10
193.594
 20
83.7681
 30
0.0
 11
207.593
 21
83.7681
 31
0.0
  0
LINE
  8
0
 62
     0
 10
207.593
 20
83.7681
 30
0.0
 11
207.593
 21
83.1688
 31
0.0
  0
LINE
  8
0
 62
     0
 10
207.593
 20
83.1688
 30
0.0
 11
208.394
 21
83.1688
 31
0.0
  0
LINE
  8
0
 62
     0
 10
208.394
 20
83.1688
 30
0.0
 11
208.394
 21
70.3682
 31
0.0
  0
LINE
  8
0
 62
     0
 10
208.394
 20
70.3682
 30
0.0
 11
207.593
 21
70.3682
 31
0.0
  0
LINE
  8
0
 62
     0
 10
212.357
 20
51.3182
 30
0.0
 11
212.357
 21
50.7189
 31
0.0
  0
LINE
  8
0
 62
     0
 10
212.357
 20
50.7189
 30
0.0
 11
198.356
 21
50.7189
 31
0.0
  0
LINE
  8
0
 62
     0
 10
198.356
 20
50.7189
 30
0.0
 11
198.356
 21
51.3182
 31
0.0
  0
LINE
  8
0
 62
     0
 10
198.356
 20
51.3182
 30
0.0
 11
197.557
 21
51.3182
 31
0.0
  0
LINE
  8
0
 62
     0
 10
197.557
 20
51.3182
 30
0.0
 11
197.557
 21
64.1188
 31
0.0
  0
LINE
  8
0
 62
     0
 10
197.557
 20
64.1188
 30
0.0
 11
198.356
 21
64.1188
 31
0.0
  0
LINE
  8
0
 62
     0
 10
198.356
 20
64.1188
 30
0.0
 11
198.356
 21
64.7181
 31
0.0
  0
LINE
  8
0
 62
     0
 10
198.356
 20
64.7181
 30
0.0
 11
212.357
 21
64.7181
 31
0.0
  0
LINE
  8
0
 62
     0
 10
212.357
 20
64.7181
 30
0.0
 11
212.357
 21
64.1188
 31
0.0
  0
LINE
  8
0
 62
     0
 10
212.357
 20
64.1188
 30
0.0
 11
213.156
 21
64.1188
 31
0.0
  0
LINE
  8
0
 62
     0
 10
213.156
 20
64.1188
 30
0.0
 11
213.156
 21
51.3182
 31
0.0
  0
LINE
  8
0
 62
     0
 10
213.156
 20
51.3182
 30
0.0
 11
212.357
 21
51.3182
 31
0.0
  0
LINE
  8
0
 62
     0
 10
217.118
 20
89.4182
 30
0.0
 11
217.118
 21
88.8189
 31
0.0
  0
LINE
  8
0
 62
     0
 10
217.118
 20
88.8189
 30
0.0
 11
203.119
 21
88.8189
 31
0.0
  0
LINE
  8
0
 62
     0
 10
203.119
 20
88.8189
 30
0.0
 11
203.119
 21
89.4182
 31
0.0
  0
LINE
  8
0
 62
     0
 10
203.119
 20
89.4182
 30
0.0
 11
202.319
 21
89.4182
 31
0.0
  0
LINE
  8
0
 62
     0
 10
202.319
 20
89.4182
 30
0.0
 11
202.319
 21
102.219
 31
0.0
  0
LINE
  8
0
 62
     0
 10
202.319
 20
102.219
 30
0.0
 11
203.119
 21
102.219
 31
0.0
  0
LINE
  8
0
 62
     0
 10
203.119
 20
102.219
 30
0.0
 11
203.119
 21
102.818
 31
0.0
  0
LINE
  8
0
 62
     0
 10
203.119
 20
102.818
 30
0.0
 11
217.118
 21
102.818
 31
0.0
  0
LINE
  8
0
 62
     0
 10
217.118
 20
102.818
 30
0.0
 11
217.118
 21
102.219
 31
0.0
  0
LINE
  8
0
 62
     0
 10
217.118
 20
102.219
 30
0.0
 11
217.919
 21
102.219
 31
0.0
  0
LINE
  8
0
 62
     0
 10
217.919
 20
102.219
 30
0.0
 11
217.919
 21
89.4182
 31
0.0
  0
LINE
  8
0
 62
     0
 10
217.919
 20
89.4182
 30
0.0
 11
217.118
 21
89.4182
 31
0.0
  0
LINE
  8
0
 62
     0
 10
219.499
 20
13.2182
 30
0.0
 11
219.499
 21
12.6187
 31
0.0
  0
LINE
  8
0
 62
     0
 10
219.499
 20
12.6187
 30
0.0
 11
205.5
 21
12.6187
 31
0.0
  0
LINE
  8
0
 62
     0
 10
205.5
 20
12.6187
 30
0.0
 11
205.5
 21
13.2182
 31
0.0
  0
LINE
  8
0
 62
     0
 10
205.5
 20
13.2182
 30
0.0
 11
204.699
 21
13.2182
 31
0.0
  0
LINE
  8
0
 62
     0
 10
204.699
 20
13.2182
 30
0.0
 11
204.699
 21
26.0187
 31
0.0
  0
LINE
  8
0
 62
     0
 10
204.699
 20
26.0187
 30
0.0
 11
205.5
 21
26.0187
 31
0.0
  0
LINE
  8
0
 62
     0
 10
205.5
 20
26.0187
 30
0.0
 11
205.5
 21
26.6182
 31
0.0
  0
LINE
  8
0
 62
     0
 10
205.5
 20
26.6182
 30
0.0
 11
219.499
 21
26.6182
 31
0.0
  0
LINE
  8
0
 62
     0
 10
219.499
 20
26.6182
 30
0.0
 11
219.499
 21
26.0187
 31
0.0
  0
LINE
  8
0
 62
     0
 10
219.499
 20
26.0187
 30
0.0
 11
220.3
 21
26.0187
 31
0.0
  0
LINE
  8
0
 62
     0
 10
220.3
 20
26.0187
 30
0.0
 11
220.3
 21
13.2182
 31
0.0
  0
LINE
  8
0
 62
     0
 10
220.3
 20
13.2182
 30
0.0
 11
219.499
 21
13.2182
 31
0.0
  0
LINE
  8
0
 62
     0
 10
221.882
 20
32.2682
 30
0.0
 11
221.882
 21
31.6687
 31
0.0
  0
LINE
  8
0
 62
     0
 10
221.882
 20
31.6687
 30
0.0
 11
207.881
 21
31.6687
 31
0.0
  0
LINE
  8
0
 62
     0
 10
207.881
 20
31.6687
 30
0.0
 11
207.881
 21
32.2682
 31
0.0
  0
LINE
  8
0
 62
     0
 10
207.881
 20
32.2682
 30
0.0
 11
207.082
 21
32.2682
 31
0.0
  0
LINE
  8
0
 62
     0
 10
207.082
 20
32.2682
 30
0.0
 11
207.082
 21
45.0688
 31
0.0
  0
LINE
  8
0
 62
     0
 10
207.082
 20
45.0688
 30
0.0
 11
207.881
 21
45.0688
 31
0.0
  0
LINE
  8
0
 62
     0
 10
207.881
 20
45.0688
 30
0.0
 11
207.881
 21
45.6681
 31
0.0
  0
LINE
  8
0
 62
     0
 10
207.881
 20
45.6681
 30
0.0
 11
221.882
 21
45.6681
 31
0.0
  0
LINE
  8
0
 62
     0
 10
221.882
 20
45.6681
 30
0.0
 11
221.882
 21
45.0688
 31
0.0
  0
LINE
  8
0
 62
     0
 10
221.882
 20
45.0688
 30
0.0
 11
222.681
 21
45.0688
 31
0.0
  0
LINE
  8
0
 62
     0
 10
222.681
 20
45.0688
 30
0.0
 11
222.681
 21
32.2682
 31
0.0
  0
LINE
  8
0
 62
     0
 10
222.681
 20
32.2682
 30
0.0
 11
221.882
 21
32.2682
 31
0.0
  0
LINE
  8
0
 62
     0
 10
226.643
 20
70.3682
 30
0.0
 11
226.643
 21
69.7689
 31
0.0
  0
LINE
  8
0
 62
     0
 10
226.643
 20
69.7689
 30
0.0
 11
212.644
 21
69.7689
 31
0.0
  0
LINE
  8
0
 62
     0
 10
212.644
 20
69.7689
 30
0.0
 11
212.644
 21
70.3682
 31
0.0
  0
LINE
  8
0
 62
     0
 10
212.644
 20
70.3682
 30
0.0
 11
211.844
 21
70.3682
 31
0.0
  0
LINE
  8
0
 62
     0
 10
211.844
 20
70.3682
 30
0.0
 11
211.844
 21
83.1688
 31
0.0
  0
LINE
  8
0
 62
     0
 10
211.844
 20
83.1688
 30
0.0
 11
212.644
 21
83.1688
 31
0.0
  0
LINE
  8
0
 62
     0
 10
212.644
 20
83.1688
 30
0.0
 11
212.644
 21
83.7681
 31
0.0
  0
LINE
  8
0
 62
     0
 10
212.644
 20
83.7681
 30
0.0
 11
226.643
 21
83.7681
 31
0.0
  0
LINE
  8
0
 62
     0
 10
226.643
 20
83.7681
 30
0.0
 11
226.643
 21
83.1688
 31
0.0
  0
LINE
  8
0
 62
     0
 10
226.643
 20
83.1688
 30
0.0
 11
227.444
 21
83.1688
 31
0.0
  0
LINE
  8
0
 62
     0
 10
227.444
 20
83.1688
 30
0.0
 11
227.444
 21
70.3682
 31
0.0
  0
LINE
  8
0
 62
     0
 10
227.444
 20
70.3682
 30
0.0
 11
226.643
 21
70.3682
 31
0.0
  0
LINE
  8
0
 62
     0
 10
231.407
 20
51.3182
 30
0.0
 11
231.407
 21
50.7189
 31
0.0
  0
LINE
  8
0
 62
     0
 10
231.407
 20
50.7189
 30
0.0
 11
217.406
 21
50.7189
 31
0.0
  0
LINE
  8
0
 62
     0
 10
217.406
 20
50.7189
 30
0.0
 11
217.406
 21
51.3182
 31
0.0
  0
LINE
  8
0
 62
     0
 10
217.406
 20
51.3182
 30
0.0
 11
216.607
 21
51.3182
 31
0.0
  0
LINE
  8
0
 62
     0
 10
216.607
 20
51.3182
 30
0.0
 11
216.607
 21
64.1188
 31
0.0
  0
LINE
  8
0
 62
     0
 10
216.607
 20
64.1188
 30
0.0
 11
217.406
 21
64.1188
 31
0.0
  0
LINE
  8
0
 62
     0
 10
217.406
 20
64.1188
 30
0.0
 11
217.406
 21
64.7181
 31
0.0
  0
LINE
  8
0
 62
     0
 10
217.406
 20
64.7181
 30
0.0
 11
231.407
 21
64.7181
 31
0.0
  0
LINE
  8
0
 62
     0
 10
231.407
 20
64.7181
 30
0.0
 11
231.407
 21
64.1188
 31
0.0
  0
LINE
  8
0
 62
     0
 10
231.407
 20
64.1188
 30
0.0
 11
232.206
 21
64.1188
 31
0.0
  0
LINE
  8
0
 62
     0
 10
232.206
 20
64.1188
 30
0.0
 11
232.206
 21
51.3182
 31
0.0
  0
LINE
  8
0
 62
     0
 10
232.206
 20
51.3182
 30
0.0
 11
231.407
 21
51.3182
 31
0.0
  0
LINE
  8
0
 62
     0
 10
236.168
 20
89.4182
 30
0.0
 11
236.168
 21
88.8189
 31
0.0
  0
LINE
  8
0
 62
     0
 10
236.168
 20
88.8189
 30
0.0
 11
222.169
 21
88.8189
 31
0.0
  0
LINE
  8
0
 62
     0
 10
222.169
 20
88.8189
 30
0.0
 11
222.169
 21
89.4182
 31
0.0
  0
LINE
  8
0
 62
     0
 10
222.169
 20
89.4182
 30
0.0
 11
221.369
 21
89.4182
 31
0.0
  0
LINE
  8
0
 62
     0
 10
221.369
 20
89.4182
 30
0.0
 11
221.369
 21
102.219
 31
0.0
  0
LINE
  8
0
 62
     0
 10
221.369
 20
102.219
 30
0.0
 11
222.169
 21
102.219
 31
0.0
  0
LINE
  8
0
 62
     0
 10
222.169
 20
102.219
 30
0.0
 11
222.169
 21
102.818
 31
0.0
  0
LINE
  8
0
 62
     0
 10
222.169
 20
102.818
 30
0.0
 11
236.168
 21
102.818
 31
0.0
  0
LINE
  8
0
 62
     0
 10
236.168
 20
102.818
 30
0.0
 11
236.168
 21
102.219
 31
0.0
  0
LINE
  8
0
 62
     0
 10
236.168
 20
102.219
 30
0.0
 11
236.969
 21
102.219
 31
0.0
  0
LINE
  8
0
 62
     0
 10
236.969
 20
102.219
 30
0.0
 11
236.969
 21
89.4182
 31
0.0
  0
LINE
  8
0
 62
     0
 10
236.969
 20
89.4182
 30
0.0
 11
236.168
 21
89.4182
 31
0.0
  0
LINE
  8
0
 62
     0
 10
240.932
 20
32.2682
 30
0.0
 11
240.932
 21
31.6687
 31
0.0
  0
LINE
  8
0
 62
     0
 10
240.932
 20
31.6687
 30
0.0
 11
226.931
 21
31.6687
 31
0.0
  0
LINE
  8
0
 62
     0
 10
226.931
 20
31.6687
 30
0.0
 11
226.931
 21
32.2682
 31
0.0
  0
LINE
  8
0
 62
     0
 10
226.931
 20
32.2682
 30
0.0
 11
226.132
 21
32.2682
 31
0.0
  0
LINE
  8
0
 62
     0
 10
226.132
 20
32.2682
 30
0.0
 11
226.132
 21
45.0688
 31
0.0
  0
LINE
  8
0
 62
     0
 10
226.132
 20
45.0688
 30
0.0
 11
226.931
 21
45.0688
 31
0.0
  0
LINE
  8
0
 62
     0
 10
226.931
 20
45.0688
 30
0.0
 11
226.931
 21
45.6681
 31
0.0
  0
LINE
  8
0
 62
     0
 10
226.931
 20
45.6681
 30
0.0
 11
240.932
 21
45.6681
 31
0.0
  0
LINE
  8
0
 62
     0
 10
240.932
 20
45.6681
 30
0.0
 11
240.932
 21
45.0688
 31
0.0
  0
LINE
  8
0
 62
     0
 10
240.932
 20
45.0688
 30
0.0
 11
241.731
 21
45.0688
 31
0.0
  0
LINE
  8
0
 62
     0
 10
241.731
 20
45.0688
 30
0.0
 11
241.731
 21
32.2682
 31
0.0
  0
LINE
  8
0
 62
     0
 10
241.731
 20
32.2682
 30
0.0
 11
240.932
 21
32.2682
 31
0.0
  0
LINE
  8
0
 62
     0
 10
243.313
 20
13.2182
 30
0.0
 11
243.313
 21
12.6187
 31
0.0
  0
LINE
  8
0
 62
     0
 10
243.313
 20
12.6187
 30
0.0
 11
229.313
 21
12.6187
 31
0.0
  0
LINE
  8
0
 62
     0
 10
229.313
 20
12.6187
 30
0.0
 11
229.313
 21
13.2182
 31
0.0
  0
LINE
  8
0
 62
     0
 10
229.313
 20
13.2182
 30
0.0
 11
228.513
 21
13.2182
 31
0.0
  0
LINE
  8
0
 62
     0
 10
228.513
 20
13.2182
 30
0.0
 11
228.513
 21
26.0187
 31
0.0
  0
LINE
  8
0
 62
     0
 10
228.513
 20
26.0187
 30
0.0
 11
229.313
 21
26.0187
 31
0.0
  0
LINE
  8
0
 62
     0
 10
229.313
 20
26.0187
 30
0.0
 11
229.313
 21
26.6182
 31
0.0
  0
LINE
  8
0
 62
     0
 10
229.313
 20
26.6182
 30
0.0
 11
243.313
 21
26.6182
 31
0.0
  0
LINE
  8
0
 62
     0
 10
243.313
 20
26.6182
 30
0.0
 11
243.313
 21
26.0187
 31
0.0
  0
LINE
  8
0
 62
     0
 10
243.313
 20
26.0187
 30
0.0
 11
244.113
 21
26.0187
 31
0.0
  0
LINE
  8
0
 62
     0
 10
244.113
 20
26.0187
 30
0.0
 11
244.113
 21
13.2182
 31
0.0
  0
LINE
  8
0
 62
     0
 10
244.113
 20
13.2182
 30
0.0
 11
243.313
 21
13.2182
 31
0.0
  0
LINE
  8
0
 62
     0
 10
245.693
 20
70.3682
 30
0.0
 11
245.693
 21
69.7689
 31
0.0
  0
LINE
  8
0
 62
     0
 10
245.693
 20
69.7689
 30
0.0
 11
231.694
 21
69.7689
 31
0.0
  0
LINE
  8
0
 62
     0
 10
231.694
 20
69.7689
 30
0.0
 11
231.694
 21
70.3682
 31
0.0
  0
LINE
  8
0
 62
     0
 10
231.694
 20
70.3682
 30
0.0
 11
230.894
 21
70.3682
 31
0.0
  0
LINE
  8
0
 62
     0
 10
230.894
 20
70.3682
 30
0.0
 11
230.894
 21
83.1688
 31
0.0
  0
LINE
  8
0
 62
     0
 10
230.894
 20
83.1688
 30
0.0
 11
231.694
 21
83.1688
 31
0.0
  0
LINE
  8
0
 62
     0
 10
231.694
 20
83.1688
 30
0.0
 11
231.694
 21
83.7681
 31
0.0
  0
LINE
  8
0
 62
     0
 10
231.694
 20
83.7681
 30
0.0
 11
245.693
 21
83.7681
 31
0.0
  0
LINE
  8
0
 62
     0
 10
245.693
 20
83.7681
 30
0.0
 11
245.693
 21
83.1688
 31
0.0
  0
LINE
  8
0
 62
     0
 10
245.693
 20
83.1688
 30
0.0
 11
246.494
 21
83.1688
 31
0.0
  0
LINE
  8
0
 62
     0
 10
246.494
 20
83.1688
 30
0.0
 11
246.494
 21
70.3682
 31
0.0
  0
LINE
  8
0
 62
     0
 10
246.494
 20
70.3682
 30
0.0
 11
245.693
 21
70.3682
 31
0.0
  0
LINE
  8
0
 62
     0
 10
250.457
 20
51.3182
 30
0.0
 11
250.457
 21
50.7189
 31
0.0
  0
LINE
  8
0
 62
     0
 10
250.457
 20
50.7189
 30
0.0
 11
236.456
 21
50.7189
 31
0.0
  0
LINE
  8
0
 62
     0
 10
236.456
 20
50.7189
 30
0.0
 11
236.456
 21
51.3182
 31
0.0
  0
LINE
  8
0
 62
     0
 10
236.456
 20
51.3182
 30
0.0
 11
235.657
 21
51.3182
 31
0.0
  0
LINE
  8
0
 62
     0
 10
235.657
 20
51.3182
 30
0.0
 11
235.657
 21
64.1188
 31
0.0
  0
LINE
  8
0
 62
     0
 10
235.657
 20
64.1188
 30
0.0
 11
236.456
 21
64.1188
 31
0.0
  0
LINE
  8
0
 62
     0
 10
236.456
 20
64.1188
 30
0.0
 11
236.456
 21
64.7181
 31
0.0
  0
LINE
  8
0
 62
     0
 10
236.456
 20
64.7181
 30
0.0
 11
250.457
 21
64.7181
 31
0.0
  0
LINE
  8
0
 62
     0
 10
250.457
 20
64.7181
 30
0.0
 11
250.457
 21
64.1188
 31
0.0
  0
LINE
  8
0
 62
     0
 10
250.457
 20
64.1188
 30
0.0
 11
251.256
 21
64.1188
 31
0.0
  0
LINE
  8
0
 62
     0
 10
251.256
 20
64.1188
 30
0.0
 11
251.256
 21
51.3182
 31
0.0
  0
LINE
  8
0
 62
     0
 10
251.256
 20
51.3182
 30
0.0
 11
250.457
 21
51.3182
 31
0.0
  0
LINE
  8
0
 62
     0
 10
255.218
 20
89.4182
 30
0.0
 11
255.218
 21
88.8189
 31
0.0
  0
LINE
  8
0
 62
     0
 10
255.218
 20
88.8189
 30
0.0
 11
241.219
 21
88.8189
 31
0.0
  0
LINE
  8
0
 62
     0
 10
241.219
 20
88.8189
 30
0.0
 11
241.219
 21
89.4182
 31
0.0
  0
LINE
  8
0
 62
     0
 10
241.219
 20
89.4182
 30
0.0
 11
240.419
 21
89.4182
 31
0.0
  0
LINE
  8
0
 62
     0
 10
240.419
 20
89.4182
 30
0.0
 11
240.419
 21
102.219
 31
0.0
  0
LINE
  8
0
 62
     0
 10
240.419
 20
102.219
 30
0.0
 11
241.219
 21
102.219
 31
0.0
  0
LINE
  8
0
 62
     0
 10
241.219
 20
102.219
 30
0.0
 11
241.219
 21
102.818
 31
0.0
  0
LINE
  8
0
 62
     0
 10
241.219
 20
102.818
 30
0.0
 11
255.218
 21
102.818
 31
0.0
  0
LINE
  8
0
 62
     0
 10
255.218
 20
102.818
 30
0.0
 11
255.218
 21
102.219
 31
0.0
  0
LINE
  8
0
 62
     0
 10
255.218
 20
102.219
 30
0.0
 11
256.019
 21
102.219
 31
0.0
  0
LINE
  8
0
 62
     0
 10
256.019
 20
102.219
 30
0.0
 11
256.019
 21
89.4182
 31
0.0
  0
LINE
  8
0
 62
     0
 10
256.019
 20
89.4182
 30
0.0
 11
255.218
 21
89.4182
 31
0.0
  0
LINE
  8
0
 62
     0
 10
264.743
 20
70.3682
 30
0.0
 11
264.743
 21
69.7689
 31
0.0
  0
LINE
  8
0
 62
     0
 10
264.743
 20
69.7689
 30
0.0
 11
250.744
 21
69.7689
 31
0.0
  0
LINE
  8
0
 62
     0
 10
250.744
 20
69.7689
 30
0.0
 11
250.744
 21
70.3682
 31
0.0
  0
LINE
  8
0
 62
     0
 10
250.744
 20
70.3682
 30
0.0
 11
249.944
 21
70.3682
 31
0.0
  0
LINE
  8
0
 62
     0
 10
249.944
 20
70.3682
 30
0.0
 11
249.944
 21
83.1688
 31
0.0
  0
LINE
  8
0
 62
     0
 10
249.944
 20
83.1688
 30
0.0
 11
250.744
 21
83.1688
 31
0.0
  0
LINE
  8
0
 62
     0
 10
250.744
 20
83.1688
 30
0.0
 11
250.744
 21
83.7681
 31
0.0
  0
LINE
  8
0
 62
     0
 10
250.744
 20
83.7681
 30
0.0
 11
264.743
 21
83.7681
 31
0.0
  0
LINE
  8
0
 62
     0
 10
264.743
 20
83.7681
 30
0.0
 11
264.743
 21
83.1688
 31
0.0
  0
LINE
  8
0
 62
     0
 10
264.743
 20
83.1688
 30
0.0
 11
265.544
 21
83.1688
 31
0.0
  0
LINE
  8
0
 62
     0
 10
265.544
 20
83.1688
 30
0.0
 11
265.544
 21
70.3682
 31
0.0
  0
LINE
  8
0
 62
     0
 10
265.544
 20
70.3682
 30
0.0
 11
264.743
 21
70.3682
 31
0.0
  0
LINE
  8
0
 62
     0
 10
267.124
 20
13.2182
 30
0.0
 11
267.124
 21
12.6187
 31
0.0
  0
LINE
  8
0
 62
     0
 10
267.124
 20
12.6187
 30
0.0
 11
253.125
 21
12.6187
 31
0.0
  0
LINE
  8
0
 62
     0
 10
253.125
 20
12.6187
 30
0.0
 11
253.125
 21
13.2182
 31
0.0
  0
LINE
  8
0
 62
     0
 10
253.125
 20
13.2182
 30
0.0
 11
252.324
 21
13.2182
 31
0.0
  0
LINE
  8
0
 62
     0
 10
252.324
 20
13.2182
 30
0.0
 11
252.324
 21
26.0187
 31
0.0
  0
LINE
  8
0
 62
     0
 10
252.324
 20
26.0187
 30
0.0
 11
253.125
 21
26.0187
 31
0.0
  0
LINE
  8
0
 62
     0
 10
253.125
 20
26.0187
 30
0.0
 11
253.125
 21
26.6182
 31
0.0
  0
LINE
  8
0
 62
     0
 10
253.125
 20
26.6182
 30
0.0
 11
267.124
 21
26.6182
 31
0.0
  0
LINE
  8
0
 62
     0
 10
267.124
 20
26.6182
 30
0.0
 11
267.124
 21
26.0187
 31
0.0
  0
LINE
  8
0
 62
     0
 10
267.124
 20
26.0187
 30
0.0
 11
267.925
 21
26.0187
 31
0.0
  0
LINE
  8
0
 62
     0
 10
267.925
 20
26.0187
 30
0.0
 11
267.925
 21
13.2182
 31
0.0
  0
LINE
  8
0
 62
     0
 10
267.925
 20
13.2182
 30
0.0
 11
267.124
 21
13.2182
 31
0.0
  0
LINE
  8
0
 62
     0
 10
284.875
 20
38.1688
 30
0.0
 11
284.875
 21
31.8975
 31
0.0
  0
LINE
  8
0
 62
     0
 10
284.875
 20
31.8975
 30
0.0
 11
283.25
 21
31.8975
 31
0.0
  0
LINE
  8
0
 62
     0
 10
283.25
 20
31.8975
 30
0.0
 11
283.25
 21
30.9177
 31
0.0
  0
LINE
  8
0
 62
     0
 10
283.25
 20
30.9177
 30
0.0
 11
279.95
 21
30.9177
 31
0.0
  0
LINE
  8
0
 62
     0
 10
279.95
 20
30.9177
 30
0.0
 11
279.95
 21
31.8975
 31
0.0
  0
LINE
  8
0
 62
     0
 10
279.95
 20
31.8975
 30
0.0
 11
278.225
 21
31.8975
 31
0.0
  0
LINE
  8
0
 62
     0
 10
278.225
 20
31.8975
 30
0.0
 11
278.225
 21
32.6981
 31
0.0
  0
LINE
  8
0
 62
     0
 10
278.225
 20
32.6981
 30
0.0
 11
277.45
 21
32.6981
 31
0.0
  0
LINE
  8
0
 62
     0
 10
277.45
 20
32.6981
 30
0.0
 11
277.45
 21
32.2682
 31
0.0
  0
LINE
  8
0
 62
     0
 10
277.45
 20
32.2682
 30
0.0
 11
276.649
 21
32.2682
 31
0.0
  0
LINE
  8
0
 62
     0
 10
276.649
 20
32.2682
 30
0.0
 11
276.649
 21
31.6687
 31
0.0
  0
LINE
  8
0
 62
     0
 10
276.649
 20
31.6687
 30
0.0
 11
262.65
 21
31.6687
 31
0.0
  0
LINE
  8
0
 62
     0
 10
262.65
 20
31.6687
 30
0.0
 11
262.65
 21
32.2682
 31
0.0
  0
LINE
  8
0
 62
     0
 10
262.65
 20
32.2682
 30
0.0
 11
261.849
 21
32.2682
 31
0.0
  0
LINE
  8
0
 62
     0
 10
261.849
 20
32.2682
 30
0.0
 11
261.849
 21
32.6981
 31
0.0
  0
LINE
  8
0
 62
     0
 10
261.849
 20
32.6981
 30
0.0
 11
261.075
 21
32.6981
 31
0.0
  0
LINE
  8
0
 62
     0
 10
261.075
 20
32.6981
 30
0.0
 11
261.075
 21
31.8975
 31
0.0
  0
LINE
  8
0
 62
     0
 10
261.075
 20
31.8975
 30
0.0
 11
259.35
 21
31.8975
 31
0.0
  0
LINE
  8
0
 62
     0
 10
259.35
 20
31.8975
 30
0.0
 11
259.35
 21
30.9177
 31
0.0
  0
LINE
  8
0
 62
     0
 10
259.35
 20
30.9177
 30
0.0
 11
256.049
 21
30.9177
 31
0.0
  0
LINE
  8
0
 62
     0
 10
256.049
 20
30.9177
 30
0.0
 11
256.049
 21
31.8975
 31
0.0
  0
LINE
  8
0
 62
     0
 10
256.049
 20
31.8975
 30
0.0
 11
254.424
 21
31.8975
 31
0.0
  0
LINE
  8
0
 62
     0
 10
254.424
 20
31.8975
 30
0.0
 11
254.424
 21
38.1688
 31
0.0
  0
LINE
  8
0
 62
     0
 10
254.424
 20
38.1688
 30
0.0
 11
253.55
 21
38.1688
 31
0.0
  0
LINE
  8
0
 62
     0
 10
253.55
 20
38.1688
 30
0.0
 11
253.55
 21
40.9677
 31
0.0
  0
LINE
  8
0
 62
     0
 10
253.55
 20
40.9677
 30
0.0
 11
254.424
 21
40.9677
 31
0.0
  0
LINE
  8
0
 62
     0
 10
254.424
 20
40.9677
 30
0.0
 11
254.424
 21
44.1978
 31
0.0
  0
LINE
  8
0
 62
     0
 10
254.424
 20
44.1978
 30
0.0
 11
256.049
 21
44.1978
 31
0.0
  0
LINE
  8
0
 62
     0
 10
256.049
 20
44.1978
 30
0.0
 11
256.049
 21
45.1185
 31
0.0
  0
LINE
  8
0
 62
     0
 10
256.049
 20
45.1185
 30
0.0
 11
259.35
 21
45.1185
 31
0.0
  0
LINE
  8
0
 62
     0
 10
259.35
 20
45.1185
 30
0.0
 11
259.35
 21
44.1978
 31
0.0
  0
LINE
  8
0
 62
     0
 10
259.35
 20
44.1978
 30
0.0
 11
261.075
 21
44.1978
 31
0.0
  0
LINE
  8
0
 62
     0
 10
261.075
 20
44.1978
 30
0.0
 11
261.075
 21
43.3987
 31
0.0
  0
LINE
  8
0
 62
     0
 10
261.075
 20
43.3987
 30
0.0
 11
261.849
 21
43.3987
 31
0.0
  0
LINE
  8
0
 62
     0
 10
261.849
 20
43.3987
 30
0.0
 11
261.849
 21
45.0688
 31
0.0
  0
LINE
  8
0
 62
     0
 10
261.849
 20
45.0688
 30
0.0
 11
262.65
 21
45.0688
 31
0.0
  0
LINE
  8
0
 62
     0
 10
262.65
 20
45.0688
 30
0.0
 11
262.65
 21
45.6681
 31
0.0
  0
LINE
  8
0
 62
     0
 10
262.65
 20
45.6681
 30
0.0
 11
276.649
 21
45.6681
 31
0.0
  0
LINE
  8
0
 62
     0
 10
276.649
 20
45.6681
 30
0.0
 11
276.649
 21
45.0688
 31
0.0
  0
LINE
  8
0
 62
     0
 10
276.649
 20
45.0688
 30
0.0
 11
277.45
 21
45.0688
 31
0.0
  0
LINE
  8
0
 62
     0
 10
277.45
 20
45.0688
 30
0.0
 11
277.45
 21
43.3987
 31
0.0
  0
LINE
  8
0
 62
     0
 10
277.45
 20
43.3987
 30
0.0
 11
278.225
 21
43.3987
 31
0.0
  0
LINE
  8
0
 62
     0
 10
278.225
 20
43.3987
 30
0.0
 11
278.225
 21
44.1978
 31
0.0
  0
LINE
  8
0
 62
     0
 10
278.225
 20
44.1978
 30
0.0
 11
279.95
 21
44.1978
 31
0.0
  0
LINE
  8
0
 62
     0
 10
279.95
 20
44.1978
 30
0.0
 11
279.95
 21
45.1185
 31
0.0
  0
LINE
  8
0
 62
     0
 10
279.95
 20
45.1185
 30
0.0
 11
283.25
 21
45.1185
 31
0.0
  0
LINE
  8
0
 62
     0
 10
283.25
 20
45.1185
 30
0.0
 11
283.25
 21
44.1978
 31
0.0
  0
LINE
  8
0
 62
     0
 10
283.25
 20
44.1978
 30
0.0
 11
284.875
 21
44.1978
 31
0.0
  0
LINE
  8
0
 62
     0
 10
284.875
 20
44.1978
 30
0.0
 11
284.875
 21
40.9677
 31
0.0
  0
LINE
  8
0
 62
     0
 10
284.875
 20
40.9677
 30
0.0
 11
285.75
 21
40.9677
 31
0.0
  0
LINE
  8
0
 62
     0
 10
285.75
 20
40.9677
 30
0.0
 11
285.75
 21
38.1688
 31
0.0
  0
LINE
  8
0
 62
     0
 10
285.75
 20
38.1688
 30
0.0
 11
284.875
 21
38.1688
 31
0.0
  0
LINE
  8
0
 62
     0
 10
288.557
 20
70.3682
 30
0.0
 11
288.557
 21
69.7689
 31
0.0
  0
LINE
  8
0
 62
     0
 10
288.557
 20
69.7689
 30
0.0
 11
274.556
 21
69.7689
 31
0.0
  0
LINE
  8
0
 62
     0
 10
274.556
 20
69.7689
 30
0.0
 11
274.556
 21
70.3682
 31
0.0
  0
LINE
  8
0
 62
     0
 10
274.556
 20
70.3682
 30
0.0
 11
273.757
 21
70.3682
 31
0.0
  0
LINE
  8
0
 62
     0
 10
273.757
 20
70.3682
 30
0.0
 11
273.757
 21
83.1688
 31
0.0
  0
LINE
  8
0
 62
     0
 10
273.757
 20
83.1688
 30
0.0
 11
274.556
 21
83.1688
 31
0.0
  0
LINE
  8
0
 62
     0
 10
274.556
 20
83.1688
 30
0.0
 11
274.556
 21
83.7681
 31
0.0
  0
LINE
  8
0
 62
     0
 10
274.556
 20
83.7681
 30
0.0
 11
288.557
 21
83.7681
 31
0.0
  0
LINE
  8
0
 62
     0
 10
288.557
 20
83.7681
 30
0.0
 11
288.557
 21
83.1688
 31
0.0
  0
LINE
  8
0
 62
     0
 10
288.557
 20
83.1688
 30
0.0
 11
289.356
 21
83.1688
 31
0.0
  0
LINE
  8
0
 62
     0
 10
289.356
 20
83.1688
 30
0.0
 11
289.356
 21
70.3682
 31
0.0
  0
LINE
  8
0
 62
     0
 10
289.356
 20
70.3682
 30
0.0
 11
288.557
 21
70.3682
 31
0.0
  0
LINE
  8
0
 62
     0
 10
289.638
 20
57.2188
 30
0.0
 11
289.638
 21
50.9475
 31
0.0
  0
LINE
  8
0
 62
     0
 10
289.638
 20
50.9475
 30
0.0
 11
288.013
 21
50.9475
 31
0.0
  0
LINE
  8
0
 62
     0
 10
288.013
 20
50.9475
 30
0.0
 11
288.013
 21
49.9678
 31
0.0
  0
LINE
  8
0
 62
     0
 10
288.013
 20
49.9678
 30
0.0
 11
284.712
 21
49.9678
 31
0.0
  0
LINE
  8
0
 62
     0
 10
284.712
 20
49.9678
 30
0.0
 11
284.712
 21
50.9475
 31
0.0
  0
LINE
  8
0
 62
     0
 10
284.712
 20
50.9475
 30
0.0
 11
282.988
 21
50.9475
 31
0.0
  0
LINE
  8
0
 62
     0
 10
282.988
 20
50.9475
 30
0.0
 11
282.988
 21
51.7483
 31
0.0
  0
LINE
  8
0
 62
     0
 10
282.988
 20
51.7483
 30
0.0
 11
282.213
 21
51.7483
 31
0.0
  0
LINE
  8
0
 62
     0
 10
282.213
 20
51.7483
 30
0.0
 11
282.213
 21
51.3182
 31
0.0
  0
LINE
  8
0
 62
     0
 10
282.213
 20
51.3182
 30
0.0
 11
281.413
 21
51.3182
 31
0.0
  0
LINE
  8
0
 62
     0
 10
281.413
 20
51.3182
 30
0.0
 11
281.413
 21
50.7189
 31
0.0
  0
LINE
  8
0
 62
     0
 10
281.413
 20
50.7189
 30
0.0
 11
267.413
 21
50.7189
 31
0.0
  0
LINE
  8
0
 62
     0
 10
267.413
 20
50.7189
 30
0.0
 11
267.413
 21
51.3182
 31
0.0
  0
LINE
  8
0
 62
     0
 10
267.413
 20
51.3182
 30
0.0
 11
266.613
 21
51.3182
 31
0.0
  0
LINE
  8
0
 62
     0
 10
266.613
 20
51.3182
 30
0.0
 11
266.613
 21
51.7483
 31
0.0
  0
LINE
  8
0
 62
     0
 10
266.613
 20
51.7483
 30
0.0
 11
265.837
 21
51.7483
 31
0.0
  0
LINE
  8
0
 62
     0
 10
265.837
 20
51.7483
 30
0.0
 11
265.837
 21
50.9475
 31
0.0
  0
LINE
  8
0
 62
     0
 10
265.837
 20
50.9475
 30
0.0
 11
264.113
 21
50.9475
 31
0.0
  0
LINE
  8
0
 62
     0
 10
264.113
 20
50.9475
 30
0.0
 11
264.113
 21
49.9678
 31
0.0
  0
LINE
  8
0
 62
     0
 10
264.113
 20
49.9678
 30
0.0
 11
260.813
 21
49.9678
 31
0.0
  0
LINE
  8
0
 62
     0
 10
260.813
 20
49.9678
 30
0.0
 11
260.813
 21
50.9475
 31
0.0
  0
LINE
  8
0
 62
     0
 10
260.813
 20
50.9475
 30
0.0
 11
259.188
 21
50.9475
 31
0.0
  0
LINE
  8
0
 62
     0
 10
259.188
 20
50.9475
 30
0.0
 11
259.188
 21
57.2188
 31
0.0
  0
LINE
  8
0
 62
     0
 10
259.188
 20
57.2188
 30
0.0
 11
258.313
 21
57.2188
 31
0.0
  0
LINE
  8
0
 62
     0
 10
258.313
 20
57.2188
 30
0.0
 11
258.313
 21
60.0177
 31
0.0
  0
LINE
  8
0
 62
     0
 10
258.313
 20
60.0177
 30
0.0
 11
259.188
 21
60.0177
 31
0.0
  0
LINE
  8
0
 62
     0
 10
259.188
 20
60.0177
 30
0.0
 11
259.188
 21
63.2478
 31
0.0
  0
LINE
  8
0
 62
     0
 10
259.188
 20
63.2478
 30
0.0
 11
260.813
 21
63.2478
 31
0.0
  0
LINE
  8
0
 62
     0
 10
260.813
 20
63.2478
 30
0.0
 11
260.813
 21
64.1685
 31
0.0
  0
LINE
  8
0
 62
     0
 10
260.813
 20
64.1685
 30
0.0
 11
264.113
 21
64.1685
 31
0.0
  0
LINE
  8
0
 62
     0
 10
264.113
 20
64.1685
 30
0.0
 11
264.113
 21
63.2478
 31
0.0
  0
LINE
  8
0
 62
     0
 10
264.113
 20
63.2478
 30
0.0
 11
265.837
 21
63.2478
 31
0.0
  0
LINE
  8
0
 62
     0
 10
265.837
 20
63.2478
 30
0.0
 11
265.837
 21
62.4487
 31
0.0
  0
LINE
  8
0
 62
     0
 10
265.837
 20
62.4487
 30
0.0
 11
266.613
 21
62.4487
 31
0.0
  0
LINE
  8
0
 62
     0
 10
266.613
 20
62.4487
 30
0.0
 11
266.613
 21
64.1188
 31
0.0
  0
LINE
  8
0
 62
     0
 10
266.613
 20
64.1188
 30
0.0
 11
267.413
 21
64.1188
 31
0.0
  0
LINE
  8
0
 62
     0
 10
267.413
 20
64.1188
 30
0.0
 11
267.413
 21
64.7181
 31
0.0
  0
LINE
  8
0
 62
     0
 10
267.413
 20
64.7181
 30
0.0
 11
281.413
 21
64.7181
 31
0.0
  0
LINE
  8
0
 62
     0
 10
281.413
 20
64.7181
 30
0.0
 11
281.413
 21
64.1188
 31
0.0
  0
LINE
  8
0
 62
     0
 10
281.413
 20
64.1188
 30
0.0
 11
282.213
 21
64.1188
 31
0.0
  0
LINE
  8
0
 62
     0
 10
282.213
 20
64.1188
 30
0.0
 11
282.213
 21
62.4487
 31
0.0
  0
LINE
  8
0
 62
     0
 10
282.213
 20
62.4487
 30
0.0
 11
282.988
 21
62.4487
 31
0.0
  0
LINE
  8
0
 62
     0
 10
282.988
 20
62.4487
 30
0.0
 11
282.988
 21
63.2478
 31
0.0
  0
LINE
  8
0
 62
     0
 10
282.988
 20
63.2478
 30
0.0
 11
284.712
 21
63.2478
 31
0.0
  0
LINE
  8
0
 62
     0
 10
284.712
 20
63.2478
 30
0.0
 11
284.712
 21
64.1685
 31
0.0
  0
LINE
  8
0
 62
     0
 10
284.712
 20
64.1685
 30
0.0
 11
288.013
 21
64.1685
 31
0.0
  0
LINE
  8
0
 62
     0
 10
288.013
 20
64.1685
 30
0.0
 11
288.013
 21
63.2478
 31
0.0
  0
LINE
  8
0
 62
     0
 10
288.013
 20
63.2478
 30
0.0
 11
289.638
 21
63.2478
 31
0.0
  0
LINE
  8
0
 62
     0
 10
289.638
 20
63.2478
 30
0.0
 11
289.638
 21
60.0177
 31
0.0
  0
LINE
  8
0
 62
     0
 10
289.638
 20
60.0177
 30
0.0
 11
290.513
 21
60.0177
 31
0.0
  0
LINE
  8
0
 62
     0
 10
290.513
 20
60.0177
 30
0.0
 11
290.513
 21
57.2188
 31
0.0
  0
LINE
  8
0
 62
     0
 10
290.513
 20
57.2188
 30
0.0
 11
289.638
 21
57.2188
 31
0.0
  0
LINE
  8
0
 62
     0
 10
292.019
 20
95.3188
 30
0.0
 11
292.019
 21
89.0475
 31
0.0
  0
LINE
  8
0
 62
     0
 10
292.019
 20
89.0475
 30
0.0
 11
290.394
 21
89.0475
 31
0.0
  0
LINE
  8
0
 62
     0
 10
290.394
 20
89.0475
 30
0.0
 11
290.394
 21
88.0678
 31
0.0
  0
LINE
  8
0
 62
     0
 10
290.394
 20
88.0678
 30
0.0
 11
287.094
 21
88.0678
 31
0.0
  0
LINE
  8
0
 62
     0
 10
287.094
 20
88.0678
 30
0.0
 11
287.094
 21
89.0475
 31
0.0
  0
LINE
  8
0
 62
     0
 10
287.094
 20
89.0475
 30
0.0
 11
285.368
 21
89.0475
 31
0.0
  0
LINE
  8
0
 62
     0
 10
285.368
 20
89.0475
 30
0.0
 11
285.368
 21
89.8483
 31
0.0
  0
LINE
  8
0
 62
     0
 10
285.368
 20
89.8483
 30
0.0
 11
284.594
 21
89.8483
 31
0.0
  0
LINE
  8
0
 62
     0
 10
284.594
 20
89.8483
 30
0.0
 11
284.594
 21
89.4182
 31
0.0
  0
LINE
  8
0
 62
     0
 10
284.594
 20
89.4182
 30
0.0
 11
283.793
 21
89.4182
 31
0.0
  0
LINE
  8
0
 62
     0
 10
283.793
 20
89.4182
 30
0.0
 11
283.793
 21
88.8189
 31
0.0
  0
LINE
  8
0
 62
     0
 10
283.793
 20
88.8189
 30
0.0
 11
269.794
 21
88.8189
 31
0.0
  0
LINE
  8
0
 62
     0
 10
269.794
 20
88.8189
 30
0.0
 11
269.794
 21
89.4182
 31
0.0
  0
LINE
  8
0
 62
     0
 10
269.794
 20
89.4182
 30
0.0
 11
268.994
 21
89.4182
 31
0.0
  0
LINE
  8
0
 62
     0
 10
268.994
 20
89.4182
 30
0.0
 11
268.994
 21
89.8483
 31
0.0
  0
LINE
  8
0
 62
     0
 10
268.994
 20
89.8483
 30
0.0
 11
268.219
 21
89.8483
 31
0.0
  0
LINE
  8
0
 62
     0
 10
268.219
 20
89.8483
 30
0.0
 11
268.219
 21
89.0475
 31
0.0
  0
LINE
  8
0
 62
     0
 10
268.219
 20
89.0475
 30
0.0
 11
266.493
 21
89.0475
 31
0.0
  0
LINE
  8
0
 62
     0
 10
266.493
 20
89.0475
 30
0.0
 11
266.493
 21
88.0678
 31
0.0
  0
LINE
  8
0
 62
     0
 10
266.493
 20
88.0678
 30
0.0
 11
263.194
 21
88.0678
 31
0.0
  0
LINE
  8
0
 62
     0
 10
263.194
 20
88.0678
 30
0.0
 11
263.194
 21
89.0475
 31
0.0
  0
LINE
  8
0
 62
     0
 10
263.194
 20
89.0475
 30
0.0
 11
261.568
 21
89.0475
 31
0.0
  0
LINE
  8
0
 62
     0
 10
261.568
 20
89.0475
 30
0.0
 11
261.568
 21
95.3188
 31
0.0
  0
LINE
  8
0
 62
     0
 10
261.568
 20
95.3188
 30
0.0
 11
260.693
 21
95.3188
 31
0.0
  0
LINE
  8
0
 62
     0
 10
260.693
 20
95.3188
 30
0.0
 11
260.693
 21
98.1177
 31
0.0
  0
LINE
  8
0
 62
     0
 10
260.693
 20
98.1177
 30
0.0
 11
261.568
 21
98.1177
 31
0.0
  0
LINE
  8
0
 62
     0
 10
261.568
 20
98.1177
 30
0.0
 11
261.568
 21
101.348
 31
0.0
  0
LINE
  8
0
 62
     0
 10
261.568
 20
101.348
 30
0.0
 11
263.194
 21
101.348
 31
0.0
  0
LINE
  8
0
 62
     0
 10
263.194
 20
101.348
 30
0.0
 11
263.194
 21
102.269
 31
0.0
  0
LINE
  8
0
 62
     0
 10
263.194
 20
102.269
 30
0.0
 11
266.493
 21
102.269
 31
0.0
  0
LINE
  8
0
 62
     0
 10
266.493
 20
102.269
 30
0.0
 11
266.493
 21
101.348
 31
0.0
  0
LINE
  8
0
 62
     0
 10
266.493
 20
101.348
 30
0.0
 11
268.219
 21
101.348
 31
0.0
  0
LINE
  8
0
 62
     0
 10
268.219
 20
101.348
 30
0.0
 11
268.219
 21
100.549
 31
0.0
  0
LINE
  8
0
 62
     0
 10
268.219
 20
100.549
 30
0.0
 11
268.994
 21
100.549
 31
0.0
  0
LINE
  8
0
 62
     0
 10
268.994
 20
100.549
 30
0.0
 11
268.994
 21
102.219
 31
0.0
  0
LINE
  8
0
 62
     0
 10
268.994
 20
102.219
 30
0.0
 11
269.794
 21
102.219
 31
0.0
  0
LINE
  8
0
 62
     0
 10
269.794
 20
102.219
 30
0.0
 11
269.794
 21
102.818
 31
0.0
  0
LINE
  8
0
 62
     0
 10
269.794
 20
102.818
 30
0.0
 11
283.793
 21
102.818
 31
0.0
  0
LINE
  8
0
 62
     0
 10
283.793
 20
102.818
 30
0.0
 11
283.793
 21
102.219
 31
0.0
  0
LINE
  8
0
 62
     0
 10
283.793
 20
102.219
 30
0.0
 11
284.594
 21
102.219
 31
0.0
  0
LINE
  8
0
 62
     0
 10
284.594
 20
102.219
 30
0.0
 11
284.594
 21
100.549
 31
0.0
  0
LINE
  8
0
 62
     0
 10
284.594
 20
100.549
 30
0.0
 11
285.368
 21
100.549
 31
0.0
  0
LINE
  8
0
 62
     0
 10
285.368
 20
100.549
 30
0.0
 11
285.368
 21
101.348
 31
0.0
  0
LINE
  8
0
 62
     0
 10
285.368
 20
101.348
 30
0.0
 11
287.094
 21
101.348
 31
0.0
  0
LINE
  8
0
 62
     0
 10
287.094
 20
101.348
 30
0.0
 11
287.094
 21
102.269
 31
0.0
  0
LINE
  8
0
 62
     0
 10
287.094
 20
102.269
 30
0.0
 11
290.394
 21
102.269
 31
0.0
  0
LINE
  8
0
 62
     0
 10
290.394
 20
102.269
 30
0.0
 11
290.394
 21
101.348
 31
0.0
  0
LINE
  8
0
 62
     0
 10
290.394
 20
101.348
 30
0.0
 11
292.019
 21
101.348
 31
0.0
  0
LINE
  8
0
 62
     0
 10
292.019
 20
101.348
 30
0.0
 11
292.019
 21
98.1177
 31
0.0
  0
LINE
  8
0
 62
     0
 10
292.019
 20
98.1177
 30
0.0
 11
292.894
 21
98.1177
 31
0.0
  0
LINE
  8
0
 62
     0
 10
292.894
 20
98.1177
 30
0.0
 11
292.894
 21
95.3188
 31
0.0
  0
LINE
  8
0
 62
     0
 10
292.894
 20
95.3188
 30
0.0
 11
292.019
 21
95.3188
 31
0.0
  0
LINE
  8
0
 62
     0
 10
298.082
 20
13.2182
 30
0.0
 11
298.082
 21
12.6187
 31
0.0
  0
LINE
  8
0
 62
     0
 10
298.082
 20
12.6187
 30
0.0
 11
284.081
 21
12.6187
 31
0.0
  0
LINE
  8
0
 62
     0
 10
284.081
 20
12.6187
 30
0.0
 11
284.081
 21
13.2182
 31
0.0
  0
LINE
  8
0
 62
     0
 10
284.081
 20
13.2182
 30
0.0
 11
283.282
 21
13.2182
 31
0.0
  0
LINE
  8
0
 62
     0
 10
283.282
 20
13.2182
 30
0.0
 11
283.282
 21
26.0187
 31
0.0
  0
LINE
  8
0
 62
     0
 10
283.282
 20
26.0187
 30
0.0
 11
284.081
 21
26.0187
 31
0.0
  0
LINE
  8
0
 62
     0
 10
284.081
 20
26.0187
 30
0.0
 11
284.081
 21
26.6182
 31
0.0
  0
LINE
  8
0
 62
     0
 10
284.081
 20
26.6182
 30
0.0
 11
298.082
 21
26.6182
 31
0.0
  0
LINE
  8
0
 62
     0
 10
298.082
 20
26.6182
 30
0.0
 11
298.082
 21
26.0187
 31
0.0
  0
LINE
  8
0
 62
     0
 10
298.082
 20
26.0187
 30
0.0
 11
298.881
 21
26.0187
 31
0.0
  0
LINE
  8
0
 62
     0
 10
298.881
 20
26.0187
 30
0.0
 11
298.881
 21
13.2182
 31
0.0
  0
LINE
  8
0
 62
     0
 10
298.881
 20
13.2182
 30
0.0
 11
298.082
 21
13.2182
 31
0.0
  0
LINE
  8
0
 62
     0
 10
317.132
 20
89.4182
 30
0.0
 11
317.132
 21
88.8189
 31
0.0
  0
LINE
  8
0
 62
     0
 10
317.132
 20
88.8189
 30
0.0
 11
303.131
 21
88.8189
 31
0.0
  0
LINE
  8
0
 62
     0
 10
303.131
 20
88.8189
 30
0.0
 11
303.131
 21
89.4182
 31
0.0
  0
LINE
  8
0
 62
     0
 10
303.131
 20
89.4182
 30
0.0
 11
302.332
 21
89.4182
 31
0.0
  0
LINE
  8
0
 62
     0
 10
302.332
 20
89.4182
 30
0.0
 11
302.332
 21
102.219
 31
0.0
  0
LINE
  8
0
 62
     0
 10
302.332
 20
102.219
 30
0.0
 11
303.131
 21
102.219
 31
0.0
  0
LINE
  8
0
 62
     0
 10
303.131
 20
102.219
 30
0.0
 11
303.131
 21
102.818
 31
0.0
  0
LINE
  8
0
 62
     0
 10
303.131
 20
102.818
 30
0.0
 11
317.132
 21
102.818
 31
0.0
  0
LINE
  8
0
 62
     0
 10
317.132
 20
102.818
 30
0.0
 11
317.132
 21
102.219
 31
0.0
  0
LINE
  8
0
 62
     0
 10
317.132
 20
102.219
 30
0.0
 11
317.931
 21
102.219
 31
0.0
  0
LINE
  8
0
 62
     0
 10
317.931
 20
102.219
 30
0.0
 11
317.931
 21
89.4182
 31
0.0
  0
LINE
  8
0
 62
     0
 10
317.931
 20
89.4182
 30
0.0
 11
317.132
 21
89.4182
 31
0.0
  0
LINE
  8
0
 62
     0
 10
317.132
 20
13.2182
 30
0.0
 11
317.132
 21
12.6187
 31
0.0
  0
LINE
  8
0
 62
     0
 10
317.132
 20
12.6187
 30
0.0
 11
303.131
 21
12.6187
 31
0.0
  0
LINE
  8
0
 62
     0
 10
303.131
 20
12.6187
 30
0.0
 11
303.131
 21
13.2182
 31
0.0
  0
LINE
  8
0
 62
     0
 10
303.131
 20
13.2182
 30
0.0
 11
302.332
 21
13.2182
 31
0.0
  0
LINE
  8
0
 62
     0
 10
302.332
 20
13.2182
 30
0.0
 11
302.332
 21
26.0187
 31
0.0
  0
LINE
  8
0
 62
     0
 10
302.332
 20
26.0187
 30
0.0
 11
303.131
 21
26.0187
 31
0.0
  0
LINE
  8
0
 62
     0
 10
303.131
 20
26.0187
 30
0.0
 11
303.131
 21
26.6182
 31
0.0
  0
LINE
  8
0
 62
     0
 10
303.131
 20
26.6182
 30
0.0
 11
317.132
 21
26.6182
 31
0.0
  0
LINE
  8
0
 62
     0
 10
317.132
 20
26.6182
 30
0.0
 11
317.132
 21
26.0187
 31
0.0
  0
LINE
  8
0
 62
     0
 10
317.132
 20
26.0187
 30
0.0
 11
317.931
 21
26.0187
 31
0.0
  0
LINE
  8
0
 62
     0
 10
317.931
 20
26.0187
 30
0.0
 11
317.931
 21
13.2182
 31
0.0
  0
LINE
  8
0
 62
     0
 10
317.931
 20
13.2182
 30
0.0
 11
317.132
 21
13.2182
 31
0.0
  0
LINE
  8
0
 62
     0
 10
317.132
 20
70.3682
 30
0.0
 11
317.132
 21
69.7689
 31
0.0
  0
LINE
  8
0
 62
     0
 10
317.132
 20
69.7689
 30
0.0
 11
303.131
 21
69.7689
 31
0.0
  0
LINE
  8
0
 62
     0
 10
303.131
 20
69.7689
 30
0.0
 11
303.131
 21
70.3682
 31
0.0
  0
LINE
  8
0
 62
     0
 10
303.131
 20
70.3682
 30
0.0
 11
302.332
 21
70.3682
 31
0.0
  0
LINE
  8
0
 62
     0
 10
302.332
 20
70.3682
 30
0.0
 11
302.332
 21
83.1688
 31
0.0
  0
LINE
  8
0
 62
     0
 10
302.332
 20
83.1688
 30
0.0
 11
303.131
 21
83.1688
 31
0.0
  0
LINE
  8
0
 62
     0
 10
303.131
 20
83.1688
 30
0.0
 11
303.131
 21
83.7681
 31
0.0
  0
LINE
  8
0
 62
     0
 10
303.131
 20
83.7681
 30
0.0
 11
317.132
 21
83.7681
 31
0.0
  0
LINE
  8
0
 62
     0
 10
317.132
 20
83.7681
 30
0.0
 11
317.132
 21
83.1688
 31
0.0
  0
LINE
  8
0
 62
     0
 10
317.132
 20
83.1688
 30
0.0
 11
317.931
 21
83.1688
 31
0.0
  0
LINE
  8
0
 62
     0
 10
317.931
 20
83.1688
 30
0.0
 11
317.931
 21
70.3682
 31
0.0
  0
LINE
  8
0
 62
     0
 10
317.931
 20
70.3682
 30
0.0
 11
317.132
 21
70.3682
 31
0.0
  0
LINE
  8
0
 62
     0
 10
317.132
 20
32.2682
 30
0.0
 11
317.132
 21
31.6687
 31
0.0
  0
LINE
  8
0
 62
     0
 10
317.132
 20
31.6687
 30
0.0
 11
303.131
 21
31.6687
 31
0.0
  0
LINE
  8
0
 62
     0
 10
303.131
 20
31.6687
 30
0.0
 11
303.131
 21
32.2682
 31
0.0
  0
LINE
  8
0
 62
     0
 10
303.131
 20
32.2682
 30
0.0
 11
302.332
 21
32.2682
 31
0.0
  0
LINE
  8
0
 62
     0
 10
302.332
 20
32.2682
 30
0.0
 11
302.332
 21
45.0688
 31
0.0
  0
LINE
  8
0
 62
     0
 10
302.332
 20
45.0688
 30
0.0
 11
303.131
 21
45.0688
 31
0.0
  0
LINE
  8
0
 62
     0
 10
303.131
 20
45.0688
 30
0.0
 11
303.131
 21
45.6681
 31
0.0
  0
LINE
  8
0
 62
     0
 10
303.131
 20
45.6681
 30
0.0
 11
317.132
 21
45.6681
 31
0.0
  0
LINE
  8
0
 62
     0
 10
317.132
 20
45.6681
 30
0.0
 11
317.132
 21
45.0688
 31
0.0
  0
LINE
  8
0
 62
     0
 10
317.132
 20
45.0688
 30
0.0
 11
317.931
 21
45.0688
 31
0.0
  0
LINE
  8
0
 62
     0
 10
317.931
 20
45.0688
 30
0.0
 11
317.931
 21
32.2682
 31
0.0
  0
LINE
  8
0
 62
     0
 10
317.931
 20
32.2682
 30
0.0
 11
317.132
 21
32.2682
 31
0.0
  0
LINE
  8
0
 62
     0
 10
336.182
 20
89.4182
 30
0.0
 11
336.182
 21
88.8189
 31
0.0
  0
LINE
  8
0
 62
     0
 10
336.182
 20
88.8189
 30
0.0
 11
322.181
 21
88.8189
 31
0.0
  0
LINE
  8
0
 62
     0
 10
322.181
 20
88.8189
 30
0.0
 11
322.181
 21
89.4182
 31
0.0
  0
LINE
  8
0
 62
     0
 10
322.181
 20
89.4182
 30
0.0
 11
321.382
 21
89.4182
 31
0.0
  0
LINE
  8
0
 62
     0
 10
321.382
 20
89.4182
 30
0.0
 11
321.382
 21
102.219
 31
0.0
  0
LINE
  8
0
 62
     0
 10
321.382
 20
102.219
 30
0.0
 11
322.181
 21
102.219
 31
0.0
  0
LINE
  8
0
 62
     0
 10
322.181
 20
102.219
 30
0.0
 11
322.181
 21
102.818
 31
0.0
  0
LINE
  8
0
 62
     0
 10
322.181
 20
102.818
 30
0.0
 11
336.182
 21
102.818
 31
0.0
  0
LINE
  8
0
 62
     0
 10
336.182
 20
102.818
 30
0.0
 11
336.182
 21
102.219
 31
0.0
  0
LINE
  8
0
 62
     0
 10
336.182
 20
102.219
 30
0.0
 11
336.981
 21
102.219
 31
0.0
  0
LINE
  8
0
 62
     0
 10
336.981
 20
102.219
 30
0.0
 11
336.981
 21
89.4182
 31
0.0
  0
LINE
  8
0
 62
     0
 10
336.981
 20
89.4182
 30
0.0
 11
336.182
 21
89.4182
 31
0.0
  0
LINE
  8
0
 62
     0
 10
336.182
 20
13.2182
 30
0.0
 11
336.182
 21
12.6187
 31
0.0
  0
LINE
  8
0
 62
     0
 10
336.182
 20
12.6187
 30
0.0
 11
322.181
 21
12.6187
 31
0.0
  0
LINE
  8
0
 62
     0
 10
322.181
 20
12.6187
 30
0.0
 11
322.181
 21
13.2182
 31
0.0
  0
LINE
  8
0
 62
     0
 10
322.181
 20
13.2182
 30
0.0
 11
321.382
 21
13.2182
 31
0.0
  0
LINE
  8
0
 62
     0
 10
321.382
 20
13.2182
 30
0.0
 11
321.382
 21
26.0187
 31
0.0
  0
LINE
  8
0
 62
     0
 10
321.382
 20
26.0187
 30
0.0
 11
322.181
 21
26.0187
 31
0.0
  0
LINE
  8
0
 62
     0
 10
322.181
 20
26.0187
 30
0.0
 11
322.181
 21
26.6182
 31
0.0
  0
LINE
  8
0
 62
     0
 10
322.181
 20
26.6182
 30
0.0
 11
336.182
 21
26.6182
 31
0.0
  0
LINE
  8
0
 62
     0
 10
336.182
 20
26.6182
 30
0.0
 11
336.182
 21
26.0187
 31
0.0
  0
LINE
  8
0
 62
     0
 10
336.182
 20
26.0187
 30
0.0
 11
336.981
 21
26.0187
 31
0.0
  0
LINE
  8
0
 62
     0
 10
336.981
 20
26.0187
 30
0.0
 11
336.981
 21
13.2182
 31
0.0
  0
LINE
  8
0
 62
     0
 10
336.981
 20
13.2182
 30
0.0
 11
336.182
 21
13.2182
 31
0.0
  0
LINE
  8
0
 62
     0
 10
336.182
 20
70.3682
 30
0.0
 11
336.182
 21
69.7689
 31
0.0
  0
LINE
  8
0
 62
     0
 10
336.182
 20
69.7689
 30
0.0
 11
322.181
 21
69.7689
 31
0.0
  0
LINE
  8
0
 62
     0
 10
322.181
 20
69.7689
 30
0.0
 11
322.181
 21
70.3682
 31
0.0
  0
LINE
  8
0
 62
     0
 10
322.181
 20
70.3682
 30
0.0
 11
321.382
 21
70.3682
 31
0.0
  0
LINE
  8
0
 62
     0
 10
321.382
 20
70.3682
 30
0.0
 11
321.382
 21
83.1688
 31
0.0
  0
LINE
  8
0
 62
     0
 10
321.382
 20
83.1688
 30
0.0
 11
322.181
 21
83.1688
 31
0.0
  0
LINE
  8
0
 62
     0
 10
322.181
 20
83.1688
 30
0.0
 11
322.181
 21
83.7681
 31
0.0
  0
LINE
  8
0
 62
     0
 10
322.181
 20
83.7681
 30
0.0
 11
336.182
 21
83.7681
 31
0.0
  0
LINE
  8
0
 62
     0
 10
336.182
 20
83.7681
 30
0.0
 11
336.182
 21
83.1688
 31
0.0
  0
LINE
  8
0
 62
     0
 10
336.182
 20
83.1688
 30
0.0
 11
336.981
 21
83.1688
 31
0.0
  0
LINE
  8
0
 62
     0
 10
336.981
 20
83.1688
 30
0.0
 11
336.981
 21
70.3682
 31
0.0
  0
LINE
  8
0
 62
     0
 10
336.981
 20
70.3682
 30
0.0
 11
336.182
 21
70.3682
 31
0.0
  0
ENDSEC
  0
EOF
