  0
SECTION
  2
HEADER
  9
$ACADVER
  1
AC1009
  9
$EXTMIN
 10
0.0
 20
0.0
 30
0.0
  9
$EXTMAX
 10
1000.0
 20
1000.0
 30
0.0
  9
$FILLMODE
 70
 0
  9
$SPLFRAME
 70
 1
  0
ENDSEC
  0
SECTION
  2
TABLES
  0
TABLE
  2
LAYER
 70
1
  0
LAYER
  2
0
 70
     0
 62
     7
  6
CONTINUOUS
  0
ENDTAB
  0
ENDSEC
  0
SECTION
  2
ENTITIES
  0
LINE
  8
0
 62
     0
 10
343.706
 20
115.343
 30
0.0
 11
344.099
 21
115.328
 31
0.0
  0
LINE
  8
0
 62
     0
 10
344.099
 20
115.328
 30
0.0
 11
344.489
 21
115.282
 31
0.0
  0
LINE
  8
0
 62
     0
 10
344.489
 20
115.282
 30
0.0
 11
344.873
 21
115.207
 31
0.0
  0
LINE
  8
0
 62
     0
 10
344.873
 20
115.207
 30
0.0
 11
345.252
 21
115.098
 31
0.0
  0
LINE
  8
0
 62
     0
 10
345.252
 20
115.098
 30
0.0
 11
345.62
 21
114.961
 31
0.0
  0
LINE
  8
0
 62
     0
 10
345.62
 20
114.961
 30
0.0
 11
345.976
 21
114.797
 31
0.0
  0
LINE
  8
0
 62
     0
 10
345.976
 20
114.797
 30
0.0
 11
346.319
 21
114.607
 31
0.0
  0
LINE
  8
0
 62
     0
 10
346.319
 20
114.607
 30
0.0
 11
346.644
 21
114.388
 31
0.0
  0
LINE
  8
0
 62
     0
 10
346.644
 20
114.388
 30
0.0
 11
346.954
 21
114.146
 31
0.0
  0
LINE
  8
0
 62
     0
 10
346.954
 20
114.146
 30
0.0
 11
347.242
 21
113.88
 31
0.0
  0
LINE
  8
0
 62
     0
 10
347.242
 20
113.88
 30
0.0
 11
347.508
 21
113.592
 31
0.0
  0
LINE
  8
0
 62
     0
 10
347.508
 20
113.592
 30
0.0
 11
347.752
 21
113.283
 31
0.0
  0
LINE
  8
0
 62
     0
 10
347.752
 20
113.283
 30
0.0
 11
347.97
 21
112.955
 31
0.0
  0
LINE
  8
0
 62
     0
 10
347.97
 20
112.955
 30
0.0
 11
348.161
 21
112.613
 31
0.0
  0
LINE
  8
0
 62
     0
 10
348.161
 20
112.613
 30
0.0
 11
348.325
 21
112.256
 31
0.0
  0
LINE
  8
0
 62
     0
 10
348.325
 20
112.256
 30
0.0
 11
348.462
 21
111.888
 31
0.0
  0
LINE
  8
0
 62
     0
 10
348.462
 20
111.888
 30
0.0
 11
348.568
 21
111.51
 31
0.0
  0
LINE
  8
0
 62
     0
 10
348.568
 20
111.51
 30
0.0
 11
348.645
 21
111.125
 31
0.0
  0
LINE
  8
0
 62
     0
 10
348.645
 20
111.125
 30
0.0
 11
348.69
 21
110.735
 31
0.0
  0
LINE
  8
0
 62
     0
 10
348.69
 20
110.735
 30
0.0
 11
348.706
 21
110.344
 31
0.0
  0
LINE
  8
0
 62
     0
 10
348.706
 20
110.344
 30
0.0
 11
348.707
 21
5.09323
 31
0.0
  0
LINE
  8
0
 62
     0
 10
348.707
 20
5.09323
 30
0.0
 11
348.69
 21
4.70186
 31
0.0
  0
LINE
  8
0
 62
     0
 10
348.69
 20
4.70186
 30
0.0
 11
348.645
 21
4.31052
 31
0.0
  0
LINE
  8
0
 62
     0
 10
348.645
 20
4.31052
 30
0.0
 11
348.568
 21
3.92603
 31
0.0
  0
LINE
  8
0
 62
     0
 10
348.568
 20
3.92603
 30
0.0
 11
348.462
 21
3.54845
 31
0.0
  0
LINE
  8
0
 62
     0
 10
348.462
 20
3.54845
 30
0.0
 11
348.325
 21
3.18051
 31
0.0
  0
LINE
  8
0
 62
     0
 10
348.325
 20
3.18051
 30
0.0
 11
348.161
 21
2.8236
 31
0.0
  0
LINE
  8
0
 62
     0
 10
348.161
 20
2.8236
 30
0.0
 11
347.97
 21
2.48185
 31
0.0
  0
LINE
  8
0
 62
     0
 10
347.97
 20
2.48185
 30
0.0
 11
347.752
 21
2.15387
 31
0.0
  0
LINE
  8
0
 62
     0
 10
347.752
 20
2.15387
 30
0.0
 11
347.508
 21
1.84795
 31
0.0
  0
LINE
  8
0
 62
     0
 10
347.508
 20
1.84795
 30
0.0
 11
347.242
 21
1.55718
 31
0.0
  0
LINE
  8
0
 62
     0
 10
347.242
 20
1.55718
 30
0.0
 11
346.954
 21
1.29122
 31
0.0
  0
LINE
  8
0
 62
     0
 10
346.954
 20
1.29122
 30
0.0
 11
346.644
 21
1.04869
 31
0.0
  0
LINE
  8
0
 62
     0
 10
346.644
 20
1.04869
 30
0.0
 11
346.319
 21
0.829578
 31
0.0
  0
LINE
  8
0
 62
     0
 10
346.319
 20
0.829578
 30
0.0
 11
345.976
 21
0.63803
 31
0.0
  0
LINE
  8
0
 62
     0
 10
345.976
 20
0.63803
 30
0.0
 11
345.62
 21
0.474045
 31
0.0
  0
LINE
  8
0
 62
     0
 10
345.62
 20
0.474045
 30
0.0
 11
345.252
 21
0.337619
 31
0.0
  0
LINE
  8
0
 62
     0
 10
345.252
 20
0.337619
 30
0.0
 11
344.873
 21
0.232888
 31
0.0
  0
LINE
  8
0
 62
     0
 10
344.873
 20
0.232888
 30
0.0
 11
344.489
 21
0.157097
 31
0.0
  0
LINE
  8
0
 62
     0
 10
344.489
 20
0.157097
 30
0.0
 11
344.099
 21
0.107487
 31
0.0
  0
LINE
  8
0
 62
     0
 10
344.099
 20
0.107487
 30
0.0
 11
343.706
 21
0.0937066
 31
0.0
  0
LINE
  8
0
 62
     0
 10
343.706
 20
0.0937066
 30
0.0
 11
5.09323
 21
0.0937066
 31
0.0
  0
LINE
  8
0
 62
     0
 10
5.09323
 20
0.0937066
 30
0.0
 11
4.70186
 21
0.107487
 31
0.0
  0
LINE
  8
0
 62
     0
 10
4.70186
 20
0.107487
 30
0.0
 11
4.3119
 21
0.157097
 31
0.0
  0
LINE
  8
0
 62
     0
 10
4.3119
 20
0.157097
 30
0.0
 11
3.9274
 21
0.232888
 31
0.0
  0
LINE
  8
0
 62
     0
 10
3.9274
 20
0.232888
 30
0.0
 11
3.54845
 21
0.337619
 31
0.0
  0
LINE
  8
0
 62
     0
 10
3.54845
 20
0.337619
 30
0.0
 11
3.18051
 21
0.474045
 31
0.0
  0
LINE
  8
0
 62
     0
 10
3.18051
 20
0.474045
 30
0.0
 11
2.8236
 21
0.63803
 31
0.0
  0
LINE
  8
0
 62
     0
 10
2.8236
 20
0.63803
 30
0.0
 11
2.48185
 21
0.829578
 31
0.0
  0
LINE
  8
0
 62
     0
 10
2.48185
 20
0.829578
 30
0.0
 11
2.15525
 21
1.04869
 31
0.0
  0
LINE
  8
0
 62
     0
 10
2.15525
 20
1.04869
 30
0.0
 11
1.84657
 21
1.29122
 31
0.0
  0
LINE
  8
0
 62
     0
 10
1.84657
 20
1.29122
 30
0.0
 11
1.55718
 21
1.55718
 31
0.0
  0
LINE
  8
0
 62
     0
 10
1.55718
 20
1.55718
 30
0.0
 11
1.29122
 21
1.84795
 31
0.0
  0
LINE
  8
0
 62
     0
 10
1.29122
 20
1.84795
 30
0.0
 11
1.04869
 21
2.15387
 31
0.0
  0
LINE
  8
0
 62
     0
 10
1.04869
 20
2.15387
 30
0.0
 11
0.830957
 21
2.48185
 31
0.0
  0
LINE
  8
0
 62
     0
 10
0.830957
 20
2.48185
 30
0.0
 11
0.63941
 21
2.8236
 31
0.0
  0
LINE
  8
0
 62
     0
 10
0.63941
 20
2.8236
 30
0.0
 11
0.475424
 21
3.18051
 31
0.0
  0
LINE
  8
0
 62
     0
 10
0.475424
 20
3.18051
 30
0.0
 11
0.338998
 21
3.54845
 31
0.0
  0
LINE
  8
0
 62
     0
 10
0.338998
 20
3.54845
 30
0.0
 11
0.23151
 21
3.92603
 31
0.0
  0
LINE
  8
0
 62
     0
 10
0.23151
 20
3.92603
 30
0.0
 11
0.155718
 21
4.31052
 31
0.0
  0
LINE
  8
0
 62
     0
 10
0.155718
 20
4.31052
 30
0.0
 11
0.108865
 21
4.70186
 31
0.0
  0
LINE
  8
0
 62
     0
 10
0.108865
 20
4.70186
 30
0.0
 11
0.0937066
 21
5.09323
 31
0.0
  0
LINE
  8
0
 62
     0
 10
0.0937066
 20
5.09323
 30
0.0
 11
0.0937066
 21
110.344
 31
0.0
  0
LINE
  8
0
 62
     0
 10
0.0937066
 20
110.344
 30
0.0
 11
0.108865
 21
110.735
 31
0.0
  0
LINE
  8
0
 62
     0
 10
0.108865
 20
110.735
 30
0.0
 11
0.155718
 21
111.125
 31
0.0
  0
LINE
  8
0
 62
     0
 10
0.155718
 20
111.125
 30
0.0
 11
0.23151
 21
111.51
 31
0.0
  0
LINE
  8
0
 62
     0
 10
0.23151
 20
111.51
 30
0.0
 11
0.338998
 21
111.888
 31
0.0
  0
LINE
  8
0
 62
     0
 10
0.338998
 20
111.888
 30
0.0
 11
0.475424
 21
112.256
 31
0.0
  0
LINE
  8
0
 62
     0
 10
0.475424
 20
112.256
 30
0.0
 11
0.63941
 21
112.613
 31
0.0
  0
LINE
  8
0
 62
     0
 10
0.63941
 20
112.613
 30
0.0
 11
0.830957
 21
112.955
 31
0.0
  0
LINE
  8
0
 62
     0
 10
0.830957
 20
112.955
 30
0.0
 11
1.04869
 21
113.283
 31
0.0
  0
LINE
  8
0
 62
     0
 10
1.04869
 20
113.283
 30
0.0
 11
1.29122
 21
113.592
 31
0.0
  0
LINE
  8
0
 62
     0
 10
1.29122
 20
113.592
 30
0.0
 11
1.55718
 21
113.88
 31
0.0
  0
LINE
  8
0
 62
     0
 10
1.55718
 20
113.88
 30
0.0
 11
1.84657
 21
114.146
 31
0.0
  0
LINE
  8
0
 62
     0
 10
1.84657
 20
114.146
 30
0.0
 11
2.15525
 21
114.388
 31
0.0
  0
LINE
  8
0
 62
     0
 10
2.15525
 20
114.388
 30
0.0
 11
2.48185
 21
114.607
 31
0.0
  0
LINE
  8
0
 62
     0
 10
2.48185
 20
114.607
 30
0.0
 11
2.8236
 21
114.797
 31
0.0
  0
LINE
  8
0
 62
     0
 10
2.8236
 20
114.797
 30
0.0
 11
3.18051
 21
114.961
 31
0.0
  0
LINE
  8
0
 62
     0
 10
3.18051
 20
114.961
 30
0.0
 11
3.54845
 21
115.098
 31
0.0
  0
LINE
  8
0
 62
     0
 10
3.54845
 20
115.098
 30
0.0
 11
3.9274
 21
115.207
 31
0.0
  0
LINE
  8
0
 62
     0
 10
3.9274
 20
115.207
 30
0.0
 11
4.3119
 21
115.282
 31
0.0
  0
LINE
  8
0
 62
     0
 10
4.3119
 20
115.282
 30
0.0
 11
4.70186
 21
115.328
 31
0.0
  0
LINE
  8
0
 62
     0
 10
4.70186
 20
115.328
 30
0.0
 11
5.09323
 21
115.343
 31
0.0
  0
LINE
  8
0
 62
     0
 10
5.09323
 20
115.343
 30
0.0
 11
343.706
 21
115.343
 31
0.0
  0
LINE
  8
0
 62
     0
 10
10.0941
 20
105.344
 30
0.0
 11
338.707
 21
105.344
 31
0.0
  0
LINE
  8
0
 62
     0
 10
338.707
 20
105.344
 30
0.0
 11
338.707
 21
10.0941
 31
0.0
  0
LINE
  8
0
 62
     0
 10
338.707
 20
10.0941
 30
0.0
 11
10.0941
 21
10.0941
 31
0.0
  0
LINE
  8
0
 62
     0
 10
10.0941
 20
10.0941
 30
0.0
 11
10.0941
 21
105.344
 31
0.0
  0
LINE
  8
0
 62
     0
 10
117.964
 20
112.043
 30
0.0
 11
118.489
 21
111.961
 31
0.0
  0
LINE
  8
0
 62
     0
 10
118.489
 20
111.961
 30
0.0
 11
118.963
 21
111.718
 31
0.0
  0
LINE
  8
0
 62
     0
 10
118.963
 20
111.718
 30
0.0
 11
119.339
 21
111.344
 31
0.0
  0
LINE
  8
0
 62
     0
 10
119.339
 20
111.344
 30
0.0
 11
119.582
 21
110.87
 31
0.0
  0
LINE
  8
0
 62
     0
 10
119.582
 20
110.87
 30
0.0
 11
119.665
 21
110.344
 31
0.0
  0
LINE
  8
0
 62
     0
 10
119.665
 20
110.344
 30
0.0
 11
119.582
 21
109.819
 31
0.0
  0
LINE
  8
0
 62
     0
 10
119.582
 20
109.819
 30
0.0
 11
119.339
 21
109.345
 31
0.0
  0
LINE
  8
0
 62
     0
 10
119.339
 20
109.345
 30
0.0
 11
118.963
 21
108.968
 31
0.0
  0
LINE
  8
0
 62
     0
 10
118.963
 20
108.968
 30
0.0
 11
118.489
 21
108.727
 31
0.0
  0
LINE
  8
0
 62
     0
 10
118.489
 20
108.727
 30
0.0
 11
117.964
 21
108.643
 31
0.0
  0
LINE
  8
0
 62
     0
 10
117.964
 20
108.643
 30
0.0
 11
117.439
 21
108.727
 31
0.0
  0
LINE
  8
0
 62
     0
 10
117.439
 20
108.727
 30
0.0
 11
116.965
 21
108.968
 31
0.0
  0
LINE
  8
0
 62
     0
 10
116.965
 20
108.968
 30
0.0
 11
116.59
 21
109.345
 31
0.0
  0
LINE
  8
0
 62
     0
 10
116.59
 20
109.345
 30
0.0
 11
116.348
 21
109.819
 31
0.0
  0
LINE
  8
0
 62
     0
 10
116.348
 20
109.819
 30
0.0
 11
116.265
 21
110.344
 31
0.0
  0
LINE
  8
0
 62
     0
 10
116.265
 20
110.344
 30
0.0
 11
116.348
 21
110.87
 31
0.0
  0
LINE
  8
0
 62
     0
 10
116.348
 20
110.87
 30
0.0
 11
116.59
 21
111.344
 31
0.0
  0
LINE
  8
0
 62
     0
 10
116.59
 20
111.344
 30
0.0
 11
116.965
 21
111.718
 31
0.0
  0
LINE
  8
0
 62
     0
 10
116.965
 20
111.718
 30
0.0
 11
117.439
 21
111.961
 31
0.0
  0
LINE
  8
0
 62
     0
 10
117.439
 20
111.961
 30
0.0
 11
117.964
 21
112.043
 31
0.0
  0
LINE
  8
0
 62
     0
 10
230.835
 20
112.043
 30
0.0
 11
231.36
 21
111.961
 31
0.0
  0
LINE
  8
0
 62
     0
 10
231.36
 20
111.961
 30
0.0
 11
231.834
 21
111.718
 31
0.0
  0
LINE
  8
0
 62
     0
 10
231.834
 20
111.718
 30
0.0
 11
232.21
 21
111.344
 31
0.0
  0
LINE
  8
0
 62
     0
 10
232.21
 20
111.344
 30
0.0
 11
232.452
 21
110.87
 31
0.0
  0
LINE
  8
0
 62
     0
 10
232.452
 20
110.87
 30
0.0
 11
232.536
 21
110.344
 31
0.0
  0
LINE
  8
0
 62
     0
 10
232.536
 20
110.344
 30
0.0
 11
232.452
 21
109.819
 31
0.0
  0
LINE
  8
0
 62
     0
 10
232.452
 20
109.819
 30
0.0
 11
232.21
 21
109.345
 31
0.0
  0
LINE
  8
0
 62
     0
 10
232.21
 20
109.345
 30
0.0
 11
231.834
 21
108.968
 31
0.0
  0
LINE
  8
0
 62
     0
 10
231.834
 20
108.968
 30
0.0
 11
231.36
 21
108.727
 31
0.0
  0
LINE
  8
0
 62
     0
 10
231.36
 20
108.727
 30
0.0
 11
230.835
 21
108.643
 31
0.0
  0
LINE
  8
0
 62
     0
 10
230.835
 20
108.643
 30
0.0
 11
230.31
 21
108.727
 31
0.0
  0
LINE
  8
0
 62
     0
 10
230.31
 20
108.727
 30
0.0
 11
229.836
 21
108.968
 31
0.0
  0
LINE
  8
0
 62
     0
 10
229.836
 20
108.968
 30
0.0
 11
229.46
 21
109.345
 31
0.0
  0
LINE
  8
0
 62
     0
 10
229.46
 20
109.345
 30
0.0
 11
229.219
 21
109.819
 31
0.0
  0
LINE
  8
0
 62
     0
 10
229.219
 20
109.819
 30
0.0
 11
229.136
 21
110.344
 31
0.0
  0
LINE
  8
0
 62
     0
 10
229.136
 20
110.344
 30
0.0
 11
229.219
 21
110.87
 31
0.0
  0
LINE
  8
0
 62
     0
 10
229.219
 20
110.87
 30
0.0
 11
229.46
 21
111.344
 31
0.0
  0
LINE
  8
0
 62
     0
 10
229.46
 20
111.344
 30
0.0
 11
229.836
 21
111.718
 31
0.0
  0
LINE
  8
0
 62
     0
 10
229.836
 20
111.718
 30
0.0
 11
230.31
 21
111.961
 31
0.0
  0
LINE
  8
0
 62
     0
 10
230.31
 20
111.961
 30
0.0
 11
230.835
 21
112.043
 31
0.0
  0
LINE
  8
0
 62
     0
 10
343.706
 20
112.043
 30
0.0
 11
344.231
 21
111.961
 31
0.0
  0
LINE
  8
0
 62
     0
 10
344.231
 20
111.961
 30
0.0
 11
344.705
 21
111.718
 31
0.0
  0
LINE
  8
0
 62
     0
 10
344.705
 20
111.718
 30
0.0
 11
345.082
 21
111.344
 31
0.0
  0
LINE
  8
0
 62
     0
 10
345.082
 20
111.344
 30
0.0
 11
345.323
 21
110.87
 31
0.0
  0
LINE
  8
0
 62
     0
 10
345.323
 20
110.87
 30
0.0
 11
345.406
 21
110.344
 31
0.0
  0
LINE
  8
0
 62
     0
 10
345.406
 20
110.344
 30
0.0
 11
345.323
 21
109.819
 31
0.0
  0
LINE
  8
0
 62
     0
 10
345.323
 20
109.819
 30
0.0
 11
345.082
 21
109.345
 31
0.0
  0
LINE
  8
0
 62
     0
 10
345.082
 20
109.345
 30
0.0
 11
344.705
 21
108.968
 31
0.0
  0
LINE
  8
0
 62
     0
 10
344.705
 20
108.968
 30
0.0
 11
344.231
 21
108.727
 31
0.0
  0
LINE
  8
0
 62
     0
 10
344.231
 20
108.727
 30
0.0
 11
343.706
 21
108.643
 31
0.0
  0
LINE
  8
0
 62
     0
 10
343.706
 20
108.643
 30
0.0
 11
343.181
 21
108.727
 31
0.0
  0
LINE
  8
0
 62
     0
 10
343.181
 20
108.727
 30
0.0
 11
342.707
 21
108.968
 31
0.0
  0
LINE
  8
0
 62
     0
 10
342.707
 20
108.968
 30
0.0
 11
342.331
 21
109.345
 31
0.0
  0
LINE
  8
0
 62
     0
 10
342.331
 20
109.345
 30
0.0
 11
342.09
 21
109.819
 31
0.0
  0
LINE
  8
0
 62
     0
 10
342.09
 20
109.819
 30
0.0
 11
342.007
 21
110.344
 31
0.0
  0
LINE
  8
0
 62
     0
 10
342.007
 20
110.344
 30
0.0
 11
342.09
 21
110.87
 31
0.0
  0
LINE
  8
0
 62
     0
 10
342.09
 20
110.87
 30
0.0
 11
342.331
 21
111.344
 31
0.0
  0
LINE
  8
0
 62
     0
 10
342.331
 20
111.344
 30
0.0
 11
342.707
 21
111.718
 31
0.0
  0
LINE
  8
0
 62
     0
 10
342.707
 20
111.718
 30
0.0
 11
343.181
 21
111.961
 31
0.0
  0
LINE
  8
0
 62
     0
 10
343.181
 20
111.961
 30
0.0
 11
343.706
 21
112.043
 31
0.0
  0
LINE
  8
0
 62
     0
 10
343.706
 20
6.79372
 30
0.0
 11
344.231
 21
6.70966
 31
0.0
  0
LINE
  8
0
 62
     0
 10
344.231
 20
6.70966
 30
0.0
 11
344.705
 21
6.4685
 31
0.0
  0
LINE
  8
0
 62
     0
 10
344.705
 20
6.4685
 30
0.0
 11
345.082
 21
6.0923
 31
0.0
  0
LINE
  8
0
 62
     0
 10
345.082
 20
6.0923
 30
0.0
 11
345.323
 21
5.61827
 31
0.0
  0
LINE
  8
0
 62
     0
 10
345.323
 20
5.61827
 30
0.0
 11
345.406
 21
5.09323
 31
0.0
  0
LINE
  8
0
 62
     0
 10
345.406
 20
5.09323
 30
0.0
 11
345.323
 21
4.56957
 31
0.0
  0
LINE
  8
0
 62
     0
 10
345.323
 20
4.56957
 30
0.0
 11
345.082
 21
4.09416
 31
0.0
  0
LINE
  8
0
 62
     0
 10
345.082
 20
4.09416
 30
0.0
 11
344.705
 21
3.71796
 31
0.0
  0
LINE
  8
0
 62
     0
 10
344.705
 20
3.71796
 30
0.0
 11
344.231
 21
3.47679
 31
0.0
  0
LINE
  8
0
 62
     0
 10
344.231
 20
3.47679
 30
0.0
 11
343.706
 21
3.39411
 31
0.0
  0
LINE
  8
0
 62
     0
 10
343.706
 20
3.39411
 30
0.0
 11
343.181
 21
3.47679
 31
0.0
  0
LINE
  8
0
 62
     0
 10
343.181
 20
3.47679
 30
0.0
 11
342.707
 21
3.71796
 31
0.0
  0
LINE
  8
0
 62
     0
 10
342.707
 20
3.71796
 30
0.0
 11
342.331
 21
4.09416
 31
0.0
  0
LINE
  8
0
 62
     0
 10
342.331
 20
4.09416
 30
0.0
 11
342.09
 21
4.56957
 31
0.0
  0
LINE
  8
0
 62
     0
 10
342.09
 20
4.56957
 30
0.0
 11
342.007
 21
5.09323
 31
0.0
  0
LINE
  8
0
 62
     0
 10
342.007
 20
5.09323
 30
0.0
 11
342.09
 21
5.61827
 31
0.0
  0
LINE
  8
0
 62
     0
 10
342.09
 20
5.61827
 30
0.0
 11
342.331
 21
6.0923
 31
0.0
  0
LINE
  8
0
 62
     0
 10
342.331
 20
6.0923
 30
0.0
 11
342.707
 21
6.4685
 31
0.0
  0
LINE
  8
0
 62
     0
 10
342.707
 20
6.4685
 30
0.0
 11
343.181
 21
6.70966
 31
0.0
  0
LINE
  8
0
 62
     0
 10
343.181
 20
6.70966
 30
0.0
 11
343.706
 21
6.79372
 31
0.0
  0
LINE
  8
0
 62
     0
 10
230.835
 20
6.79372
 30
0.0
 11
231.36
 21
6.70966
 31
0.0
  0
LINE
  8
0
 62
     0
 10
231.36
 20
6.70966
 30
0.0
 11
231.834
 21
6.4685
 31
0.0
  0
LINE
  8
0
 62
     0
 10
231.834
 20
6.4685
 30
0.0
 11
232.21
 21
6.0923
 31
0.0
  0
LINE
  8
0
 62
     0
 10
232.21
 20
6.0923
 30
0.0
 11
232.452
 21
5.61827
 31
0.0
  0
LINE
  8
0
 62
     0
 10
232.452
 20
5.61827
 30
0.0
 11
232.536
 21
5.09323
 31
0.0
  0
LINE
  8
0
 62
     0
 10
232.536
 20
5.09323
 30
0.0
 11
232.452
 21
4.56957
 31
0.0
  0
LINE
  8
0
 62
     0
 10
232.452
 20
4.56957
 30
0.0
 11
232.21
 21
4.09416
 31
0.0
  0
LINE
  8
0
 62
     0
 10
232.21
 20
4.09416
 30
0.0
 11
231.834
 21
3.71796
 31
0.0
  0
LINE
  8
0
 62
     0
 10
231.834
 20
3.71796
 30
0.0
 11
231.36
 21
3.47679
 31
0.0
  0
LINE
  8
0
 62
     0
 10
231.36
 20
3.47679
 30
0.0
 11
230.835
 21
3.39411
 31
0.0
  0
LINE
  8
0
 62
     0
 10
230.835
 20
3.39411
 30
0.0
 11
230.31
 21
3.47679
 31
0.0
  0
LINE
  8
0
 62
     0
 10
230.31
 20
3.47679
 30
0.0
 11
229.836
 21
3.71796
 31
0.0
  0
LINE
  8
0
 62
     0
 10
229.836
 20
3.71796
 30
0.0
 11
229.46
 21
4.09416
 31
0.0
  0
LINE
  8
0
 62
     0
 10
229.46
 20
4.09416
 30
0.0
 11
229.219
 21
4.56957
 31
0.0
  0
LINE
  8
0
 62
     0
 10
229.219
 20
4.56957
 30
0.0
 11
229.136
 21
5.09323
 31
0.0
  0
LINE
  8
0
 62
     0
 10
229.136
 20
5.09323
 30
0.0
 11
229.219
 21
5.61827
 31
0.0
  0
LINE
  8
0
 62
     0
 10
229.219
 20
5.61827
 30
0.0
 11
229.46
 21
6.0923
 31
0.0
  0
LINE
  8
0
 62
     0
 10
229.46
 20
6.0923
 30
0.0
 11
229.836
 21
6.4685
 31
0.0
  0
LINE
  8
0
 62
     0
 10
229.836
 20
6.4685
 30
0.0
 11
230.31
 21
6.70966
 31
0.0
  0
LINE
  8
0
 62
     0
 10
230.31
 20
6.70966
 30
0.0
 11
230.835
 21
6.79372
 31
0.0
  0
LINE
  8
0
 62
     0
 10
117.964
 20
6.79372
 30
0.0
 11
118.489
 21
6.70966
 31
0.0
  0
LINE
  8
0
 62
     0
 10
118.489
 20
6.70966
 30
0.0
 11
118.963
 21
6.4685
 31
0.0
  0
LINE
  8
0
 62
     0
 10
118.963
 20
6.4685
 30
0.0
 11
119.339
 21
6.0923
 31
0.0
  0
LINE
  8
0
 62
     0
 10
119.339
 20
6.0923
 30
0.0
 11
119.582
 21
5.61827
 31
0.0
  0
LINE
  8
0
 62
     0
 10
119.582
 20
5.61827
 30
0.0
 11
119.665
 21
5.09323
 31
0.0
  0
LINE
  8
0
 62
     0
 10
119.665
 20
5.09323
 30
0.0
 11
119.582
 21
4.56957
 31
0.0
  0
LINE
  8
0
 62
     0
 10
119.582
 20
4.56957
 30
0.0
 11
119.339
 21
4.09416
 31
0.0
  0
LINE
  8
0
 62
     0
 10
119.339
 20
4.09416
 30
0.0
 11
118.963
 21
3.71796
 31
0.0
  0
LINE
  8
0
 62
     0
 10
118.963
 20
3.71796
 30
0.0
 11
118.489
 21
3.47679
 31
0.0
  0
LINE
  8
0
 62
     0
 10
118.489
 20
3.47679
 30
0.0
 11
117.964
 21
3.39411
 31
0.0
  0
LINE
  8
0
 62
     0
 10
117.964
 20
3.39411
 30
0.0
 11
117.439
 21
3.47679
 31
0.0
  0
LINE
  8
0
 62
     0
 10
117.439
 20
3.47679
 30
0.0
 11
116.965
 21
3.71796
 31
0.0
  0
LINE
  8
0
 62
     0
 10
116.965
 20
3.71796
 30
0.0
 11
116.59
 21
4.09416
 31
0.0
  0
LINE
  8
0
 62
     0
 10
116.59
 20
4.09416
 30
0.0
 11
116.348
 21
4.56957
 31
0.0
  0
LINE
  8
0
 62
     0
 10
116.348
 20
4.56957
 30
0.0
 11
116.265
 21
5.09323
 31
0.0
  0
LINE
  8
0
 62
     0
 10
116.265
 20
5.09323
 30
0.0
 11
116.348
 21
5.61827
 31
0.0
  0
LINE
  8
0
 62
     0
 10
116.348
 20
5.61827
 30
0.0
 11
116.59
 21
6.0923
 31
0.0
  0
LINE
  8
0
 62
     0
 10
116.59
 20
6.0923
 30
0.0
 11
116.965
 21
6.4685
 31
0.0
  0
LINE
  8
0
 62
     0
 10
116.965
 20
6.4685
 30
0.0
 11
117.439
 21
6.70966
 31
0.0
  0
LINE
  8
0
 62
     0
 10
117.439
 20
6.70966
 30
0.0
 11
117.964
 21
6.79372
 31
0.0
  0
LINE
  8
0
 62
     0
 10
5.09323
 20
6.79372
 30
0.0
 11
5.61827
 21
6.70966
 31
0.0
  0
LINE
  8
0
 62
     0
 10
5.61827
 20
6.70966
 30
0.0
 11
6.0923
 21
6.4685
 31
0.0
  0
LINE
  8
0
 62
     0
 10
6.0923
 20
6.4685
 30
0.0
 11
6.4685
 21
6.0923
 31
0.0
  0
LINE
  8
0
 62
     0
 10
6.4685
 20
6.0923
 30
0.0
 11
6.71103
 21
5.61827
 31
0.0
  0
LINE
  8
0
 62
     0
 10
6.71103
 20
5.61827
 30
0.0
 11
6.79372
 21
5.09323
 31
0.0
  0
LINE
  8
0
 62
     0
 10
6.79372
 20
5.09323
 30
0.0
 11
6.71103
 21
4.56957
 31
0.0
  0
LINE
  8
0
 62
     0
 10
6.71103
 20
4.56957
 30
0.0
 11
6.4685
 21
4.09416
 31
0.0
  0
LINE
  8
0
 62
     0
 10
6.4685
 20
4.09416
 30
0.0
 11
6.0923
 21
3.71796
 31
0.0
  0
LINE
  8
0
 62
     0
 10
6.0923
 20
3.71796
 30
0.0
 11
5.61827
 21
3.47679
 31
0.0
  0
LINE
  8
0
 62
     0
 10
5.61827
 20
3.47679
 30
0.0
 11
5.09323
 21
3.39411
 31
0.0
  0
LINE
  8
0
 62
     0
 10
5.09323
 20
3.39411
 30
0.0
 11
4.56819
 21
3.47679
 31
0.0
  0
LINE
  8
0
 62
     0
 10
4.56819
 20
3.47679
 30
0.0
 11
4.09416
 21
3.71796
 31
0.0
  0
LINE
  8
0
 62
     0
 10
4.09416
 20
3.71796
 30
0.0
 11
3.71934
 21
4.09416
 31
0.0
  0
LINE
  8
0
 62
     0
 10
3.71934
 20
4.09416
 30
0.0
 11
3.47679
 21
4.56957
 31
0.0
  0
LINE
  8
0
 62
     0
 10
3.47679
 20
4.56957
 30
0.0
 11
3.39411
 21
5.09323
 31
0.0
  0
LINE
  8
0
 62
     0
 10
3.39411
 20
5.09323
 30
0.0
 11
3.47679
 21
5.61827
 31
0.0
  0
LINE
  8
0
 62
     0
 10
3.47679
 20
5.61827
 30
0.0
 11
3.71934
 21
6.0923
 31
0.0
  0
LINE
  8
0
 62
     0
 10
3.71934
 20
6.0923
 30
0.0
 11
4.09416
 21
6.4685
 31
0.0
  0
LINE
  8
0
 62
     0
 10
4.09416
 20
6.4685
 30
0.0
 11
4.56819
 21
6.70966
 31
0.0
  0
LINE
  8
0
 62
     0
 10
4.56819
 20
6.70966
 30
0.0
 11
5.09323
 21
6.79372
 31
0.0
  0
LINE
  8
0
 62
     0
 10
5.09323
 20
112.043
 30
0.0
 11
5.61827
 21
111.961
 31
0.0
  0
LINE
  8
0
 62
     0
 10
5.61827
 20
111.961
 30
0.0
 11
6.0923
 21
111.718
 31
0.0
  0
LINE
  8
0
 62
     0
 10
6.0923
 20
111.718
 30
0.0
 11
6.4685
 21
111.344
 31
0.0
  0
LINE
  8
0
 62
     0
 10
6.4685
 20
111.344
 30
0.0
 11
6.71103
 21
110.87
 31
0.0
  0
LINE
  8
0
 62
     0
 10
6.71103
 20
110.87
 30
0.0
 11
6.79372
 21
110.344
 31
0.0
  0
LINE
  8
0
 62
     0
 10
6.79372
 20
110.344
 30
0.0
 11
6.71103
 21
109.819
 31
0.0
  0
LINE
  8
0
 62
     0
 10
6.71103
 20
109.819
 30
0.0
 11
6.4685
 21
109.345
 31
0.0
  0
LINE
  8
0
 62
     0
 10
6.4685
 20
109.345
 30
0.0
 11
6.0923
 21
108.968
 31
0.0
  0
LINE
  8
0
 62
     0
 10
6.0923
 20
108.968
 30
0.0
 11
5.61827
 21
108.727
 31
0.0
  0
LINE
  8
0
 62
     0
 10
5.61827
 20
108.727
 30
0.0
 11
5.09323
 21
108.643
 31
0.0
  0
LINE
  8
0
 62
     0
 10
5.09323
 20
108.643
 30
0.0
 11
4.56819
 21
108.727
 31
0.0
  0
LINE
  8
0
 62
     0
 10
4.56819
 20
108.727
 30
0.0
 11
4.09416
 21
108.968
 31
0.0
  0
LINE
  8
0
 62
     0
 10
4.09416
 20
108.968
 30
0.0
 11
3.71934
 21
109.345
 31
0.0
  0
LINE
  8
0
 62
     0
 10
3.71934
 20
109.345
 30
0.0
 11
3.47679
 21
109.819
 31
0.0
  0
LINE
  8
0
 62
     0
 10
3.47679
 20
109.819
 30
0.0
 11
3.39411
 21
110.344
 31
0.0
  0
LINE
  8
0
 62
     0
 10
3.39411
 20
110.344
 30
0.0
 11
3.47679
 21
110.87
 31
0.0
  0
LINE
  8
0
 62
     0
 10
3.47679
 20
110.87
 30
0.0
 11
3.71934
 21
111.344
 31
0.0
  0
LINE
  8
0
 62
     0
 10
3.71934
 20
111.344
 30
0.0
 11
4.09416
 21
111.718
 31
0.0
  0
LINE
  8
0
 62
     0
 10
4.09416
 20
111.718
 30
0.0
 11
4.56819
 21
111.961
 31
0.0
  0
LINE
  8
0
 62
     0
 10
4.56819
 20
111.961
 30
0.0
 11
5.09323
 21
112.043
 31
0.0
  0
ENDSEC
  0
EOF
