G04 #@! TF.FileFunction,Legend,Bot*
%FSLAX46Y46*%
G04 Gerber Fmt 4.6, Leading zero omitted, Abs format (unit mm)*
G04 Created by KiCad (PCBNEW 4.0.2-stable) date Friday, July 29, 2016 'PMt' 11:21:31 PM*
%MOMM*%
G01*
G04 APERTURE LIST*
%ADD10C,0.150000*%
%ADD11C,0.300000*%
%ADD12C,0.200000*%
%ADD13R,1.400000X2.000000*%
%ADD14C,2.099260*%
%ADD15R,2.099260X2.099260*%
%ADD16C,4.387810*%
%ADD17C,2.900000*%
%ADD18R,2.400000X2.400000*%
%ADD19C,2.400000*%
%ADD20R,3.399740X1.901140*%
%ADD21R,1.650000X1.900000*%
%ADD22R,1.900000X1.650000*%
%ADD23R,3.051760X2.429460*%
%ADD24R,0.900380X2.701240*%
%ADD25R,2.398980X2.899360*%
%ADD26C,1.299160*%
%ADD27R,1.400000X3.600000*%
%ADD28R,1.900000X0.950000*%
%ADD29R,0.950000X1.900000*%
%ADD30R,0.850000X2.150000*%
%ADD31R,1.700000X2.400000*%
%ADD32R,1.900000X1.700000*%
%ADD33R,1.700000X1.900000*%
%ADD34R,2.000000X1.400000*%
G04 APERTURE END LIST*
D10*
D11*
X79714285Y-20392857D02*
X79499999Y-20464286D01*
X79428571Y-20535714D01*
X79357142Y-20678571D01*
X79357142Y-20892857D01*
X79428571Y-21035714D01*
X79499999Y-21107143D01*
X79642857Y-21178571D01*
X80214285Y-21178571D01*
X80214285Y-19678571D01*
X79714285Y-19678571D01*
X79571428Y-19750000D01*
X79499999Y-19821429D01*
X79428571Y-19964286D01*
X79428571Y-20107143D01*
X79499999Y-20250000D01*
X79571428Y-20321429D01*
X79714285Y-20392857D01*
X80214285Y-20392857D01*
X78499999Y-21178571D02*
X78642857Y-21107143D01*
X78714285Y-20964286D01*
X78714285Y-19678571D01*
X77285714Y-20178571D02*
X77285714Y-21178571D01*
X77928571Y-20178571D02*
X77928571Y-20964286D01*
X77857143Y-21107143D01*
X77714285Y-21178571D01*
X77500000Y-21178571D01*
X77357143Y-21107143D01*
X77285714Y-21035714D01*
X76000000Y-21107143D02*
X76142857Y-21178571D01*
X76428571Y-21178571D01*
X76571428Y-21107143D01*
X76642857Y-20964286D01*
X76642857Y-20392857D01*
X76571428Y-20250000D01*
X76428571Y-20178571D01*
X76142857Y-20178571D01*
X76000000Y-20250000D01*
X75928571Y-20392857D01*
X75928571Y-20535714D01*
X76642857Y-20678571D01*
X75285714Y-21178571D02*
X75285714Y-19678571D01*
X74714286Y-19678571D01*
X74571428Y-19750000D01*
X74500000Y-19821429D01*
X74428571Y-19964286D01*
X74428571Y-20178571D01*
X74500000Y-20321429D01*
X74571428Y-20392857D01*
X74714286Y-20464286D01*
X75285714Y-20464286D01*
X73142857Y-21178571D02*
X73142857Y-20392857D01*
X73214286Y-20250000D01*
X73357143Y-20178571D01*
X73642857Y-20178571D01*
X73785714Y-20250000D01*
X73142857Y-21107143D02*
X73285714Y-21178571D01*
X73642857Y-21178571D01*
X73785714Y-21107143D01*
X73857143Y-20964286D01*
X73857143Y-20821429D01*
X73785714Y-20678571D01*
X73642857Y-20607143D01*
X73285714Y-20607143D01*
X73142857Y-20535714D01*
X71785714Y-21178571D02*
X71785714Y-19678571D01*
X71785714Y-21107143D02*
X71928571Y-21178571D01*
X72214285Y-21178571D01*
X72357143Y-21107143D01*
X72428571Y-21035714D01*
X72500000Y-20892857D01*
X72500000Y-20464286D01*
X72428571Y-20321429D01*
X72357143Y-20250000D01*
X72214285Y-20178571D01*
X71928571Y-20178571D01*
X71785714Y-20250000D01*
X90678571Y-28271429D02*
X89178571Y-28271429D01*
X89178571Y-28842857D01*
X89250000Y-28985715D01*
X89321429Y-29057143D01*
X89464286Y-29128572D01*
X89678571Y-29128572D01*
X89821429Y-29057143D01*
X89892857Y-28985715D01*
X89964286Y-28842857D01*
X89964286Y-28271429D01*
X90678571Y-30628572D02*
X89964286Y-30128572D01*
X90678571Y-29771429D02*
X89178571Y-29771429D01*
X89178571Y-30342857D01*
X89250000Y-30485715D01*
X89321429Y-30557143D01*
X89464286Y-30628572D01*
X89678571Y-30628572D01*
X89821429Y-30557143D01*
X89892857Y-30485715D01*
X89964286Y-30342857D01*
X89964286Y-29771429D01*
X89178571Y-31557143D02*
X89178571Y-31842857D01*
X89250000Y-31985715D01*
X89392857Y-32128572D01*
X89678571Y-32200000D01*
X90178571Y-32200000D01*
X90464286Y-32128572D01*
X90607143Y-31985715D01*
X90678571Y-31842857D01*
X90678571Y-31557143D01*
X90607143Y-31414286D01*
X90464286Y-31271429D01*
X90178571Y-31200000D01*
X89678571Y-31200000D01*
X89392857Y-31271429D01*
X89250000Y-31414286D01*
X89178571Y-31557143D01*
X89250000Y-33628572D02*
X89178571Y-33485715D01*
X89178571Y-33271429D01*
X89250000Y-33057144D01*
X89392857Y-32914286D01*
X89535714Y-32842858D01*
X89821429Y-32771429D01*
X90035714Y-32771429D01*
X90321429Y-32842858D01*
X90464286Y-32914286D01*
X90607143Y-33057144D01*
X90678571Y-33271429D01*
X90678571Y-33414286D01*
X90607143Y-33628572D01*
X90535714Y-33700001D01*
X90035714Y-33700001D01*
X90035714Y-33414286D01*
X90678571Y-35200001D02*
X89964286Y-34700001D01*
X90678571Y-34342858D02*
X89178571Y-34342858D01*
X89178571Y-34914286D01*
X89250000Y-35057144D01*
X89321429Y-35128572D01*
X89464286Y-35200001D01*
X89678571Y-35200001D01*
X89821429Y-35128572D01*
X89892857Y-35057144D01*
X89964286Y-34914286D01*
X89964286Y-34342858D01*
X90250000Y-35771429D02*
X90250000Y-36485715D01*
X90678571Y-35628572D02*
X89178571Y-36128572D01*
X90678571Y-36628572D01*
X90678571Y-37128572D02*
X89178571Y-37128572D01*
X90250000Y-37628572D01*
X89178571Y-38128572D01*
X90678571Y-38128572D01*
D10*
X92733762Y-92692144D02*
X92781381Y-92820715D01*
X92781381Y-93035001D01*
X92733762Y-93120715D01*
X92686143Y-93163572D01*
X92590905Y-93206429D01*
X92495667Y-93206429D01*
X92400429Y-93163572D01*
X92352810Y-93120715D01*
X92305190Y-93035001D01*
X92257571Y-92863572D01*
X92209952Y-92777858D01*
X92162333Y-92735001D01*
X92067095Y-92692144D01*
X91971857Y-92692144D01*
X91876619Y-92735001D01*
X91829000Y-92777858D01*
X91781381Y-92863572D01*
X91781381Y-93077858D01*
X91829000Y-93206429D01*
X91781381Y-93506429D02*
X92781381Y-93720715D01*
X92067095Y-93892144D01*
X92781381Y-94063572D01*
X91781381Y-94277858D01*
X92876619Y-94406429D02*
X92876619Y-95092143D01*
X92257571Y-95306429D02*
X92257571Y-95606429D01*
X92781381Y-95735000D02*
X92781381Y-95306429D01*
X91781381Y-95306429D01*
X91781381Y-95735000D01*
X92781381Y-96120715D02*
X91781381Y-96120715D01*
X92781381Y-96635000D01*
X91781381Y-96635000D01*
X91781381Y-96935000D02*
X91781381Y-97449286D01*
X92781381Y-97192143D02*
X91781381Y-97192143D01*
X92257571Y-97749286D02*
X92257571Y-98049286D01*
X92781381Y-98177857D02*
X92781381Y-97749286D01*
X91781381Y-97749286D01*
X91781381Y-98177857D01*
X92781381Y-99077857D02*
X92305190Y-98777857D01*
X92781381Y-98563572D02*
X91781381Y-98563572D01*
X91781381Y-98906429D01*
X91829000Y-98992143D01*
X91876619Y-99035000D01*
X91971857Y-99077857D01*
X92114714Y-99077857D01*
X92209952Y-99035000D01*
X92257571Y-98992143D01*
X92305190Y-98906429D01*
X92305190Y-98563572D01*
X92733762Y-54575430D02*
X92781381Y-54704001D01*
X92781381Y-54918287D01*
X92733762Y-55004001D01*
X92686143Y-55046858D01*
X92590905Y-55089715D01*
X92495667Y-55089715D01*
X92400429Y-55046858D01*
X92352810Y-55004001D01*
X92305190Y-54918287D01*
X92257571Y-54746858D01*
X92209952Y-54661144D01*
X92162333Y-54618287D01*
X92067095Y-54575430D01*
X91971857Y-54575430D01*
X91876619Y-54618287D01*
X91829000Y-54661144D01*
X91781381Y-54746858D01*
X91781381Y-54961144D01*
X91829000Y-55089715D01*
X91781381Y-55389715D02*
X92781381Y-55604001D01*
X92067095Y-55775430D01*
X92781381Y-55946858D01*
X91781381Y-56161144D01*
X92876619Y-56289715D02*
X92876619Y-56975429D01*
X92781381Y-57189715D02*
X91781381Y-57189715D01*
X91781381Y-57532572D01*
X91829000Y-57618286D01*
X91876619Y-57661143D01*
X91971857Y-57704000D01*
X92114714Y-57704000D01*
X92209952Y-57661143D01*
X92257571Y-57618286D01*
X92305190Y-57532572D01*
X92305190Y-57189715D01*
X92781381Y-58518286D02*
X92781381Y-58089715D01*
X91781381Y-58089715D01*
X91781381Y-58818286D02*
X92590905Y-58818286D01*
X92686143Y-58861143D01*
X92733762Y-58904000D01*
X92781381Y-58989714D01*
X92781381Y-59161143D01*
X92733762Y-59246857D01*
X92686143Y-59289714D01*
X92590905Y-59332571D01*
X91781381Y-59332571D01*
X92733762Y-59718286D02*
X92781381Y-59846857D01*
X92781381Y-60061143D01*
X92733762Y-60146857D01*
X92686143Y-60189714D01*
X92590905Y-60232571D01*
X92495667Y-60232571D01*
X92400429Y-60189714D01*
X92352810Y-60146857D01*
X92305190Y-60061143D01*
X92257571Y-59889714D01*
X92209952Y-59804000D01*
X92162333Y-59761143D01*
X92067095Y-59718286D01*
X91971857Y-59718286D01*
X91876619Y-59761143D01*
X91829000Y-59804000D01*
X91781381Y-59889714D01*
X91781381Y-60104000D01*
X91829000Y-60232571D01*
D12*
X52447214Y-81400000D02*
G75*
G03X52447214Y-81400000I-447214J0D01*
G01*
X71032456Y-37600000D02*
G75*
G03X71032456Y-37600000I-632456J0D01*
G01*
D10*
X30004000Y-93615000D02*
X30004000Y-93215000D01*
X34004000Y-92615000D02*
X33504000Y-92615000D01*
X34004000Y-93615000D02*
X34004000Y-92615000D01*
X30004000Y-96615000D02*
X30604000Y-96615000D01*
X30004000Y-96615000D02*
X30004000Y-96215000D01*
X33404000Y-96215000D02*
X34004000Y-95615000D01*
X34004000Y-93615000D02*
X34004000Y-96215000D01*
X30004000Y-96215000D02*
X30004000Y-93615000D01*
X66899040Y-27801120D02*
X72100960Y-27801120D01*
X72100960Y-30198880D02*
X66899040Y-30198880D01*
X64900060Y-31298700D02*
X64900060Y-30198880D01*
X64300620Y-30798320D02*
X65499500Y-30798320D01*
X65504580Y-30198880D02*
X65504580Y-27801120D01*
X57150000Y-37000000D02*
X57150000Y-36000000D01*
X58850000Y-36000000D02*
X58850000Y-37000000D01*
X69500000Y-31850000D02*
X68500000Y-31850000D01*
X68500000Y-30150000D02*
X69500000Y-30150000D01*
X71000000Y-48650000D02*
X72000000Y-48650000D01*
X72000000Y-50350000D02*
X71000000Y-50350000D01*
X75500000Y-36850000D02*
X74500000Y-36850000D01*
X74500000Y-35150000D02*
X75500000Y-35150000D01*
X63850000Y-52750000D02*
X63850000Y-53750000D01*
X62150000Y-53750000D02*
X62150000Y-52750000D01*
X69150000Y-53500000D02*
X69150000Y-52500000D01*
X70850000Y-52500000D02*
X70850000Y-53500000D01*
X75900000Y-45450000D02*
X74900000Y-45450000D01*
X74900000Y-43750000D02*
X75900000Y-43750000D01*
X69500000Y-33850000D02*
X68500000Y-33850000D01*
X68500000Y-32150000D02*
X69500000Y-32150000D01*
X54350000Y-75250000D02*
X54350000Y-76250000D01*
X52650000Y-76250000D02*
X52650000Y-75250000D01*
X49250000Y-84900000D02*
X50250000Y-84900000D01*
X50250000Y-86600000D02*
X49250000Y-86600000D01*
X82382360Y-19514820D02*
X90083640Y-19514820D01*
X82382360Y-18514060D02*
X90083640Y-18514060D01*
X90083640Y-18514060D02*
X90083640Y-27713940D01*
X90083640Y-27713940D02*
X82382360Y-27713940D01*
X82382360Y-27713940D02*
X82382360Y-18514060D01*
X82750000Y-36500000D02*
X82950000Y-36500000D01*
X88750000Y-36500000D02*
X88550000Y-36500000D01*
X88750000Y-30000000D02*
X88550000Y-30000000D01*
X82750000Y-30000000D02*
X82950000Y-30000000D01*
X84550000Y-30000000D02*
X86950000Y-30000000D01*
X84550000Y-36500000D02*
X86950000Y-36500000D01*
X82750000Y-36500000D02*
X82750000Y-30000000D01*
X88750000Y-30000000D02*
X88750000Y-36500000D01*
X86750000Y-33250000D02*
G75*
G03X86750000Y-33250000I-1000000J0D01*
G01*
X87250000Y-33250000D02*
G75*
G03X87250000Y-33250000I-1500000J0D01*
G01*
X71675000Y-36325000D02*
X71675000Y-37000000D01*
X61325000Y-36325000D02*
X61325000Y-37000000D01*
X61325000Y-46675000D02*
X61325000Y-46000000D01*
X71675000Y-46675000D02*
X71675000Y-46000000D01*
X71675000Y-36325000D02*
X71000000Y-36325000D01*
X71675000Y-46675000D02*
X71000000Y-46675000D01*
X61325000Y-46675000D02*
X62000000Y-46675000D01*
X61325000Y-36325000D02*
X62000000Y-36325000D01*
X71675000Y-37000000D02*
X72950000Y-37000000D01*
X52825000Y-82375000D02*
X52175000Y-82375000D01*
X52825000Y-76625000D02*
X52175000Y-76625000D01*
X42175000Y-76625000D02*
X42825000Y-76625000D01*
X42175000Y-82375000D02*
X42825000Y-82375000D01*
X52825000Y-82375000D02*
X52825000Y-76625000D01*
X42175000Y-82375000D02*
X42175000Y-76625000D01*
X52175000Y-82375000D02*
X52175000Y-83975000D01*
X66300000Y-55600000D02*
X66300000Y-56300000D01*
X64800000Y-53700000D02*
X64300000Y-53700000D01*
X64800000Y-52297920D02*
X64800000Y-53700000D01*
X68200000Y-53701040D02*
X68200000Y-52298960D01*
X66300000Y-50400000D02*
X66700000Y-50400000D01*
X66300000Y-55600000D02*
X66700000Y-55600000D01*
X81100000Y-36625000D02*
X79900000Y-36625000D01*
X79900000Y-38375000D02*
X81100000Y-38375000D01*
X81100000Y-38625000D02*
X79900000Y-38625000D01*
X79900000Y-40375000D02*
X81100000Y-40375000D01*
X79900000Y-36375000D02*
X81100000Y-36375000D01*
X81100000Y-34625000D02*
X79900000Y-34625000D01*
X44400000Y-49125000D02*
X45600000Y-49125000D01*
X45600000Y-47375000D02*
X44400000Y-47375000D01*
X44400000Y-47125000D02*
X45600000Y-47125000D01*
X45600000Y-45375000D02*
X44400000Y-45375000D01*
X55132000Y-75150000D02*
X55132000Y-76350000D01*
X56882000Y-76350000D02*
X56882000Y-75150000D01*
X49250000Y-88375000D02*
X50450000Y-88375000D01*
X50450000Y-86625000D02*
X49250000Y-86625000D01*
X44850000Y-71700000D02*
X44850000Y-72700000D01*
X43150000Y-72700000D02*
X43150000Y-71700000D01*
X99600000Y-37100000D02*
X99600000Y-36700000D01*
X103600000Y-36100000D02*
X103100000Y-36100000D01*
X103600000Y-37100000D02*
X103600000Y-36100000D01*
X99600000Y-40100000D02*
X100200000Y-40100000D01*
X99600000Y-40100000D02*
X99600000Y-39700000D01*
X103000000Y-39700000D02*
X103600000Y-39100000D01*
X103600000Y-37100000D02*
X103600000Y-39700000D01*
X99600000Y-39700000D02*
X99600000Y-37100000D01*
X100616000Y-93234000D02*
X100616000Y-92834000D01*
X104616000Y-92234000D02*
X104116000Y-92234000D01*
X104616000Y-93234000D02*
X104616000Y-92234000D01*
X100616000Y-96234000D02*
X101216000Y-96234000D01*
X100616000Y-96234000D02*
X100616000Y-95834000D01*
X104016000Y-95834000D02*
X104616000Y-95234000D01*
X104616000Y-93234000D02*
X104616000Y-95834000D01*
X100616000Y-95834000D02*
X100616000Y-93234000D01*
X65675000Y-23590000D02*
X65275000Y-23590000D01*
X64675000Y-19590000D02*
X64675000Y-20090000D01*
X65675000Y-19590000D02*
X64675000Y-19590000D01*
X68675000Y-23590000D02*
X68675000Y-22990000D01*
X68675000Y-23590000D02*
X68275000Y-23590000D01*
X68275000Y-20190000D02*
X67675000Y-19590000D01*
X65675000Y-19590000D02*
X68275000Y-19590000D01*
X68275000Y-23590000D02*
X65675000Y-23590000D01*
X65675000Y-113760000D02*
X65275000Y-113760000D01*
X64675000Y-109760000D02*
X64675000Y-110260000D01*
X65675000Y-109760000D02*
X64675000Y-109760000D01*
X68675000Y-113760000D02*
X68675000Y-113160000D01*
X68675000Y-113760000D02*
X68275000Y-113760000D01*
X68275000Y-110360000D02*
X67675000Y-109760000D01*
X65675000Y-109760000D02*
X68275000Y-109760000D01*
X68275000Y-113760000D02*
X65675000Y-113760000D01*
X30004000Y-37100000D02*
X30004000Y-36700000D01*
X34004000Y-36100000D02*
X33504000Y-36100000D01*
X34004000Y-37100000D02*
X34004000Y-36100000D01*
X30004000Y-40100000D02*
X30604000Y-40100000D01*
X30004000Y-40100000D02*
X30004000Y-39700000D01*
X33404000Y-39700000D02*
X34004000Y-39100000D01*
X34004000Y-37100000D02*
X34004000Y-39700000D01*
X30004000Y-39700000D02*
X30004000Y-37100000D01*
X33270666Y-98567381D02*
X33604000Y-98091190D01*
X33842095Y-98567381D02*
X33842095Y-97567381D01*
X33461142Y-97567381D01*
X33365904Y-97615000D01*
X33318285Y-97662619D01*
X33270666Y-97757857D01*
X33270666Y-97900714D01*
X33318285Y-97995952D01*
X33365904Y-98043571D01*
X33461142Y-98091190D01*
X33842095Y-98091190D01*
X32318285Y-97615000D02*
X32413523Y-97567381D01*
X32556380Y-97567381D01*
X32699238Y-97615000D01*
X32794476Y-97710238D01*
X32842095Y-97805476D01*
X32889714Y-97995952D01*
X32889714Y-98138810D01*
X32842095Y-98329286D01*
X32794476Y-98424524D01*
X32699238Y-98519762D01*
X32556380Y-98567381D01*
X32461142Y-98567381D01*
X32318285Y-98519762D01*
X32270666Y-98472143D01*
X32270666Y-98138810D01*
X32461142Y-98138810D01*
X31508761Y-98043571D02*
X31365904Y-98091190D01*
X31318285Y-98138810D01*
X31270666Y-98234048D01*
X31270666Y-98376905D01*
X31318285Y-98472143D01*
X31365904Y-98519762D01*
X31461142Y-98567381D01*
X31842095Y-98567381D01*
X31842095Y-97567381D01*
X31508761Y-97567381D01*
X31413523Y-97615000D01*
X31365904Y-97662619D01*
X31318285Y-97757857D01*
X31318285Y-97853095D01*
X31365904Y-97948333D01*
X31413523Y-97995952D01*
X31508761Y-98043571D01*
X31842095Y-98043571D01*
X30794476Y-98567381D02*
X30604000Y-98567381D01*
X30508761Y-98519762D01*
X30461142Y-98472143D01*
X30365904Y-98329286D01*
X30318285Y-98138810D01*
X30318285Y-97757857D01*
X30365904Y-97662619D01*
X30413523Y-97615000D01*
X30508761Y-97567381D01*
X30699238Y-97567381D01*
X30794476Y-97615000D01*
X30842095Y-97662619D01*
X30889714Y-97757857D01*
X30889714Y-97995952D01*
X30842095Y-98091190D01*
X30794476Y-98138810D01*
X30699238Y-98186429D01*
X30508761Y-98186429D01*
X30413523Y-98138810D01*
X30365904Y-98091190D01*
X30318285Y-97995952D01*
X29094476Y-97067381D02*
X29427810Y-96591190D01*
X29665905Y-97067381D02*
X29665905Y-96067381D01*
X29284952Y-96067381D01*
X29189714Y-96115000D01*
X29142095Y-96162619D01*
X29094476Y-96257857D01*
X29094476Y-96400714D01*
X29142095Y-96495952D01*
X29189714Y-96543571D01*
X29284952Y-96591190D01*
X29665905Y-96591190D01*
X34432571Y-92943571D02*
X34289714Y-92991190D01*
X34242095Y-93038810D01*
X34194476Y-93134048D01*
X34194476Y-93276905D01*
X34242095Y-93372143D01*
X34289714Y-93419762D01*
X34384952Y-93467381D01*
X34765905Y-93467381D01*
X34765905Y-92467381D01*
X34432571Y-92467381D01*
X34337333Y-92515000D01*
X34289714Y-92562619D01*
X34242095Y-92657857D01*
X34242095Y-92753095D01*
X34289714Y-92848333D01*
X34337333Y-92895952D01*
X34432571Y-92943571D01*
X34765905Y-92943571D01*
X29265595Y-92400500D02*
X29360833Y-92352881D01*
X29503690Y-92352881D01*
X29646548Y-92400500D01*
X29741786Y-92495738D01*
X29789405Y-92590976D01*
X29837024Y-92781452D01*
X29837024Y-92924310D01*
X29789405Y-93114786D01*
X29741786Y-93210024D01*
X29646548Y-93305262D01*
X29503690Y-93352881D01*
X29408452Y-93352881D01*
X29265595Y-93305262D01*
X29217976Y-93257643D01*
X29217976Y-92924310D01*
X29408452Y-92924310D01*
X34528095Y-96813667D02*
X34051904Y-96813667D01*
X34623333Y-97099381D02*
X34290000Y-96099381D01*
X33956666Y-97099381D01*
D12*
X40290476Y-98179762D02*
X40147619Y-98227381D01*
X39909523Y-98227381D01*
X39814285Y-98179762D01*
X39766666Y-98132143D01*
X39719047Y-98036905D01*
X39719047Y-97941667D01*
X39766666Y-97846429D01*
X39814285Y-97798810D01*
X39909523Y-97751190D01*
X40100000Y-97703571D01*
X40195238Y-97655952D01*
X40242857Y-97608333D01*
X40290476Y-97513095D01*
X40290476Y-97417857D01*
X40242857Y-97322619D01*
X40195238Y-97275000D01*
X40100000Y-97227381D01*
X39861904Y-97227381D01*
X39719047Y-97275000D01*
X39385714Y-97227381D02*
X39147619Y-98227381D01*
X38957142Y-97513095D01*
X38766666Y-98227381D01*
X38528571Y-97227381D01*
X38385714Y-98322619D02*
X37623809Y-98322619D01*
X36861904Y-98227381D02*
X37433333Y-98227381D01*
X37147619Y-98227381D02*
X37147619Y-97227381D01*
X37242857Y-97370238D01*
X37338095Y-97465476D01*
X37433333Y-97513095D01*
X36528571Y-97227381D02*
X35861904Y-97227381D01*
X36290476Y-98227381D01*
D10*
X35544095Y-99861667D02*
X35067904Y-99861667D01*
X35639333Y-100147381D02*
X35306000Y-99147381D01*
X34972666Y-100147381D01*
X41155905Y-100147381D02*
X41155905Y-99147381D01*
X40584476Y-100147381D02*
X41013048Y-99575952D01*
X40584476Y-99147381D02*
X41155905Y-99718810D01*
D12*
X59340476Y-98179762D02*
X59197619Y-98227381D01*
X58959523Y-98227381D01*
X58864285Y-98179762D01*
X58816666Y-98132143D01*
X58769047Y-98036905D01*
X58769047Y-97941667D01*
X58816666Y-97846429D01*
X58864285Y-97798810D01*
X58959523Y-97751190D01*
X59150000Y-97703571D01*
X59245238Y-97655952D01*
X59292857Y-97608333D01*
X59340476Y-97513095D01*
X59340476Y-97417857D01*
X59292857Y-97322619D01*
X59245238Y-97275000D01*
X59150000Y-97227381D01*
X58911904Y-97227381D01*
X58769047Y-97275000D01*
X58435714Y-97227381D02*
X58197619Y-98227381D01*
X58007142Y-97513095D01*
X57816666Y-98227381D01*
X57578571Y-97227381D01*
X57435714Y-98322619D02*
X56673809Y-98322619D01*
X55911904Y-98227381D02*
X56483333Y-98227381D01*
X56197619Y-98227381D02*
X56197619Y-97227381D01*
X56292857Y-97370238D01*
X56388095Y-97465476D01*
X56483333Y-97513095D01*
X55340476Y-97655952D02*
X55435714Y-97608333D01*
X55483333Y-97560714D01*
X55530952Y-97465476D01*
X55530952Y-97417857D01*
X55483333Y-97322619D01*
X55435714Y-97275000D01*
X55340476Y-97227381D01*
X55149999Y-97227381D01*
X55054761Y-97275000D01*
X55007142Y-97322619D01*
X54959523Y-97417857D01*
X54959523Y-97465476D01*
X55007142Y-97560714D01*
X55054761Y-97608333D01*
X55149999Y-97655952D01*
X55340476Y-97655952D01*
X55435714Y-97703571D01*
X55483333Y-97751190D01*
X55530952Y-97846429D01*
X55530952Y-98036905D01*
X55483333Y-98132143D01*
X55435714Y-98179762D01*
X55340476Y-98227381D01*
X55149999Y-98227381D01*
X55054761Y-98179762D01*
X55007142Y-98132143D01*
X54959523Y-98036905D01*
X54959523Y-97846429D01*
X55007142Y-97751190D01*
X55054761Y-97703571D01*
X55149999Y-97655952D01*
D10*
X54594095Y-99861667D02*
X54117904Y-99861667D01*
X54689333Y-100147381D02*
X54356000Y-99147381D01*
X54022666Y-100147381D01*
X60205905Y-100147381D02*
X60205905Y-99147381D01*
X59634476Y-100147381D02*
X60063048Y-99575952D01*
X59634476Y-99147381D02*
X60205905Y-99718810D01*
D12*
X97990476Y-102204762D02*
X97847619Y-102252381D01*
X97609523Y-102252381D01*
X97514285Y-102204762D01*
X97466666Y-102157143D01*
X97419047Y-102061905D01*
X97419047Y-101966667D01*
X97466666Y-101871429D01*
X97514285Y-101823810D01*
X97609523Y-101776190D01*
X97800000Y-101728571D01*
X97895238Y-101680952D01*
X97942857Y-101633333D01*
X97990476Y-101538095D01*
X97990476Y-101442857D01*
X97942857Y-101347619D01*
X97895238Y-101300000D01*
X97800000Y-101252381D01*
X97561904Y-101252381D01*
X97419047Y-101300000D01*
X97085714Y-101252381D02*
X96847619Y-102252381D01*
X96657142Y-101538095D01*
X96466666Y-102252381D01*
X96228571Y-101252381D01*
X96085714Y-102347619D02*
X95323809Y-102347619D01*
X95133333Y-101347619D02*
X95085714Y-101300000D01*
X94990476Y-101252381D01*
X94752380Y-101252381D01*
X94657142Y-101300000D01*
X94609523Y-101347619D01*
X94561904Y-101442857D01*
X94561904Y-101538095D01*
X94609523Y-101680952D01*
X95180952Y-102252381D01*
X94561904Y-102252381D01*
X93942857Y-101252381D02*
X93847618Y-101252381D01*
X93752380Y-101300000D01*
X93704761Y-101347619D01*
X93657142Y-101442857D01*
X93609523Y-101633333D01*
X93609523Y-101871429D01*
X93657142Y-102061905D01*
X93704761Y-102157143D01*
X93752380Y-102204762D01*
X93847618Y-102252381D01*
X93942857Y-102252381D01*
X94038095Y-102204762D01*
X94085714Y-102157143D01*
X94133333Y-102061905D01*
X94180952Y-101871429D01*
X94180952Y-101633333D01*
X94133333Y-101442857D01*
X94085714Y-101347619D01*
X94038095Y-101300000D01*
X93942857Y-101252381D01*
X97440476Y-83404762D02*
X97297619Y-83452381D01*
X97059523Y-83452381D01*
X96964285Y-83404762D01*
X96916666Y-83357143D01*
X96869047Y-83261905D01*
X96869047Y-83166667D01*
X96916666Y-83071429D01*
X96964285Y-83023810D01*
X97059523Y-82976190D01*
X97250000Y-82928571D01*
X97345238Y-82880952D01*
X97392857Y-82833333D01*
X97440476Y-82738095D01*
X97440476Y-82642857D01*
X97392857Y-82547619D01*
X97345238Y-82500000D01*
X97250000Y-82452381D01*
X97011904Y-82452381D01*
X96869047Y-82500000D01*
X96535714Y-82452381D02*
X96297619Y-83452381D01*
X96107142Y-82738095D01*
X95916666Y-83452381D01*
X95678571Y-82452381D01*
X95535714Y-83547619D02*
X94773809Y-83547619D01*
X94011904Y-83452381D02*
X94583333Y-83452381D01*
X94297619Y-83452381D02*
X94297619Y-82452381D01*
X94392857Y-82595238D01*
X94488095Y-82690476D01*
X94583333Y-82738095D01*
X93154761Y-82452381D02*
X93345238Y-82452381D01*
X93440476Y-82500000D01*
X93488095Y-82547619D01*
X93583333Y-82690476D01*
X93630952Y-82880952D01*
X93630952Y-83261905D01*
X93583333Y-83357143D01*
X93535714Y-83404762D01*
X93440476Y-83452381D01*
X93249999Y-83452381D01*
X93154761Y-83404762D01*
X93107142Y-83357143D01*
X93059523Y-83261905D01*
X93059523Y-83023810D01*
X93107142Y-82928571D01*
X93154761Y-82880952D01*
X93249999Y-82833333D01*
X93440476Y-82833333D01*
X93535714Y-82880952D01*
X93583333Y-82928571D01*
X93630952Y-83023810D01*
D10*
X92694095Y-80811667D02*
X92217904Y-80811667D01*
X92789333Y-81097381D02*
X92456000Y-80097381D01*
X92122666Y-81097381D01*
X98305905Y-81097381D02*
X98305905Y-80097381D01*
X97734476Y-81097381D02*
X98163048Y-80525952D01*
X97734476Y-80097381D02*
X98305905Y-80668810D01*
D12*
X98190476Y-64204762D02*
X98047619Y-64252381D01*
X97809523Y-64252381D01*
X97714285Y-64204762D01*
X97666666Y-64157143D01*
X97619047Y-64061905D01*
X97619047Y-63966667D01*
X97666666Y-63871429D01*
X97714285Y-63823810D01*
X97809523Y-63776190D01*
X98000000Y-63728571D01*
X98095238Y-63680952D01*
X98142857Y-63633333D01*
X98190476Y-63538095D01*
X98190476Y-63442857D01*
X98142857Y-63347619D01*
X98095238Y-63300000D01*
X98000000Y-63252381D01*
X97761904Y-63252381D01*
X97619047Y-63300000D01*
X97285714Y-63252381D02*
X97047619Y-64252381D01*
X96857142Y-63538095D01*
X96666666Y-64252381D01*
X96428571Y-63252381D01*
X96285714Y-64347619D02*
X95523809Y-64347619D01*
X94761904Y-64252381D02*
X95333333Y-64252381D01*
X95047619Y-64252381D02*
X95047619Y-63252381D01*
X95142857Y-63395238D01*
X95238095Y-63490476D01*
X95333333Y-63538095D01*
X94380952Y-63347619D02*
X94333333Y-63300000D01*
X94238095Y-63252381D01*
X93999999Y-63252381D01*
X93904761Y-63300000D01*
X93857142Y-63347619D01*
X93809523Y-63442857D01*
X93809523Y-63538095D01*
X93857142Y-63680952D01*
X94428571Y-64252381D01*
X93809523Y-64252381D01*
D10*
X94238095Y-60166667D02*
X93761904Y-60166667D01*
X94333333Y-60452381D02*
X94000000Y-59452381D01*
X93666666Y-60452381D01*
X96661905Y-60452381D02*
X96661905Y-59452381D01*
X96090476Y-60452381D02*
X96519048Y-59880952D01*
X96090476Y-59452381D02*
X96661905Y-60023810D01*
D12*
X97514286Y-45204762D02*
X97371429Y-45252381D01*
X97133333Y-45252381D01*
X97038095Y-45204762D01*
X96990476Y-45157143D01*
X96942857Y-45061905D01*
X96942857Y-44966667D01*
X96990476Y-44871429D01*
X97038095Y-44823810D01*
X97133333Y-44776190D01*
X97323810Y-44728571D01*
X97419048Y-44680952D01*
X97466667Y-44633333D01*
X97514286Y-44538095D01*
X97514286Y-44442857D01*
X97466667Y-44347619D01*
X97419048Y-44300000D01*
X97323810Y-44252381D01*
X97085714Y-44252381D01*
X96942857Y-44300000D01*
X96609524Y-44252381D02*
X96371429Y-45252381D01*
X96180952Y-44538095D01*
X95990476Y-45252381D01*
X95752381Y-44252381D01*
X95609524Y-45347619D02*
X94847619Y-45347619D01*
X94466667Y-44680952D02*
X94561905Y-44633333D01*
X94609524Y-44585714D01*
X94657143Y-44490476D01*
X94657143Y-44442857D01*
X94609524Y-44347619D01*
X94561905Y-44300000D01*
X94466667Y-44252381D01*
X94276190Y-44252381D01*
X94180952Y-44300000D01*
X94133333Y-44347619D01*
X94085714Y-44442857D01*
X94085714Y-44490476D01*
X94133333Y-44585714D01*
X94180952Y-44633333D01*
X94276190Y-44680952D01*
X94466667Y-44680952D01*
X94561905Y-44728571D01*
X94609524Y-44776190D01*
X94657143Y-44871429D01*
X94657143Y-45061905D01*
X94609524Y-45157143D01*
X94561905Y-45204762D01*
X94466667Y-45252381D01*
X94276190Y-45252381D01*
X94180952Y-45204762D01*
X94133333Y-45157143D01*
X94085714Y-45061905D01*
X94085714Y-44871429D01*
X94133333Y-44776190D01*
X94180952Y-44728571D01*
X94276190Y-44680952D01*
D10*
X98305905Y-42997381D02*
X98305905Y-41997381D01*
X97734476Y-42997381D02*
X98163048Y-42425952D01*
X97734476Y-41997381D02*
X98305905Y-42568810D01*
D12*
X39814286Y-21979762D02*
X39671429Y-22027381D01*
X39433333Y-22027381D01*
X39338095Y-21979762D01*
X39290476Y-21932143D01*
X39242857Y-21836905D01*
X39242857Y-21741667D01*
X39290476Y-21646429D01*
X39338095Y-21598810D01*
X39433333Y-21551190D01*
X39623810Y-21503571D01*
X39719048Y-21455952D01*
X39766667Y-21408333D01*
X39814286Y-21313095D01*
X39814286Y-21217857D01*
X39766667Y-21122619D01*
X39719048Y-21075000D01*
X39623810Y-21027381D01*
X39385714Y-21027381D01*
X39242857Y-21075000D01*
X38909524Y-21027381D02*
X38671429Y-22027381D01*
X38480952Y-21313095D01*
X38290476Y-22027381D01*
X38052381Y-21027381D01*
X37909524Y-22122619D02*
X37147619Y-22122619D01*
X36385714Y-22027381D02*
X36957143Y-22027381D01*
X36671429Y-22027381D02*
X36671429Y-21027381D01*
X36766667Y-21170238D01*
X36861905Y-21265476D01*
X36957143Y-21313095D01*
D10*
X35544095Y-23661667D02*
X35067904Y-23661667D01*
X35639333Y-23947381D02*
X35306000Y-22947381D01*
X34972666Y-23947381D01*
X41155905Y-23947381D02*
X41155905Y-22947381D01*
X40584476Y-23947381D02*
X41013048Y-23375952D01*
X40584476Y-22947381D02*
X41155905Y-23518810D01*
D12*
X58864286Y-21979762D02*
X58721429Y-22027381D01*
X58483333Y-22027381D01*
X58388095Y-21979762D01*
X58340476Y-21932143D01*
X58292857Y-21836905D01*
X58292857Y-21741667D01*
X58340476Y-21646429D01*
X58388095Y-21598810D01*
X58483333Y-21551190D01*
X58673810Y-21503571D01*
X58769048Y-21455952D01*
X58816667Y-21408333D01*
X58864286Y-21313095D01*
X58864286Y-21217857D01*
X58816667Y-21122619D01*
X58769048Y-21075000D01*
X58673810Y-21027381D01*
X58435714Y-21027381D01*
X58292857Y-21075000D01*
X57959524Y-21027381D02*
X57721429Y-22027381D01*
X57530952Y-21313095D01*
X57340476Y-22027381D01*
X57102381Y-21027381D01*
X56959524Y-22122619D02*
X56197619Y-22122619D01*
X56007143Y-21122619D02*
X55959524Y-21075000D01*
X55864286Y-21027381D01*
X55626190Y-21027381D01*
X55530952Y-21075000D01*
X55483333Y-21122619D01*
X55435714Y-21217857D01*
X55435714Y-21313095D01*
X55483333Y-21455952D01*
X56054762Y-22027381D01*
X55435714Y-22027381D01*
D10*
X54594095Y-23661667D02*
X54117904Y-23661667D01*
X54689333Y-23947381D02*
X54356000Y-22947381D01*
X54022666Y-23947381D01*
X60205905Y-23947381D02*
X60205905Y-22947381D01*
X59634476Y-23947381D02*
X60063048Y-23375952D01*
X59634476Y-22947381D02*
X60205905Y-23518810D01*
D12*
X77914286Y-26154762D02*
X77771429Y-26202381D01*
X77533333Y-26202381D01*
X77438095Y-26154762D01*
X77390476Y-26107143D01*
X77342857Y-26011905D01*
X77342857Y-25916667D01*
X77390476Y-25821429D01*
X77438095Y-25773810D01*
X77533333Y-25726190D01*
X77723810Y-25678571D01*
X77819048Y-25630952D01*
X77866667Y-25583333D01*
X77914286Y-25488095D01*
X77914286Y-25392857D01*
X77866667Y-25297619D01*
X77819048Y-25250000D01*
X77723810Y-25202381D01*
X77485714Y-25202381D01*
X77342857Y-25250000D01*
X77009524Y-25202381D02*
X76771429Y-26202381D01*
X76580952Y-25488095D01*
X76390476Y-26202381D01*
X76152381Y-25202381D01*
X76009524Y-26297619D02*
X75247619Y-26297619D01*
X75104762Y-25202381D02*
X74485714Y-25202381D01*
X74819048Y-25583333D01*
X74676190Y-25583333D01*
X74580952Y-25630952D01*
X74533333Y-25678571D01*
X74485714Y-25773810D01*
X74485714Y-26011905D01*
X74533333Y-26107143D01*
X74580952Y-26154762D01*
X74676190Y-26202381D01*
X74961905Y-26202381D01*
X75057143Y-26154762D01*
X75104762Y-26107143D01*
D10*
X73644095Y-23661667D02*
X73167904Y-23661667D01*
X73739333Y-23947381D02*
X73406000Y-22947381D01*
X73072666Y-23947381D01*
X79255905Y-23947381D02*
X79255905Y-22947381D01*
X78684476Y-23947381D02*
X79113048Y-23375952D01*
X78684476Y-22947381D02*
X79255905Y-23518810D01*
D12*
X96964286Y-21979762D02*
X96821429Y-22027381D01*
X96583333Y-22027381D01*
X96488095Y-21979762D01*
X96440476Y-21932143D01*
X96392857Y-21836905D01*
X96392857Y-21741667D01*
X96440476Y-21646429D01*
X96488095Y-21598810D01*
X96583333Y-21551190D01*
X96773810Y-21503571D01*
X96869048Y-21455952D01*
X96916667Y-21408333D01*
X96964286Y-21313095D01*
X96964286Y-21217857D01*
X96916667Y-21122619D01*
X96869048Y-21075000D01*
X96773810Y-21027381D01*
X96535714Y-21027381D01*
X96392857Y-21075000D01*
X96059524Y-21027381D02*
X95821429Y-22027381D01*
X95630952Y-21313095D01*
X95440476Y-22027381D01*
X95202381Y-21027381D01*
X95059524Y-22122619D02*
X94297619Y-22122619D01*
X93630952Y-21360714D02*
X93630952Y-22027381D01*
X93869048Y-20979762D02*
X94107143Y-21694048D01*
X93488095Y-21694048D01*
D10*
X92694095Y-23661667D02*
X92217904Y-23661667D01*
X92789333Y-23947381D02*
X92456000Y-22947381D01*
X92122666Y-23947381D01*
X98305905Y-23947381D02*
X98305905Y-22947381D01*
X97734476Y-23947381D02*
X98163048Y-23375952D01*
X97734476Y-22947381D02*
X98305905Y-23518810D01*
D12*
X39814286Y-41029762D02*
X39671429Y-41077381D01*
X39433333Y-41077381D01*
X39338095Y-41029762D01*
X39290476Y-40982143D01*
X39242857Y-40886905D01*
X39242857Y-40791667D01*
X39290476Y-40696429D01*
X39338095Y-40648810D01*
X39433333Y-40601190D01*
X39623810Y-40553571D01*
X39719048Y-40505952D01*
X39766667Y-40458333D01*
X39814286Y-40363095D01*
X39814286Y-40267857D01*
X39766667Y-40172619D01*
X39719048Y-40125000D01*
X39623810Y-40077381D01*
X39385714Y-40077381D01*
X39242857Y-40125000D01*
X38909524Y-40077381D02*
X38671429Y-41077381D01*
X38480952Y-40363095D01*
X38290476Y-41077381D01*
X38052381Y-40077381D01*
X37909524Y-41172619D02*
X37147619Y-41172619D01*
X36433333Y-40077381D02*
X36909524Y-40077381D01*
X36957143Y-40553571D01*
X36909524Y-40505952D01*
X36814286Y-40458333D01*
X36576190Y-40458333D01*
X36480952Y-40505952D01*
X36433333Y-40553571D01*
X36385714Y-40648810D01*
X36385714Y-40886905D01*
X36433333Y-40982143D01*
X36480952Y-41029762D01*
X36576190Y-41077381D01*
X36814286Y-41077381D01*
X36909524Y-41029762D01*
X36957143Y-40982143D01*
D10*
X35544095Y-42711667D02*
X35067904Y-42711667D01*
X35639333Y-42997381D02*
X35306000Y-41997381D01*
X34972666Y-42997381D01*
X41155905Y-42997381D02*
X41155905Y-41997381D01*
X40584476Y-42997381D02*
X41013048Y-42425952D01*
X40584476Y-41997381D02*
X41155905Y-42568810D01*
D12*
X58864286Y-41029762D02*
X58721429Y-41077381D01*
X58483333Y-41077381D01*
X58388095Y-41029762D01*
X58340476Y-40982143D01*
X58292857Y-40886905D01*
X58292857Y-40791667D01*
X58340476Y-40696429D01*
X58388095Y-40648810D01*
X58483333Y-40601190D01*
X58673810Y-40553571D01*
X58769048Y-40505952D01*
X58816667Y-40458333D01*
X58864286Y-40363095D01*
X58864286Y-40267857D01*
X58816667Y-40172619D01*
X58769048Y-40125000D01*
X58673810Y-40077381D01*
X58435714Y-40077381D01*
X58292857Y-40125000D01*
X57959524Y-40077381D02*
X57721429Y-41077381D01*
X57530952Y-40363095D01*
X57340476Y-41077381D01*
X57102381Y-40077381D01*
X56959524Y-41172619D02*
X56197619Y-41172619D01*
X55530952Y-40077381D02*
X55721429Y-40077381D01*
X55816667Y-40125000D01*
X55864286Y-40172619D01*
X55959524Y-40315476D01*
X56007143Y-40505952D01*
X56007143Y-40886905D01*
X55959524Y-40982143D01*
X55911905Y-41029762D01*
X55816667Y-41077381D01*
X55626190Y-41077381D01*
X55530952Y-41029762D01*
X55483333Y-40982143D01*
X55435714Y-40886905D01*
X55435714Y-40648810D01*
X55483333Y-40553571D01*
X55530952Y-40505952D01*
X55626190Y-40458333D01*
X55816667Y-40458333D01*
X55911905Y-40505952D01*
X55959524Y-40553571D01*
X56007143Y-40648810D01*
D10*
X54594095Y-42711667D02*
X54117904Y-42711667D01*
X54689333Y-42997381D02*
X54356000Y-41997381D01*
X54022666Y-42997381D01*
D12*
X81314286Y-47004762D02*
X81171429Y-47052381D01*
X80933333Y-47052381D01*
X80838095Y-47004762D01*
X80790476Y-46957143D01*
X80742857Y-46861905D01*
X80742857Y-46766667D01*
X80790476Y-46671429D01*
X80838095Y-46623810D01*
X80933333Y-46576190D01*
X81123810Y-46528571D01*
X81219048Y-46480952D01*
X81266667Y-46433333D01*
X81314286Y-46338095D01*
X81314286Y-46242857D01*
X81266667Y-46147619D01*
X81219048Y-46100000D01*
X81123810Y-46052381D01*
X80885714Y-46052381D01*
X80742857Y-46100000D01*
X80409524Y-46052381D02*
X80171429Y-47052381D01*
X79980952Y-46338095D01*
X79790476Y-47052381D01*
X79552381Y-46052381D01*
X79409524Y-47147619D02*
X78647619Y-47147619D01*
X78504762Y-46052381D02*
X77838095Y-46052381D01*
X78266667Y-47052381D01*
D10*
X73644095Y-42711667D02*
X73167904Y-42711667D01*
X73739333Y-42997381D02*
X73406000Y-41997381D01*
X73072666Y-42997381D01*
X79255905Y-42997381D02*
X79255905Y-41997381D01*
X78684476Y-42997381D02*
X79113048Y-42425952D01*
X78684476Y-41997381D02*
X79255905Y-42568810D01*
D12*
X39814286Y-60079762D02*
X39671429Y-60127381D01*
X39433333Y-60127381D01*
X39338095Y-60079762D01*
X39290476Y-60032143D01*
X39242857Y-59936905D01*
X39242857Y-59841667D01*
X39290476Y-59746429D01*
X39338095Y-59698810D01*
X39433333Y-59651190D01*
X39623810Y-59603571D01*
X39719048Y-59555952D01*
X39766667Y-59508333D01*
X39814286Y-59413095D01*
X39814286Y-59317857D01*
X39766667Y-59222619D01*
X39719048Y-59175000D01*
X39623810Y-59127381D01*
X39385714Y-59127381D01*
X39242857Y-59175000D01*
X38909524Y-59127381D02*
X38671429Y-60127381D01*
X38480952Y-59413095D01*
X38290476Y-60127381D01*
X38052381Y-59127381D01*
X37909524Y-60222619D02*
X37147619Y-60222619D01*
X36861905Y-60127381D02*
X36671429Y-60127381D01*
X36576190Y-60079762D01*
X36528571Y-60032143D01*
X36433333Y-59889286D01*
X36385714Y-59698810D01*
X36385714Y-59317857D01*
X36433333Y-59222619D01*
X36480952Y-59175000D01*
X36576190Y-59127381D01*
X36766667Y-59127381D01*
X36861905Y-59175000D01*
X36909524Y-59222619D01*
X36957143Y-59317857D01*
X36957143Y-59555952D01*
X36909524Y-59651190D01*
X36861905Y-59698810D01*
X36766667Y-59746429D01*
X36576190Y-59746429D01*
X36480952Y-59698810D01*
X36433333Y-59651190D01*
X36385714Y-59555952D01*
D10*
X35544095Y-61761667D02*
X35067904Y-61761667D01*
X35639333Y-62047381D02*
X35306000Y-61047381D01*
X34972666Y-62047381D01*
X41155905Y-62047381D02*
X41155905Y-61047381D01*
X40584476Y-62047381D02*
X41013048Y-61475952D01*
X40584476Y-61047381D02*
X41155905Y-61618810D01*
D12*
X59340476Y-60079762D02*
X59197619Y-60127381D01*
X58959523Y-60127381D01*
X58864285Y-60079762D01*
X58816666Y-60032143D01*
X58769047Y-59936905D01*
X58769047Y-59841667D01*
X58816666Y-59746429D01*
X58864285Y-59698810D01*
X58959523Y-59651190D01*
X59150000Y-59603571D01*
X59245238Y-59555952D01*
X59292857Y-59508333D01*
X59340476Y-59413095D01*
X59340476Y-59317857D01*
X59292857Y-59222619D01*
X59245238Y-59175000D01*
X59150000Y-59127381D01*
X58911904Y-59127381D01*
X58769047Y-59175000D01*
X58435714Y-59127381D02*
X58197619Y-60127381D01*
X58007142Y-59413095D01*
X57816666Y-60127381D01*
X57578571Y-59127381D01*
X57435714Y-60222619D02*
X56673809Y-60222619D01*
X55911904Y-60127381D02*
X56483333Y-60127381D01*
X56197619Y-60127381D02*
X56197619Y-59127381D01*
X56292857Y-59270238D01*
X56388095Y-59365476D01*
X56483333Y-59413095D01*
X55292857Y-59127381D02*
X55197618Y-59127381D01*
X55102380Y-59175000D01*
X55054761Y-59222619D01*
X55007142Y-59317857D01*
X54959523Y-59508333D01*
X54959523Y-59746429D01*
X55007142Y-59936905D01*
X55054761Y-60032143D01*
X55102380Y-60079762D01*
X55197618Y-60127381D01*
X55292857Y-60127381D01*
X55388095Y-60079762D01*
X55435714Y-60032143D01*
X55483333Y-59936905D01*
X55530952Y-59746429D01*
X55530952Y-59508333D01*
X55483333Y-59317857D01*
X55435714Y-59222619D01*
X55388095Y-59175000D01*
X55292857Y-59127381D01*
D10*
X54594095Y-61761667D02*
X54117904Y-61761667D01*
X54689333Y-62047381D02*
X54356000Y-61047381D01*
X54022666Y-62047381D01*
X60205905Y-62047381D02*
X60205905Y-61047381D01*
X59634476Y-62047381D02*
X60063048Y-61475952D01*
X59634476Y-61047381D02*
X60205905Y-61618810D01*
D12*
X78390476Y-60079762D02*
X78247619Y-60127381D01*
X78009523Y-60127381D01*
X77914285Y-60079762D01*
X77866666Y-60032143D01*
X77819047Y-59936905D01*
X77819047Y-59841667D01*
X77866666Y-59746429D01*
X77914285Y-59698810D01*
X78009523Y-59651190D01*
X78200000Y-59603571D01*
X78295238Y-59555952D01*
X78342857Y-59508333D01*
X78390476Y-59413095D01*
X78390476Y-59317857D01*
X78342857Y-59222619D01*
X78295238Y-59175000D01*
X78200000Y-59127381D01*
X77961904Y-59127381D01*
X77819047Y-59175000D01*
X77485714Y-59127381D02*
X77247619Y-60127381D01*
X77057142Y-59413095D01*
X76866666Y-60127381D01*
X76628571Y-59127381D01*
X76485714Y-60222619D02*
X75723809Y-60222619D01*
X74961904Y-60127381D02*
X75533333Y-60127381D01*
X75247619Y-60127381D02*
X75247619Y-59127381D01*
X75342857Y-59270238D01*
X75438095Y-59365476D01*
X75533333Y-59413095D01*
X74009523Y-60127381D02*
X74580952Y-60127381D01*
X74295238Y-60127381D02*
X74295238Y-59127381D01*
X74390476Y-59270238D01*
X74485714Y-59365476D01*
X74580952Y-59413095D01*
D10*
X73644095Y-61761667D02*
X73167904Y-61761667D01*
X73739333Y-62047381D02*
X73406000Y-61047381D01*
X73072666Y-62047381D01*
X79255905Y-62047381D02*
X79255905Y-61047381D01*
X78684476Y-62047381D02*
X79113048Y-61475952D01*
X78684476Y-61047381D02*
X79255905Y-61618810D01*
D12*
X40290476Y-79129762D02*
X40147619Y-79177381D01*
X39909523Y-79177381D01*
X39814285Y-79129762D01*
X39766666Y-79082143D01*
X39719047Y-78986905D01*
X39719047Y-78891667D01*
X39766666Y-78796429D01*
X39814285Y-78748810D01*
X39909523Y-78701190D01*
X40100000Y-78653571D01*
X40195238Y-78605952D01*
X40242857Y-78558333D01*
X40290476Y-78463095D01*
X40290476Y-78367857D01*
X40242857Y-78272619D01*
X40195238Y-78225000D01*
X40100000Y-78177381D01*
X39861904Y-78177381D01*
X39719047Y-78225000D01*
X39385714Y-78177381D02*
X39147619Y-79177381D01*
X38957142Y-78463095D01*
X38766666Y-79177381D01*
X38528571Y-78177381D01*
X38385714Y-79272619D02*
X37623809Y-79272619D01*
X36861904Y-79177381D02*
X37433333Y-79177381D01*
X37147619Y-79177381D02*
X37147619Y-78177381D01*
X37242857Y-78320238D01*
X37338095Y-78415476D01*
X37433333Y-78463095D01*
X36528571Y-78177381D02*
X35909523Y-78177381D01*
X36242857Y-78558333D01*
X36099999Y-78558333D01*
X36004761Y-78605952D01*
X35957142Y-78653571D01*
X35909523Y-78748810D01*
X35909523Y-78986905D01*
X35957142Y-79082143D01*
X36004761Y-79129762D01*
X36099999Y-79177381D01*
X36385714Y-79177381D01*
X36480952Y-79129762D01*
X36528571Y-79082143D01*
D10*
X35544095Y-80811667D02*
X35067904Y-80811667D01*
X35639333Y-81097381D02*
X35306000Y-80097381D01*
X34972666Y-81097381D01*
X41155905Y-81097381D02*
X41155905Y-80097381D01*
X40584476Y-81097381D02*
X41013048Y-80525952D01*
X40584476Y-80097381D02*
X41155905Y-80668810D01*
D12*
X59340476Y-79129762D02*
X59197619Y-79177381D01*
X58959523Y-79177381D01*
X58864285Y-79129762D01*
X58816666Y-79082143D01*
X58769047Y-78986905D01*
X58769047Y-78891667D01*
X58816666Y-78796429D01*
X58864285Y-78748810D01*
X58959523Y-78701190D01*
X59150000Y-78653571D01*
X59245238Y-78605952D01*
X59292857Y-78558333D01*
X59340476Y-78463095D01*
X59340476Y-78367857D01*
X59292857Y-78272619D01*
X59245238Y-78225000D01*
X59150000Y-78177381D01*
X58911904Y-78177381D01*
X58769047Y-78225000D01*
X58435714Y-78177381D02*
X58197619Y-79177381D01*
X58007142Y-78463095D01*
X57816666Y-79177381D01*
X57578571Y-78177381D01*
X57435714Y-79272619D02*
X56673809Y-79272619D01*
X55911904Y-79177381D02*
X56483333Y-79177381D01*
X56197619Y-79177381D02*
X56197619Y-78177381D01*
X56292857Y-78320238D01*
X56388095Y-78415476D01*
X56483333Y-78463095D01*
X55054761Y-78510714D02*
X55054761Y-79177381D01*
X55292857Y-78129762D02*
X55530952Y-78844048D01*
X54911904Y-78844048D01*
D10*
X54594095Y-80811667D02*
X54117904Y-80811667D01*
X54689333Y-81097381D02*
X54356000Y-80097381D01*
X54022666Y-81097381D01*
X60205905Y-81097381D02*
X60205905Y-80097381D01*
X59634476Y-81097381D02*
X60063048Y-80525952D01*
X59634476Y-80097381D02*
X60205905Y-80668810D01*
D12*
X78390476Y-79129762D02*
X78247619Y-79177381D01*
X78009523Y-79177381D01*
X77914285Y-79129762D01*
X77866666Y-79082143D01*
X77819047Y-78986905D01*
X77819047Y-78891667D01*
X77866666Y-78796429D01*
X77914285Y-78748810D01*
X78009523Y-78701190D01*
X78200000Y-78653571D01*
X78295238Y-78605952D01*
X78342857Y-78558333D01*
X78390476Y-78463095D01*
X78390476Y-78367857D01*
X78342857Y-78272619D01*
X78295238Y-78225000D01*
X78200000Y-78177381D01*
X77961904Y-78177381D01*
X77819047Y-78225000D01*
X77485714Y-78177381D02*
X77247619Y-79177381D01*
X77057142Y-78463095D01*
X76866666Y-79177381D01*
X76628571Y-78177381D01*
X76485714Y-79272619D02*
X75723809Y-79272619D01*
X74961904Y-79177381D02*
X75533333Y-79177381D01*
X75247619Y-79177381D02*
X75247619Y-78177381D01*
X75342857Y-78320238D01*
X75438095Y-78415476D01*
X75533333Y-78463095D01*
X74057142Y-78177381D02*
X74533333Y-78177381D01*
X74580952Y-78653571D01*
X74533333Y-78605952D01*
X74438095Y-78558333D01*
X74199999Y-78558333D01*
X74104761Y-78605952D01*
X74057142Y-78653571D01*
X74009523Y-78748810D01*
X74009523Y-78986905D01*
X74057142Y-79082143D01*
X74104761Y-79129762D01*
X74199999Y-79177381D01*
X74438095Y-79177381D01*
X74533333Y-79129762D01*
X74580952Y-79082143D01*
D10*
X73644095Y-80811667D02*
X73167904Y-80811667D01*
X73739333Y-81097381D02*
X73406000Y-80097381D01*
X73072666Y-81097381D01*
X79255905Y-81097381D02*
X79255905Y-80097381D01*
X78684476Y-81097381D02*
X79113048Y-80525952D01*
X78684476Y-80097381D02*
X79255905Y-80668810D01*
D12*
X51577381Y-98179762D02*
X51434524Y-98227381D01*
X51196428Y-98227381D01*
X51101190Y-98179762D01*
X51053571Y-98132143D01*
X51005952Y-98036905D01*
X51005952Y-97941667D01*
X51053571Y-97846429D01*
X51101190Y-97798810D01*
X51196428Y-97751190D01*
X51386905Y-97703571D01*
X51482143Y-97655952D01*
X51529762Y-97608333D01*
X51577381Y-97513095D01*
X51577381Y-97417857D01*
X51529762Y-97322619D01*
X51482143Y-97275000D01*
X51386905Y-97227381D01*
X51148809Y-97227381D01*
X51005952Y-97275000D01*
X50672619Y-97227381D02*
X50434524Y-98227381D01*
X50244047Y-97513095D01*
X50053571Y-98227381D01*
X49815476Y-97227381D01*
X49672619Y-98322619D02*
X48910714Y-98322619D01*
X48720238Y-97322619D02*
X48672619Y-97275000D01*
X48577381Y-97227381D01*
X48339285Y-97227381D01*
X48244047Y-97275000D01*
X48196428Y-97322619D01*
X48148809Y-97417857D01*
X48148809Y-97513095D01*
X48196428Y-97655952D01*
X48767857Y-98227381D01*
X48148809Y-98227381D01*
X47720238Y-97227381D02*
X47720238Y-98036905D01*
X47672619Y-98132143D01*
X47625000Y-98179762D01*
X47529762Y-98227381D01*
X47339285Y-98227381D01*
X47244047Y-98179762D01*
X47196428Y-98132143D01*
X47148809Y-98036905D01*
X47148809Y-97227381D01*
X46910714Y-98322619D02*
X46148809Y-98322619D01*
X45720238Y-97227381D02*
X45624999Y-97227381D01*
X45529761Y-97275000D01*
X45482142Y-97322619D01*
X45434523Y-97417857D01*
X45386904Y-97608333D01*
X45386904Y-97846429D01*
X45434523Y-98036905D01*
X45482142Y-98132143D01*
X45529761Y-98179762D01*
X45624999Y-98227381D01*
X45720238Y-98227381D01*
X45815476Y-98179762D01*
X45863095Y-98132143D01*
X45910714Y-98036905D01*
X45958333Y-97846429D01*
X45958333Y-97608333D01*
X45910714Y-97417857D01*
X45863095Y-97322619D01*
X45815476Y-97275000D01*
X45720238Y-97227381D01*
X45196428Y-98322619D02*
X44434523Y-98322619D01*
X43672618Y-98227381D02*
X44244047Y-98227381D01*
X43958333Y-98227381D02*
X43958333Y-97227381D01*
X44053571Y-97370238D01*
X44148809Y-97465476D01*
X44244047Y-97513095D01*
D10*
X45069095Y-99861667D02*
X44592904Y-99861667D01*
X45164333Y-100147381D02*
X44831000Y-99147381D01*
X44497666Y-100147381D01*
X50680905Y-100147381D02*
X50680905Y-99147381D01*
X50109476Y-100147381D02*
X50538048Y-99575952D01*
X50109476Y-99147381D02*
X50680905Y-99718810D01*
D12*
X78390476Y-98179762D02*
X78247619Y-98227381D01*
X78009523Y-98227381D01*
X77914285Y-98179762D01*
X77866666Y-98132143D01*
X77819047Y-98036905D01*
X77819047Y-97941667D01*
X77866666Y-97846429D01*
X77914285Y-97798810D01*
X78009523Y-97751190D01*
X78200000Y-97703571D01*
X78295238Y-97655952D01*
X78342857Y-97608333D01*
X78390476Y-97513095D01*
X78390476Y-97417857D01*
X78342857Y-97322619D01*
X78295238Y-97275000D01*
X78200000Y-97227381D01*
X77961904Y-97227381D01*
X77819047Y-97275000D01*
X77485714Y-97227381D02*
X77247619Y-98227381D01*
X77057142Y-97513095D01*
X76866666Y-98227381D01*
X76628571Y-97227381D01*
X76485714Y-98322619D02*
X75723809Y-98322619D01*
X74961904Y-98227381D02*
X75533333Y-98227381D01*
X75247619Y-98227381D02*
X75247619Y-97227381D01*
X75342857Y-97370238D01*
X75438095Y-97465476D01*
X75533333Y-97513095D01*
X74485714Y-98227381D02*
X74295238Y-98227381D01*
X74199999Y-98179762D01*
X74152380Y-98132143D01*
X74057142Y-97989286D01*
X74009523Y-97798810D01*
X74009523Y-97417857D01*
X74057142Y-97322619D01*
X74104761Y-97275000D01*
X74199999Y-97227381D01*
X74390476Y-97227381D01*
X74485714Y-97275000D01*
X74533333Y-97322619D01*
X74580952Y-97417857D01*
X74580952Y-97655952D01*
X74533333Y-97751190D01*
X74485714Y-97798810D01*
X74390476Y-97846429D01*
X74199999Y-97846429D01*
X74104761Y-97798810D01*
X74057142Y-97751190D01*
X74009523Y-97655952D01*
D10*
X73644095Y-99861667D02*
X73167904Y-99861667D01*
X73739333Y-100147381D02*
X73406000Y-99147381D01*
X73072666Y-100147381D01*
X79255905Y-100147381D02*
X79255905Y-99147381D01*
X78684476Y-100147381D02*
X79113048Y-99575952D01*
X78684476Y-99147381D02*
X79255905Y-99718810D01*
X64666666Y-29357143D02*
X64714285Y-29404762D01*
X64857142Y-29452381D01*
X64952380Y-29452381D01*
X65095238Y-29404762D01*
X65190476Y-29309524D01*
X65238095Y-29214286D01*
X65285714Y-29023810D01*
X65285714Y-28880952D01*
X65238095Y-28690476D01*
X65190476Y-28595238D01*
X65095238Y-28500000D01*
X64952380Y-28452381D01*
X64857142Y-28452381D01*
X64714285Y-28500000D01*
X64666666Y-28547619D01*
X63714285Y-29452381D02*
X64285714Y-29452381D01*
X64000000Y-29452381D02*
X64000000Y-28452381D01*
X64095238Y-28595238D01*
X64190476Y-28690476D01*
X64285714Y-28738095D01*
X58166666Y-34157143D02*
X58214285Y-34204762D01*
X58357142Y-34252381D01*
X58452380Y-34252381D01*
X58595238Y-34204762D01*
X58690476Y-34109524D01*
X58738095Y-34014286D01*
X58785714Y-33823810D01*
X58785714Y-33680952D01*
X58738095Y-33490476D01*
X58690476Y-33395238D01*
X58595238Y-33300000D01*
X58452380Y-33252381D01*
X58357142Y-33252381D01*
X58214285Y-33300000D01*
X58166666Y-33347619D01*
X57785714Y-33347619D02*
X57738095Y-33300000D01*
X57642857Y-33252381D01*
X57404761Y-33252381D01*
X57309523Y-33300000D01*
X57261904Y-33347619D01*
X57214285Y-33442857D01*
X57214285Y-33538095D01*
X57261904Y-33680952D01*
X57833333Y-34252381D01*
X57214285Y-34252381D01*
X72166666Y-31557143D02*
X72214285Y-31604762D01*
X72357142Y-31652381D01*
X72452380Y-31652381D01*
X72595238Y-31604762D01*
X72690476Y-31509524D01*
X72738095Y-31414286D01*
X72785714Y-31223810D01*
X72785714Y-31080952D01*
X72738095Y-30890476D01*
X72690476Y-30795238D01*
X72595238Y-30700000D01*
X72452380Y-30652381D01*
X72357142Y-30652381D01*
X72214285Y-30700000D01*
X72166666Y-30747619D01*
X71833333Y-30652381D02*
X71214285Y-30652381D01*
X71547619Y-31033333D01*
X71404761Y-31033333D01*
X71309523Y-31080952D01*
X71261904Y-31128571D01*
X71214285Y-31223810D01*
X71214285Y-31461905D01*
X71261904Y-31557143D01*
X71309523Y-31604762D01*
X71404761Y-31652381D01*
X71690476Y-31652381D01*
X71785714Y-31604762D01*
X71833333Y-31557143D01*
X73166666Y-48557143D02*
X73214285Y-48604762D01*
X73357142Y-48652381D01*
X73452380Y-48652381D01*
X73595238Y-48604762D01*
X73690476Y-48509524D01*
X73738095Y-48414286D01*
X73785714Y-48223810D01*
X73785714Y-48080952D01*
X73738095Y-47890476D01*
X73690476Y-47795238D01*
X73595238Y-47700000D01*
X73452380Y-47652381D01*
X73357142Y-47652381D01*
X73214285Y-47700000D01*
X73166666Y-47747619D01*
X72309523Y-47985714D02*
X72309523Y-48652381D01*
X72547619Y-47604762D02*
X72785714Y-48319048D01*
X72166666Y-48319048D01*
X74366666Y-37957143D02*
X74414285Y-38004762D01*
X74557142Y-38052381D01*
X74652380Y-38052381D01*
X74795238Y-38004762D01*
X74890476Y-37909524D01*
X74938095Y-37814286D01*
X74985714Y-37623810D01*
X74985714Y-37480952D01*
X74938095Y-37290476D01*
X74890476Y-37195238D01*
X74795238Y-37100000D01*
X74652380Y-37052381D01*
X74557142Y-37052381D01*
X74414285Y-37100000D01*
X74366666Y-37147619D01*
X73461904Y-37052381D02*
X73938095Y-37052381D01*
X73985714Y-37528571D01*
X73938095Y-37480952D01*
X73842857Y-37433333D01*
X73604761Y-37433333D01*
X73509523Y-37480952D01*
X73461904Y-37528571D01*
X73414285Y-37623810D01*
X73414285Y-37861905D01*
X73461904Y-37957143D01*
X73509523Y-38004762D01*
X73604761Y-38052381D01*
X73842857Y-38052381D01*
X73938095Y-38004762D01*
X73985714Y-37957143D01*
X63166666Y-56357143D02*
X63214285Y-56404762D01*
X63357142Y-56452381D01*
X63452380Y-56452381D01*
X63595238Y-56404762D01*
X63690476Y-56309524D01*
X63738095Y-56214286D01*
X63785714Y-56023810D01*
X63785714Y-55880952D01*
X63738095Y-55690476D01*
X63690476Y-55595238D01*
X63595238Y-55500000D01*
X63452380Y-55452381D01*
X63357142Y-55452381D01*
X63214285Y-55500000D01*
X63166666Y-55547619D01*
X62309523Y-55452381D02*
X62500000Y-55452381D01*
X62595238Y-55500000D01*
X62642857Y-55547619D01*
X62738095Y-55690476D01*
X62785714Y-55880952D01*
X62785714Y-56261905D01*
X62738095Y-56357143D01*
X62690476Y-56404762D01*
X62595238Y-56452381D01*
X62404761Y-56452381D01*
X62309523Y-56404762D01*
X62261904Y-56357143D01*
X62214285Y-56261905D01*
X62214285Y-56023810D01*
X62261904Y-55928571D01*
X62309523Y-55880952D01*
X62404761Y-55833333D01*
X62595238Y-55833333D01*
X62690476Y-55880952D01*
X62738095Y-55928571D01*
X62785714Y-56023810D01*
X70166666Y-56157143D02*
X70214285Y-56204762D01*
X70357142Y-56252381D01*
X70452380Y-56252381D01*
X70595238Y-56204762D01*
X70690476Y-56109524D01*
X70738095Y-56014286D01*
X70785714Y-55823810D01*
X70785714Y-55680952D01*
X70738095Y-55490476D01*
X70690476Y-55395238D01*
X70595238Y-55300000D01*
X70452380Y-55252381D01*
X70357142Y-55252381D01*
X70214285Y-55300000D01*
X70166666Y-55347619D01*
X69833333Y-55252381D02*
X69166666Y-55252381D01*
X69595238Y-56252381D01*
X78566666Y-44957143D02*
X78614285Y-45004762D01*
X78757142Y-45052381D01*
X78852380Y-45052381D01*
X78995238Y-45004762D01*
X79090476Y-44909524D01*
X79138095Y-44814286D01*
X79185714Y-44623810D01*
X79185714Y-44480952D01*
X79138095Y-44290476D01*
X79090476Y-44195238D01*
X78995238Y-44100000D01*
X78852380Y-44052381D01*
X78757142Y-44052381D01*
X78614285Y-44100000D01*
X78566666Y-44147619D01*
X77995238Y-44480952D02*
X78090476Y-44433333D01*
X78138095Y-44385714D01*
X78185714Y-44290476D01*
X78185714Y-44242857D01*
X78138095Y-44147619D01*
X78090476Y-44100000D01*
X77995238Y-44052381D01*
X77804761Y-44052381D01*
X77709523Y-44100000D01*
X77661904Y-44147619D01*
X77614285Y-44242857D01*
X77614285Y-44290476D01*
X77661904Y-44385714D01*
X77709523Y-44433333D01*
X77804761Y-44480952D01*
X77995238Y-44480952D01*
X78090476Y-44528571D01*
X78138095Y-44576190D01*
X78185714Y-44671429D01*
X78185714Y-44861905D01*
X78138095Y-44957143D01*
X78090476Y-45004762D01*
X77995238Y-45052381D01*
X77804761Y-45052381D01*
X77709523Y-45004762D01*
X77661904Y-44957143D01*
X77614285Y-44861905D01*
X77614285Y-44671429D01*
X77661904Y-44576190D01*
X77709523Y-44528571D01*
X77804761Y-44480952D01*
X66166666Y-33357143D02*
X66214285Y-33404762D01*
X66357142Y-33452381D01*
X66452380Y-33452381D01*
X66595238Y-33404762D01*
X66690476Y-33309524D01*
X66738095Y-33214286D01*
X66785714Y-33023810D01*
X66785714Y-32880952D01*
X66738095Y-32690476D01*
X66690476Y-32595238D01*
X66595238Y-32500000D01*
X66452380Y-32452381D01*
X66357142Y-32452381D01*
X66214285Y-32500000D01*
X66166666Y-32547619D01*
X65690476Y-33452381D02*
X65500000Y-33452381D01*
X65404761Y-33404762D01*
X65357142Y-33357143D01*
X65261904Y-33214286D01*
X65214285Y-33023810D01*
X65214285Y-32642857D01*
X65261904Y-32547619D01*
X65309523Y-32500000D01*
X65404761Y-32452381D01*
X65595238Y-32452381D01*
X65690476Y-32500000D01*
X65738095Y-32547619D01*
X65785714Y-32642857D01*
X65785714Y-32880952D01*
X65738095Y-32976190D01*
X65690476Y-33023810D01*
X65595238Y-33071429D01*
X65404761Y-33071429D01*
X65309523Y-33023810D01*
X65261904Y-32976190D01*
X65214285Y-32880952D01*
X52842857Y-73357143D02*
X52890476Y-73404762D01*
X53033333Y-73452381D01*
X53128571Y-73452381D01*
X53271429Y-73404762D01*
X53366667Y-73309524D01*
X53414286Y-73214286D01*
X53461905Y-73023810D01*
X53461905Y-72880952D01*
X53414286Y-72690476D01*
X53366667Y-72595238D01*
X53271429Y-72500000D01*
X53128571Y-72452381D01*
X53033333Y-72452381D01*
X52890476Y-72500000D01*
X52842857Y-72547619D01*
X51890476Y-73452381D02*
X52461905Y-73452381D01*
X52176191Y-73452381D02*
X52176191Y-72452381D01*
X52271429Y-72595238D01*
X52366667Y-72690476D01*
X52461905Y-72738095D01*
X51271429Y-72452381D02*
X51176190Y-72452381D01*
X51080952Y-72500000D01*
X51033333Y-72547619D01*
X50985714Y-72642857D01*
X50938095Y-72833333D01*
X50938095Y-73071429D01*
X50985714Y-73261905D01*
X51033333Y-73357143D01*
X51080952Y-73404762D01*
X51176190Y-73452381D01*
X51271429Y-73452381D01*
X51366667Y-73404762D01*
X51414286Y-73357143D01*
X51461905Y-73261905D01*
X51509524Y-73071429D01*
X51509524Y-72833333D01*
X51461905Y-72642857D01*
X51414286Y-72547619D01*
X51366667Y-72500000D01*
X51271429Y-72452381D01*
X46842857Y-86157143D02*
X46890476Y-86204762D01*
X47033333Y-86252381D01*
X47128571Y-86252381D01*
X47271429Y-86204762D01*
X47366667Y-86109524D01*
X47414286Y-86014286D01*
X47461905Y-85823810D01*
X47461905Y-85680952D01*
X47414286Y-85490476D01*
X47366667Y-85395238D01*
X47271429Y-85300000D01*
X47128571Y-85252381D01*
X47033333Y-85252381D01*
X46890476Y-85300000D01*
X46842857Y-85347619D01*
X45890476Y-86252381D02*
X46461905Y-86252381D01*
X46176191Y-86252381D02*
X46176191Y-85252381D01*
X46271429Y-85395238D01*
X46366667Y-85490476D01*
X46461905Y-85538095D01*
X44938095Y-86252381D02*
X45509524Y-86252381D01*
X45223810Y-86252381D02*
X45223810Y-85252381D01*
X45319048Y-85395238D01*
X45414286Y-85490476D01*
X45509524Y-85538095D01*
X65333333Y-25528571D02*
X65666667Y-25528571D01*
X65666667Y-26052381D02*
X65666667Y-25052381D01*
X65190476Y-25052381D01*
X64285714Y-26052381D02*
X64857143Y-26052381D01*
X64571429Y-26052381D02*
X64571429Y-25052381D01*
X64666667Y-25195238D01*
X64761905Y-25290476D01*
X64857143Y-25338095D01*
X72161905Y-33852381D02*
X72161905Y-34661905D01*
X72114286Y-34757143D01*
X72066667Y-34804762D01*
X71971429Y-34852381D01*
X71780952Y-34852381D01*
X71685714Y-34804762D01*
X71638095Y-34757143D01*
X71590476Y-34661905D01*
X71590476Y-33852381D01*
X70590476Y-34852381D02*
X71161905Y-34852381D01*
X70876191Y-34852381D02*
X70876191Y-33852381D01*
X70971429Y-33995238D01*
X71066667Y-34090476D01*
X71161905Y-34138095D01*
X54161905Y-82652381D02*
X54161905Y-83461905D01*
X54114286Y-83557143D01*
X54066667Y-83604762D01*
X53971429Y-83652381D01*
X53780952Y-83652381D01*
X53685714Y-83604762D01*
X53638095Y-83557143D01*
X53590476Y-83461905D01*
X53590476Y-82652381D01*
X53161905Y-82747619D02*
X53114286Y-82700000D01*
X53019048Y-82652381D01*
X52780952Y-82652381D01*
X52685714Y-82700000D01*
X52638095Y-82747619D01*
X52590476Y-82842857D01*
X52590476Y-82938095D01*
X52638095Y-83080952D01*
X53209524Y-83652381D01*
X52590476Y-83652381D01*
X67309524Y-56452381D02*
X66642857Y-57452381D01*
X66642857Y-56452381D02*
X67309524Y-57452381D01*
X65738095Y-57452381D02*
X66309524Y-57452381D01*
X66023810Y-57452381D02*
X66023810Y-56452381D01*
X66119048Y-56595238D01*
X66214286Y-56690476D01*
X66309524Y-56738095D01*
X77566666Y-38052381D02*
X77900000Y-37576190D01*
X78138095Y-38052381D02*
X78138095Y-37052381D01*
X77757142Y-37052381D01*
X77661904Y-37100000D01*
X77614285Y-37147619D01*
X77566666Y-37242857D01*
X77566666Y-37385714D01*
X77614285Y-37480952D01*
X77661904Y-37528571D01*
X77757142Y-37576190D01*
X78138095Y-37576190D01*
X76709523Y-37385714D02*
X76709523Y-38052381D01*
X76947619Y-37004762D02*
X77185714Y-37719048D01*
X76566666Y-37719048D01*
X77566666Y-40052381D02*
X77900000Y-39576190D01*
X78138095Y-40052381D02*
X78138095Y-39052381D01*
X77757142Y-39052381D01*
X77661904Y-39100000D01*
X77614285Y-39147619D01*
X77566666Y-39242857D01*
X77566666Y-39385714D01*
X77614285Y-39480952D01*
X77661904Y-39528571D01*
X77757142Y-39576190D01*
X78138095Y-39576190D01*
X76661904Y-39052381D02*
X77138095Y-39052381D01*
X77185714Y-39528571D01*
X77138095Y-39480952D01*
X77042857Y-39433333D01*
X76804761Y-39433333D01*
X76709523Y-39480952D01*
X76661904Y-39528571D01*
X76614285Y-39623810D01*
X76614285Y-39861905D01*
X76661904Y-39957143D01*
X76709523Y-40004762D01*
X76804761Y-40052381D01*
X77042857Y-40052381D01*
X77138095Y-40004762D01*
X77185714Y-39957143D01*
X77566666Y-35052381D02*
X77900000Y-34576190D01*
X78138095Y-35052381D02*
X78138095Y-34052381D01*
X77757142Y-34052381D01*
X77661904Y-34100000D01*
X77614285Y-34147619D01*
X77566666Y-34242857D01*
X77566666Y-34385714D01*
X77614285Y-34480952D01*
X77661904Y-34528571D01*
X77757142Y-34576190D01*
X78138095Y-34576190D01*
X76709523Y-34052381D02*
X76900000Y-34052381D01*
X76995238Y-34100000D01*
X77042857Y-34147619D01*
X77138095Y-34290476D01*
X77185714Y-34480952D01*
X77185714Y-34861905D01*
X77138095Y-34957143D01*
X77090476Y-35004762D01*
X76995238Y-35052381D01*
X76804761Y-35052381D01*
X76709523Y-35004762D01*
X76661904Y-34957143D01*
X76614285Y-34861905D01*
X76614285Y-34623810D01*
X76661904Y-34528571D01*
X76709523Y-34480952D01*
X76804761Y-34433333D01*
X76995238Y-34433333D01*
X77090476Y-34480952D01*
X77138095Y-34528571D01*
X77185714Y-34623810D01*
X42166666Y-48652381D02*
X42500000Y-48176190D01*
X42738095Y-48652381D02*
X42738095Y-47652381D01*
X42357142Y-47652381D01*
X42261904Y-47700000D01*
X42214285Y-47747619D01*
X42166666Y-47842857D01*
X42166666Y-47985714D01*
X42214285Y-48080952D01*
X42261904Y-48128571D01*
X42357142Y-48176190D01*
X42738095Y-48176190D01*
X41833333Y-47652381D02*
X41166666Y-47652381D01*
X41595238Y-48652381D01*
X42166666Y-46652381D02*
X42500000Y-46176190D01*
X42738095Y-46652381D02*
X42738095Y-45652381D01*
X42357142Y-45652381D01*
X42261904Y-45700000D01*
X42214285Y-45747619D01*
X42166666Y-45842857D01*
X42166666Y-45985714D01*
X42214285Y-46080952D01*
X42261904Y-46128571D01*
X42357142Y-46176190D01*
X42738095Y-46176190D01*
X41595238Y-46080952D02*
X41690476Y-46033333D01*
X41738095Y-45985714D01*
X41785714Y-45890476D01*
X41785714Y-45842857D01*
X41738095Y-45747619D01*
X41690476Y-45700000D01*
X41595238Y-45652381D01*
X41404761Y-45652381D01*
X41309523Y-45700000D01*
X41261904Y-45747619D01*
X41214285Y-45842857D01*
X41214285Y-45890476D01*
X41261904Y-45985714D01*
X41309523Y-46033333D01*
X41404761Y-46080952D01*
X41595238Y-46080952D01*
X41690476Y-46128571D01*
X41738095Y-46176190D01*
X41785714Y-46271429D01*
X41785714Y-46461905D01*
X41738095Y-46557143D01*
X41690476Y-46604762D01*
X41595238Y-46652381D01*
X41404761Y-46652381D01*
X41309523Y-46604762D01*
X41261904Y-46557143D01*
X41214285Y-46461905D01*
X41214285Y-46271429D01*
X41261904Y-46176190D01*
X41309523Y-46128571D01*
X41404761Y-46080952D01*
X57673666Y-73852381D02*
X58007000Y-73376190D01*
X58245095Y-73852381D02*
X58245095Y-72852381D01*
X57864142Y-72852381D01*
X57768904Y-72900000D01*
X57721285Y-72947619D01*
X57673666Y-73042857D01*
X57673666Y-73185714D01*
X57721285Y-73280952D01*
X57768904Y-73328571D01*
X57864142Y-73376190D01*
X58245095Y-73376190D01*
X57197476Y-73852381D02*
X57007000Y-73852381D01*
X56911761Y-73804762D01*
X56864142Y-73757143D01*
X56768904Y-73614286D01*
X56721285Y-73423810D01*
X56721285Y-73042857D01*
X56768904Y-72947619D01*
X56816523Y-72900000D01*
X56911761Y-72852381D01*
X57102238Y-72852381D01*
X57197476Y-72900000D01*
X57245095Y-72947619D01*
X57292714Y-73042857D01*
X57292714Y-73280952D01*
X57245095Y-73376190D01*
X57197476Y-73423810D01*
X57102238Y-73471429D01*
X56911761Y-73471429D01*
X56816523Y-73423810D01*
X56768904Y-73376190D01*
X56721285Y-73280952D01*
X46842857Y-88052381D02*
X47176191Y-87576190D01*
X47414286Y-88052381D02*
X47414286Y-87052381D01*
X47033333Y-87052381D01*
X46938095Y-87100000D01*
X46890476Y-87147619D01*
X46842857Y-87242857D01*
X46842857Y-87385714D01*
X46890476Y-87480952D01*
X46938095Y-87528571D01*
X47033333Y-87576190D01*
X47414286Y-87576190D01*
X45890476Y-88052381D02*
X46461905Y-88052381D01*
X46176191Y-88052381D02*
X46176191Y-87052381D01*
X46271429Y-87195238D01*
X46366667Y-87290476D01*
X46461905Y-87338095D01*
X45271429Y-87052381D02*
X45176190Y-87052381D01*
X45080952Y-87100000D01*
X45033333Y-87147619D01*
X44985714Y-87242857D01*
X44938095Y-87433333D01*
X44938095Y-87671429D01*
X44985714Y-87861905D01*
X45033333Y-87957143D01*
X45080952Y-88004762D01*
X45176190Y-88052381D01*
X45271429Y-88052381D01*
X45366667Y-88004762D01*
X45414286Y-87957143D01*
X45461905Y-87861905D01*
X45509524Y-87671429D01*
X45509524Y-87433333D01*
X45461905Y-87242857D01*
X45414286Y-87147619D01*
X45366667Y-87100000D01*
X45271429Y-87052381D01*
X46457143Y-71557143D02*
X46504762Y-71509524D01*
X46552381Y-71366667D01*
X46552381Y-71271429D01*
X46504762Y-71128571D01*
X46409524Y-71033333D01*
X46314286Y-70985714D01*
X46123810Y-70938095D01*
X45980952Y-70938095D01*
X45790476Y-70985714D01*
X45695238Y-71033333D01*
X45600000Y-71128571D01*
X45552381Y-71271429D01*
X45552381Y-71366667D01*
X45600000Y-71509524D01*
X45647619Y-71557143D01*
X46552381Y-72509524D02*
X46552381Y-71938095D01*
X46552381Y-72223809D02*
X45552381Y-72223809D01*
X45695238Y-72128571D01*
X45790476Y-72033333D01*
X45838095Y-71938095D01*
X45647619Y-72890476D02*
X45600000Y-72938095D01*
X45552381Y-73033333D01*
X45552381Y-73271429D01*
X45600000Y-73366667D01*
X45647619Y-73414286D01*
X45742857Y-73461905D01*
X45838095Y-73461905D01*
X45980952Y-73414286D01*
X46552381Y-72842857D01*
X46552381Y-73461905D01*
X102866666Y-42052381D02*
X103200000Y-41576190D01*
X103438095Y-42052381D02*
X103438095Y-41052381D01*
X103057142Y-41052381D01*
X102961904Y-41100000D01*
X102914285Y-41147619D01*
X102866666Y-41242857D01*
X102866666Y-41385714D01*
X102914285Y-41480952D01*
X102961904Y-41528571D01*
X103057142Y-41576190D01*
X103438095Y-41576190D01*
X101914285Y-41100000D02*
X102009523Y-41052381D01*
X102152380Y-41052381D01*
X102295238Y-41100000D01*
X102390476Y-41195238D01*
X102438095Y-41290476D01*
X102485714Y-41480952D01*
X102485714Y-41623810D01*
X102438095Y-41814286D01*
X102390476Y-41909524D01*
X102295238Y-42004762D01*
X102152380Y-42052381D01*
X102057142Y-42052381D01*
X101914285Y-42004762D01*
X101866666Y-41957143D01*
X101866666Y-41623810D01*
X102057142Y-41623810D01*
X101104761Y-41528571D02*
X100961904Y-41576190D01*
X100914285Y-41623810D01*
X100866666Y-41719048D01*
X100866666Y-41861905D01*
X100914285Y-41957143D01*
X100961904Y-42004762D01*
X101057142Y-42052381D01*
X101438095Y-42052381D01*
X101438095Y-41052381D01*
X101104761Y-41052381D01*
X101009523Y-41100000D01*
X100961904Y-41147619D01*
X100914285Y-41242857D01*
X100914285Y-41338095D01*
X100961904Y-41433333D01*
X101009523Y-41480952D01*
X101104761Y-41528571D01*
X101438095Y-41528571D01*
X100295238Y-41480952D02*
X100390476Y-41433333D01*
X100438095Y-41385714D01*
X100485714Y-41290476D01*
X100485714Y-41242857D01*
X100438095Y-41147619D01*
X100390476Y-41100000D01*
X100295238Y-41052381D01*
X100104761Y-41052381D01*
X100009523Y-41100000D01*
X99961904Y-41147619D01*
X99914285Y-41242857D01*
X99914285Y-41290476D01*
X99961904Y-41385714D01*
X100009523Y-41433333D01*
X100104761Y-41480952D01*
X100295238Y-41480952D01*
X100390476Y-41528571D01*
X100438095Y-41576190D01*
X100485714Y-41671429D01*
X100485714Y-41861905D01*
X100438095Y-41957143D01*
X100390476Y-42004762D01*
X100295238Y-42052381D01*
X100104761Y-42052381D01*
X100009523Y-42004762D01*
X99961904Y-41957143D01*
X99914285Y-41861905D01*
X99914285Y-41671429D01*
X99961904Y-41576190D01*
X100009523Y-41528571D01*
X100104761Y-41480952D01*
X104028571Y-36428571D02*
X103885714Y-36476190D01*
X103838095Y-36523810D01*
X103790476Y-36619048D01*
X103790476Y-36761905D01*
X103838095Y-36857143D01*
X103885714Y-36904762D01*
X103980952Y-36952381D01*
X104361905Y-36952381D01*
X104361905Y-35952381D01*
X104028571Y-35952381D01*
X103933333Y-36000000D01*
X103885714Y-36047619D01*
X103838095Y-36142857D01*
X103838095Y-36238095D01*
X103885714Y-36333333D01*
X103933333Y-36380952D01*
X104028571Y-36428571D01*
X104361905Y-36428571D01*
X98988595Y-35695000D02*
X99083833Y-35647381D01*
X99226690Y-35647381D01*
X99369548Y-35695000D01*
X99464786Y-35790238D01*
X99512405Y-35885476D01*
X99560024Y-36075952D01*
X99560024Y-36218810D01*
X99512405Y-36409286D01*
X99464786Y-36504524D01*
X99369548Y-36599762D01*
X99226690Y-36647381D01*
X99131452Y-36647381D01*
X98988595Y-36599762D01*
X98940976Y-36552143D01*
X98940976Y-36218810D01*
X99131452Y-36218810D01*
X104124095Y-40298667D02*
X103647904Y-40298667D01*
X104219333Y-40584381D02*
X103886000Y-39584381D01*
X103552666Y-40584381D01*
X103877857Y-90876381D02*
X104211191Y-90400190D01*
X104449286Y-90876381D02*
X104449286Y-89876381D01*
X104068333Y-89876381D01*
X103973095Y-89924000D01*
X103925476Y-89971619D01*
X103877857Y-90066857D01*
X103877857Y-90209714D01*
X103925476Y-90304952D01*
X103973095Y-90352571D01*
X104068333Y-90400190D01*
X104449286Y-90400190D01*
X102925476Y-89924000D02*
X103020714Y-89876381D01*
X103163571Y-89876381D01*
X103306429Y-89924000D01*
X103401667Y-90019238D01*
X103449286Y-90114476D01*
X103496905Y-90304952D01*
X103496905Y-90447810D01*
X103449286Y-90638286D01*
X103401667Y-90733524D01*
X103306429Y-90828762D01*
X103163571Y-90876381D01*
X103068333Y-90876381D01*
X102925476Y-90828762D01*
X102877857Y-90781143D01*
X102877857Y-90447810D01*
X103068333Y-90447810D01*
X102115952Y-90352571D02*
X101973095Y-90400190D01*
X101925476Y-90447810D01*
X101877857Y-90543048D01*
X101877857Y-90685905D01*
X101925476Y-90781143D01*
X101973095Y-90828762D01*
X102068333Y-90876381D01*
X102449286Y-90876381D01*
X102449286Y-89876381D01*
X102115952Y-89876381D01*
X102020714Y-89924000D01*
X101973095Y-89971619D01*
X101925476Y-90066857D01*
X101925476Y-90162095D01*
X101973095Y-90257333D01*
X102020714Y-90304952D01*
X102115952Y-90352571D01*
X102449286Y-90352571D01*
X100925476Y-90876381D02*
X101496905Y-90876381D01*
X101211191Y-90876381D02*
X101211191Y-89876381D01*
X101306429Y-90019238D01*
X101401667Y-90114476D01*
X101496905Y-90162095D01*
X100306429Y-89876381D02*
X100211190Y-89876381D01*
X100115952Y-89924000D01*
X100068333Y-89971619D01*
X100020714Y-90066857D01*
X99973095Y-90257333D01*
X99973095Y-90495429D01*
X100020714Y-90685905D01*
X100068333Y-90781143D01*
X100115952Y-90828762D01*
X100211190Y-90876381D01*
X100306429Y-90876381D01*
X100401667Y-90828762D01*
X100449286Y-90781143D01*
X100496905Y-90685905D01*
X100544524Y-90495429D01*
X100544524Y-90257333D01*
X100496905Y-90066857D01*
X100449286Y-89971619D01*
X100401667Y-89924000D01*
X100306429Y-89876381D01*
X104378095Y-97321667D02*
X103901904Y-97321667D01*
X104473333Y-97607381D02*
X104140000Y-96607381D01*
X103806666Y-97607381D01*
X70746881Y-19947143D02*
X70270690Y-19613809D01*
X70746881Y-19375714D02*
X69746881Y-19375714D01*
X69746881Y-19756667D01*
X69794500Y-19851905D01*
X69842119Y-19899524D01*
X69937357Y-19947143D01*
X70080214Y-19947143D01*
X70175452Y-19899524D01*
X70223071Y-19851905D01*
X70270690Y-19756667D01*
X70270690Y-19375714D01*
X69794500Y-20899524D02*
X69746881Y-20804286D01*
X69746881Y-20661429D01*
X69794500Y-20518571D01*
X69889738Y-20423333D01*
X69984976Y-20375714D01*
X70175452Y-20328095D01*
X70318310Y-20328095D01*
X70508786Y-20375714D01*
X70604024Y-20423333D01*
X70699262Y-20518571D01*
X70746881Y-20661429D01*
X70746881Y-20756667D01*
X70699262Y-20899524D01*
X70651643Y-20947143D01*
X70318310Y-20947143D01*
X70318310Y-20756667D01*
X70223071Y-21709048D02*
X70270690Y-21851905D01*
X70318310Y-21899524D01*
X70413548Y-21947143D01*
X70556405Y-21947143D01*
X70651643Y-21899524D01*
X70699262Y-21851905D01*
X70746881Y-21756667D01*
X70746881Y-21375714D01*
X69746881Y-21375714D01*
X69746881Y-21709048D01*
X69794500Y-21804286D01*
X69842119Y-21851905D01*
X69937357Y-21899524D01*
X70032595Y-21899524D01*
X70127833Y-21851905D01*
X70175452Y-21804286D01*
X70223071Y-21709048D01*
X70223071Y-21375714D01*
X70746881Y-22899524D02*
X70746881Y-22328095D01*
X70746881Y-22613809D02*
X69746881Y-22613809D01*
X69889738Y-22518571D01*
X69984976Y-22423333D01*
X70032595Y-22328095D01*
X70746881Y-23851905D02*
X70746881Y-23280476D01*
X70746881Y-23566190D02*
X69746881Y-23566190D01*
X69889738Y-23470952D01*
X69984976Y-23375714D01*
X70032595Y-23280476D01*
X69730881Y-24312524D02*
X69254690Y-23979190D01*
X69730881Y-23741095D02*
X68730881Y-23741095D01*
X68730881Y-24122048D01*
X68778500Y-24217286D01*
X68826119Y-24264905D01*
X68921357Y-24312524D01*
X69064214Y-24312524D01*
X69159452Y-24264905D01*
X69207071Y-24217286D01*
X69254690Y-24122048D01*
X69254690Y-23741095D01*
X63936571Y-19883429D02*
X63984190Y-20026286D01*
X64031810Y-20073905D01*
X64127048Y-20121524D01*
X64269905Y-20121524D01*
X64365143Y-20073905D01*
X64412762Y-20026286D01*
X64460381Y-19931048D01*
X64460381Y-19550095D01*
X63460381Y-19550095D01*
X63460381Y-19883429D01*
X63508000Y-19978667D01*
X63555619Y-20026286D01*
X63650857Y-20073905D01*
X63746095Y-20073905D01*
X63841333Y-20026286D01*
X63888952Y-19978667D01*
X63936571Y-19883429D01*
X63936571Y-19550095D01*
X63508000Y-23375905D02*
X63460381Y-23280667D01*
X63460381Y-23137810D01*
X63508000Y-22994952D01*
X63603238Y-22899714D01*
X63698476Y-22852095D01*
X63888952Y-22804476D01*
X64031810Y-22804476D01*
X64222286Y-22852095D01*
X64317524Y-22899714D01*
X64412762Y-22994952D01*
X64460381Y-23137810D01*
X64460381Y-23233048D01*
X64412762Y-23375905D01*
X64365143Y-23423524D01*
X64031810Y-23423524D01*
X64031810Y-23233048D01*
X69191167Y-19637405D02*
X69191167Y-20113596D01*
X69476881Y-19542167D02*
X68476881Y-19875500D01*
X69476881Y-20208834D01*
X70627381Y-109609143D02*
X70151190Y-109275809D01*
X70627381Y-109037714D02*
X69627381Y-109037714D01*
X69627381Y-109418667D01*
X69675000Y-109513905D01*
X69722619Y-109561524D01*
X69817857Y-109609143D01*
X69960714Y-109609143D01*
X70055952Y-109561524D01*
X70103571Y-109513905D01*
X70151190Y-109418667D01*
X70151190Y-109037714D01*
X69675000Y-110561524D02*
X69627381Y-110466286D01*
X69627381Y-110323429D01*
X69675000Y-110180571D01*
X69770238Y-110085333D01*
X69865476Y-110037714D01*
X70055952Y-109990095D01*
X70198810Y-109990095D01*
X70389286Y-110037714D01*
X70484524Y-110085333D01*
X70579762Y-110180571D01*
X70627381Y-110323429D01*
X70627381Y-110418667D01*
X70579762Y-110561524D01*
X70532143Y-110609143D01*
X70198810Y-110609143D01*
X70198810Y-110418667D01*
X70103571Y-111371048D02*
X70151190Y-111513905D01*
X70198810Y-111561524D01*
X70294048Y-111609143D01*
X70436905Y-111609143D01*
X70532143Y-111561524D01*
X70579762Y-111513905D01*
X70627381Y-111418667D01*
X70627381Y-111037714D01*
X69627381Y-111037714D01*
X69627381Y-111371048D01*
X69675000Y-111466286D01*
X69722619Y-111513905D01*
X69817857Y-111561524D01*
X69913095Y-111561524D01*
X70008333Y-111513905D01*
X70055952Y-111466286D01*
X70103571Y-111371048D01*
X70103571Y-111037714D01*
X70627381Y-112561524D02*
X70627381Y-111990095D01*
X70627381Y-112275809D02*
X69627381Y-112275809D01*
X69770238Y-112180571D01*
X69865476Y-112085333D01*
X69913095Y-111990095D01*
X69722619Y-112942476D02*
X69675000Y-112990095D01*
X69627381Y-113085333D01*
X69627381Y-113323429D01*
X69675000Y-113418667D01*
X69722619Y-113466286D01*
X69817857Y-113513905D01*
X69913095Y-113513905D01*
X70055952Y-113466286D01*
X70627381Y-112894857D01*
X70627381Y-113513905D01*
X63492071Y-110434429D02*
X63539690Y-110577286D01*
X63587310Y-110624905D01*
X63682548Y-110672524D01*
X63825405Y-110672524D01*
X63920643Y-110624905D01*
X63968262Y-110577286D01*
X64015881Y-110482048D01*
X64015881Y-110101095D01*
X63015881Y-110101095D01*
X63015881Y-110434429D01*
X63063500Y-110529667D01*
X63111119Y-110577286D01*
X63206357Y-110624905D01*
X63301595Y-110624905D01*
X63396833Y-110577286D01*
X63444452Y-110529667D01*
X63492071Y-110434429D01*
X63492071Y-110101095D01*
X63063500Y-113037905D02*
X63015881Y-112942667D01*
X63015881Y-112799810D01*
X63063500Y-112656952D01*
X63158738Y-112561714D01*
X63253976Y-112514095D01*
X63444452Y-112466476D01*
X63587310Y-112466476D01*
X63777786Y-112514095D01*
X63873024Y-112561714D01*
X63968262Y-112656952D01*
X64015881Y-112799810D01*
X64015881Y-112895048D01*
X63968262Y-113037905D01*
X63920643Y-113085524D01*
X63587310Y-113085524D01*
X63587310Y-112895048D01*
X68619667Y-109045405D02*
X68619667Y-109521596D01*
X68905381Y-108950167D02*
X67905381Y-109283500D01*
X68905381Y-109616834D01*
X33746857Y-42052381D02*
X34080191Y-41576190D01*
X34318286Y-42052381D02*
X34318286Y-41052381D01*
X33937333Y-41052381D01*
X33842095Y-41100000D01*
X33794476Y-41147619D01*
X33746857Y-41242857D01*
X33746857Y-41385714D01*
X33794476Y-41480952D01*
X33842095Y-41528571D01*
X33937333Y-41576190D01*
X34318286Y-41576190D01*
X32794476Y-41100000D02*
X32889714Y-41052381D01*
X33032571Y-41052381D01*
X33175429Y-41100000D01*
X33270667Y-41195238D01*
X33318286Y-41290476D01*
X33365905Y-41480952D01*
X33365905Y-41623810D01*
X33318286Y-41814286D01*
X33270667Y-41909524D01*
X33175429Y-42004762D01*
X33032571Y-42052381D01*
X32937333Y-42052381D01*
X32794476Y-42004762D01*
X32746857Y-41957143D01*
X32746857Y-41623810D01*
X32937333Y-41623810D01*
X31984952Y-41528571D02*
X31842095Y-41576190D01*
X31794476Y-41623810D01*
X31746857Y-41719048D01*
X31746857Y-41861905D01*
X31794476Y-41957143D01*
X31842095Y-42004762D01*
X31937333Y-42052381D01*
X32318286Y-42052381D01*
X32318286Y-41052381D01*
X31984952Y-41052381D01*
X31889714Y-41100000D01*
X31842095Y-41147619D01*
X31794476Y-41242857D01*
X31794476Y-41338095D01*
X31842095Y-41433333D01*
X31889714Y-41480952D01*
X31984952Y-41528571D01*
X32318286Y-41528571D01*
X30794476Y-42052381D02*
X31365905Y-42052381D01*
X31080191Y-42052381D02*
X31080191Y-41052381D01*
X31175429Y-41195238D01*
X31270667Y-41290476D01*
X31365905Y-41338095D01*
X30461143Y-41052381D02*
X29842095Y-41052381D01*
X30175429Y-41433333D01*
X30032571Y-41433333D01*
X29937333Y-41480952D01*
X29889714Y-41528571D01*
X29842095Y-41623810D01*
X29842095Y-41861905D01*
X29889714Y-41957143D01*
X29937333Y-42004762D01*
X30032571Y-42052381D01*
X30318286Y-42052381D01*
X30413524Y-42004762D01*
X30461143Y-41957143D01*
X29094476Y-40552381D02*
X29427810Y-40076190D01*
X29665905Y-40552381D02*
X29665905Y-39552381D01*
X29284952Y-39552381D01*
X29189714Y-39600000D01*
X29142095Y-39647619D01*
X29094476Y-39742857D01*
X29094476Y-39885714D01*
X29142095Y-39980952D01*
X29189714Y-40028571D01*
X29284952Y-40076190D01*
X29665905Y-40076190D01*
X34432571Y-36428571D02*
X34289714Y-36476190D01*
X34242095Y-36523810D01*
X34194476Y-36619048D01*
X34194476Y-36761905D01*
X34242095Y-36857143D01*
X34289714Y-36904762D01*
X34384952Y-36952381D01*
X34765905Y-36952381D01*
X34765905Y-35952381D01*
X34432571Y-35952381D01*
X34337333Y-36000000D01*
X34289714Y-36047619D01*
X34242095Y-36142857D01*
X34242095Y-36238095D01*
X34289714Y-36333333D01*
X34337333Y-36380952D01*
X34432571Y-36428571D01*
X34765905Y-36428571D01*
X29138595Y-35822000D02*
X29233833Y-35774381D01*
X29376690Y-35774381D01*
X29519548Y-35822000D01*
X29614786Y-35917238D01*
X29662405Y-36012476D01*
X29710024Y-36202952D01*
X29710024Y-36345810D01*
X29662405Y-36536286D01*
X29614786Y-36631524D01*
X29519548Y-36726762D01*
X29376690Y-36774381D01*
X29281452Y-36774381D01*
X29138595Y-36726762D01*
X29090976Y-36679143D01*
X29090976Y-36345810D01*
X29281452Y-36345810D01*
X34718595Y-40362167D02*
X34242404Y-40362167D01*
X34813833Y-40647881D02*
X34480500Y-39647881D01*
X34147166Y-40647881D01*
%LPC*%
D13*
X32754000Y-96215000D03*
X31254000Y-96215000D03*
X32754000Y-93015000D03*
X31254000Y-93015000D03*
D14*
X70750000Y-96250000D03*
D15*
X80910000Y-96250000D03*
D16*
X38100000Y-104775000D03*
D17*
X41099547Y-108774954D02*
X41910453Y-107315046D01*
X35560276Y-109854328D02*
X35599724Y-109275672D01*
D18*
X39370000Y-99695000D03*
D19*
X36830000Y-99695000D03*
D16*
X57150000Y-104775000D03*
D17*
X60149547Y-108774954D02*
X60960453Y-107315046D01*
X54610276Y-109854328D02*
X54649724Y-109275672D01*
D18*
X58420000Y-99695000D03*
D19*
X55880000Y-99695000D03*
D16*
X95250000Y-104775000D03*
D17*
X98249547Y-108774954D02*
X99060453Y-107315046D01*
X92710276Y-109854328D02*
X92749724Y-109275672D01*
D18*
X96520000Y-99695000D03*
D19*
X93980000Y-99695000D03*
D16*
X95250000Y-85725000D03*
D17*
X98249547Y-89724954D02*
X99060453Y-88265046D01*
X92710276Y-90804328D02*
X92749724Y-90225672D01*
D18*
X96520000Y-80645000D03*
D19*
X93980000Y-80645000D03*
D16*
X95250000Y-66675000D03*
D17*
X98249547Y-70674954D02*
X99060453Y-69215046D01*
X92710276Y-71754328D02*
X92749724Y-71175672D01*
D18*
X96520000Y-61595000D03*
D19*
X93980000Y-61595000D03*
D16*
X95250000Y-47625000D03*
D17*
X98249547Y-51624954D02*
X99060453Y-50165046D01*
X92710276Y-52704328D02*
X92749724Y-52125672D01*
D18*
X96520000Y-42545000D03*
D19*
X93980000Y-42545000D03*
D16*
X38100000Y-28575000D03*
D17*
X41099547Y-32574954D02*
X41910453Y-31115046D01*
X35560276Y-33654328D02*
X35599724Y-33075672D01*
D18*
X39370000Y-23495000D03*
D19*
X36830000Y-23495000D03*
D14*
X33020000Y-20320000D03*
D15*
X43180000Y-20320000D03*
D16*
X57150000Y-28575000D03*
D17*
X60149547Y-32574954D02*
X60960453Y-31115046D01*
X54610276Y-33654328D02*
X54649724Y-33075672D01*
D18*
X58420000Y-23495000D03*
D19*
X55880000Y-23495000D03*
D14*
X48152540Y-33735520D03*
D15*
X48152540Y-23575520D03*
D16*
X76200000Y-28575000D03*
D17*
X79199547Y-32574954D02*
X80010453Y-31115046D01*
X73660276Y-33654328D02*
X73699724Y-33075672D01*
D18*
X77470000Y-23495000D03*
D19*
X74930000Y-23495000D03*
D14*
X61595000Y-20320000D03*
D15*
X51435000Y-20320000D03*
D16*
X95250000Y-28575000D03*
D17*
X98249547Y-32574954D02*
X99060453Y-31115046D01*
X92710276Y-33654328D02*
X92749724Y-33075672D01*
D18*
X96520000Y-23495000D03*
D19*
X93980000Y-23495000D03*
D14*
X98298000Y-39750000D03*
D15*
X88138000Y-39750000D03*
D16*
X38100000Y-47625000D03*
D17*
X41099547Y-51624954D02*
X41910453Y-50165046D01*
X35560276Y-52704328D02*
X35599724Y-52125672D01*
D18*
X39370000Y-42545000D03*
D19*
X36830000Y-42545000D03*
D14*
X31750000Y-55880000D03*
D15*
X41910000Y-55880000D03*
D16*
X57150000Y-47625000D03*
D17*
X60149547Y-51624954D02*
X60960453Y-50165046D01*
X54610276Y-52704328D02*
X54649724Y-52125672D01*
D18*
X58420000Y-42545000D03*
D19*
X55880000Y-42545000D03*
D14*
X48152540Y-52785520D03*
D15*
X48152540Y-42625520D03*
D16*
X76200000Y-47625000D03*
D17*
X79199547Y-51624954D02*
X80010453Y-50165046D01*
X73660276Y-52704328D02*
X73699724Y-52125672D01*
D18*
X77470000Y-42545000D03*
D19*
X74930000Y-42545000D03*
D14*
X73152000Y-56134000D03*
D15*
X83312000Y-56134000D03*
D16*
X95250000Y-57150000D03*
D17*
X99249954Y-54150453D02*
X97790046Y-53339547D01*
X100329328Y-59689724D02*
X99750672Y-59650276D01*
D18*
X90170000Y-55880000D03*
D19*
X90170000Y-58420000D03*
D14*
X85725000Y-39750000D03*
D15*
X85725000Y-49910000D03*
D16*
X38100000Y-66675000D03*
D17*
X41099547Y-70674954D02*
X41910453Y-69215046D01*
X35560276Y-71754328D02*
X35599724Y-71175672D01*
D18*
X39370000Y-61595000D03*
D19*
X36830000Y-61595000D03*
D14*
X31750000Y-74930000D03*
D15*
X41910000Y-74930000D03*
D16*
X57150000Y-66675000D03*
D17*
X60149547Y-70674954D02*
X60960453Y-69215046D01*
X54610276Y-71754328D02*
X54649724Y-71175672D01*
D18*
X58420000Y-61595000D03*
D19*
X55880000Y-61595000D03*
D14*
X48152540Y-71835520D03*
D15*
X48152540Y-61675520D03*
D16*
X76200000Y-66675000D03*
D17*
X79199547Y-70674954D02*
X80010453Y-69215046D01*
X73660276Y-71754328D02*
X73699724Y-71175672D01*
D18*
X77470000Y-61595000D03*
D19*
X74930000Y-61595000D03*
D14*
X67202540Y-71835520D03*
D15*
X67202540Y-61675520D03*
D16*
X38100000Y-85725000D03*
D17*
X41099547Y-89724954D02*
X41910453Y-88265046D01*
X35560276Y-90804328D02*
X35599724Y-90225672D01*
D18*
X39370000Y-80645000D03*
D19*
X36830000Y-80645000D03*
D14*
X86360000Y-70358000D03*
D15*
X86360000Y-60198000D03*
D16*
X57150000Y-85725000D03*
D17*
X60149547Y-89724954D02*
X60960453Y-88265046D01*
X54610276Y-90804328D02*
X54649724Y-90225672D01*
D18*
X58420000Y-80645000D03*
D19*
X55880000Y-80645000D03*
D14*
X35496500Y-94000000D03*
D15*
X45656500Y-94000000D03*
D16*
X76200000Y-85725000D03*
D17*
X79199547Y-89724954D02*
X80010453Y-88265046D01*
X73660276Y-90804328D02*
X73699724Y-90225672D01*
D18*
X77470000Y-80645000D03*
D19*
X74930000Y-80645000D03*
D14*
X67202540Y-90885520D03*
D15*
X67202540Y-80725520D03*
D14*
X70612000Y-93726000D03*
D15*
X80772000Y-93726000D03*
D16*
X47625000Y-104775000D03*
D17*
X50624547Y-108774954D02*
X51435453Y-107315046D01*
X45085276Y-109854328D02*
X45124724Y-109275672D01*
D18*
X48895000Y-99695000D03*
D19*
X46355000Y-99695000D03*
D16*
X76200000Y-104775000D03*
D17*
X79199547Y-108774954D02*
X80010453Y-107315046D01*
X73660276Y-109854328D02*
X73699724Y-109275672D01*
D18*
X77470000Y-99695000D03*
D19*
X74930000Y-99695000D03*
D14*
X54089480Y-93980000D03*
D15*
X64249480Y-93980000D03*
D16*
X95250000Y-95250000D03*
D17*
X99249954Y-92250453D02*
X97790046Y-91439547D01*
X100329328Y-97789724D02*
X99750672Y-97750276D01*
D18*
X90170000Y-93980000D03*
D19*
X90170000Y-96520000D03*
D14*
X54102000Y-96647000D03*
D15*
X64262000Y-96647000D03*
D14*
X67250000Y-107696000D03*
D15*
X67250000Y-97536000D03*
D14*
X85002540Y-109500000D03*
D15*
X85002540Y-99340000D03*
D20*
X71498980Y-29000000D03*
X67501020Y-29000000D03*
D21*
X58000000Y-35250000D03*
X58000000Y-37750000D03*
D22*
X67750000Y-31000000D03*
X70250000Y-31000000D03*
X72750000Y-49500000D03*
X70250000Y-49500000D03*
X73750000Y-36000000D03*
X76250000Y-36000000D03*
D21*
X63000000Y-54500000D03*
X63000000Y-52000000D03*
X70000000Y-51750000D03*
X70000000Y-54250000D03*
D22*
X74150000Y-44600000D03*
X76650000Y-44600000D03*
X67750000Y-33000000D03*
X70250000Y-33000000D03*
D21*
X53500000Y-77000000D03*
X53500000Y-74500000D03*
D22*
X51000000Y-85750000D03*
X48500000Y-85750000D03*
D23*
X71585340Y-25500000D03*
X67414660Y-25500000D03*
D24*
X84632800Y-26563320D03*
X85432900Y-26563320D03*
X86233000Y-26563320D03*
X87033100Y-26563320D03*
X87833200Y-26563320D03*
D25*
X81782920Y-26464260D03*
X81782920Y-20965160D03*
X90683080Y-26464260D03*
X90683080Y-20965160D03*
D26*
X84033360Y-23964900D03*
X88432640Y-23964900D03*
D27*
X83750000Y-36650000D03*
X83750000Y-29850000D03*
X87750000Y-29850000D03*
X87750000Y-36650000D03*
D28*
X72200000Y-37500000D03*
X72200000Y-38300000D03*
X72200000Y-39100000D03*
X72200000Y-39900000D03*
X72200000Y-40700000D03*
X72200000Y-41500000D03*
X72200000Y-42300000D03*
X72200000Y-43100000D03*
X72200000Y-43900000D03*
X72200000Y-44700000D03*
X72200000Y-45500000D03*
D29*
X70500000Y-47200000D03*
X69700000Y-47200000D03*
X68900000Y-47200000D03*
X68100000Y-47200000D03*
X67300000Y-47200000D03*
X66500000Y-47200000D03*
X65700000Y-47200000D03*
X64900000Y-47200000D03*
X64100000Y-47200000D03*
X63300000Y-47200000D03*
X62500000Y-47200000D03*
D28*
X60800000Y-45500000D03*
X60800000Y-44700000D03*
X60800000Y-43900000D03*
X60800000Y-43100000D03*
X60800000Y-42300000D03*
X60800000Y-41500000D03*
X60800000Y-40700000D03*
X60800000Y-39900000D03*
X60800000Y-39100000D03*
X60800000Y-38300000D03*
X60800000Y-37500000D03*
D29*
X62500000Y-35800000D03*
X63300000Y-35800000D03*
X64100000Y-35800000D03*
X64900000Y-35800000D03*
X65700000Y-35800000D03*
X66500000Y-35800000D03*
X67300000Y-35800000D03*
X68100000Y-35800000D03*
X68900000Y-35800000D03*
X69700000Y-35800000D03*
X70500000Y-35800000D03*
D30*
X51725000Y-83100000D03*
X51075000Y-83100000D03*
X50425000Y-83100000D03*
X49775000Y-83100000D03*
X49125000Y-83100000D03*
X48475000Y-83100000D03*
X47825000Y-83100000D03*
X47175000Y-83100000D03*
X46525000Y-83100000D03*
X45875000Y-83100000D03*
X45225000Y-83100000D03*
X44575000Y-83100000D03*
X43925000Y-83100000D03*
X43275000Y-83100000D03*
X43275000Y-75900000D03*
X43925000Y-75900000D03*
X44575000Y-75900000D03*
X45225000Y-75900000D03*
X45875000Y-75900000D03*
X46525000Y-75900000D03*
X47175000Y-75900000D03*
X47825000Y-75900000D03*
X48475000Y-75900000D03*
X49125000Y-75900000D03*
X49775000Y-75900000D03*
X50425000Y-75900000D03*
X51075000Y-75900000D03*
X51725000Y-75900000D03*
D31*
X65300000Y-55000000D03*
X65300000Y-51000000D03*
X67700000Y-51000000D03*
X67700000Y-55000000D03*
D32*
X79150000Y-37500000D03*
X81850000Y-37500000D03*
X79150000Y-39500000D03*
X81850000Y-39500000D03*
X81850000Y-35500000D03*
X79150000Y-35500000D03*
X46350000Y-48250000D03*
X43650000Y-48250000D03*
X46350000Y-46250000D03*
X43650000Y-46250000D03*
D33*
X56007000Y-77100000D03*
X56007000Y-74400000D03*
D32*
X51200000Y-87500000D03*
X48500000Y-87500000D03*
D21*
X44000000Y-73450000D03*
X44000000Y-70950000D03*
D13*
X102350000Y-39700000D03*
X100850000Y-39700000D03*
X102350000Y-36500000D03*
X100850000Y-36500000D03*
X103366000Y-95834000D03*
X101866000Y-95834000D03*
X103366000Y-92634000D03*
X101866000Y-92634000D03*
D34*
X68275000Y-20840000D03*
X68275000Y-22340000D03*
X65075000Y-20840000D03*
X65075000Y-22340000D03*
X68275000Y-111010000D03*
X68275000Y-112510000D03*
X65075000Y-111010000D03*
X65075000Y-112510000D03*
D13*
X32754000Y-39700000D03*
X31254000Y-39700000D03*
X32754000Y-36500000D03*
X31254000Y-36500000D03*
M02*
