G04 #@! TF.FileFunction,Soldermask,Bot*
%FSLAX46Y46*%
G04 Gerber Fmt 4.6, Leading zero omitted, Abs format (unit mm)*
G04 Created by KiCad (PCBNEW 4.0.2-stable) date Friday, July 29, 2016 'PMt' 11:21:31 PM*
%MOMM*%
G01*
G04 APERTURE LIST*
%ADD10C,0.150000*%
%ADD11R,1.400000X2.000000*%
%ADD12C,2.099260*%
%ADD13R,2.099260X2.099260*%
%ADD14C,4.387810*%
%ADD15C,2.900000*%
%ADD16R,2.400000X2.400000*%
%ADD17C,2.400000*%
%ADD18R,3.399740X1.901140*%
%ADD19R,1.650000X1.900000*%
%ADD20R,1.900000X1.650000*%
%ADD21R,3.051760X2.429460*%
%ADD22R,0.900380X2.701240*%
%ADD23R,2.398980X2.899360*%
%ADD24C,1.299160*%
%ADD25R,1.400000X3.600000*%
%ADD26R,1.900000X0.950000*%
%ADD27R,0.950000X1.900000*%
%ADD28R,0.850000X2.150000*%
%ADD29R,1.700000X2.400000*%
%ADD30R,1.900000X1.700000*%
%ADD31R,1.700000X1.900000*%
%ADD32R,2.000000X1.400000*%
G04 APERTURE END LIST*
D10*
D11*
X32754000Y-96215000D03*
X31254000Y-96215000D03*
X32754000Y-93015000D03*
X31254000Y-93015000D03*
D12*
X70750000Y-96250000D03*
D13*
X80910000Y-96250000D03*
D14*
X38100000Y-104775000D03*
D15*
X41099547Y-108774954D02*
X41910453Y-107315046D01*
X35560276Y-109854328D02*
X35599724Y-109275672D01*
D16*
X39370000Y-99695000D03*
D17*
X36830000Y-99695000D03*
D14*
X57150000Y-104775000D03*
D15*
X60149547Y-108774954D02*
X60960453Y-107315046D01*
X54610276Y-109854328D02*
X54649724Y-109275672D01*
D16*
X58420000Y-99695000D03*
D17*
X55880000Y-99695000D03*
D14*
X95250000Y-104775000D03*
D15*
X98249547Y-108774954D02*
X99060453Y-107315046D01*
X92710276Y-109854328D02*
X92749724Y-109275672D01*
D16*
X96520000Y-99695000D03*
D17*
X93980000Y-99695000D03*
D14*
X95250000Y-85725000D03*
D15*
X98249547Y-89724954D02*
X99060453Y-88265046D01*
X92710276Y-90804328D02*
X92749724Y-90225672D01*
D16*
X96520000Y-80645000D03*
D17*
X93980000Y-80645000D03*
D14*
X95250000Y-66675000D03*
D15*
X98249547Y-70674954D02*
X99060453Y-69215046D01*
X92710276Y-71754328D02*
X92749724Y-71175672D01*
D16*
X96520000Y-61595000D03*
D17*
X93980000Y-61595000D03*
D14*
X95250000Y-47625000D03*
D15*
X98249547Y-51624954D02*
X99060453Y-50165046D01*
X92710276Y-52704328D02*
X92749724Y-52125672D01*
D16*
X96520000Y-42545000D03*
D17*
X93980000Y-42545000D03*
D14*
X38100000Y-28575000D03*
D15*
X41099547Y-32574954D02*
X41910453Y-31115046D01*
X35560276Y-33654328D02*
X35599724Y-33075672D01*
D16*
X39370000Y-23495000D03*
D17*
X36830000Y-23495000D03*
D12*
X33020000Y-20320000D03*
D13*
X43180000Y-20320000D03*
D14*
X57150000Y-28575000D03*
D15*
X60149547Y-32574954D02*
X60960453Y-31115046D01*
X54610276Y-33654328D02*
X54649724Y-33075672D01*
D16*
X58420000Y-23495000D03*
D17*
X55880000Y-23495000D03*
D12*
X48152540Y-33735520D03*
D13*
X48152540Y-23575520D03*
D14*
X76200000Y-28575000D03*
D15*
X79199547Y-32574954D02*
X80010453Y-31115046D01*
X73660276Y-33654328D02*
X73699724Y-33075672D01*
D16*
X77470000Y-23495000D03*
D17*
X74930000Y-23495000D03*
D12*
X61595000Y-20320000D03*
D13*
X51435000Y-20320000D03*
D14*
X95250000Y-28575000D03*
D15*
X98249547Y-32574954D02*
X99060453Y-31115046D01*
X92710276Y-33654328D02*
X92749724Y-33075672D01*
D16*
X96520000Y-23495000D03*
D17*
X93980000Y-23495000D03*
D12*
X98298000Y-39750000D03*
D13*
X88138000Y-39750000D03*
D14*
X38100000Y-47625000D03*
D15*
X41099547Y-51624954D02*
X41910453Y-50165046D01*
X35560276Y-52704328D02*
X35599724Y-52125672D01*
D16*
X39370000Y-42545000D03*
D17*
X36830000Y-42545000D03*
D12*
X31750000Y-55880000D03*
D13*
X41910000Y-55880000D03*
D14*
X57150000Y-47625000D03*
D15*
X60149547Y-51624954D02*
X60960453Y-50165046D01*
X54610276Y-52704328D02*
X54649724Y-52125672D01*
D16*
X58420000Y-42545000D03*
D17*
X55880000Y-42545000D03*
D12*
X48152540Y-52785520D03*
D13*
X48152540Y-42625520D03*
D14*
X76200000Y-47625000D03*
D15*
X79199547Y-51624954D02*
X80010453Y-50165046D01*
X73660276Y-52704328D02*
X73699724Y-52125672D01*
D16*
X77470000Y-42545000D03*
D17*
X74930000Y-42545000D03*
D12*
X73152000Y-56134000D03*
D13*
X83312000Y-56134000D03*
D14*
X95250000Y-57150000D03*
D15*
X99249954Y-54150453D02*
X97790046Y-53339547D01*
X100329328Y-59689724D02*
X99750672Y-59650276D01*
D16*
X90170000Y-55880000D03*
D17*
X90170000Y-58420000D03*
D12*
X85725000Y-39750000D03*
D13*
X85725000Y-49910000D03*
D14*
X38100000Y-66675000D03*
D15*
X41099547Y-70674954D02*
X41910453Y-69215046D01*
X35560276Y-71754328D02*
X35599724Y-71175672D01*
D16*
X39370000Y-61595000D03*
D17*
X36830000Y-61595000D03*
D12*
X31750000Y-74930000D03*
D13*
X41910000Y-74930000D03*
D14*
X57150000Y-66675000D03*
D15*
X60149547Y-70674954D02*
X60960453Y-69215046D01*
X54610276Y-71754328D02*
X54649724Y-71175672D01*
D16*
X58420000Y-61595000D03*
D17*
X55880000Y-61595000D03*
D12*
X48152540Y-71835520D03*
D13*
X48152540Y-61675520D03*
D14*
X76200000Y-66675000D03*
D15*
X79199547Y-70674954D02*
X80010453Y-69215046D01*
X73660276Y-71754328D02*
X73699724Y-71175672D01*
D16*
X77470000Y-61595000D03*
D17*
X74930000Y-61595000D03*
D12*
X67202540Y-71835520D03*
D13*
X67202540Y-61675520D03*
D14*
X38100000Y-85725000D03*
D15*
X41099547Y-89724954D02*
X41910453Y-88265046D01*
X35560276Y-90804328D02*
X35599724Y-90225672D01*
D16*
X39370000Y-80645000D03*
D17*
X36830000Y-80645000D03*
D12*
X86360000Y-70358000D03*
D13*
X86360000Y-60198000D03*
D14*
X57150000Y-85725000D03*
D15*
X60149547Y-89724954D02*
X60960453Y-88265046D01*
X54610276Y-90804328D02*
X54649724Y-90225672D01*
D16*
X58420000Y-80645000D03*
D17*
X55880000Y-80645000D03*
D12*
X35496500Y-94000000D03*
D13*
X45656500Y-94000000D03*
D14*
X76200000Y-85725000D03*
D15*
X79199547Y-89724954D02*
X80010453Y-88265046D01*
X73660276Y-90804328D02*
X73699724Y-90225672D01*
D16*
X77470000Y-80645000D03*
D17*
X74930000Y-80645000D03*
D12*
X67202540Y-90885520D03*
D13*
X67202540Y-80725520D03*
D12*
X70612000Y-93726000D03*
D13*
X80772000Y-93726000D03*
D14*
X47625000Y-104775000D03*
D15*
X50624547Y-108774954D02*
X51435453Y-107315046D01*
X45085276Y-109854328D02*
X45124724Y-109275672D01*
D16*
X48895000Y-99695000D03*
D17*
X46355000Y-99695000D03*
D14*
X76200000Y-104775000D03*
D15*
X79199547Y-108774954D02*
X80010453Y-107315046D01*
X73660276Y-109854328D02*
X73699724Y-109275672D01*
D16*
X77470000Y-99695000D03*
D17*
X74930000Y-99695000D03*
D12*
X54089480Y-93980000D03*
D13*
X64249480Y-93980000D03*
D14*
X95250000Y-95250000D03*
D15*
X99249954Y-92250453D02*
X97790046Y-91439547D01*
X100329328Y-97789724D02*
X99750672Y-97750276D01*
D16*
X90170000Y-93980000D03*
D17*
X90170000Y-96520000D03*
D12*
X54102000Y-96647000D03*
D13*
X64262000Y-96647000D03*
D12*
X67250000Y-107696000D03*
D13*
X67250000Y-97536000D03*
D12*
X85002540Y-109500000D03*
D13*
X85002540Y-99340000D03*
D18*
X71498980Y-29000000D03*
X67501020Y-29000000D03*
D19*
X58000000Y-35250000D03*
X58000000Y-37750000D03*
D20*
X67750000Y-31000000D03*
X70250000Y-31000000D03*
X72750000Y-49500000D03*
X70250000Y-49500000D03*
X73750000Y-36000000D03*
X76250000Y-36000000D03*
D19*
X63000000Y-54500000D03*
X63000000Y-52000000D03*
X70000000Y-51750000D03*
X70000000Y-54250000D03*
D20*
X74150000Y-44600000D03*
X76650000Y-44600000D03*
X67750000Y-33000000D03*
X70250000Y-33000000D03*
D19*
X53500000Y-77000000D03*
X53500000Y-74500000D03*
D20*
X51000000Y-85750000D03*
X48500000Y-85750000D03*
D21*
X71585340Y-25500000D03*
X67414660Y-25500000D03*
D22*
X84632800Y-26563320D03*
X85432900Y-26563320D03*
X86233000Y-26563320D03*
X87033100Y-26563320D03*
X87833200Y-26563320D03*
D23*
X81782920Y-26464260D03*
X81782920Y-20965160D03*
X90683080Y-26464260D03*
X90683080Y-20965160D03*
D24*
X84033360Y-23964900D03*
X88432640Y-23964900D03*
D25*
X83750000Y-36650000D03*
X83750000Y-29850000D03*
X87750000Y-29850000D03*
X87750000Y-36650000D03*
D26*
X72200000Y-37500000D03*
X72200000Y-38300000D03*
X72200000Y-39100000D03*
X72200000Y-39900000D03*
X72200000Y-40700000D03*
X72200000Y-41500000D03*
X72200000Y-42300000D03*
X72200000Y-43100000D03*
X72200000Y-43900000D03*
X72200000Y-44700000D03*
X72200000Y-45500000D03*
D27*
X70500000Y-47200000D03*
X69700000Y-47200000D03*
X68900000Y-47200000D03*
X68100000Y-47200000D03*
X67300000Y-47200000D03*
X66500000Y-47200000D03*
X65700000Y-47200000D03*
X64900000Y-47200000D03*
X64100000Y-47200000D03*
X63300000Y-47200000D03*
X62500000Y-47200000D03*
D26*
X60800000Y-45500000D03*
X60800000Y-44700000D03*
X60800000Y-43900000D03*
X60800000Y-43100000D03*
X60800000Y-42300000D03*
X60800000Y-41500000D03*
X60800000Y-40700000D03*
X60800000Y-39900000D03*
X60800000Y-39100000D03*
X60800000Y-38300000D03*
X60800000Y-37500000D03*
D27*
X62500000Y-35800000D03*
X63300000Y-35800000D03*
X64100000Y-35800000D03*
X64900000Y-35800000D03*
X65700000Y-35800000D03*
X66500000Y-35800000D03*
X67300000Y-35800000D03*
X68100000Y-35800000D03*
X68900000Y-35800000D03*
X69700000Y-35800000D03*
X70500000Y-35800000D03*
D28*
X51725000Y-83100000D03*
X51075000Y-83100000D03*
X50425000Y-83100000D03*
X49775000Y-83100000D03*
X49125000Y-83100000D03*
X48475000Y-83100000D03*
X47825000Y-83100000D03*
X47175000Y-83100000D03*
X46525000Y-83100000D03*
X45875000Y-83100000D03*
X45225000Y-83100000D03*
X44575000Y-83100000D03*
X43925000Y-83100000D03*
X43275000Y-83100000D03*
X43275000Y-75900000D03*
X43925000Y-75900000D03*
X44575000Y-75900000D03*
X45225000Y-75900000D03*
X45875000Y-75900000D03*
X46525000Y-75900000D03*
X47175000Y-75900000D03*
X47825000Y-75900000D03*
X48475000Y-75900000D03*
X49125000Y-75900000D03*
X49775000Y-75900000D03*
X50425000Y-75900000D03*
X51075000Y-75900000D03*
X51725000Y-75900000D03*
D29*
X65300000Y-55000000D03*
X65300000Y-51000000D03*
X67700000Y-51000000D03*
X67700000Y-55000000D03*
D30*
X79150000Y-37500000D03*
X81850000Y-37500000D03*
X79150000Y-39500000D03*
X81850000Y-39500000D03*
X81850000Y-35500000D03*
X79150000Y-35500000D03*
X46350000Y-48250000D03*
X43650000Y-48250000D03*
X46350000Y-46250000D03*
X43650000Y-46250000D03*
D31*
X56007000Y-77100000D03*
X56007000Y-74400000D03*
D30*
X51200000Y-87500000D03*
X48500000Y-87500000D03*
D19*
X44000000Y-73450000D03*
X44000000Y-70950000D03*
D11*
X102350000Y-39700000D03*
X100850000Y-39700000D03*
X102350000Y-36500000D03*
X100850000Y-36500000D03*
X103366000Y-95834000D03*
X101866000Y-95834000D03*
X103366000Y-92634000D03*
X101866000Y-92634000D03*
D32*
X68275000Y-20840000D03*
X68275000Y-22340000D03*
X65075000Y-20840000D03*
X65075000Y-22340000D03*
X68275000Y-111010000D03*
X68275000Y-112510000D03*
X65075000Y-111010000D03*
X65075000Y-112510000D03*
D11*
X32754000Y-39700000D03*
X31254000Y-39700000D03*
X32754000Y-36500000D03*
X31254000Y-36500000D03*
M02*
