G04 #@! TF.FileFunction,Soldermask,Top*
%FSLAX46Y46*%
G04 Gerber Fmt 4.6, Leading zero omitted, Abs format (unit mm)*
G04 Created by KiCad (PCBNEW 4.0.2-stable) date Friday, July 29, 2016 'PMt' 11:21:31 PM*
%MOMM*%
G01*
G04 APERTURE LIST*
%ADD10C,0.150000*%
%ADD11C,2.099260*%
%ADD12R,2.099260X2.099260*%
%ADD13C,4.387810*%
%ADD14C,2.900000*%
%ADD15R,2.400000X2.400000*%
%ADD16C,2.400000*%
%ADD17C,1.299160*%
G04 APERTURE END LIST*
D10*
D11*
X70750000Y-96250000D03*
D12*
X80910000Y-96250000D03*
D13*
X38100000Y-104775000D03*
D14*
X41099547Y-108774954D02*
X41910453Y-107315046D01*
X35560276Y-109854328D02*
X35599724Y-109275672D01*
D15*
X39370000Y-99695000D03*
D16*
X36830000Y-99695000D03*
D13*
X57150000Y-104775000D03*
D14*
X60149547Y-108774954D02*
X60960453Y-107315046D01*
X54610276Y-109854328D02*
X54649724Y-109275672D01*
D15*
X58420000Y-99695000D03*
D16*
X55880000Y-99695000D03*
D13*
X95250000Y-104775000D03*
D14*
X98249547Y-108774954D02*
X99060453Y-107315046D01*
X92710276Y-109854328D02*
X92749724Y-109275672D01*
D15*
X96520000Y-99695000D03*
D16*
X93980000Y-99695000D03*
D13*
X95250000Y-85725000D03*
D14*
X98249547Y-89724954D02*
X99060453Y-88265046D01*
X92710276Y-90804328D02*
X92749724Y-90225672D01*
D15*
X96520000Y-80645000D03*
D16*
X93980000Y-80645000D03*
D13*
X95250000Y-66675000D03*
D14*
X98249547Y-70674954D02*
X99060453Y-69215046D01*
X92710276Y-71754328D02*
X92749724Y-71175672D01*
D15*
X96520000Y-61595000D03*
D16*
X93980000Y-61595000D03*
D13*
X95250000Y-47625000D03*
D14*
X98249547Y-51624954D02*
X99060453Y-50165046D01*
X92710276Y-52704328D02*
X92749724Y-52125672D01*
D15*
X96520000Y-42545000D03*
D16*
X93980000Y-42545000D03*
D13*
X38100000Y-28575000D03*
D14*
X41099547Y-32574954D02*
X41910453Y-31115046D01*
X35560276Y-33654328D02*
X35599724Y-33075672D01*
D15*
X39370000Y-23495000D03*
D16*
X36830000Y-23495000D03*
D11*
X33020000Y-20320000D03*
D12*
X43180000Y-20320000D03*
D13*
X57150000Y-28575000D03*
D14*
X60149547Y-32574954D02*
X60960453Y-31115046D01*
X54610276Y-33654328D02*
X54649724Y-33075672D01*
D15*
X58420000Y-23495000D03*
D16*
X55880000Y-23495000D03*
D11*
X48152540Y-33735520D03*
D12*
X48152540Y-23575520D03*
D13*
X76200000Y-28575000D03*
D14*
X79199547Y-32574954D02*
X80010453Y-31115046D01*
X73660276Y-33654328D02*
X73699724Y-33075672D01*
D15*
X77470000Y-23495000D03*
D16*
X74930000Y-23495000D03*
D11*
X61595000Y-20320000D03*
D12*
X51435000Y-20320000D03*
D13*
X95250000Y-28575000D03*
D14*
X98249547Y-32574954D02*
X99060453Y-31115046D01*
X92710276Y-33654328D02*
X92749724Y-33075672D01*
D15*
X96520000Y-23495000D03*
D16*
X93980000Y-23495000D03*
D11*
X98298000Y-39750000D03*
D12*
X88138000Y-39750000D03*
D13*
X38100000Y-47625000D03*
D14*
X41099547Y-51624954D02*
X41910453Y-50165046D01*
X35560276Y-52704328D02*
X35599724Y-52125672D01*
D15*
X39370000Y-42545000D03*
D16*
X36830000Y-42545000D03*
D11*
X31750000Y-55880000D03*
D12*
X41910000Y-55880000D03*
D13*
X57150000Y-47625000D03*
D14*
X60149547Y-51624954D02*
X60960453Y-50165046D01*
X54610276Y-52704328D02*
X54649724Y-52125672D01*
D15*
X58420000Y-42545000D03*
D16*
X55880000Y-42545000D03*
D11*
X48152540Y-52785520D03*
D12*
X48152540Y-42625520D03*
D13*
X76200000Y-47625000D03*
D14*
X79199547Y-51624954D02*
X80010453Y-50165046D01*
X73660276Y-52704328D02*
X73699724Y-52125672D01*
D15*
X77470000Y-42545000D03*
D16*
X74930000Y-42545000D03*
D11*
X73152000Y-56134000D03*
D12*
X83312000Y-56134000D03*
D13*
X95250000Y-57150000D03*
D14*
X99249954Y-54150453D02*
X97790046Y-53339547D01*
X100329328Y-59689724D02*
X99750672Y-59650276D01*
D15*
X90170000Y-55880000D03*
D16*
X90170000Y-58420000D03*
D11*
X85725000Y-39750000D03*
D12*
X85725000Y-49910000D03*
D13*
X38100000Y-66675000D03*
D14*
X41099547Y-70674954D02*
X41910453Y-69215046D01*
X35560276Y-71754328D02*
X35599724Y-71175672D01*
D15*
X39370000Y-61595000D03*
D16*
X36830000Y-61595000D03*
D11*
X31750000Y-74930000D03*
D12*
X41910000Y-74930000D03*
D13*
X57150000Y-66675000D03*
D14*
X60149547Y-70674954D02*
X60960453Y-69215046D01*
X54610276Y-71754328D02*
X54649724Y-71175672D01*
D15*
X58420000Y-61595000D03*
D16*
X55880000Y-61595000D03*
D11*
X48152540Y-71835520D03*
D12*
X48152540Y-61675520D03*
D13*
X76200000Y-66675000D03*
D14*
X79199547Y-70674954D02*
X80010453Y-69215046D01*
X73660276Y-71754328D02*
X73699724Y-71175672D01*
D15*
X77470000Y-61595000D03*
D16*
X74930000Y-61595000D03*
D11*
X67202540Y-71835520D03*
D12*
X67202540Y-61675520D03*
D13*
X38100000Y-85725000D03*
D14*
X41099547Y-89724954D02*
X41910453Y-88265046D01*
X35560276Y-90804328D02*
X35599724Y-90225672D01*
D15*
X39370000Y-80645000D03*
D16*
X36830000Y-80645000D03*
D11*
X86360000Y-70358000D03*
D12*
X86360000Y-60198000D03*
D13*
X57150000Y-85725000D03*
D14*
X60149547Y-89724954D02*
X60960453Y-88265046D01*
X54610276Y-90804328D02*
X54649724Y-90225672D01*
D15*
X58420000Y-80645000D03*
D16*
X55880000Y-80645000D03*
D11*
X35496500Y-94000000D03*
D12*
X45656500Y-94000000D03*
D13*
X76200000Y-85725000D03*
D14*
X79199547Y-89724954D02*
X80010453Y-88265046D01*
X73660276Y-90804328D02*
X73699724Y-90225672D01*
D15*
X77470000Y-80645000D03*
D16*
X74930000Y-80645000D03*
D11*
X67202540Y-90885520D03*
D12*
X67202540Y-80725520D03*
D11*
X70612000Y-93726000D03*
D12*
X80772000Y-93726000D03*
D13*
X47625000Y-104775000D03*
D14*
X50624547Y-108774954D02*
X51435453Y-107315046D01*
X45085276Y-109854328D02*
X45124724Y-109275672D01*
D15*
X48895000Y-99695000D03*
D16*
X46355000Y-99695000D03*
D13*
X76200000Y-104775000D03*
D14*
X79199547Y-108774954D02*
X80010453Y-107315046D01*
X73660276Y-109854328D02*
X73699724Y-109275672D01*
D15*
X77470000Y-99695000D03*
D16*
X74930000Y-99695000D03*
D11*
X54089480Y-93980000D03*
D12*
X64249480Y-93980000D03*
D13*
X95250000Y-95250000D03*
D14*
X99249954Y-92250453D02*
X97790046Y-91439547D01*
X100329328Y-97789724D02*
X99750672Y-97750276D01*
D15*
X90170000Y-93980000D03*
D16*
X90170000Y-96520000D03*
D11*
X54102000Y-96647000D03*
D12*
X64262000Y-96647000D03*
D11*
X67250000Y-107696000D03*
D12*
X67250000Y-97536000D03*
D11*
X85002540Y-109500000D03*
D12*
X85002540Y-99340000D03*
D17*
X84033360Y-23964900D03*
X88432640Y-23964900D03*
M02*
