M48
;DRILL file {KiCad 4.0.2-stable} date Friday, July 29, 2016 'PMt' 10:42:33 PM
;FORMAT={-:-/ absolute / metric / decimal}
FMAT,2
METRIC,TZ
T1C0.300
T2C0.305
T3C0.701
T4C1.000
T5C1.500
T6C0.899
T7C3.988
%
G90
G05
M71
T1
X29.21Y-58.547
X29.21Y-86.106
X29.464Y-31.115
X29.464Y-39.116
X30.226Y-20.32
X31.369Y-110.744
X32.258Y-90.17
X33.528Y-31.115
X34.29Y-79.756
X34.798Y-20.32
X35.433Y-57.531
X36.322Y-39.116
X42.164Y-76.454
X42.164Y-79.375
X42.164Y-81.534
X42.799Y-86.233
X42.926Y-91.059
X43.561Y-111.125
X43.815Y-39.116
X43.942Y-69.088
X43.942Y-104.394
X43.942Y-113.284
X44.069Y-51.181
X44.069Y-57.912
X44.323Y-28.702
X45.085Y-45.466
X45.085Y-97.536
X45.212Y-72.771
X45.847Y-86.233
X46.482Y-78.486
X47.625Y-20.32
X48.387Y-36.195
X49.784Y-87.376
X49.911Y-95.123
X51.943Y-59.055
X51.943Y-70.358
X52.324Y-72.644
X52.959Y-28.448
X52.959Y-37.719
X52.959Y-79.502
X53.975Y-54.737
X54.737Y-76.581
X56.388Y-72.644
X57.023Y-59.055
X57.277Y-32.639
X57.404Y-95.631
X58.801Y-20.701
X59.182Y-37.973
X59.182Y-56.261
X59.69Y-65.786
X60.198Y-27.051
X60.452Y-47.879
X61.341Y-58.674
X61.341Y-95.631
X61.468Y-85.344
X61.595Y-113.284
X61.976Y-45.72
X62.484Y-38.608
X62.484Y-40.894
X62.992Y-109.728
X63.373Y-34.036
X63.5Y-20.701
X65.151Y-90.17
X66.04Y-27.178
X67.31Y-45.974
X67.564Y-38.608
X67.564Y-40.894
X67.818Y-34.163
X69.723Y-56.388
X69.723Y-65.024
X69.977Y-85.344
X70.866Y-40.894
X70.993Y-103.886
X70.993Y-109.728
X70.993Y-113.284
X71.882Y-36.068
X73.533Y-63.754
X73.66Y-27.305
X73.914Y-40.386
X74.422Y-50.165
X75.057Y-20.447
X75.057Y-76.708
X76.327Y-32.766
X78.994Y-45.72
X81.026Y-54.991
X81.026Y-61.214
X81.026Y-65.786
X81.915Y-28.829
X83.185Y-41.656
X83.693Y-26.797
X84.963Y-36.449
X85.344Y-77.216
X85.344Y-87.884
X86.106Y-21.082
X86.106Y-24.003
X88.646Y-35.306
X88.9Y-105.029
X89.027Y-43.815
X89.662Y-29.718
X91.567Y-61.214
X95.504Y-89.408
X97.028Y-73.152
X99.441Y-85.471
X99.568Y-27.686
X101.219Y-70.358
X101.346Y-52.197
X102.108Y-89.408
X102.108Y-112.649
X102.997Y-21.59
X104.013Y-83.185
X104.14Y-48.514
X104.14Y-67.945
X104.14Y-98.806
T2
X29.811Y-77.47
X30.607Y-24.511
X31.Y-25.6
X31.369Y-83.058
X32.5Y-26.5
X33.013Y-91.536
X33.17Y-82.281
X33.846Y-97.346
X34.798Y-61.595
X35.179Y-100.965
X38.328Y-73.5
X38.862Y-78.232
X41.91Y-22.606
X42.545Y-82.423
X42.75Y-44.5
X43.053Y-77.47
X43.404Y-92.797
X43.5Y-45.
X43.629Y-23.673
X43.701Y-78.279
X44.069Y-102.108
X44.323Y-77.47
X44.704Y-84.455
X45.085Y-61.722
X45.212Y-81.661
X46.482Y-97.282
X46.8Y-40.
X47.236Y-59.542
X47.25Y-56.
X47.75Y-45.75
X47.75Y-77.5
X47.752Y-96.266
X49.25Y-74.227
X49.51Y-73.471
X49.75Y-60.277
X50.Y-24.
X50.165Y-42.545
X50.2Y-80.4
X50.25Y-84.5
X51.137Y-77.384
X51.25Y-23.262
X51.435Y-61.595
X51.562Y-30.734
X51.562Y-49.784
X52.324Y-75.819
X52.6Y-64.2
X53.Y-41.
X53.318Y-22.945
X53.496Y-78.325
X54.25Y-84.5
X54.75Y-36.75
X59.312Y-45.698
X59.4Y-40.8
X59.436Y-39.37
X60.857Y-23.326
X62.103Y-93.726
X62.738Y-83.185
X62.8Y-45.4
X63.Y-25.6
X63.245Y-29.55
X63.8Y-26.2
X64.Y-45.4
X64.2Y-64.6
X64.25Y-37.
X65.Y-45.75
X65.8Y-97.8
X66.Y-45.75
X66.5Y-31.
X66.802Y-109.982
X69.75Y-45.5
X69.85Y-21.209
X70.231Y-23.114
X70.5Y-34.5
X70.8Y-57.113
X70.866Y-43.942
X71.146Y-43.193
X71.615Y-78.325
X73.4Y-46.2
X73.406Y-74.168
X74.Y-60.198
X76.215Y-58.863
X77.412Y-58.965
X78.788Y-77.47
X79.713Y-41.211
X81.75Y-34.25
X82.931Y-111.379
X83.185Y-83.312
X85.09Y-43.688
X86.868Y-52.324
X87.25Y-44.564
X87.63Y-79.502
X87.63Y-99.822
X88.646Y-72.644
X89.25Y-34.25
X92.71Y-97.838
X92.75Y-39.75
X95.25Y-74.168
X96.038Y-75.692
X100.457Y-94.742
X100.711Y-83.439
X101.727Y-25.146
X102.362Y-74.549
X102.489Y-26.289
X102.807Y-101.471
T3
X31.75Y-55.88
X31.75Y-74.93
X33.02Y-20.32
X35.496Y-94.
X41.91Y-55.88
X41.91Y-74.93
X43.18Y-20.32
X45.657Y-94.
X48.153Y-23.576
X48.153Y-33.736
X48.153Y-42.626
X48.153Y-52.786
X48.153Y-61.676
X48.153Y-71.836
X51.435Y-20.32
X54.089Y-93.98
X54.102Y-96.647
X61.595Y-20.32
X64.249Y-93.98
X64.262Y-96.647
X67.203Y-61.676
X67.203Y-71.836
X67.203Y-80.726
X67.203Y-90.886
X67.25Y-97.536
X67.25Y-107.696
X70.612Y-93.726
X70.75Y-96.25
X73.152Y-56.134
X80.772Y-93.726
X80.91Y-96.25
X83.312Y-56.134
X85.003Y-99.34
X85.003Y-109.5
X85.725Y-39.75
X85.725Y-49.91
X86.36Y-60.198
X86.36Y-70.358
X88.138Y-39.75
X98.298Y-39.75
T4
X36.83Y-23.495
X36.83Y-42.545
X36.83Y-61.595
X36.83Y-80.645
X36.83Y-99.695
X39.37Y-23.495
X39.37Y-42.545
X39.37Y-61.595
X39.37Y-80.645
X39.37Y-99.695
X46.355Y-99.695
X48.895Y-99.695
X55.88Y-23.495
X55.88Y-42.545
X55.88Y-61.595
X55.88Y-80.645
X55.88Y-99.695
X58.42Y-23.495
X58.42Y-42.545
X58.42Y-61.595
X58.42Y-80.645
X58.42Y-99.695
X74.93Y-23.495
X74.93Y-42.545
X74.93Y-61.595
X74.93Y-80.645
X74.93Y-99.695
X77.47Y-23.495
X77.47Y-42.545
X77.47Y-61.595
X77.47Y-80.645
X77.47Y-99.695
X90.17Y-55.88
X90.17Y-58.42
X90.17Y-93.98
X90.17Y-96.52
X93.98Y-23.495
X93.98Y-42.545
X93.98Y-61.595
X93.98Y-80.645
X93.98Y-99.695
X96.52Y-23.495
X96.52Y-42.545
X96.52Y-61.595
X96.52Y-80.645
X96.52Y-99.695
T6
X84.033Y-23.965
X88.433Y-23.965
T7
X38.1Y-28.575
X38.1Y-47.625
X38.1Y-66.675
X38.1Y-85.725
X38.1Y-104.775
X47.625Y-104.775
X57.15Y-28.575
X57.15Y-47.625
X57.15Y-66.675
X57.15Y-85.725
X57.15Y-104.775
X76.2Y-28.575
X76.2Y-47.625
X76.2Y-66.675
X76.2Y-85.725
X76.2Y-104.775
X95.25Y-28.575
X95.25Y-47.625
X95.25Y-57.15
X95.25Y-66.675
X95.25Y-85.725
X95.25Y-95.25
X95.25Y-104.775
T5
X35.56Y-33.654G85X35.6Y-33.076
G05
X35.56Y-52.704G85X35.6Y-52.126
G05
X35.56Y-71.754G85X35.6Y-71.176
G05
X35.56Y-90.804G85X35.6Y-90.226
G05
X35.56Y-109.854G85X35.6Y-109.276
G05
X41.1Y-32.575G85X41.91Y-31.115
G05
X41.1Y-51.625G85X41.91Y-50.165
G05
X41.1Y-70.675G85X41.91Y-69.215
G05
X41.1Y-89.725G85X41.91Y-88.265
G05
X41.1Y-108.775G85X41.91Y-107.315
G05
X45.085Y-109.854G85X45.125Y-109.276
G05
X50.625Y-108.775G85X51.435Y-107.315
G05
X54.61Y-33.654G85X54.65Y-33.076
G05
X54.61Y-52.704G85X54.65Y-52.126
G05
X54.61Y-71.754G85X54.65Y-71.176
G05
X54.61Y-90.804G85X54.65Y-90.226
G05
X54.61Y-109.854G85X54.65Y-109.276
G05
X60.15Y-32.575G85X60.96Y-31.115
G05
X60.15Y-51.625G85X60.96Y-50.165
G05
X60.15Y-70.675G85X60.96Y-69.215
G05
X60.15Y-89.725G85X60.96Y-88.265
G05
X60.15Y-108.775G85X60.96Y-107.315
G05
X73.66Y-33.654G85X73.7Y-33.076
G05
X73.66Y-52.704G85X73.7Y-52.126
G05
X73.66Y-71.754G85X73.7Y-71.176
G05
X73.66Y-90.804G85X73.7Y-90.226
G05
X73.66Y-109.854G85X73.7Y-109.276
G05
X79.2Y-32.575G85X80.01Y-31.115
G05
X79.2Y-51.625G85X80.01Y-50.165
G05
X79.2Y-70.675G85X80.01Y-69.215
G05
X79.2Y-89.725G85X80.01Y-88.265
G05
X79.2Y-108.775G85X80.01Y-107.315
G05
X92.71Y-33.654G85X92.75Y-33.076
G05
X92.71Y-52.704G85X92.75Y-52.126
G05
X92.71Y-71.754G85X92.75Y-71.176
G05
X92.71Y-90.804G85X92.75Y-90.226
G05
X92.71Y-109.854G85X92.75Y-109.276
G05
X99.25Y-54.15G85X97.79Y-53.34
G05
X99.25Y-92.25G85X97.79Y-91.44
G05
X98.25Y-32.575G85X99.06Y-31.115
G05
X98.25Y-51.625G85X99.06Y-50.165
G05
X98.25Y-70.675G85X99.06Y-69.215
G05
X98.25Y-89.725G85X99.06Y-88.265
G05
X98.25Y-108.775G85X99.06Y-107.315
G05
X100.329Y-59.69G85X99.751Y-59.65
G05
X100.329Y-97.79G85X99.751Y-97.75
G05
T0
M30
