M48
;DRILL file {KiCad 4.0.2-stable} date Thursday, July 28, 2016 'PMt' 07:51:58 PM
;FORMAT={-:-/ absolute / metric / decimal}
FMAT,2
METRIC,TZ
T1C0.305
T2C0.701
T3C1.000
T4C1.500
T5C0.899
T6C3.988
%
G90
G05
M71
T1
X29.781Y-99.06
X29.811Y-77.47
X29.845Y-20.32
X29.845Y-33.02
X30.48Y-112.395
X31.Y-25.6
X31.242Y-45.085
X31.369Y-83.058
X31.432Y-89.471
X31.559Y-71.12
X31.941Y-94.742
X32.385Y-33.02
X32.5Y-26.5
X33.013Y-91.536
X33.17Y-82.281
X33.846Y-97.346
X34.48Y-48.197
X34.48Y-86.995
X34.608Y-61.658
X34.925Y-20.32
X34.925Y-74.93
X35.687Y-57.087
X36.83Y-38.735
X37.655Y-95.25
X38.328Y-73.5
X38.862Y-78.232
X39.37Y-112.395
X40.64Y-20.32
X40.8Y-101.8
X41.91Y-22.606
X41.91Y-84.455
X42.545Y-62.865
X42.545Y-82.423
X42.75Y-44.5
X42.926Y-78.867
X43.053Y-77.47
X43.18Y-29.21
X43.18Y-40.64
X43.25Y-23.25
X43.434Y-81.407
X43.5Y-45.
X43.815Y-52.705
X43.815Y-57.785
X43.815Y-78.232
X43.815Y-103.505
X44.323Y-69.215
X44.323Y-77.47
X44.45Y-90.805
X44.704Y-84.455
X45.085Y-61.722
X45.085Y-85.09
X45.212Y-72.771
X45.212Y-81.661
X45.847Y-84.836
X46.355Y-78.232
X46.482Y-97.282
X46.8Y-40.
X46.99Y-92.71
X47.236Y-59.542
X47.25Y-56.
X47.75Y-45.75
X47.75Y-77.5
X47.752Y-96.266
X48.26Y-29.21
X48.26Y-36.195
X48.895Y-81.28
X49.022Y-84.709
X49.25Y-74.227
X49.4Y-78.8
X49.51Y-73.471
X49.75Y-60.277
X50.Y-24.
X50.165Y-42.545
X50.2Y-80.4
X50.25Y-84.5
X50.8Y-103.505
X51.2Y-73.783
X51.25Y-23.25
X51.4Y-64.
X51.435Y-61.595
X51.562Y-30.734
X51.562Y-49.784
X52.2Y-70.8
X52.344Y-76.06
X52.451Y-79.248
X52.6Y-64.2
X52.705Y-85.725
X53.Y-41.
X53.4Y-20.32
X53.4Y-27.8
X53.4Y-47.4
X53.4Y-54.4
X53.4Y-59.
X53.496Y-78.325
X54.25Y-84.5
X54.483Y-75.438
X54.75Y-36.75
X56.515Y-95.885
X57.Y-32.75
X57.721Y-56.8
X59.055Y-113.03
X59.312Y-45.698
X59.4Y-36.2
X59.4Y-40.8
X59.436Y-39.37
X59.75Y-27.25
X59.877Y-63.62
X60.8Y-47.2
X61.6Y-73.783
X62.Y-45.6
X62.103Y-93.726
X62.23Y-67.31
X62.738Y-83.185
X62.8Y-37.8
X62.8Y-45.4
X63.Y-25.6
X63.Y-42.8
X63.Y-49.6
X63.Y-56.8
X63.Y-60.325
X63.5Y-20.5
X63.5Y-29.845
X63.754Y-112.522
X63.8Y-26.2
X64.Y-45.4
X64.135Y-104.14
X64.2Y-64.6
X64.25Y-37.
X65.Y-45.75
X65.25Y-33.
X65.8Y-97.8
X66.Y-27.25
X66.Y-45.75
X66.5Y-31.
X67.31Y-67.31
X67.945Y-95.25
X68.Y-37.4
X68.Y-53.
X68.2Y-49.
X69.2Y-42.8
X69.215Y-83.82
X69.75Y-45.5
X69.85Y-21.209
X69.977Y-59.436
X70.Y-56.4
X70.485Y-104.14
X70.485Y-110.49
X70.485Y-113.03
X70.5Y-34.5
X70.8Y-40.6
X70.8Y-57.6
X70.866Y-43.942
X71.146Y-43.193
X71.4Y-50.8
X71.5Y-27.5
X71.6Y-83.2
X71.615Y-78.325
X72.Y-35.8
X72.4Y-30.6
X73.4Y-46.2
X73.66Y-95.885
X74.Y-40.6
X74.Y-60.198
X75.Y-93.
X75.075Y-54.575
X77.483Y-91.724
X78.6Y-47.4
X78.788Y-73.783
X79.2Y-45.8
X79.375Y-26.67
X79.713Y-41.211
X80.899Y-55.753
X81.4Y-41.4
X81.661Y-109.601
X81.75Y-34.25
X81.788Y-85.407
X81.915Y-53.467
X81.915Y-58.864
X82.4Y-79.2
X82.55Y-31.75
X83.6Y-26.6
X83.75Y-74.227
X83.8Y-39.6
X84.Y-21.
X84.Y-91.75
X84.Y-92.75
X84.8Y-36.6
X85.Y-54.5
X85.09Y-113.03
X85.6Y-106.
X85.8Y-83.946
X85.854Y-62.
X86.106Y-72.39
X86.233Y-78.74
X86.299Y-43.571
X87.25Y-44.564
X87.376Y-110.998
X87.522Y-97.75
X88.Y-90.5
X88.4Y-21.
X88.8Y-26.6
X89.Y-63.8
X89.25Y-34.25
X89.25Y-93.75
X89.535Y-60.452
X89.662Y-66.675
X89.662Y-72.263
X89.75Y-50.75
X90.125Y-54.938
X90.909Y-38.677
X91.821Y-41.021
X92.075Y-105.283
X92.202Y-46.291
X92.75Y-39.75
X95.377Y-32.766
X95.504Y-71.12
X96.012Y-54.165
X96.012Y-77.216
X97.663Y-36.195
X98.2Y-44.4
X98.615Y-42.608
X99.25Y-20.955
X100.838Y-91.694
X101.727Y-25.146
X102.362Y-74.549
X102.362Y-86.24
X102.489Y-26.289
X102.87Y-112.395
X103.124Y-83.058
X103.505Y-33.655
X103.505Y-99.06
X103.632Y-77.47
X103.886Y-56.261
T2
X31.75Y-55.88
X31.75Y-74.93
X33.02Y-20.32
X35.496Y-94.
X41.91Y-55.88
X41.91Y-74.93
X43.18Y-20.32
X45.657Y-94.
X48.153Y-23.576
X48.153Y-33.736
X48.153Y-42.626
X48.153Y-52.786
X48.153Y-61.676
X48.153Y-71.836
X51.435Y-20.32
X54.089Y-93.98
X54.102Y-96.647
X61.595Y-20.32
X64.249Y-93.98
X64.262Y-96.647
X67.203Y-61.676
X67.203Y-71.836
X67.203Y-80.726
X67.203Y-90.886
X67.25Y-97.536
X67.25Y-107.696
X70.612Y-93.726
X70.75Y-96.25
X73.152Y-56.134
X80.772Y-93.726
X80.91Y-96.25
X83.312Y-56.134
X85.003Y-99.34
X85.003Y-109.5
X85.725Y-39.75
X85.725Y-49.91
X86.36Y-60.198
X86.36Y-70.358
X88.138Y-39.75
X98.298Y-39.75
T3
X36.83Y-23.495
X36.83Y-42.545
X36.83Y-61.595
X36.83Y-80.645
X36.83Y-99.695
X39.37Y-23.495
X39.37Y-42.545
X39.37Y-61.595
X39.37Y-80.645
X39.37Y-99.695
X46.355Y-99.695
X48.895Y-99.695
X55.88Y-23.495
X55.88Y-42.545
X55.88Y-61.595
X55.88Y-80.645
X55.88Y-99.695
X58.42Y-23.495
X58.42Y-42.545
X58.42Y-61.595
X58.42Y-80.645
X58.42Y-99.695
X74.93Y-23.495
X74.93Y-42.545
X74.93Y-61.595
X74.93Y-80.645
X74.93Y-99.695
X77.47Y-23.495
X77.47Y-42.545
X77.47Y-61.595
X77.47Y-80.645
X77.47Y-99.695
X93.98Y-23.495
X93.98Y-42.545
X93.98Y-52.07
X93.98Y-61.595
X93.98Y-80.645
X93.98Y-90.17
X93.98Y-99.695
X96.52Y-23.495
X96.52Y-42.545
X96.52Y-52.07
X96.52Y-61.595
X96.52Y-80.645
X96.52Y-90.17
X96.52Y-99.695
T5
X84.033Y-23.965
X88.433Y-23.965
T6
X38.1Y-28.575
X38.1Y-47.625
X38.1Y-66.675
X38.1Y-85.725
X38.1Y-104.775
X47.625Y-104.775
X57.15Y-28.575
X57.15Y-47.625
X57.15Y-66.675
X57.15Y-85.725
X57.15Y-104.775
X76.2Y-28.575
X76.2Y-47.625
X76.2Y-66.675
X76.2Y-85.725
X76.2Y-104.775
X95.25Y-28.575
X95.25Y-47.625
X95.25Y-57.15
X95.25Y-66.675
X95.25Y-85.725
X95.25Y-95.25
X95.25Y-104.775
T4
X35.56Y-33.654G85X35.6Y-33.076
G05
X35.56Y-52.704G85X35.6Y-52.126
G05
X35.56Y-71.754G85X35.6Y-71.176
G05
X35.56Y-90.804G85X35.6Y-90.226
G05
X35.56Y-109.854G85X35.6Y-109.276
G05
X41.1Y-32.575G85X41.91Y-31.115
G05
X41.1Y-51.625G85X41.91Y-50.165
G05
X41.1Y-70.675G85X41.91Y-69.215
G05
X41.1Y-89.725G85X41.91Y-88.265
G05
X41.1Y-108.775G85X41.91Y-107.315
G05
X45.085Y-109.854G85X45.125Y-109.276
G05
X50.625Y-108.775G85X51.435Y-107.315
G05
X54.61Y-33.654G85X54.65Y-33.076
G05
X54.61Y-52.704G85X54.65Y-52.126
G05
X54.61Y-71.754G85X54.65Y-71.176
G05
X54.61Y-90.804G85X54.65Y-90.226
G05
X54.61Y-109.854G85X54.65Y-109.276
G05
X60.15Y-32.575G85X60.96Y-31.115
G05
X60.15Y-51.625G85X60.96Y-50.165
G05
X60.15Y-70.675G85X60.96Y-69.215
G05
X60.15Y-89.725G85X60.96Y-88.265
G05
X60.15Y-108.775G85X60.96Y-107.315
G05
X73.66Y-33.654G85X73.7Y-33.076
G05
X73.66Y-52.704G85X73.7Y-52.126
G05
X73.66Y-71.754G85X73.7Y-71.176
G05
X73.66Y-90.804G85X73.7Y-90.226
G05
X73.66Y-109.854G85X73.7Y-109.276
G05
X79.2Y-32.575G85X80.01Y-31.115
G05
X79.2Y-51.625G85X80.01Y-50.165
G05
X79.2Y-70.675G85X80.01Y-69.215
G05
X79.2Y-89.725G85X80.01Y-88.265
G05
X79.2Y-108.775G85X80.01Y-107.315
G05
X92.71Y-33.654G85X92.75Y-33.076
G05
X92.71Y-52.704G85X92.75Y-52.126
G05
X92.71Y-62.229G85X92.75Y-61.651
G05
X92.71Y-71.754G85X92.75Y-71.176
G05
X92.71Y-90.804G85X92.75Y-90.226
G05
X92.71Y-100.329G85X92.75Y-99.751
G05
X92.71Y-109.854G85X92.75Y-109.276
G05
X98.25Y-32.575G85X99.06Y-31.115
G05
X98.25Y-51.625G85X99.06Y-50.165
G05
X98.25Y-61.15G85X99.06Y-59.69
G05
X98.25Y-70.675G85X99.06Y-69.215
G05
X98.25Y-89.725G85X99.06Y-88.265
G05
X98.25Y-99.25G85X99.06Y-97.79
G05
X98.25Y-108.775G85X99.06Y-107.315
G05
T0
M30
