G04 #@! TF.FileFunction,Soldermask,Bot*
%FSLAX46Y46*%
G04 Gerber Fmt 4.6, Leading zero omitted, Abs format (unit mm)*
G04 Created by KiCad (PCBNEW 4.0.2-stable) date Thursday, July 28, 2016 'PMt' 07:50:01 PM*
%MOMM*%
G01*
G04 APERTURE LIST*
%ADD10C,0.150000*%
%ADD11C,0.704800*%
%ADD12R,1.400000X2.000000*%
%ADD13C,2.099260*%
%ADD14R,2.099260X2.099260*%
%ADD15C,4.387810*%
%ADD16C,2.900000*%
%ADD17R,2.400000X2.400000*%
%ADD18C,2.400000*%
%ADD19R,3.399740X1.901140*%
%ADD20R,1.650000X1.900000*%
%ADD21R,1.900000X1.650000*%
%ADD22R,3.051760X2.429460*%
%ADD23R,0.900380X2.701240*%
%ADD24R,2.398980X2.899360*%
%ADD25C,1.299160*%
%ADD26R,1.400000X3.600000*%
%ADD27R,1.900000X0.950000*%
%ADD28R,0.950000X1.900000*%
%ADD29R,0.850000X2.150000*%
%ADD30R,1.700000X2.400000*%
%ADD31R,1.900000X1.700000*%
%ADD32R,1.700000X1.900000*%
%ADD33R,2.000000X1.400000*%
G04 APERTURE END LIST*
D10*
D11*
X91821000Y-41021000D03*
X95377000Y-32766000D03*
X97663000Y-36195000D03*
X43815000Y-57785000D03*
X81915000Y-58864500D03*
X69977000Y-59436000D03*
X63000000Y-60325000D03*
X31940500Y-94742000D03*
X57721500Y-56800000D03*
X34480500Y-48196500D03*
X35687000Y-57086500D03*
X31242000Y-45085000D03*
X31432500Y-89471500D03*
D12*
X32754000Y-96215000D03*
X31254000Y-96215000D03*
X32754000Y-93015000D03*
X31254000Y-93015000D03*
D11*
X81788000Y-85407500D03*
X92075000Y-105283000D03*
X87376000Y-110998000D03*
X81661000Y-109601000D03*
X98615500Y-42608500D03*
X92202000Y-46291500D03*
X96012000Y-54165500D03*
X89535000Y-60452000D03*
X89662000Y-66675000D03*
X89662000Y-72263000D03*
X86106000Y-72390000D03*
X95504000Y-71120000D03*
X96012000Y-77216000D03*
X86233000Y-78740000D03*
X54483000Y-75438000D03*
X52451000Y-79248000D03*
X45212000Y-72771000D03*
X44323000Y-69215000D03*
X49022000Y-84709000D03*
X46355000Y-78232000D03*
X43434000Y-81407000D03*
X103632000Y-77470000D03*
X103886000Y-56261000D03*
X80899000Y-55753000D03*
X81915000Y-53467000D03*
X63500000Y-20500000D03*
X71500000Y-27500000D03*
X65250000Y-33000000D03*
X66000000Y-27250000D03*
X57000000Y-32750000D03*
X59750000Y-27250000D03*
X82550000Y-31750000D03*
X79375000Y-26670000D03*
X53400000Y-20320000D03*
X99250000Y-20955000D03*
X103505000Y-33655000D03*
X103505000Y-99060000D03*
X102870000Y-112395000D03*
X85090000Y-113030000D03*
X56515000Y-95885000D03*
X50800000Y-103505000D03*
X43815000Y-103505000D03*
X48895000Y-81280000D03*
X52705000Y-85725000D03*
X41910000Y-84455000D03*
X34925000Y-74930000D03*
X34480500Y-86995000D03*
X37655500Y-95250000D03*
X44450000Y-90805000D03*
X45085000Y-85090000D03*
X62230000Y-67310000D03*
X67310000Y-67310000D03*
X42545000Y-62865000D03*
X43815000Y-52705000D03*
X31559500Y-71120000D03*
X36830000Y-38735000D03*
X48260000Y-36195000D03*
X43180000Y-40640000D03*
X48260000Y-29210000D03*
X43180000Y-29210000D03*
X40640000Y-20320000D03*
X34925000Y-20320000D03*
X32385000Y-33020000D03*
X29845000Y-33020000D03*
X29845000Y-20320000D03*
X73660000Y-95885000D03*
X67945000Y-95250000D03*
X69215000Y-83820000D03*
X70485000Y-104140000D03*
X64135000Y-104140000D03*
X70485000Y-110490000D03*
X70485000Y-113030000D03*
X59055000Y-113030000D03*
X39370000Y-112395000D03*
X29781500Y-99060000D03*
X30480000Y-112395000D03*
X88800000Y-26600000D03*
X83600000Y-26600000D03*
X88400000Y-21000000D03*
X84000000Y-21000000D03*
X53400000Y-47400000D03*
X53400000Y-27800000D03*
X62000000Y-45600000D03*
X70800000Y-40600000D03*
X84800000Y-36600000D03*
X83800000Y-39600000D03*
X81400000Y-41400000D03*
X72400000Y-30600000D03*
X72000000Y-35800000D03*
X60800000Y-47200000D03*
X70000000Y-56400000D03*
X68000000Y-53000000D03*
X68200000Y-49000000D03*
X71400000Y-50800000D03*
X78600000Y-47400000D03*
X69200000Y-42800000D03*
X63000000Y-42800000D03*
X59400000Y-36200000D03*
X62800000Y-37800000D03*
X68000000Y-37400000D03*
X79200000Y-45800000D03*
X74000000Y-40600000D03*
X63000000Y-56800000D03*
X63000000Y-49600000D03*
X53400000Y-54400000D03*
X53400000Y-59000000D03*
X51400000Y-64000000D03*
X52200000Y-70800000D03*
X49400000Y-78800000D03*
X42926000Y-78867000D03*
D13*
X70750000Y-96250000D03*
D14*
X80910000Y-96250000D03*
D15*
X38100000Y-104775000D03*
D16*
X41099547Y-108774954D02*
X41910453Y-107315046D01*
X35560276Y-109854328D02*
X35599724Y-109275672D01*
D17*
X39370000Y-99695000D03*
D18*
X36830000Y-99695000D03*
D15*
X57150000Y-104775000D03*
D16*
X60149547Y-108774954D02*
X60960453Y-107315046D01*
X54610276Y-109854328D02*
X54649724Y-109275672D01*
D17*
X58420000Y-99695000D03*
D18*
X55880000Y-99695000D03*
D15*
X95250000Y-104775000D03*
D16*
X98249547Y-108774954D02*
X99060453Y-107315046D01*
X92710276Y-109854328D02*
X92749724Y-109275672D01*
D17*
X96520000Y-99695000D03*
D18*
X93980000Y-99695000D03*
D15*
X95250000Y-85725000D03*
D16*
X98249547Y-89724954D02*
X99060453Y-88265046D01*
X92710276Y-90804328D02*
X92749724Y-90225672D01*
D17*
X96520000Y-80645000D03*
D18*
X93980000Y-80645000D03*
D15*
X95250000Y-66675000D03*
D16*
X98249547Y-70674954D02*
X99060453Y-69215046D01*
X92710276Y-71754328D02*
X92749724Y-71175672D01*
D17*
X96520000Y-61595000D03*
D18*
X93980000Y-61595000D03*
D15*
X95250000Y-47625000D03*
D16*
X98249547Y-51624954D02*
X99060453Y-50165046D01*
X92710276Y-52704328D02*
X92749724Y-52125672D01*
D17*
X96520000Y-42545000D03*
D18*
X93980000Y-42545000D03*
D15*
X38100000Y-28575000D03*
D16*
X41099547Y-32574954D02*
X41910453Y-31115046D01*
X35560276Y-33654328D02*
X35599724Y-33075672D01*
D17*
X39370000Y-23495000D03*
D18*
X36830000Y-23495000D03*
D13*
X33020000Y-20320000D03*
D14*
X43180000Y-20320000D03*
D15*
X57150000Y-28575000D03*
D16*
X60149547Y-32574954D02*
X60960453Y-31115046D01*
X54610276Y-33654328D02*
X54649724Y-33075672D01*
D17*
X58420000Y-23495000D03*
D18*
X55880000Y-23495000D03*
D13*
X48152540Y-33735520D03*
D14*
X48152540Y-23575520D03*
D15*
X76200000Y-28575000D03*
D16*
X79199547Y-32574954D02*
X80010453Y-31115046D01*
X73660276Y-33654328D02*
X73699724Y-33075672D01*
D17*
X77470000Y-23495000D03*
D18*
X74930000Y-23495000D03*
D13*
X61595000Y-20320000D03*
D14*
X51435000Y-20320000D03*
D15*
X95250000Y-28575000D03*
D16*
X98249547Y-32574954D02*
X99060453Y-31115046D01*
X92710276Y-33654328D02*
X92749724Y-33075672D01*
D17*
X96520000Y-23495000D03*
D18*
X93980000Y-23495000D03*
D13*
X98298000Y-39750000D03*
D14*
X88138000Y-39750000D03*
D15*
X38100000Y-47625000D03*
D16*
X41099547Y-51624954D02*
X41910453Y-50165046D01*
X35560276Y-52704328D02*
X35599724Y-52125672D01*
D17*
X39370000Y-42545000D03*
D18*
X36830000Y-42545000D03*
D13*
X31750000Y-55880000D03*
D14*
X41910000Y-55880000D03*
D15*
X57150000Y-47625000D03*
D16*
X60149547Y-51624954D02*
X60960453Y-50165046D01*
X54610276Y-52704328D02*
X54649724Y-52125672D01*
D17*
X58420000Y-42545000D03*
D18*
X55880000Y-42545000D03*
D13*
X48152540Y-52785520D03*
D14*
X48152540Y-42625520D03*
D15*
X76200000Y-47625000D03*
D16*
X79199547Y-51624954D02*
X80010453Y-50165046D01*
X73660276Y-52704328D02*
X73699724Y-52125672D01*
D17*
X77470000Y-42545000D03*
D18*
X74930000Y-42545000D03*
D13*
X73152000Y-56134000D03*
D14*
X83312000Y-56134000D03*
D15*
X95250000Y-57150000D03*
D16*
X98249547Y-61149954D02*
X99060453Y-59690046D01*
X92710276Y-62229328D02*
X92749724Y-61650672D01*
D17*
X96520000Y-52070000D03*
D18*
X93980000Y-52070000D03*
D13*
X85725000Y-39750000D03*
D14*
X85725000Y-49910000D03*
D15*
X38100000Y-66675000D03*
D16*
X41099547Y-70674954D02*
X41910453Y-69215046D01*
X35560276Y-71754328D02*
X35599724Y-71175672D01*
D17*
X39370000Y-61595000D03*
D18*
X36830000Y-61595000D03*
D13*
X31750000Y-74930000D03*
D14*
X41910000Y-74930000D03*
D15*
X57150000Y-66675000D03*
D16*
X60149547Y-70674954D02*
X60960453Y-69215046D01*
X54610276Y-71754328D02*
X54649724Y-71175672D01*
D17*
X58420000Y-61595000D03*
D18*
X55880000Y-61595000D03*
D13*
X48152540Y-71835520D03*
D14*
X48152540Y-61675520D03*
D15*
X76200000Y-66675000D03*
D16*
X79199547Y-70674954D02*
X80010453Y-69215046D01*
X73660276Y-71754328D02*
X73699724Y-71175672D01*
D17*
X77470000Y-61595000D03*
D18*
X74930000Y-61595000D03*
D13*
X67202540Y-71835520D03*
D14*
X67202540Y-61675520D03*
D15*
X38100000Y-85725000D03*
D16*
X41099547Y-89724954D02*
X41910453Y-88265046D01*
X35560276Y-90804328D02*
X35599724Y-90225672D01*
D17*
X39370000Y-80645000D03*
D18*
X36830000Y-80645000D03*
D13*
X86360000Y-70358000D03*
D14*
X86360000Y-60198000D03*
D15*
X57150000Y-85725000D03*
D16*
X60149547Y-89724954D02*
X60960453Y-88265046D01*
X54610276Y-90804328D02*
X54649724Y-90225672D01*
D17*
X58420000Y-80645000D03*
D18*
X55880000Y-80645000D03*
D13*
X35496500Y-94000000D03*
D14*
X45656500Y-94000000D03*
D15*
X76200000Y-85725000D03*
D16*
X79199547Y-89724954D02*
X80010453Y-88265046D01*
X73660276Y-90804328D02*
X73699724Y-90225672D01*
D17*
X77470000Y-80645000D03*
D18*
X74930000Y-80645000D03*
D13*
X67202540Y-90885520D03*
D14*
X67202540Y-80725520D03*
D13*
X70612000Y-93726000D03*
D14*
X80772000Y-93726000D03*
D15*
X47625000Y-104775000D03*
D16*
X50624547Y-108774954D02*
X51435453Y-107315046D01*
X45085276Y-109854328D02*
X45124724Y-109275672D01*
D17*
X48895000Y-99695000D03*
D18*
X46355000Y-99695000D03*
D15*
X76200000Y-104775000D03*
D16*
X79199547Y-108774954D02*
X80010453Y-107315046D01*
X73660276Y-109854328D02*
X73699724Y-109275672D01*
D17*
X77470000Y-99695000D03*
D18*
X74930000Y-99695000D03*
D13*
X54089480Y-93980000D03*
D14*
X64249480Y-93980000D03*
D15*
X95250000Y-95250000D03*
D16*
X98249547Y-99249954D02*
X99060453Y-97790046D01*
X92710276Y-100329328D02*
X92749724Y-99750672D01*
D17*
X96520000Y-90170000D03*
D18*
X93980000Y-90170000D03*
D13*
X54102000Y-96647000D03*
D14*
X64262000Y-96647000D03*
D13*
X67250000Y-107696000D03*
D14*
X67250000Y-97536000D03*
D13*
X85002540Y-109500000D03*
D14*
X85002540Y-99340000D03*
D19*
X71498980Y-29000000D03*
X67501020Y-29000000D03*
D20*
X58000000Y-35250000D03*
X58000000Y-37750000D03*
D21*
X67750000Y-31000000D03*
X70250000Y-31000000D03*
X72750000Y-49500000D03*
X70250000Y-49500000D03*
X73750000Y-36000000D03*
X76250000Y-36000000D03*
D20*
X63000000Y-54500000D03*
X63000000Y-52000000D03*
X70000000Y-51750000D03*
X70000000Y-54250000D03*
D21*
X74150000Y-44600000D03*
X76650000Y-44600000D03*
X67750000Y-33000000D03*
X70250000Y-33000000D03*
D20*
X53500000Y-77000000D03*
X53500000Y-74500000D03*
D21*
X51000000Y-85750000D03*
X48500000Y-85750000D03*
D22*
X71585340Y-25500000D03*
X67414660Y-25500000D03*
D23*
X84632800Y-26563320D03*
X85432900Y-26563320D03*
X86233000Y-26563320D03*
X87033100Y-26563320D03*
X87833200Y-26563320D03*
D24*
X81782920Y-26464260D03*
X81782920Y-20965160D03*
X90683080Y-26464260D03*
X90683080Y-20965160D03*
D25*
X84033360Y-23964900D03*
X88432640Y-23964900D03*
D26*
X83750000Y-36650000D03*
X83750000Y-29850000D03*
X87750000Y-29850000D03*
X87750000Y-36650000D03*
D27*
X72200000Y-37500000D03*
X72200000Y-38300000D03*
X72200000Y-39100000D03*
X72200000Y-39900000D03*
X72200000Y-40700000D03*
X72200000Y-41500000D03*
X72200000Y-42300000D03*
X72200000Y-43100000D03*
X72200000Y-43900000D03*
X72200000Y-44700000D03*
X72200000Y-45500000D03*
D28*
X70500000Y-47200000D03*
X69700000Y-47200000D03*
X68900000Y-47200000D03*
X68100000Y-47200000D03*
X67300000Y-47200000D03*
X66500000Y-47200000D03*
X65700000Y-47200000D03*
X64900000Y-47200000D03*
X64100000Y-47200000D03*
X63300000Y-47200000D03*
X62500000Y-47200000D03*
D27*
X60800000Y-45500000D03*
X60800000Y-44700000D03*
X60800000Y-43900000D03*
X60800000Y-43100000D03*
X60800000Y-42300000D03*
X60800000Y-41500000D03*
X60800000Y-40700000D03*
X60800000Y-39900000D03*
X60800000Y-39100000D03*
X60800000Y-38300000D03*
X60800000Y-37500000D03*
D28*
X62500000Y-35800000D03*
X63300000Y-35800000D03*
X64100000Y-35800000D03*
X64900000Y-35800000D03*
X65700000Y-35800000D03*
X66500000Y-35800000D03*
X67300000Y-35800000D03*
X68100000Y-35800000D03*
X68900000Y-35800000D03*
X69700000Y-35800000D03*
X70500000Y-35800000D03*
D29*
X51725000Y-83100000D03*
X51075000Y-83100000D03*
X50425000Y-83100000D03*
X49775000Y-83100000D03*
X49125000Y-83100000D03*
X48475000Y-83100000D03*
X47825000Y-83100000D03*
X47175000Y-83100000D03*
X46525000Y-83100000D03*
X45875000Y-83100000D03*
X45225000Y-83100000D03*
X44575000Y-83100000D03*
X43925000Y-83100000D03*
X43275000Y-83100000D03*
X43275000Y-75900000D03*
X43925000Y-75900000D03*
X44575000Y-75900000D03*
X45225000Y-75900000D03*
X45875000Y-75900000D03*
X46525000Y-75900000D03*
X47175000Y-75900000D03*
X47825000Y-75900000D03*
X48475000Y-75900000D03*
X49125000Y-75900000D03*
X49775000Y-75900000D03*
X50425000Y-75900000D03*
X51075000Y-75900000D03*
X51725000Y-75900000D03*
D30*
X65300000Y-55000000D03*
X65300000Y-51000000D03*
X67700000Y-51000000D03*
X67700000Y-55000000D03*
D31*
X79150000Y-37500000D03*
X81850000Y-37500000D03*
X79150000Y-39500000D03*
X81850000Y-39500000D03*
X81850000Y-35500000D03*
X79150000Y-35500000D03*
X46350000Y-48250000D03*
X43650000Y-48250000D03*
X46350000Y-46250000D03*
X43650000Y-46250000D03*
D32*
X55500000Y-77100000D03*
X55500000Y-74400000D03*
D31*
X51200000Y-87500000D03*
X48500000Y-87500000D03*
X85400000Y-87250000D03*
X88100000Y-87250000D03*
X88100000Y-85250000D03*
X85400000Y-85250000D03*
X85400000Y-93750000D03*
X88100000Y-93750000D03*
X88100000Y-91750000D03*
X85400000Y-91750000D03*
D32*
X99250000Y-57350000D03*
X99250000Y-54650000D03*
D31*
X86400000Y-56000000D03*
X89100000Y-56000000D03*
X86400000Y-54000000D03*
X89100000Y-54000000D03*
X89100000Y-52000000D03*
X86400000Y-52000000D03*
D32*
X99500000Y-46850000D03*
X99500000Y-44150000D03*
X90500000Y-46850000D03*
X90500000Y-44150000D03*
X87800000Y-63850000D03*
X87800000Y-66550000D03*
X85800000Y-63850000D03*
X85800000Y-66550000D03*
X99250000Y-85600000D03*
X99250000Y-82900000D03*
X91250000Y-85600000D03*
X91250000Y-82900000D03*
D31*
X89600000Y-104000000D03*
X86900000Y-104000000D03*
X86900000Y-106000000D03*
X89600000Y-106000000D03*
D20*
X44000000Y-73450000D03*
X44000000Y-70950000D03*
D12*
X102350000Y-39700000D03*
X100850000Y-39700000D03*
X102350000Y-36500000D03*
X100850000Y-36500000D03*
X102350000Y-96215000D03*
X100850000Y-96215000D03*
X102350000Y-93015000D03*
X100850000Y-93015000D03*
D33*
X68275000Y-20840000D03*
X68275000Y-22340000D03*
X65075000Y-20840000D03*
X65075000Y-22340000D03*
X68275000Y-111010000D03*
X68275000Y-112510000D03*
X65075000Y-111010000D03*
X65075000Y-112510000D03*
D12*
X32754000Y-39700000D03*
X31254000Y-39700000D03*
X32754000Y-36500000D03*
X31254000Y-36500000D03*
M02*
