G04 #@! TF.FileFunction,Legend,Bot*
%FSLAX46Y46*%
G04 Gerber Fmt 4.6, Leading zero omitted, Abs format (unit mm)*
G04 Created by KiCad (PCBNEW 4.0.3-stable) date Wednesday, August 31, 2016 'PMt' 09:30:59 PM*
%MOMM*%
%LPD*%
G01*
G04 APERTURE LIST*
%ADD10C,0.150000*%
%ADD11C,0.200000*%
%ADD12C,2.099260*%
%ADD13R,2.099260X2.099260*%
%ADD14C,4.387810*%
%ADD15C,2.900000*%
%ADD16R,0.900380X2.701240*%
%ADD17R,2.398980X2.899360*%
%ADD18C,1.299160*%
%ADD19R,1.700000X1.900000*%
%ADD20R,0.960000X2.000000*%
%ADD21R,2.000000X0.960000*%
%ADD22R,1.900000X1.650000*%
%ADD23R,1.901140X3.399740*%
%ADD24R,1.650000X1.900000*%
%ADD25R,2.429460X3.051760*%
%ADD26R,3.600000X1.400000*%
%ADD27R,2.400000X1.700000*%
%ADD28R,2.127200X2.432000*%
%ADD29O,2.127200X2.432000*%
G04 APERTURE END LIST*
D10*
D11*
X38750000Y-19890477D02*
X38702381Y-19814286D01*
X38702381Y-19700001D01*
X38750000Y-19585715D01*
X38845238Y-19509524D01*
X38940476Y-19471429D01*
X39130952Y-19433334D01*
X39273810Y-19433334D01*
X39464286Y-19471429D01*
X39559524Y-19509524D01*
X39654762Y-19585715D01*
X39702381Y-19700001D01*
X39702381Y-19776191D01*
X39654762Y-19890477D01*
X39607143Y-19928572D01*
X39273810Y-19928572D01*
X39273810Y-19776191D01*
X39702381Y-20271429D02*
X38702381Y-20271429D01*
X39702381Y-20728572D01*
X38702381Y-20728572D01*
X39702381Y-21109524D02*
X38702381Y-21109524D01*
X38702381Y-21300000D01*
X38750000Y-21414286D01*
X38845238Y-21490477D01*
X38940476Y-21528572D01*
X39130952Y-21566667D01*
X39273810Y-21566667D01*
X39464286Y-21528572D01*
X39559524Y-21490477D01*
X39654762Y-21414286D01*
X39702381Y-21300000D01*
X39702381Y-21109524D01*
X35990476Y-22952381D02*
X35990476Y-21952381D01*
X35685714Y-21952381D01*
X35609523Y-22000000D01*
X35571428Y-22047619D01*
X35533333Y-22142857D01*
X35533333Y-22285714D01*
X35571428Y-22380952D01*
X35609523Y-22428571D01*
X35685714Y-22476190D01*
X35990476Y-22476190D01*
X34733333Y-22857143D02*
X34771428Y-22904762D01*
X34885714Y-22952381D01*
X34961904Y-22952381D01*
X35076190Y-22904762D01*
X35152381Y-22809524D01*
X35190476Y-22714286D01*
X35228571Y-22523810D01*
X35228571Y-22380952D01*
X35190476Y-22190476D01*
X35152381Y-22095238D01*
X35076190Y-22000000D01*
X34961904Y-21952381D01*
X34885714Y-21952381D01*
X34771428Y-22000000D01*
X34733333Y-22047619D01*
X34466666Y-21952381D02*
X33933333Y-21952381D01*
X34276190Y-22952381D01*
X30571429Y-19759524D02*
X30571429Y-20369048D01*
X30952381Y-20064286D02*
X30190476Y-20064286D01*
X29952381Y-21130953D02*
X29952381Y-20750000D01*
X30428571Y-20711905D01*
X30380952Y-20750000D01*
X30333333Y-20826191D01*
X30333333Y-21016667D01*
X30380952Y-21092857D01*
X30428571Y-21130953D01*
X30523810Y-21169048D01*
X30761905Y-21169048D01*
X30857143Y-21130953D01*
X30904762Y-21092857D01*
X30952381Y-21016667D01*
X30952381Y-20826191D01*
X30904762Y-20750000D01*
X30857143Y-20711905D01*
X30285714Y-21435715D02*
X30952381Y-21626191D01*
X30285714Y-21816667D01*
X172383333Y-20952381D02*
X172650000Y-20476190D01*
X172840476Y-20952381D02*
X172840476Y-19952381D01*
X172535714Y-19952381D01*
X172459523Y-20000000D01*
X172421428Y-20047619D01*
X172383333Y-20142857D01*
X172383333Y-20285714D01*
X172421428Y-20380952D01*
X172459523Y-20428571D01*
X172535714Y-20476190D01*
X172840476Y-20476190D01*
X172078571Y-20047619D02*
X172040476Y-20000000D01*
X171964285Y-19952381D01*
X171773809Y-19952381D01*
X171697619Y-20000000D01*
X171659523Y-20047619D01*
X171621428Y-20142857D01*
X171621428Y-20238095D01*
X171659523Y-20380952D01*
X172116666Y-20952381D01*
X171621428Y-20952381D01*
X160883333Y-20952381D02*
X161150000Y-20476190D01*
X161340476Y-20952381D02*
X161340476Y-19952381D01*
X161035714Y-19952381D01*
X160959523Y-20000000D01*
X160921428Y-20047619D01*
X160883333Y-20142857D01*
X160883333Y-20285714D01*
X160921428Y-20380952D01*
X160959523Y-20428571D01*
X161035714Y-20476190D01*
X161340476Y-20476190D01*
X160121428Y-20952381D02*
X160578571Y-20952381D01*
X160350000Y-20952381D02*
X160350000Y-19952381D01*
X160426190Y-20095238D01*
X160502381Y-20190476D01*
X160578571Y-20238095D01*
X158607143Y-20952381D02*
X158873810Y-20476190D01*
X159064286Y-20952381D02*
X159064286Y-19952381D01*
X158759524Y-19952381D01*
X158683333Y-20000000D01*
X158645238Y-20047619D01*
X158607143Y-20142857D01*
X158607143Y-20285714D01*
X158645238Y-20380952D01*
X158683333Y-20428571D01*
X158759524Y-20476190D01*
X159064286Y-20476190D01*
X158150000Y-20952381D02*
X158226191Y-20904762D01*
X158264286Y-20857143D01*
X158302381Y-20761905D01*
X158302381Y-20476190D01*
X158264286Y-20380952D01*
X158226191Y-20333333D01*
X158150000Y-20285714D01*
X158035714Y-20285714D01*
X157959524Y-20333333D01*
X157921429Y-20380952D01*
X157883333Y-20476190D01*
X157883333Y-20761905D01*
X157921429Y-20857143D01*
X157959524Y-20904762D01*
X158035714Y-20952381D01*
X158150000Y-20952381D01*
X157616666Y-20285714D02*
X157464285Y-20952381D01*
X157311904Y-20476190D01*
X157159523Y-20952381D01*
X157007142Y-20285714D01*
X156740476Y-20904762D02*
X156664286Y-20952381D01*
X156511905Y-20952381D01*
X156435714Y-20904762D01*
X156397619Y-20809524D01*
X156397619Y-20761905D01*
X156435714Y-20666667D01*
X156511905Y-20619048D01*
X156626190Y-20619048D01*
X156702381Y-20571429D01*
X156740476Y-20476190D01*
X156740476Y-20428571D01*
X156702381Y-20333333D01*
X156626190Y-20285714D01*
X156511905Y-20285714D01*
X156435714Y-20333333D01*
X101154763Y-20857143D02*
X101192858Y-20904762D01*
X101307144Y-20952381D01*
X101383334Y-20952381D01*
X101497620Y-20904762D01*
X101573811Y-20809524D01*
X101611906Y-20714286D01*
X101650001Y-20523810D01*
X101650001Y-20380952D01*
X101611906Y-20190476D01*
X101573811Y-20095238D01*
X101497620Y-20000000D01*
X101383334Y-19952381D01*
X101307144Y-19952381D01*
X101192858Y-20000000D01*
X101154763Y-20047619D01*
X100697620Y-20952381D02*
X100773811Y-20904762D01*
X100811906Y-20857143D01*
X100850001Y-20761905D01*
X100850001Y-20476190D01*
X100811906Y-20380952D01*
X100773811Y-20333333D01*
X100697620Y-20285714D01*
X100583334Y-20285714D01*
X100507144Y-20333333D01*
X100469049Y-20380952D01*
X100430953Y-20476190D01*
X100430953Y-20761905D01*
X100469049Y-20857143D01*
X100507144Y-20904762D01*
X100583334Y-20952381D01*
X100697620Y-20952381D01*
X99973810Y-20952381D02*
X100050001Y-20904762D01*
X100088096Y-20809524D01*
X100088096Y-19952381D01*
X99326191Y-20285714D02*
X99326191Y-20952381D01*
X99669048Y-20285714D02*
X99669048Y-20809524D01*
X99630953Y-20904762D01*
X99554762Y-20952381D01*
X99440476Y-20952381D01*
X99364286Y-20904762D01*
X99326191Y-20857143D01*
X98945238Y-20952381D02*
X98945238Y-20285714D01*
X98945238Y-20380952D02*
X98907143Y-20333333D01*
X98830952Y-20285714D01*
X98716666Y-20285714D01*
X98640476Y-20333333D01*
X98602381Y-20428571D01*
X98602381Y-20952381D01*
X98602381Y-20428571D02*
X98564285Y-20333333D01*
X98488095Y-20285714D01*
X98373809Y-20285714D01*
X98297619Y-20333333D01*
X98259524Y-20428571D01*
X98259524Y-20952381D01*
X97878571Y-20285714D02*
X97878571Y-20952381D01*
X97878571Y-20380952D02*
X97840476Y-20333333D01*
X97764285Y-20285714D01*
X97649999Y-20285714D01*
X97573809Y-20333333D01*
X97535714Y-20428571D01*
X97535714Y-20952381D01*
X97192856Y-20904762D02*
X97116666Y-20952381D01*
X96964285Y-20952381D01*
X96888094Y-20904762D01*
X96849999Y-20809524D01*
X96849999Y-20761905D01*
X96888094Y-20666667D01*
X96964285Y-20619048D01*
X97078570Y-20619048D01*
X97154761Y-20571429D01*
X97192856Y-20476190D01*
X97192856Y-20428571D01*
X97154761Y-20333333D01*
X97078570Y-20285714D01*
X96964285Y-20285714D01*
X96888094Y-20333333D01*
X144264286Y-20857143D02*
X144302381Y-20904762D01*
X144416667Y-20952381D01*
X144492857Y-20952381D01*
X144607143Y-20904762D01*
X144683334Y-20809524D01*
X144721429Y-20714286D01*
X144759524Y-20523810D01*
X144759524Y-20380952D01*
X144721429Y-20190476D01*
X144683334Y-20095238D01*
X144607143Y-20000000D01*
X144492857Y-19952381D01*
X144416667Y-19952381D01*
X144302381Y-20000000D01*
X144264286Y-20047619D01*
X143502381Y-20952381D02*
X143959524Y-20952381D01*
X143730953Y-20952381D02*
X143730953Y-19952381D01*
X143807143Y-20095238D01*
X143883334Y-20190476D01*
X143959524Y-20238095D01*
X142778571Y-19952381D02*
X143159524Y-19952381D01*
X143197619Y-20428571D01*
X143159524Y-20380952D01*
X143083333Y-20333333D01*
X142892857Y-20333333D01*
X142816667Y-20380952D01*
X142778571Y-20428571D01*
X142740476Y-20523810D01*
X142740476Y-20761905D01*
X142778571Y-20857143D01*
X142816667Y-20904762D01*
X142892857Y-20952381D01*
X143083333Y-20952381D01*
X143159524Y-20904762D01*
X143197619Y-20857143D01*
X103883333Y-20857143D02*
X103921428Y-20904762D01*
X104035714Y-20952381D01*
X104111904Y-20952381D01*
X104226190Y-20904762D01*
X104302381Y-20809524D01*
X104340476Y-20714286D01*
X104378571Y-20523810D01*
X104378571Y-20380952D01*
X104340476Y-20190476D01*
X104302381Y-20095238D01*
X104226190Y-20000000D01*
X104111904Y-19952381D01*
X104035714Y-19952381D01*
X103921428Y-20000000D01*
X103883333Y-20047619D01*
X103121428Y-20952381D02*
X103578571Y-20952381D01*
X103350000Y-20952381D02*
X103350000Y-19952381D01*
X103426190Y-20095238D01*
X103502381Y-20190476D01*
X103578571Y-20238095D01*
X62809017Y-74750000D02*
G75*
G03X62809017Y-74750000I-559017J0D01*
G01*
D10*
X41996360Y-19260820D02*
X49697640Y-19260820D01*
X41996360Y-18260060D02*
X49697640Y-18260060D01*
X49697640Y-18260060D02*
X49697640Y-27459940D01*
X49697640Y-27459940D02*
X41996360Y-27459940D01*
X41996360Y-27459940D02*
X41996360Y-18260060D01*
X64555400Y-66710000D02*
X64555400Y-67910000D01*
X66305400Y-67910000D02*
X66305400Y-66710000D01*
X62802800Y-66710000D02*
X62802800Y-67910000D01*
X64552800Y-67910000D02*
X64552800Y-66710000D01*
X61246000Y-73692000D02*
X61916000Y-73692000D01*
X61246000Y-84042000D02*
X61916000Y-84042000D01*
X71596000Y-84042000D02*
X70926000Y-84042000D01*
X71596000Y-73692000D02*
X70926000Y-73692000D01*
X61246000Y-73692000D02*
X61246000Y-74362000D01*
X71596000Y-73692000D02*
X71596000Y-74362000D01*
X71596000Y-84042000D02*
X71596000Y-83372000D01*
X61246000Y-84042000D02*
X61246000Y-83372000D01*
X61916000Y-73692000D02*
X61916000Y-72217000D01*
X77750000Y-83350000D02*
X76750000Y-83350000D01*
X76750000Y-81650000D02*
X77750000Y-81650000D01*
X77750000Y-75600000D02*
X76750000Y-75600000D01*
X76750000Y-73900000D02*
X77750000Y-73900000D01*
X32801120Y-29600960D02*
X32801120Y-24399040D01*
X35198880Y-24399040D02*
X35198880Y-29600960D01*
X36298700Y-31599940D02*
X35198880Y-31599940D01*
X35798320Y-32199380D02*
X35798320Y-31000500D01*
X35198880Y-30995420D02*
X32801120Y-30995420D01*
X56650000Y-76500000D02*
X56650000Y-75500000D01*
X58350000Y-75500000D02*
X58350000Y-76500000D01*
X68350000Y-68250000D02*
X68350000Y-69250000D01*
X66650000Y-69250000D02*
X66650000Y-68250000D01*
X70500000Y-88350000D02*
X69500000Y-88350000D01*
X69500000Y-86650000D02*
X70500000Y-86650000D01*
X70350000Y-68250000D02*
X70350000Y-69250000D01*
X68650000Y-69250000D02*
X68650000Y-68250000D01*
X77750000Y-73850000D02*
X76750000Y-73850000D01*
X76750000Y-72150000D02*
X77750000Y-72150000D01*
X58350000Y-80500000D02*
X58350000Y-81500000D01*
X56650000Y-81500000D02*
X56650000Y-80500000D01*
X81375000Y-65600000D02*
X81375000Y-64400000D01*
X79625000Y-64400000D02*
X79625000Y-65600000D01*
X90500000Y-68750000D02*
X90500000Y-68550000D01*
X90500000Y-62750000D02*
X90500000Y-62950000D01*
X84000000Y-62750000D02*
X84000000Y-62950000D01*
X84000000Y-68750000D02*
X84000000Y-68550000D01*
X84000000Y-66950000D02*
X84000000Y-64550000D01*
X90500000Y-66950000D02*
X90500000Y-64550000D01*
X90500000Y-68750000D02*
X84000000Y-68750000D01*
X84000000Y-62750000D02*
X90500000Y-62750000D01*
X88250000Y-65750000D02*
G75*
G03X88250000Y-65750000I-1000000J0D01*
G01*
X88750000Y-65750000D02*
G75*
G03X88750000Y-65750000I-1500000J0D01*
G01*
X79850000Y-78700000D02*
X80550000Y-78700000D01*
X77950000Y-80200000D02*
X77950000Y-80700000D01*
X76547920Y-80200000D02*
X77950000Y-80200000D01*
X77951040Y-76800000D02*
X76548960Y-76800000D01*
X74650000Y-78700000D02*
X74650000Y-78300000D01*
X79850000Y-78700000D02*
X79850000Y-78300000D01*
D11*
X307240476Y-83129762D02*
X307097619Y-83177381D01*
X306859523Y-83177381D01*
X306764285Y-83129762D01*
X306716666Y-83082143D01*
X306669047Y-82986905D01*
X306669047Y-82891667D01*
X306716666Y-82796429D01*
X306764285Y-82748810D01*
X306859523Y-82701190D01*
X307050000Y-82653571D01*
X307145238Y-82605952D01*
X307192857Y-82558333D01*
X307240476Y-82463095D01*
X307240476Y-82367857D01*
X307192857Y-82272619D01*
X307145238Y-82225000D01*
X307050000Y-82177381D01*
X306811904Y-82177381D01*
X306669047Y-82225000D01*
X306335714Y-82177381D02*
X306097619Y-83177381D01*
X305907142Y-82463095D01*
X305716666Y-83177381D01*
X305478571Y-82177381D01*
X305335714Y-83272619D02*
X304573809Y-83272619D01*
X304430952Y-82177381D02*
X303764285Y-82177381D01*
X304192857Y-83177381D01*
X303192857Y-82177381D02*
X303097618Y-82177381D01*
X303002380Y-82225000D01*
X302954761Y-82272619D01*
X302907142Y-82367857D01*
X302859523Y-82558333D01*
X302859523Y-82796429D01*
X302907142Y-82986905D01*
X302954761Y-83082143D01*
X303002380Y-83129762D01*
X303097618Y-83177381D01*
X303192857Y-83177381D01*
X303288095Y-83129762D01*
X303335714Y-83082143D01*
X303383333Y-82986905D01*
X303430952Y-82796429D01*
X303430952Y-82558333D01*
X303383333Y-82367857D01*
X303335714Y-82272619D01*
X303288095Y-82225000D01*
X303192857Y-82177381D01*
X288190476Y-83129762D02*
X288047619Y-83177381D01*
X287809523Y-83177381D01*
X287714285Y-83129762D01*
X287666666Y-83082143D01*
X287619047Y-82986905D01*
X287619047Y-82891667D01*
X287666666Y-82796429D01*
X287714285Y-82748810D01*
X287809523Y-82701190D01*
X288000000Y-82653571D01*
X288095238Y-82605952D01*
X288142857Y-82558333D01*
X288190476Y-82463095D01*
X288190476Y-82367857D01*
X288142857Y-82272619D01*
X288095238Y-82225000D01*
X288000000Y-82177381D01*
X287761904Y-82177381D01*
X287619047Y-82225000D01*
X287285714Y-82177381D02*
X287047619Y-83177381D01*
X286857142Y-82463095D01*
X286666666Y-83177381D01*
X286428571Y-82177381D01*
X286285714Y-83272619D02*
X285523809Y-83272619D01*
X284857142Y-82177381D02*
X285047619Y-82177381D01*
X285142857Y-82225000D01*
X285190476Y-82272619D01*
X285285714Y-82415476D01*
X285333333Y-82605952D01*
X285333333Y-82986905D01*
X285285714Y-83082143D01*
X285238095Y-83129762D01*
X285142857Y-83177381D01*
X284952380Y-83177381D01*
X284857142Y-83129762D01*
X284809523Y-83082143D01*
X284761904Y-82986905D01*
X284761904Y-82748810D01*
X284809523Y-82653571D01*
X284857142Y-82605952D01*
X284952380Y-82558333D01*
X285142857Y-82558333D01*
X285238095Y-82605952D01*
X285285714Y-82653571D01*
X285333333Y-82748810D01*
X284285714Y-83177381D02*
X284095238Y-83177381D01*
X283999999Y-83129762D01*
X283952380Y-83082143D01*
X283857142Y-82939286D01*
X283809523Y-82748810D01*
X283809523Y-82367857D01*
X283857142Y-82272619D01*
X283904761Y-82225000D01*
X283999999Y-82177381D01*
X284190476Y-82177381D01*
X284285714Y-82225000D01*
X284333333Y-82272619D01*
X284380952Y-82367857D01*
X284380952Y-82605952D01*
X284333333Y-82701190D01*
X284285714Y-82748810D01*
X284190476Y-82796429D01*
X283999999Y-82796429D01*
X283904761Y-82748810D01*
X283857142Y-82701190D01*
X283809523Y-82605952D01*
X269140476Y-83129762D02*
X268997619Y-83177381D01*
X268759523Y-83177381D01*
X268664285Y-83129762D01*
X268616666Y-83082143D01*
X268569047Y-82986905D01*
X268569047Y-82891667D01*
X268616666Y-82796429D01*
X268664285Y-82748810D01*
X268759523Y-82701190D01*
X268950000Y-82653571D01*
X269045238Y-82605952D01*
X269092857Y-82558333D01*
X269140476Y-82463095D01*
X269140476Y-82367857D01*
X269092857Y-82272619D01*
X269045238Y-82225000D01*
X268950000Y-82177381D01*
X268711904Y-82177381D01*
X268569047Y-82225000D01*
X268235714Y-82177381D02*
X267997619Y-83177381D01*
X267807142Y-82463095D01*
X267616666Y-83177381D01*
X267378571Y-82177381D01*
X267235714Y-83272619D02*
X266473809Y-83272619D01*
X265807142Y-82177381D02*
X265997619Y-82177381D01*
X266092857Y-82225000D01*
X266140476Y-82272619D01*
X266235714Y-82415476D01*
X266283333Y-82605952D01*
X266283333Y-82986905D01*
X266235714Y-83082143D01*
X266188095Y-83129762D01*
X266092857Y-83177381D01*
X265902380Y-83177381D01*
X265807142Y-83129762D01*
X265759523Y-83082143D01*
X265711904Y-82986905D01*
X265711904Y-82748810D01*
X265759523Y-82653571D01*
X265807142Y-82605952D01*
X265902380Y-82558333D01*
X266092857Y-82558333D01*
X266188095Y-82605952D01*
X266235714Y-82653571D01*
X266283333Y-82748810D01*
X265140476Y-82605952D02*
X265235714Y-82558333D01*
X265283333Y-82510714D01*
X265330952Y-82415476D01*
X265330952Y-82367857D01*
X265283333Y-82272619D01*
X265235714Y-82225000D01*
X265140476Y-82177381D01*
X264949999Y-82177381D01*
X264854761Y-82225000D01*
X264807142Y-82272619D01*
X264759523Y-82367857D01*
X264759523Y-82415476D01*
X264807142Y-82510714D01*
X264854761Y-82558333D01*
X264949999Y-82605952D01*
X265140476Y-82605952D01*
X265235714Y-82653571D01*
X265283333Y-82701190D01*
X265330952Y-82796429D01*
X265330952Y-82986905D01*
X265283333Y-83082143D01*
X265235714Y-83129762D01*
X265140476Y-83177381D01*
X264949999Y-83177381D01*
X264854761Y-83129762D01*
X264807142Y-83082143D01*
X264759523Y-82986905D01*
X264759523Y-82796429D01*
X264807142Y-82701190D01*
X264854761Y-82653571D01*
X264949999Y-82605952D01*
X250090476Y-83129762D02*
X249947619Y-83177381D01*
X249709523Y-83177381D01*
X249614285Y-83129762D01*
X249566666Y-83082143D01*
X249519047Y-82986905D01*
X249519047Y-82891667D01*
X249566666Y-82796429D01*
X249614285Y-82748810D01*
X249709523Y-82701190D01*
X249900000Y-82653571D01*
X249995238Y-82605952D01*
X250042857Y-82558333D01*
X250090476Y-82463095D01*
X250090476Y-82367857D01*
X250042857Y-82272619D01*
X249995238Y-82225000D01*
X249900000Y-82177381D01*
X249661904Y-82177381D01*
X249519047Y-82225000D01*
X249185714Y-82177381D02*
X248947619Y-83177381D01*
X248757142Y-82463095D01*
X248566666Y-83177381D01*
X248328571Y-82177381D01*
X248185714Y-83272619D02*
X247423809Y-83272619D01*
X246757142Y-82177381D02*
X246947619Y-82177381D01*
X247042857Y-82225000D01*
X247090476Y-82272619D01*
X247185714Y-82415476D01*
X247233333Y-82605952D01*
X247233333Y-82986905D01*
X247185714Y-83082143D01*
X247138095Y-83129762D01*
X247042857Y-83177381D01*
X246852380Y-83177381D01*
X246757142Y-83129762D01*
X246709523Y-83082143D01*
X246661904Y-82986905D01*
X246661904Y-82748810D01*
X246709523Y-82653571D01*
X246757142Y-82605952D01*
X246852380Y-82558333D01*
X247042857Y-82558333D01*
X247138095Y-82605952D01*
X247185714Y-82653571D01*
X247233333Y-82748810D01*
X246328571Y-82177381D02*
X245661904Y-82177381D01*
X246090476Y-83177381D01*
X231040476Y-83129762D02*
X230897619Y-83177381D01*
X230659523Y-83177381D01*
X230564285Y-83129762D01*
X230516666Y-83082143D01*
X230469047Y-82986905D01*
X230469047Y-82891667D01*
X230516666Y-82796429D01*
X230564285Y-82748810D01*
X230659523Y-82701190D01*
X230850000Y-82653571D01*
X230945238Y-82605952D01*
X230992857Y-82558333D01*
X231040476Y-82463095D01*
X231040476Y-82367857D01*
X230992857Y-82272619D01*
X230945238Y-82225000D01*
X230850000Y-82177381D01*
X230611904Y-82177381D01*
X230469047Y-82225000D01*
X230135714Y-82177381D02*
X229897619Y-83177381D01*
X229707142Y-82463095D01*
X229516666Y-83177381D01*
X229278571Y-82177381D01*
X229135714Y-83272619D02*
X228373809Y-83272619D01*
X227707142Y-82177381D02*
X227897619Y-82177381D01*
X227992857Y-82225000D01*
X228040476Y-82272619D01*
X228135714Y-82415476D01*
X228183333Y-82605952D01*
X228183333Y-82986905D01*
X228135714Y-83082143D01*
X228088095Y-83129762D01*
X227992857Y-83177381D01*
X227802380Y-83177381D01*
X227707142Y-83129762D01*
X227659523Y-83082143D01*
X227611904Y-82986905D01*
X227611904Y-82748810D01*
X227659523Y-82653571D01*
X227707142Y-82605952D01*
X227802380Y-82558333D01*
X227992857Y-82558333D01*
X228088095Y-82605952D01*
X228135714Y-82653571D01*
X228183333Y-82748810D01*
X226754761Y-82177381D02*
X226945238Y-82177381D01*
X227040476Y-82225000D01*
X227088095Y-82272619D01*
X227183333Y-82415476D01*
X227230952Y-82605952D01*
X227230952Y-82986905D01*
X227183333Y-83082143D01*
X227135714Y-83129762D01*
X227040476Y-83177381D01*
X226849999Y-83177381D01*
X226754761Y-83129762D01*
X226707142Y-83082143D01*
X226659523Y-82986905D01*
X226659523Y-82748810D01*
X226707142Y-82653571D01*
X226754761Y-82605952D01*
X226849999Y-82558333D01*
X227040476Y-82558333D01*
X227135714Y-82605952D01*
X227183333Y-82653571D01*
X227230952Y-82748810D01*
X211990476Y-83129762D02*
X211847619Y-83177381D01*
X211609523Y-83177381D01*
X211514285Y-83129762D01*
X211466666Y-83082143D01*
X211419047Y-82986905D01*
X211419047Y-82891667D01*
X211466666Y-82796429D01*
X211514285Y-82748810D01*
X211609523Y-82701190D01*
X211800000Y-82653571D01*
X211895238Y-82605952D01*
X211942857Y-82558333D01*
X211990476Y-82463095D01*
X211990476Y-82367857D01*
X211942857Y-82272619D01*
X211895238Y-82225000D01*
X211800000Y-82177381D01*
X211561904Y-82177381D01*
X211419047Y-82225000D01*
X211085714Y-82177381D02*
X210847619Y-83177381D01*
X210657142Y-82463095D01*
X210466666Y-83177381D01*
X210228571Y-82177381D01*
X210085714Y-83272619D02*
X209323809Y-83272619D01*
X208657142Y-82177381D02*
X208847619Y-82177381D01*
X208942857Y-82225000D01*
X208990476Y-82272619D01*
X209085714Y-82415476D01*
X209133333Y-82605952D01*
X209133333Y-82986905D01*
X209085714Y-83082143D01*
X209038095Y-83129762D01*
X208942857Y-83177381D01*
X208752380Y-83177381D01*
X208657142Y-83129762D01*
X208609523Y-83082143D01*
X208561904Y-82986905D01*
X208561904Y-82748810D01*
X208609523Y-82653571D01*
X208657142Y-82605952D01*
X208752380Y-82558333D01*
X208942857Y-82558333D01*
X209038095Y-82605952D01*
X209085714Y-82653571D01*
X209133333Y-82748810D01*
X207704761Y-82510714D02*
X207704761Y-83177381D01*
X207942857Y-82129762D02*
X208180952Y-82844048D01*
X207561904Y-82844048D01*
X192940476Y-83129762D02*
X192797619Y-83177381D01*
X192559523Y-83177381D01*
X192464285Y-83129762D01*
X192416666Y-83082143D01*
X192369047Y-82986905D01*
X192369047Y-82891667D01*
X192416666Y-82796429D01*
X192464285Y-82748810D01*
X192559523Y-82701190D01*
X192750000Y-82653571D01*
X192845238Y-82605952D01*
X192892857Y-82558333D01*
X192940476Y-82463095D01*
X192940476Y-82367857D01*
X192892857Y-82272619D01*
X192845238Y-82225000D01*
X192750000Y-82177381D01*
X192511904Y-82177381D01*
X192369047Y-82225000D01*
X192035714Y-82177381D02*
X191797619Y-83177381D01*
X191607142Y-82463095D01*
X191416666Y-83177381D01*
X191178571Y-82177381D01*
X191035714Y-83272619D02*
X190273809Y-83272619D01*
X189607142Y-82177381D02*
X189797619Y-82177381D01*
X189892857Y-82225000D01*
X189940476Y-82272619D01*
X190035714Y-82415476D01*
X190083333Y-82605952D01*
X190083333Y-82986905D01*
X190035714Y-83082143D01*
X189988095Y-83129762D01*
X189892857Y-83177381D01*
X189702380Y-83177381D01*
X189607142Y-83129762D01*
X189559523Y-83082143D01*
X189511904Y-82986905D01*
X189511904Y-82748810D01*
X189559523Y-82653571D01*
X189607142Y-82605952D01*
X189702380Y-82558333D01*
X189892857Y-82558333D01*
X189988095Y-82605952D01*
X190035714Y-82653571D01*
X190083333Y-82748810D01*
X189178571Y-82177381D02*
X188559523Y-82177381D01*
X188892857Y-82558333D01*
X188749999Y-82558333D01*
X188654761Y-82605952D01*
X188607142Y-82653571D01*
X188559523Y-82748810D01*
X188559523Y-82986905D01*
X188607142Y-83082143D01*
X188654761Y-83129762D01*
X188749999Y-83177381D01*
X189035714Y-83177381D01*
X189130952Y-83129762D01*
X189178571Y-83082143D01*
X164115476Y-83129762D02*
X163972619Y-83177381D01*
X163734523Y-83177381D01*
X163639285Y-83129762D01*
X163591666Y-83082143D01*
X163544047Y-82986905D01*
X163544047Y-82891667D01*
X163591666Y-82796429D01*
X163639285Y-82748810D01*
X163734523Y-82701190D01*
X163925000Y-82653571D01*
X164020238Y-82605952D01*
X164067857Y-82558333D01*
X164115476Y-82463095D01*
X164115476Y-82367857D01*
X164067857Y-82272619D01*
X164020238Y-82225000D01*
X163925000Y-82177381D01*
X163686904Y-82177381D01*
X163544047Y-82225000D01*
X163210714Y-82177381D02*
X162972619Y-83177381D01*
X162782142Y-82463095D01*
X162591666Y-83177381D01*
X162353571Y-82177381D01*
X162210714Y-83272619D02*
X161448809Y-83272619D01*
X160782142Y-82177381D02*
X160972619Y-82177381D01*
X161067857Y-82225000D01*
X161115476Y-82272619D01*
X161210714Y-82415476D01*
X161258333Y-82605952D01*
X161258333Y-82986905D01*
X161210714Y-83082143D01*
X161163095Y-83129762D01*
X161067857Y-83177381D01*
X160877380Y-83177381D01*
X160782142Y-83129762D01*
X160734523Y-83082143D01*
X160686904Y-82986905D01*
X160686904Y-82748810D01*
X160734523Y-82653571D01*
X160782142Y-82605952D01*
X160877380Y-82558333D01*
X161067857Y-82558333D01*
X161163095Y-82605952D01*
X161210714Y-82653571D01*
X161258333Y-82748810D01*
X159734523Y-83177381D02*
X160305952Y-83177381D01*
X160020238Y-83177381D02*
X160020238Y-82177381D01*
X160115476Y-82320238D01*
X160210714Y-82415476D01*
X160305952Y-82463095D01*
X126015476Y-83129762D02*
X125872619Y-83177381D01*
X125634523Y-83177381D01*
X125539285Y-83129762D01*
X125491666Y-83082143D01*
X125444047Y-82986905D01*
X125444047Y-82891667D01*
X125491666Y-82796429D01*
X125539285Y-82748810D01*
X125634523Y-82701190D01*
X125825000Y-82653571D01*
X125920238Y-82605952D01*
X125967857Y-82558333D01*
X126015476Y-82463095D01*
X126015476Y-82367857D01*
X125967857Y-82272619D01*
X125920238Y-82225000D01*
X125825000Y-82177381D01*
X125586904Y-82177381D01*
X125444047Y-82225000D01*
X125110714Y-82177381D02*
X124872619Y-83177381D01*
X124682142Y-82463095D01*
X124491666Y-83177381D01*
X124253571Y-82177381D01*
X124110714Y-83272619D02*
X123348809Y-83272619D01*
X122634523Y-82177381D02*
X123110714Y-82177381D01*
X123158333Y-82653571D01*
X123110714Y-82605952D01*
X123015476Y-82558333D01*
X122777380Y-82558333D01*
X122682142Y-82605952D01*
X122634523Y-82653571D01*
X122586904Y-82748810D01*
X122586904Y-82986905D01*
X122634523Y-83082143D01*
X122682142Y-83129762D01*
X122777380Y-83177381D01*
X123015476Y-83177381D01*
X123110714Y-83129762D01*
X123158333Y-83082143D01*
X122015476Y-82605952D02*
X122110714Y-82558333D01*
X122158333Y-82510714D01*
X122205952Y-82415476D01*
X122205952Y-82367857D01*
X122158333Y-82272619D01*
X122110714Y-82225000D01*
X122015476Y-82177381D01*
X121824999Y-82177381D01*
X121729761Y-82225000D01*
X121682142Y-82272619D01*
X121634523Y-82367857D01*
X121634523Y-82415476D01*
X121682142Y-82510714D01*
X121729761Y-82558333D01*
X121824999Y-82605952D01*
X122015476Y-82605952D01*
X122110714Y-82653571D01*
X122158333Y-82701190D01*
X122205952Y-82796429D01*
X122205952Y-82986905D01*
X122158333Y-83082143D01*
X122110714Y-83129762D01*
X122015476Y-83177381D01*
X121824999Y-83177381D01*
X121729761Y-83129762D01*
X121682142Y-83082143D01*
X121634523Y-82986905D01*
X121634523Y-82796429D01*
X121682142Y-82701190D01*
X121729761Y-82653571D01*
X121824999Y-82605952D01*
X97440476Y-83129762D02*
X97297619Y-83177381D01*
X97059523Y-83177381D01*
X96964285Y-83129762D01*
X96916666Y-83082143D01*
X96869047Y-82986905D01*
X96869047Y-82891667D01*
X96916666Y-82796429D01*
X96964285Y-82748810D01*
X97059523Y-82701190D01*
X97250000Y-82653571D01*
X97345238Y-82605952D01*
X97392857Y-82558333D01*
X97440476Y-82463095D01*
X97440476Y-82367857D01*
X97392857Y-82272619D01*
X97345238Y-82225000D01*
X97250000Y-82177381D01*
X97011904Y-82177381D01*
X96869047Y-82225000D01*
X96535714Y-82177381D02*
X96297619Y-83177381D01*
X96107142Y-82463095D01*
X95916666Y-83177381D01*
X95678571Y-82177381D01*
X95535714Y-83272619D02*
X94773809Y-83272619D01*
X94059523Y-82177381D02*
X94535714Y-82177381D01*
X94583333Y-82653571D01*
X94535714Y-82605952D01*
X94440476Y-82558333D01*
X94202380Y-82558333D01*
X94107142Y-82605952D01*
X94059523Y-82653571D01*
X94011904Y-82748810D01*
X94011904Y-82986905D01*
X94059523Y-83082143D01*
X94107142Y-83129762D01*
X94202380Y-83177381D01*
X94440476Y-83177381D01*
X94535714Y-83129762D01*
X94583333Y-83082143D01*
X93154761Y-82177381D02*
X93345238Y-82177381D01*
X93440476Y-82225000D01*
X93488095Y-82272619D01*
X93583333Y-82415476D01*
X93630952Y-82605952D01*
X93630952Y-82986905D01*
X93583333Y-83082143D01*
X93535714Y-83129762D01*
X93440476Y-83177381D01*
X93249999Y-83177381D01*
X93154761Y-83129762D01*
X93107142Y-83082143D01*
X93059523Y-82986905D01*
X93059523Y-82748810D01*
X93107142Y-82653571D01*
X93154761Y-82605952D01*
X93249999Y-82558333D01*
X93440476Y-82558333D01*
X93535714Y-82605952D01*
X93583333Y-82653571D01*
X93630952Y-82748810D01*
X82962476Y-85748762D02*
X82819619Y-85796381D01*
X82581523Y-85796381D01*
X82486285Y-85748762D01*
X82438666Y-85701143D01*
X82391047Y-85605905D01*
X82391047Y-85510667D01*
X82438666Y-85415429D01*
X82486285Y-85367810D01*
X82581523Y-85320190D01*
X82772000Y-85272571D01*
X82867238Y-85224952D01*
X82914857Y-85177333D01*
X82962476Y-85082095D01*
X82962476Y-84986857D01*
X82914857Y-84891619D01*
X82867238Y-84844000D01*
X82772000Y-84796381D01*
X82533904Y-84796381D01*
X82391047Y-84844000D01*
X82057714Y-84796381D02*
X81819619Y-85796381D01*
X81629142Y-85082095D01*
X81438666Y-85796381D01*
X81200571Y-84796381D01*
X81057714Y-85891619D02*
X80295809Y-85891619D01*
X79581523Y-84796381D02*
X80057714Y-84796381D01*
X80105333Y-85272571D01*
X80057714Y-85224952D01*
X79962476Y-85177333D01*
X79724380Y-85177333D01*
X79629142Y-85224952D01*
X79581523Y-85272571D01*
X79533904Y-85367810D01*
X79533904Y-85605905D01*
X79581523Y-85701143D01*
X79629142Y-85748762D01*
X79724380Y-85796381D01*
X79962476Y-85796381D01*
X80057714Y-85748762D01*
X80105333Y-85701143D01*
X78629142Y-84796381D02*
X79105333Y-84796381D01*
X79152952Y-85272571D01*
X79105333Y-85224952D01*
X79010095Y-85177333D01*
X78771999Y-85177333D01*
X78676761Y-85224952D01*
X78629142Y-85272571D01*
X78581523Y-85367810D01*
X78581523Y-85605905D01*
X78629142Y-85701143D01*
X78676761Y-85748762D01*
X78771999Y-85796381D01*
X79010095Y-85796381D01*
X79105333Y-85748762D01*
X79152952Y-85701143D01*
X54654762Y-83309524D02*
X54702381Y-83452381D01*
X54702381Y-83690477D01*
X54654762Y-83785715D01*
X54607143Y-83833334D01*
X54511905Y-83880953D01*
X54416667Y-83880953D01*
X54321429Y-83833334D01*
X54273810Y-83785715D01*
X54226190Y-83690477D01*
X54178571Y-83500000D01*
X54130952Y-83404762D01*
X54083333Y-83357143D01*
X53988095Y-83309524D01*
X53892857Y-83309524D01*
X53797619Y-83357143D01*
X53750000Y-83404762D01*
X53702381Y-83500000D01*
X53702381Y-83738096D01*
X53750000Y-83880953D01*
X53702381Y-84214286D02*
X54702381Y-84452381D01*
X53988095Y-84642858D01*
X54702381Y-84833334D01*
X53702381Y-85071429D01*
X54797619Y-85214286D02*
X54797619Y-85976191D01*
X53702381Y-86690477D02*
X53702381Y-86214286D01*
X54178571Y-86166667D01*
X54130952Y-86214286D01*
X54083333Y-86309524D01*
X54083333Y-86547620D01*
X54130952Y-86642858D01*
X54178571Y-86690477D01*
X54273810Y-86738096D01*
X54511905Y-86738096D01*
X54607143Y-86690477D01*
X54654762Y-86642858D01*
X54702381Y-86547620D01*
X54702381Y-86309524D01*
X54654762Y-86214286D01*
X54607143Y-86166667D01*
X54035714Y-87595239D02*
X54702381Y-87595239D01*
X53654762Y-87357143D02*
X54369048Y-87119048D01*
X54369048Y-87738096D01*
X40290476Y-83129762D02*
X40147619Y-83177381D01*
X39909523Y-83177381D01*
X39814285Y-83129762D01*
X39766666Y-83082143D01*
X39719047Y-82986905D01*
X39719047Y-82891667D01*
X39766666Y-82796429D01*
X39814285Y-82748810D01*
X39909523Y-82701190D01*
X40100000Y-82653571D01*
X40195238Y-82605952D01*
X40242857Y-82558333D01*
X40290476Y-82463095D01*
X40290476Y-82367857D01*
X40242857Y-82272619D01*
X40195238Y-82225000D01*
X40100000Y-82177381D01*
X39861904Y-82177381D01*
X39719047Y-82225000D01*
X39385714Y-82177381D02*
X39147619Y-83177381D01*
X38957142Y-82463095D01*
X38766666Y-83177381D01*
X38528571Y-82177381D01*
X38385714Y-83272619D02*
X37623809Y-83272619D01*
X36909523Y-82177381D02*
X37385714Y-82177381D01*
X37433333Y-82653571D01*
X37385714Y-82605952D01*
X37290476Y-82558333D01*
X37052380Y-82558333D01*
X36957142Y-82605952D01*
X36909523Y-82653571D01*
X36861904Y-82748810D01*
X36861904Y-82986905D01*
X36909523Y-83082143D01*
X36957142Y-83129762D01*
X37052380Y-83177381D01*
X37290476Y-83177381D01*
X37385714Y-83129762D01*
X37433333Y-83082143D01*
X36528571Y-82177381D02*
X35909523Y-82177381D01*
X36242857Y-82558333D01*
X36099999Y-82558333D01*
X36004761Y-82605952D01*
X35957142Y-82653571D01*
X35909523Y-82748810D01*
X35909523Y-82986905D01*
X35957142Y-83082143D01*
X36004761Y-83129762D01*
X36099999Y-83177381D01*
X36385714Y-83177381D01*
X36480952Y-83129762D01*
X36528571Y-83082143D01*
X306990476Y-64079762D02*
X306847619Y-64127381D01*
X306609523Y-64127381D01*
X306514285Y-64079762D01*
X306466666Y-64032143D01*
X306419047Y-63936905D01*
X306419047Y-63841667D01*
X306466666Y-63746429D01*
X306514285Y-63698810D01*
X306609523Y-63651190D01*
X306800000Y-63603571D01*
X306895238Y-63555952D01*
X306942857Y-63508333D01*
X306990476Y-63413095D01*
X306990476Y-63317857D01*
X306942857Y-63222619D01*
X306895238Y-63175000D01*
X306800000Y-63127381D01*
X306561904Y-63127381D01*
X306419047Y-63175000D01*
X306085714Y-63127381D02*
X305847619Y-64127381D01*
X305657142Y-63413095D01*
X305466666Y-64127381D01*
X305228571Y-63127381D01*
X305085714Y-64222619D02*
X304323809Y-64222619D01*
X303609523Y-63127381D02*
X304085714Y-63127381D01*
X304133333Y-63603571D01*
X304085714Y-63555952D01*
X303990476Y-63508333D01*
X303752380Y-63508333D01*
X303657142Y-63555952D01*
X303609523Y-63603571D01*
X303561904Y-63698810D01*
X303561904Y-63936905D01*
X303609523Y-64032143D01*
X303657142Y-64079762D01*
X303752380Y-64127381D01*
X303990476Y-64127381D01*
X304085714Y-64079762D01*
X304133333Y-64032143D01*
X303180952Y-63222619D02*
X303133333Y-63175000D01*
X303038095Y-63127381D01*
X302799999Y-63127381D01*
X302704761Y-63175000D01*
X302657142Y-63222619D01*
X302609523Y-63317857D01*
X302609523Y-63413095D01*
X302657142Y-63555952D01*
X303228571Y-64127381D01*
X302609523Y-64127381D01*
X287940476Y-64079762D02*
X287797619Y-64127381D01*
X287559523Y-64127381D01*
X287464285Y-64079762D01*
X287416666Y-64032143D01*
X287369047Y-63936905D01*
X287369047Y-63841667D01*
X287416666Y-63746429D01*
X287464285Y-63698810D01*
X287559523Y-63651190D01*
X287750000Y-63603571D01*
X287845238Y-63555952D01*
X287892857Y-63508333D01*
X287940476Y-63413095D01*
X287940476Y-63317857D01*
X287892857Y-63222619D01*
X287845238Y-63175000D01*
X287750000Y-63127381D01*
X287511904Y-63127381D01*
X287369047Y-63175000D01*
X287035714Y-63127381D02*
X286797619Y-64127381D01*
X286607142Y-63413095D01*
X286416666Y-64127381D01*
X286178571Y-63127381D01*
X286035714Y-64222619D02*
X285273809Y-64222619D01*
X284559523Y-63127381D02*
X285035714Y-63127381D01*
X285083333Y-63603571D01*
X285035714Y-63555952D01*
X284940476Y-63508333D01*
X284702380Y-63508333D01*
X284607142Y-63555952D01*
X284559523Y-63603571D01*
X284511904Y-63698810D01*
X284511904Y-63936905D01*
X284559523Y-64032143D01*
X284607142Y-64079762D01*
X284702380Y-64127381D01*
X284940476Y-64127381D01*
X285035714Y-64079762D01*
X285083333Y-64032143D01*
X283559523Y-64127381D02*
X284130952Y-64127381D01*
X283845238Y-64127381D02*
X283845238Y-63127381D01*
X283940476Y-63270238D01*
X284035714Y-63365476D01*
X284130952Y-63413095D01*
X268890476Y-64079762D02*
X268747619Y-64127381D01*
X268509523Y-64127381D01*
X268414285Y-64079762D01*
X268366666Y-64032143D01*
X268319047Y-63936905D01*
X268319047Y-63841667D01*
X268366666Y-63746429D01*
X268414285Y-63698810D01*
X268509523Y-63651190D01*
X268700000Y-63603571D01*
X268795238Y-63555952D01*
X268842857Y-63508333D01*
X268890476Y-63413095D01*
X268890476Y-63317857D01*
X268842857Y-63222619D01*
X268795238Y-63175000D01*
X268700000Y-63127381D01*
X268461904Y-63127381D01*
X268319047Y-63175000D01*
X267985714Y-63127381D02*
X267747619Y-64127381D01*
X267557142Y-63413095D01*
X267366666Y-64127381D01*
X267128571Y-63127381D01*
X266985714Y-64222619D02*
X266223809Y-64222619D01*
X265509523Y-63127381D02*
X265985714Y-63127381D01*
X266033333Y-63603571D01*
X265985714Y-63555952D01*
X265890476Y-63508333D01*
X265652380Y-63508333D01*
X265557142Y-63555952D01*
X265509523Y-63603571D01*
X265461904Y-63698810D01*
X265461904Y-63936905D01*
X265509523Y-64032143D01*
X265557142Y-64079762D01*
X265652380Y-64127381D01*
X265890476Y-64127381D01*
X265985714Y-64079762D01*
X266033333Y-64032143D01*
X264842857Y-63127381D02*
X264747618Y-63127381D01*
X264652380Y-63175000D01*
X264604761Y-63222619D01*
X264557142Y-63317857D01*
X264509523Y-63508333D01*
X264509523Y-63746429D01*
X264557142Y-63936905D01*
X264604761Y-64032143D01*
X264652380Y-64079762D01*
X264747618Y-64127381D01*
X264842857Y-64127381D01*
X264938095Y-64079762D01*
X264985714Y-64032143D01*
X265033333Y-63936905D01*
X265080952Y-63746429D01*
X265080952Y-63508333D01*
X265033333Y-63317857D01*
X264985714Y-63222619D01*
X264938095Y-63175000D01*
X264842857Y-63127381D01*
X249840476Y-64079762D02*
X249697619Y-64127381D01*
X249459523Y-64127381D01*
X249364285Y-64079762D01*
X249316666Y-64032143D01*
X249269047Y-63936905D01*
X249269047Y-63841667D01*
X249316666Y-63746429D01*
X249364285Y-63698810D01*
X249459523Y-63651190D01*
X249650000Y-63603571D01*
X249745238Y-63555952D01*
X249792857Y-63508333D01*
X249840476Y-63413095D01*
X249840476Y-63317857D01*
X249792857Y-63222619D01*
X249745238Y-63175000D01*
X249650000Y-63127381D01*
X249411904Y-63127381D01*
X249269047Y-63175000D01*
X248935714Y-63127381D02*
X248697619Y-64127381D01*
X248507142Y-63413095D01*
X248316666Y-64127381D01*
X248078571Y-63127381D01*
X247935714Y-64222619D02*
X247173809Y-64222619D01*
X246507142Y-63460714D02*
X246507142Y-64127381D01*
X246745238Y-63079762D02*
X246983333Y-63794048D01*
X246364285Y-63794048D01*
X245935714Y-64127381D02*
X245745238Y-64127381D01*
X245649999Y-64079762D01*
X245602380Y-64032143D01*
X245507142Y-63889286D01*
X245459523Y-63698810D01*
X245459523Y-63317857D01*
X245507142Y-63222619D01*
X245554761Y-63175000D01*
X245649999Y-63127381D01*
X245840476Y-63127381D01*
X245935714Y-63175000D01*
X245983333Y-63222619D01*
X246030952Y-63317857D01*
X246030952Y-63555952D01*
X245983333Y-63651190D01*
X245935714Y-63698810D01*
X245840476Y-63746429D01*
X245649999Y-63746429D01*
X245554761Y-63698810D01*
X245507142Y-63651190D01*
X245459523Y-63555952D01*
X230790476Y-64079762D02*
X230647619Y-64127381D01*
X230409523Y-64127381D01*
X230314285Y-64079762D01*
X230266666Y-64032143D01*
X230219047Y-63936905D01*
X230219047Y-63841667D01*
X230266666Y-63746429D01*
X230314285Y-63698810D01*
X230409523Y-63651190D01*
X230600000Y-63603571D01*
X230695238Y-63555952D01*
X230742857Y-63508333D01*
X230790476Y-63413095D01*
X230790476Y-63317857D01*
X230742857Y-63222619D01*
X230695238Y-63175000D01*
X230600000Y-63127381D01*
X230361904Y-63127381D01*
X230219047Y-63175000D01*
X229885714Y-63127381D02*
X229647619Y-64127381D01*
X229457142Y-63413095D01*
X229266666Y-64127381D01*
X229028571Y-63127381D01*
X228885714Y-64222619D02*
X228123809Y-64222619D01*
X227457142Y-63460714D02*
X227457142Y-64127381D01*
X227695238Y-63079762D02*
X227933333Y-63794048D01*
X227314285Y-63794048D01*
X226790476Y-63555952D02*
X226885714Y-63508333D01*
X226933333Y-63460714D01*
X226980952Y-63365476D01*
X226980952Y-63317857D01*
X226933333Y-63222619D01*
X226885714Y-63175000D01*
X226790476Y-63127381D01*
X226599999Y-63127381D01*
X226504761Y-63175000D01*
X226457142Y-63222619D01*
X226409523Y-63317857D01*
X226409523Y-63365476D01*
X226457142Y-63460714D01*
X226504761Y-63508333D01*
X226599999Y-63555952D01*
X226790476Y-63555952D01*
X226885714Y-63603571D01*
X226933333Y-63651190D01*
X226980952Y-63746429D01*
X226980952Y-63936905D01*
X226933333Y-64032143D01*
X226885714Y-64079762D01*
X226790476Y-64127381D01*
X226599999Y-64127381D01*
X226504761Y-64079762D01*
X226457142Y-64032143D01*
X226409523Y-63936905D01*
X226409523Y-63746429D01*
X226457142Y-63651190D01*
X226504761Y-63603571D01*
X226599999Y-63555952D01*
X211740476Y-64079762D02*
X211597619Y-64127381D01*
X211359523Y-64127381D01*
X211264285Y-64079762D01*
X211216666Y-64032143D01*
X211169047Y-63936905D01*
X211169047Y-63841667D01*
X211216666Y-63746429D01*
X211264285Y-63698810D01*
X211359523Y-63651190D01*
X211550000Y-63603571D01*
X211645238Y-63555952D01*
X211692857Y-63508333D01*
X211740476Y-63413095D01*
X211740476Y-63317857D01*
X211692857Y-63222619D01*
X211645238Y-63175000D01*
X211550000Y-63127381D01*
X211311904Y-63127381D01*
X211169047Y-63175000D01*
X210835714Y-63127381D02*
X210597619Y-64127381D01*
X210407142Y-63413095D01*
X210216666Y-64127381D01*
X209978571Y-63127381D01*
X209835714Y-64222619D02*
X209073809Y-64222619D01*
X208407142Y-63460714D02*
X208407142Y-64127381D01*
X208645238Y-63079762D02*
X208883333Y-63794048D01*
X208264285Y-63794048D01*
X207978571Y-63127381D02*
X207311904Y-63127381D01*
X207740476Y-64127381D01*
X192690476Y-64079762D02*
X192547619Y-64127381D01*
X192309523Y-64127381D01*
X192214285Y-64079762D01*
X192166666Y-64032143D01*
X192119047Y-63936905D01*
X192119047Y-63841667D01*
X192166666Y-63746429D01*
X192214285Y-63698810D01*
X192309523Y-63651190D01*
X192500000Y-63603571D01*
X192595238Y-63555952D01*
X192642857Y-63508333D01*
X192690476Y-63413095D01*
X192690476Y-63317857D01*
X192642857Y-63222619D01*
X192595238Y-63175000D01*
X192500000Y-63127381D01*
X192261904Y-63127381D01*
X192119047Y-63175000D01*
X191785714Y-63127381D02*
X191547619Y-64127381D01*
X191357142Y-63413095D01*
X191166666Y-64127381D01*
X190928571Y-63127381D01*
X190785714Y-64222619D02*
X190023809Y-64222619D01*
X189357142Y-63460714D02*
X189357142Y-64127381D01*
X189595238Y-63079762D02*
X189833333Y-63794048D01*
X189214285Y-63794048D01*
X188404761Y-63127381D02*
X188595238Y-63127381D01*
X188690476Y-63175000D01*
X188738095Y-63222619D01*
X188833333Y-63365476D01*
X188880952Y-63555952D01*
X188880952Y-63936905D01*
X188833333Y-64032143D01*
X188785714Y-64079762D01*
X188690476Y-64127381D01*
X188499999Y-64127381D01*
X188404761Y-64079762D01*
X188357142Y-64032143D01*
X188309523Y-63936905D01*
X188309523Y-63698810D01*
X188357142Y-63603571D01*
X188404761Y-63555952D01*
X188499999Y-63508333D01*
X188690476Y-63508333D01*
X188785714Y-63555952D01*
X188833333Y-63603571D01*
X188880952Y-63698810D01*
X173640476Y-64079762D02*
X173497619Y-64127381D01*
X173259523Y-64127381D01*
X173164285Y-64079762D01*
X173116666Y-64032143D01*
X173069047Y-63936905D01*
X173069047Y-63841667D01*
X173116666Y-63746429D01*
X173164285Y-63698810D01*
X173259523Y-63651190D01*
X173450000Y-63603571D01*
X173545238Y-63555952D01*
X173592857Y-63508333D01*
X173640476Y-63413095D01*
X173640476Y-63317857D01*
X173592857Y-63222619D01*
X173545238Y-63175000D01*
X173450000Y-63127381D01*
X173211904Y-63127381D01*
X173069047Y-63175000D01*
X172735714Y-63127381D02*
X172497619Y-64127381D01*
X172307142Y-63413095D01*
X172116666Y-64127381D01*
X171878571Y-63127381D01*
X171735714Y-64222619D02*
X170973809Y-64222619D01*
X170307142Y-63460714D02*
X170307142Y-64127381D01*
X170545238Y-63079762D02*
X170783333Y-63794048D01*
X170164285Y-63794048D01*
X169307142Y-63127381D02*
X169783333Y-63127381D01*
X169830952Y-63603571D01*
X169783333Y-63555952D01*
X169688095Y-63508333D01*
X169449999Y-63508333D01*
X169354761Y-63555952D01*
X169307142Y-63603571D01*
X169259523Y-63698810D01*
X169259523Y-63936905D01*
X169307142Y-64032143D01*
X169354761Y-64079762D01*
X169449999Y-64127381D01*
X169688095Y-64127381D01*
X169783333Y-64079762D01*
X169830952Y-64032143D01*
X154590476Y-64079762D02*
X154447619Y-64127381D01*
X154209523Y-64127381D01*
X154114285Y-64079762D01*
X154066666Y-64032143D01*
X154019047Y-63936905D01*
X154019047Y-63841667D01*
X154066666Y-63746429D01*
X154114285Y-63698810D01*
X154209523Y-63651190D01*
X154400000Y-63603571D01*
X154495238Y-63555952D01*
X154542857Y-63508333D01*
X154590476Y-63413095D01*
X154590476Y-63317857D01*
X154542857Y-63222619D01*
X154495238Y-63175000D01*
X154400000Y-63127381D01*
X154161904Y-63127381D01*
X154019047Y-63175000D01*
X153685714Y-63127381D02*
X153447619Y-64127381D01*
X153257142Y-63413095D01*
X153066666Y-64127381D01*
X152828571Y-63127381D01*
X152685714Y-64222619D02*
X151923809Y-64222619D01*
X151257142Y-63460714D02*
X151257142Y-64127381D01*
X151495238Y-63079762D02*
X151733333Y-63794048D01*
X151114285Y-63794048D01*
X150304761Y-63460714D02*
X150304761Y-64127381D01*
X150542857Y-63079762D02*
X150780952Y-63794048D01*
X150161904Y-63794048D01*
X135540476Y-64079762D02*
X135397619Y-64127381D01*
X135159523Y-64127381D01*
X135064285Y-64079762D01*
X135016666Y-64032143D01*
X134969047Y-63936905D01*
X134969047Y-63841667D01*
X135016666Y-63746429D01*
X135064285Y-63698810D01*
X135159523Y-63651190D01*
X135350000Y-63603571D01*
X135445238Y-63555952D01*
X135492857Y-63508333D01*
X135540476Y-63413095D01*
X135540476Y-63317857D01*
X135492857Y-63222619D01*
X135445238Y-63175000D01*
X135350000Y-63127381D01*
X135111904Y-63127381D01*
X134969047Y-63175000D01*
X134635714Y-63127381D02*
X134397619Y-64127381D01*
X134207142Y-63413095D01*
X134016666Y-64127381D01*
X133778571Y-63127381D01*
X133635714Y-64222619D02*
X132873809Y-64222619D01*
X132207142Y-63460714D02*
X132207142Y-64127381D01*
X132445238Y-63079762D02*
X132683333Y-63794048D01*
X132064285Y-63794048D01*
X131778571Y-63127381D02*
X131159523Y-63127381D01*
X131492857Y-63508333D01*
X131349999Y-63508333D01*
X131254761Y-63555952D01*
X131207142Y-63603571D01*
X131159523Y-63698810D01*
X131159523Y-63936905D01*
X131207142Y-64032143D01*
X131254761Y-64079762D01*
X131349999Y-64127381D01*
X131635714Y-64127381D01*
X131730952Y-64079762D01*
X131778571Y-64032143D01*
X116490476Y-64079762D02*
X116347619Y-64127381D01*
X116109523Y-64127381D01*
X116014285Y-64079762D01*
X115966666Y-64032143D01*
X115919047Y-63936905D01*
X115919047Y-63841667D01*
X115966666Y-63746429D01*
X116014285Y-63698810D01*
X116109523Y-63651190D01*
X116300000Y-63603571D01*
X116395238Y-63555952D01*
X116442857Y-63508333D01*
X116490476Y-63413095D01*
X116490476Y-63317857D01*
X116442857Y-63222619D01*
X116395238Y-63175000D01*
X116300000Y-63127381D01*
X116061904Y-63127381D01*
X115919047Y-63175000D01*
X115585714Y-63127381D02*
X115347619Y-64127381D01*
X115157142Y-63413095D01*
X114966666Y-64127381D01*
X114728571Y-63127381D01*
X114585714Y-64222619D02*
X113823809Y-64222619D01*
X113157142Y-63460714D02*
X113157142Y-64127381D01*
X113395238Y-63079762D02*
X113633333Y-63794048D01*
X113014285Y-63794048D01*
X112680952Y-63222619D02*
X112633333Y-63175000D01*
X112538095Y-63127381D01*
X112299999Y-63127381D01*
X112204761Y-63175000D01*
X112157142Y-63222619D01*
X112109523Y-63317857D01*
X112109523Y-63413095D01*
X112157142Y-63555952D01*
X112728571Y-64127381D01*
X112109523Y-64127381D01*
X97440476Y-64079762D02*
X97297619Y-64127381D01*
X97059523Y-64127381D01*
X96964285Y-64079762D01*
X96916666Y-64032143D01*
X96869047Y-63936905D01*
X96869047Y-63841667D01*
X96916666Y-63746429D01*
X96964285Y-63698810D01*
X97059523Y-63651190D01*
X97250000Y-63603571D01*
X97345238Y-63555952D01*
X97392857Y-63508333D01*
X97440476Y-63413095D01*
X97440476Y-63317857D01*
X97392857Y-63222619D01*
X97345238Y-63175000D01*
X97250000Y-63127381D01*
X97011904Y-63127381D01*
X96869047Y-63175000D01*
X96535714Y-63127381D02*
X96297619Y-64127381D01*
X96107142Y-63413095D01*
X95916666Y-64127381D01*
X95678571Y-63127381D01*
X95535714Y-64222619D02*
X94773809Y-64222619D01*
X94107142Y-63460714D02*
X94107142Y-64127381D01*
X94345238Y-63079762D02*
X94583333Y-63794048D01*
X93964285Y-63794048D01*
X93059523Y-64127381D02*
X93630952Y-64127381D01*
X93345238Y-64127381D02*
X93345238Y-63127381D01*
X93440476Y-63270238D01*
X93535714Y-63365476D01*
X93630952Y-63413095D01*
X78390476Y-64079762D02*
X78247619Y-64127381D01*
X78009523Y-64127381D01*
X77914285Y-64079762D01*
X77866666Y-64032143D01*
X77819047Y-63936905D01*
X77819047Y-63841667D01*
X77866666Y-63746429D01*
X77914285Y-63698810D01*
X78009523Y-63651190D01*
X78200000Y-63603571D01*
X78295238Y-63555952D01*
X78342857Y-63508333D01*
X78390476Y-63413095D01*
X78390476Y-63317857D01*
X78342857Y-63222619D01*
X78295238Y-63175000D01*
X78200000Y-63127381D01*
X77961904Y-63127381D01*
X77819047Y-63175000D01*
X77485714Y-63127381D02*
X77247619Y-64127381D01*
X77057142Y-63413095D01*
X76866666Y-64127381D01*
X76628571Y-63127381D01*
X76485714Y-64222619D02*
X75723809Y-64222619D01*
X75057142Y-63460714D02*
X75057142Y-64127381D01*
X75295238Y-63079762D02*
X75533333Y-63794048D01*
X74914285Y-63794048D01*
X74342857Y-63127381D02*
X74247618Y-63127381D01*
X74152380Y-63175000D01*
X74104761Y-63222619D01*
X74057142Y-63317857D01*
X74009523Y-63508333D01*
X74009523Y-63746429D01*
X74057142Y-63936905D01*
X74104761Y-64032143D01*
X74152380Y-64079762D01*
X74247618Y-64127381D01*
X74342857Y-64127381D01*
X74438095Y-64079762D01*
X74485714Y-64032143D01*
X74533333Y-63936905D01*
X74580952Y-63746429D01*
X74580952Y-63508333D01*
X74533333Y-63317857D01*
X74485714Y-63222619D01*
X74438095Y-63175000D01*
X74342857Y-63127381D01*
X59340476Y-64079762D02*
X59197619Y-64127381D01*
X58959523Y-64127381D01*
X58864285Y-64079762D01*
X58816666Y-64032143D01*
X58769047Y-63936905D01*
X58769047Y-63841667D01*
X58816666Y-63746429D01*
X58864285Y-63698810D01*
X58959523Y-63651190D01*
X59150000Y-63603571D01*
X59245238Y-63555952D01*
X59292857Y-63508333D01*
X59340476Y-63413095D01*
X59340476Y-63317857D01*
X59292857Y-63222619D01*
X59245238Y-63175000D01*
X59150000Y-63127381D01*
X58911904Y-63127381D01*
X58769047Y-63175000D01*
X58435714Y-63127381D02*
X58197619Y-64127381D01*
X58007142Y-63413095D01*
X57816666Y-64127381D01*
X57578571Y-63127381D01*
X57435714Y-64222619D02*
X56673809Y-64222619D01*
X56530952Y-63127381D02*
X55911904Y-63127381D01*
X56245238Y-63508333D01*
X56102380Y-63508333D01*
X56007142Y-63555952D01*
X55959523Y-63603571D01*
X55911904Y-63698810D01*
X55911904Y-63936905D01*
X55959523Y-64032143D01*
X56007142Y-64079762D01*
X56102380Y-64127381D01*
X56388095Y-64127381D01*
X56483333Y-64079762D01*
X56530952Y-64032143D01*
X55435714Y-64127381D02*
X55245238Y-64127381D01*
X55149999Y-64079762D01*
X55102380Y-64032143D01*
X55007142Y-63889286D01*
X54959523Y-63698810D01*
X54959523Y-63317857D01*
X55007142Y-63222619D01*
X55054761Y-63175000D01*
X55149999Y-63127381D01*
X55340476Y-63127381D01*
X55435714Y-63175000D01*
X55483333Y-63222619D01*
X55530952Y-63317857D01*
X55530952Y-63555952D01*
X55483333Y-63651190D01*
X55435714Y-63698810D01*
X55340476Y-63746429D01*
X55149999Y-63746429D01*
X55054761Y-63698810D01*
X55007142Y-63651190D01*
X54959523Y-63555952D01*
X40290476Y-64079762D02*
X40147619Y-64127381D01*
X39909523Y-64127381D01*
X39814285Y-64079762D01*
X39766666Y-64032143D01*
X39719047Y-63936905D01*
X39719047Y-63841667D01*
X39766666Y-63746429D01*
X39814285Y-63698810D01*
X39909523Y-63651190D01*
X40100000Y-63603571D01*
X40195238Y-63555952D01*
X40242857Y-63508333D01*
X40290476Y-63413095D01*
X40290476Y-63317857D01*
X40242857Y-63222619D01*
X40195238Y-63175000D01*
X40100000Y-63127381D01*
X39861904Y-63127381D01*
X39719047Y-63175000D01*
X39385714Y-63127381D02*
X39147619Y-64127381D01*
X38957142Y-63413095D01*
X38766666Y-64127381D01*
X38528571Y-63127381D01*
X38385714Y-64222619D02*
X37623809Y-64222619D01*
X37480952Y-63127381D02*
X36861904Y-63127381D01*
X37195238Y-63508333D01*
X37052380Y-63508333D01*
X36957142Y-63555952D01*
X36909523Y-63603571D01*
X36861904Y-63698810D01*
X36861904Y-63936905D01*
X36909523Y-64032143D01*
X36957142Y-64079762D01*
X37052380Y-64127381D01*
X37338095Y-64127381D01*
X37433333Y-64079762D01*
X37480952Y-64032143D01*
X36290476Y-63555952D02*
X36385714Y-63508333D01*
X36433333Y-63460714D01*
X36480952Y-63365476D01*
X36480952Y-63317857D01*
X36433333Y-63222619D01*
X36385714Y-63175000D01*
X36290476Y-63127381D01*
X36099999Y-63127381D01*
X36004761Y-63175000D01*
X35957142Y-63222619D01*
X35909523Y-63317857D01*
X35909523Y-63365476D01*
X35957142Y-63460714D01*
X36004761Y-63508333D01*
X36099999Y-63555952D01*
X36290476Y-63555952D01*
X36385714Y-63603571D01*
X36433333Y-63651190D01*
X36480952Y-63746429D01*
X36480952Y-63936905D01*
X36433333Y-64032143D01*
X36385714Y-64079762D01*
X36290476Y-64127381D01*
X36099999Y-64127381D01*
X36004761Y-64079762D01*
X35957142Y-64032143D01*
X35909523Y-63936905D01*
X35909523Y-63746429D01*
X35957142Y-63651190D01*
X36004761Y-63603571D01*
X36099999Y-63555952D01*
X308768476Y-45029762D02*
X308625619Y-45077381D01*
X308387523Y-45077381D01*
X308292285Y-45029762D01*
X308244666Y-44982143D01*
X308197047Y-44886905D01*
X308197047Y-44791667D01*
X308244666Y-44696429D01*
X308292285Y-44648810D01*
X308387523Y-44601190D01*
X308578000Y-44553571D01*
X308673238Y-44505952D01*
X308720857Y-44458333D01*
X308768476Y-44363095D01*
X308768476Y-44267857D01*
X308720857Y-44172619D01*
X308673238Y-44125000D01*
X308578000Y-44077381D01*
X308339904Y-44077381D01*
X308197047Y-44125000D01*
X307863714Y-44077381D02*
X307625619Y-45077381D01*
X307435142Y-44363095D01*
X307244666Y-45077381D01*
X307006571Y-44077381D01*
X306863714Y-45172619D02*
X306101809Y-45172619D01*
X305958952Y-44077381D02*
X305339904Y-44077381D01*
X305673238Y-44458333D01*
X305530380Y-44458333D01*
X305435142Y-44505952D01*
X305387523Y-44553571D01*
X305339904Y-44648810D01*
X305339904Y-44886905D01*
X305387523Y-44982143D01*
X305435142Y-45029762D01*
X305530380Y-45077381D01*
X305816095Y-45077381D01*
X305911333Y-45029762D01*
X305958952Y-44982143D01*
X305006571Y-44077381D02*
X304339904Y-44077381D01*
X304768476Y-45077381D01*
X287940476Y-45029762D02*
X287797619Y-45077381D01*
X287559523Y-45077381D01*
X287464285Y-45029762D01*
X287416666Y-44982143D01*
X287369047Y-44886905D01*
X287369047Y-44791667D01*
X287416666Y-44696429D01*
X287464285Y-44648810D01*
X287559523Y-44601190D01*
X287750000Y-44553571D01*
X287845238Y-44505952D01*
X287892857Y-44458333D01*
X287940476Y-44363095D01*
X287940476Y-44267857D01*
X287892857Y-44172619D01*
X287845238Y-44125000D01*
X287750000Y-44077381D01*
X287511904Y-44077381D01*
X287369047Y-44125000D01*
X287035714Y-44077381D02*
X286797619Y-45077381D01*
X286607142Y-44363095D01*
X286416666Y-45077381D01*
X286178571Y-44077381D01*
X286035714Y-45172619D02*
X285273809Y-45172619D01*
X285130952Y-44077381D02*
X284511904Y-44077381D01*
X284845238Y-44458333D01*
X284702380Y-44458333D01*
X284607142Y-44505952D01*
X284559523Y-44553571D01*
X284511904Y-44648810D01*
X284511904Y-44886905D01*
X284559523Y-44982143D01*
X284607142Y-45029762D01*
X284702380Y-45077381D01*
X284988095Y-45077381D01*
X285083333Y-45029762D01*
X285130952Y-44982143D01*
X283607142Y-44077381D02*
X284083333Y-44077381D01*
X284130952Y-44553571D01*
X284083333Y-44505952D01*
X283988095Y-44458333D01*
X283749999Y-44458333D01*
X283654761Y-44505952D01*
X283607142Y-44553571D01*
X283559523Y-44648810D01*
X283559523Y-44886905D01*
X283607142Y-44982143D01*
X283654761Y-45029762D01*
X283749999Y-45077381D01*
X283988095Y-45077381D01*
X284083333Y-45029762D01*
X284130952Y-44982143D01*
X268890476Y-45029762D02*
X268747619Y-45077381D01*
X268509523Y-45077381D01*
X268414285Y-45029762D01*
X268366666Y-44982143D01*
X268319047Y-44886905D01*
X268319047Y-44791667D01*
X268366666Y-44696429D01*
X268414285Y-44648810D01*
X268509523Y-44601190D01*
X268700000Y-44553571D01*
X268795238Y-44505952D01*
X268842857Y-44458333D01*
X268890476Y-44363095D01*
X268890476Y-44267857D01*
X268842857Y-44172619D01*
X268795238Y-44125000D01*
X268700000Y-44077381D01*
X268461904Y-44077381D01*
X268319047Y-44125000D01*
X267985714Y-44077381D02*
X267747619Y-45077381D01*
X267557142Y-44363095D01*
X267366666Y-45077381D01*
X267128571Y-44077381D01*
X266985714Y-45172619D02*
X266223809Y-45172619D01*
X266080952Y-44077381D02*
X265461904Y-44077381D01*
X265795238Y-44458333D01*
X265652380Y-44458333D01*
X265557142Y-44505952D01*
X265509523Y-44553571D01*
X265461904Y-44648810D01*
X265461904Y-44886905D01*
X265509523Y-44982143D01*
X265557142Y-45029762D01*
X265652380Y-45077381D01*
X265938095Y-45077381D01*
X266033333Y-45029762D01*
X266080952Y-44982143D01*
X265128571Y-44077381D02*
X264509523Y-44077381D01*
X264842857Y-44458333D01*
X264699999Y-44458333D01*
X264604761Y-44505952D01*
X264557142Y-44553571D01*
X264509523Y-44648810D01*
X264509523Y-44886905D01*
X264557142Y-44982143D01*
X264604761Y-45029762D01*
X264699999Y-45077381D01*
X264985714Y-45077381D01*
X265080952Y-45029762D01*
X265128571Y-44982143D01*
X246792476Y-45029762D02*
X246649619Y-45077381D01*
X246411523Y-45077381D01*
X246316285Y-45029762D01*
X246268666Y-44982143D01*
X246221047Y-44886905D01*
X246221047Y-44791667D01*
X246268666Y-44696429D01*
X246316285Y-44648810D01*
X246411523Y-44601190D01*
X246602000Y-44553571D01*
X246697238Y-44505952D01*
X246744857Y-44458333D01*
X246792476Y-44363095D01*
X246792476Y-44267857D01*
X246744857Y-44172619D01*
X246697238Y-44125000D01*
X246602000Y-44077381D01*
X246363904Y-44077381D01*
X246221047Y-44125000D01*
X245887714Y-44077381D02*
X245649619Y-45077381D01*
X245459142Y-44363095D01*
X245268666Y-45077381D01*
X245030571Y-44077381D01*
X244887714Y-45172619D02*
X244125809Y-45172619D01*
X243982952Y-44077381D02*
X243363904Y-44077381D01*
X243697238Y-44458333D01*
X243554380Y-44458333D01*
X243459142Y-44505952D01*
X243411523Y-44553571D01*
X243363904Y-44648810D01*
X243363904Y-44886905D01*
X243411523Y-44982143D01*
X243459142Y-45029762D01*
X243554380Y-45077381D01*
X243840095Y-45077381D01*
X243935333Y-45029762D01*
X243982952Y-44982143D01*
X242411523Y-45077381D02*
X242982952Y-45077381D01*
X242697238Y-45077381D02*
X242697238Y-44077381D01*
X242792476Y-44220238D01*
X242887714Y-44315476D01*
X242982952Y-44363095D01*
X221265476Y-45029762D02*
X221122619Y-45077381D01*
X220884523Y-45077381D01*
X220789285Y-45029762D01*
X220741666Y-44982143D01*
X220694047Y-44886905D01*
X220694047Y-44791667D01*
X220741666Y-44696429D01*
X220789285Y-44648810D01*
X220884523Y-44601190D01*
X221075000Y-44553571D01*
X221170238Y-44505952D01*
X221217857Y-44458333D01*
X221265476Y-44363095D01*
X221265476Y-44267857D01*
X221217857Y-44172619D01*
X221170238Y-44125000D01*
X221075000Y-44077381D01*
X220836904Y-44077381D01*
X220694047Y-44125000D01*
X220360714Y-44077381D02*
X220122619Y-45077381D01*
X219932142Y-44363095D01*
X219741666Y-45077381D01*
X219503571Y-44077381D01*
X219360714Y-45172619D02*
X218598809Y-45172619D01*
X218408333Y-44172619D02*
X218360714Y-44125000D01*
X218265476Y-44077381D01*
X218027380Y-44077381D01*
X217932142Y-44125000D01*
X217884523Y-44172619D01*
X217836904Y-44267857D01*
X217836904Y-44363095D01*
X217884523Y-44505952D01*
X218455952Y-45077381D01*
X217836904Y-45077381D01*
X217360714Y-45077381D02*
X217170238Y-45077381D01*
X217074999Y-45029762D01*
X217027380Y-44982143D01*
X216932142Y-44839286D01*
X216884523Y-44648810D01*
X216884523Y-44267857D01*
X216932142Y-44172619D01*
X216979761Y-44125000D01*
X217074999Y-44077381D01*
X217265476Y-44077381D01*
X217360714Y-44125000D01*
X217408333Y-44172619D01*
X217455952Y-44267857D01*
X217455952Y-44505952D01*
X217408333Y-44601190D01*
X217360714Y-44648810D01*
X217265476Y-44696429D01*
X217074999Y-44696429D01*
X216979761Y-44648810D01*
X216932142Y-44601190D01*
X216884523Y-44505952D01*
X202215476Y-45029762D02*
X202072619Y-45077381D01*
X201834523Y-45077381D01*
X201739285Y-45029762D01*
X201691666Y-44982143D01*
X201644047Y-44886905D01*
X201644047Y-44791667D01*
X201691666Y-44696429D01*
X201739285Y-44648810D01*
X201834523Y-44601190D01*
X202025000Y-44553571D01*
X202120238Y-44505952D01*
X202167857Y-44458333D01*
X202215476Y-44363095D01*
X202215476Y-44267857D01*
X202167857Y-44172619D01*
X202120238Y-44125000D01*
X202025000Y-44077381D01*
X201786904Y-44077381D01*
X201644047Y-44125000D01*
X201310714Y-44077381D02*
X201072619Y-45077381D01*
X200882142Y-44363095D01*
X200691666Y-45077381D01*
X200453571Y-44077381D01*
X200310714Y-45172619D02*
X199548809Y-45172619D01*
X199358333Y-44172619D02*
X199310714Y-44125000D01*
X199215476Y-44077381D01*
X198977380Y-44077381D01*
X198882142Y-44125000D01*
X198834523Y-44172619D01*
X198786904Y-44267857D01*
X198786904Y-44363095D01*
X198834523Y-44505952D01*
X199405952Y-45077381D01*
X198786904Y-45077381D01*
X198215476Y-44505952D02*
X198310714Y-44458333D01*
X198358333Y-44410714D01*
X198405952Y-44315476D01*
X198405952Y-44267857D01*
X198358333Y-44172619D01*
X198310714Y-44125000D01*
X198215476Y-44077381D01*
X198024999Y-44077381D01*
X197929761Y-44125000D01*
X197882142Y-44172619D01*
X197834523Y-44267857D01*
X197834523Y-44315476D01*
X197882142Y-44410714D01*
X197929761Y-44458333D01*
X198024999Y-44505952D01*
X198215476Y-44505952D01*
X198310714Y-44553571D01*
X198358333Y-44601190D01*
X198405952Y-44696429D01*
X198405952Y-44886905D01*
X198358333Y-44982143D01*
X198310714Y-45029762D01*
X198215476Y-45077381D01*
X198024999Y-45077381D01*
X197929761Y-45029762D01*
X197882142Y-44982143D01*
X197834523Y-44886905D01*
X197834523Y-44696429D01*
X197882142Y-44601190D01*
X197929761Y-44553571D01*
X198024999Y-44505952D01*
X183165476Y-45029762D02*
X183022619Y-45077381D01*
X182784523Y-45077381D01*
X182689285Y-45029762D01*
X182641666Y-44982143D01*
X182594047Y-44886905D01*
X182594047Y-44791667D01*
X182641666Y-44696429D01*
X182689285Y-44648810D01*
X182784523Y-44601190D01*
X182975000Y-44553571D01*
X183070238Y-44505952D01*
X183117857Y-44458333D01*
X183165476Y-44363095D01*
X183165476Y-44267857D01*
X183117857Y-44172619D01*
X183070238Y-44125000D01*
X182975000Y-44077381D01*
X182736904Y-44077381D01*
X182594047Y-44125000D01*
X182260714Y-44077381D02*
X182022619Y-45077381D01*
X181832142Y-44363095D01*
X181641666Y-45077381D01*
X181403571Y-44077381D01*
X181260714Y-45172619D02*
X180498809Y-45172619D01*
X180308333Y-44172619D02*
X180260714Y-44125000D01*
X180165476Y-44077381D01*
X179927380Y-44077381D01*
X179832142Y-44125000D01*
X179784523Y-44172619D01*
X179736904Y-44267857D01*
X179736904Y-44363095D01*
X179784523Y-44505952D01*
X180355952Y-45077381D01*
X179736904Y-45077381D01*
X179403571Y-44077381D02*
X178736904Y-44077381D01*
X179165476Y-45077381D01*
X164115476Y-45029762D02*
X163972619Y-45077381D01*
X163734523Y-45077381D01*
X163639285Y-45029762D01*
X163591666Y-44982143D01*
X163544047Y-44886905D01*
X163544047Y-44791667D01*
X163591666Y-44696429D01*
X163639285Y-44648810D01*
X163734523Y-44601190D01*
X163925000Y-44553571D01*
X164020238Y-44505952D01*
X164067857Y-44458333D01*
X164115476Y-44363095D01*
X164115476Y-44267857D01*
X164067857Y-44172619D01*
X164020238Y-44125000D01*
X163925000Y-44077381D01*
X163686904Y-44077381D01*
X163544047Y-44125000D01*
X163210714Y-44077381D02*
X162972619Y-45077381D01*
X162782142Y-44363095D01*
X162591666Y-45077381D01*
X162353571Y-44077381D01*
X162210714Y-45172619D02*
X161448809Y-45172619D01*
X161258333Y-44172619D02*
X161210714Y-44125000D01*
X161115476Y-44077381D01*
X160877380Y-44077381D01*
X160782142Y-44125000D01*
X160734523Y-44172619D01*
X160686904Y-44267857D01*
X160686904Y-44363095D01*
X160734523Y-44505952D01*
X161305952Y-45077381D01*
X160686904Y-45077381D01*
X159829761Y-44077381D02*
X160020238Y-44077381D01*
X160115476Y-44125000D01*
X160163095Y-44172619D01*
X160258333Y-44315476D01*
X160305952Y-44505952D01*
X160305952Y-44886905D01*
X160258333Y-44982143D01*
X160210714Y-45029762D01*
X160115476Y-45077381D01*
X159924999Y-45077381D01*
X159829761Y-45029762D01*
X159782142Y-44982143D01*
X159734523Y-44886905D01*
X159734523Y-44648810D01*
X159782142Y-44553571D01*
X159829761Y-44505952D01*
X159924999Y-44458333D01*
X160115476Y-44458333D01*
X160210714Y-44505952D01*
X160258333Y-44553571D01*
X160305952Y-44648810D01*
X145065476Y-45029762D02*
X144922619Y-45077381D01*
X144684523Y-45077381D01*
X144589285Y-45029762D01*
X144541666Y-44982143D01*
X144494047Y-44886905D01*
X144494047Y-44791667D01*
X144541666Y-44696429D01*
X144589285Y-44648810D01*
X144684523Y-44601190D01*
X144875000Y-44553571D01*
X144970238Y-44505952D01*
X145017857Y-44458333D01*
X145065476Y-44363095D01*
X145065476Y-44267857D01*
X145017857Y-44172619D01*
X144970238Y-44125000D01*
X144875000Y-44077381D01*
X144636904Y-44077381D01*
X144494047Y-44125000D01*
X144160714Y-44077381D02*
X143922619Y-45077381D01*
X143732142Y-44363095D01*
X143541666Y-45077381D01*
X143303571Y-44077381D01*
X143160714Y-45172619D02*
X142398809Y-45172619D01*
X142208333Y-44172619D02*
X142160714Y-44125000D01*
X142065476Y-44077381D01*
X141827380Y-44077381D01*
X141732142Y-44125000D01*
X141684523Y-44172619D01*
X141636904Y-44267857D01*
X141636904Y-44363095D01*
X141684523Y-44505952D01*
X142255952Y-45077381D01*
X141636904Y-45077381D01*
X140732142Y-44077381D02*
X141208333Y-44077381D01*
X141255952Y-44553571D01*
X141208333Y-44505952D01*
X141113095Y-44458333D01*
X140874999Y-44458333D01*
X140779761Y-44505952D01*
X140732142Y-44553571D01*
X140684523Y-44648810D01*
X140684523Y-44886905D01*
X140732142Y-44982143D01*
X140779761Y-45029762D01*
X140874999Y-45077381D01*
X141113095Y-45077381D01*
X141208333Y-45029762D01*
X141255952Y-44982143D01*
X126015476Y-45029762D02*
X125872619Y-45077381D01*
X125634523Y-45077381D01*
X125539285Y-45029762D01*
X125491666Y-44982143D01*
X125444047Y-44886905D01*
X125444047Y-44791667D01*
X125491666Y-44696429D01*
X125539285Y-44648810D01*
X125634523Y-44601190D01*
X125825000Y-44553571D01*
X125920238Y-44505952D01*
X125967857Y-44458333D01*
X126015476Y-44363095D01*
X126015476Y-44267857D01*
X125967857Y-44172619D01*
X125920238Y-44125000D01*
X125825000Y-44077381D01*
X125586904Y-44077381D01*
X125444047Y-44125000D01*
X125110714Y-44077381D02*
X124872619Y-45077381D01*
X124682142Y-44363095D01*
X124491666Y-45077381D01*
X124253571Y-44077381D01*
X124110714Y-45172619D02*
X123348809Y-45172619D01*
X123158333Y-44172619D02*
X123110714Y-44125000D01*
X123015476Y-44077381D01*
X122777380Y-44077381D01*
X122682142Y-44125000D01*
X122634523Y-44172619D01*
X122586904Y-44267857D01*
X122586904Y-44363095D01*
X122634523Y-44505952D01*
X123205952Y-45077381D01*
X122586904Y-45077381D01*
X121729761Y-44410714D02*
X121729761Y-45077381D01*
X121967857Y-44029762D02*
X122205952Y-44744048D01*
X121586904Y-44744048D01*
X109124476Y-44854762D02*
X108981619Y-44902381D01*
X108743523Y-44902381D01*
X108648285Y-44854762D01*
X108600666Y-44807143D01*
X108553047Y-44711905D01*
X108553047Y-44616667D01*
X108600666Y-44521429D01*
X108648285Y-44473810D01*
X108743523Y-44426190D01*
X108934000Y-44378571D01*
X109029238Y-44330952D01*
X109076857Y-44283333D01*
X109124476Y-44188095D01*
X109124476Y-44092857D01*
X109076857Y-43997619D01*
X109029238Y-43950000D01*
X108934000Y-43902381D01*
X108695904Y-43902381D01*
X108553047Y-43950000D01*
X108219714Y-43902381D02*
X107981619Y-44902381D01*
X107791142Y-44188095D01*
X107600666Y-44902381D01*
X107362571Y-43902381D01*
X107219714Y-44997619D02*
X106457809Y-44997619D01*
X106267333Y-43997619D02*
X106219714Y-43950000D01*
X106124476Y-43902381D01*
X105886380Y-43902381D01*
X105791142Y-43950000D01*
X105743523Y-43997619D01*
X105695904Y-44092857D01*
X105695904Y-44188095D01*
X105743523Y-44330952D01*
X106314952Y-44902381D01*
X105695904Y-44902381D01*
X105362571Y-43902381D02*
X104743523Y-43902381D01*
X105076857Y-44283333D01*
X104933999Y-44283333D01*
X104838761Y-44330952D01*
X104791142Y-44378571D01*
X104743523Y-44473810D01*
X104743523Y-44711905D01*
X104791142Y-44807143D01*
X104838761Y-44854762D01*
X104933999Y-44902381D01*
X105219714Y-44902381D01*
X105314952Y-44854762D01*
X105362571Y-44807143D01*
X87915476Y-45029762D02*
X87772619Y-45077381D01*
X87534523Y-45077381D01*
X87439285Y-45029762D01*
X87391666Y-44982143D01*
X87344047Y-44886905D01*
X87344047Y-44791667D01*
X87391666Y-44696429D01*
X87439285Y-44648810D01*
X87534523Y-44601190D01*
X87725000Y-44553571D01*
X87820238Y-44505952D01*
X87867857Y-44458333D01*
X87915476Y-44363095D01*
X87915476Y-44267857D01*
X87867857Y-44172619D01*
X87820238Y-44125000D01*
X87725000Y-44077381D01*
X87486904Y-44077381D01*
X87344047Y-44125000D01*
X87010714Y-44077381D02*
X86772619Y-45077381D01*
X86582142Y-44363095D01*
X86391666Y-45077381D01*
X86153571Y-44077381D01*
X86010714Y-45172619D02*
X85248809Y-45172619D01*
X85058333Y-44172619D02*
X85010714Y-44125000D01*
X84915476Y-44077381D01*
X84677380Y-44077381D01*
X84582142Y-44125000D01*
X84534523Y-44172619D01*
X84486904Y-44267857D01*
X84486904Y-44363095D01*
X84534523Y-44505952D01*
X85105952Y-45077381D01*
X84486904Y-45077381D01*
X83534523Y-45077381D02*
X84105952Y-45077381D01*
X83820238Y-45077381D02*
X83820238Y-44077381D01*
X83915476Y-44220238D01*
X84010714Y-44315476D01*
X84105952Y-44363095D01*
X68940476Y-45154762D02*
X68797619Y-45202381D01*
X68559523Y-45202381D01*
X68464285Y-45154762D01*
X68416666Y-45107143D01*
X68369047Y-45011905D01*
X68369047Y-44916667D01*
X68416666Y-44821429D01*
X68464285Y-44773810D01*
X68559523Y-44726190D01*
X68750000Y-44678571D01*
X68845238Y-44630952D01*
X68892857Y-44583333D01*
X68940476Y-44488095D01*
X68940476Y-44392857D01*
X68892857Y-44297619D01*
X68845238Y-44250000D01*
X68750000Y-44202381D01*
X68511904Y-44202381D01*
X68369047Y-44250000D01*
X68035714Y-44202381D02*
X67797619Y-45202381D01*
X67607142Y-44488095D01*
X67416666Y-45202381D01*
X67178571Y-44202381D01*
X67035714Y-45297619D02*
X66273809Y-45297619D01*
X65511904Y-45202381D02*
X66083333Y-45202381D01*
X65797619Y-45202381D02*
X65797619Y-44202381D01*
X65892857Y-44345238D01*
X65988095Y-44440476D01*
X66083333Y-44488095D01*
X65035714Y-45202381D02*
X64845238Y-45202381D01*
X64749999Y-45154762D01*
X64702380Y-45107143D01*
X64607142Y-44964286D01*
X64559523Y-44773810D01*
X64559523Y-44392857D01*
X64607142Y-44297619D01*
X64654761Y-44250000D01*
X64749999Y-44202381D01*
X64940476Y-44202381D01*
X65035714Y-44250000D01*
X65083333Y-44297619D01*
X65130952Y-44392857D01*
X65130952Y-44630952D01*
X65083333Y-44726190D01*
X65035714Y-44773810D01*
X64940476Y-44821429D01*
X64749999Y-44821429D01*
X64654761Y-44773810D01*
X64607142Y-44726190D01*
X64559523Y-44630952D01*
X46690476Y-45154762D02*
X46547619Y-45202381D01*
X46309523Y-45202381D01*
X46214285Y-45154762D01*
X46166666Y-45107143D01*
X46119047Y-45011905D01*
X46119047Y-44916667D01*
X46166666Y-44821429D01*
X46214285Y-44773810D01*
X46309523Y-44726190D01*
X46500000Y-44678571D01*
X46595238Y-44630952D01*
X46642857Y-44583333D01*
X46690476Y-44488095D01*
X46690476Y-44392857D01*
X46642857Y-44297619D01*
X46595238Y-44250000D01*
X46500000Y-44202381D01*
X46261904Y-44202381D01*
X46119047Y-44250000D01*
X45785714Y-44202381D02*
X45547619Y-45202381D01*
X45357142Y-44488095D01*
X45166666Y-45202381D01*
X44928571Y-44202381D01*
X44785714Y-45297619D02*
X44023809Y-45297619D01*
X43261904Y-45202381D02*
X43833333Y-45202381D01*
X43547619Y-45202381D02*
X43547619Y-44202381D01*
X43642857Y-44345238D01*
X43738095Y-44440476D01*
X43833333Y-44488095D01*
X42928571Y-44202381D02*
X42261904Y-44202381D01*
X42690476Y-45202381D01*
X306990476Y-25979762D02*
X306847619Y-26027381D01*
X306609523Y-26027381D01*
X306514285Y-25979762D01*
X306466666Y-25932143D01*
X306419047Y-25836905D01*
X306419047Y-25741667D01*
X306466666Y-25646429D01*
X306514285Y-25598810D01*
X306609523Y-25551190D01*
X306800000Y-25503571D01*
X306895238Y-25455952D01*
X306942857Y-25408333D01*
X306990476Y-25313095D01*
X306990476Y-25217857D01*
X306942857Y-25122619D01*
X306895238Y-25075000D01*
X306800000Y-25027381D01*
X306561904Y-25027381D01*
X306419047Y-25075000D01*
X306085714Y-25027381D02*
X305847619Y-26027381D01*
X305657142Y-25313095D01*
X305466666Y-26027381D01*
X305228571Y-25027381D01*
X305085714Y-26122619D02*
X304323809Y-26122619D01*
X303561904Y-26027381D02*
X304133333Y-26027381D01*
X303847619Y-26027381D02*
X303847619Y-25027381D01*
X303942857Y-25170238D01*
X304038095Y-25265476D01*
X304133333Y-25313095D01*
X302657142Y-25027381D02*
X303133333Y-25027381D01*
X303180952Y-25503571D01*
X303133333Y-25455952D01*
X303038095Y-25408333D01*
X302799999Y-25408333D01*
X302704761Y-25455952D01*
X302657142Y-25503571D01*
X302609523Y-25598810D01*
X302609523Y-25836905D01*
X302657142Y-25932143D01*
X302704761Y-25979762D01*
X302799999Y-26027381D01*
X303038095Y-26027381D01*
X303133333Y-25979762D01*
X303180952Y-25932143D01*
X287940476Y-25979762D02*
X287797619Y-26027381D01*
X287559523Y-26027381D01*
X287464285Y-25979762D01*
X287416666Y-25932143D01*
X287369047Y-25836905D01*
X287369047Y-25741667D01*
X287416666Y-25646429D01*
X287464285Y-25598810D01*
X287559523Y-25551190D01*
X287750000Y-25503571D01*
X287845238Y-25455952D01*
X287892857Y-25408333D01*
X287940476Y-25313095D01*
X287940476Y-25217857D01*
X287892857Y-25122619D01*
X287845238Y-25075000D01*
X287750000Y-25027381D01*
X287511904Y-25027381D01*
X287369047Y-25075000D01*
X287035714Y-25027381D02*
X286797619Y-26027381D01*
X286607142Y-25313095D01*
X286416666Y-26027381D01*
X286178571Y-25027381D01*
X286035714Y-26122619D02*
X285273809Y-26122619D01*
X284511904Y-26027381D02*
X285083333Y-26027381D01*
X284797619Y-26027381D02*
X284797619Y-25027381D01*
X284892857Y-25170238D01*
X284988095Y-25265476D01*
X285083333Y-25313095D01*
X283654761Y-25360714D02*
X283654761Y-26027381D01*
X283892857Y-24979762D02*
X284130952Y-25694048D01*
X283511904Y-25694048D01*
X268890476Y-25979762D02*
X268747619Y-26027381D01*
X268509523Y-26027381D01*
X268414285Y-25979762D01*
X268366666Y-25932143D01*
X268319047Y-25836905D01*
X268319047Y-25741667D01*
X268366666Y-25646429D01*
X268414285Y-25598810D01*
X268509523Y-25551190D01*
X268700000Y-25503571D01*
X268795238Y-25455952D01*
X268842857Y-25408333D01*
X268890476Y-25313095D01*
X268890476Y-25217857D01*
X268842857Y-25122619D01*
X268795238Y-25075000D01*
X268700000Y-25027381D01*
X268461904Y-25027381D01*
X268319047Y-25075000D01*
X267985714Y-25027381D02*
X267747619Y-26027381D01*
X267557142Y-25313095D01*
X267366666Y-26027381D01*
X267128571Y-25027381D01*
X266985714Y-26122619D02*
X266223809Y-26122619D01*
X265461904Y-26027381D02*
X266033333Y-26027381D01*
X265747619Y-26027381D02*
X265747619Y-25027381D01*
X265842857Y-25170238D01*
X265938095Y-25265476D01*
X266033333Y-25313095D01*
X265128571Y-25027381D02*
X264509523Y-25027381D01*
X264842857Y-25408333D01*
X264699999Y-25408333D01*
X264604761Y-25455952D01*
X264557142Y-25503571D01*
X264509523Y-25598810D01*
X264509523Y-25836905D01*
X264557142Y-25932143D01*
X264604761Y-25979762D01*
X264699999Y-26027381D01*
X264985714Y-26027381D01*
X265080952Y-25979762D01*
X265128571Y-25932143D01*
X249840476Y-25979762D02*
X249697619Y-26027381D01*
X249459523Y-26027381D01*
X249364285Y-25979762D01*
X249316666Y-25932143D01*
X249269047Y-25836905D01*
X249269047Y-25741667D01*
X249316666Y-25646429D01*
X249364285Y-25598810D01*
X249459523Y-25551190D01*
X249650000Y-25503571D01*
X249745238Y-25455952D01*
X249792857Y-25408333D01*
X249840476Y-25313095D01*
X249840476Y-25217857D01*
X249792857Y-25122619D01*
X249745238Y-25075000D01*
X249650000Y-25027381D01*
X249411904Y-25027381D01*
X249269047Y-25075000D01*
X248935714Y-25027381D02*
X248697619Y-26027381D01*
X248507142Y-25313095D01*
X248316666Y-26027381D01*
X248078571Y-25027381D01*
X247935714Y-26122619D02*
X247173809Y-26122619D01*
X246411904Y-26027381D02*
X246983333Y-26027381D01*
X246697619Y-26027381D02*
X246697619Y-25027381D01*
X246792857Y-25170238D01*
X246888095Y-25265476D01*
X246983333Y-25313095D01*
X246030952Y-25122619D02*
X245983333Y-25075000D01*
X245888095Y-25027381D01*
X245649999Y-25027381D01*
X245554761Y-25075000D01*
X245507142Y-25122619D01*
X245459523Y-25217857D01*
X245459523Y-25313095D01*
X245507142Y-25455952D01*
X246078571Y-26027381D01*
X245459523Y-26027381D01*
X230790476Y-25979762D02*
X230647619Y-26027381D01*
X230409523Y-26027381D01*
X230314285Y-25979762D01*
X230266666Y-25932143D01*
X230219047Y-25836905D01*
X230219047Y-25741667D01*
X230266666Y-25646429D01*
X230314285Y-25598810D01*
X230409523Y-25551190D01*
X230600000Y-25503571D01*
X230695238Y-25455952D01*
X230742857Y-25408333D01*
X230790476Y-25313095D01*
X230790476Y-25217857D01*
X230742857Y-25122619D01*
X230695238Y-25075000D01*
X230600000Y-25027381D01*
X230361904Y-25027381D01*
X230219047Y-25075000D01*
X229885714Y-25027381D02*
X229647619Y-26027381D01*
X229457142Y-25313095D01*
X229266666Y-26027381D01*
X229028571Y-25027381D01*
X228885714Y-26122619D02*
X228123809Y-26122619D01*
X227361904Y-26027381D02*
X227933333Y-26027381D01*
X227647619Y-26027381D02*
X227647619Y-25027381D01*
X227742857Y-25170238D01*
X227838095Y-25265476D01*
X227933333Y-25313095D01*
X226409523Y-26027381D02*
X226980952Y-26027381D01*
X226695238Y-26027381D02*
X226695238Y-25027381D01*
X226790476Y-25170238D01*
X226885714Y-25265476D01*
X226980952Y-25313095D01*
X211740476Y-25979762D02*
X211597619Y-26027381D01*
X211359523Y-26027381D01*
X211264285Y-25979762D01*
X211216666Y-25932143D01*
X211169047Y-25836905D01*
X211169047Y-25741667D01*
X211216666Y-25646429D01*
X211264285Y-25598810D01*
X211359523Y-25551190D01*
X211550000Y-25503571D01*
X211645238Y-25455952D01*
X211692857Y-25408333D01*
X211740476Y-25313095D01*
X211740476Y-25217857D01*
X211692857Y-25122619D01*
X211645238Y-25075000D01*
X211550000Y-25027381D01*
X211311904Y-25027381D01*
X211169047Y-25075000D01*
X210835714Y-25027381D02*
X210597619Y-26027381D01*
X210407142Y-25313095D01*
X210216666Y-26027381D01*
X209978571Y-25027381D01*
X209835714Y-26122619D02*
X209073809Y-26122619D01*
X208311904Y-26027381D02*
X208883333Y-26027381D01*
X208597619Y-26027381D02*
X208597619Y-25027381D01*
X208692857Y-25170238D01*
X208788095Y-25265476D01*
X208883333Y-25313095D01*
X207692857Y-25027381D02*
X207597618Y-25027381D01*
X207502380Y-25075000D01*
X207454761Y-25122619D01*
X207407142Y-25217857D01*
X207359523Y-25408333D01*
X207359523Y-25646429D01*
X207407142Y-25836905D01*
X207454761Y-25932143D01*
X207502380Y-25979762D01*
X207597618Y-26027381D01*
X207692857Y-26027381D01*
X207788095Y-25979762D01*
X207835714Y-25932143D01*
X207883333Y-25836905D01*
X207930952Y-25646429D01*
X207930952Y-25408333D01*
X207883333Y-25217857D01*
X207835714Y-25122619D01*
X207788095Y-25075000D01*
X207692857Y-25027381D01*
X192214286Y-25979762D02*
X192071429Y-26027381D01*
X191833333Y-26027381D01*
X191738095Y-25979762D01*
X191690476Y-25932143D01*
X191642857Y-25836905D01*
X191642857Y-25741667D01*
X191690476Y-25646429D01*
X191738095Y-25598810D01*
X191833333Y-25551190D01*
X192023810Y-25503571D01*
X192119048Y-25455952D01*
X192166667Y-25408333D01*
X192214286Y-25313095D01*
X192214286Y-25217857D01*
X192166667Y-25122619D01*
X192119048Y-25075000D01*
X192023810Y-25027381D01*
X191785714Y-25027381D01*
X191642857Y-25075000D01*
X191309524Y-25027381D02*
X191071429Y-26027381D01*
X190880952Y-25313095D01*
X190690476Y-26027381D01*
X190452381Y-25027381D01*
X190309524Y-26122619D02*
X189547619Y-26122619D01*
X189261905Y-26027381D02*
X189071429Y-26027381D01*
X188976190Y-25979762D01*
X188928571Y-25932143D01*
X188833333Y-25789286D01*
X188785714Y-25598810D01*
X188785714Y-25217857D01*
X188833333Y-25122619D01*
X188880952Y-25075000D01*
X188976190Y-25027381D01*
X189166667Y-25027381D01*
X189261905Y-25075000D01*
X189309524Y-25122619D01*
X189357143Y-25217857D01*
X189357143Y-25455952D01*
X189309524Y-25551190D01*
X189261905Y-25598810D01*
X189166667Y-25646429D01*
X188976190Y-25646429D01*
X188880952Y-25598810D01*
X188833333Y-25551190D01*
X188785714Y-25455952D01*
X173164286Y-25979762D02*
X173021429Y-26027381D01*
X172783333Y-26027381D01*
X172688095Y-25979762D01*
X172640476Y-25932143D01*
X172592857Y-25836905D01*
X172592857Y-25741667D01*
X172640476Y-25646429D01*
X172688095Y-25598810D01*
X172783333Y-25551190D01*
X172973810Y-25503571D01*
X173069048Y-25455952D01*
X173116667Y-25408333D01*
X173164286Y-25313095D01*
X173164286Y-25217857D01*
X173116667Y-25122619D01*
X173069048Y-25075000D01*
X172973810Y-25027381D01*
X172735714Y-25027381D01*
X172592857Y-25075000D01*
X172259524Y-25027381D02*
X172021429Y-26027381D01*
X171830952Y-25313095D01*
X171640476Y-26027381D01*
X171402381Y-25027381D01*
X171259524Y-26122619D02*
X170497619Y-26122619D01*
X170116667Y-25455952D02*
X170211905Y-25408333D01*
X170259524Y-25360714D01*
X170307143Y-25265476D01*
X170307143Y-25217857D01*
X170259524Y-25122619D01*
X170211905Y-25075000D01*
X170116667Y-25027381D01*
X169926190Y-25027381D01*
X169830952Y-25075000D01*
X169783333Y-25122619D01*
X169735714Y-25217857D01*
X169735714Y-25265476D01*
X169783333Y-25360714D01*
X169830952Y-25408333D01*
X169926190Y-25455952D01*
X170116667Y-25455952D01*
X170211905Y-25503571D01*
X170259524Y-25551190D01*
X170307143Y-25646429D01*
X170307143Y-25836905D01*
X170259524Y-25932143D01*
X170211905Y-25979762D01*
X170116667Y-26027381D01*
X169926190Y-26027381D01*
X169830952Y-25979762D01*
X169783333Y-25932143D01*
X169735714Y-25836905D01*
X169735714Y-25646429D01*
X169783333Y-25551190D01*
X169830952Y-25503571D01*
X169926190Y-25455952D01*
X154114286Y-25979762D02*
X153971429Y-26027381D01*
X153733333Y-26027381D01*
X153638095Y-25979762D01*
X153590476Y-25932143D01*
X153542857Y-25836905D01*
X153542857Y-25741667D01*
X153590476Y-25646429D01*
X153638095Y-25598810D01*
X153733333Y-25551190D01*
X153923810Y-25503571D01*
X154019048Y-25455952D01*
X154066667Y-25408333D01*
X154114286Y-25313095D01*
X154114286Y-25217857D01*
X154066667Y-25122619D01*
X154019048Y-25075000D01*
X153923810Y-25027381D01*
X153685714Y-25027381D01*
X153542857Y-25075000D01*
X153209524Y-25027381D02*
X152971429Y-26027381D01*
X152780952Y-25313095D01*
X152590476Y-26027381D01*
X152352381Y-25027381D01*
X152209524Y-26122619D02*
X151447619Y-26122619D01*
X151304762Y-25027381D02*
X150638095Y-25027381D01*
X151066667Y-26027381D01*
X135064286Y-25979762D02*
X134921429Y-26027381D01*
X134683333Y-26027381D01*
X134588095Y-25979762D01*
X134540476Y-25932143D01*
X134492857Y-25836905D01*
X134492857Y-25741667D01*
X134540476Y-25646429D01*
X134588095Y-25598810D01*
X134683333Y-25551190D01*
X134873810Y-25503571D01*
X134969048Y-25455952D01*
X135016667Y-25408333D01*
X135064286Y-25313095D01*
X135064286Y-25217857D01*
X135016667Y-25122619D01*
X134969048Y-25075000D01*
X134873810Y-25027381D01*
X134635714Y-25027381D01*
X134492857Y-25075000D01*
X134159524Y-25027381D02*
X133921429Y-26027381D01*
X133730952Y-25313095D01*
X133540476Y-26027381D01*
X133302381Y-25027381D01*
X133159524Y-26122619D02*
X132397619Y-26122619D01*
X131730952Y-25027381D02*
X131921429Y-25027381D01*
X132016667Y-25075000D01*
X132064286Y-25122619D01*
X132159524Y-25265476D01*
X132207143Y-25455952D01*
X132207143Y-25836905D01*
X132159524Y-25932143D01*
X132111905Y-25979762D01*
X132016667Y-26027381D01*
X131826190Y-26027381D01*
X131730952Y-25979762D01*
X131683333Y-25932143D01*
X131635714Y-25836905D01*
X131635714Y-25598810D01*
X131683333Y-25503571D01*
X131730952Y-25455952D01*
X131826190Y-25408333D01*
X132016667Y-25408333D01*
X132111905Y-25455952D01*
X132159524Y-25503571D01*
X132207143Y-25598810D01*
X116014286Y-25979762D02*
X115871429Y-26027381D01*
X115633333Y-26027381D01*
X115538095Y-25979762D01*
X115490476Y-25932143D01*
X115442857Y-25836905D01*
X115442857Y-25741667D01*
X115490476Y-25646429D01*
X115538095Y-25598810D01*
X115633333Y-25551190D01*
X115823810Y-25503571D01*
X115919048Y-25455952D01*
X115966667Y-25408333D01*
X116014286Y-25313095D01*
X116014286Y-25217857D01*
X115966667Y-25122619D01*
X115919048Y-25075000D01*
X115823810Y-25027381D01*
X115585714Y-25027381D01*
X115442857Y-25075000D01*
X115109524Y-25027381D02*
X114871429Y-26027381D01*
X114680952Y-25313095D01*
X114490476Y-26027381D01*
X114252381Y-25027381D01*
X114109524Y-26122619D02*
X113347619Y-26122619D01*
X112633333Y-25027381D02*
X113109524Y-25027381D01*
X113157143Y-25503571D01*
X113109524Y-25455952D01*
X113014286Y-25408333D01*
X112776190Y-25408333D01*
X112680952Y-25455952D01*
X112633333Y-25503571D01*
X112585714Y-25598810D01*
X112585714Y-25836905D01*
X112633333Y-25932143D01*
X112680952Y-25979762D01*
X112776190Y-26027381D01*
X113014286Y-26027381D01*
X113109524Y-25979762D01*
X113157143Y-25932143D01*
X96964286Y-25979762D02*
X96821429Y-26027381D01*
X96583333Y-26027381D01*
X96488095Y-25979762D01*
X96440476Y-25932143D01*
X96392857Y-25836905D01*
X96392857Y-25741667D01*
X96440476Y-25646429D01*
X96488095Y-25598810D01*
X96583333Y-25551190D01*
X96773810Y-25503571D01*
X96869048Y-25455952D01*
X96916667Y-25408333D01*
X96964286Y-25313095D01*
X96964286Y-25217857D01*
X96916667Y-25122619D01*
X96869048Y-25075000D01*
X96773810Y-25027381D01*
X96535714Y-25027381D01*
X96392857Y-25075000D01*
X96059524Y-25027381D02*
X95821429Y-26027381D01*
X95630952Y-25313095D01*
X95440476Y-26027381D01*
X95202381Y-25027381D01*
X95059524Y-26122619D02*
X94297619Y-26122619D01*
X93630952Y-25360714D02*
X93630952Y-26027381D01*
X93869048Y-24979762D02*
X94107143Y-25694048D01*
X93488095Y-25694048D01*
X77914286Y-25979762D02*
X77771429Y-26027381D01*
X77533333Y-26027381D01*
X77438095Y-25979762D01*
X77390476Y-25932143D01*
X77342857Y-25836905D01*
X77342857Y-25741667D01*
X77390476Y-25646429D01*
X77438095Y-25598810D01*
X77533333Y-25551190D01*
X77723810Y-25503571D01*
X77819048Y-25455952D01*
X77866667Y-25408333D01*
X77914286Y-25313095D01*
X77914286Y-25217857D01*
X77866667Y-25122619D01*
X77819048Y-25075000D01*
X77723810Y-25027381D01*
X77485714Y-25027381D01*
X77342857Y-25075000D01*
X77009524Y-25027381D02*
X76771429Y-26027381D01*
X76580952Y-25313095D01*
X76390476Y-26027381D01*
X76152381Y-25027381D01*
X76009524Y-26122619D02*
X75247619Y-26122619D01*
X75104762Y-25027381D02*
X74485714Y-25027381D01*
X74819048Y-25408333D01*
X74676190Y-25408333D01*
X74580952Y-25455952D01*
X74533333Y-25503571D01*
X74485714Y-25598810D01*
X74485714Y-25836905D01*
X74533333Y-25932143D01*
X74580952Y-25979762D01*
X74676190Y-26027381D01*
X74961905Y-26027381D01*
X75057143Y-25979762D01*
X75104762Y-25932143D01*
X58864286Y-25979762D02*
X58721429Y-26027381D01*
X58483333Y-26027381D01*
X58388095Y-25979762D01*
X58340476Y-25932143D01*
X58292857Y-25836905D01*
X58292857Y-25741667D01*
X58340476Y-25646429D01*
X58388095Y-25598810D01*
X58483333Y-25551190D01*
X58673810Y-25503571D01*
X58769048Y-25455952D01*
X58816667Y-25408333D01*
X58864286Y-25313095D01*
X58864286Y-25217857D01*
X58816667Y-25122619D01*
X58769048Y-25075000D01*
X58673810Y-25027381D01*
X58435714Y-25027381D01*
X58292857Y-25075000D01*
X57959524Y-25027381D02*
X57721429Y-26027381D01*
X57530952Y-25313095D01*
X57340476Y-26027381D01*
X57102381Y-25027381D01*
X56959524Y-26122619D02*
X56197619Y-26122619D01*
X56007143Y-25122619D02*
X55959524Y-25075000D01*
X55864286Y-25027381D01*
X55626190Y-25027381D01*
X55530952Y-25075000D01*
X55483333Y-25122619D01*
X55435714Y-25217857D01*
X55435714Y-25313095D01*
X55483333Y-25455952D01*
X56054762Y-26027381D01*
X55435714Y-26027381D01*
X39814286Y-25904762D02*
X39671429Y-25952381D01*
X39433333Y-25952381D01*
X39338095Y-25904762D01*
X39290476Y-25857143D01*
X39242857Y-25761905D01*
X39242857Y-25666667D01*
X39290476Y-25571429D01*
X39338095Y-25523810D01*
X39433333Y-25476190D01*
X39623810Y-25428571D01*
X39719048Y-25380952D01*
X39766667Y-25333333D01*
X39814286Y-25238095D01*
X39814286Y-25142857D01*
X39766667Y-25047619D01*
X39719048Y-25000000D01*
X39623810Y-24952381D01*
X39385714Y-24952381D01*
X39242857Y-25000000D01*
X38909524Y-24952381D02*
X38671429Y-25952381D01*
X38480952Y-25238095D01*
X38290476Y-25952381D01*
X38052381Y-24952381D01*
X37909524Y-26047619D02*
X37147619Y-26047619D01*
X36385714Y-25952381D02*
X36957143Y-25952381D01*
X36671429Y-25952381D02*
X36671429Y-24952381D01*
X36766667Y-25095238D01*
X36861905Y-25190476D01*
X36957143Y-25238095D01*
X221515476Y-83129762D02*
X221372619Y-83177381D01*
X221134523Y-83177381D01*
X221039285Y-83129762D01*
X220991666Y-83082143D01*
X220944047Y-82986905D01*
X220944047Y-82891667D01*
X220991666Y-82796429D01*
X221039285Y-82748810D01*
X221134523Y-82701190D01*
X221325000Y-82653571D01*
X221420238Y-82605952D01*
X221467857Y-82558333D01*
X221515476Y-82463095D01*
X221515476Y-82367857D01*
X221467857Y-82272619D01*
X221420238Y-82225000D01*
X221325000Y-82177381D01*
X221086904Y-82177381D01*
X220944047Y-82225000D01*
X220610714Y-82177381D02*
X220372619Y-83177381D01*
X220182142Y-82463095D01*
X219991666Y-83177381D01*
X219753571Y-82177381D01*
X219610714Y-83272619D02*
X218848809Y-83272619D01*
X218182142Y-82177381D02*
X218372619Y-82177381D01*
X218467857Y-82225000D01*
X218515476Y-82272619D01*
X218610714Y-82415476D01*
X218658333Y-82605952D01*
X218658333Y-82986905D01*
X218610714Y-83082143D01*
X218563095Y-83129762D01*
X218467857Y-83177381D01*
X218277380Y-83177381D01*
X218182142Y-83129762D01*
X218134523Y-83082143D01*
X218086904Y-82986905D01*
X218086904Y-82748810D01*
X218134523Y-82653571D01*
X218182142Y-82605952D01*
X218277380Y-82558333D01*
X218467857Y-82558333D01*
X218563095Y-82605952D01*
X218610714Y-82653571D01*
X218658333Y-82748810D01*
X217182142Y-82177381D02*
X217658333Y-82177381D01*
X217705952Y-82653571D01*
X217658333Y-82605952D01*
X217563095Y-82558333D01*
X217324999Y-82558333D01*
X217229761Y-82605952D01*
X217182142Y-82653571D01*
X217134523Y-82748810D01*
X217134523Y-82986905D01*
X217182142Y-83082143D01*
X217229761Y-83129762D01*
X217324999Y-83177381D01*
X217563095Y-83177381D01*
X217658333Y-83129762D01*
X217705952Y-83082143D01*
X183415476Y-83129762D02*
X183272619Y-83177381D01*
X183034523Y-83177381D01*
X182939285Y-83129762D01*
X182891666Y-83082143D01*
X182844047Y-82986905D01*
X182844047Y-82891667D01*
X182891666Y-82796429D01*
X182939285Y-82748810D01*
X183034523Y-82701190D01*
X183225000Y-82653571D01*
X183320238Y-82605952D01*
X183367857Y-82558333D01*
X183415476Y-82463095D01*
X183415476Y-82367857D01*
X183367857Y-82272619D01*
X183320238Y-82225000D01*
X183225000Y-82177381D01*
X182986904Y-82177381D01*
X182844047Y-82225000D01*
X182510714Y-82177381D02*
X182272619Y-83177381D01*
X182082142Y-82463095D01*
X181891666Y-83177381D01*
X181653571Y-82177381D01*
X181510714Y-83272619D02*
X180748809Y-83272619D01*
X180082142Y-82177381D02*
X180272619Y-82177381D01*
X180367857Y-82225000D01*
X180415476Y-82272619D01*
X180510714Y-82415476D01*
X180558333Y-82605952D01*
X180558333Y-82986905D01*
X180510714Y-83082143D01*
X180463095Y-83129762D01*
X180367857Y-83177381D01*
X180177380Y-83177381D01*
X180082142Y-83129762D01*
X180034523Y-83082143D01*
X179986904Y-82986905D01*
X179986904Y-82748810D01*
X180034523Y-82653571D01*
X180082142Y-82605952D01*
X180177380Y-82558333D01*
X180367857Y-82558333D01*
X180463095Y-82605952D01*
X180510714Y-82653571D01*
X180558333Y-82748810D01*
X179605952Y-82272619D02*
X179558333Y-82225000D01*
X179463095Y-82177381D01*
X179224999Y-82177381D01*
X179129761Y-82225000D01*
X179082142Y-82272619D01*
X179034523Y-82367857D01*
X179034523Y-82463095D01*
X179082142Y-82605952D01*
X179653571Y-83177381D01*
X179034523Y-83177381D01*
X38190476Y-45154762D02*
X38047619Y-45202381D01*
X37809523Y-45202381D01*
X37714285Y-45154762D01*
X37666666Y-45107143D01*
X37619047Y-45011905D01*
X37619047Y-44916667D01*
X37666666Y-44821429D01*
X37714285Y-44773810D01*
X37809523Y-44726190D01*
X38000000Y-44678571D01*
X38095238Y-44630952D01*
X38142857Y-44583333D01*
X38190476Y-44488095D01*
X38190476Y-44392857D01*
X38142857Y-44297619D01*
X38095238Y-44250000D01*
X38000000Y-44202381D01*
X37761904Y-44202381D01*
X37619047Y-44250000D01*
X37285714Y-44202381D02*
X37047619Y-45202381D01*
X36857142Y-44488095D01*
X36666666Y-45202381D01*
X36428571Y-44202381D01*
X36285714Y-45297619D02*
X35523809Y-45297619D01*
X34761904Y-45202381D02*
X35333333Y-45202381D01*
X35047619Y-45202381D02*
X35047619Y-44202381D01*
X35142857Y-44345238D01*
X35238095Y-44440476D01*
X35333333Y-44488095D01*
X33904761Y-44202381D02*
X34095238Y-44202381D01*
X34190476Y-44250000D01*
X34238095Y-44297619D01*
X34333333Y-44440476D01*
X34380952Y-44630952D01*
X34380952Y-45011905D01*
X34333333Y-45107143D01*
X34285714Y-45154762D01*
X34190476Y-45202381D01*
X33999999Y-45202381D01*
X33904761Y-45154762D01*
X33857142Y-45107143D01*
X33809523Y-45011905D01*
X33809523Y-44773810D01*
X33857142Y-44678571D01*
X33904761Y-44630952D01*
X33999999Y-44583333D01*
X34190476Y-44583333D01*
X34285714Y-44630952D01*
X34333333Y-44678571D01*
X34380952Y-44773810D01*
X59340476Y-45154762D02*
X59197619Y-45202381D01*
X58959523Y-45202381D01*
X58864285Y-45154762D01*
X58816666Y-45107143D01*
X58769047Y-45011905D01*
X58769047Y-44916667D01*
X58816666Y-44821429D01*
X58864285Y-44773810D01*
X58959523Y-44726190D01*
X59150000Y-44678571D01*
X59245238Y-44630952D01*
X59292857Y-44583333D01*
X59340476Y-44488095D01*
X59340476Y-44392857D01*
X59292857Y-44297619D01*
X59245238Y-44250000D01*
X59150000Y-44202381D01*
X58911904Y-44202381D01*
X58769047Y-44250000D01*
X58435714Y-44202381D02*
X58197619Y-45202381D01*
X58007142Y-44488095D01*
X57816666Y-45202381D01*
X57578571Y-44202381D01*
X57435714Y-45297619D02*
X56673809Y-45297619D01*
X55911904Y-45202381D02*
X56483333Y-45202381D01*
X56197619Y-45202381D02*
X56197619Y-44202381D01*
X56292857Y-44345238D01*
X56388095Y-44440476D01*
X56483333Y-44488095D01*
X55340476Y-44630952D02*
X55435714Y-44583333D01*
X55483333Y-44535714D01*
X55530952Y-44440476D01*
X55530952Y-44392857D01*
X55483333Y-44297619D01*
X55435714Y-44250000D01*
X55340476Y-44202381D01*
X55149999Y-44202381D01*
X55054761Y-44250000D01*
X55007142Y-44297619D01*
X54959523Y-44392857D01*
X54959523Y-44440476D01*
X55007142Y-44535714D01*
X55054761Y-44583333D01*
X55149999Y-44630952D01*
X55340476Y-44630952D01*
X55435714Y-44678571D01*
X55483333Y-44726190D01*
X55530952Y-44821429D01*
X55530952Y-45011905D01*
X55483333Y-45107143D01*
X55435714Y-45154762D01*
X55340476Y-45202381D01*
X55149999Y-45202381D01*
X55054761Y-45154762D01*
X55007142Y-45107143D01*
X54959523Y-45011905D01*
X54959523Y-44821429D01*
X55007142Y-44726190D01*
X55054761Y-44678571D01*
X55149999Y-44630952D01*
X78390476Y-45029762D02*
X78247619Y-45077381D01*
X78009523Y-45077381D01*
X77914285Y-45029762D01*
X77866666Y-44982143D01*
X77819047Y-44886905D01*
X77819047Y-44791667D01*
X77866666Y-44696429D01*
X77914285Y-44648810D01*
X78009523Y-44601190D01*
X78200000Y-44553571D01*
X78295238Y-44505952D01*
X78342857Y-44458333D01*
X78390476Y-44363095D01*
X78390476Y-44267857D01*
X78342857Y-44172619D01*
X78295238Y-44125000D01*
X78200000Y-44077381D01*
X77961904Y-44077381D01*
X77819047Y-44125000D01*
X77485714Y-44077381D02*
X77247619Y-45077381D01*
X77057142Y-44363095D01*
X76866666Y-45077381D01*
X76628571Y-44077381D01*
X76485714Y-45172619D02*
X75723809Y-45172619D01*
X75533333Y-44172619D02*
X75485714Y-44125000D01*
X75390476Y-44077381D01*
X75152380Y-44077381D01*
X75057142Y-44125000D01*
X75009523Y-44172619D01*
X74961904Y-44267857D01*
X74961904Y-44363095D01*
X75009523Y-44505952D01*
X75580952Y-45077381D01*
X74961904Y-45077381D01*
X74342857Y-44077381D02*
X74247618Y-44077381D01*
X74152380Y-44125000D01*
X74104761Y-44172619D01*
X74057142Y-44267857D01*
X74009523Y-44458333D01*
X74009523Y-44696429D01*
X74057142Y-44886905D01*
X74104761Y-44982143D01*
X74152380Y-45029762D01*
X74247618Y-45077381D01*
X74342857Y-45077381D01*
X74438095Y-45029762D01*
X74485714Y-44982143D01*
X74533333Y-44886905D01*
X74580952Y-44696429D01*
X74580952Y-44458333D01*
X74533333Y-44267857D01*
X74485714Y-44172619D01*
X74438095Y-44125000D01*
X74342857Y-44077381D01*
X300132476Y-45029762D02*
X299989619Y-45077381D01*
X299751523Y-45077381D01*
X299656285Y-45029762D01*
X299608666Y-44982143D01*
X299561047Y-44886905D01*
X299561047Y-44791667D01*
X299608666Y-44696429D01*
X299656285Y-44648810D01*
X299751523Y-44601190D01*
X299942000Y-44553571D01*
X300037238Y-44505952D01*
X300084857Y-44458333D01*
X300132476Y-44363095D01*
X300132476Y-44267857D01*
X300084857Y-44172619D01*
X300037238Y-44125000D01*
X299942000Y-44077381D01*
X299703904Y-44077381D01*
X299561047Y-44125000D01*
X299227714Y-44077381D02*
X298989619Y-45077381D01*
X298799142Y-44363095D01*
X298608666Y-45077381D01*
X298370571Y-44077381D01*
X298227714Y-45172619D02*
X297465809Y-45172619D01*
X297322952Y-44077381D02*
X296703904Y-44077381D01*
X297037238Y-44458333D01*
X296894380Y-44458333D01*
X296799142Y-44505952D01*
X296751523Y-44553571D01*
X296703904Y-44648810D01*
X296703904Y-44886905D01*
X296751523Y-44982143D01*
X296799142Y-45029762D01*
X296894380Y-45077381D01*
X297180095Y-45077381D01*
X297275333Y-45029762D01*
X297322952Y-44982143D01*
X295846761Y-44077381D02*
X296037238Y-44077381D01*
X296132476Y-44125000D01*
X296180095Y-44172619D01*
X296275333Y-44315476D01*
X296322952Y-44505952D01*
X296322952Y-44886905D01*
X296275333Y-44982143D01*
X296227714Y-45029762D01*
X296132476Y-45077381D01*
X295941999Y-45077381D01*
X295846761Y-45029762D01*
X295799142Y-44982143D01*
X295751523Y-44886905D01*
X295751523Y-44648810D01*
X295799142Y-44553571D01*
X295846761Y-44505952D01*
X295941999Y-44458333D01*
X296132476Y-44458333D01*
X296227714Y-44505952D01*
X296275333Y-44553571D01*
X296322952Y-44648810D01*
X237902476Y-45108762D02*
X237759619Y-45156381D01*
X237521523Y-45156381D01*
X237426285Y-45108762D01*
X237378666Y-45061143D01*
X237331047Y-44965905D01*
X237331047Y-44870667D01*
X237378666Y-44775429D01*
X237426285Y-44727810D01*
X237521523Y-44680190D01*
X237712000Y-44632571D01*
X237807238Y-44584952D01*
X237854857Y-44537333D01*
X237902476Y-44442095D01*
X237902476Y-44346857D01*
X237854857Y-44251619D01*
X237807238Y-44204000D01*
X237712000Y-44156381D01*
X237473904Y-44156381D01*
X237331047Y-44204000D01*
X236997714Y-44156381D02*
X236759619Y-45156381D01*
X236569142Y-44442095D01*
X236378666Y-45156381D01*
X236140571Y-44156381D01*
X235997714Y-45251619D02*
X235235809Y-45251619D01*
X235092952Y-44156381D02*
X234473904Y-44156381D01*
X234807238Y-44537333D01*
X234664380Y-44537333D01*
X234569142Y-44584952D01*
X234521523Y-44632571D01*
X234473904Y-44727810D01*
X234473904Y-44965905D01*
X234521523Y-45061143D01*
X234569142Y-45108762D01*
X234664380Y-45156381D01*
X234950095Y-45156381D01*
X235045333Y-45108762D01*
X235092952Y-45061143D01*
X233854857Y-44156381D02*
X233759618Y-44156381D01*
X233664380Y-44204000D01*
X233616761Y-44251619D01*
X233569142Y-44346857D01*
X233521523Y-44537333D01*
X233521523Y-44775429D01*
X233569142Y-44965905D01*
X233616761Y-45061143D01*
X233664380Y-45108762D01*
X233759618Y-45156381D01*
X233854857Y-45156381D01*
X233950095Y-45108762D01*
X233997714Y-45061143D01*
X234045333Y-44965905D01*
X234092952Y-44775429D01*
X234092952Y-44537333D01*
X234045333Y-44346857D01*
X233997714Y-44251619D01*
X233950095Y-44204000D01*
X233854857Y-44156381D01*
X278415476Y-45029762D02*
X278272619Y-45077381D01*
X278034523Y-45077381D01*
X277939285Y-45029762D01*
X277891666Y-44982143D01*
X277844047Y-44886905D01*
X277844047Y-44791667D01*
X277891666Y-44696429D01*
X277939285Y-44648810D01*
X278034523Y-44601190D01*
X278225000Y-44553571D01*
X278320238Y-44505952D01*
X278367857Y-44458333D01*
X278415476Y-44363095D01*
X278415476Y-44267857D01*
X278367857Y-44172619D01*
X278320238Y-44125000D01*
X278225000Y-44077381D01*
X277986904Y-44077381D01*
X277844047Y-44125000D01*
X277510714Y-44077381D02*
X277272619Y-45077381D01*
X277082142Y-44363095D01*
X276891666Y-45077381D01*
X276653571Y-44077381D01*
X276510714Y-45172619D02*
X275748809Y-45172619D01*
X275605952Y-44077381D02*
X274986904Y-44077381D01*
X275320238Y-44458333D01*
X275177380Y-44458333D01*
X275082142Y-44505952D01*
X275034523Y-44553571D01*
X274986904Y-44648810D01*
X274986904Y-44886905D01*
X275034523Y-44982143D01*
X275082142Y-45029762D01*
X275177380Y-45077381D01*
X275463095Y-45077381D01*
X275558333Y-45029762D01*
X275605952Y-44982143D01*
X274129761Y-44410714D02*
X274129761Y-45077381D01*
X274367857Y-44029762D02*
X274605952Y-44744048D01*
X273986904Y-44744048D01*
X259365476Y-45029762D02*
X259222619Y-45077381D01*
X258984523Y-45077381D01*
X258889285Y-45029762D01*
X258841666Y-44982143D01*
X258794047Y-44886905D01*
X258794047Y-44791667D01*
X258841666Y-44696429D01*
X258889285Y-44648810D01*
X258984523Y-44601190D01*
X259175000Y-44553571D01*
X259270238Y-44505952D01*
X259317857Y-44458333D01*
X259365476Y-44363095D01*
X259365476Y-44267857D01*
X259317857Y-44172619D01*
X259270238Y-44125000D01*
X259175000Y-44077381D01*
X258936904Y-44077381D01*
X258794047Y-44125000D01*
X258460714Y-44077381D02*
X258222619Y-45077381D01*
X258032142Y-44363095D01*
X257841666Y-45077381D01*
X257603571Y-44077381D01*
X257460714Y-45172619D02*
X256698809Y-45172619D01*
X256555952Y-44077381D02*
X255936904Y-44077381D01*
X256270238Y-44458333D01*
X256127380Y-44458333D01*
X256032142Y-44505952D01*
X255984523Y-44553571D01*
X255936904Y-44648810D01*
X255936904Y-44886905D01*
X255984523Y-44982143D01*
X256032142Y-45029762D01*
X256127380Y-45077381D01*
X256413095Y-45077381D01*
X256508333Y-45029762D01*
X256555952Y-44982143D01*
X255555952Y-44172619D02*
X255508333Y-44125000D01*
X255413095Y-44077381D01*
X255174999Y-44077381D01*
X255079761Y-44125000D01*
X255032142Y-44172619D01*
X254984523Y-44267857D01*
X254984523Y-44363095D01*
X255032142Y-44505952D01*
X255603571Y-45077381D01*
X254984523Y-45077381D01*
X135540476Y-83129762D02*
X135397619Y-83177381D01*
X135159523Y-83177381D01*
X135064285Y-83129762D01*
X135016666Y-83082143D01*
X134969047Y-82986905D01*
X134969047Y-82891667D01*
X135016666Y-82796429D01*
X135064285Y-82748810D01*
X135159523Y-82701190D01*
X135350000Y-82653571D01*
X135445238Y-82605952D01*
X135492857Y-82558333D01*
X135540476Y-82463095D01*
X135540476Y-82367857D01*
X135492857Y-82272619D01*
X135445238Y-82225000D01*
X135350000Y-82177381D01*
X135111904Y-82177381D01*
X134969047Y-82225000D01*
X134635714Y-82177381D02*
X134397619Y-83177381D01*
X134207142Y-82463095D01*
X134016666Y-83177381D01*
X133778571Y-82177381D01*
X133635714Y-83272619D02*
X132873809Y-83272619D01*
X132159523Y-82177381D02*
X132635714Y-82177381D01*
X132683333Y-82653571D01*
X132635714Y-82605952D01*
X132540476Y-82558333D01*
X132302380Y-82558333D01*
X132207142Y-82605952D01*
X132159523Y-82653571D01*
X132111904Y-82748810D01*
X132111904Y-82986905D01*
X132159523Y-83082143D01*
X132207142Y-83129762D01*
X132302380Y-83177381D01*
X132540476Y-83177381D01*
X132635714Y-83129762D01*
X132683333Y-83082143D01*
X131635714Y-83177381D02*
X131445238Y-83177381D01*
X131349999Y-83129762D01*
X131302380Y-83082143D01*
X131207142Y-82939286D01*
X131159523Y-82748810D01*
X131159523Y-82367857D01*
X131207142Y-82272619D01*
X131254761Y-82225000D01*
X131349999Y-82177381D01*
X131540476Y-82177381D01*
X131635714Y-82225000D01*
X131683333Y-82272619D01*
X131730952Y-82367857D01*
X131730952Y-82605952D01*
X131683333Y-82701190D01*
X131635714Y-82748810D01*
X131540476Y-82796429D01*
X131349999Y-82796429D01*
X131254761Y-82748810D01*
X131207142Y-82701190D01*
X131159523Y-82605952D01*
X154590476Y-83129762D02*
X154447619Y-83177381D01*
X154209523Y-83177381D01*
X154114285Y-83129762D01*
X154066666Y-83082143D01*
X154019047Y-82986905D01*
X154019047Y-82891667D01*
X154066666Y-82796429D01*
X154114285Y-82748810D01*
X154209523Y-82701190D01*
X154400000Y-82653571D01*
X154495238Y-82605952D01*
X154542857Y-82558333D01*
X154590476Y-82463095D01*
X154590476Y-82367857D01*
X154542857Y-82272619D01*
X154495238Y-82225000D01*
X154400000Y-82177381D01*
X154161904Y-82177381D01*
X154019047Y-82225000D01*
X153685714Y-82177381D02*
X153447619Y-83177381D01*
X153257142Y-82463095D01*
X153066666Y-83177381D01*
X152828571Y-82177381D01*
X152685714Y-83272619D02*
X151923809Y-83272619D01*
X151257142Y-82177381D02*
X151447619Y-82177381D01*
X151542857Y-82225000D01*
X151590476Y-82272619D01*
X151685714Y-82415476D01*
X151733333Y-82605952D01*
X151733333Y-82986905D01*
X151685714Y-83082143D01*
X151638095Y-83129762D01*
X151542857Y-83177381D01*
X151352380Y-83177381D01*
X151257142Y-83129762D01*
X151209523Y-83082143D01*
X151161904Y-82986905D01*
X151161904Y-82748810D01*
X151209523Y-82653571D01*
X151257142Y-82605952D01*
X151352380Y-82558333D01*
X151542857Y-82558333D01*
X151638095Y-82605952D01*
X151685714Y-82653571D01*
X151733333Y-82748810D01*
X150542857Y-82177381D02*
X150447618Y-82177381D01*
X150352380Y-82225000D01*
X150304761Y-82272619D01*
X150257142Y-82367857D01*
X150209523Y-82558333D01*
X150209523Y-82796429D01*
X150257142Y-82986905D01*
X150304761Y-83082143D01*
X150352380Y-83129762D01*
X150447618Y-83177381D01*
X150542857Y-83177381D01*
X150638095Y-83129762D01*
X150685714Y-83082143D01*
X150733333Y-82986905D01*
X150780952Y-82796429D01*
X150780952Y-82558333D01*
X150733333Y-82367857D01*
X150685714Y-82272619D01*
X150638095Y-82225000D01*
X150542857Y-82177381D01*
X116490476Y-83129762D02*
X116347619Y-83177381D01*
X116109523Y-83177381D01*
X116014285Y-83129762D01*
X115966666Y-83082143D01*
X115919047Y-82986905D01*
X115919047Y-82891667D01*
X115966666Y-82796429D01*
X116014285Y-82748810D01*
X116109523Y-82701190D01*
X116300000Y-82653571D01*
X116395238Y-82605952D01*
X116442857Y-82558333D01*
X116490476Y-82463095D01*
X116490476Y-82367857D01*
X116442857Y-82272619D01*
X116395238Y-82225000D01*
X116300000Y-82177381D01*
X116061904Y-82177381D01*
X115919047Y-82225000D01*
X115585714Y-82177381D02*
X115347619Y-83177381D01*
X115157142Y-82463095D01*
X114966666Y-83177381D01*
X114728571Y-82177381D01*
X114585714Y-83272619D02*
X113823809Y-83272619D01*
X113109523Y-82177381D02*
X113585714Y-82177381D01*
X113633333Y-82653571D01*
X113585714Y-82605952D01*
X113490476Y-82558333D01*
X113252380Y-82558333D01*
X113157142Y-82605952D01*
X113109523Y-82653571D01*
X113061904Y-82748810D01*
X113061904Y-82986905D01*
X113109523Y-83082143D01*
X113157142Y-83129762D01*
X113252380Y-83177381D01*
X113490476Y-83177381D01*
X113585714Y-83129762D01*
X113633333Y-83082143D01*
X112728571Y-82177381D02*
X112061904Y-82177381D01*
X112490476Y-83177381D01*
X99472476Y-44854762D02*
X99329619Y-44902381D01*
X99091523Y-44902381D01*
X98996285Y-44854762D01*
X98948666Y-44807143D01*
X98901047Y-44711905D01*
X98901047Y-44616667D01*
X98948666Y-44521429D01*
X98996285Y-44473810D01*
X99091523Y-44426190D01*
X99282000Y-44378571D01*
X99377238Y-44330952D01*
X99424857Y-44283333D01*
X99472476Y-44188095D01*
X99472476Y-44092857D01*
X99424857Y-43997619D01*
X99377238Y-43950000D01*
X99282000Y-43902381D01*
X99043904Y-43902381D01*
X98901047Y-43950000D01*
X98567714Y-43902381D02*
X98329619Y-44902381D01*
X98139142Y-44188095D01*
X97948666Y-44902381D01*
X97710571Y-43902381D01*
X97567714Y-44997619D02*
X96805809Y-44997619D01*
X96615333Y-43997619D02*
X96567714Y-43950000D01*
X96472476Y-43902381D01*
X96234380Y-43902381D01*
X96139142Y-43950000D01*
X96091523Y-43997619D01*
X96043904Y-44092857D01*
X96043904Y-44188095D01*
X96091523Y-44330952D01*
X96662952Y-44902381D01*
X96043904Y-44902381D01*
X95662952Y-43997619D02*
X95615333Y-43950000D01*
X95520095Y-43902381D01*
X95281999Y-43902381D01*
X95186761Y-43950000D01*
X95139142Y-43997619D01*
X95091523Y-44092857D01*
X95091523Y-44188095D01*
X95139142Y-44330952D01*
X95710571Y-44902381D01*
X95091523Y-44902381D01*
D10*
X53200561Y-22121905D02*
X52200561Y-22121905D01*
X52200561Y-22502858D01*
X52248180Y-22598096D01*
X52295799Y-22645715D01*
X52391037Y-22693334D01*
X52533894Y-22693334D01*
X52629132Y-22645715D01*
X52676751Y-22598096D01*
X52724370Y-22502858D01*
X52724370Y-22121905D01*
X53200561Y-23645715D02*
X53200561Y-23074286D01*
X53200561Y-23360000D02*
X52200561Y-23360000D01*
X52343418Y-23264762D01*
X52438656Y-23169524D01*
X52486275Y-23074286D01*
X66136781Y-70445334D02*
X65660590Y-70112000D01*
X66136781Y-69873905D02*
X65136781Y-69873905D01*
X65136781Y-70254858D01*
X65184400Y-70350096D01*
X65232019Y-70397715D01*
X65327257Y-70445334D01*
X65470114Y-70445334D01*
X65565352Y-70397715D01*
X65612971Y-70350096D01*
X65660590Y-70254858D01*
X65660590Y-69873905D01*
X66136781Y-71397715D02*
X66136781Y-70826286D01*
X66136781Y-71112000D02*
X65136781Y-71112000D01*
X65279638Y-71016762D01*
X65374876Y-70921524D01*
X65422495Y-70826286D01*
X64130181Y-70445334D02*
X63653990Y-70112000D01*
X64130181Y-69873905D02*
X63130181Y-69873905D01*
X63130181Y-70254858D01*
X63177800Y-70350096D01*
X63225419Y-70397715D01*
X63320657Y-70445334D01*
X63463514Y-70445334D01*
X63558752Y-70397715D01*
X63606371Y-70350096D01*
X63653990Y-70254858D01*
X63653990Y-69873905D01*
X63225419Y-70826286D02*
X63177800Y-70873905D01*
X63130181Y-70969143D01*
X63130181Y-71207239D01*
X63177800Y-71302477D01*
X63225419Y-71350096D01*
X63320657Y-71397715D01*
X63415895Y-71397715D01*
X63558752Y-71350096D01*
X64130181Y-70778667D01*
X64130181Y-71397715D01*
X61011905Y-72452381D02*
X61011905Y-73261905D01*
X60964286Y-73357143D01*
X60916667Y-73404762D01*
X60821429Y-73452381D01*
X60630952Y-73452381D01*
X60535714Y-73404762D01*
X60488095Y-73357143D01*
X60440476Y-73261905D01*
X60440476Y-72452381D01*
X59440476Y-73452381D02*
X60011905Y-73452381D01*
X59726191Y-73452381D02*
X59726191Y-72452381D01*
X59821429Y-72595238D01*
X59916667Y-72690476D01*
X60011905Y-72738095D01*
X80416666Y-82857143D02*
X80464285Y-82904762D01*
X80607142Y-82952381D01*
X80702380Y-82952381D01*
X80845238Y-82904762D01*
X80940476Y-82809524D01*
X80988095Y-82714286D01*
X81035714Y-82523810D01*
X81035714Y-82380952D01*
X80988095Y-82190476D01*
X80940476Y-82095238D01*
X80845238Y-82000000D01*
X80702380Y-81952381D01*
X80607142Y-81952381D01*
X80464285Y-82000000D01*
X80416666Y-82047619D01*
X79464285Y-82952381D02*
X80035714Y-82952381D01*
X79750000Y-82952381D02*
X79750000Y-81952381D01*
X79845238Y-82095238D01*
X79940476Y-82190476D01*
X80035714Y-82238095D01*
X80416666Y-75107143D02*
X80464285Y-75154762D01*
X80607142Y-75202381D01*
X80702380Y-75202381D01*
X80845238Y-75154762D01*
X80940476Y-75059524D01*
X80988095Y-74964286D01*
X81035714Y-74773810D01*
X81035714Y-74630952D01*
X80988095Y-74440476D01*
X80940476Y-74345238D01*
X80845238Y-74250000D01*
X80702380Y-74202381D01*
X80607142Y-74202381D01*
X80464285Y-74250000D01*
X80416666Y-74297619D01*
X80035714Y-74297619D02*
X79988095Y-74250000D01*
X79892857Y-74202381D01*
X79654761Y-74202381D01*
X79559523Y-74250000D01*
X79511904Y-74297619D01*
X79464285Y-74392857D01*
X79464285Y-74488095D01*
X79511904Y-74630952D01*
X80083333Y-75202381D01*
X79464285Y-75202381D01*
X33857143Y-31833334D02*
X33904762Y-31785715D01*
X33952381Y-31642858D01*
X33952381Y-31547620D01*
X33904762Y-31404762D01*
X33809524Y-31309524D01*
X33714286Y-31261905D01*
X33523810Y-31214286D01*
X33380952Y-31214286D01*
X33190476Y-31261905D01*
X33095238Y-31309524D01*
X33000000Y-31404762D01*
X32952381Y-31547620D01*
X32952381Y-31642858D01*
X33000000Y-31785715D01*
X33047619Y-31833334D01*
X32952381Y-32166667D02*
X32952381Y-32785715D01*
X33333333Y-32452381D01*
X33333333Y-32595239D01*
X33380952Y-32690477D01*
X33428571Y-32738096D01*
X33523810Y-32785715D01*
X33761905Y-32785715D01*
X33857143Y-32738096D01*
X33904762Y-32690477D01*
X33952381Y-32595239D01*
X33952381Y-32309524D01*
X33904762Y-32214286D01*
X33857143Y-32166667D01*
X35821429Y-29869048D02*
X35821429Y-30630953D01*
X36202381Y-30250001D02*
X35440476Y-30250001D01*
X56357143Y-75833334D02*
X56404762Y-75785715D01*
X56452381Y-75642858D01*
X56452381Y-75547620D01*
X56404762Y-75404762D01*
X56309524Y-75309524D01*
X56214286Y-75261905D01*
X56023810Y-75214286D01*
X55880952Y-75214286D01*
X55690476Y-75261905D01*
X55595238Y-75309524D01*
X55500000Y-75404762D01*
X55452381Y-75547620D01*
X55452381Y-75642858D01*
X55500000Y-75785715D01*
X55547619Y-75833334D01*
X55785714Y-76690477D02*
X56452381Y-76690477D01*
X55404762Y-76452381D02*
X56119048Y-76214286D01*
X56119048Y-76833334D01*
X67921143Y-65365334D02*
X67968762Y-65317715D01*
X68016381Y-65174858D01*
X68016381Y-65079620D01*
X67968762Y-64936762D01*
X67873524Y-64841524D01*
X67778286Y-64793905D01*
X67587810Y-64746286D01*
X67444952Y-64746286D01*
X67254476Y-64793905D01*
X67159238Y-64841524D01*
X67064000Y-64936762D01*
X67016381Y-65079620D01*
X67016381Y-65174858D01*
X67064000Y-65317715D01*
X67111619Y-65365334D01*
X67016381Y-66270096D02*
X67016381Y-65793905D01*
X67492571Y-65746286D01*
X67444952Y-65793905D01*
X67397333Y-65889143D01*
X67397333Y-66127239D01*
X67444952Y-66222477D01*
X67492571Y-66270096D01*
X67587810Y-66317715D01*
X67825905Y-66317715D01*
X67921143Y-66270096D01*
X67968762Y-66222477D01*
X68016381Y-66127239D01*
X68016381Y-65889143D01*
X67968762Y-65793905D01*
X67921143Y-65746286D01*
X70166666Y-89957143D02*
X70214285Y-90004762D01*
X70357142Y-90052381D01*
X70452380Y-90052381D01*
X70595238Y-90004762D01*
X70690476Y-89909524D01*
X70738095Y-89814286D01*
X70785714Y-89623810D01*
X70785714Y-89480952D01*
X70738095Y-89290476D01*
X70690476Y-89195238D01*
X70595238Y-89100000D01*
X70452380Y-89052381D01*
X70357142Y-89052381D01*
X70214285Y-89100000D01*
X70166666Y-89147619D01*
X69309523Y-89052381D02*
X69500000Y-89052381D01*
X69595238Y-89100000D01*
X69642857Y-89147619D01*
X69738095Y-89290476D01*
X69785714Y-89480952D01*
X69785714Y-89861905D01*
X69738095Y-89957143D01*
X69690476Y-90004762D01*
X69595238Y-90052381D01*
X69404761Y-90052381D01*
X69309523Y-90004762D01*
X69261904Y-89957143D01*
X69214285Y-89861905D01*
X69214285Y-89623810D01*
X69261904Y-89528571D01*
X69309523Y-89480952D01*
X69404761Y-89433333D01*
X69595238Y-89433333D01*
X69690476Y-89480952D01*
X69738095Y-89528571D01*
X69785714Y-89623810D01*
X69953143Y-65365334D02*
X70000762Y-65317715D01*
X70048381Y-65174858D01*
X70048381Y-65079620D01*
X70000762Y-64936762D01*
X69905524Y-64841524D01*
X69810286Y-64793905D01*
X69619810Y-64746286D01*
X69476952Y-64746286D01*
X69286476Y-64793905D01*
X69191238Y-64841524D01*
X69096000Y-64936762D01*
X69048381Y-65079620D01*
X69048381Y-65174858D01*
X69096000Y-65317715D01*
X69143619Y-65365334D01*
X69048381Y-65698667D02*
X69048381Y-66365334D01*
X70048381Y-65936762D01*
X77416666Y-75457143D02*
X77464285Y-75504762D01*
X77607142Y-75552381D01*
X77702380Y-75552381D01*
X77845238Y-75504762D01*
X77940476Y-75409524D01*
X77988095Y-75314286D01*
X78035714Y-75123810D01*
X78035714Y-74980952D01*
X77988095Y-74790476D01*
X77940476Y-74695238D01*
X77845238Y-74600000D01*
X77702380Y-74552381D01*
X77607142Y-74552381D01*
X77464285Y-74600000D01*
X77416666Y-74647619D01*
X76845238Y-74980952D02*
X76940476Y-74933333D01*
X76988095Y-74885714D01*
X77035714Y-74790476D01*
X77035714Y-74742857D01*
X76988095Y-74647619D01*
X76940476Y-74600000D01*
X76845238Y-74552381D01*
X76654761Y-74552381D01*
X76559523Y-74600000D01*
X76511904Y-74647619D01*
X76464285Y-74742857D01*
X76464285Y-74790476D01*
X76511904Y-74885714D01*
X76559523Y-74933333D01*
X76654761Y-74980952D01*
X76845238Y-74980952D01*
X76940476Y-75028571D01*
X76988095Y-75076190D01*
X77035714Y-75171429D01*
X77035714Y-75361905D01*
X76988095Y-75457143D01*
X76940476Y-75504762D01*
X76845238Y-75552381D01*
X76654761Y-75552381D01*
X76559523Y-75504762D01*
X76511904Y-75457143D01*
X76464285Y-75361905D01*
X76464285Y-75171429D01*
X76511904Y-75076190D01*
X76559523Y-75028571D01*
X76654761Y-74980952D01*
X56357143Y-81083334D02*
X56404762Y-81035715D01*
X56452381Y-80892858D01*
X56452381Y-80797620D01*
X56404762Y-80654762D01*
X56309524Y-80559524D01*
X56214286Y-80511905D01*
X56023810Y-80464286D01*
X55880952Y-80464286D01*
X55690476Y-80511905D01*
X55595238Y-80559524D01*
X55500000Y-80654762D01*
X55452381Y-80797620D01*
X55452381Y-80892858D01*
X55500000Y-81035715D01*
X55547619Y-81083334D01*
X56452381Y-81559524D02*
X56452381Y-81750000D01*
X56404762Y-81845239D01*
X56357143Y-81892858D01*
X56214286Y-81988096D01*
X56023810Y-82035715D01*
X55642857Y-82035715D01*
X55547619Y-81988096D01*
X55500000Y-81940477D01*
X55452381Y-81845239D01*
X55452381Y-81654762D01*
X55500000Y-81559524D01*
X55547619Y-81511905D01*
X55642857Y-81464286D01*
X55880952Y-81464286D01*
X55976190Y-81511905D01*
X56023810Y-81559524D01*
X56071429Y-81654762D01*
X56071429Y-81845239D01*
X56023810Y-81940477D01*
X55976190Y-81988096D01*
X55880952Y-82035715D01*
X30928571Y-31416667D02*
X30928571Y-31083333D01*
X31452381Y-31083333D02*
X30452381Y-31083333D01*
X30452381Y-31559524D01*
X31452381Y-32464286D02*
X31452381Y-31892857D01*
X31452381Y-32178571D02*
X30452381Y-32178571D01*
X30595238Y-32083333D01*
X30690476Y-31988095D01*
X30738095Y-31892857D01*
X80970381Y-61555334D02*
X80494190Y-61222000D01*
X80970381Y-60983905D02*
X79970381Y-60983905D01*
X79970381Y-61364858D01*
X80018000Y-61460096D01*
X80065619Y-61507715D01*
X80160857Y-61555334D01*
X80303714Y-61555334D01*
X80398952Y-61507715D01*
X80446571Y-61460096D01*
X80494190Y-61364858D01*
X80494190Y-60983905D01*
X79970381Y-61888667D02*
X79970381Y-62507715D01*
X80351333Y-62174381D01*
X80351333Y-62317239D01*
X80398952Y-62412477D01*
X80446571Y-62460096D01*
X80541810Y-62507715D01*
X80779905Y-62507715D01*
X80875143Y-62460096D01*
X80922762Y-62412477D01*
X80970381Y-62317239D01*
X80970381Y-62031524D01*
X80922762Y-61936286D01*
X80875143Y-61888667D01*
X90535714Y-70202381D02*
X90535714Y-69202381D01*
X90154761Y-69202381D01*
X90059523Y-69250000D01*
X90011904Y-69297619D01*
X89964285Y-69392857D01*
X89964285Y-69535714D01*
X90011904Y-69630952D01*
X90059523Y-69678571D01*
X90154761Y-69726190D01*
X90535714Y-69726190D01*
X88964285Y-70202381D02*
X89297619Y-69726190D01*
X89535714Y-70202381D02*
X89535714Y-69202381D01*
X89154761Y-69202381D01*
X89059523Y-69250000D01*
X89011904Y-69297619D01*
X88964285Y-69392857D01*
X88964285Y-69535714D01*
X89011904Y-69630952D01*
X89059523Y-69678571D01*
X89154761Y-69726190D01*
X89535714Y-69726190D01*
X88345238Y-69202381D02*
X88154761Y-69202381D01*
X88059523Y-69250000D01*
X87964285Y-69345238D01*
X87916666Y-69535714D01*
X87916666Y-69869048D01*
X87964285Y-70059524D01*
X88059523Y-70154762D01*
X88154761Y-70202381D01*
X88345238Y-70202381D01*
X88440476Y-70154762D01*
X88535714Y-70059524D01*
X88583333Y-69869048D01*
X88583333Y-69535714D01*
X88535714Y-69345238D01*
X88440476Y-69250000D01*
X88345238Y-69202381D01*
X86964285Y-69250000D02*
X87059523Y-69202381D01*
X87202380Y-69202381D01*
X87345238Y-69250000D01*
X87440476Y-69345238D01*
X87488095Y-69440476D01*
X87535714Y-69630952D01*
X87535714Y-69773810D01*
X87488095Y-69964286D01*
X87440476Y-70059524D01*
X87345238Y-70154762D01*
X87202380Y-70202381D01*
X87107142Y-70202381D01*
X86964285Y-70154762D01*
X86916666Y-70107143D01*
X86916666Y-69773810D01*
X87107142Y-69773810D01*
X85916666Y-70202381D02*
X86250000Y-69726190D01*
X86488095Y-70202381D02*
X86488095Y-69202381D01*
X86107142Y-69202381D01*
X86011904Y-69250000D01*
X85964285Y-69297619D01*
X85916666Y-69392857D01*
X85916666Y-69535714D01*
X85964285Y-69630952D01*
X86011904Y-69678571D01*
X86107142Y-69726190D01*
X86488095Y-69726190D01*
X85535714Y-69916667D02*
X85059523Y-69916667D01*
X85630952Y-70202381D02*
X85297619Y-69202381D01*
X84964285Y-70202381D01*
X84630952Y-70202381D02*
X84630952Y-69202381D01*
X84297618Y-69916667D01*
X83964285Y-69202381D01*
X83964285Y-70202381D01*
X81726191Y-77476190D02*
X81726191Y-77952381D01*
X82059524Y-76952381D02*
X81726191Y-77476190D01*
X81392857Y-76952381D01*
X80535714Y-77952381D02*
X81107143Y-77952381D01*
X80821429Y-77952381D02*
X80821429Y-76952381D01*
X80916667Y-77095238D01*
X81011905Y-77190476D01*
X81107143Y-77238095D01*
%LPC*%
D12*
X33020000Y-36830000D03*
D13*
X43180000Y-36830000D03*
D12*
X57150000Y-36830000D03*
D13*
X67310000Y-36830000D03*
D12*
X67315080Y-33528000D03*
D13*
X67315080Y-23368000D03*
D12*
X86365080Y-33528000D03*
D13*
X86365080Y-23368000D03*
D12*
X105410000Y-33528000D03*
D13*
X105410000Y-23368000D03*
D12*
X124460000Y-33528000D03*
D13*
X124460000Y-23368000D03*
D12*
X143397460Y-33528000D03*
D13*
X143397460Y-23368000D03*
D12*
X162560000Y-33528000D03*
D13*
X162560000Y-23368000D03*
D12*
X181610000Y-33528000D03*
D13*
X181610000Y-23368000D03*
D12*
X200660000Y-33528000D03*
D13*
X200660000Y-23368000D03*
D12*
X219704920Y-33528000D03*
D13*
X219704920Y-23368000D03*
D12*
X238760000Y-33528000D03*
D13*
X238760000Y-23368000D03*
D12*
X257810000Y-33528000D03*
D13*
X257810000Y-23368000D03*
D12*
X276860000Y-33528000D03*
D13*
X276860000Y-23368000D03*
D12*
X295910000Y-33528000D03*
D13*
X295910000Y-23368000D03*
D12*
X35560000Y-55880000D03*
D13*
X45720000Y-55880000D03*
D12*
X52324000Y-55880000D03*
D13*
X62484000Y-55880000D03*
D12*
X73660000Y-55880000D03*
D13*
X83820000Y-55880000D03*
D12*
X102108000Y-55880000D03*
D13*
X112268000Y-55880000D03*
D12*
X114808000Y-52324000D03*
D13*
X114808000Y-42164000D03*
D12*
X134112000Y-52324000D03*
D13*
X134112000Y-42164000D03*
D12*
X153162000Y-52324000D03*
D13*
X153162000Y-42164000D03*
D12*
X172212000Y-52324000D03*
D13*
X172212000Y-42164000D03*
D12*
X191262000Y-52324000D03*
D13*
X191262000Y-42164000D03*
D12*
X210312000Y-52324000D03*
D13*
X210312000Y-42164000D03*
D12*
X240283480Y-55755540D03*
D13*
X250443480Y-55755540D03*
D12*
X264159480Y-55755540D03*
D13*
X274319480Y-55755540D03*
D12*
X283210000Y-55753000D03*
D13*
X293370000Y-55753000D03*
D12*
X300736000Y-55753000D03*
D13*
X310896000Y-55753000D03*
D12*
X32385000Y-74930000D03*
D13*
X42545000Y-74930000D03*
D12*
X48260000Y-71628000D03*
D13*
X48260000Y-61468000D03*
D12*
X73660000Y-58420000D03*
D13*
X83820000Y-58420000D03*
D12*
X86365080Y-71628520D03*
D13*
X86365080Y-61468520D03*
D12*
X105410000Y-71628000D03*
D13*
X105410000Y-61468000D03*
D12*
X124460000Y-71628000D03*
D13*
X124460000Y-61468000D03*
D12*
X143510000Y-71628000D03*
D13*
X143510000Y-61468000D03*
D12*
X162560000Y-71628000D03*
D13*
X162560000Y-61468000D03*
D12*
X181610000Y-71628000D03*
D13*
X181610000Y-61468000D03*
D12*
X200660000Y-71628000D03*
D13*
X200660000Y-61468000D03*
D12*
X219710000Y-71628000D03*
D13*
X219710000Y-61468000D03*
D12*
X238760000Y-71628000D03*
D13*
X238760000Y-61468000D03*
D12*
X257812540Y-71628000D03*
D13*
X257812540Y-61468000D03*
D12*
X276860000Y-71628000D03*
D13*
X276860000Y-61468000D03*
D12*
X295910000Y-71628000D03*
D13*
X295910000Y-61468000D03*
D12*
X32385000Y-77470000D03*
D13*
X42545000Y-77470000D03*
D12*
X48260000Y-90424000D03*
D13*
X48260000Y-80264000D03*
D12*
X85095080Y-90424520D03*
D13*
X85095080Y-80264520D03*
D12*
X92202000Y-77724000D03*
D13*
X102362000Y-77724000D03*
D12*
X105410000Y-90424000D03*
D13*
X105410000Y-80264000D03*
D14*
X304800000Y-85725000D03*
D15*
X307799547Y-89724954D02*
X308610453Y-88265046D01*
X302260276Y-90804328D02*
X302299724Y-90225672D01*
D14*
X285750000Y-85725000D03*
D15*
X288749547Y-89724954D02*
X289560453Y-88265046D01*
X283210276Y-90804328D02*
X283249724Y-90225672D01*
D14*
X266700000Y-85725000D03*
D15*
X269699547Y-89724954D02*
X270510453Y-88265046D01*
X264160276Y-90804328D02*
X264199724Y-90225672D01*
D14*
X247650000Y-85725000D03*
D15*
X250649547Y-89724954D02*
X251460453Y-88265046D01*
X245110276Y-90804328D02*
X245149724Y-90225672D01*
D14*
X228600000Y-85725000D03*
D15*
X231599547Y-89724954D02*
X232410453Y-88265046D01*
X226060276Y-90804328D02*
X226099724Y-90225672D01*
D14*
X209550000Y-85725000D03*
D15*
X212549547Y-89724954D02*
X213360453Y-88265046D01*
X207010276Y-90804328D02*
X207049724Y-90225672D01*
D14*
X190500000Y-85725000D03*
D15*
X193499547Y-89724954D02*
X194310453Y-88265046D01*
X187960276Y-90804328D02*
X187999724Y-90225672D01*
D14*
X161925000Y-85725000D03*
D15*
X164924547Y-89724954D02*
X165735453Y-88265046D01*
X159385276Y-90804328D02*
X159424724Y-90225672D01*
D14*
X123825000Y-85725000D03*
D15*
X126824547Y-89724954D02*
X127635453Y-88265046D01*
X121285276Y-90804328D02*
X121324724Y-90225672D01*
D14*
X95250000Y-85725000D03*
D15*
X98249547Y-89724954D02*
X99060453Y-88265046D01*
X92710276Y-90804328D02*
X92749724Y-90225672D01*
D14*
X76200000Y-85725000D03*
D15*
X79199547Y-89724954D02*
X80010453Y-88265046D01*
X73660276Y-90804328D02*
X73699724Y-90225672D01*
D14*
X57150000Y-85725000D03*
D15*
X60149547Y-89724954D02*
X60960453Y-88265046D01*
X54610276Y-90804328D02*
X54649724Y-90225672D01*
D14*
X38100000Y-85725000D03*
D15*
X41099547Y-89724954D02*
X41910453Y-88265046D01*
X35560276Y-90804328D02*
X35599724Y-90225672D01*
D14*
X304800000Y-66675000D03*
D15*
X307799547Y-70674954D02*
X308610453Y-69215046D01*
X302260276Y-71754328D02*
X302299724Y-71175672D01*
D14*
X285750000Y-66675000D03*
D15*
X288749547Y-70674954D02*
X289560453Y-69215046D01*
X283210276Y-71754328D02*
X283249724Y-71175672D01*
D14*
X266700000Y-66675000D03*
D15*
X269699547Y-70674954D02*
X270510453Y-69215046D01*
X264160276Y-71754328D02*
X264199724Y-71175672D01*
D14*
X247650000Y-66675000D03*
D15*
X250649547Y-70674954D02*
X251460453Y-69215046D01*
X245110276Y-71754328D02*
X245149724Y-71175672D01*
D14*
X228600000Y-66675000D03*
D15*
X231599547Y-70674954D02*
X232410453Y-69215046D01*
X226060276Y-71754328D02*
X226099724Y-71175672D01*
D14*
X209550000Y-66675000D03*
D15*
X212549547Y-70674954D02*
X213360453Y-69215046D01*
X207010276Y-71754328D02*
X207049724Y-71175672D01*
D14*
X190500000Y-66675000D03*
D15*
X193499547Y-70674954D02*
X194310453Y-69215046D01*
X187960276Y-71754328D02*
X187999724Y-71175672D01*
D14*
X171450000Y-66675000D03*
D15*
X174449547Y-70674954D02*
X175260453Y-69215046D01*
X168910276Y-71754328D02*
X168949724Y-71175672D01*
D14*
X152400000Y-66675000D03*
D15*
X155399547Y-70674954D02*
X156210453Y-69215046D01*
X149860276Y-71754328D02*
X149899724Y-71175672D01*
D14*
X133350000Y-66675000D03*
D15*
X136349547Y-70674954D02*
X137160453Y-69215046D01*
X130810276Y-71754328D02*
X130849724Y-71175672D01*
D14*
X114300000Y-66675000D03*
D15*
X117299547Y-70674954D02*
X118110453Y-69215046D01*
X111760276Y-71754328D02*
X111799724Y-71175672D01*
D14*
X95250000Y-66675000D03*
D15*
X98249547Y-70674954D02*
X99060453Y-69215046D01*
X92710276Y-71754328D02*
X92749724Y-71175672D01*
D14*
X76200000Y-66675000D03*
D15*
X79199547Y-70674954D02*
X80010453Y-69215046D01*
X73660276Y-71754328D02*
X73699724Y-71175672D01*
D14*
X57150000Y-66675000D03*
D15*
X60149547Y-70674954D02*
X60960453Y-69215046D01*
X54610276Y-71754328D02*
X54649724Y-71175672D01*
D14*
X38100000Y-66675000D03*
D15*
X41099547Y-70674954D02*
X41910453Y-69215046D01*
X35560276Y-71754328D02*
X35599724Y-71175672D01*
D14*
X304800000Y-47625000D03*
D15*
X307799547Y-51624954D02*
X308610453Y-50165046D01*
X302260276Y-52704328D02*
X302299724Y-52125672D01*
D14*
X285750000Y-47625000D03*
D15*
X288749547Y-51624954D02*
X289560453Y-50165046D01*
X283210276Y-52704328D02*
X283249724Y-52125672D01*
D14*
X266700000Y-47625000D03*
D15*
X269699547Y-51624954D02*
X270510453Y-50165046D01*
X264160276Y-52704328D02*
X264199724Y-52125672D01*
D14*
X242887500Y-47625000D03*
D15*
X245887047Y-51624954D02*
X246697953Y-50165046D01*
X240347776Y-52704328D02*
X240387224Y-52125672D01*
D14*
X219075000Y-47625000D03*
D15*
X222074547Y-51624954D02*
X222885453Y-50165046D01*
X216535276Y-52704328D02*
X216574724Y-52125672D01*
D14*
X200025000Y-47625000D03*
D15*
X203024547Y-51624954D02*
X203835453Y-50165046D01*
X197485276Y-52704328D02*
X197524724Y-52125672D01*
D14*
X180975000Y-47625000D03*
D15*
X183974547Y-51624954D02*
X184785453Y-50165046D01*
X178435276Y-52704328D02*
X178474724Y-52125672D01*
D14*
X161925000Y-47625000D03*
D15*
X164924547Y-51624954D02*
X165735453Y-50165046D01*
X159385276Y-52704328D02*
X159424724Y-52125672D01*
D14*
X142875000Y-47625000D03*
D15*
X145874547Y-51624954D02*
X146685453Y-50165046D01*
X140335276Y-52704328D02*
X140374724Y-52125672D01*
D14*
X123825000Y-47625000D03*
D15*
X126824547Y-51624954D02*
X127635453Y-50165046D01*
X121285276Y-52704328D02*
X121324724Y-52125672D01*
D14*
X104775000Y-47625000D03*
D15*
X107774547Y-51624954D02*
X108585453Y-50165046D01*
X102235276Y-52704328D02*
X102274724Y-52125672D01*
D14*
X85725000Y-47625000D03*
D15*
X88724547Y-51624954D02*
X89535453Y-50165046D01*
X83185276Y-52704328D02*
X83224724Y-52125672D01*
D14*
X66675000Y-47625000D03*
D15*
X69674547Y-51624954D02*
X70485453Y-50165046D01*
X64135276Y-52704328D02*
X64174724Y-52125672D01*
D14*
X42862500Y-47625000D03*
D15*
X45862047Y-51624954D02*
X46672953Y-50165046D01*
X40322776Y-52704328D02*
X40362224Y-52125672D01*
D14*
X304800000Y-28575000D03*
D15*
X307799547Y-32574954D02*
X308610453Y-31115046D01*
X302260276Y-33654328D02*
X302299724Y-33075672D01*
D14*
X285750000Y-28575000D03*
D15*
X288749547Y-32574954D02*
X289560453Y-31115046D01*
X283210276Y-33654328D02*
X283249724Y-33075672D01*
D14*
X266700000Y-28575000D03*
D15*
X269699547Y-32574954D02*
X270510453Y-31115046D01*
X264160276Y-33654328D02*
X264199724Y-33075672D01*
D14*
X247650000Y-28575000D03*
D15*
X250649547Y-32574954D02*
X251460453Y-31115046D01*
X245110276Y-33654328D02*
X245149724Y-33075672D01*
D14*
X228600000Y-28575000D03*
D15*
X231599547Y-32574954D02*
X232410453Y-31115046D01*
X226060276Y-33654328D02*
X226099724Y-33075672D01*
D14*
X209550000Y-28575000D03*
D15*
X212549547Y-32574954D02*
X213360453Y-31115046D01*
X207010276Y-33654328D02*
X207049724Y-33075672D01*
D14*
X190500000Y-28575000D03*
D15*
X193499547Y-32574954D02*
X194310453Y-31115046D01*
X187960276Y-33654328D02*
X187999724Y-33075672D01*
D14*
X171450000Y-28575000D03*
D15*
X174449547Y-32574954D02*
X175260453Y-31115046D01*
X168910276Y-33654328D02*
X168949724Y-33075672D01*
D14*
X152400000Y-28575000D03*
D15*
X155399547Y-32574954D02*
X156210453Y-31115046D01*
X149860276Y-33654328D02*
X149899724Y-33075672D01*
D14*
X133350000Y-28575000D03*
D15*
X136349547Y-32574954D02*
X137160453Y-31115046D01*
X130810276Y-33654328D02*
X130849724Y-33075672D01*
D14*
X114300000Y-28575000D03*
D15*
X117299547Y-32574954D02*
X118110453Y-31115046D01*
X111760276Y-33654328D02*
X111799724Y-33075672D01*
D14*
X95250000Y-28575000D03*
D15*
X98249547Y-32574954D02*
X99060453Y-31115046D01*
X92710276Y-33654328D02*
X92749724Y-33075672D01*
D14*
X76200000Y-28575000D03*
D15*
X79199547Y-32574954D02*
X80010453Y-31115046D01*
X73660276Y-33654328D02*
X73699724Y-33075672D01*
D14*
X57150000Y-28575000D03*
D15*
X60149547Y-32574954D02*
X60960453Y-31115046D01*
X54610276Y-33654328D02*
X54649724Y-33075672D01*
D14*
X38100000Y-28575000D03*
D15*
X41099547Y-32574954D02*
X41910453Y-31115046D01*
X35560276Y-33654328D02*
X35599724Y-33075672D01*
D14*
X219075000Y-85725000D03*
D15*
X222074547Y-89724954D02*
X222885453Y-88265046D01*
X216535276Y-90804328D02*
X216574724Y-90225672D01*
D14*
X180975000Y-85725000D03*
D15*
X183974547Y-89724954D02*
X184785453Y-88265046D01*
X178435276Y-90804328D02*
X178474724Y-90225672D01*
D14*
X38100000Y-47625000D03*
D15*
X41099547Y-51624954D02*
X41910453Y-50165046D01*
X35560276Y-52704328D02*
X35599724Y-52125672D01*
D14*
X57150000Y-47625000D03*
D15*
X60149547Y-51624954D02*
X60960453Y-50165046D01*
X54610276Y-52704328D02*
X54649724Y-52125672D01*
D14*
X76200000Y-47625000D03*
D15*
X79199547Y-51624954D02*
X80010453Y-50165046D01*
X73660276Y-52704328D02*
X73699724Y-52125672D01*
D14*
X300037500Y-47625000D03*
D15*
X303037047Y-51624954D02*
X303847953Y-50165046D01*
X297497776Y-52704328D02*
X297537224Y-52125672D01*
D14*
X238125000Y-47625000D03*
D15*
X241124547Y-51624954D02*
X241935453Y-50165046D01*
X235585276Y-52704328D02*
X235624724Y-52125672D01*
D14*
X276225000Y-47625000D03*
D15*
X279224547Y-51624954D02*
X280035453Y-50165046D01*
X273685276Y-52704328D02*
X273724724Y-52125672D01*
D14*
X257175000Y-47625000D03*
D15*
X260174547Y-51624954D02*
X260985453Y-50165046D01*
X254635276Y-52704328D02*
X254674724Y-52125672D01*
D14*
X133350000Y-85725000D03*
D15*
X136349547Y-89724954D02*
X137160453Y-88265046D01*
X130810276Y-90804328D02*
X130849724Y-90225672D01*
D14*
X152400000Y-85725000D03*
D15*
X155399547Y-89724954D02*
X156210453Y-88265046D01*
X149860276Y-90804328D02*
X149899724Y-90225672D01*
D14*
X114300000Y-85725000D03*
D15*
X117299547Y-89724954D02*
X118110453Y-88265046D01*
X111760276Y-90804328D02*
X111799724Y-90225672D01*
D14*
X100012500Y-47625000D03*
D15*
X103012047Y-51624954D02*
X103822953Y-50165046D01*
X97472776Y-52704328D02*
X97512224Y-52125672D01*
D12*
X120904000Y-77724000D03*
D13*
X131064000Y-77724000D03*
D12*
X143510000Y-90424000D03*
D13*
X143510000Y-80264000D03*
D12*
X171958000Y-90424000D03*
D13*
X171958000Y-80264000D03*
D12*
X200660000Y-90424000D03*
D13*
X200660000Y-80264000D03*
D12*
X226060000Y-77724000D03*
D13*
X236220000Y-77724000D03*
D12*
X238760000Y-90424000D03*
D13*
X238760000Y-80264000D03*
D12*
X257810000Y-90424000D03*
D13*
X257810000Y-80264000D03*
D12*
X276860000Y-90424000D03*
D13*
X276860000Y-80264000D03*
D12*
X295910000Y-90424000D03*
D13*
X295910000Y-80264000D03*
D16*
X44246800Y-26309320D03*
X45046900Y-26309320D03*
X45847000Y-26309320D03*
X46647100Y-26309320D03*
X47447200Y-26309320D03*
D17*
X41396920Y-26210260D03*
X41396920Y-20711160D03*
X50297080Y-26210260D03*
X50297080Y-20711160D03*
D18*
X43647360Y-23710900D03*
X48046640Y-23710900D03*
D19*
X65430400Y-68660000D03*
X65430400Y-65960000D03*
X63677800Y-68660000D03*
X63677800Y-65960000D03*
D20*
X62421000Y-73017000D03*
X63221000Y-73017000D03*
X64021000Y-73017000D03*
X64821000Y-73017000D03*
X65621000Y-73017000D03*
X66421000Y-73017000D03*
X67221000Y-73017000D03*
X68021000Y-73017000D03*
X68821000Y-73017000D03*
X69621000Y-73017000D03*
X70421000Y-73017000D03*
D21*
X72271000Y-74867000D03*
X72271000Y-75667000D03*
X72271000Y-76467000D03*
X72271000Y-77267000D03*
X72271000Y-78067000D03*
X72271000Y-78867000D03*
X72271000Y-79667000D03*
X72271000Y-80467000D03*
X72271000Y-81267000D03*
X72271000Y-82067000D03*
X72271000Y-82867000D03*
D20*
X70421000Y-84717000D03*
X69621000Y-84717000D03*
X68821000Y-84717000D03*
X68021000Y-84717000D03*
X67221000Y-84717000D03*
X66421000Y-84717000D03*
X65621000Y-84717000D03*
X64821000Y-84717000D03*
X64021000Y-84717000D03*
X63221000Y-84717000D03*
X62421000Y-84717000D03*
D21*
X60571000Y-82867000D03*
X60571000Y-82067000D03*
X60571000Y-81267000D03*
X60571000Y-80467000D03*
X60571000Y-79667000D03*
X60571000Y-78867000D03*
X60571000Y-78067000D03*
X60571000Y-77267000D03*
X60571000Y-76467000D03*
X60571000Y-75667000D03*
X60571000Y-74867000D03*
D22*
X76000000Y-82500000D03*
X78500000Y-82500000D03*
X76000000Y-74750000D03*
X78500000Y-74750000D03*
D23*
X34000000Y-25001020D03*
X34000000Y-28998980D03*
D24*
X57500000Y-74750000D03*
X57500000Y-77250000D03*
X67500000Y-70000000D03*
X67500000Y-67500000D03*
D22*
X68750000Y-87500000D03*
X71250000Y-87500000D03*
D24*
X69500000Y-70000000D03*
X69500000Y-67500000D03*
D22*
X76000000Y-73000000D03*
X78500000Y-73000000D03*
D24*
X57500000Y-82250000D03*
X57500000Y-79750000D03*
D25*
X31000000Y-24914660D03*
X31000000Y-29085340D03*
D19*
X80500000Y-63650000D03*
X80500000Y-66350000D03*
D26*
X90650000Y-67750000D03*
X83850000Y-67750000D03*
X83850000Y-63750000D03*
X90650000Y-63750000D03*
D27*
X79250000Y-79700000D03*
X75250000Y-79700000D03*
X75250000Y-77300000D03*
X79250000Y-77300000D03*
D28*
X32460000Y-20500000D03*
D29*
X35000000Y-20500000D03*
X37540000Y-20500000D03*
D28*
X105840000Y-20500000D03*
D29*
X108380000Y-20500000D03*
X110920000Y-20500000D03*
X113460000Y-20500000D03*
X116000000Y-20500000D03*
X118540000Y-20500000D03*
X121080000Y-20500000D03*
X123620000Y-20500000D03*
X126160000Y-20500000D03*
X128700000Y-20500000D03*
X131240000Y-20500000D03*
X133780000Y-20500000D03*
X136320000Y-20500000D03*
X138860000Y-20500000D03*
X141400000Y-20500000D03*
D28*
X162670000Y-20500000D03*
D29*
X165210000Y-20500000D03*
X167750000Y-20500000D03*
X170290000Y-20500000D03*
M02*
