G04 #@! TF.FileFunction,Soldermask,Top*
%FSLAX46Y46*%
G04 Gerber Fmt 4.6, Leading zero omitted, Abs format (unit mm)*
G04 Created by KiCad (PCBNEW 4.0.3-stable) date Thursday, September 01, 2016 'PMt' 01:02:08 PM*
%MOMM*%
%LPD*%
G01*
G04 APERTURE LIST*
%ADD10C,0.150000*%
%ADD11C,2.099260*%
%ADD12R,2.099260X2.099260*%
%ADD13C,4.387810*%
%ADD14C,2.900000*%
%ADD15C,1.299160*%
%ADD16R,2.127200X2.432000*%
%ADD17O,2.127200X2.432000*%
G04 APERTURE END LIST*
D10*
D11*
X33020000Y-36195000D03*
D12*
X43180000Y-36195000D03*
D11*
X57150000Y-36195000D03*
D12*
X67310000Y-36195000D03*
D11*
X67315080Y-33528000D03*
D12*
X67315080Y-23368000D03*
D11*
X86365080Y-33528000D03*
D12*
X86365080Y-23368000D03*
D11*
X105410000Y-33528000D03*
D12*
X105410000Y-23368000D03*
D11*
X124460000Y-33528000D03*
D12*
X124460000Y-23368000D03*
D11*
X143397460Y-33528000D03*
D12*
X143397460Y-23368000D03*
D11*
X162560000Y-33528000D03*
D12*
X162560000Y-23368000D03*
D11*
X181610000Y-33528000D03*
D12*
X181610000Y-23368000D03*
D11*
X200660000Y-33528000D03*
D12*
X200660000Y-23368000D03*
D11*
X219704920Y-33528000D03*
D12*
X219704920Y-23368000D03*
D11*
X238760000Y-33528000D03*
D12*
X238760000Y-23368000D03*
D11*
X257810000Y-33528000D03*
D12*
X257810000Y-23368000D03*
D11*
X276860000Y-33528000D03*
D12*
X276860000Y-23368000D03*
D11*
X295910000Y-33528000D03*
D12*
X295910000Y-23368000D03*
D11*
X35560000Y-55880000D03*
D12*
X45720000Y-55880000D03*
D11*
X52324000Y-55880000D03*
D12*
X62484000Y-55880000D03*
D11*
X73660000Y-55880000D03*
D12*
X83820000Y-55880000D03*
D11*
X102108000Y-55880000D03*
D12*
X112268000Y-55880000D03*
D11*
X114808000Y-52324000D03*
D12*
X114808000Y-42164000D03*
D11*
X134112000Y-52324000D03*
D12*
X134112000Y-42164000D03*
D11*
X153162000Y-52324000D03*
D12*
X153162000Y-42164000D03*
D11*
X172212000Y-52324000D03*
D12*
X172212000Y-42164000D03*
D11*
X191262000Y-52324000D03*
D12*
X191262000Y-42164000D03*
D11*
X210312000Y-52324000D03*
D12*
X210312000Y-42164000D03*
D11*
X240283480Y-55755540D03*
D12*
X250443480Y-55755540D03*
D11*
X264159480Y-55755540D03*
D12*
X274319480Y-55755540D03*
D11*
X283210000Y-55753000D03*
D12*
X293370000Y-55753000D03*
D11*
X300736000Y-55753000D03*
D12*
X310896000Y-55753000D03*
D11*
X32385000Y-74930000D03*
D12*
X42545000Y-74930000D03*
D11*
X48260000Y-71628000D03*
D12*
X48260000Y-61468000D03*
D11*
X73660000Y-58420000D03*
D12*
X83820000Y-58420000D03*
D11*
X86365080Y-71628520D03*
D12*
X86365080Y-61468520D03*
D11*
X105410000Y-71628000D03*
D12*
X105410000Y-61468000D03*
D11*
X124460000Y-71628000D03*
D12*
X124460000Y-61468000D03*
D11*
X143510000Y-71628000D03*
D12*
X143510000Y-61468000D03*
D11*
X162560000Y-71628000D03*
D12*
X162560000Y-61468000D03*
D11*
X181610000Y-71628000D03*
D12*
X181610000Y-61468000D03*
D11*
X200660000Y-71628000D03*
D12*
X200660000Y-61468000D03*
D11*
X219710000Y-71628000D03*
D12*
X219710000Y-61468000D03*
D11*
X238760000Y-71628000D03*
D12*
X238760000Y-61468000D03*
D11*
X257812540Y-71628000D03*
D12*
X257812540Y-61468000D03*
D11*
X276860000Y-71628000D03*
D12*
X276860000Y-61468000D03*
D11*
X295910000Y-71628000D03*
D12*
X295910000Y-61468000D03*
D11*
X32385000Y-77470000D03*
D12*
X42545000Y-77470000D03*
D11*
X48260000Y-90424000D03*
D12*
X48260000Y-80264000D03*
D11*
X85095080Y-90424520D03*
D12*
X85095080Y-80264520D03*
D11*
X92202000Y-77724000D03*
D12*
X102362000Y-77724000D03*
D11*
X105410000Y-90424000D03*
D12*
X105410000Y-80264000D03*
D13*
X304800000Y-85725000D03*
D14*
X307799547Y-89724954D02*
X308610453Y-88265046D01*
X302260276Y-90804328D02*
X302299724Y-90225672D01*
D13*
X285750000Y-85725000D03*
D14*
X288749547Y-89724954D02*
X289560453Y-88265046D01*
X283210276Y-90804328D02*
X283249724Y-90225672D01*
D13*
X266700000Y-85725000D03*
D14*
X269699547Y-89724954D02*
X270510453Y-88265046D01*
X264160276Y-90804328D02*
X264199724Y-90225672D01*
D13*
X247650000Y-85725000D03*
D14*
X250649547Y-89724954D02*
X251460453Y-88265046D01*
X245110276Y-90804328D02*
X245149724Y-90225672D01*
D13*
X228600000Y-85725000D03*
D14*
X231599547Y-89724954D02*
X232410453Y-88265046D01*
X226060276Y-90804328D02*
X226099724Y-90225672D01*
D13*
X209550000Y-85725000D03*
D14*
X212549547Y-89724954D02*
X213360453Y-88265046D01*
X207010276Y-90804328D02*
X207049724Y-90225672D01*
D13*
X190500000Y-85725000D03*
D14*
X193499547Y-89724954D02*
X194310453Y-88265046D01*
X187960276Y-90804328D02*
X187999724Y-90225672D01*
D13*
X161925000Y-85725000D03*
D14*
X164924547Y-89724954D02*
X165735453Y-88265046D01*
X159385276Y-90804328D02*
X159424724Y-90225672D01*
D13*
X123825000Y-85725000D03*
D14*
X126824547Y-89724954D02*
X127635453Y-88265046D01*
X121285276Y-90804328D02*
X121324724Y-90225672D01*
D13*
X95250000Y-85725000D03*
D14*
X98249547Y-89724954D02*
X99060453Y-88265046D01*
X92710276Y-90804328D02*
X92749724Y-90225672D01*
D13*
X76200000Y-85725000D03*
D14*
X79199547Y-89724954D02*
X80010453Y-88265046D01*
X73660276Y-90804328D02*
X73699724Y-90225672D01*
D13*
X57150000Y-85725000D03*
D14*
X60149547Y-89724954D02*
X60960453Y-88265046D01*
X54610276Y-90804328D02*
X54649724Y-90225672D01*
D13*
X38100000Y-85725000D03*
D14*
X41099547Y-89724954D02*
X41910453Y-88265046D01*
X35560276Y-90804328D02*
X35599724Y-90225672D01*
D13*
X304800000Y-66675000D03*
D14*
X307799547Y-70674954D02*
X308610453Y-69215046D01*
X302260276Y-71754328D02*
X302299724Y-71175672D01*
D13*
X285750000Y-66675000D03*
D14*
X288749547Y-70674954D02*
X289560453Y-69215046D01*
X283210276Y-71754328D02*
X283249724Y-71175672D01*
D13*
X266700000Y-66675000D03*
D14*
X269699547Y-70674954D02*
X270510453Y-69215046D01*
X264160276Y-71754328D02*
X264199724Y-71175672D01*
D13*
X247650000Y-66675000D03*
D14*
X250649547Y-70674954D02*
X251460453Y-69215046D01*
X245110276Y-71754328D02*
X245149724Y-71175672D01*
D13*
X228600000Y-66675000D03*
D14*
X231599547Y-70674954D02*
X232410453Y-69215046D01*
X226060276Y-71754328D02*
X226099724Y-71175672D01*
D13*
X209550000Y-66675000D03*
D14*
X212549547Y-70674954D02*
X213360453Y-69215046D01*
X207010276Y-71754328D02*
X207049724Y-71175672D01*
D13*
X190500000Y-66675000D03*
D14*
X193499547Y-70674954D02*
X194310453Y-69215046D01*
X187960276Y-71754328D02*
X187999724Y-71175672D01*
D13*
X171450000Y-66675000D03*
D14*
X174449547Y-70674954D02*
X175260453Y-69215046D01*
X168910276Y-71754328D02*
X168949724Y-71175672D01*
D13*
X152400000Y-66675000D03*
D14*
X155399547Y-70674954D02*
X156210453Y-69215046D01*
X149860276Y-71754328D02*
X149899724Y-71175672D01*
D13*
X133350000Y-66675000D03*
D14*
X136349547Y-70674954D02*
X137160453Y-69215046D01*
X130810276Y-71754328D02*
X130849724Y-71175672D01*
D13*
X114300000Y-66675000D03*
D14*
X117299547Y-70674954D02*
X118110453Y-69215046D01*
X111760276Y-71754328D02*
X111799724Y-71175672D01*
D13*
X95250000Y-66675000D03*
D14*
X98249547Y-70674954D02*
X99060453Y-69215046D01*
X92710276Y-71754328D02*
X92749724Y-71175672D01*
D13*
X76200000Y-66675000D03*
D14*
X79199547Y-70674954D02*
X80010453Y-69215046D01*
X73660276Y-71754328D02*
X73699724Y-71175672D01*
D13*
X57150000Y-66675000D03*
D14*
X60149547Y-70674954D02*
X60960453Y-69215046D01*
X54610276Y-71754328D02*
X54649724Y-71175672D01*
D13*
X38100000Y-66675000D03*
D14*
X41099547Y-70674954D02*
X41910453Y-69215046D01*
X35560276Y-71754328D02*
X35599724Y-71175672D01*
D13*
X304800000Y-47625000D03*
D14*
X307799547Y-51624954D02*
X308610453Y-50165046D01*
X302260276Y-52704328D02*
X302299724Y-52125672D01*
D13*
X285750000Y-47625000D03*
D14*
X288749547Y-51624954D02*
X289560453Y-50165046D01*
X283210276Y-52704328D02*
X283249724Y-52125672D01*
D13*
X266700000Y-47625000D03*
D14*
X269699547Y-51624954D02*
X270510453Y-50165046D01*
X264160276Y-52704328D02*
X264199724Y-52125672D01*
D13*
X242887500Y-47625000D03*
D14*
X245887047Y-51624954D02*
X246697953Y-50165046D01*
X240347776Y-52704328D02*
X240387224Y-52125672D01*
D13*
X219075000Y-47625000D03*
D14*
X222074547Y-51624954D02*
X222885453Y-50165046D01*
X216535276Y-52704328D02*
X216574724Y-52125672D01*
D13*
X200025000Y-47625000D03*
D14*
X203024547Y-51624954D02*
X203835453Y-50165046D01*
X197485276Y-52704328D02*
X197524724Y-52125672D01*
D13*
X180975000Y-47625000D03*
D14*
X183974547Y-51624954D02*
X184785453Y-50165046D01*
X178435276Y-52704328D02*
X178474724Y-52125672D01*
D13*
X161925000Y-47625000D03*
D14*
X164924547Y-51624954D02*
X165735453Y-50165046D01*
X159385276Y-52704328D02*
X159424724Y-52125672D01*
D13*
X142875000Y-47625000D03*
D14*
X145874547Y-51624954D02*
X146685453Y-50165046D01*
X140335276Y-52704328D02*
X140374724Y-52125672D01*
D13*
X123825000Y-47625000D03*
D14*
X126824547Y-51624954D02*
X127635453Y-50165046D01*
X121285276Y-52704328D02*
X121324724Y-52125672D01*
D13*
X104775000Y-47625000D03*
D14*
X107774547Y-51624954D02*
X108585453Y-50165046D01*
X102235276Y-52704328D02*
X102274724Y-52125672D01*
D13*
X85725000Y-47625000D03*
D14*
X88724547Y-51624954D02*
X89535453Y-50165046D01*
X83185276Y-52704328D02*
X83224724Y-52125672D01*
D13*
X66675000Y-47625000D03*
D14*
X69674547Y-51624954D02*
X70485453Y-50165046D01*
X64135276Y-52704328D02*
X64174724Y-52125672D01*
D13*
X42862500Y-47625000D03*
D14*
X45862047Y-51624954D02*
X46672953Y-50165046D01*
X40322776Y-52704328D02*
X40362224Y-52125672D01*
D13*
X304800000Y-28575000D03*
D14*
X307799547Y-32574954D02*
X308610453Y-31115046D01*
X302260276Y-33654328D02*
X302299724Y-33075672D01*
D13*
X285750000Y-28575000D03*
D14*
X288749547Y-32574954D02*
X289560453Y-31115046D01*
X283210276Y-33654328D02*
X283249724Y-33075672D01*
D13*
X266700000Y-28575000D03*
D14*
X269699547Y-32574954D02*
X270510453Y-31115046D01*
X264160276Y-33654328D02*
X264199724Y-33075672D01*
D13*
X247650000Y-28575000D03*
D14*
X250649547Y-32574954D02*
X251460453Y-31115046D01*
X245110276Y-33654328D02*
X245149724Y-33075672D01*
D13*
X228600000Y-28575000D03*
D14*
X231599547Y-32574954D02*
X232410453Y-31115046D01*
X226060276Y-33654328D02*
X226099724Y-33075672D01*
D13*
X209550000Y-28575000D03*
D14*
X212549547Y-32574954D02*
X213360453Y-31115046D01*
X207010276Y-33654328D02*
X207049724Y-33075672D01*
D13*
X190500000Y-28575000D03*
D14*
X193499547Y-32574954D02*
X194310453Y-31115046D01*
X187960276Y-33654328D02*
X187999724Y-33075672D01*
D13*
X171450000Y-28575000D03*
D14*
X174449547Y-32574954D02*
X175260453Y-31115046D01*
X168910276Y-33654328D02*
X168949724Y-33075672D01*
D13*
X152400000Y-28575000D03*
D14*
X155399547Y-32574954D02*
X156210453Y-31115046D01*
X149860276Y-33654328D02*
X149899724Y-33075672D01*
D13*
X133350000Y-28575000D03*
D14*
X136349547Y-32574954D02*
X137160453Y-31115046D01*
X130810276Y-33654328D02*
X130849724Y-33075672D01*
D13*
X114300000Y-28575000D03*
D14*
X117299547Y-32574954D02*
X118110453Y-31115046D01*
X111760276Y-33654328D02*
X111799724Y-33075672D01*
D13*
X95250000Y-28575000D03*
D14*
X98249547Y-32574954D02*
X99060453Y-31115046D01*
X92710276Y-33654328D02*
X92749724Y-33075672D01*
D13*
X76200000Y-28575000D03*
D14*
X79199547Y-32574954D02*
X80010453Y-31115046D01*
X73660276Y-33654328D02*
X73699724Y-33075672D01*
D13*
X57150000Y-28575000D03*
D14*
X60149547Y-32574954D02*
X60960453Y-31115046D01*
X54610276Y-33654328D02*
X54649724Y-33075672D01*
D13*
X38100000Y-28575000D03*
D14*
X41099547Y-32574954D02*
X41910453Y-31115046D01*
X35560276Y-33654328D02*
X35599724Y-33075672D01*
D13*
X219075000Y-85725000D03*
D14*
X222074547Y-89724954D02*
X222885453Y-88265046D01*
X216535276Y-90804328D02*
X216574724Y-90225672D01*
D13*
X180975000Y-85725000D03*
D14*
X183974547Y-89724954D02*
X184785453Y-88265046D01*
X178435276Y-90804328D02*
X178474724Y-90225672D01*
D13*
X38100000Y-47625000D03*
D14*
X41099547Y-51624954D02*
X41910453Y-50165046D01*
X35560276Y-52704328D02*
X35599724Y-52125672D01*
D13*
X57150000Y-47625000D03*
D14*
X60149547Y-51624954D02*
X60960453Y-50165046D01*
X54610276Y-52704328D02*
X54649724Y-52125672D01*
D13*
X76200000Y-47625000D03*
D14*
X79199547Y-51624954D02*
X80010453Y-50165046D01*
X73660276Y-52704328D02*
X73699724Y-52125672D01*
D13*
X300037500Y-47625000D03*
D14*
X303037047Y-51624954D02*
X303847953Y-50165046D01*
X297497776Y-52704328D02*
X297537224Y-52125672D01*
D13*
X238125000Y-47625000D03*
D14*
X241124547Y-51624954D02*
X241935453Y-50165046D01*
X235585276Y-52704328D02*
X235624724Y-52125672D01*
D13*
X276225000Y-47625000D03*
D14*
X279224547Y-51624954D02*
X280035453Y-50165046D01*
X273685276Y-52704328D02*
X273724724Y-52125672D01*
D13*
X257175000Y-47625000D03*
D14*
X260174547Y-51624954D02*
X260985453Y-50165046D01*
X254635276Y-52704328D02*
X254674724Y-52125672D01*
D13*
X133350000Y-85725000D03*
D14*
X136349547Y-89724954D02*
X137160453Y-88265046D01*
X130810276Y-90804328D02*
X130849724Y-90225672D01*
D13*
X152400000Y-85725000D03*
D14*
X155399547Y-89724954D02*
X156210453Y-88265046D01*
X149860276Y-90804328D02*
X149899724Y-90225672D01*
D13*
X114300000Y-85725000D03*
D14*
X117299547Y-89724954D02*
X118110453Y-88265046D01*
X111760276Y-90804328D02*
X111799724Y-90225672D01*
D13*
X100012500Y-47625000D03*
D14*
X103012047Y-51624954D02*
X103822953Y-50165046D01*
X97472776Y-52704328D02*
X97512224Y-52125672D01*
D11*
X124968000Y-74295000D03*
D12*
X135128000Y-74295000D03*
D11*
X151892000Y-74295000D03*
D12*
X162052000Y-74295000D03*
D11*
X180340000Y-74295000D03*
D12*
X190500000Y-74295000D03*
D11*
X200660000Y-90424000D03*
D12*
X200660000Y-80264000D03*
D11*
X228600000Y-74295000D03*
D12*
X238760000Y-74295000D03*
D11*
X238760000Y-90424000D03*
D12*
X238760000Y-80264000D03*
D11*
X257810000Y-90424000D03*
D12*
X257810000Y-80264000D03*
D11*
X276860000Y-90424000D03*
D12*
X276860000Y-80264000D03*
D11*
X295910000Y-90424000D03*
D12*
X295910000Y-80264000D03*
D15*
X43647360Y-23710900D03*
X48046640Y-23710900D03*
D16*
X32460000Y-20500000D03*
D17*
X35000000Y-20500000D03*
X37540000Y-20500000D03*
D16*
X105840000Y-20500000D03*
D17*
X108380000Y-20500000D03*
X110920000Y-20500000D03*
X113460000Y-20500000D03*
X116000000Y-20500000D03*
X118540000Y-20500000D03*
X121080000Y-20500000D03*
X123620000Y-20500000D03*
X126160000Y-20500000D03*
X128700000Y-20500000D03*
X131240000Y-20500000D03*
X133780000Y-20500000D03*
X136320000Y-20500000D03*
X138860000Y-20500000D03*
X141400000Y-20500000D03*
D16*
X162670000Y-20500000D03*
D17*
X165210000Y-20500000D03*
X167750000Y-20500000D03*
X170290000Y-20500000D03*
M02*
