G04 #@! TF.FileFunction,Copper,L2,Bot,Signal*
%FSLAX46Y46*%
G04 Gerber Fmt 4.6, Leading zero omitted, Abs format (unit mm)*
G04 Created by KiCad (PCBNEW 4.0.2-stable) date Sunday, June 05, 2016 'AMt' 11:31:22 AM*
%MOMM*%
G01*
G04 APERTURE LIST*
%ADD10C,0.150000*%
%ADD11C,1.699260*%
%ADD12R,1.699260X1.699260*%
%ADD13C,3.987810*%
%ADD14C,1.701810*%
%ADD15C,2.500000*%
%ADD16R,2.000000X2.000000*%
%ADD17C,2.000000*%
%ADD18O,1.600000X2.300000*%
%ADD19C,0.609600*%
%ADD20C,0.381000*%
G04 APERTURE END LIST*
D10*
D11*
X286277540Y-119460520D03*
D12*
X286277540Y-109300520D03*
D11*
X419627540Y-138510520D03*
D12*
X419627540Y-128350520D03*
D13*
X428625000Y-133350000D03*
D14*
X433705000Y-133350000D03*
X423545000Y-133350000D03*
D15*
X431624547Y-137349954D02*
X432435453Y-135890046D01*
X426085276Y-138429328D02*
X426124724Y-137850672D01*
D16*
X429895000Y-128270000D03*
D17*
X427355000Y-128270000D03*
D11*
X400577540Y-138510520D03*
D12*
X400577540Y-128350520D03*
D13*
X409575000Y-133350000D03*
D14*
X414655000Y-133350000D03*
X404495000Y-133350000D03*
D15*
X412574547Y-137349954D02*
X413385453Y-135890046D01*
X407035276Y-138429328D02*
X407074724Y-137850672D01*
D16*
X410845000Y-128270000D03*
D17*
X408305000Y-128270000D03*
D11*
X381527540Y-138510520D03*
D12*
X381527540Y-128350520D03*
D13*
X390525000Y-133350000D03*
D14*
X395605000Y-133350000D03*
X385445000Y-133350000D03*
D15*
X393524547Y-137349954D02*
X394335453Y-135890046D01*
X387985276Y-138429328D02*
X388024724Y-137850672D01*
D16*
X391795000Y-128270000D03*
D17*
X389255000Y-128270000D03*
D11*
X350571290Y-138510520D03*
D12*
X350571290Y-128350520D03*
D13*
X359568750Y-133350000D03*
D14*
X364648750Y-133350000D03*
X354488750Y-133350000D03*
D15*
X362568297Y-137349954D02*
X363379203Y-135890046D01*
X357029026Y-138429328D02*
X357068474Y-137850672D01*
D16*
X360838750Y-128270000D03*
D17*
X358298750Y-128270000D03*
D11*
X326758790Y-138510520D03*
D12*
X326758790Y-128350520D03*
D13*
X335756250Y-133350000D03*
D14*
X340836250Y-133350000D03*
X330676250Y-133350000D03*
D15*
X338755797Y-137349954D02*
X339566703Y-135890046D01*
X333216526Y-138429328D02*
X333255974Y-137850672D01*
D16*
X337026250Y-128270000D03*
D17*
X334486250Y-128270000D03*
D11*
X303000000Y-138510520D03*
D12*
X303000000Y-128350520D03*
D13*
X311943750Y-133350000D03*
D14*
X317023750Y-133350000D03*
X306863750Y-133350000D03*
D15*
X314943297Y-137349954D02*
X315754203Y-135890046D01*
X309404026Y-138429328D02*
X309443474Y-137850672D01*
D16*
X313213750Y-128270000D03*
D17*
X310673750Y-128270000D03*
D11*
X231508790Y-138510520D03*
D12*
X231508790Y-128350520D03*
D13*
X240506250Y-133350000D03*
D14*
X245586250Y-133350000D03*
X235426250Y-133350000D03*
D15*
X243505797Y-137349954D02*
X244316703Y-135890046D01*
X237966526Y-138429328D02*
X238005974Y-137850672D01*
D16*
X241776250Y-128270000D03*
D17*
X239236250Y-128270000D03*
D11*
X160071290Y-138510520D03*
D12*
X160071290Y-128350520D03*
D13*
X169068750Y-133350000D03*
D14*
X174148750Y-133350000D03*
X163988750Y-133350000D03*
D15*
X172068297Y-137349954D02*
X172879203Y-135890046D01*
X166529026Y-138429328D02*
X166568474Y-137850672D01*
D16*
X170338750Y-128270000D03*
D17*
X167798750Y-128270000D03*
D11*
X136258790Y-138510520D03*
D12*
X136258790Y-128350520D03*
D13*
X145256250Y-133350000D03*
D14*
X150336250Y-133350000D03*
X140176250Y-133350000D03*
D15*
X148255797Y-137349954D02*
X149066703Y-135890046D01*
X142716526Y-138429328D02*
X142755974Y-137850672D01*
D16*
X146526250Y-128270000D03*
D17*
X143986250Y-128270000D03*
D11*
X112446290Y-138510520D03*
D12*
X112446290Y-128350520D03*
D13*
X121443750Y-133350000D03*
D14*
X126523750Y-133350000D03*
X116363750Y-133350000D03*
D15*
X124443297Y-137349954D02*
X125254203Y-135890046D01*
X118904026Y-138429328D02*
X118943474Y-137850672D01*
D16*
X122713750Y-128270000D03*
D17*
X120173750Y-128270000D03*
D11*
X71000000Y-125000000D03*
D12*
X81160000Y-125000000D03*
D13*
X76200000Y-133350000D03*
D14*
X81280000Y-133350000D03*
X71120000Y-133350000D03*
D15*
X79199547Y-137349954D02*
X80010453Y-135890046D01*
X73660276Y-138429328D02*
X73699724Y-137850672D01*
D16*
X77470000Y-128270000D03*
D17*
X74930000Y-128270000D03*
D11*
X38627540Y-138510520D03*
D12*
X38627540Y-128350520D03*
D13*
X47625000Y-133350000D03*
D14*
X52705000Y-133350000D03*
X42545000Y-133350000D03*
D15*
X50624547Y-137349954D02*
X51435453Y-135890046D01*
X45085276Y-138429328D02*
X45124724Y-137850672D01*
D16*
X48895000Y-128270000D03*
D17*
X46355000Y-128270000D03*
D11*
X400577540Y-119460520D03*
D12*
X400577540Y-109300520D03*
D13*
X409575000Y-114300000D03*
D14*
X414655000Y-114300000D03*
X404495000Y-114300000D03*
D15*
X412574547Y-118299954D02*
X413385453Y-116840046D01*
X407035276Y-119379328D02*
X407074724Y-118800672D01*
D16*
X410845000Y-109220000D03*
D17*
X408305000Y-109220000D03*
D11*
X360096290Y-119460520D03*
D12*
X360096290Y-109300520D03*
D13*
X369093750Y-114300000D03*
D14*
X374173750Y-114300000D03*
X364013750Y-114300000D03*
D15*
X372093297Y-118299954D02*
X372904203Y-116840046D01*
X366554026Y-119379328D02*
X366593474Y-118800672D01*
D16*
X370363750Y-109220000D03*
D17*
X367823750Y-109220000D03*
D11*
X324377540Y-119460520D03*
D12*
X324377540Y-109300520D03*
D13*
X333375000Y-114300000D03*
D14*
X338455000Y-114300000D03*
X328295000Y-114300000D03*
D15*
X336374547Y-118299954D02*
X337185453Y-116840046D01*
X330835276Y-119379328D02*
X330874724Y-118800672D01*
D16*
X334645000Y-109220000D03*
D17*
X332105000Y-109220000D03*
D11*
X305327540Y-119460520D03*
D12*
X305327540Y-109300520D03*
D13*
X314325000Y-114300000D03*
D14*
X319405000Y-114300000D03*
X309245000Y-114300000D03*
D15*
X317324547Y-118299954D02*
X318135453Y-116840046D01*
X311785276Y-119379328D02*
X311824724Y-118800672D01*
D16*
X315595000Y-109220000D03*
D17*
X313055000Y-109220000D03*
D13*
X295275000Y-114300000D03*
D14*
X300355000Y-114300000D03*
X290195000Y-114300000D03*
D15*
X298274547Y-118299954D02*
X299085453Y-116840046D01*
X292735276Y-119379328D02*
X292774724Y-118800672D01*
D16*
X296545000Y-109220000D03*
D17*
X294005000Y-109220000D03*
D11*
X267227540Y-119460520D03*
D12*
X267227540Y-109300520D03*
D13*
X276225000Y-114300000D03*
D14*
X281305000Y-114300000D03*
X271145000Y-114300000D03*
D15*
X279224547Y-118299954D02*
X280035453Y-116840046D01*
X273685276Y-119379328D02*
X273724724Y-118800672D01*
D16*
X277495000Y-109220000D03*
D17*
X274955000Y-109220000D03*
D11*
X248177540Y-119460520D03*
D12*
X248177540Y-109300520D03*
D13*
X257175000Y-114300000D03*
D14*
X262255000Y-114300000D03*
X252095000Y-114300000D03*
D15*
X260174547Y-118299954D02*
X260985453Y-116840046D01*
X254635276Y-119379328D02*
X254674724Y-118800672D01*
D16*
X258445000Y-109220000D03*
D17*
X255905000Y-109220000D03*
D11*
X229127540Y-119460520D03*
D12*
X229127540Y-109300520D03*
D13*
X238125000Y-114300000D03*
D14*
X243205000Y-114300000D03*
X233045000Y-114300000D03*
D15*
X241124547Y-118299954D02*
X241935453Y-116840046D01*
X235585276Y-119379328D02*
X235624724Y-118800672D01*
D16*
X239395000Y-109220000D03*
D17*
X236855000Y-109220000D03*
D11*
X210077540Y-119460520D03*
D12*
X210077540Y-109300520D03*
D13*
X219075000Y-114300000D03*
D14*
X224155000Y-114300000D03*
X213995000Y-114300000D03*
D15*
X222074547Y-118299954D02*
X222885453Y-116840046D01*
X216535276Y-119379328D02*
X216574724Y-118800672D01*
D16*
X220345000Y-109220000D03*
D17*
X217805000Y-109220000D03*
D11*
X191027540Y-119460520D03*
D12*
X191027540Y-109300520D03*
D13*
X200025000Y-114300000D03*
D14*
X205105000Y-114300000D03*
X194945000Y-114300000D03*
D15*
X203024547Y-118299954D02*
X203835453Y-116840046D01*
X197485276Y-119379328D02*
X197524724Y-118800672D01*
D16*
X201295000Y-109220000D03*
D17*
X198755000Y-109220000D03*
D11*
X171977540Y-119460520D03*
D12*
X171977540Y-109300520D03*
D13*
X180975000Y-114300000D03*
D14*
X186055000Y-114300000D03*
X175895000Y-114300000D03*
D15*
X183974547Y-118299954D02*
X184785453Y-116840046D01*
X178435276Y-119379328D02*
X178474724Y-118800672D01*
D16*
X182245000Y-109220000D03*
D17*
X179705000Y-109220000D03*
D11*
X152927540Y-119460520D03*
D12*
X152927540Y-109300520D03*
D13*
X161925000Y-114300000D03*
D14*
X167005000Y-114300000D03*
X156845000Y-114300000D03*
D15*
X164924547Y-118299954D02*
X165735453Y-116840046D01*
X159385276Y-119379328D02*
X159424724Y-118800672D01*
D16*
X163195000Y-109220000D03*
D17*
X160655000Y-109220000D03*
D11*
X121971290Y-119460520D03*
D12*
X121971290Y-109300520D03*
D13*
X130968750Y-114300000D03*
D14*
X136048750Y-114300000D03*
X125888750Y-114300000D03*
D15*
X133968297Y-118299954D02*
X134779203Y-116840046D01*
X128429026Y-119379328D02*
X128468474Y-118800672D01*
D16*
X132238750Y-109220000D03*
D17*
X129698750Y-109220000D03*
D11*
X86252540Y-128985520D03*
D12*
X86252540Y-118825520D03*
D13*
X95250000Y-123825000D03*
D14*
X100330000Y-123825000D03*
X90170000Y-123825000D03*
D15*
X98249547Y-127824954D02*
X99060453Y-126365046D01*
X92710276Y-128904328D02*
X92749724Y-128325672D01*
D16*
X96520000Y-118745000D03*
D17*
X93980000Y-118745000D03*
D11*
X67202540Y-119460520D03*
D12*
X67202540Y-109300520D03*
D13*
X76200000Y-114300000D03*
D14*
X81280000Y-114300000D03*
X71120000Y-114300000D03*
D15*
X79199547Y-118299954D02*
X80010453Y-116840046D01*
X73660276Y-119379328D02*
X73699724Y-118800672D01*
D16*
X77470000Y-109220000D03*
D17*
X74930000Y-109220000D03*
D11*
X48152540Y-119460520D03*
D12*
X48152540Y-109300520D03*
D13*
X57150000Y-114300000D03*
D14*
X62230000Y-114300000D03*
X52070000Y-114300000D03*
D15*
X60149547Y-118299954D02*
X60960453Y-116840046D01*
X54610276Y-119379328D02*
X54649724Y-118800672D01*
D16*
X58420000Y-109220000D03*
D17*
X55880000Y-109220000D03*
D11*
X33655000Y-122555000D03*
D12*
X43815000Y-122555000D03*
D13*
X38100000Y-114300000D03*
D14*
X43180000Y-114300000D03*
X33020000Y-114300000D03*
D15*
X41099547Y-118299954D02*
X41910453Y-116840046D01*
X35560276Y-119379328D02*
X35599724Y-118800672D01*
D16*
X39370000Y-109220000D03*
D17*
X36830000Y-109220000D03*
D11*
X364858790Y-100410520D03*
D12*
X364858790Y-90250520D03*
D13*
X373856250Y-95250000D03*
D14*
X378936250Y-95250000D03*
X368776250Y-95250000D03*
D15*
X376855797Y-99249954D02*
X377666703Y-97790046D01*
X371316526Y-100329328D02*
X371355974Y-99750672D01*
D16*
X375126250Y-90170000D03*
D17*
X372586250Y-90170000D03*
D11*
X333902540Y-100410520D03*
D12*
X333902540Y-90250520D03*
D13*
X342900000Y-95250000D03*
D14*
X347980000Y-95250000D03*
X337820000Y-95250000D03*
D15*
X345899547Y-99249954D02*
X346710453Y-97790046D01*
X340360276Y-100329328D02*
X340399724Y-99750672D01*
D16*
X344170000Y-90170000D03*
D17*
X341630000Y-90170000D03*
D11*
X314852540Y-100410520D03*
D12*
X314852540Y-90250520D03*
D13*
X323850000Y-95250000D03*
D14*
X328930000Y-95250000D03*
X318770000Y-95250000D03*
D15*
X326849547Y-99249954D02*
X327660453Y-97790046D01*
X321310276Y-100329328D02*
X321349724Y-99750672D01*
D16*
X325120000Y-90170000D03*
D17*
X322580000Y-90170000D03*
D11*
X295802540Y-100410520D03*
D12*
X295802540Y-90250520D03*
D13*
X304800000Y-95250000D03*
D14*
X309880000Y-95250000D03*
X299720000Y-95250000D03*
D15*
X307799547Y-99249954D02*
X308610453Y-97790046D01*
X302260276Y-100329328D02*
X302299724Y-99750672D01*
D16*
X306070000Y-90170000D03*
D17*
X303530000Y-90170000D03*
D11*
X276752540Y-100410520D03*
D12*
X276752540Y-90250520D03*
D13*
X285750000Y-95250000D03*
D14*
X290830000Y-95250000D03*
X280670000Y-95250000D03*
D15*
X288749547Y-99249954D02*
X289560453Y-97790046D01*
X283210276Y-100329328D02*
X283249724Y-99750672D01*
D16*
X287020000Y-90170000D03*
D17*
X284480000Y-90170000D03*
D11*
X257702540Y-100410520D03*
D12*
X257702540Y-90250520D03*
D13*
X266700000Y-95250000D03*
D14*
X271780000Y-95250000D03*
X261620000Y-95250000D03*
D15*
X269699547Y-99249954D02*
X270510453Y-97790046D01*
X264160276Y-100329328D02*
X264199724Y-99750672D01*
D16*
X267970000Y-90170000D03*
D17*
X265430000Y-90170000D03*
D11*
X238652540Y-100410520D03*
D12*
X238652540Y-90250520D03*
D13*
X247650000Y-95250000D03*
D14*
X252730000Y-95250000D03*
X242570000Y-95250000D03*
D15*
X250649547Y-99249954D02*
X251460453Y-97790046D01*
X245110276Y-100329328D02*
X245149724Y-99750672D01*
D16*
X248920000Y-90170000D03*
D17*
X246380000Y-90170000D03*
D11*
X219602540Y-100410520D03*
D12*
X219602540Y-90250520D03*
D13*
X228600000Y-95250000D03*
D14*
X233680000Y-95250000D03*
X223520000Y-95250000D03*
D15*
X231599547Y-99249954D02*
X232410453Y-97790046D01*
X226060276Y-100329328D02*
X226099724Y-99750672D01*
D16*
X229870000Y-90170000D03*
D17*
X227330000Y-90170000D03*
D11*
X200552540Y-100410520D03*
D12*
X200552540Y-90250520D03*
D13*
X209550000Y-95250000D03*
D14*
X214630000Y-95250000D03*
X204470000Y-95250000D03*
D15*
X212549547Y-99249954D02*
X213360453Y-97790046D01*
X207010276Y-100329328D02*
X207049724Y-99750672D01*
D16*
X210820000Y-90170000D03*
D17*
X208280000Y-90170000D03*
D11*
X181502540Y-100410520D03*
D12*
X181502540Y-90250520D03*
D13*
X190500000Y-95250000D03*
D14*
X195580000Y-95250000D03*
X185420000Y-95250000D03*
D15*
X193499547Y-99249954D02*
X194310453Y-97790046D01*
X187960276Y-100329328D02*
X187999724Y-99750672D01*
D16*
X191770000Y-90170000D03*
D17*
X189230000Y-90170000D03*
D11*
X162452540Y-100410520D03*
D12*
X162452540Y-90250520D03*
D13*
X171450000Y-95250000D03*
D14*
X176530000Y-95250000D03*
X166370000Y-95250000D03*
D15*
X174449547Y-99249954D02*
X175260453Y-97790046D01*
X168910276Y-100329328D02*
X168949724Y-99750672D01*
D16*
X172720000Y-90170000D03*
D17*
X170180000Y-90170000D03*
D11*
X143402540Y-100410520D03*
D12*
X143402540Y-90250520D03*
D13*
X152400000Y-95250000D03*
D14*
X157480000Y-95250000D03*
X147320000Y-95250000D03*
D15*
X155399547Y-99249954D02*
X156210453Y-97790046D01*
X149860276Y-100329328D02*
X149899724Y-99750672D01*
D16*
X153670000Y-90170000D03*
D17*
X151130000Y-90170000D03*
D11*
X117208790Y-100410520D03*
D12*
X117208790Y-90250520D03*
D13*
X126206250Y-95250000D03*
D14*
X131286250Y-95250000D03*
X121126250Y-95250000D03*
D15*
X129205797Y-99249954D02*
X130016703Y-97790046D01*
X123666526Y-100329328D02*
X123705974Y-99750672D01*
D16*
X127476250Y-90170000D03*
D17*
X124936250Y-90170000D03*
D11*
X67202540Y-100410520D03*
D12*
X67202540Y-90250520D03*
D13*
X76200000Y-95250000D03*
D14*
X81280000Y-95250000D03*
X71120000Y-95250000D03*
D15*
X79199547Y-99249954D02*
X80010453Y-97790046D01*
X73660276Y-100329328D02*
X73699724Y-99750672D01*
D16*
X77470000Y-90170000D03*
D17*
X74930000Y-90170000D03*
D11*
X48152540Y-100410520D03*
D12*
X48152540Y-90250520D03*
D13*
X57150000Y-95250000D03*
D14*
X62230000Y-95250000D03*
X52070000Y-95250000D03*
D15*
X60149547Y-99249954D02*
X60960453Y-97790046D01*
X54610276Y-100329328D02*
X54649724Y-99750672D01*
D16*
X58420000Y-90170000D03*
D17*
X55880000Y-90170000D03*
D11*
X33020000Y-103505000D03*
D12*
X43180000Y-103505000D03*
D13*
X38100000Y-95250000D03*
D14*
X43180000Y-95250000D03*
X33020000Y-95250000D03*
D15*
X41099547Y-99249954D02*
X41910453Y-97790046D01*
X35560276Y-100329328D02*
X35599724Y-99750672D01*
D16*
X39370000Y-90170000D03*
D17*
X36830000Y-90170000D03*
D11*
X419627540Y-81360520D03*
D12*
X419627540Y-71200520D03*
D13*
X428625000Y-76200000D03*
D14*
X433705000Y-76200000D03*
X423545000Y-76200000D03*
D15*
X431624547Y-80199954D02*
X432435453Y-78740046D01*
X426085276Y-81279328D02*
X426124724Y-80700672D01*
D16*
X429895000Y-71120000D03*
D17*
X427355000Y-71120000D03*
D11*
X400577540Y-81360520D03*
D12*
X400577540Y-71200520D03*
D13*
X409575000Y-76200000D03*
D14*
X414655000Y-76200000D03*
X404495000Y-76200000D03*
D15*
X412574547Y-80199954D02*
X413385453Y-78740046D01*
X407035276Y-81279328D02*
X407074724Y-80700672D01*
D16*
X410845000Y-71120000D03*
D17*
X408305000Y-71120000D03*
D11*
X372002540Y-81360520D03*
D12*
X372002540Y-71200520D03*
D13*
X381000000Y-76200000D03*
D14*
X386080000Y-76200000D03*
X375920000Y-76200000D03*
D15*
X383999547Y-80199954D02*
X384810453Y-78740046D01*
X378460276Y-81279328D02*
X378499724Y-80700672D01*
D16*
X382270000Y-71120000D03*
D17*
X379730000Y-71120000D03*
D11*
X348190040Y-81360520D03*
D12*
X348190040Y-71200520D03*
D13*
X357187500Y-76200000D03*
D14*
X362267500Y-76200000D03*
X352107500Y-76200000D03*
D15*
X360187047Y-80199954D02*
X360997953Y-78740046D01*
X354647776Y-81279328D02*
X354687224Y-80700672D01*
D16*
X358457500Y-71120000D03*
D17*
X355917500Y-71120000D03*
D11*
X329140040Y-81360520D03*
D12*
X329140040Y-71200520D03*
D13*
X338137500Y-76200000D03*
D14*
X343217500Y-76200000D03*
X333057500Y-76200000D03*
D15*
X341137047Y-80199954D02*
X341947953Y-78740046D01*
X335597776Y-81279328D02*
X335637224Y-80700672D01*
D16*
X339407500Y-71120000D03*
D17*
X336867500Y-71120000D03*
D11*
X310090040Y-81360520D03*
D12*
X310090040Y-71200520D03*
D13*
X319087500Y-76200000D03*
D14*
X324167500Y-76200000D03*
X314007500Y-76200000D03*
D15*
X322087047Y-80199954D02*
X322897953Y-78740046D01*
X316547776Y-81279328D02*
X316587224Y-80700672D01*
D16*
X320357500Y-71120000D03*
D17*
X317817500Y-71120000D03*
D11*
X291040040Y-81360520D03*
D12*
X291040040Y-71200520D03*
D13*
X300037500Y-76200000D03*
D14*
X305117500Y-76200000D03*
X294957500Y-76200000D03*
D15*
X303037047Y-80199954D02*
X303847953Y-78740046D01*
X297497776Y-81279328D02*
X297537224Y-80700672D01*
D16*
X301307500Y-71120000D03*
D17*
X298767500Y-71120000D03*
D11*
X271990040Y-81360520D03*
D12*
X271990040Y-71200520D03*
D13*
X280987500Y-76200000D03*
D14*
X286067500Y-76200000D03*
X275907500Y-76200000D03*
D15*
X283987047Y-80199954D02*
X284797953Y-78740046D01*
X278447776Y-81279328D02*
X278487224Y-80700672D01*
D16*
X282257500Y-71120000D03*
D17*
X279717500Y-71120000D03*
D11*
X252940040Y-81360520D03*
D12*
X252940040Y-71200520D03*
D13*
X261937500Y-76200000D03*
D14*
X267017500Y-76200000D03*
X256857500Y-76200000D03*
D15*
X264937047Y-80199954D02*
X265747953Y-78740046D01*
X259397776Y-81279328D02*
X259437224Y-80700672D01*
D16*
X263207500Y-71120000D03*
D17*
X260667500Y-71120000D03*
D11*
X233890040Y-81360520D03*
D12*
X233890040Y-71200520D03*
D13*
X242887500Y-76200000D03*
D14*
X247967500Y-76200000D03*
X237807500Y-76200000D03*
D15*
X245887047Y-80199954D02*
X246697953Y-78740046D01*
X240347776Y-81279328D02*
X240387224Y-80700672D01*
D16*
X244157500Y-71120000D03*
D17*
X241617500Y-71120000D03*
D11*
X214840040Y-81360520D03*
D12*
X214840040Y-71200520D03*
D13*
X223837500Y-76200000D03*
D14*
X228917500Y-76200000D03*
X218757500Y-76200000D03*
D15*
X226837047Y-80199954D02*
X227647953Y-78740046D01*
X221297776Y-81279328D02*
X221337224Y-80700672D01*
D16*
X225107500Y-71120000D03*
D17*
X222567500Y-71120000D03*
D11*
X195790040Y-81360520D03*
D12*
X195790040Y-71200520D03*
D13*
X204787500Y-76200000D03*
D14*
X209867500Y-76200000D03*
X199707500Y-76200000D03*
D15*
X207787047Y-80199954D02*
X208597953Y-78740046D01*
X202247776Y-81279328D02*
X202287224Y-80700672D01*
D16*
X206057500Y-71120000D03*
D17*
X203517500Y-71120000D03*
D11*
X176740040Y-81360520D03*
D12*
X176740040Y-71200520D03*
D13*
X185737500Y-76200000D03*
D14*
X190817500Y-76200000D03*
X180657500Y-76200000D03*
D15*
X188737047Y-80199954D02*
X189547953Y-78740046D01*
X183197776Y-81279328D02*
X183237224Y-80700672D01*
D16*
X187007500Y-71120000D03*
D17*
X184467500Y-71120000D03*
D11*
X157690040Y-81360520D03*
D12*
X157690040Y-71200520D03*
D13*
X166687500Y-76200000D03*
D14*
X171767500Y-76200000D03*
X161607500Y-76200000D03*
D15*
X169687047Y-80199954D02*
X170497953Y-78740046D01*
X164147776Y-81279328D02*
X164187224Y-80700672D01*
D16*
X167957500Y-71120000D03*
D17*
X165417500Y-71120000D03*
D11*
X138640040Y-81360520D03*
D12*
X138640040Y-71200520D03*
D13*
X147637500Y-76200000D03*
D14*
X152717500Y-76200000D03*
X142557500Y-76200000D03*
D15*
X150637047Y-80199954D02*
X151447953Y-78740046D01*
X145097776Y-81279328D02*
X145137224Y-80700672D01*
D16*
X148907500Y-71120000D03*
D17*
X146367500Y-71120000D03*
D11*
X114827540Y-81360520D03*
D12*
X114827540Y-71200520D03*
D13*
X123825000Y-76200000D03*
D14*
X128905000Y-76200000D03*
X118745000Y-76200000D03*
D15*
X126824547Y-80199954D02*
X127635453Y-78740046D01*
X121285276Y-81279328D02*
X121324724Y-80700672D01*
D16*
X125095000Y-71120000D03*
D17*
X122555000Y-71120000D03*
D11*
X86252540Y-90885520D03*
D12*
X86252540Y-80725520D03*
D13*
X95250000Y-85725000D03*
D14*
X100330000Y-85725000D03*
X90170000Y-85725000D03*
D15*
X98249547Y-89724954D02*
X99060453Y-88265046D01*
X92710276Y-90804328D02*
X92749724Y-90225672D01*
D16*
X96520000Y-80645000D03*
D17*
X93980000Y-80645000D03*
D11*
X67202540Y-81360520D03*
D12*
X67202540Y-71200520D03*
D13*
X76200000Y-76200000D03*
D14*
X81280000Y-76200000D03*
X71120000Y-76200000D03*
D15*
X79199547Y-80199954D02*
X80010453Y-78740046D01*
X73660276Y-81279328D02*
X73699724Y-80700672D01*
D16*
X77470000Y-71120000D03*
D17*
X74930000Y-71120000D03*
D11*
X48152540Y-81360520D03*
D12*
X48152540Y-71200520D03*
D13*
X57150000Y-76200000D03*
D14*
X62230000Y-76200000D03*
X52070000Y-76200000D03*
D15*
X60149547Y-80199954D02*
X60960453Y-78740046D01*
X54610276Y-81279328D02*
X54649724Y-80700672D01*
D16*
X58420000Y-71120000D03*
D17*
X55880000Y-71120000D03*
D11*
X33020000Y-84455000D03*
D12*
X43180000Y-84455000D03*
D13*
X38100000Y-76200000D03*
D14*
X43180000Y-76200000D03*
X33020000Y-76200000D03*
D15*
X41099547Y-80199954D02*
X41910453Y-78740046D01*
X35560276Y-81279328D02*
X35599724Y-80700672D01*
D16*
X39370000Y-71120000D03*
D17*
X36830000Y-71120000D03*
D11*
X419627540Y-62310520D03*
D12*
X419627540Y-52150520D03*
D13*
X428625000Y-57150000D03*
D14*
X433705000Y-57150000D03*
X423545000Y-57150000D03*
D15*
X431624547Y-61149954D02*
X432435453Y-59690046D01*
X426085276Y-62229328D02*
X426124724Y-61650672D01*
D16*
X429895000Y-52070000D03*
D17*
X427355000Y-52070000D03*
D11*
X400577540Y-62310520D03*
D12*
X400577540Y-52150520D03*
D13*
X409575000Y-57150000D03*
D14*
X414655000Y-57150000D03*
X404495000Y-57150000D03*
D15*
X412574547Y-61149954D02*
X413385453Y-59690046D01*
X407035276Y-62229328D02*
X407074724Y-61650672D01*
D16*
X410845000Y-52070000D03*
D17*
X408305000Y-52070000D03*
D11*
X367240040Y-62310520D03*
D12*
X367240040Y-52150520D03*
D13*
X376237500Y-57150000D03*
D14*
X381317500Y-57150000D03*
X371157500Y-57150000D03*
D15*
X379237047Y-61149954D02*
X380047953Y-59690046D01*
X373697776Y-62229328D02*
X373737224Y-61650672D01*
D16*
X377507500Y-52070000D03*
D17*
X374967500Y-52070000D03*
D11*
X338665040Y-62310520D03*
D12*
X338665040Y-52150520D03*
D13*
X347662500Y-57150000D03*
D14*
X352742500Y-57150000D03*
X342582500Y-57150000D03*
D15*
X350662047Y-61149954D02*
X351472953Y-59690046D01*
X345122776Y-62229328D02*
X345162224Y-61650672D01*
D16*
X348932500Y-52070000D03*
D17*
X346392500Y-52070000D03*
D11*
X319615040Y-62310520D03*
D12*
X319615040Y-52150520D03*
D13*
X328612500Y-57150000D03*
D14*
X333692500Y-57150000D03*
X323532500Y-57150000D03*
D15*
X331612047Y-61149954D02*
X332422953Y-59690046D01*
X326072776Y-62229328D02*
X326112224Y-61650672D01*
D16*
X329882500Y-52070000D03*
D17*
X327342500Y-52070000D03*
D11*
X300565040Y-62310520D03*
D12*
X300565040Y-52150520D03*
D13*
X309562500Y-57150000D03*
D14*
X314642500Y-57150000D03*
X304482500Y-57150000D03*
D15*
X312562047Y-61149954D02*
X313372953Y-59690046D01*
X307022776Y-62229328D02*
X307062224Y-61650672D01*
D16*
X310832500Y-52070000D03*
D17*
X308292500Y-52070000D03*
D11*
X281515040Y-62310520D03*
D12*
X281515040Y-52150520D03*
D13*
X290512500Y-57150000D03*
D14*
X295592500Y-57150000D03*
X285432500Y-57150000D03*
D15*
X293512047Y-61149954D02*
X294322953Y-59690046D01*
X287972776Y-62229328D02*
X288012224Y-61650672D01*
D16*
X291782500Y-52070000D03*
D17*
X289242500Y-52070000D03*
D11*
X262465040Y-62310520D03*
D12*
X262465040Y-52150520D03*
D13*
X271462500Y-57150000D03*
D14*
X276542500Y-57150000D03*
X266382500Y-57150000D03*
D15*
X274462047Y-61149954D02*
X275272953Y-59690046D01*
X268922776Y-62229328D02*
X268962224Y-61650672D01*
D16*
X272732500Y-52070000D03*
D17*
X270192500Y-52070000D03*
D11*
X243415040Y-62310520D03*
D12*
X243415040Y-52150520D03*
D13*
X252412500Y-57150000D03*
D14*
X257492500Y-57150000D03*
X247332500Y-57150000D03*
D15*
X255412047Y-61149954D02*
X256222953Y-59690046D01*
X249872776Y-62229328D02*
X249912224Y-61650672D01*
D16*
X253682500Y-52070000D03*
D17*
X251142500Y-52070000D03*
D11*
X224365040Y-62310520D03*
D12*
X224365040Y-52150520D03*
D13*
X233362500Y-57150000D03*
D14*
X238442500Y-57150000D03*
X228282500Y-57150000D03*
D15*
X236362047Y-61149954D02*
X237172953Y-59690046D01*
X230822776Y-62229328D02*
X230862224Y-61650672D01*
D16*
X234632500Y-52070000D03*
D17*
X232092500Y-52070000D03*
D11*
X205315040Y-62310520D03*
D12*
X205315040Y-52150520D03*
D13*
X214312500Y-57150000D03*
D14*
X219392500Y-57150000D03*
X209232500Y-57150000D03*
D15*
X217312047Y-61149954D02*
X218122953Y-59690046D01*
X211772776Y-62229328D02*
X211812224Y-61650672D01*
D16*
X215582500Y-52070000D03*
D17*
X213042500Y-52070000D03*
D11*
X186265040Y-62310520D03*
D12*
X186265040Y-52150520D03*
D13*
X195262500Y-57150000D03*
D14*
X200342500Y-57150000D03*
X190182500Y-57150000D03*
D15*
X198262047Y-61149954D02*
X199072953Y-59690046D01*
X192722776Y-62229328D02*
X192762224Y-61650672D01*
D16*
X196532500Y-52070000D03*
D17*
X193992500Y-52070000D03*
D11*
X167215040Y-62310520D03*
D12*
X167215040Y-52150520D03*
D13*
X176212500Y-57150000D03*
D14*
X181292500Y-57150000D03*
X171132500Y-57150000D03*
D15*
X179212047Y-61149954D02*
X180022953Y-59690046D01*
X173672776Y-62229328D02*
X173712224Y-61650672D01*
D16*
X177482500Y-52070000D03*
D17*
X174942500Y-52070000D03*
D11*
X148165040Y-62310520D03*
D12*
X148165040Y-52150520D03*
D13*
X157162500Y-57150000D03*
D14*
X162242500Y-57150000D03*
X152082500Y-57150000D03*
D15*
X160162047Y-61149954D02*
X160972953Y-59690046D01*
X154622776Y-62229328D02*
X154662224Y-61650672D01*
D16*
X158432500Y-52070000D03*
D17*
X155892500Y-52070000D03*
D11*
X129115040Y-62310520D03*
D12*
X129115040Y-52150520D03*
D13*
X138112500Y-57150000D03*
D14*
X143192500Y-57150000D03*
X133032500Y-57150000D03*
D15*
X141112047Y-61149954D02*
X141922953Y-59690046D01*
X135572776Y-62229328D02*
X135612224Y-61650672D01*
D16*
X139382500Y-52070000D03*
D17*
X136842500Y-52070000D03*
D11*
X110065040Y-62310520D03*
D12*
X110065040Y-52150520D03*
D13*
X119062500Y-57150000D03*
D14*
X124142500Y-57150000D03*
X113982500Y-57150000D03*
D15*
X122062047Y-61149954D02*
X122872953Y-59690046D01*
X116522776Y-62229328D02*
X116562224Y-61650672D01*
D16*
X120332500Y-52070000D03*
D17*
X117792500Y-52070000D03*
D11*
X86252540Y-62310520D03*
D12*
X86252540Y-52150520D03*
D13*
X95250000Y-57150000D03*
D14*
X100330000Y-57150000D03*
X90170000Y-57150000D03*
D15*
X98249547Y-61149954D02*
X99060453Y-59690046D01*
X92710276Y-62229328D02*
X92749724Y-61650672D01*
D16*
X96520000Y-52070000D03*
D17*
X93980000Y-52070000D03*
D11*
X67202540Y-62310520D03*
D12*
X67202540Y-52150520D03*
D13*
X76200000Y-57150000D03*
D14*
X81280000Y-57150000D03*
X71120000Y-57150000D03*
D15*
X79199547Y-61149954D02*
X80010453Y-59690046D01*
X73660276Y-62229328D02*
X73699724Y-61650672D01*
D16*
X77470000Y-52070000D03*
D17*
X74930000Y-52070000D03*
D11*
X48152540Y-62310520D03*
D12*
X48152540Y-52150520D03*
D13*
X57150000Y-57150000D03*
D14*
X62230000Y-57150000D03*
X52070000Y-57150000D03*
D15*
X60149547Y-61149954D02*
X60960453Y-59690046D01*
X54610276Y-62229328D02*
X54649724Y-61650672D01*
D16*
X58420000Y-52070000D03*
D17*
X55880000Y-52070000D03*
D11*
X33020000Y-65405000D03*
D12*
X43180000Y-65405000D03*
D13*
X38100000Y-57150000D03*
D14*
X43180000Y-57150000D03*
X33020000Y-57150000D03*
D15*
X41099547Y-61149954D02*
X41910453Y-59690046D01*
X35560276Y-62229328D02*
X35599724Y-61650672D01*
D16*
X39370000Y-52070000D03*
D17*
X36830000Y-52070000D03*
D11*
X419627540Y-33735520D03*
D12*
X419627540Y-23575520D03*
D13*
X428625000Y-28575000D03*
D14*
X433705000Y-28575000D03*
X423545000Y-28575000D03*
D15*
X431624547Y-32574954D02*
X432435453Y-31115046D01*
X426085276Y-33654328D02*
X426124724Y-33075672D01*
D16*
X429895000Y-23495000D03*
D17*
X427355000Y-23495000D03*
D11*
X400577540Y-33735520D03*
D12*
X400577540Y-23575520D03*
D13*
X409575000Y-28575000D03*
D14*
X414655000Y-28575000D03*
X404495000Y-28575000D03*
D15*
X412574547Y-32574954D02*
X413385453Y-31115046D01*
X407035276Y-33654328D02*
X407074724Y-33075672D01*
D16*
X410845000Y-23495000D03*
D17*
X408305000Y-23495000D03*
D11*
X376765040Y-33735520D03*
D12*
X376765040Y-23575520D03*
D13*
X385762500Y-28575000D03*
D14*
X390842500Y-28575000D03*
X380682500Y-28575000D03*
D15*
X388762047Y-32574954D02*
X389572953Y-31115046D01*
X383222776Y-33654328D02*
X383262224Y-33075672D01*
D16*
X387032500Y-23495000D03*
D17*
X384492500Y-23495000D03*
D11*
X357715040Y-33735520D03*
D12*
X357715040Y-23575520D03*
D13*
X366712500Y-28575000D03*
D14*
X371792500Y-28575000D03*
X361632500Y-28575000D03*
D15*
X369712047Y-32574954D02*
X370522953Y-31115046D01*
X364172776Y-33654328D02*
X364212224Y-33075672D01*
D16*
X367982500Y-23495000D03*
D17*
X365442500Y-23495000D03*
D11*
X338665040Y-33735520D03*
D12*
X338665040Y-23575520D03*
D13*
X347662500Y-28575000D03*
D14*
X352742500Y-28575000D03*
X342582500Y-28575000D03*
D15*
X350662047Y-32574954D02*
X351472953Y-31115046D01*
X345122776Y-33654328D02*
X345162224Y-33075672D01*
D16*
X348932500Y-23495000D03*
D17*
X346392500Y-23495000D03*
D11*
X319615040Y-33735520D03*
D12*
X319615040Y-23575520D03*
D13*
X328612500Y-28575000D03*
D14*
X333692500Y-28575000D03*
X323532500Y-28575000D03*
D15*
X331612047Y-32574954D02*
X332422953Y-31115046D01*
X326072776Y-33654328D02*
X326112224Y-33075672D01*
D16*
X329882500Y-23495000D03*
D17*
X327342500Y-23495000D03*
D11*
X291040040Y-33735520D03*
D12*
X291040040Y-23575520D03*
D13*
X300037500Y-28575000D03*
D14*
X305117500Y-28575000D03*
X294957500Y-28575000D03*
D15*
X303037047Y-32574954D02*
X303847953Y-31115046D01*
X297497776Y-33654328D02*
X297537224Y-33075672D01*
D16*
X301307500Y-23495000D03*
D17*
X298767500Y-23495000D03*
D11*
X271990040Y-33735520D03*
D12*
X271990040Y-23575520D03*
D13*
X280987500Y-28575000D03*
D14*
X286067500Y-28575000D03*
X275907500Y-28575000D03*
D15*
X283987047Y-32574954D02*
X284797953Y-31115046D01*
X278447776Y-33654328D02*
X278487224Y-33075672D01*
D16*
X282257500Y-23495000D03*
D17*
X279717500Y-23495000D03*
D11*
X252940040Y-33735520D03*
D12*
X252940040Y-23575520D03*
D13*
X261937500Y-28575000D03*
D14*
X267017500Y-28575000D03*
X256857500Y-28575000D03*
D15*
X264937047Y-32574954D02*
X265747953Y-31115046D01*
X259397776Y-33654328D02*
X259437224Y-33075672D01*
D16*
X263207500Y-23495000D03*
D17*
X260667500Y-23495000D03*
D11*
X233890040Y-33735520D03*
D12*
X233890040Y-23575520D03*
D13*
X242887500Y-28575000D03*
D14*
X247967500Y-28575000D03*
X237807500Y-28575000D03*
D15*
X245887047Y-32574954D02*
X246697953Y-31115046D01*
X240347776Y-33654328D02*
X240387224Y-33075672D01*
D16*
X244157500Y-23495000D03*
D17*
X241617500Y-23495000D03*
D11*
X205315040Y-33735520D03*
D12*
X205315040Y-23575520D03*
D13*
X214312500Y-28575000D03*
D14*
X219392500Y-28575000D03*
X209232500Y-28575000D03*
D15*
X217312047Y-32574954D02*
X218122953Y-31115046D01*
X211772776Y-33654328D02*
X211812224Y-33075672D01*
D16*
X215582500Y-23495000D03*
D17*
X213042500Y-23495000D03*
D11*
X186265040Y-33735520D03*
D12*
X186265040Y-23575520D03*
D13*
X195262500Y-28575000D03*
D14*
X200342500Y-28575000D03*
X190182500Y-28575000D03*
D15*
X198262047Y-32574954D02*
X199072953Y-31115046D01*
X192722776Y-33654328D02*
X192762224Y-33075672D01*
D16*
X196532500Y-23495000D03*
D17*
X193992500Y-23495000D03*
D11*
X167215040Y-33735520D03*
D12*
X167215040Y-23575520D03*
D13*
X176212500Y-28575000D03*
D14*
X181292500Y-28575000D03*
X171132500Y-28575000D03*
D15*
X179212047Y-32574954D02*
X180022953Y-31115046D01*
X173672776Y-33654328D02*
X173712224Y-33075672D01*
D16*
X177482500Y-23495000D03*
D17*
X174942500Y-23495000D03*
D11*
X148165040Y-33735520D03*
D12*
X148165040Y-23575520D03*
D13*
X157162500Y-28575000D03*
D14*
X162242500Y-28575000D03*
X152082500Y-28575000D03*
D15*
X160162047Y-32574954D02*
X160972953Y-31115046D01*
X154622776Y-33654328D02*
X154662224Y-33075672D01*
D16*
X158432500Y-23495000D03*
D17*
X155892500Y-23495000D03*
D11*
X110065040Y-33735520D03*
D12*
X110065040Y-23575520D03*
D13*
X119062500Y-28575000D03*
D14*
X124142500Y-28575000D03*
X113982500Y-28575000D03*
D15*
X122062047Y-32574954D02*
X122872953Y-31115046D01*
X116522776Y-33654328D02*
X116562224Y-33075672D01*
D16*
X120332500Y-23495000D03*
D17*
X117792500Y-23495000D03*
D11*
X67202540Y-33735520D03*
D12*
X67202540Y-23575520D03*
D13*
X76200000Y-28575000D03*
D14*
X81280000Y-28575000D03*
X71120000Y-28575000D03*
D15*
X79199547Y-32574954D02*
X80010453Y-31115046D01*
X73660276Y-33654328D02*
X73699724Y-33075672D01*
D16*
X77470000Y-23495000D03*
D17*
X74930000Y-23495000D03*
D11*
X48152540Y-33735520D03*
D12*
X48152540Y-23575520D03*
D13*
X57150000Y-28575000D03*
D14*
X62230000Y-28575000D03*
X52070000Y-28575000D03*
D15*
X60149547Y-32574954D02*
X60960453Y-31115046D01*
X54610276Y-33654328D02*
X54649724Y-33075672D01*
D16*
X58420000Y-23495000D03*
D17*
X55880000Y-23495000D03*
D11*
X33020000Y-36830000D03*
D12*
X43180000Y-36830000D03*
D13*
X38100000Y-28575000D03*
D14*
X43180000Y-28575000D03*
X33020000Y-28575000D03*
D15*
X41099547Y-32574954D02*
X41910453Y-31115046D01*
X35560276Y-33654328D02*
X35599724Y-33075672D01*
D16*
X39370000Y-23495000D03*
D17*
X36830000Y-23495000D03*
D18*
X396240000Y-102870000D03*
X398780000Y-102870000D03*
X401320000Y-102870000D03*
X403860000Y-102870000D03*
X406400000Y-102870000D03*
X408940000Y-102870000D03*
X411480000Y-102870000D03*
X414020000Y-102870000D03*
X416560000Y-102870000D03*
X419100000Y-102870000D03*
X421640000Y-102870000D03*
X424180000Y-102870000D03*
X426720000Y-102870000D03*
X429260000Y-102870000D03*
X429260000Y-87630000D03*
X426720000Y-87630000D03*
X424180000Y-87630000D03*
X421640000Y-87630000D03*
X419100000Y-87630000D03*
X416560000Y-87630000D03*
X414020000Y-87630000D03*
X411480000Y-87630000D03*
X408940000Y-87630000D03*
X406400000Y-87630000D03*
X403860000Y-87630000D03*
X401320000Y-87630000D03*
X398780000Y-87630000D03*
X396240000Y-87630000D03*
D19*
X392176000Y-25273000D03*
X69596000Y-122555000D03*
X401828000Y-91567000D03*
X400939000Y-73660000D03*
X306705000Y-105537000D03*
X222885000Y-140335000D03*
X247650000Y-140970000D03*
X187452000Y-68254500D03*
X425577000Y-68326000D03*
X203835000Y-134620000D03*
X377444000Y-116840000D03*
X260604000Y-141732000D03*
X280000000Y-135000000D03*
X298704000Y-129794000D03*
X420000000Y-124079000D03*
X396000000Y-106500000D03*
D20*
X35580000Y-33365000D02*
X33020000Y-35925000D01*
X33020000Y-35925000D02*
X33020000Y-36830000D01*
X403860000Y-102870000D02*
X403860000Y-102520000D01*
X403860000Y-102520000D02*
X392176000Y-90836000D01*
X392176000Y-90836000D02*
X392176000Y-25273000D01*
X43180000Y-36830000D02*
X43180000Y-35599370D01*
X43180000Y-35599370D02*
X48152540Y-30626830D01*
X48152540Y-30626830D02*
X48152540Y-24806150D01*
X48152540Y-24806150D02*
X48152540Y-23575520D01*
X408940000Y-87630000D02*
X408940000Y-87980000D01*
X408940000Y-87980000D02*
X417906290Y-96946290D01*
X417906290Y-96946290D02*
X417906290Y-125398640D01*
X417906290Y-125398640D02*
X419627540Y-127119890D01*
X419627540Y-127119890D02*
X419627540Y-128350520D01*
X408940000Y-87630000D02*
X408940000Y-86099000D01*
X408940000Y-86099000D02*
X401820871Y-78979871D01*
X401820871Y-78979871D02*
X401820871Y-54624481D01*
X401820871Y-54624481D02*
X400577540Y-53381150D01*
X400577540Y-53381150D02*
X400577540Y-52150520D01*
X419627540Y-52150520D02*
X419627540Y-50919890D01*
X419627540Y-50919890D02*
X418384209Y-49676559D01*
X418384209Y-49676559D02*
X418384209Y-26049481D01*
X418384209Y-26049481D02*
X419627540Y-24806150D01*
X419627540Y-24806150D02*
X419627540Y-23575520D01*
X400577540Y-52150520D02*
X400577540Y-50919890D01*
X400577540Y-50919890D02*
X399334209Y-49676559D01*
X399334209Y-49676559D02*
X399334209Y-26049481D01*
X399334209Y-26049481D02*
X400577540Y-24806150D01*
X400577540Y-24806150D02*
X400577540Y-23575520D01*
X35580000Y-61940000D02*
X33020000Y-64500000D01*
X33020000Y-64500000D02*
X33020000Y-65405000D01*
X367240040Y-52150520D02*
X367240040Y-53381150D01*
X367240040Y-53381150D02*
X368483371Y-54624481D01*
X368483371Y-54624481D02*
X368483371Y-65273429D01*
X368483371Y-65273429D02*
X373761000Y-70551058D01*
X373761000Y-70551058D02*
X373761000Y-80010000D01*
X373761000Y-80010000D02*
X391287000Y-97536000D01*
X391287000Y-97536000D02*
X396336000Y-97536000D01*
X396336000Y-97536000D02*
X401320000Y-102520000D01*
X401320000Y-102520000D02*
X401320000Y-102870000D01*
X43180000Y-65405000D02*
X43180000Y-64174370D01*
X43180000Y-64174370D02*
X48152540Y-59201830D01*
X48152540Y-59201830D02*
X48152540Y-53381150D01*
X48152540Y-53381150D02*
X48152540Y-52150520D01*
X35580000Y-80990000D02*
X33020000Y-83550000D01*
X33020000Y-83550000D02*
X33020000Y-84455000D01*
X43180000Y-84455000D02*
X43180000Y-83224370D01*
X43180000Y-83224370D02*
X48152540Y-78251830D01*
X48152540Y-78251830D02*
X48152540Y-72431150D01*
X48152540Y-72431150D02*
X48152540Y-71200520D01*
X390780151Y-98298000D02*
X372002540Y-79520389D01*
X398780000Y-102870000D02*
X398780000Y-101339000D01*
X398780000Y-101339000D02*
X395739000Y-98298000D01*
X395739000Y-98298000D02*
X390780151Y-98298000D01*
X372002540Y-79520389D02*
X372002540Y-72431150D01*
X372002540Y-72431150D02*
X372002540Y-71200520D01*
X400577540Y-71200520D02*
X400577540Y-72431150D01*
X400577540Y-72431150D02*
X399334209Y-73674481D01*
X399334209Y-73674481D02*
X399334209Y-82754209D01*
X399334209Y-82754209D02*
X403860000Y-87280000D01*
X403860000Y-87280000D02*
X403860000Y-87630000D01*
X67202540Y-90250520D02*
X67202540Y-91481150D01*
X67202540Y-91481150D02*
X69596000Y-93874610D01*
X69596000Y-93874610D02*
X69596000Y-122555000D01*
X401828000Y-91567000D02*
X403860000Y-89535000D01*
X403860000Y-89535000D02*
X403860000Y-87630000D01*
X43180000Y-103505000D02*
X43180000Y-102274370D01*
X43180000Y-102274370D02*
X48152540Y-97301830D01*
X48152540Y-91481150D02*
X48152540Y-90250520D01*
X48152540Y-97301830D02*
X48152540Y-91481150D01*
X406400000Y-87630000D02*
X406400000Y-84385196D01*
X406400000Y-84385196D02*
X400939000Y-78924196D01*
X400939000Y-78924196D02*
X400939000Y-73660000D01*
X406400000Y-87630000D02*
X406400000Y-89161000D01*
X406400000Y-89161000D02*
X407593710Y-90354710D01*
X407593710Y-90354710D02*
X407593710Y-103714450D01*
X407593710Y-103714450D02*
X402007640Y-109300520D01*
X402007640Y-109300520D02*
X401808170Y-109300520D01*
X401808170Y-109300520D02*
X400577540Y-109300520D01*
X43815000Y-122555000D02*
X43815000Y-121324370D01*
X43815000Y-121324370D02*
X48152540Y-116986830D01*
X48152540Y-116986830D02*
X48152540Y-110531150D01*
X48152540Y-110531150D02*
X48152540Y-109300520D01*
X33020000Y-103505000D02*
X35580000Y-100945000D01*
X35580000Y-100945000D02*
X35580000Y-100040000D01*
X35580000Y-119090000D02*
X33655000Y-121015000D01*
X33655000Y-121015000D02*
X33655000Y-122555000D01*
X71000000Y-125000000D02*
X69875394Y-126124606D01*
X69875394Y-126124606D02*
X69875394Y-134335394D01*
X69875394Y-134335394D02*
X72605468Y-137065468D01*
X72605468Y-137065468D02*
X73680000Y-138140000D01*
X411480000Y-87630000D02*
X411480000Y-87280000D01*
X41505000Y-117570000D02*
X41505000Y-122652922D01*
X51030000Y-127696338D02*
X51030000Y-134610822D01*
X41505000Y-122652922D02*
X45728377Y-126876299D01*
X45728377Y-126876299D02*
X50209961Y-126876299D01*
X50209961Y-126876299D02*
X51030000Y-127696338D01*
X51030000Y-134610822D02*
X51030000Y-136620000D01*
X41505000Y-31845000D02*
X41505000Y-60420000D01*
X41505000Y-98520000D02*
X41505000Y-114467018D01*
X41505000Y-114467018D02*
X41505000Y-117570000D01*
X41505000Y-79470000D02*
X41505000Y-60420000D01*
X41505000Y-98520000D02*
X41505000Y-79470000D01*
X79605000Y-136620000D02*
X79605000Y-117570000D01*
X79605000Y-98520000D02*
X79605000Y-79470000D01*
X79605000Y-117570000D02*
X79605000Y-98520000D01*
X79605000Y-60420000D02*
X79605000Y-79470000D01*
X79605000Y-31845000D02*
X79605000Y-60420000D01*
X160567500Y-50895000D02*
X179617500Y-31845000D01*
X160567500Y-60420000D02*
X160567500Y-50895000D01*
X184380000Y-117570000D02*
X184380000Y-108045000D01*
X184380000Y-108045000D02*
X174855000Y-98520000D01*
X174855000Y-98520000D02*
X174855000Y-84232500D01*
X174855000Y-84232500D02*
X170092500Y-79470000D01*
X170092500Y-79470000D02*
X170092500Y-69945000D01*
X170092500Y-69945000D02*
X160567500Y-60420000D01*
X172473750Y-136620000D02*
X173977940Y-135115810D01*
X173977940Y-135115810D02*
X174224958Y-135115810D01*
X174224958Y-135115810D02*
X184380000Y-124960768D01*
X184380000Y-124960768D02*
X184380000Y-119579178D01*
X184380000Y-119579178D02*
X184380000Y-117570000D01*
X198667500Y-60420000D02*
X198667500Y-50895000D01*
X198667500Y-50895000D02*
X217717500Y-31845000D01*
X306705000Y-105537000D02*
X306705000Y-119052588D01*
X306705000Y-119052588D02*
X315348750Y-127696338D01*
X315348750Y-127696338D02*
X315348750Y-134610822D01*
X315348750Y-134610822D02*
X315348750Y-136620000D01*
X406400000Y-102870000D02*
X406400000Y-103220000D01*
X222885000Y-140335000D02*
X222885000Y-117975000D01*
X222885000Y-117975000D02*
X222480000Y-117570000D01*
X212955000Y-98520000D02*
X212955000Y-84232500D01*
X212955000Y-84232500D02*
X208192500Y-79470000D01*
X222480000Y-117570000D02*
X222480000Y-108045000D01*
X222480000Y-108045000D02*
X212955000Y-98520000D01*
X208192500Y-79470000D02*
X208192500Y-69945000D01*
X208192500Y-69945000D02*
X198667500Y-60420000D01*
X141517500Y-60420000D02*
X141517500Y-50895000D01*
X141517500Y-50895000D02*
X160567500Y-31845000D01*
X151042500Y-79470000D02*
X151042500Y-69945000D01*
X151042500Y-69945000D02*
X141517500Y-60420000D01*
X155805000Y-98520000D02*
X155805000Y-84232500D01*
X155805000Y-84232500D02*
X151042500Y-79470000D01*
X165330000Y-117570000D02*
X165330000Y-108045000D01*
X165330000Y-108045000D02*
X155805000Y-98520000D01*
X148661250Y-136620000D02*
X150165440Y-135115810D01*
X150165440Y-135115810D02*
X150412458Y-135115810D01*
X150412458Y-135115810D02*
X165330000Y-120198268D01*
X165330000Y-120198268D02*
X165330000Y-119579178D01*
X165330000Y-119579178D02*
X165330000Y-117570000D01*
X429260000Y-102870000D02*
X430441000Y-102870000D01*
X430441000Y-102870000D02*
X432030000Y-101281000D01*
X432030000Y-101281000D02*
X432030000Y-81479178D01*
X432030000Y-81479178D02*
X432030000Y-79470000D01*
X432030000Y-79470000D02*
X433534190Y-77965810D01*
X433534190Y-77965810D02*
X433781208Y-77965810D01*
X433781208Y-77965810D02*
X434949606Y-76797412D01*
X434949606Y-76797412D02*
X434949606Y-34764606D01*
X434949606Y-34764606D02*
X433019984Y-32834984D01*
X433019984Y-32834984D02*
X432030000Y-31845000D01*
X384405000Y-79470000D02*
X384405000Y-65182500D01*
X384405000Y-65182500D02*
X379642500Y-60420000D01*
X379642500Y-60420000D02*
X381146690Y-58915810D01*
X381146690Y-58915810D02*
X381393708Y-58915810D01*
X381393708Y-58915810D02*
X389167500Y-51142018D01*
X389167500Y-51142018D02*
X389167500Y-33854178D01*
X389167500Y-33854178D02*
X389167500Y-31845000D01*
X408940000Y-102870000D02*
X408940000Y-103220000D01*
X247650000Y-140970000D02*
X247650000Y-123690000D01*
X247650000Y-123690000D02*
X241530000Y-117570000D01*
X227242500Y-79470000D02*
X227242500Y-69945000D01*
X227242500Y-69945000D02*
X217717500Y-60420000D01*
X232005000Y-98520000D02*
X232005000Y-84232500D01*
X232005000Y-84232500D02*
X227242500Y-79470000D01*
X241530000Y-117570000D02*
X241530000Y-108045000D01*
X241530000Y-108045000D02*
X232005000Y-98520000D01*
X124848750Y-136620000D02*
X126352940Y-135115810D01*
X126352940Y-135115810D02*
X126599958Y-135115810D01*
X134373750Y-127342018D02*
X134373750Y-119579178D01*
X134373750Y-119579178D02*
X134373750Y-117570000D01*
X126599958Y-135115810D02*
X134373750Y-127342018D01*
X134373750Y-117570000D02*
X134373750Y-103282500D01*
X134373750Y-103282500D02*
X129611250Y-98520000D01*
X129611250Y-98520000D02*
X129611250Y-81851250D01*
X129611250Y-81851250D02*
X127230000Y-79470000D01*
X127230000Y-79470000D02*
X127230000Y-65182500D01*
X127230000Y-65182500D02*
X122467500Y-60420000D01*
X122467500Y-31845000D02*
X122467500Y-60420000D01*
X184584190Y-58915810D02*
X198667500Y-44832500D01*
X198667500Y-44832500D02*
X198667500Y-31845000D01*
X179617500Y-60420000D02*
X181121690Y-58915810D01*
X181121690Y-58915810D02*
X184584190Y-58915810D01*
X189142500Y-69945000D02*
X187452000Y-68254500D01*
X187452000Y-68254500D02*
X179617500Y-60420000D01*
X425577000Y-68580000D02*
X425577000Y-68326000D01*
X425577000Y-76685658D02*
X425577000Y-68580000D01*
X428625000Y-85783036D02*
X428625000Y-79733658D01*
X428625000Y-79733658D02*
X425577000Y-76685658D01*
X429260000Y-87630000D02*
X429260000Y-86418036D01*
X429260000Y-86418036D02*
X428625000Y-85783036D01*
X203835000Y-134620000D02*
X203835000Y-117975000D01*
X203835000Y-117975000D02*
X203430000Y-117570000D01*
X203430000Y-117570000D02*
X203430000Y-108045000D01*
X203430000Y-108045000D02*
X193905000Y-98520000D01*
X193905000Y-98520000D02*
X193905000Y-84232500D01*
X193905000Y-84232500D02*
X189142500Y-79470000D01*
X189142500Y-79470000D02*
X189142500Y-69945000D01*
X377261250Y-98520000D02*
X377261250Y-116657250D01*
X377261250Y-116657250D02*
X377444000Y-116840000D01*
X377261250Y-98520000D02*
X377261250Y-89596338D01*
X377261250Y-89596338D02*
X367134912Y-79470000D01*
X367134912Y-79470000D02*
X362122385Y-79470000D01*
X362122385Y-79470000D02*
X360592500Y-79470000D01*
X360592500Y-79470000D02*
X360592500Y-69945000D01*
X360592500Y-69945000D02*
X351067500Y-60420000D01*
X351067500Y-60420000D02*
X351067500Y-50895000D01*
X351067500Y-50895000D02*
X370117500Y-31845000D01*
X98655000Y-60420000D02*
X98655000Y-88995000D01*
X98655000Y-127095000D02*
X98655000Y-88995000D01*
X236767500Y-60420000D02*
X236767500Y-41370000D01*
X236767500Y-41370000D02*
X246292500Y-31845000D01*
X411480000Y-103220000D02*
X411480000Y-102870000D01*
X260580000Y-117570000D02*
X260580000Y-141708000D01*
X260580000Y-141708000D02*
X260604000Y-141732000D01*
X251055000Y-98520000D02*
X251055000Y-84232500D01*
X251055000Y-84232500D02*
X246292500Y-79470000D01*
X260580000Y-117570000D02*
X260580000Y-108045000D01*
X260580000Y-108045000D02*
X251055000Y-98520000D01*
X246292500Y-79470000D02*
X246292500Y-69945000D01*
X246292500Y-69945000D02*
X236767500Y-60420000D01*
X255817500Y-60420000D02*
X255817500Y-41370000D01*
X255817500Y-41370000D02*
X265342500Y-31845000D01*
X280000000Y-135000000D02*
X280000000Y-117940000D01*
X280000000Y-117940000D02*
X279630000Y-117570000D01*
X393930000Y-136620000D02*
X395434190Y-135115810D01*
X395434190Y-135115810D02*
X399396512Y-135115810D01*
X399396512Y-135115810D02*
X415899606Y-118612716D01*
X415899606Y-118612716D02*
X415899606Y-105099606D01*
X415899606Y-105099606D02*
X414020000Y-103220000D01*
X414020000Y-103220000D02*
X414020000Y-102870000D01*
X279654000Y-117594000D02*
X279630000Y-117570000D01*
X279630000Y-117570000D02*
X279630000Y-108045000D01*
X279630000Y-108045000D02*
X270105000Y-98520000D01*
X265342500Y-79470000D02*
X265342500Y-69945000D01*
X265342500Y-69945000D02*
X255817500Y-60420000D01*
X270105000Y-98520000D02*
X270105000Y-84232500D01*
X270105000Y-84232500D02*
X265342500Y-79470000D01*
X274867500Y-60420000D02*
X274867500Y-41370000D01*
X274867500Y-41370000D02*
X284392500Y-31845000D01*
X416560000Y-102870000D02*
X416560000Y-129602982D01*
X416560000Y-129602982D02*
X412980000Y-133182982D01*
X412980000Y-133182982D02*
X412980000Y-134610822D01*
X412980000Y-134610822D02*
X412980000Y-136620000D01*
X298704000Y-129794000D02*
X298704000Y-117594000D01*
X298704000Y-117594000D02*
X298680000Y-117570000D01*
X298680000Y-117570000D02*
X298680000Y-108045000D01*
X298680000Y-108045000D02*
X289155000Y-98520000D01*
X289155000Y-98520000D02*
X289155000Y-84232500D01*
X289155000Y-84232500D02*
X284392500Y-79470000D01*
X284392500Y-79470000D02*
X284392500Y-69945000D01*
X284392500Y-69945000D02*
X274867500Y-60420000D01*
X296580000Y-60420000D02*
X303442500Y-53557500D01*
X303442500Y-53557500D02*
X303442500Y-31845000D01*
X293917500Y-60420000D02*
X296580000Y-60420000D01*
X419100000Y-102870000D02*
X419100000Y-123179000D01*
X419100000Y-123179000D02*
X420000000Y-124079000D01*
X419100000Y-102870000D02*
X419100000Y-103220000D01*
X419100000Y-103220000D02*
X419000000Y-103320000D01*
X432030000Y-134610822D02*
X432030000Y-136620000D01*
X317730000Y-117570000D02*
X317730000Y-108045000D01*
X317730000Y-108045000D02*
X308205000Y-98520000D01*
X308205000Y-98520000D02*
X308205000Y-84232500D01*
X308205000Y-84232500D02*
X303442500Y-79470000D01*
X303442500Y-79470000D02*
X303442500Y-69945000D01*
X303442500Y-69945000D02*
X293917500Y-60420000D01*
X413969984Y-61409984D02*
X412980000Y-60420000D01*
X417753710Y-65193710D02*
X413969984Y-61409984D01*
X417753710Y-95967512D02*
X417753710Y-65193710D01*
X421640000Y-102870000D02*
X421640000Y-99853802D01*
X421640000Y-99853802D02*
X417753710Y-95967512D01*
X312967500Y-60420000D02*
X312967500Y-50895000D01*
X312967500Y-50895000D02*
X332017500Y-31845000D01*
X322492500Y-79470000D02*
X322492500Y-69945000D01*
X322492500Y-69945000D02*
X312967500Y-60420000D01*
X327255000Y-98520000D02*
X327255000Y-84232500D01*
X327255000Y-84232500D02*
X322492500Y-79470000D01*
X336780000Y-117570000D02*
X336780000Y-108045000D01*
X336780000Y-108045000D02*
X327255000Y-98520000D01*
X429260000Y-79098658D02*
X429260000Y-85591840D01*
X429260000Y-85591840D02*
X430453710Y-86785550D01*
X430453710Y-86785550D02*
X430453710Y-96246290D01*
X430453710Y-96246290D02*
X424180000Y-102520000D01*
X424180000Y-102520000D02*
X424180000Y-102870000D01*
X432030000Y-60420000D02*
X432030000Y-76328658D01*
X432030000Y-76328658D02*
X429260000Y-79098658D01*
X341542500Y-79470000D02*
X341542500Y-69945000D01*
X341542500Y-69945000D02*
X333007484Y-61409984D01*
X333007484Y-61409984D02*
X332017500Y-60420000D01*
X346305000Y-98520000D02*
X346305000Y-84232500D01*
X346305000Y-84232500D02*
X341542500Y-79470000D01*
X372498750Y-117570000D02*
X372498750Y-108646338D01*
X372498750Y-108646338D02*
X365506263Y-101653851D01*
X365506263Y-101653851D02*
X349438851Y-101653851D01*
X349438851Y-101653851D02*
X347294984Y-99509984D01*
X347294984Y-99509984D02*
X346305000Y-98520000D01*
X332017500Y-60420000D02*
X332017500Y-50895000D01*
X332017500Y-50895000D02*
X351067500Y-31845000D01*
X60555000Y-60420000D02*
X60555000Y-50000000D01*
X56000000Y-36400000D02*
X56000000Y-45445000D01*
X56000000Y-45445000D02*
X60555000Y-50000000D01*
X60555000Y-31845000D02*
X56000000Y-36400000D01*
X60555000Y-117570000D02*
X60555000Y-98520000D01*
X60555000Y-79470000D02*
X60555000Y-95417018D01*
X60555000Y-95417018D02*
X60555000Y-98520000D01*
X60555000Y-79470000D02*
X60555000Y-76032982D01*
X60555000Y-76032982D02*
X60555000Y-60420000D01*
X396240000Y-102870000D02*
X396240000Y-106260000D01*
X396240000Y-106260000D02*
X396000000Y-106500000D01*
M02*
