G04 #@! TF.FileFunction,Copper,L1,Top,Signal*
%FSLAX46Y46*%
G04 Gerber Fmt 4.6, Leading zero omitted, Abs format (unit mm)*
G04 Created by KiCad (PCBNEW 4.0.2-stable) date Saturday, May 28, 2016 'PMt' 12:45:38 PM*
%MOMM*%
G01*
G04 APERTURE LIST*
%ADD10C,0.150000*%
%ADD11C,1.699260*%
%ADD12R,1.699260X1.699260*%
%ADD13C,3.987810*%
%ADD14C,1.701810*%
%ADD15C,2.500000*%
%ADD16R,2.000000X2.000000*%
%ADD17C,2.000000*%
%ADD18O,1.600000X2.300000*%
%ADD19C,0.609600*%
%ADD20C,0.381000*%
G04 APERTURE END LIST*
D10*
D11*
X286277540Y-119460520D03*
D12*
X286277540Y-109300520D03*
D11*
X419627540Y-138510520D03*
D12*
X419627540Y-128350520D03*
D13*
X428625000Y-133350000D03*
D14*
X433705000Y-133350000D03*
X423545000Y-133350000D03*
D15*
X431624547Y-137349954D02*
X432435453Y-135890046D01*
X426085276Y-138429328D02*
X426124724Y-137850672D01*
D16*
X429895000Y-128270000D03*
D17*
X427355000Y-128270000D03*
D11*
X400577540Y-138510520D03*
D12*
X400577540Y-128350520D03*
D13*
X409575000Y-133350000D03*
D14*
X414655000Y-133350000D03*
X404495000Y-133350000D03*
D15*
X412574547Y-137349954D02*
X413385453Y-135890046D01*
X407035276Y-138429328D02*
X407074724Y-137850672D01*
D16*
X410845000Y-128270000D03*
D17*
X408305000Y-128270000D03*
D11*
X381527540Y-138510520D03*
D12*
X381527540Y-128350520D03*
D13*
X390525000Y-133350000D03*
D14*
X395605000Y-133350000D03*
X385445000Y-133350000D03*
D15*
X393524547Y-137349954D02*
X394335453Y-135890046D01*
X387985276Y-138429328D02*
X388024724Y-137850672D01*
D16*
X391795000Y-128270000D03*
D17*
X389255000Y-128270000D03*
D11*
X350571290Y-138510520D03*
D12*
X350571290Y-128350520D03*
D13*
X359568750Y-133350000D03*
D14*
X364648750Y-133350000D03*
X354488750Y-133350000D03*
D15*
X362568297Y-137349954D02*
X363379203Y-135890046D01*
X357029026Y-138429328D02*
X357068474Y-137850672D01*
D16*
X360838750Y-128270000D03*
D17*
X358298750Y-128270000D03*
D11*
X326758790Y-138510520D03*
D12*
X326758790Y-128350520D03*
D13*
X335756250Y-133350000D03*
D14*
X340836250Y-133350000D03*
X330676250Y-133350000D03*
D15*
X338755797Y-137349954D02*
X339566703Y-135890046D01*
X333216526Y-138429328D02*
X333255974Y-137850672D01*
D16*
X337026250Y-128270000D03*
D17*
X334486250Y-128270000D03*
D11*
X303000000Y-138510520D03*
D12*
X303000000Y-128350520D03*
D13*
X311943750Y-133350000D03*
D14*
X317023750Y-133350000D03*
X306863750Y-133350000D03*
D15*
X314943297Y-137349954D02*
X315754203Y-135890046D01*
X309404026Y-138429328D02*
X309443474Y-137850672D01*
D16*
X313213750Y-128270000D03*
D17*
X310673750Y-128270000D03*
D11*
X231508790Y-138510520D03*
D12*
X231508790Y-128350520D03*
D13*
X240506250Y-133350000D03*
D14*
X245586250Y-133350000D03*
X235426250Y-133350000D03*
D15*
X243505797Y-137349954D02*
X244316703Y-135890046D01*
X237966526Y-138429328D02*
X238005974Y-137850672D01*
D16*
X241776250Y-128270000D03*
D17*
X239236250Y-128270000D03*
D11*
X160071290Y-138510520D03*
D12*
X160071290Y-128350520D03*
D13*
X169068750Y-133350000D03*
D14*
X174148750Y-133350000D03*
X163988750Y-133350000D03*
D15*
X172068297Y-137349954D02*
X172879203Y-135890046D01*
X166529026Y-138429328D02*
X166568474Y-137850672D01*
D16*
X170338750Y-128270000D03*
D17*
X167798750Y-128270000D03*
D11*
X136258790Y-138510520D03*
D12*
X136258790Y-128350520D03*
D13*
X145256250Y-133350000D03*
D14*
X150336250Y-133350000D03*
X140176250Y-133350000D03*
D15*
X148255797Y-137349954D02*
X149066703Y-135890046D01*
X142716526Y-138429328D02*
X142755974Y-137850672D01*
D16*
X146526250Y-128270000D03*
D17*
X143986250Y-128270000D03*
D11*
X112446290Y-138510520D03*
D12*
X112446290Y-128350520D03*
D13*
X121443750Y-133350000D03*
D14*
X126523750Y-133350000D03*
X116363750Y-133350000D03*
D15*
X124443297Y-137349954D02*
X125254203Y-135890046D01*
X118904026Y-138429328D02*
X118943474Y-137850672D01*
D16*
X122713750Y-128270000D03*
D17*
X120173750Y-128270000D03*
D11*
X71000000Y-125000000D03*
D12*
X81160000Y-125000000D03*
D13*
X76200000Y-133350000D03*
D14*
X81280000Y-133350000D03*
X71120000Y-133350000D03*
D15*
X79199547Y-137349954D02*
X80010453Y-135890046D01*
X73660276Y-138429328D02*
X73699724Y-137850672D01*
D16*
X77470000Y-128270000D03*
D17*
X74930000Y-128270000D03*
D11*
X38627540Y-138510520D03*
D12*
X38627540Y-128350520D03*
D13*
X47625000Y-133350000D03*
D14*
X52705000Y-133350000D03*
X42545000Y-133350000D03*
D15*
X50624547Y-137349954D02*
X51435453Y-135890046D01*
X45085276Y-138429328D02*
X45124724Y-137850672D01*
D16*
X48895000Y-128270000D03*
D17*
X46355000Y-128270000D03*
D11*
X400577540Y-119460520D03*
D12*
X400577540Y-109300520D03*
D13*
X409575000Y-114300000D03*
D14*
X414655000Y-114300000D03*
X404495000Y-114300000D03*
D15*
X412574547Y-118299954D02*
X413385453Y-116840046D01*
X407035276Y-119379328D02*
X407074724Y-118800672D01*
D16*
X410845000Y-109220000D03*
D17*
X408305000Y-109220000D03*
D11*
X360096290Y-119460520D03*
D12*
X360096290Y-109300520D03*
D13*
X369093750Y-114300000D03*
D14*
X374173750Y-114300000D03*
X364013750Y-114300000D03*
D15*
X372093297Y-118299954D02*
X372904203Y-116840046D01*
X366554026Y-119379328D02*
X366593474Y-118800672D01*
D16*
X370363750Y-109220000D03*
D17*
X367823750Y-109220000D03*
D11*
X324377540Y-119460520D03*
D12*
X324377540Y-109300520D03*
D13*
X333375000Y-114300000D03*
D14*
X338455000Y-114300000D03*
X328295000Y-114300000D03*
D15*
X336374547Y-118299954D02*
X337185453Y-116840046D01*
X330835276Y-119379328D02*
X330874724Y-118800672D01*
D16*
X334645000Y-109220000D03*
D17*
X332105000Y-109220000D03*
D11*
X305327540Y-119460520D03*
D12*
X305327540Y-109300520D03*
D13*
X314325000Y-114300000D03*
D14*
X319405000Y-114300000D03*
X309245000Y-114300000D03*
D15*
X317324547Y-118299954D02*
X318135453Y-116840046D01*
X311785276Y-119379328D02*
X311824724Y-118800672D01*
D16*
X315595000Y-109220000D03*
D17*
X313055000Y-109220000D03*
D13*
X295275000Y-114300000D03*
D14*
X300355000Y-114300000D03*
X290195000Y-114300000D03*
D15*
X298274547Y-118299954D02*
X299085453Y-116840046D01*
X292735276Y-119379328D02*
X292774724Y-118800672D01*
D16*
X296545000Y-109220000D03*
D17*
X294005000Y-109220000D03*
D11*
X267227540Y-119460520D03*
D12*
X267227540Y-109300520D03*
D13*
X276225000Y-114300000D03*
D14*
X281305000Y-114300000D03*
X271145000Y-114300000D03*
D15*
X279224547Y-118299954D02*
X280035453Y-116840046D01*
X273685276Y-119379328D02*
X273724724Y-118800672D01*
D16*
X277495000Y-109220000D03*
D17*
X274955000Y-109220000D03*
D11*
X248177540Y-119460520D03*
D12*
X248177540Y-109300520D03*
D13*
X257175000Y-114300000D03*
D14*
X262255000Y-114300000D03*
X252095000Y-114300000D03*
D15*
X260174547Y-118299954D02*
X260985453Y-116840046D01*
X254635276Y-119379328D02*
X254674724Y-118800672D01*
D16*
X258445000Y-109220000D03*
D17*
X255905000Y-109220000D03*
D11*
X229127540Y-119460520D03*
D12*
X229127540Y-109300520D03*
D13*
X238125000Y-114300000D03*
D14*
X243205000Y-114300000D03*
X233045000Y-114300000D03*
D15*
X241124547Y-118299954D02*
X241935453Y-116840046D01*
X235585276Y-119379328D02*
X235624724Y-118800672D01*
D16*
X239395000Y-109220000D03*
D17*
X236855000Y-109220000D03*
D11*
X210077540Y-119460520D03*
D12*
X210077540Y-109300520D03*
D13*
X219075000Y-114300000D03*
D14*
X224155000Y-114300000D03*
X213995000Y-114300000D03*
D15*
X222074547Y-118299954D02*
X222885453Y-116840046D01*
X216535276Y-119379328D02*
X216574724Y-118800672D01*
D16*
X220345000Y-109220000D03*
D17*
X217805000Y-109220000D03*
D11*
X191027540Y-119460520D03*
D12*
X191027540Y-109300520D03*
D13*
X200025000Y-114300000D03*
D14*
X205105000Y-114300000D03*
X194945000Y-114300000D03*
D15*
X203024547Y-118299954D02*
X203835453Y-116840046D01*
X197485276Y-119379328D02*
X197524724Y-118800672D01*
D16*
X201295000Y-109220000D03*
D17*
X198755000Y-109220000D03*
D11*
X171977540Y-119460520D03*
D12*
X171977540Y-109300520D03*
D13*
X180975000Y-114300000D03*
D14*
X186055000Y-114300000D03*
X175895000Y-114300000D03*
D15*
X183974547Y-118299954D02*
X184785453Y-116840046D01*
X178435276Y-119379328D02*
X178474724Y-118800672D01*
D16*
X182245000Y-109220000D03*
D17*
X179705000Y-109220000D03*
D11*
X152927540Y-119460520D03*
D12*
X152927540Y-109300520D03*
D13*
X161925000Y-114300000D03*
D14*
X167005000Y-114300000D03*
X156845000Y-114300000D03*
D15*
X164924547Y-118299954D02*
X165735453Y-116840046D01*
X159385276Y-119379328D02*
X159424724Y-118800672D01*
D16*
X163195000Y-109220000D03*
D17*
X160655000Y-109220000D03*
D11*
X121971290Y-119460520D03*
D12*
X121971290Y-109300520D03*
D13*
X130968750Y-114300000D03*
D14*
X136048750Y-114300000D03*
X125888750Y-114300000D03*
D15*
X133968297Y-118299954D02*
X134779203Y-116840046D01*
X128429026Y-119379328D02*
X128468474Y-118800672D01*
D16*
X132238750Y-109220000D03*
D17*
X129698750Y-109220000D03*
D11*
X86252540Y-128985520D03*
D12*
X86252540Y-118825520D03*
D13*
X95250000Y-123825000D03*
D14*
X100330000Y-123825000D03*
X90170000Y-123825000D03*
D15*
X98249547Y-127824954D02*
X99060453Y-126365046D01*
X92710276Y-128904328D02*
X92749724Y-128325672D01*
D16*
X96520000Y-118745000D03*
D17*
X93980000Y-118745000D03*
D11*
X67202540Y-119460520D03*
D12*
X67202540Y-109300520D03*
D13*
X76200000Y-114300000D03*
D14*
X81280000Y-114300000D03*
X71120000Y-114300000D03*
D15*
X79199547Y-118299954D02*
X80010453Y-116840046D01*
X73660276Y-119379328D02*
X73699724Y-118800672D01*
D16*
X77470000Y-109220000D03*
D17*
X74930000Y-109220000D03*
D11*
X48152540Y-119460520D03*
D12*
X48152540Y-109300520D03*
D13*
X57150000Y-114300000D03*
D14*
X62230000Y-114300000D03*
X52070000Y-114300000D03*
D15*
X60149547Y-118299954D02*
X60960453Y-116840046D01*
X54610276Y-119379328D02*
X54649724Y-118800672D01*
D16*
X58420000Y-109220000D03*
D17*
X55880000Y-109220000D03*
D11*
X33655000Y-122555000D03*
D12*
X43815000Y-122555000D03*
D13*
X38100000Y-114300000D03*
D14*
X43180000Y-114300000D03*
X33020000Y-114300000D03*
D15*
X41099547Y-118299954D02*
X41910453Y-116840046D01*
X35560276Y-119379328D02*
X35599724Y-118800672D01*
D16*
X39370000Y-109220000D03*
D17*
X36830000Y-109220000D03*
D11*
X364858790Y-100410520D03*
D12*
X364858790Y-90250520D03*
D13*
X373856250Y-95250000D03*
D14*
X378936250Y-95250000D03*
X368776250Y-95250000D03*
D15*
X376855797Y-99249954D02*
X377666703Y-97790046D01*
X371316526Y-100329328D02*
X371355974Y-99750672D01*
D16*
X375126250Y-90170000D03*
D17*
X372586250Y-90170000D03*
D11*
X333902540Y-100410520D03*
D12*
X333902540Y-90250520D03*
D13*
X342900000Y-95250000D03*
D14*
X347980000Y-95250000D03*
X337820000Y-95250000D03*
D15*
X345899547Y-99249954D02*
X346710453Y-97790046D01*
X340360276Y-100329328D02*
X340399724Y-99750672D01*
D16*
X344170000Y-90170000D03*
D17*
X341630000Y-90170000D03*
D11*
X314852540Y-100410520D03*
D12*
X314852540Y-90250520D03*
D13*
X323850000Y-95250000D03*
D14*
X328930000Y-95250000D03*
X318770000Y-95250000D03*
D15*
X326849547Y-99249954D02*
X327660453Y-97790046D01*
X321310276Y-100329328D02*
X321349724Y-99750672D01*
D16*
X325120000Y-90170000D03*
D17*
X322580000Y-90170000D03*
D11*
X295802540Y-100410520D03*
D12*
X295802540Y-90250520D03*
D13*
X304800000Y-95250000D03*
D14*
X309880000Y-95250000D03*
X299720000Y-95250000D03*
D15*
X307799547Y-99249954D02*
X308610453Y-97790046D01*
X302260276Y-100329328D02*
X302299724Y-99750672D01*
D16*
X306070000Y-90170000D03*
D17*
X303530000Y-90170000D03*
D11*
X276752540Y-100410520D03*
D12*
X276752540Y-90250520D03*
D13*
X285750000Y-95250000D03*
D14*
X290830000Y-95250000D03*
X280670000Y-95250000D03*
D15*
X288749547Y-99249954D02*
X289560453Y-97790046D01*
X283210276Y-100329328D02*
X283249724Y-99750672D01*
D16*
X287020000Y-90170000D03*
D17*
X284480000Y-90170000D03*
D11*
X257702540Y-100410520D03*
D12*
X257702540Y-90250520D03*
D13*
X266700000Y-95250000D03*
D14*
X271780000Y-95250000D03*
X261620000Y-95250000D03*
D15*
X269699547Y-99249954D02*
X270510453Y-97790046D01*
X264160276Y-100329328D02*
X264199724Y-99750672D01*
D16*
X267970000Y-90170000D03*
D17*
X265430000Y-90170000D03*
D11*
X238652540Y-100410520D03*
D12*
X238652540Y-90250520D03*
D13*
X247650000Y-95250000D03*
D14*
X252730000Y-95250000D03*
X242570000Y-95250000D03*
D15*
X250649547Y-99249954D02*
X251460453Y-97790046D01*
X245110276Y-100329328D02*
X245149724Y-99750672D01*
D16*
X248920000Y-90170000D03*
D17*
X246380000Y-90170000D03*
D11*
X219602540Y-100410520D03*
D12*
X219602540Y-90250520D03*
D13*
X228600000Y-95250000D03*
D14*
X233680000Y-95250000D03*
X223520000Y-95250000D03*
D15*
X231599547Y-99249954D02*
X232410453Y-97790046D01*
X226060276Y-100329328D02*
X226099724Y-99750672D01*
D16*
X229870000Y-90170000D03*
D17*
X227330000Y-90170000D03*
D11*
X200552540Y-100410520D03*
D12*
X200552540Y-90250520D03*
D13*
X209550000Y-95250000D03*
D14*
X214630000Y-95250000D03*
X204470000Y-95250000D03*
D15*
X212549547Y-99249954D02*
X213360453Y-97790046D01*
X207010276Y-100329328D02*
X207049724Y-99750672D01*
D16*
X210820000Y-90170000D03*
D17*
X208280000Y-90170000D03*
D11*
X181502540Y-100410520D03*
D12*
X181502540Y-90250520D03*
D13*
X190500000Y-95250000D03*
D14*
X195580000Y-95250000D03*
X185420000Y-95250000D03*
D15*
X193499547Y-99249954D02*
X194310453Y-97790046D01*
X187960276Y-100329328D02*
X187999724Y-99750672D01*
D16*
X191770000Y-90170000D03*
D17*
X189230000Y-90170000D03*
D11*
X162452540Y-100410520D03*
D12*
X162452540Y-90250520D03*
D13*
X171450000Y-95250000D03*
D14*
X176530000Y-95250000D03*
X166370000Y-95250000D03*
D15*
X174449547Y-99249954D02*
X175260453Y-97790046D01*
X168910276Y-100329328D02*
X168949724Y-99750672D01*
D16*
X172720000Y-90170000D03*
D17*
X170180000Y-90170000D03*
D11*
X143402540Y-100410520D03*
D12*
X143402540Y-90250520D03*
D13*
X152400000Y-95250000D03*
D14*
X157480000Y-95250000D03*
X147320000Y-95250000D03*
D15*
X155399547Y-99249954D02*
X156210453Y-97790046D01*
X149860276Y-100329328D02*
X149899724Y-99750672D01*
D16*
X153670000Y-90170000D03*
D17*
X151130000Y-90170000D03*
D11*
X117208790Y-100410520D03*
D12*
X117208790Y-90250520D03*
D13*
X126206250Y-95250000D03*
D14*
X131286250Y-95250000D03*
X121126250Y-95250000D03*
D15*
X129205797Y-99249954D02*
X130016703Y-97790046D01*
X123666526Y-100329328D02*
X123705974Y-99750672D01*
D16*
X127476250Y-90170000D03*
D17*
X124936250Y-90170000D03*
D11*
X67202540Y-100410520D03*
D12*
X67202540Y-90250520D03*
D13*
X76200000Y-95250000D03*
D14*
X81280000Y-95250000D03*
X71120000Y-95250000D03*
D15*
X79199547Y-99249954D02*
X80010453Y-97790046D01*
X73660276Y-100329328D02*
X73699724Y-99750672D01*
D16*
X77470000Y-90170000D03*
D17*
X74930000Y-90170000D03*
D11*
X48152540Y-100410520D03*
D12*
X48152540Y-90250520D03*
D13*
X57150000Y-95250000D03*
D14*
X62230000Y-95250000D03*
X52070000Y-95250000D03*
D15*
X60149547Y-99249954D02*
X60960453Y-97790046D01*
X54610276Y-100329328D02*
X54649724Y-99750672D01*
D16*
X58420000Y-90170000D03*
D17*
X55880000Y-90170000D03*
D11*
X33020000Y-103505000D03*
D12*
X43180000Y-103505000D03*
D13*
X38100000Y-95250000D03*
D14*
X43180000Y-95250000D03*
X33020000Y-95250000D03*
D15*
X41099547Y-99249954D02*
X41910453Y-97790046D01*
X35560276Y-100329328D02*
X35599724Y-99750672D01*
D16*
X39370000Y-90170000D03*
D17*
X36830000Y-90170000D03*
D11*
X419627540Y-81360520D03*
D12*
X419627540Y-71200520D03*
D13*
X428625000Y-76200000D03*
D14*
X433705000Y-76200000D03*
X423545000Y-76200000D03*
D15*
X431624547Y-80199954D02*
X432435453Y-78740046D01*
X426085276Y-81279328D02*
X426124724Y-80700672D01*
D16*
X429895000Y-71120000D03*
D17*
X427355000Y-71120000D03*
D11*
X400577540Y-81360520D03*
D12*
X400577540Y-71200520D03*
D13*
X409575000Y-76200000D03*
D14*
X414655000Y-76200000D03*
X404495000Y-76200000D03*
D15*
X412574547Y-80199954D02*
X413385453Y-78740046D01*
X407035276Y-81279328D02*
X407074724Y-80700672D01*
D16*
X410845000Y-71120000D03*
D17*
X408305000Y-71120000D03*
D11*
X372002540Y-81360520D03*
D12*
X372002540Y-71200520D03*
D13*
X381000000Y-76200000D03*
D14*
X386080000Y-76200000D03*
X375920000Y-76200000D03*
D15*
X383999547Y-80199954D02*
X384810453Y-78740046D01*
X378460276Y-81279328D02*
X378499724Y-80700672D01*
D16*
X382270000Y-71120000D03*
D17*
X379730000Y-71120000D03*
D11*
X348190040Y-81360520D03*
D12*
X348190040Y-71200520D03*
D13*
X357187500Y-76200000D03*
D14*
X362267500Y-76200000D03*
X352107500Y-76200000D03*
D15*
X360187047Y-80199954D02*
X360997953Y-78740046D01*
X354647776Y-81279328D02*
X354687224Y-80700672D01*
D16*
X358457500Y-71120000D03*
D17*
X355917500Y-71120000D03*
D11*
X329140040Y-81360520D03*
D12*
X329140040Y-71200520D03*
D13*
X338137500Y-76200000D03*
D14*
X343217500Y-76200000D03*
X333057500Y-76200000D03*
D15*
X341137047Y-80199954D02*
X341947953Y-78740046D01*
X335597776Y-81279328D02*
X335637224Y-80700672D01*
D16*
X339407500Y-71120000D03*
D17*
X336867500Y-71120000D03*
D11*
X310090040Y-81360520D03*
D12*
X310090040Y-71200520D03*
D13*
X319087500Y-76200000D03*
D14*
X324167500Y-76200000D03*
X314007500Y-76200000D03*
D15*
X322087047Y-80199954D02*
X322897953Y-78740046D01*
X316547776Y-81279328D02*
X316587224Y-80700672D01*
D16*
X320357500Y-71120000D03*
D17*
X317817500Y-71120000D03*
D11*
X291040040Y-81360520D03*
D12*
X291040040Y-71200520D03*
D13*
X300037500Y-76200000D03*
D14*
X305117500Y-76200000D03*
X294957500Y-76200000D03*
D15*
X303037047Y-80199954D02*
X303847953Y-78740046D01*
X297497776Y-81279328D02*
X297537224Y-80700672D01*
D16*
X301307500Y-71120000D03*
D17*
X298767500Y-71120000D03*
D11*
X271990040Y-81360520D03*
D12*
X271990040Y-71200520D03*
D13*
X280987500Y-76200000D03*
D14*
X286067500Y-76200000D03*
X275907500Y-76200000D03*
D15*
X283987047Y-80199954D02*
X284797953Y-78740046D01*
X278447776Y-81279328D02*
X278487224Y-80700672D01*
D16*
X282257500Y-71120000D03*
D17*
X279717500Y-71120000D03*
D11*
X252940040Y-81360520D03*
D12*
X252940040Y-71200520D03*
D13*
X261937500Y-76200000D03*
D14*
X267017500Y-76200000D03*
X256857500Y-76200000D03*
D15*
X264937047Y-80199954D02*
X265747953Y-78740046D01*
X259397776Y-81279328D02*
X259437224Y-80700672D01*
D16*
X263207500Y-71120000D03*
D17*
X260667500Y-71120000D03*
D11*
X233890040Y-81360520D03*
D12*
X233890040Y-71200520D03*
D13*
X242887500Y-76200000D03*
D14*
X247967500Y-76200000D03*
X237807500Y-76200000D03*
D15*
X245887047Y-80199954D02*
X246697953Y-78740046D01*
X240347776Y-81279328D02*
X240387224Y-80700672D01*
D16*
X244157500Y-71120000D03*
D17*
X241617500Y-71120000D03*
D11*
X214840040Y-81360520D03*
D12*
X214840040Y-71200520D03*
D13*
X223837500Y-76200000D03*
D14*
X228917500Y-76200000D03*
X218757500Y-76200000D03*
D15*
X226837047Y-80199954D02*
X227647953Y-78740046D01*
X221297776Y-81279328D02*
X221337224Y-80700672D01*
D16*
X225107500Y-71120000D03*
D17*
X222567500Y-71120000D03*
D11*
X195790040Y-81360520D03*
D12*
X195790040Y-71200520D03*
D13*
X204787500Y-76200000D03*
D14*
X209867500Y-76200000D03*
X199707500Y-76200000D03*
D15*
X207787047Y-80199954D02*
X208597953Y-78740046D01*
X202247776Y-81279328D02*
X202287224Y-80700672D01*
D16*
X206057500Y-71120000D03*
D17*
X203517500Y-71120000D03*
D11*
X176740040Y-81360520D03*
D12*
X176740040Y-71200520D03*
D13*
X185737500Y-76200000D03*
D14*
X190817500Y-76200000D03*
X180657500Y-76200000D03*
D15*
X188737047Y-80199954D02*
X189547953Y-78740046D01*
X183197776Y-81279328D02*
X183237224Y-80700672D01*
D16*
X187007500Y-71120000D03*
D17*
X184467500Y-71120000D03*
D11*
X157690040Y-81360520D03*
D12*
X157690040Y-71200520D03*
D13*
X166687500Y-76200000D03*
D14*
X171767500Y-76200000D03*
X161607500Y-76200000D03*
D15*
X169687047Y-80199954D02*
X170497953Y-78740046D01*
X164147776Y-81279328D02*
X164187224Y-80700672D01*
D16*
X167957500Y-71120000D03*
D17*
X165417500Y-71120000D03*
D11*
X138640040Y-81360520D03*
D12*
X138640040Y-71200520D03*
D13*
X147637500Y-76200000D03*
D14*
X152717500Y-76200000D03*
X142557500Y-76200000D03*
D15*
X150637047Y-80199954D02*
X151447953Y-78740046D01*
X145097776Y-81279328D02*
X145137224Y-80700672D01*
D16*
X148907500Y-71120000D03*
D17*
X146367500Y-71120000D03*
D11*
X114827540Y-81360520D03*
D12*
X114827540Y-71200520D03*
D13*
X123825000Y-76200000D03*
D14*
X128905000Y-76200000D03*
X118745000Y-76200000D03*
D15*
X126824547Y-80199954D02*
X127635453Y-78740046D01*
X121285276Y-81279328D02*
X121324724Y-80700672D01*
D16*
X125095000Y-71120000D03*
D17*
X122555000Y-71120000D03*
D11*
X86252540Y-90885520D03*
D12*
X86252540Y-80725520D03*
D13*
X95250000Y-85725000D03*
D14*
X100330000Y-85725000D03*
X90170000Y-85725000D03*
D15*
X98249547Y-89724954D02*
X99060453Y-88265046D01*
X92710276Y-90804328D02*
X92749724Y-90225672D01*
D16*
X96520000Y-80645000D03*
D17*
X93980000Y-80645000D03*
D11*
X67202540Y-81360520D03*
D12*
X67202540Y-71200520D03*
D13*
X76200000Y-76200000D03*
D14*
X81280000Y-76200000D03*
X71120000Y-76200000D03*
D15*
X79199547Y-80199954D02*
X80010453Y-78740046D01*
X73660276Y-81279328D02*
X73699724Y-80700672D01*
D16*
X77470000Y-71120000D03*
D17*
X74930000Y-71120000D03*
D11*
X48152540Y-81360520D03*
D12*
X48152540Y-71200520D03*
D13*
X57150000Y-76200000D03*
D14*
X62230000Y-76200000D03*
X52070000Y-76200000D03*
D15*
X60149547Y-80199954D02*
X60960453Y-78740046D01*
X54610276Y-81279328D02*
X54649724Y-80700672D01*
D16*
X58420000Y-71120000D03*
D17*
X55880000Y-71120000D03*
D11*
X33020000Y-84455000D03*
D12*
X43180000Y-84455000D03*
D13*
X38100000Y-76200000D03*
D14*
X43180000Y-76200000D03*
X33020000Y-76200000D03*
D15*
X41099547Y-80199954D02*
X41910453Y-78740046D01*
X35560276Y-81279328D02*
X35599724Y-80700672D01*
D16*
X39370000Y-71120000D03*
D17*
X36830000Y-71120000D03*
D11*
X419627540Y-62310520D03*
D12*
X419627540Y-52150520D03*
D13*
X428625000Y-57150000D03*
D14*
X433705000Y-57150000D03*
X423545000Y-57150000D03*
D15*
X431624547Y-61149954D02*
X432435453Y-59690046D01*
X426085276Y-62229328D02*
X426124724Y-61650672D01*
D16*
X429895000Y-52070000D03*
D17*
X427355000Y-52070000D03*
D11*
X400577540Y-62310520D03*
D12*
X400577540Y-52150520D03*
D13*
X409575000Y-57150000D03*
D14*
X414655000Y-57150000D03*
X404495000Y-57150000D03*
D15*
X412574547Y-61149954D02*
X413385453Y-59690046D01*
X407035276Y-62229328D02*
X407074724Y-61650672D01*
D16*
X410845000Y-52070000D03*
D17*
X408305000Y-52070000D03*
D11*
X367240040Y-62310520D03*
D12*
X367240040Y-52150520D03*
D13*
X376237500Y-57150000D03*
D14*
X381317500Y-57150000D03*
X371157500Y-57150000D03*
D15*
X379237047Y-61149954D02*
X380047953Y-59690046D01*
X373697776Y-62229328D02*
X373737224Y-61650672D01*
D16*
X377507500Y-52070000D03*
D17*
X374967500Y-52070000D03*
D11*
X338665040Y-62310520D03*
D12*
X338665040Y-52150520D03*
D13*
X347662500Y-57150000D03*
D14*
X352742500Y-57150000D03*
X342582500Y-57150000D03*
D15*
X350662047Y-61149954D02*
X351472953Y-59690046D01*
X345122776Y-62229328D02*
X345162224Y-61650672D01*
D16*
X348932500Y-52070000D03*
D17*
X346392500Y-52070000D03*
D11*
X319615040Y-62310520D03*
D12*
X319615040Y-52150520D03*
D13*
X328612500Y-57150000D03*
D14*
X333692500Y-57150000D03*
X323532500Y-57150000D03*
D15*
X331612047Y-61149954D02*
X332422953Y-59690046D01*
X326072776Y-62229328D02*
X326112224Y-61650672D01*
D16*
X329882500Y-52070000D03*
D17*
X327342500Y-52070000D03*
D11*
X300565040Y-62310520D03*
D12*
X300565040Y-52150520D03*
D13*
X309562500Y-57150000D03*
D14*
X314642500Y-57150000D03*
X304482500Y-57150000D03*
D15*
X312562047Y-61149954D02*
X313372953Y-59690046D01*
X307022776Y-62229328D02*
X307062224Y-61650672D01*
D16*
X310832500Y-52070000D03*
D17*
X308292500Y-52070000D03*
D11*
X281515040Y-62310520D03*
D12*
X281515040Y-52150520D03*
D13*
X290512500Y-57150000D03*
D14*
X295592500Y-57150000D03*
X285432500Y-57150000D03*
D15*
X293512047Y-61149954D02*
X294322953Y-59690046D01*
X287972776Y-62229328D02*
X288012224Y-61650672D01*
D16*
X291782500Y-52070000D03*
D17*
X289242500Y-52070000D03*
D11*
X262465040Y-62310520D03*
D12*
X262465040Y-52150520D03*
D13*
X271462500Y-57150000D03*
D14*
X276542500Y-57150000D03*
X266382500Y-57150000D03*
D15*
X274462047Y-61149954D02*
X275272953Y-59690046D01*
X268922776Y-62229328D02*
X268962224Y-61650672D01*
D16*
X272732500Y-52070000D03*
D17*
X270192500Y-52070000D03*
D11*
X243415040Y-62310520D03*
D12*
X243415040Y-52150520D03*
D13*
X252412500Y-57150000D03*
D14*
X257492500Y-57150000D03*
X247332500Y-57150000D03*
D15*
X255412047Y-61149954D02*
X256222953Y-59690046D01*
X249872776Y-62229328D02*
X249912224Y-61650672D01*
D16*
X253682500Y-52070000D03*
D17*
X251142500Y-52070000D03*
D11*
X224365040Y-62310520D03*
D12*
X224365040Y-52150520D03*
D13*
X233362500Y-57150000D03*
D14*
X238442500Y-57150000D03*
X228282500Y-57150000D03*
D15*
X236362047Y-61149954D02*
X237172953Y-59690046D01*
X230822776Y-62229328D02*
X230862224Y-61650672D01*
D16*
X234632500Y-52070000D03*
D17*
X232092500Y-52070000D03*
D11*
X205315040Y-62310520D03*
D12*
X205315040Y-52150520D03*
D13*
X214312500Y-57150000D03*
D14*
X219392500Y-57150000D03*
X209232500Y-57150000D03*
D15*
X217312047Y-61149954D02*
X218122953Y-59690046D01*
X211772776Y-62229328D02*
X211812224Y-61650672D01*
D16*
X215582500Y-52070000D03*
D17*
X213042500Y-52070000D03*
D11*
X186265040Y-62310520D03*
D12*
X186265040Y-52150520D03*
D13*
X195262500Y-57150000D03*
D14*
X200342500Y-57150000D03*
X190182500Y-57150000D03*
D15*
X198262047Y-61149954D02*
X199072953Y-59690046D01*
X192722776Y-62229328D02*
X192762224Y-61650672D01*
D16*
X196532500Y-52070000D03*
D17*
X193992500Y-52070000D03*
D11*
X167215040Y-62310520D03*
D12*
X167215040Y-52150520D03*
D13*
X176212500Y-57150000D03*
D14*
X181292500Y-57150000D03*
X171132500Y-57150000D03*
D15*
X179212047Y-61149954D02*
X180022953Y-59690046D01*
X173672776Y-62229328D02*
X173712224Y-61650672D01*
D16*
X177482500Y-52070000D03*
D17*
X174942500Y-52070000D03*
D11*
X148165040Y-62310520D03*
D12*
X148165040Y-52150520D03*
D13*
X157162500Y-57150000D03*
D14*
X162242500Y-57150000D03*
X152082500Y-57150000D03*
D15*
X160162047Y-61149954D02*
X160972953Y-59690046D01*
X154622776Y-62229328D02*
X154662224Y-61650672D01*
D16*
X158432500Y-52070000D03*
D17*
X155892500Y-52070000D03*
D11*
X129115040Y-62310520D03*
D12*
X129115040Y-52150520D03*
D13*
X138112500Y-57150000D03*
D14*
X143192500Y-57150000D03*
X133032500Y-57150000D03*
D15*
X141112047Y-61149954D02*
X141922953Y-59690046D01*
X135572776Y-62229328D02*
X135612224Y-61650672D01*
D16*
X139382500Y-52070000D03*
D17*
X136842500Y-52070000D03*
D11*
X110065040Y-62310520D03*
D12*
X110065040Y-52150520D03*
D13*
X119062500Y-57150000D03*
D14*
X124142500Y-57150000D03*
X113982500Y-57150000D03*
D15*
X122062047Y-61149954D02*
X122872953Y-59690046D01*
X116522776Y-62229328D02*
X116562224Y-61650672D01*
D16*
X120332500Y-52070000D03*
D17*
X117792500Y-52070000D03*
D11*
X86252540Y-62310520D03*
D12*
X86252540Y-52150520D03*
D13*
X95250000Y-57150000D03*
D14*
X100330000Y-57150000D03*
X90170000Y-57150000D03*
D15*
X98249547Y-61149954D02*
X99060453Y-59690046D01*
X92710276Y-62229328D02*
X92749724Y-61650672D01*
D16*
X96520000Y-52070000D03*
D17*
X93980000Y-52070000D03*
D11*
X67202540Y-62310520D03*
D12*
X67202540Y-52150520D03*
D13*
X76200000Y-57150000D03*
D14*
X81280000Y-57150000D03*
X71120000Y-57150000D03*
D15*
X79199547Y-61149954D02*
X80010453Y-59690046D01*
X73660276Y-62229328D02*
X73699724Y-61650672D01*
D16*
X77470000Y-52070000D03*
D17*
X74930000Y-52070000D03*
D11*
X48152540Y-62310520D03*
D12*
X48152540Y-52150520D03*
D13*
X57150000Y-57150000D03*
D14*
X62230000Y-57150000D03*
X52070000Y-57150000D03*
D15*
X60149547Y-61149954D02*
X60960453Y-59690046D01*
X54610276Y-62229328D02*
X54649724Y-61650672D01*
D16*
X58420000Y-52070000D03*
D17*
X55880000Y-52070000D03*
D11*
X33020000Y-65405000D03*
D12*
X43180000Y-65405000D03*
D13*
X38100000Y-57150000D03*
D14*
X43180000Y-57150000D03*
X33020000Y-57150000D03*
D15*
X41099547Y-61149954D02*
X41910453Y-59690046D01*
X35560276Y-62229328D02*
X35599724Y-61650672D01*
D16*
X39370000Y-52070000D03*
D17*
X36830000Y-52070000D03*
D11*
X419627540Y-33735520D03*
D12*
X419627540Y-23575520D03*
D13*
X428625000Y-28575000D03*
D14*
X433705000Y-28575000D03*
X423545000Y-28575000D03*
D15*
X431624547Y-32574954D02*
X432435453Y-31115046D01*
X426085276Y-33654328D02*
X426124724Y-33075672D01*
D16*
X429895000Y-23495000D03*
D17*
X427355000Y-23495000D03*
D11*
X400577540Y-33735520D03*
D12*
X400577540Y-23575520D03*
D13*
X409575000Y-28575000D03*
D14*
X414655000Y-28575000D03*
X404495000Y-28575000D03*
D15*
X412574547Y-32574954D02*
X413385453Y-31115046D01*
X407035276Y-33654328D02*
X407074724Y-33075672D01*
D16*
X410845000Y-23495000D03*
D17*
X408305000Y-23495000D03*
D11*
X376765040Y-33735520D03*
D12*
X376765040Y-23575520D03*
D13*
X385762500Y-28575000D03*
D14*
X390842500Y-28575000D03*
X380682500Y-28575000D03*
D15*
X388762047Y-32574954D02*
X389572953Y-31115046D01*
X383222776Y-33654328D02*
X383262224Y-33075672D01*
D16*
X387032500Y-23495000D03*
D17*
X384492500Y-23495000D03*
D11*
X357715040Y-33735520D03*
D12*
X357715040Y-23575520D03*
D13*
X366712500Y-28575000D03*
D14*
X371792500Y-28575000D03*
X361632500Y-28575000D03*
D15*
X369712047Y-32574954D02*
X370522953Y-31115046D01*
X364172776Y-33654328D02*
X364212224Y-33075672D01*
D16*
X367982500Y-23495000D03*
D17*
X365442500Y-23495000D03*
D11*
X338665040Y-33735520D03*
D12*
X338665040Y-23575520D03*
D13*
X347662500Y-28575000D03*
D14*
X352742500Y-28575000D03*
X342582500Y-28575000D03*
D15*
X350662047Y-32574954D02*
X351472953Y-31115046D01*
X345122776Y-33654328D02*
X345162224Y-33075672D01*
D16*
X348932500Y-23495000D03*
D17*
X346392500Y-23495000D03*
D11*
X319615040Y-33735520D03*
D12*
X319615040Y-23575520D03*
D13*
X328612500Y-28575000D03*
D14*
X333692500Y-28575000D03*
X323532500Y-28575000D03*
D15*
X331612047Y-32574954D02*
X332422953Y-31115046D01*
X326072776Y-33654328D02*
X326112224Y-33075672D01*
D16*
X329882500Y-23495000D03*
D17*
X327342500Y-23495000D03*
D11*
X281515040Y-33735520D03*
D12*
X281515040Y-23575520D03*
D13*
X290512500Y-28575000D03*
D14*
X295592500Y-28575000D03*
X285432500Y-28575000D03*
D15*
X293512047Y-32574954D02*
X294322953Y-31115046D01*
X287972776Y-33654328D02*
X288012224Y-33075672D01*
D16*
X291782500Y-23495000D03*
D17*
X289242500Y-23495000D03*
D11*
X262465040Y-33735520D03*
D12*
X262465040Y-23575520D03*
D13*
X271462500Y-28575000D03*
D14*
X276542500Y-28575000D03*
X266382500Y-28575000D03*
D15*
X274462047Y-32574954D02*
X275272953Y-31115046D01*
X268922776Y-33654328D02*
X268962224Y-33075672D01*
D16*
X272732500Y-23495000D03*
D17*
X270192500Y-23495000D03*
D11*
X243415040Y-33735520D03*
D12*
X243415040Y-23575520D03*
D13*
X252412500Y-28575000D03*
D14*
X257492500Y-28575000D03*
X247332500Y-28575000D03*
D15*
X255412047Y-32574954D02*
X256222953Y-31115046D01*
X249872776Y-33654328D02*
X249912224Y-33075672D01*
D16*
X253682500Y-23495000D03*
D17*
X251142500Y-23495000D03*
D11*
X224365040Y-33735520D03*
D12*
X224365040Y-23575520D03*
D13*
X233362500Y-28575000D03*
D14*
X238442500Y-28575000D03*
X228282500Y-28575000D03*
D15*
X236362047Y-32574954D02*
X237172953Y-31115046D01*
X230822776Y-33654328D02*
X230862224Y-33075672D01*
D16*
X234632500Y-23495000D03*
D17*
X232092500Y-23495000D03*
D11*
X186265040Y-33735520D03*
D12*
X186265040Y-23575520D03*
D13*
X195262500Y-28575000D03*
D14*
X200342500Y-28575000D03*
X190182500Y-28575000D03*
D15*
X198262047Y-32574954D02*
X199072953Y-31115046D01*
X192722776Y-33654328D02*
X192762224Y-33075672D01*
D16*
X196532500Y-23495000D03*
D17*
X193992500Y-23495000D03*
D11*
X167215040Y-33735520D03*
D12*
X167215040Y-23575520D03*
D13*
X176212500Y-28575000D03*
D14*
X181292500Y-28575000D03*
X171132500Y-28575000D03*
D15*
X179212047Y-32574954D02*
X180022953Y-31115046D01*
X173672776Y-33654328D02*
X173712224Y-33075672D01*
D16*
X177482500Y-23495000D03*
D17*
X174942500Y-23495000D03*
D11*
X148165040Y-33735520D03*
D12*
X148165040Y-23575520D03*
D13*
X157162500Y-28575000D03*
D14*
X162242500Y-28575000D03*
X152082500Y-28575000D03*
D15*
X160162047Y-32574954D02*
X160972953Y-31115046D01*
X154622776Y-33654328D02*
X154662224Y-33075672D01*
D16*
X158432500Y-23495000D03*
D17*
X155892500Y-23495000D03*
D11*
X129115040Y-33735520D03*
D12*
X129115040Y-23575520D03*
D13*
X138112500Y-28575000D03*
D14*
X143192500Y-28575000D03*
X133032500Y-28575000D03*
D15*
X141112047Y-32574954D02*
X141922953Y-31115046D01*
X135572776Y-33654328D02*
X135612224Y-33075672D01*
D16*
X139382500Y-23495000D03*
D17*
X136842500Y-23495000D03*
D11*
X110065040Y-33735520D03*
D12*
X110065040Y-23575520D03*
D13*
X119062500Y-28575000D03*
D14*
X124142500Y-28575000D03*
X113982500Y-28575000D03*
D15*
X122062047Y-32574954D02*
X122872953Y-31115046D01*
X116522776Y-33654328D02*
X116562224Y-33075672D01*
D16*
X120332500Y-23495000D03*
D17*
X117792500Y-23495000D03*
D11*
X67202540Y-33735520D03*
D12*
X67202540Y-23575520D03*
D13*
X76200000Y-28575000D03*
D14*
X81280000Y-28575000D03*
X71120000Y-28575000D03*
D15*
X79199547Y-32574954D02*
X80010453Y-31115046D01*
X73660276Y-33654328D02*
X73699724Y-33075672D01*
D16*
X77470000Y-23495000D03*
D17*
X74930000Y-23495000D03*
D11*
X48152540Y-33735520D03*
D12*
X48152540Y-23575520D03*
D13*
X57150000Y-28575000D03*
D14*
X62230000Y-28575000D03*
X52070000Y-28575000D03*
D15*
X60149547Y-32574954D02*
X60960453Y-31115046D01*
X54610276Y-33654328D02*
X54649724Y-33075672D01*
D16*
X58420000Y-23495000D03*
D17*
X55880000Y-23495000D03*
D11*
X33020000Y-36830000D03*
D12*
X43180000Y-36830000D03*
D13*
X38100000Y-28575000D03*
D14*
X43180000Y-28575000D03*
X33020000Y-28575000D03*
D15*
X41099547Y-32574954D02*
X41910453Y-31115046D01*
X35560276Y-33654328D02*
X35599724Y-33075672D01*
D16*
X39370000Y-23495000D03*
D17*
X36830000Y-23495000D03*
D18*
X396240000Y-102870000D03*
X398780000Y-102870000D03*
X401320000Y-102870000D03*
X403860000Y-102870000D03*
X406400000Y-102870000D03*
X408940000Y-102870000D03*
X411480000Y-102870000D03*
X414020000Y-102870000D03*
X416560000Y-102870000D03*
X419100000Y-102870000D03*
X421640000Y-102870000D03*
X424180000Y-102870000D03*
X426720000Y-102870000D03*
X429260000Y-102870000D03*
X429260000Y-87630000D03*
X426720000Y-87630000D03*
X424180000Y-87630000D03*
X421640000Y-87630000D03*
X419100000Y-87630000D03*
X416560000Y-87630000D03*
X414020000Y-87630000D03*
X411480000Y-87630000D03*
X408940000Y-87630000D03*
X406400000Y-87630000D03*
X403860000Y-87630000D03*
X401320000Y-87630000D03*
X398780000Y-87630000D03*
X396240000Y-87630000D03*
D19*
X392176000Y-25273000D03*
X69596000Y-122555000D03*
X401828000Y-91567000D03*
X400939000Y-73660000D03*
X306705000Y-105537000D03*
X222885000Y-140335000D03*
X247650000Y-140970000D03*
X187452000Y-68254500D03*
X425577000Y-68326000D03*
X203835000Y-134620000D03*
X377444000Y-116840000D03*
X260604000Y-141732000D03*
X280000000Y-135000000D03*
X298704000Y-129794000D03*
X420000000Y-124079000D03*
X396000000Y-106500000D03*
D20*
X392176000Y-25273000D02*
X377231890Y-25273000D01*
X377231890Y-25273000D02*
X376765040Y-24806150D01*
X376765040Y-24806150D02*
X376765040Y-23575520D01*
X357715040Y-23575520D02*
X358945670Y-23575520D01*
X374221229Y-24888701D02*
X375534410Y-23575520D01*
X358945670Y-23575520D02*
X360258851Y-24888701D01*
X360258851Y-24888701D02*
X374221229Y-24888701D01*
X375534410Y-23575520D02*
X376765040Y-23575520D01*
X338665040Y-23575520D02*
X339895670Y-23575520D01*
X339895670Y-23575520D02*
X341208851Y-24888701D01*
X341208851Y-24888701D02*
X355171229Y-24888701D01*
X355171229Y-24888701D02*
X356484410Y-23575520D01*
X356484410Y-23575520D02*
X357715040Y-23575520D01*
X319615040Y-23575520D02*
X320845670Y-23575520D01*
X320845670Y-23575520D02*
X322158851Y-24888701D01*
X322158851Y-24888701D02*
X336121229Y-24888701D01*
X336121229Y-24888701D02*
X337434410Y-23575520D01*
X337434410Y-23575520D02*
X338665040Y-23575520D01*
X281515040Y-23575520D02*
X282745670Y-23575520D01*
X284058851Y-24888701D02*
X317071229Y-24888701D01*
X282745670Y-23575520D02*
X284058851Y-24888701D01*
X317071229Y-24888701D02*
X318384410Y-23575520D01*
X318384410Y-23575520D02*
X319615040Y-23575520D01*
X262465040Y-23575520D02*
X263695670Y-23575520D01*
X263695670Y-23575520D02*
X265008851Y-24888701D01*
X265008851Y-24888701D02*
X278971229Y-24888701D01*
X278971229Y-24888701D02*
X280284410Y-23575520D01*
X280284410Y-23575520D02*
X281515040Y-23575520D01*
X243415040Y-23575520D02*
X244645670Y-23575520D01*
X244645670Y-23575520D02*
X245958851Y-24888701D01*
X245958851Y-24888701D02*
X259921229Y-24888701D01*
X259921229Y-24888701D02*
X261234410Y-23575520D01*
X261234410Y-23575520D02*
X262465040Y-23575520D01*
X224365040Y-23575520D02*
X225595670Y-23575520D01*
X225595670Y-23575520D02*
X226908851Y-24888701D01*
X226908851Y-24888701D02*
X240871229Y-24888701D01*
X240871229Y-24888701D02*
X242184410Y-23575520D01*
X242184410Y-23575520D02*
X243415040Y-23575520D01*
X186265040Y-23575520D02*
X187495670Y-23575520D01*
X223134410Y-23575520D02*
X224365040Y-23575520D01*
X187495670Y-23575520D02*
X188808851Y-24888701D01*
X188808851Y-24888701D02*
X221821229Y-24888701D01*
X221821229Y-24888701D02*
X223134410Y-23575520D01*
X167215040Y-23575520D02*
X168445670Y-23575520D01*
X168445670Y-23575520D02*
X169758851Y-24888701D01*
X169758851Y-24888701D02*
X183721229Y-24888701D01*
X183721229Y-24888701D02*
X185034410Y-23575520D01*
X185034410Y-23575520D02*
X186265040Y-23575520D01*
X148165040Y-23575520D02*
X149395670Y-23575520D01*
X149395670Y-23575520D02*
X150708851Y-24888701D01*
X150708851Y-24888701D02*
X164671229Y-24888701D01*
X164671229Y-24888701D02*
X165984410Y-23575520D01*
X165984410Y-23575520D02*
X167215040Y-23575520D01*
X48152540Y-23575520D02*
X49383170Y-23575520D01*
X49383170Y-23575520D02*
X50696351Y-24888701D01*
X65971910Y-23575520D02*
X67202540Y-23575520D01*
X50696351Y-24888701D02*
X64658729Y-24888701D01*
X64658729Y-24888701D02*
X65971910Y-23575520D01*
X129115040Y-23575520D02*
X130345670Y-23575520D01*
X130345670Y-23575520D02*
X131658851Y-24888701D01*
X131658851Y-24888701D02*
X145621229Y-24888701D01*
X145621229Y-24888701D02*
X146934410Y-23575520D01*
X146934410Y-23575520D02*
X148165040Y-23575520D01*
X110065040Y-23575520D02*
X111295670Y-23575520D01*
X111295670Y-23575520D02*
X112608851Y-24888701D01*
X112608851Y-24888701D02*
X126571229Y-24888701D01*
X126571229Y-24888701D02*
X127884410Y-23575520D01*
X127884410Y-23575520D02*
X129115040Y-23575520D01*
X67202540Y-23575520D02*
X68433170Y-23575520D01*
X68433170Y-23575520D02*
X69746351Y-24888701D01*
X69746351Y-24888701D02*
X107521229Y-24888701D01*
X107521229Y-24888701D02*
X108834410Y-23575520D01*
X108834410Y-23575520D02*
X110065040Y-23575520D01*
X48152540Y-33735520D02*
X54259480Y-33735520D01*
X54259480Y-33735520D02*
X54630000Y-33365000D01*
X67202540Y-33735520D02*
X73309480Y-33735520D01*
X73309480Y-33735520D02*
X73680000Y-33365000D01*
X110065040Y-33735520D02*
X116171980Y-33735520D01*
X116171980Y-33735520D02*
X116542500Y-33365000D01*
X129115040Y-33735520D02*
X135221980Y-33735520D01*
X135221980Y-33735520D02*
X135592500Y-33365000D01*
X148165040Y-33735520D02*
X154271980Y-33735520D01*
X154271980Y-33735520D02*
X154642500Y-33365000D01*
X167215040Y-33735520D02*
X173321980Y-33735520D01*
X173321980Y-33735520D02*
X173692500Y-33365000D01*
X186265040Y-33735520D02*
X192371980Y-33735520D01*
X192371980Y-33735520D02*
X192742500Y-33365000D01*
X224365040Y-33735520D02*
X230471980Y-33735520D01*
X230471980Y-33735520D02*
X230842500Y-33365000D01*
X243415040Y-33735520D02*
X244264669Y-34585149D01*
X244264669Y-34585149D02*
X248672351Y-34585149D01*
X248672351Y-34585149D02*
X248793890Y-34463610D01*
X248793890Y-34463610D02*
X249892500Y-33365000D01*
X268942500Y-33365000D02*
X262835560Y-33365000D01*
X262835560Y-33365000D02*
X262465040Y-33735520D01*
X281515040Y-33735520D02*
X287621980Y-33735520D01*
X287621980Y-33735520D02*
X287992500Y-33365000D01*
X319615040Y-33735520D02*
X325721980Y-33735520D01*
X325721980Y-33735520D02*
X326092500Y-33365000D01*
X338665040Y-33735520D02*
X344771980Y-33735520D01*
X344771980Y-33735520D02*
X345142500Y-33365000D01*
X357715040Y-33735520D02*
X363821980Y-33735520D01*
X363821980Y-33735520D02*
X364192500Y-33365000D01*
X376765040Y-33735520D02*
X382871980Y-33735520D01*
X382871980Y-33735520D02*
X383242500Y-33365000D01*
X400577540Y-33735520D02*
X406684480Y-33735520D01*
X406684480Y-33735520D02*
X407055000Y-33365000D01*
X238589940Y-122500000D02*
X295865140Y-122500000D01*
X295865140Y-122500000D02*
X301715660Y-128350520D01*
X301715660Y-128350520D02*
X302946290Y-128350520D01*
X232739420Y-128350520D02*
X238589940Y-122500000D01*
X205000000Y-129663701D02*
X228964979Y-129663701D01*
X186500000Y-136500000D02*
X198163701Y-136500000D01*
X198163701Y-136500000D02*
X205000000Y-129663701D01*
X180500000Y-130500000D02*
X186500000Y-136500000D01*
X163451400Y-130500000D02*
X180500000Y-130500000D01*
X161301920Y-128350520D02*
X163451400Y-130500000D01*
X108566180Y-131000000D02*
X111215660Y-128350520D01*
X111215660Y-128350520D02*
X112446290Y-128350520D01*
X85929370Y-131000000D02*
X108566180Y-131000000D01*
X81160000Y-125000000D02*
X81160000Y-126230630D01*
X81160000Y-126230630D02*
X85929370Y-131000000D01*
X81160000Y-125000000D02*
X76137322Y-125000000D01*
X76137322Y-125000000D02*
X66137322Y-135000000D01*
X66137322Y-135000000D02*
X66000000Y-135000000D01*
X59000000Y-135000000D02*
X66000000Y-135000000D01*
X54962394Y-130962394D02*
X59000000Y-135000000D01*
X39858170Y-128350520D02*
X42470044Y-130962394D01*
X42470044Y-130962394D02*
X54962394Y-130962394D01*
X400577540Y-23575520D02*
X401808170Y-23575520D01*
X401808170Y-23575520D02*
X403121351Y-24888701D01*
X403121351Y-24888701D02*
X417083729Y-24888701D01*
X417083729Y-24888701D02*
X418396910Y-23575520D01*
X418396910Y-23575520D02*
X419627540Y-23575520D01*
X231508790Y-128350520D02*
X232739420Y-128350520D01*
X400577540Y-128350520D02*
X400577540Y-129581150D01*
X400577540Y-129581150D02*
X400660091Y-129663701D01*
X400660091Y-129663701D02*
X417083729Y-129663701D01*
X417083729Y-129663701D02*
X418396910Y-128350520D01*
X418396910Y-128350520D02*
X419627540Y-128350520D01*
X381527540Y-128350520D02*
X382758170Y-128350520D01*
X382758170Y-128350520D02*
X384071351Y-129663701D01*
X384071351Y-129663701D02*
X398033729Y-129663701D01*
X398033729Y-129663701D02*
X399346910Y-128350520D01*
X399346910Y-128350520D02*
X400577540Y-128350520D01*
X350571290Y-128350520D02*
X351801920Y-128350520D01*
X351801920Y-128350520D02*
X353115101Y-129663701D01*
X378983729Y-129663701D02*
X380296910Y-128350520D01*
X353115101Y-129663701D02*
X378983729Y-129663701D01*
X380296910Y-128350520D02*
X381527540Y-128350520D01*
X326758790Y-128350520D02*
X327989420Y-128350520D01*
X327989420Y-128350520D02*
X329302601Y-129663701D01*
X329302601Y-129663701D02*
X348027479Y-129663701D01*
X348027479Y-129663701D02*
X349340660Y-128350520D01*
X349340660Y-128350520D02*
X350571290Y-128350520D01*
X302946290Y-128350520D02*
X304176920Y-128350520D01*
X304176920Y-128350520D02*
X305490101Y-129663701D01*
X305490101Y-129663701D02*
X324214979Y-129663701D01*
X324214979Y-129663701D02*
X325528160Y-128350520D01*
X325528160Y-128350520D02*
X326758790Y-128350520D01*
X160071290Y-128350520D02*
X161301920Y-128350520D01*
X228964979Y-129663701D02*
X230278160Y-128350520D01*
X230278160Y-128350520D02*
X231508790Y-128350520D01*
X136258790Y-128350520D02*
X137489420Y-128350520D01*
X137489420Y-128350520D02*
X138802601Y-129663701D01*
X138802601Y-129663701D02*
X157527479Y-129663701D01*
X157527479Y-129663701D02*
X158840660Y-128350520D01*
X158840660Y-128350520D02*
X160071290Y-128350520D01*
X112446290Y-128350520D02*
X113676920Y-128350520D01*
X113676920Y-128350520D02*
X114990101Y-129663701D01*
X133714979Y-129663701D02*
X135028160Y-128350520D01*
X114990101Y-129663701D02*
X133714979Y-129663701D01*
X135028160Y-128350520D02*
X136258790Y-128350520D01*
X38627540Y-128350520D02*
X39858170Y-128350520D01*
X419627540Y-33735520D02*
X425734480Y-33735520D01*
X425734480Y-33735520D02*
X426105000Y-33365000D01*
X338665040Y-52150520D02*
X338665040Y-53381150D01*
X338665040Y-53381150D02*
X338747591Y-53463701D01*
X338747591Y-53463701D02*
X364696229Y-53463701D01*
X364696229Y-53463701D02*
X366009410Y-52150520D01*
X366009410Y-52150520D02*
X367240040Y-52150520D01*
X319615040Y-52150520D02*
X320845670Y-52150520D01*
X337434410Y-52150520D02*
X338665040Y-52150520D01*
X320845670Y-52150520D02*
X322158851Y-53463701D01*
X322158851Y-53463701D02*
X336121229Y-53463701D01*
X336121229Y-53463701D02*
X337434410Y-52150520D01*
X300565040Y-52150520D02*
X301795670Y-52150520D01*
X301795670Y-52150520D02*
X303108851Y-53463701D01*
X317071229Y-53463701D02*
X318384410Y-52150520D01*
X318384410Y-52150520D02*
X319615040Y-52150520D01*
X303108851Y-53463701D02*
X317071229Y-53463701D01*
X281515040Y-52150520D02*
X282745670Y-52150520D01*
X282745670Y-52150520D02*
X284058851Y-53463701D01*
X284058851Y-53463701D02*
X298021229Y-53463701D01*
X298021229Y-53463701D02*
X299334410Y-52150520D01*
X299334410Y-52150520D02*
X300565040Y-52150520D01*
X262465040Y-52150520D02*
X263695670Y-52150520D01*
X263695670Y-52150520D02*
X265008851Y-53463701D01*
X265008851Y-53463701D02*
X278971229Y-53463701D01*
X278971229Y-53463701D02*
X280284410Y-52150520D01*
X280284410Y-52150520D02*
X281515040Y-52150520D01*
X265008851Y-53463701D02*
X279276299Y-53463701D01*
X243415040Y-52150520D02*
X244645670Y-52150520D01*
X244645670Y-52150520D02*
X245958851Y-53463701D01*
X261234410Y-52150520D02*
X262465040Y-52150520D01*
X245958851Y-53463701D02*
X259921229Y-53463701D01*
X259921229Y-53463701D02*
X261234410Y-52150520D01*
X224365040Y-52150520D02*
X225595670Y-52150520D01*
X225595670Y-52150520D02*
X226908851Y-53463701D01*
X226908851Y-53463701D02*
X240871229Y-53463701D01*
X240871229Y-53463701D02*
X242184410Y-52150520D01*
X242184410Y-52150520D02*
X243415040Y-52150520D01*
X205315040Y-52150520D02*
X206545670Y-52150520D01*
X206545670Y-52150520D02*
X207858851Y-53463701D01*
X207858851Y-53463701D02*
X221821229Y-53463701D01*
X223134410Y-52150520D02*
X224365040Y-52150520D01*
X221821229Y-53463701D02*
X223134410Y-52150520D01*
X186265040Y-52150520D02*
X187495670Y-52150520D01*
X187495670Y-52150520D02*
X188808851Y-53463701D01*
X188808851Y-53463701D02*
X202771229Y-53463701D01*
X202771229Y-53463701D02*
X204084410Y-52150520D01*
X204084410Y-52150520D02*
X205315040Y-52150520D01*
X167215040Y-52150520D02*
X168445670Y-52150520D01*
X168445670Y-52150520D02*
X169758851Y-53463701D01*
X169758851Y-53463701D02*
X183721229Y-53463701D01*
X183721229Y-53463701D02*
X185034410Y-52150520D01*
X185034410Y-52150520D02*
X186265040Y-52150520D01*
X148165040Y-52150520D02*
X149395670Y-52150520D01*
X149395670Y-52150520D02*
X150708851Y-53463701D01*
X150708851Y-53463701D02*
X164671229Y-53463701D01*
X164671229Y-53463701D02*
X165984410Y-52150520D01*
X165984410Y-52150520D02*
X167215040Y-52150520D01*
X129115040Y-52150520D02*
X130345670Y-52150520D01*
X130345670Y-52150520D02*
X131658851Y-53463701D01*
X131658851Y-53463701D02*
X145621229Y-53463701D01*
X145621229Y-53463701D02*
X146934410Y-52150520D01*
X146934410Y-52150520D02*
X148165040Y-52150520D01*
X110065040Y-52150520D02*
X111295670Y-52150520D01*
X111295670Y-52150520D02*
X112608851Y-53463701D01*
X112608851Y-53463701D02*
X126571229Y-53463701D01*
X126571229Y-53463701D02*
X127884410Y-52150520D01*
X127884410Y-52150520D02*
X129115040Y-52150520D01*
X86252540Y-52150520D02*
X87483170Y-52150520D01*
X108834410Y-52150520D02*
X110065040Y-52150520D01*
X87483170Y-52150520D02*
X88796351Y-53463701D01*
X88796351Y-53463701D02*
X107521229Y-53463701D01*
X107521229Y-53463701D02*
X108834410Y-52150520D01*
X67202540Y-52150520D02*
X68433170Y-52150520D01*
X68433170Y-52150520D02*
X69746351Y-53463701D01*
X69746351Y-53463701D02*
X83708729Y-53463701D01*
X83708729Y-53463701D02*
X85021910Y-52150520D01*
X85021910Y-52150520D02*
X86252540Y-52150520D01*
X48152540Y-52150520D02*
X49383170Y-52150520D01*
X49383170Y-52150520D02*
X50696351Y-53463701D01*
X50696351Y-53463701D02*
X64658729Y-53463701D01*
X64658729Y-53463701D02*
X65971910Y-52150520D01*
X65971910Y-52150520D02*
X67202540Y-52150520D01*
X48152540Y-62310520D02*
X54259480Y-62310520D01*
X54259480Y-62310520D02*
X54630000Y-61940000D01*
X67202540Y-62310520D02*
X73309480Y-62310520D01*
X73309480Y-62310520D02*
X73680000Y-61940000D01*
X86252540Y-62310520D02*
X92359480Y-62310520D01*
X92359480Y-62310520D02*
X92730000Y-61940000D01*
X110065040Y-62310520D02*
X116171980Y-62310520D01*
X116171980Y-62310520D02*
X116542500Y-61940000D01*
X129115040Y-62310520D02*
X135221980Y-62310520D01*
X135221980Y-62310520D02*
X135592500Y-61940000D01*
X148165040Y-62310520D02*
X154271980Y-62310520D01*
X154271980Y-62310520D02*
X154642500Y-61940000D01*
X167215040Y-62310520D02*
X173321980Y-62310520D01*
X173321980Y-62310520D02*
X173692500Y-61940000D01*
X186265040Y-62310520D02*
X192371980Y-62310520D01*
X192371980Y-62310520D02*
X192742500Y-61940000D01*
X205315040Y-62310520D02*
X211421980Y-62310520D01*
X211421980Y-62310520D02*
X211792500Y-61940000D01*
X224365040Y-62310520D02*
X230471980Y-62310520D01*
X230471980Y-62310520D02*
X230842500Y-61940000D01*
X243415040Y-62310520D02*
X249521980Y-62310520D01*
X249521980Y-62310520D02*
X249892500Y-61940000D01*
X262465040Y-62310520D02*
X268571980Y-62310520D01*
X268571980Y-62310520D02*
X268942500Y-61940000D01*
X281515040Y-62310520D02*
X287621980Y-62310520D01*
X287621980Y-62310520D02*
X287992500Y-61940000D01*
X300565040Y-62310520D02*
X306671980Y-62310520D01*
X306671980Y-62310520D02*
X307042500Y-61940000D01*
X319615040Y-62310520D02*
X325721980Y-62310520D01*
X325721980Y-62310520D02*
X326092500Y-61940000D01*
X338665040Y-62310520D02*
X344771980Y-62310520D01*
X344771980Y-62310520D02*
X345142500Y-61940000D01*
X367240040Y-62310520D02*
X373346980Y-62310520D01*
X373346980Y-62310520D02*
X373717500Y-61940000D01*
X400577540Y-62310520D02*
X406684480Y-62310520D01*
X406684480Y-62310520D02*
X407055000Y-61940000D01*
X419627540Y-62310520D02*
X425734480Y-62310520D01*
X425734480Y-62310520D02*
X426105000Y-61940000D01*
X271990040Y-71200520D02*
X273220670Y-71200520D01*
X274533851Y-72513701D02*
X288496229Y-72513701D01*
X273220670Y-71200520D02*
X274533851Y-72513701D01*
X288496229Y-72513701D02*
X289809410Y-71200520D01*
X289809410Y-71200520D02*
X291040040Y-71200520D01*
X252940040Y-71200520D02*
X254170670Y-71200520D01*
X254170670Y-71200520D02*
X255483851Y-72513701D01*
X270759410Y-71200520D02*
X271990040Y-71200520D01*
X255483851Y-72513701D02*
X269446229Y-72513701D01*
X269446229Y-72513701D02*
X270759410Y-71200520D01*
X214840040Y-71200520D02*
X216070670Y-71200520D01*
X216070670Y-71200520D02*
X217383851Y-72513701D01*
X217383851Y-72513701D02*
X231346229Y-72513701D01*
X231346229Y-72513701D02*
X232659410Y-71200520D01*
X232659410Y-71200520D02*
X233890040Y-71200520D01*
X195790040Y-71200520D02*
X197020670Y-71200520D01*
X197020670Y-71200520D02*
X198333851Y-72513701D01*
X198333851Y-72513701D02*
X212296229Y-72513701D01*
X212296229Y-72513701D02*
X213609410Y-71200520D01*
X213609410Y-71200520D02*
X214840040Y-71200520D01*
X233890040Y-71200520D02*
X235120670Y-71200520D01*
X235120670Y-71200520D02*
X236433851Y-72513701D01*
X236433851Y-72513701D02*
X250396229Y-72513701D01*
X250396229Y-72513701D02*
X251709410Y-71200520D01*
X251709410Y-71200520D02*
X252940040Y-71200520D01*
X176740040Y-71200520D02*
X177970670Y-71200520D01*
X177970670Y-71200520D02*
X179283851Y-72513701D01*
X179283851Y-72513701D02*
X193246229Y-72513701D01*
X193246229Y-72513701D02*
X194559410Y-71200520D01*
X194559410Y-71200520D02*
X195790040Y-71200520D01*
X157690040Y-71200520D02*
X158920670Y-71200520D01*
X158920670Y-71200520D02*
X160233851Y-72513701D01*
X160233851Y-72513701D02*
X174196229Y-72513701D01*
X174196229Y-72513701D02*
X175509410Y-71200520D01*
X175509410Y-71200520D02*
X176740040Y-71200520D01*
X86252540Y-80725520D02*
X86252540Y-79494890D01*
X86252540Y-79494890D02*
X94546910Y-71200520D01*
X94546910Y-71200520D02*
X113596910Y-71200520D01*
X113596910Y-71200520D02*
X114827540Y-71200520D01*
X67202540Y-71200520D02*
X68433170Y-71200520D01*
X68433170Y-71200520D02*
X71045044Y-73812394D01*
X71045044Y-73812394D02*
X80734412Y-73812394D01*
X80734412Y-73812394D02*
X86252540Y-79330522D01*
X86252540Y-79330522D02*
X86252540Y-79494890D01*
X138640040Y-71200520D02*
X139870670Y-71200520D01*
X139870670Y-71200520D02*
X141183851Y-72513701D01*
X141183851Y-72513701D02*
X155146229Y-72513701D01*
X155146229Y-72513701D02*
X156459410Y-71200520D01*
X156459410Y-71200520D02*
X157690040Y-71200520D01*
X114827540Y-71200520D02*
X116058170Y-71200520D01*
X116058170Y-71200520D02*
X117371351Y-72513701D01*
X117371351Y-72513701D02*
X136096229Y-72513701D01*
X136096229Y-72513701D02*
X137409410Y-71200520D01*
X137409410Y-71200520D02*
X138640040Y-71200520D01*
X48152540Y-71200520D02*
X49383170Y-71200520D01*
X49383170Y-71200520D02*
X50696351Y-72513701D01*
X50696351Y-72513701D02*
X64658729Y-72513701D01*
X65971910Y-71200520D02*
X67202540Y-71200520D01*
X64658729Y-72513701D02*
X65971910Y-71200520D01*
X291040040Y-71200520D02*
X292270670Y-71200520D01*
X292270670Y-71200520D02*
X293583851Y-72513701D01*
X293583851Y-72513701D02*
X307546229Y-72513701D01*
X307546229Y-72513701D02*
X308859410Y-71200520D01*
X308859410Y-71200520D02*
X310090040Y-71200520D01*
X310090040Y-71200520D02*
X311320670Y-71200520D01*
X311320670Y-71200520D02*
X312633851Y-72513701D01*
X312633851Y-72513701D02*
X326596229Y-72513701D01*
X326596229Y-72513701D02*
X327909410Y-71200520D01*
X327909410Y-71200520D02*
X329140040Y-71200520D01*
X329140040Y-71200520D02*
X330370670Y-71200520D01*
X330370670Y-71200520D02*
X331683851Y-72513701D01*
X331683851Y-72513701D02*
X345646229Y-72513701D01*
X345646229Y-72513701D02*
X346959410Y-71200520D01*
X346959410Y-71200520D02*
X348190040Y-71200520D01*
X348190040Y-71200520D02*
X349420670Y-71200520D01*
X349420670Y-71200520D02*
X350733851Y-72513701D01*
X350733851Y-72513701D02*
X369458729Y-72513701D01*
X369458729Y-72513701D02*
X370771910Y-71200520D01*
X370771910Y-71200520D02*
X372002540Y-71200520D01*
X48152540Y-81360520D02*
X54259480Y-81360520D01*
X54259480Y-81360520D02*
X54630000Y-80990000D01*
X67202540Y-81360520D02*
X73309480Y-81360520D01*
X73309480Y-81360520D02*
X73680000Y-80990000D01*
X86252540Y-90885520D02*
X92359480Y-90885520D01*
X92359480Y-90885520D02*
X92730000Y-90515000D01*
X114827540Y-81360520D02*
X120934480Y-81360520D01*
X120934480Y-81360520D02*
X121305000Y-80990000D01*
X138640040Y-81360520D02*
X144746980Y-81360520D01*
X144746980Y-81360520D02*
X145117500Y-80990000D01*
X157690040Y-81360520D02*
X163796980Y-81360520D01*
X163796980Y-81360520D02*
X164167500Y-80990000D01*
X176740040Y-81360520D02*
X182846980Y-81360520D01*
X182846980Y-81360520D02*
X183217500Y-80990000D01*
X195790040Y-81360520D02*
X201896980Y-81360520D01*
X201896980Y-81360520D02*
X202267500Y-80990000D01*
X214840040Y-81360520D02*
X220946980Y-81360520D01*
X220946980Y-81360520D02*
X221317500Y-80990000D01*
X233890040Y-81360520D02*
X239996980Y-81360520D01*
X239996980Y-81360520D02*
X240367500Y-80990000D01*
X252940040Y-81360520D02*
X259046980Y-81360520D01*
X259046980Y-81360520D02*
X259417500Y-80990000D01*
X271990040Y-81360520D02*
X278096980Y-81360520D01*
X278096980Y-81360520D02*
X278467500Y-80990000D01*
X291040040Y-81360520D02*
X297146980Y-81360520D01*
X297146980Y-81360520D02*
X297517500Y-80990000D01*
X310090040Y-81360520D02*
X316196980Y-81360520D01*
X316196980Y-81360520D02*
X316567500Y-80990000D01*
X329140040Y-81360520D02*
X335246980Y-81360520D01*
X335246980Y-81360520D02*
X335617500Y-80990000D01*
X348190040Y-81360520D02*
X354296980Y-81360520D01*
X354296980Y-81360520D02*
X354667500Y-80990000D01*
X372002540Y-81360520D02*
X378109480Y-81360520D01*
X378109480Y-81360520D02*
X378480000Y-80990000D01*
X400577540Y-81360520D02*
X406684480Y-81360520D01*
X406684480Y-81360520D02*
X407055000Y-80990000D01*
X60960000Y-103124000D02*
X67202540Y-96881460D01*
X67202540Y-96881460D02*
X67202540Y-90250520D01*
X49025889Y-103124000D02*
X60960000Y-103124000D01*
X48152540Y-90250520D02*
X48152540Y-93174558D01*
X48152540Y-93174558D02*
X46909209Y-94417889D01*
X46909209Y-94417889D02*
X46909209Y-101007320D01*
X46909209Y-101007320D02*
X49025889Y-103124000D01*
X69596000Y-122555000D02*
X83753690Y-122555000D01*
X83753690Y-122555000D02*
X86252540Y-120056150D01*
X86252540Y-120056150D02*
X86252540Y-118825520D01*
X397510000Y-91563701D02*
X400276299Y-91563701D01*
X367402601Y-91563701D02*
X397510000Y-91563701D01*
X397510000Y-91563701D02*
X401824701Y-91563701D01*
X401824701Y-91563701D02*
X401828000Y-91567000D01*
X364858790Y-90250520D02*
X366089420Y-90250520D01*
X366089420Y-90250520D02*
X367402601Y-91563701D01*
X403860000Y-87980000D02*
X403860000Y-87630000D01*
X238652540Y-90250520D02*
X239883170Y-90250520D01*
X239883170Y-90250520D02*
X241196351Y-91563701D01*
X241196351Y-91563701D02*
X255158729Y-91563701D01*
X255158729Y-91563701D02*
X256471910Y-90250520D01*
X256471910Y-90250520D02*
X257702540Y-90250520D01*
X219602540Y-90250520D02*
X220833170Y-90250520D01*
X220833170Y-90250520D02*
X222146351Y-91563701D01*
X222146351Y-91563701D02*
X236108729Y-91563701D01*
X236108729Y-91563701D02*
X237421910Y-90250520D01*
X237421910Y-90250520D02*
X238652540Y-90250520D01*
X200552540Y-90250520D02*
X201783170Y-90250520D01*
X217058729Y-91563701D02*
X218371910Y-90250520D01*
X201783170Y-90250520D02*
X203096351Y-91563701D01*
X203096351Y-91563701D02*
X217058729Y-91563701D01*
X218371910Y-90250520D02*
X219602540Y-90250520D01*
X333902540Y-90250520D02*
X335133170Y-90250520D01*
X335133170Y-90250520D02*
X336446351Y-91563701D01*
X363628160Y-90250520D02*
X364858790Y-90250520D01*
X336446351Y-91563701D02*
X362314979Y-91563701D01*
X362314979Y-91563701D02*
X363628160Y-90250520D01*
X314852540Y-90250520D02*
X314852540Y-91481150D01*
X314852540Y-91481150D02*
X314935091Y-91563701D01*
X331358729Y-91563701D02*
X332671910Y-90250520D01*
X314935091Y-91563701D02*
X331358729Y-91563701D01*
X332671910Y-90250520D02*
X333902540Y-90250520D01*
X295802540Y-90250520D02*
X297033170Y-90250520D01*
X297033170Y-90250520D02*
X298346351Y-91563701D01*
X298346351Y-91563701D02*
X312308729Y-91563701D01*
X312308729Y-91563701D02*
X313621910Y-90250520D01*
X313621910Y-90250520D02*
X314852540Y-90250520D01*
X276752540Y-90250520D02*
X277983170Y-90250520D01*
X277983170Y-90250520D02*
X279296351Y-91563701D01*
X279296351Y-91563701D02*
X293258729Y-91563701D01*
X293258729Y-91563701D02*
X294571910Y-90250520D01*
X294571910Y-90250520D02*
X295802540Y-90250520D01*
X257702540Y-90250520D02*
X258933170Y-90250520D01*
X258933170Y-90250520D02*
X260246351Y-91563701D01*
X260246351Y-91563701D02*
X274208729Y-91563701D01*
X274208729Y-91563701D02*
X275521910Y-90250520D01*
X275521910Y-90250520D02*
X276752540Y-90250520D01*
X181502540Y-90250520D02*
X182733170Y-90250520D01*
X199321910Y-90250520D02*
X200552540Y-90250520D01*
X182733170Y-90250520D02*
X184046351Y-91563701D01*
X184046351Y-91563701D02*
X198008729Y-91563701D01*
X198008729Y-91563701D02*
X199321910Y-90250520D01*
X162452540Y-90250520D02*
X163683170Y-90250520D01*
X178958729Y-91563701D02*
X180271910Y-90250520D01*
X163683170Y-90250520D02*
X164996351Y-91563701D01*
X164996351Y-91563701D02*
X178958729Y-91563701D01*
X180271910Y-90250520D02*
X181502540Y-90250520D01*
X143402540Y-90250520D02*
X144633170Y-90250520D01*
X144633170Y-90250520D02*
X145946351Y-91563701D01*
X145946351Y-91563701D02*
X159908729Y-91563701D01*
X159908729Y-91563701D02*
X161221910Y-90250520D01*
X161221910Y-90250520D02*
X162452540Y-90250520D01*
X117208790Y-90250520D02*
X118439420Y-90250520D01*
X118439420Y-90250520D02*
X119752601Y-91563701D01*
X119752601Y-91563701D02*
X140858729Y-91563701D01*
X140858729Y-91563701D02*
X142171910Y-90250520D01*
X142171910Y-90250520D02*
X143402540Y-90250520D01*
X117208790Y-90250520D02*
X117208790Y-91481150D01*
X117208790Y-91481150D02*
X110309418Y-98380522D01*
X110309418Y-98380522D02*
X86252540Y-98380522D01*
X67202540Y-90250520D02*
X68433170Y-90250520D01*
X68433170Y-90250520D02*
X71045044Y-92862394D01*
X71045044Y-92862394D02*
X80734412Y-92862394D01*
X80734412Y-92862394D02*
X86252540Y-98380522D01*
X419627540Y-81360520D02*
X425734480Y-81360520D01*
X425734480Y-81360520D02*
X426105000Y-80990000D01*
X400939000Y-73660000D02*
X418398690Y-73660000D01*
X418398690Y-73660000D02*
X419627540Y-72431150D01*
X419627540Y-72431150D02*
X419627540Y-71200520D01*
X67202540Y-109300520D02*
X68433170Y-109300520D01*
X68433170Y-109300520D02*
X69746351Y-110613701D01*
X69746351Y-110613701D02*
X119427479Y-110613701D01*
X119427479Y-110613701D02*
X120740660Y-109300520D01*
X120740660Y-109300520D02*
X121971290Y-109300520D01*
X360096290Y-109300520D02*
X361326920Y-109300520D01*
X361326920Y-109300520D02*
X362640101Y-110613701D01*
X362640101Y-110613701D02*
X398033729Y-110613701D01*
X398033729Y-110613701D02*
X399346910Y-109300520D01*
X399346910Y-109300520D02*
X400577540Y-109300520D01*
X406400000Y-87630000D02*
X406400000Y-87280000D01*
X210077540Y-109300520D02*
X211308170Y-109300520D01*
X211308170Y-109300520D02*
X212621351Y-110613701D01*
X212621351Y-110613701D02*
X226583729Y-110613701D01*
X226583729Y-110613701D02*
X227896910Y-109300520D01*
X227896910Y-109300520D02*
X229127540Y-109300520D01*
X191027540Y-109300520D02*
X192258170Y-109300520D01*
X192258170Y-109300520D02*
X193571351Y-110613701D01*
X207533729Y-110613701D02*
X208846910Y-109300520D01*
X208846910Y-109300520D02*
X210077540Y-109300520D01*
X193571351Y-110613701D02*
X207533729Y-110613701D01*
X324377540Y-109300520D02*
X324377540Y-110531150D01*
X324377540Y-110531150D02*
X324460091Y-110613701D01*
X324460091Y-110613701D02*
X357552479Y-110613701D01*
X357552479Y-110613701D02*
X358865660Y-109300520D01*
X358865660Y-109300520D02*
X360096290Y-109300520D01*
X305327540Y-109300520D02*
X306558170Y-109300520D01*
X306558170Y-109300520D02*
X307871351Y-110613701D01*
X307871351Y-110613701D02*
X321833729Y-110613701D01*
X321833729Y-110613701D02*
X323146910Y-109300520D01*
X323146910Y-109300520D02*
X324377540Y-109300520D01*
X286277540Y-109300520D02*
X287508170Y-109300520D01*
X287508170Y-109300520D02*
X288821351Y-110613701D01*
X288821351Y-110613701D02*
X302783729Y-110613701D01*
X302783729Y-110613701D02*
X304096910Y-109300520D01*
X304096910Y-109300520D02*
X305327540Y-109300520D01*
X267227540Y-109300520D02*
X267227540Y-110531150D01*
X267227540Y-110531150D02*
X267310091Y-110613701D01*
X267310091Y-110613701D02*
X283733729Y-110613701D01*
X283733729Y-110613701D02*
X285046910Y-109300520D01*
X285046910Y-109300520D02*
X286277540Y-109300520D01*
X248177540Y-109300520D02*
X249408170Y-109300520D01*
X249408170Y-109300520D02*
X250721351Y-110613701D01*
X250721351Y-110613701D02*
X264683729Y-110613701D01*
X264683729Y-110613701D02*
X265996910Y-109300520D01*
X265996910Y-109300520D02*
X267227540Y-109300520D01*
X229127540Y-109300520D02*
X230358170Y-109300520D01*
X230358170Y-109300520D02*
X231671351Y-110613701D01*
X231671351Y-110613701D02*
X245633729Y-110613701D01*
X245633729Y-110613701D02*
X246946910Y-109300520D01*
X246946910Y-109300520D02*
X248177540Y-109300520D01*
X171977540Y-109300520D02*
X173208170Y-109300520D01*
X174521351Y-110613701D02*
X188483729Y-110613701D01*
X173208170Y-109300520D02*
X174521351Y-110613701D01*
X188483729Y-110613701D02*
X189796910Y-109300520D01*
X189796910Y-109300520D02*
X191027540Y-109300520D01*
X152927540Y-109300520D02*
X154158170Y-109300520D01*
X154158170Y-109300520D02*
X155471351Y-110613701D01*
X155471351Y-110613701D02*
X169433729Y-110613701D01*
X169433729Y-110613701D02*
X170746910Y-109300520D01*
X170746910Y-109300520D02*
X171977540Y-109300520D01*
X121971290Y-109300520D02*
X123201920Y-109300520D01*
X123201920Y-109300520D02*
X124515101Y-110613701D01*
X124515101Y-110613701D02*
X150383729Y-110613701D01*
X150383729Y-110613701D02*
X151696910Y-109300520D01*
X151696910Y-109300520D02*
X152927540Y-109300520D01*
X48152540Y-109300520D02*
X49383170Y-109300520D01*
X49383170Y-109300520D02*
X50696351Y-110613701D01*
X50696351Y-110613701D02*
X64658729Y-110613701D01*
X64658729Y-110613701D02*
X65971910Y-109300520D01*
X65971910Y-109300520D02*
X67202540Y-109300520D01*
X48152540Y-100410520D02*
X54259480Y-100410520D01*
X54259480Y-100410520D02*
X54630000Y-100040000D01*
X67202540Y-100410520D02*
X73309480Y-100410520D01*
X73309480Y-100410520D02*
X73680000Y-100040000D01*
X117208790Y-100410520D02*
X123315730Y-100410520D01*
X123315730Y-100410520D02*
X123686250Y-100040000D01*
X143402540Y-100410520D02*
X149509480Y-100410520D01*
X149509480Y-100410520D02*
X149880000Y-100040000D01*
X162452540Y-100410520D02*
X168559480Y-100410520D01*
X168559480Y-100410520D02*
X168930000Y-100040000D01*
X181502540Y-100410520D02*
X187609480Y-100410520D01*
X187609480Y-100410520D02*
X187980000Y-100040000D01*
X200552540Y-100410520D02*
X206659480Y-100410520D01*
X206659480Y-100410520D02*
X207030000Y-100040000D01*
X219602540Y-100410520D02*
X225709480Y-100410520D01*
X225709480Y-100410520D02*
X226080000Y-100040000D01*
X238652540Y-100410520D02*
X244759480Y-100410520D01*
X244759480Y-100410520D02*
X245130000Y-100040000D01*
X257702540Y-100410520D02*
X263809480Y-100410520D01*
X263809480Y-100410520D02*
X264180000Y-100040000D01*
X276752540Y-100410520D02*
X282859480Y-100410520D01*
X282859480Y-100410520D02*
X283230000Y-100040000D01*
X295802540Y-100410520D02*
X301909480Y-100410520D01*
X301909480Y-100410520D02*
X302280000Y-100040000D01*
X314852540Y-100410520D02*
X320959480Y-100410520D01*
X320959480Y-100410520D02*
X321330000Y-100040000D01*
X333902540Y-100410520D02*
X340009480Y-100410520D01*
X340009480Y-100410520D02*
X340380000Y-100040000D01*
X364858790Y-100410520D02*
X370965730Y-100410520D01*
X370965730Y-100410520D02*
X371336250Y-100040000D01*
X48152540Y-119460520D02*
X54259480Y-119460520D01*
X54259480Y-119460520D02*
X54630000Y-119090000D01*
X67202540Y-119460520D02*
X73309480Y-119460520D01*
X73309480Y-119460520D02*
X73680000Y-119090000D01*
X86252540Y-128985520D02*
X92359480Y-128985520D01*
X92359480Y-128985520D02*
X92730000Y-128615000D01*
X121971290Y-119460520D02*
X128078230Y-119460520D01*
X128078230Y-119460520D02*
X128448750Y-119090000D01*
X152927540Y-119460520D02*
X159034480Y-119460520D01*
X159034480Y-119460520D02*
X159405000Y-119090000D01*
X171977540Y-119460520D02*
X178084480Y-119460520D01*
X178084480Y-119460520D02*
X178455000Y-119090000D01*
X191027540Y-119460520D02*
X197134480Y-119460520D01*
X197134480Y-119460520D02*
X197505000Y-119090000D01*
X210077540Y-119460520D02*
X216184480Y-119460520D01*
X216184480Y-119460520D02*
X216555000Y-119090000D01*
X229127540Y-119460520D02*
X235234480Y-119460520D01*
X235234480Y-119460520D02*
X235605000Y-119090000D01*
X248177540Y-119460520D02*
X254284480Y-119460520D01*
X254284480Y-119460520D02*
X254655000Y-119090000D01*
X267227540Y-119460520D02*
X273334480Y-119460520D01*
X273334480Y-119460520D02*
X273705000Y-119090000D01*
X286277540Y-119460520D02*
X292384480Y-119460520D01*
X292384480Y-119460520D02*
X292755000Y-119090000D01*
X305327540Y-119460520D02*
X311434480Y-119460520D01*
X311434480Y-119460520D02*
X311805000Y-119090000D01*
X324377540Y-119460520D02*
X330484480Y-119460520D01*
X330484480Y-119460520D02*
X330855000Y-119090000D01*
X360096290Y-119460520D02*
X366203230Y-119460520D01*
X366203230Y-119460520D02*
X366573750Y-119090000D01*
X400577540Y-119460520D02*
X406684480Y-119460520D01*
X406684480Y-119460520D02*
X407055000Y-119090000D01*
X38627540Y-138510520D02*
X44734480Y-138510520D01*
X44734480Y-138510520D02*
X45105000Y-138140000D01*
X73309480Y-138510520D02*
X73680000Y-138140000D01*
X112446290Y-138510520D02*
X118553230Y-138510520D01*
X118553230Y-138510520D02*
X118923750Y-138140000D01*
X136258790Y-138510520D02*
X142365730Y-138510520D01*
X142365730Y-138510520D02*
X142736250Y-138140000D01*
X160071290Y-138510520D02*
X166178230Y-138510520D01*
X166178230Y-138510520D02*
X166548750Y-138140000D01*
X231508790Y-138510520D02*
X237615730Y-138510520D01*
X237615730Y-138510520D02*
X237986250Y-138140000D01*
X302946290Y-138510520D02*
X309053230Y-138510520D01*
X309053230Y-138510520D02*
X309423750Y-138140000D01*
X326758790Y-138510520D02*
X332865730Y-138510520D01*
X332865730Y-138510520D02*
X333236250Y-138140000D01*
X350571290Y-138510520D02*
X356678230Y-138510520D01*
X356678230Y-138510520D02*
X357048750Y-138140000D01*
X381527540Y-138510520D02*
X387634480Y-138510520D01*
X387634480Y-138510520D02*
X388005000Y-138140000D01*
X407055000Y-138140000D02*
X400948060Y-138140000D01*
X400948060Y-138140000D02*
X400577540Y-138510520D01*
X419627540Y-138510520D02*
X425734480Y-138510520D01*
X425734480Y-138510520D02*
X426105000Y-138140000D01*
X375359108Y-86868000D02*
X108393803Y-86868000D01*
X108393803Y-86868000D02*
X99072013Y-96189790D01*
X99072013Y-96189790D02*
X86198452Y-96189790D01*
X86198452Y-96189790D02*
X75706993Y-85698331D01*
X75706993Y-85698331D02*
X47733331Y-85698331D01*
X47733331Y-85698331D02*
X42494984Y-80459984D01*
X42494984Y-80459984D02*
X41505000Y-79470000D01*
X409239210Y-90220790D02*
X378711898Y-90220790D01*
X378711898Y-90220790D02*
X375359108Y-86868000D01*
X411480000Y-87630000D02*
X411480000Y-87980000D01*
X411480000Y-87980000D02*
X409239210Y-90220790D01*
X98679000Y-92837000D02*
X86363889Y-92837000D01*
X86363889Y-92837000D02*
X79605000Y-86078111D01*
X79605000Y-86078111D02*
X79605000Y-81479178D01*
X79605000Y-81479178D02*
X79605000Y-79470000D01*
X105994160Y-85521840D02*
X98679000Y-92837000D01*
X415982840Y-85521840D02*
X105994160Y-85521840D01*
X416560000Y-87630000D02*
X416560000Y-86099000D01*
X416560000Y-86099000D02*
X415982840Y-85521840D01*
X170092500Y-79470000D02*
X173807500Y-83185000D01*
X173807500Y-83185000D02*
X423806000Y-83185000D01*
X423806000Y-83185000D02*
X426720000Y-86099000D01*
X426720000Y-86099000D02*
X426720000Y-87630000D01*
X404083000Y-105537000D02*
X306705000Y-105537000D01*
X406400000Y-102870000D02*
X406400000Y-103220000D01*
X406400000Y-103220000D02*
X404083000Y-105537000D01*
X223316052Y-140335000D02*
X222885000Y-140335000D01*
X247251216Y-140335000D02*
X223316052Y-140335000D01*
X247314718Y-140271498D02*
X247251216Y-140335000D01*
X311697252Y-140271498D02*
X247314718Y-140271498D01*
X315348750Y-136620000D02*
X311697252Y-140271498D01*
X424180000Y-87630000D02*
X424180000Y-87280000D01*
X152032484Y-80459984D02*
X151042500Y-79470000D01*
X424180000Y-87280000D02*
X420669210Y-83769210D01*
X155341710Y-83769210D02*
X152032484Y-80459984D01*
X420669210Y-83769210D02*
X155341710Y-83769210D01*
X393322500Y-36000000D02*
X389167500Y-31845000D01*
X432030000Y-31845000D02*
X428000000Y-35875000D01*
X393322500Y-36000000D02*
X427875000Y-36000000D01*
X427875000Y-36000000D02*
X428000000Y-35875000D01*
X432030000Y-79470000D02*
X428361342Y-79470000D01*
X428361342Y-79470000D02*
X426857152Y-77965810D01*
X426857152Y-77965810D02*
X414484190Y-77965810D01*
X414484190Y-77965810D02*
X412980000Y-79470000D01*
X385191000Y-104648000D02*
X238133000Y-104648000D01*
X238133000Y-104648000D02*
X232005000Y-98520000D01*
X388512710Y-101326290D02*
X385191000Y-104648000D01*
X408940000Y-102870000D02*
X408940000Y-102520000D01*
X408940000Y-102520000D02*
X407746290Y-101326290D01*
X407746290Y-101326290D02*
X388512710Y-101326290D01*
X339161250Y-136620000D02*
X334811250Y-140970000D01*
X334811250Y-140970000D02*
X247650000Y-140970000D01*
X421640000Y-87630000D02*
X421640000Y-87280000D01*
X421640000Y-87280000D02*
X418713420Y-84353420D01*
X418713420Y-84353420D02*
X132113420Y-84353420D01*
X132113420Y-84353420D02*
X128219984Y-80459984D01*
X128219984Y-80459984D02*
X127230000Y-79470000D01*
X425577000Y-68326000D02*
X187523500Y-68326000D01*
X187523500Y-68326000D02*
X187452000Y-68254500D01*
X240125000Y-136620000D02*
X238125000Y-134620000D01*
X238125000Y-134620000D02*
X203835000Y-134620000D01*
X243911250Y-136620000D02*
X240125000Y-136620000D01*
X411543499Y-25971501D02*
X412980000Y-27408002D01*
X412980000Y-27408002D02*
X412980000Y-31845000D01*
X370117500Y-31845000D02*
X371647385Y-31845000D01*
X371647385Y-31845000D02*
X377520884Y-25971501D01*
X377520884Y-25971501D02*
X411543499Y-25971501D01*
X377444000Y-116840000D02*
X394970000Y-116840000D01*
X412980000Y-117570000D02*
X411450115Y-117570000D01*
X394970000Y-116840000D02*
X395276462Y-116840000D01*
X411450115Y-117570000D02*
X410720115Y-116840000D01*
X410720115Y-116840000D02*
X394970000Y-116840000D01*
X412980000Y-117570000D02*
X414484190Y-116065810D01*
X414484190Y-116065810D02*
X415055190Y-116065810D01*
X415055190Y-116065810D02*
X426720000Y-104401000D01*
X426720000Y-104401000D02*
X426720000Y-102870000D01*
X419100000Y-87630000D02*
X419100000Y-87280000D01*
X419100000Y-87280000D02*
X416757630Y-84937630D01*
X416757630Y-84937630D02*
X104242255Y-84937630D01*
X104242255Y-84937630D02*
X100184885Y-88995000D01*
X100184885Y-88995000D02*
X98655000Y-88995000D01*
X384759210Y-104063790D02*
X256598790Y-104063790D01*
X256598790Y-104063790D02*
X251055000Y-98520000D01*
X388080920Y-100742080D02*
X384759210Y-104063790D01*
X411480000Y-102870000D02*
X411480000Y-102520000D01*
X411480000Y-102520000D02*
X409702080Y-100742080D01*
X409702080Y-100742080D02*
X388080920Y-100742080D01*
X260604000Y-141732000D02*
X357861750Y-141732000D01*
X357861750Y-141732000D02*
X362973750Y-136620000D01*
X302613789Y-130886211D02*
X298500000Y-135000000D01*
X298500000Y-135000000D02*
X280000000Y-135000000D01*
X364026979Y-130886211D02*
X304500000Y-130886211D01*
X304500000Y-130886211D02*
X302613789Y-130886211D01*
X368300000Y-135159232D02*
X364026979Y-130886211D01*
X390176000Y-136620000D02*
X388715232Y-135159232D01*
X388715232Y-135159232D02*
X368300000Y-135159232D01*
X393930000Y-136620000D02*
X390176000Y-136620000D01*
X394399018Y-130302000D02*
X299212000Y-130302000D01*
X299212000Y-130302000D02*
X298704000Y-129794000D01*
X412980000Y-136620000D02*
X409311342Y-136620000D01*
X409311342Y-136620000D02*
X407285948Y-134594606D01*
X398691624Y-134594606D02*
X394399018Y-130302000D01*
X407285948Y-134594606D02*
X398691624Y-134594606D01*
X324239000Y-124079000D02*
X420000000Y-124079000D01*
X420000000Y-124079000D02*
X428000000Y-124079000D01*
X432030000Y-136620000D02*
X432030000Y-127696338D01*
X432030000Y-127696338D02*
X428412662Y-124079000D01*
X428412662Y-124079000D02*
X428000000Y-124079000D01*
X317730000Y-117570000D02*
X324239000Y-124079000D01*
X421640000Y-102870000D02*
X421640000Y-102520000D01*
X421640000Y-102520000D02*
X411982394Y-92862394D01*
X411982394Y-92862394D02*
X329475588Y-92862394D01*
X329475588Y-92862394D02*
X327255000Y-95082982D01*
X327255000Y-95082982D02*
X327255000Y-96510822D01*
X327255000Y-96510822D02*
X327255000Y-98520000D01*
X424180000Y-102870000D02*
X424180000Y-103220000D01*
X424180000Y-103220000D02*
X416202089Y-111197911D01*
X380400724Y-111197911D02*
X374028635Y-117570000D01*
X416202089Y-111197911D02*
X380400724Y-111197911D01*
X374028635Y-117570000D02*
X372498750Y-117570000D01*
X414020000Y-87630000D02*
X414020000Y-87980000D01*
X99314000Y-96774000D02*
X85472214Y-96774000D01*
X414020000Y-87980000D02*
X411195000Y-90805000D01*
X70923643Y-91563701D02*
X68367131Y-89007189D01*
X411195000Y-90805000D02*
X378469912Y-90805000D01*
X375167912Y-87503000D02*
X108585000Y-87503000D01*
X85472214Y-96774000D02*
X80261915Y-91563701D01*
X378469912Y-90805000D02*
X375167912Y-87503000D01*
X60555000Y-94490138D02*
X60555000Y-96510822D01*
X108585000Y-87503000D02*
X99314000Y-96774000D01*
X80261915Y-91563701D02*
X70923643Y-91563701D01*
X60555000Y-96510822D02*
X60555000Y-98520000D01*
X68367131Y-89007189D02*
X66037949Y-89007189D01*
X66037949Y-89007189D02*
X60555000Y-94490138D01*
M02*
