G04 #@! TF.FileFunction,Soldermask,Top*
%FSLAX46Y46*%
G04 Gerber Fmt 4.6, Leading zero omitted, Abs format (unit mm)*
G04 Created by KiCad (PCBNEW 4.0.2-stable) date Thursday, June 23, 2016 'PMt' 05:50:01 PM*
%MOMM*%
G01*
G04 APERTURE LIST*
%ADD10C,0.150000*%
%ADD11R,2.400000X2.100000*%
%ADD12C,2.099260*%
%ADD13R,2.099260X2.099260*%
%ADD14C,5.400000*%
%ADD15O,2.000000X2.700000*%
%ADD16C,4.387810*%
%ADD17C,2.101810*%
%ADD18C,2.900000*%
%ADD19R,2.400000X2.400000*%
%ADD20C,2.400000*%
%ADD21R,1.400000X2.000000*%
%ADD22C,1.009600*%
%ADD23R,2.432000X2.127200*%
%ADD24O,2.432000X2.127200*%
G04 APERTURE END LIST*
D10*
D11*
X391566400Y-78435200D03*
X387566400Y-78435200D03*
D12*
X95885000Y-36830000D03*
D13*
X106045000Y-36830000D03*
D12*
X395605000Y-96520000D03*
D13*
X385445000Y-96520000D03*
D14*
X95250000Y-102393750D03*
D15*
X360426000Y-59055000D03*
X362966000Y-59055000D03*
X365506000Y-59055000D03*
X368046000Y-59055000D03*
X370586000Y-59055000D03*
X373126000Y-59055000D03*
X375666000Y-59055000D03*
X378206000Y-59055000D03*
X380746000Y-59055000D03*
X383286000Y-59055000D03*
X385826000Y-59055000D03*
X388366000Y-59055000D03*
X390906000Y-59055000D03*
X393446000Y-59055000D03*
X393446000Y-74295000D03*
X390906000Y-74295000D03*
X388366000Y-74295000D03*
X385826000Y-74295000D03*
X383286000Y-74295000D03*
X380746000Y-74295000D03*
X378206000Y-74295000D03*
X375666000Y-74295000D03*
X373126000Y-74295000D03*
X370586000Y-74295000D03*
X368046000Y-74295000D03*
X365506000Y-74295000D03*
X362966000Y-74295000D03*
X360426000Y-74295000D03*
D16*
X330993750Y-85725000D03*
D17*
X336073750Y-85725000D03*
X325913750Y-85725000D03*
D18*
X333993297Y-89724954D02*
X334804203Y-88265046D01*
X328454026Y-90804328D02*
X328493474Y-90225672D01*
D19*
X332263750Y-80645000D03*
D20*
X329723750Y-80645000D03*
D16*
X390525000Y-104775000D03*
D17*
X395605000Y-104775000D03*
X385445000Y-104775000D03*
D18*
X393524547Y-108774954D02*
X394335453Y-107315046D01*
X387985276Y-109854328D02*
X388024724Y-109275672D01*
D19*
X391795000Y-99695000D03*
D20*
X389255000Y-99695000D03*
D16*
X371475000Y-104775000D03*
D17*
X376555000Y-104775000D03*
X366395000Y-104775000D03*
D18*
X374474547Y-108774954D02*
X375285453Y-107315046D01*
X368935276Y-109854328D02*
X368974724Y-109275672D01*
D19*
X372745000Y-99695000D03*
D20*
X370205000Y-99695000D03*
D16*
X352425000Y-104775000D03*
D17*
X357505000Y-104775000D03*
X347345000Y-104775000D03*
D18*
X355424547Y-108774954D02*
X356235453Y-107315046D01*
X349885276Y-109854328D02*
X349924724Y-109275672D01*
D19*
X353695000Y-99695000D03*
D20*
X351155000Y-99695000D03*
D16*
X321468750Y-104775000D03*
D17*
X326548750Y-104775000D03*
X316388750Y-104775000D03*
D18*
X324468297Y-108774954D02*
X325279203Y-107315046D01*
X318929026Y-109854328D02*
X318968474Y-109275672D01*
D19*
X322738750Y-99695000D03*
D20*
X320198750Y-99695000D03*
D16*
X297656250Y-104775000D03*
D17*
X302736250Y-104775000D03*
X292576250Y-104775000D03*
D18*
X300655797Y-108774954D02*
X301466703Y-107315046D01*
X295116526Y-109854328D02*
X295155974Y-109275672D01*
D19*
X298926250Y-99695000D03*
D20*
X296386250Y-99695000D03*
D16*
X273843750Y-104775000D03*
D17*
X278923750Y-104775000D03*
X268763750Y-104775000D03*
D18*
X276843297Y-108774954D02*
X277654203Y-107315046D01*
X271304026Y-109854328D02*
X271343474Y-109275672D01*
D19*
X275113750Y-99695000D03*
D20*
X272573750Y-99695000D03*
D16*
X202406250Y-104775000D03*
D17*
X207486250Y-104775000D03*
X197326250Y-104775000D03*
D18*
X205405797Y-108774954D02*
X206216703Y-107315046D01*
X199866526Y-109854328D02*
X199905974Y-109275672D01*
D19*
X203676250Y-99695000D03*
D20*
X201136250Y-99695000D03*
D16*
X130968750Y-104775000D03*
D17*
X136048750Y-104775000D03*
X125888750Y-104775000D03*
D18*
X133968297Y-108774954D02*
X134779203Y-107315046D01*
X128429026Y-109854328D02*
X128468474Y-109275672D01*
D19*
X132238750Y-99695000D03*
D20*
X129698750Y-99695000D03*
D16*
X107156250Y-104775000D03*
D17*
X112236250Y-104775000D03*
X102076250Y-104775000D03*
D18*
X110155797Y-108774954D02*
X110966703Y-107315046D01*
X104616526Y-109854328D02*
X104655974Y-109275672D01*
D19*
X108426250Y-99695000D03*
D20*
X105886250Y-99695000D03*
D16*
X83343750Y-104775000D03*
D17*
X88423750Y-104775000D03*
X78263750Y-104775000D03*
D18*
X86343297Y-108774954D02*
X87154203Y-107315046D01*
X80804026Y-109854328D02*
X80843474Y-109275672D01*
D19*
X84613750Y-99695000D03*
D20*
X82073750Y-99695000D03*
D16*
X57150000Y-104775000D03*
D17*
X62230000Y-104775000D03*
X52070000Y-104775000D03*
D18*
X60149547Y-108774954D02*
X60960453Y-107315046D01*
X54610276Y-109854328D02*
X54649724Y-109275672D01*
D19*
X58420000Y-99695000D03*
D20*
X55880000Y-99695000D03*
D16*
X38100000Y-104775000D03*
D17*
X43180000Y-104775000D03*
X33020000Y-104775000D03*
D18*
X41099547Y-108774954D02*
X41910453Y-107315046D01*
X35560276Y-109854328D02*
X35599724Y-109275672D01*
D19*
X39370000Y-99695000D03*
D20*
X36830000Y-99695000D03*
D16*
X371475000Y-85725000D03*
D17*
X376555000Y-85725000D03*
X366395000Y-85725000D03*
D18*
X374474547Y-89724954D02*
X375285453Y-88265046D01*
X368935276Y-90804328D02*
X368974724Y-90225672D01*
D19*
X372745000Y-80645000D03*
D20*
X370205000Y-80645000D03*
D16*
X295275000Y-85725000D03*
D17*
X300355000Y-85725000D03*
X290195000Y-85725000D03*
D18*
X298274547Y-89724954D02*
X299085453Y-88265046D01*
X292735276Y-90804328D02*
X292774724Y-90225672D01*
D19*
X296545000Y-80645000D03*
D20*
X294005000Y-80645000D03*
D16*
X276225000Y-85725000D03*
D17*
X281305000Y-85725000D03*
X271145000Y-85725000D03*
D18*
X279224547Y-89724954D02*
X280035453Y-88265046D01*
X273685276Y-90804328D02*
X273724724Y-90225672D01*
D19*
X277495000Y-80645000D03*
D20*
X274955000Y-80645000D03*
D16*
X257175000Y-85725000D03*
D17*
X262255000Y-85725000D03*
X252095000Y-85725000D03*
D18*
X260174547Y-89724954D02*
X260985453Y-88265046D01*
X254635276Y-90804328D02*
X254674724Y-90225672D01*
D19*
X258445000Y-80645000D03*
D20*
X255905000Y-80645000D03*
D16*
X238125000Y-85725000D03*
D17*
X243205000Y-85725000D03*
X233045000Y-85725000D03*
D18*
X241124547Y-89724954D02*
X241935453Y-88265046D01*
X235585276Y-90804328D02*
X235624724Y-90225672D01*
D19*
X239395000Y-80645000D03*
D20*
X236855000Y-80645000D03*
D16*
X219075000Y-85725000D03*
D17*
X224155000Y-85725000D03*
X213995000Y-85725000D03*
D18*
X222074547Y-89724954D02*
X222885453Y-88265046D01*
X216535276Y-90804328D02*
X216574724Y-90225672D01*
D19*
X220345000Y-80645000D03*
D20*
X217805000Y-80645000D03*
D16*
X200025000Y-85725000D03*
D17*
X205105000Y-85725000D03*
X194945000Y-85725000D03*
D18*
X203024547Y-89724954D02*
X203835453Y-88265046D01*
X197485276Y-90804328D02*
X197524724Y-90225672D01*
D19*
X201295000Y-80645000D03*
D20*
X198755000Y-80645000D03*
D16*
X180975000Y-85725000D03*
D17*
X186055000Y-85725000D03*
X175895000Y-85725000D03*
D18*
X183974547Y-89724954D02*
X184785453Y-88265046D01*
X178435276Y-90804328D02*
X178474724Y-90225672D01*
D19*
X182245000Y-80645000D03*
D20*
X179705000Y-80645000D03*
D16*
X161925000Y-85725000D03*
D17*
X167005000Y-85725000D03*
X156845000Y-85725000D03*
D18*
X164924547Y-89724954D02*
X165735453Y-88265046D01*
X159385276Y-90804328D02*
X159424724Y-90225672D01*
D19*
X163195000Y-80645000D03*
D20*
X160655000Y-80645000D03*
D16*
X142875000Y-85725000D03*
D17*
X147955000Y-85725000D03*
X137795000Y-85725000D03*
D18*
X145874547Y-89724954D02*
X146685453Y-88265046D01*
X140335276Y-90804328D02*
X140374724Y-90225672D01*
D19*
X144145000Y-80645000D03*
D20*
X141605000Y-80645000D03*
D16*
X123825000Y-85725000D03*
D17*
X128905000Y-85725000D03*
X118745000Y-85725000D03*
D18*
X126824547Y-89724954D02*
X127635453Y-88265046D01*
X121285276Y-90804328D02*
X121324724Y-90225672D01*
D19*
X125095000Y-80645000D03*
D20*
X122555000Y-80645000D03*
D16*
X92868750Y-85725000D03*
D17*
X97948750Y-85725000D03*
X87788750Y-85725000D03*
D18*
X95868297Y-89724954D02*
X96679203Y-88265046D01*
X90329026Y-90804328D02*
X90368474Y-90225672D01*
D19*
X94138750Y-80645000D03*
D20*
X91598750Y-80645000D03*
D16*
X57150000Y-85725000D03*
D17*
X62230000Y-85725000D03*
X52070000Y-85725000D03*
D18*
X60149547Y-89724954D02*
X60960453Y-88265046D01*
X54610276Y-90804328D02*
X54649724Y-90225672D01*
D19*
X58420000Y-80645000D03*
D20*
X55880000Y-80645000D03*
D16*
X38100000Y-85725000D03*
D17*
X43180000Y-85725000D03*
X33020000Y-85725000D03*
D18*
X41099547Y-89724954D02*
X41910453Y-88265046D01*
X35560276Y-90804328D02*
X35599724Y-90225672D01*
D19*
X39370000Y-80645000D03*
D20*
X36830000Y-80645000D03*
D16*
X335756250Y-66675000D03*
D17*
X340836250Y-66675000D03*
X330676250Y-66675000D03*
D18*
X338755797Y-70674954D02*
X339566703Y-69215046D01*
X333216526Y-71754328D02*
X333255974Y-71175672D01*
D19*
X337026250Y-61595000D03*
D20*
X334486250Y-61595000D03*
D16*
X304800000Y-66675000D03*
D17*
X309880000Y-66675000D03*
X299720000Y-66675000D03*
D18*
X307799547Y-70674954D02*
X308610453Y-69215046D01*
X302260276Y-71754328D02*
X302299724Y-71175672D01*
D19*
X306070000Y-61595000D03*
D20*
X303530000Y-61595000D03*
D16*
X285750000Y-66675000D03*
D17*
X290830000Y-66675000D03*
X280670000Y-66675000D03*
D18*
X288749547Y-70674954D02*
X289560453Y-69215046D01*
X283210276Y-71754328D02*
X283249724Y-71175672D01*
D19*
X287020000Y-61595000D03*
D20*
X284480000Y-61595000D03*
D16*
X266700000Y-66675000D03*
D17*
X271780000Y-66675000D03*
X261620000Y-66675000D03*
D18*
X269699547Y-70674954D02*
X270510453Y-69215046D01*
X264160276Y-71754328D02*
X264199724Y-71175672D01*
D19*
X267970000Y-61595000D03*
D20*
X265430000Y-61595000D03*
D16*
X247650000Y-66675000D03*
D17*
X252730000Y-66675000D03*
X242570000Y-66675000D03*
D18*
X250649547Y-70674954D02*
X251460453Y-69215046D01*
X245110276Y-71754328D02*
X245149724Y-71175672D01*
D19*
X248920000Y-61595000D03*
D20*
X246380000Y-61595000D03*
D16*
X228600000Y-66675000D03*
D17*
X233680000Y-66675000D03*
X223520000Y-66675000D03*
D18*
X231599547Y-70674954D02*
X232410453Y-69215046D01*
X226060276Y-71754328D02*
X226099724Y-71175672D01*
D19*
X229870000Y-61595000D03*
D20*
X227330000Y-61595000D03*
D16*
X209550000Y-66675000D03*
D17*
X214630000Y-66675000D03*
X204470000Y-66675000D03*
D18*
X212549547Y-70674954D02*
X213360453Y-69215046D01*
X207010276Y-71754328D02*
X207049724Y-71175672D01*
D19*
X210820000Y-61595000D03*
D20*
X208280000Y-61595000D03*
D16*
X190500000Y-66675000D03*
D17*
X195580000Y-66675000D03*
X185420000Y-66675000D03*
D18*
X193499547Y-70674954D02*
X194310453Y-69215046D01*
X187960276Y-71754328D02*
X187999724Y-71175672D01*
D19*
X191770000Y-61595000D03*
D20*
X189230000Y-61595000D03*
D16*
X171450000Y-66675000D03*
D17*
X176530000Y-66675000D03*
X166370000Y-66675000D03*
D18*
X174449547Y-70674954D02*
X175260453Y-69215046D01*
X168910276Y-71754328D02*
X168949724Y-71175672D01*
D19*
X172720000Y-61595000D03*
D20*
X170180000Y-61595000D03*
D16*
X152400000Y-66675000D03*
D17*
X157480000Y-66675000D03*
X147320000Y-66675000D03*
D18*
X155399547Y-70674954D02*
X156210453Y-69215046D01*
X149860276Y-71754328D02*
X149899724Y-71175672D01*
D19*
X153670000Y-61595000D03*
D20*
X151130000Y-61595000D03*
D16*
X133350000Y-66675000D03*
D17*
X138430000Y-66675000D03*
X128270000Y-66675000D03*
D18*
X136349547Y-70674954D02*
X137160453Y-69215046D01*
X130810276Y-71754328D02*
X130849724Y-71175672D01*
D19*
X134620000Y-61595000D03*
D20*
X132080000Y-61595000D03*
D16*
X114300000Y-66675000D03*
D17*
X119380000Y-66675000D03*
X109220000Y-66675000D03*
D18*
X117299547Y-70674954D02*
X118110453Y-69215046D01*
X111760276Y-71754328D02*
X111799724Y-71175672D01*
D19*
X115570000Y-61595000D03*
D20*
X113030000Y-61595000D03*
D16*
X88106250Y-66675000D03*
D17*
X93186250Y-66675000D03*
X83026250Y-66675000D03*
D18*
X91105797Y-70674954D02*
X91916703Y-69215046D01*
X85566526Y-71754328D02*
X85605974Y-71175672D01*
D19*
X89376250Y-61595000D03*
D20*
X86836250Y-61595000D03*
D16*
X57150000Y-66675000D03*
D17*
X62230000Y-66675000D03*
X52070000Y-66675000D03*
D18*
X60149547Y-70674954D02*
X60960453Y-69215046D01*
X54610276Y-71754328D02*
X54649724Y-71175672D01*
D19*
X58420000Y-61595000D03*
D20*
X55880000Y-61595000D03*
D16*
X38100000Y-66675000D03*
D17*
X43180000Y-66675000D03*
X33020000Y-66675000D03*
D18*
X41099547Y-70674954D02*
X41910453Y-69215046D01*
X35560276Y-71754328D02*
X35599724Y-71175672D01*
D19*
X39370000Y-61595000D03*
D20*
X36830000Y-61595000D03*
D16*
X390525000Y-47625000D03*
D17*
X395605000Y-47625000D03*
X385445000Y-47625000D03*
D18*
X393524547Y-51624954D02*
X394335453Y-50165046D01*
X387985276Y-52704328D02*
X388024724Y-52125672D01*
D19*
X391795000Y-42545000D03*
D20*
X389255000Y-42545000D03*
D16*
X371475000Y-47625000D03*
D17*
X376555000Y-47625000D03*
X366395000Y-47625000D03*
D18*
X374474547Y-51624954D02*
X375285453Y-50165046D01*
X368935276Y-52704328D02*
X368974724Y-52125672D01*
D19*
X372745000Y-42545000D03*
D20*
X370205000Y-42545000D03*
D16*
X342900000Y-47625000D03*
D17*
X347980000Y-47625000D03*
X337820000Y-47625000D03*
D18*
X345899547Y-51624954D02*
X346710453Y-50165046D01*
X340360276Y-52704328D02*
X340399724Y-52125672D01*
D19*
X344170000Y-42545000D03*
D20*
X341630000Y-42545000D03*
D16*
X319087500Y-47625000D03*
D17*
X324167500Y-47625000D03*
X314007500Y-47625000D03*
D18*
X322087047Y-51624954D02*
X322897953Y-50165046D01*
X316547776Y-52704328D02*
X316587224Y-52125672D01*
D19*
X320357500Y-42545000D03*
D20*
X317817500Y-42545000D03*
D16*
X300037500Y-47625000D03*
D17*
X305117500Y-47625000D03*
X294957500Y-47625000D03*
D18*
X303037047Y-51624954D02*
X303847953Y-50165046D01*
X297497776Y-52704328D02*
X297537224Y-52125672D01*
D19*
X301307500Y-42545000D03*
D20*
X298767500Y-42545000D03*
D16*
X280987500Y-47625000D03*
D17*
X286067500Y-47625000D03*
X275907500Y-47625000D03*
D18*
X283987047Y-51624954D02*
X284797953Y-50165046D01*
X278447776Y-52704328D02*
X278487224Y-52125672D01*
D19*
X282257500Y-42545000D03*
D20*
X279717500Y-42545000D03*
D16*
X261937500Y-47625000D03*
D17*
X267017500Y-47625000D03*
X256857500Y-47625000D03*
D18*
X264937047Y-51624954D02*
X265747953Y-50165046D01*
X259397776Y-52704328D02*
X259437224Y-52125672D01*
D19*
X263207500Y-42545000D03*
D20*
X260667500Y-42545000D03*
D16*
X242887500Y-47625000D03*
D17*
X247967500Y-47625000D03*
X237807500Y-47625000D03*
D18*
X245887047Y-51624954D02*
X246697953Y-50165046D01*
X240347776Y-52704328D02*
X240387224Y-52125672D01*
D19*
X244157500Y-42545000D03*
D20*
X241617500Y-42545000D03*
D16*
X223837500Y-47625000D03*
D17*
X228917500Y-47625000D03*
X218757500Y-47625000D03*
D18*
X226837047Y-51624954D02*
X227647953Y-50165046D01*
X221297776Y-52704328D02*
X221337224Y-52125672D01*
D19*
X225107500Y-42545000D03*
D20*
X222567500Y-42545000D03*
D16*
X204787500Y-47625000D03*
D17*
X209867500Y-47625000D03*
X199707500Y-47625000D03*
D18*
X207787047Y-51624954D02*
X208597953Y-50165046D01*
X202247776Y-52704328D02*
X202287224Y-52125672D01*
D19*
X206057500Y-42545000D03*
D20*
X203517500Y-42545000D03*
D16*
X185737500Y-47625000D03*
D17*
X190817500Y-47625000D03*
X180657500Y-47625000D03*
D18*
X188737047Y-51624954D02*
X189547953Y-50165046D01*
X183197776Y-52704328D02*
X183237224Y-52125672D01*
D19*
X187007500Y-42545000D03*
D20*
X184467500Y-42545000D03*
D16*
X166687500Y-47625000D03*
D17*
X171767500Y-47625000D03*
X161607500Y-47625000D03*
D18*
X169687047Y-51624954D02*
X170497953Y-50165046D01*
X164147776Y-52704328D02*
X164187224Y-52125672D01*
D19*
X167957500Y-42545000D03*
D20*
X165417500Y-42545000D03*
D16*
X147637500Y-47625000D03*
D17*
X152717500Y-47625000D03*
X142557500Y-47625000D03*
D18*
X150637047Y-51624954D02*
X151447953Y-50165046D01*
X145097776Y-52704328D02*
X145137224Y-52125672D01*
D19*
X148907500Y-42545000D03*
D20*
X146367500Y-42545000D03*
D16*
X128587500Y-47625000D03*
D17*
X133667500Y-47625000D03*
X123507500Y-47625000D03*
D18*
X131587047Y-51624954D02*
X132397953Y-50165046D01*
X126047776Y-52704328D02*
X126087224Y-52125672D01*
D19*
X129857500Y-42545000D03*
D20*
X127317500Y-42545000D03*
D16*
X109537500Y-47625000D03*
D17*
X114617500Y-47625000D03*
X104457500Y-47625000D03*
D18*
X112537047Y-51624954D02*
X113347953Y-50165046D01*
X106997776Y-52704328D02*
X107037224Y-52125672D01*
D19*
X110807500Y-42545000D03*
D20*
X108267500Y-42545000D03*
D16*
X85725000Y-47625000D03*
D17*
X90805000Y-47625000D03*
X80645000Y-47625000D03*
D18*
X88724547Y-51624954D02*
X89535453Y-50165046D01*
X83185276Y-52704328D02*
X83224724Y-52125672D01*
D19*
X86995000Y-42545000D03*
D20*
X84455000Y-42545000D03*
D16*
X57150000Y-47625000D03*
D17*
X62230000Y-47625000D03*
X52070000Y-47625000D03*
D18*
X60149547Y-51624954D02*
X60960453Y-50165046D01*
X54610276Y-52704328D02*
X54649724Y-52125672D01*
D19*
X58420000Y-42545000D03*
D20*
X55880000Y-42545000D03*
D16*
X38100000Y-47625000D03*
D17*
X43180000Y-47625000D03*
X33020000Y-47625000D03*
D18*
X41099547Y-51624954D02*
X41910453Y-50165046D01*
X35560276Y-52704328D02*
X35599724Y-52125672D01*
D19*
X39370000Y-42545000D03*
D20*
X36830000Y-42545000D03*
D16*
X390525000Y-28575000D03*
D17*
X395605000Y-28575000D03*
X385445000Y-28575000D03*
D18*
X393524547Y-32574954D02*
X394335453Y-31115046D01*
X387985276Y-33654328D02*
X388024724Y-33075672D01*
D19*
X391795000Y-23495000D03*
D20*
X389255000Y-23495000D03*
D16*
X371475000Y-28575000D03*
D17*
X376555000Y-28575000D03*
X366395000Y-28575000D03*
D18*
X374474547Y-32574954D02*
X375285453Y-31115046D01*
X368935276Y-33654328D02*
X368974724Y-33075672D01*
D19*
X372745000Y-23495000D03*
D20*
X370205000Y-23495000D03*
D16*
X338137500Y-28575000D03*
D17*
X343217500Y-28575000D03*
X333057500Y-28575000D03*
D18*
X341137047Y-32574954D02*
X341947953Y-31115046D01*
X335597776Y-33654328D02*
X335637224Y-33075672D01*
D19*
X339407500Y-23495000D03*
D20*
X336867500Y-23495000D03*
D16*
X309562500Y-28575000D03*
D17*
X314642500Y-28575000D03*
X304482500Y-28575000D03*
D18*
X312562047Y-32574954D02*
X313372953Y-31115046D01*
X307022776Y-33654328D02*
X307062224Y-33075672D01*
D19*
X310832500Y-23495000D03*
D20*
X308292500Y-23495000D03*
D16*
X290512500Y-28575000D03*
D17*
X295592500Y-28575000D03*
X285432500Y-28575000D03*
D18*
X293512047Y-32574954D02*
X294322953Y-31115046D01*
X287972776Y-33654328D02*
X288012224Y-33075672D01*
D19*
X291782500Y-23495000D03*
D20*
X289242500Y-23495000D03*
D16*
X271462500Y-28575000D03*
D17*
X276542500Y-28575000D03*
X266382500Y-28575000D03*
D18*
X274462047Y-32574954D02*
X275272953Y-31115046D01*
X268922776Y-33654328D02*
X268962224Y-33075672D01*
D19*
X272732500Y-23495000D03*
D20*
X270192500Y-23495000D03*
D16*
X252412500Y-28575000D03*
D17*
X257492500Y-28575000D03*
X247332500Y-28575000D03*
D18*
X255412047Y-32574954D02*
X256222953Y-31115046D01*
X249872776Y-33654328D02*
X249912224Y-33075672D01*
D19*
X253682500Y-23495000D03*
D20*
X251142500Y-23495000D03*
D16*
X233362500Y-28575000D03*
D17*
X238442500Y-28575000D03*
X228282500Y-28575000D03*
D18*
X236362047Y-32574954D02*
X237172953Y-31115046D01*
X230822776Y-33654328D02*
X230862224Y-33075672D01*
D19*
X234632500Y-23495000D03*
D20*
X232092500Y-23495000D03*
D16*
X214312500Y-28575000D03*
D17*
X219392500Y-28575000D03*
X209232500Y-28575000D03*
D18*
X217312047Y-32574954D02*
X218122953Y-31115046D01*
X211772776Y-33654328D02*
X211812224Y-33075672D01*
D19*
X215582500Y-23495000D03*
D20*
X213042500Y-23495000D03*
D16*
X195262500Y-28575000D03*
D17*
X200342500Y-28575000D03*
X190182500Y-28575000D03*
D18*
X198262047Y-32574954D02*
X199072953Y-31115046D01*
X192722776Y-33654328D02*
X192762224Y-33075672D01*
D19*
X196532500Y-23495000D03*
D20*
X193992500Y-23495000D03*
D16*
X176212500Y-28575000D03*
D17*
X181292500Y-28575000D03*
X171132500Y-28575000D03*
D18*
X179212047Y-32574954D02*
X180022953Y-31115046D01*
X173672776Y-33654328D02*
X173712224Y-33075672D01*
D19*
X177482500Y-23495000D03*
D20*
X174942500Y-23495000D03*
D16*
X157162500Y-28575000D03*
D17*
X162242500Y-28575000D03*
X152082500Y-28575000D03*
D18*
X160162047Y-32574954D02*
X160972953Y-31115046D01*
X154622776Y-33654328D02*
X154662224Y-33075672D01*
D19*
X158432500Y-23495000D03*
D20*
X155892500Y-23495000D03*
D16*
X138112500Y-28575000D03*
D17*
X143192500Y-28575000D03*
X133032500Y-28575000D03*
D18*
X141112047Y-32574954D02*
X141922953Y-31115046D01*
X135572776Y-33654328D02*
X135612224Y-33075672D01*
D19*
X139382500Y-23495000D03*
D20*
X136842500Y-23495000D03*
D16*
X119062500Y-28575000D03*
D17*
X124142500Y-28575000D03*
X113982500Y-28575000D03*
D18*
X122062047Y-32574954D02*
X122872953Y-31115046D01*
X116522776Y-33654328D02*
X116562224Y-33075672D01*
D19*
X120332500Y-23495000D03*
D20*
X117792500Y-23495000D03*
D16*
X100012500Y-28575000D03*
D17*
X105092500Y-28575000D03*
X94932500Y-28575000D03*
D18*
X103012047Y-32574954D02*
X103822953Y-31115046D01*
X97472776Y-33654328D02*
X97512224Y-33075672D01*
D19*
X101282500Y-23495000D03*
D20*
X98742500Y-23495000D03*
D16*
X80962500Y-28575000D03*
D17*
X86042500Y-28575000D03*
X75882500Y-28575000D03*
D18*
X83962047Y-32574954D02*
X84772953Y-31115046D01*
X78422776Y-33654328D02*
X78462224Y-33075672D01*
D19*
X82232500Y-23495000D03*
D20*
X79692500Y-23495000D03*
D16*
X57150000Y-28575000D03*
D17*
X62230000Y-28575000D03*
X52070000Y-28575000D03*
D18*
X60149547Y-32574954D02*
X60960453Y-31115046D01*
X54610276Y-33654328D02*
X54649724Y-33075672D01*
D19*
X58420000Y-23495000D03*
D20*
X55880000Y-23495000D03*
D16*
X38100000Y-28575000D03*
D17*
X43180000Y-28575000D03*
X33020000Y-28575000D03*
D18*
X41099547Y-32574954D02*
X41910453Y-31115046D01*
X35560276Y-33654328D02*
X35599724Y-33075672D01*
D19*
X39370000Y-23495000D03*
D20*
X36830000Y-23495000D03*
D12*
X35559480Y-36578540D03*
D13*
X45719480Y-36578540D03*
D12*
X48262540Y-33274520D03*
D13*
X48262540Y-23114520D03*
D12*
X76707480Y-36832540D03*
D13*
X86867480Y-36832540D03*
D12*
X109982000Y-22860000D03*
D13*
X109982000Y-33020000D03*
D12*
X129032000Y-22860000D03*
D13*
X129032000Y-33020000D03*
D12*
X148082000Y-22860000D03*
D13*
X148082000Y-33020000D03*
D12*
X167132000Y-22860000D03*
D13*
X167132000Y-33020000D03*
D12*
X186182000Y-22860000D03*
D13*
X186182000Y-33020000D03*
D12*
X205232000Y-22860000D03*
D13*
X205232000Y-33020000D03*
D12*
X224282000Y-22860000D03*
D13*
X224282000Y-33020000D03*
D12*
X248285000Y-36830000D03*
D13*
X258445000Y-36830000D03*
D12*
X262382000Y-22860000D03*
D13*
X262382000Y-33020000D03*
D12*
X281432000Y-22860000D03*
D13*
X281432000Y-33020000D03*
D12*
X300482000Y-22860000D03*
D13*
X300482000Y-33020000D03*
D12*
X328930000Y-22860000D03*
D13*
X328930000Y-33020000D03*
D12*
X362460540Y-33274520D03*
D13*
X362460540Y-23114520D03*
D12*
X395605000Y-36830000D03*
D13*
X385445000Y-36830000D03*
D12*
X35559480Y-39626540D03*
D13*
X45719480Y-39626540D03*
D12*
X48262540Y-52324520D03*
D13*
X48262540Y-42164520D03*
D12*
X76710540Y-52324520D03*
D13*
X76710540Y-42164520D03*
D12*
X100586540Y-52324520D03*
D13*
X100586540Y-42164520D03*
D12*
X119636540Y-52324520D03*
D13*
X119636540Y-42164520D03*
D12*
X138686540Y-52324520D03*
D13*
X138686540Y-42164520D03*
D12*
X157736540Y-52324520D03*
D13*
X157736540Y-42164520D03*
D12*
X176786540Y-52324520D03*
D13*
X176786540Y-42164520D03*
D12*
X195836540Y-52324520D03*
D13*
X195836540Y-42164520D03*
D12*
X214886540Y-52324520D03*
D13*
X214886540Y-42164520D03*
D12*
X233936540Y-52324520D03*
D13*
X233936540Y-42164520D03*
D12*
X252986540Y-52324520D03*
D13*
X252986540Y-42164520D03*
D12*
X272036540Y-52324520D03*
D13*
X272036540Y-42164520D03*
D12*
X291086540Y-52324520D03*
D13*
X291086540Y-42164520D03*
D12*
X310136540Y-52324520D03*
D13*
X310136540Y-42164520D03*
D12*
X334012540Y-52324520D03*
D13*
X334012540Y-42164520D03*
D12*
X362460540Y-52324520D03*
D13*
X362460540Y-42164520D03*
D12*
X381510540Y-52324520D03*
D13*
X381510540Y-42164520D03*
D12*
X35559480Y-74932540D03*
D13*
X45719480Y-74932540D03*
D12*
X48262540Y-71374520D03*
D13*
X48262540Y-61214520D03*
D12*
X78996540Y-71374520D03*
D13*
X78996540Y-61214520D03*
D12*
X105158540Y-71120520D03*
D13*
X105158540Y-60960520D03*
D12*
X124462540Y-71120520D03*
D13*
X124462540Y-60960520D03*
D12*
X143512540Y-71120520D03*
D13*
X143512540Y-60960520D03*
D12*
X162562540Y-71120520D03*
D13*
X162562540Y-60960520D03*
D12*
X181612540Y-71120520D03*
D13*
X181612540Y-60960520D03*
D12*
X200662540Y-71120520D03*
D13*
X200662540Y-60960520D03*
D12*
X219712540Y-70866520D03*
D13*
X219712540Y-60706520D03*
D12*
X238762540Y-70866520D03*
D13*
X238762540Y-60706520D03*
D12*
X257812540Y-70866520D03*
D13*
X257812540Y-60706520D03*
D12*
X276862540Y-70866520D03*
D13*
X276862540Y-60706520D03*
D12*
X295912540Y-70866520D03*
D13*
X295912540Y-60706520D03*
D12*
X326900540Y-70866520D03*
D13*
X326900540Y-60706520D03*
D12*
X35559480Y-77472540D03*
D13*
X45719480Y-77472540D03*
D12*
X48262540Y-90424520D03*
D13*
X48262540Y-80264520D03*
D12*
X83822540Y-90424520D03*
D13*
X83822540Y-80264520D03*
D12*
X114810540Y-90424520D03*
D13*
X114810540Y-80264520D03*
D12*
X133860540Y-90424520D03*
D13*
X133860540Y-80264520D03*
D12*
X152910540Y-90424520D03*
D13*
X152910540Y-80264520D03*
D12*
X171960540Y-90424520D03*
D13*
X171960540Y-80264520D03*
D12*
X191010540Y-90424520D03*
D13*
X191010540Y-80264520D03*
D12*
X210060540Y-90424520D03*
D13*
X210060540Y-80264520D03*
D12*
X229110540Y-90424520D03*
D13*
X229110540Y-80264520D03*
D12*
X248160540Y-90424520D03*
D13*
X248160540Y-80264520D03*
D12*
X267210540Y-90424520D03*
D13*
X267210540Y-80264520D03*
D12*
X286260540Y-90424520D03*
D13*
X286260540Y-80264520D03*
D12*
X322074540Y-90424520D03*
D13*
X322074540Y-80264520D03*
D12*
X380494540Y-90424520D03*
D13*
X380494540Y-80264520D03*
D12*
X35559480Y-96522540D03*
D13*
X45719480Y-96522540D03*
D12*
X48262540Y-109474520D03*
D13*
X48262540Y-99314520D03*
D12*
X79247480Y-96522540D03*
D13*
X89407480Y-96522540D03*
D12*
X115951000Y-109347000D03*
D13*
X115951000Y-99187000D03*
D12*
X122176540Y-109474520D03*
D13*
X122176540Y-99314520D03*
D12*
X193550540Y-109474520D03*
D13*
X193550540Y-99314520D03*
D12*
X264924540Y-109474520D03*
D13*
X264924540Y-99314520D03*
D12*
X288546540Y-109474520D03*
D13*
X288546540Y-99314520D03*
D12*
X312422540Y-109474520D03*
D13*
X312422540Y-99314520D03*
D12*
X343410540Y-109474520D03*
D13*
X343410540Y-99314520D03*
D12*
X362460540Y-109474520D03*
D13*
X362460540Y-99314520D03*
D14*
X381000000Y-30162500D03*
X381000000Y-103187500D03*
X242824000Y-30162500D03*
X237998000Y-98425000D03*
X90424000Y-30162500D03*
X101142800Y-65087500D03*
D11*
X391566400Y-90373200D03*
X387566400Y-90373200D03*
X391534400Y-93192600D03*
X387534400Y-93192600D03*
D21*
X391275000Y-84125000D03*
X389775000Y-84125000D03*
X391275000Y-87325000D03*
X389775000Y-87325000D03*
D22*
X392525000Y-83725000D03*
X388525000Y-87725000D03*
D23*
X396240000Y-85090000D03*
D24*
X396240000Y-87630000D03*
X396240000Y-90170000D03*
X396240000Y-92710000D03*
M02*
