G04 #@! TF.FileFunction,Legend,Bot*
%FSLAX46Y46*%
G04 Gerber Fmt 4.6, Leading zero omitted, Abs format (unit mm)*
G04 Created by KiCad (PCBNEW 4.0.2-stable) date Monday, June 06, 2016 'PMt' 03:24:31 PM*
%MOMM*%
G01*
G04 APERTURE LIST*
%ADD10C,0.150000*%
%ADD11C,0.200000*%
G04 APERTURE END LIST*
D10*
D11*
X72009000Y-113919000D02*
X72009000Y-19558000D01*
D10*
X358131000Y-59190000D02*
X359401000Y-59190000D01*
X358131000Y-74160000D02*
X359401000Y-74160000D01*
X395741000Y-74160000D02*
X394471000Y-74160000D01*
X395741000Y-59190000D02*
X394471000Y-59190000D01*
X358131000Y-59190000D02*
X358131000Y-74160000D01*
X395741000Y-59190000D02*
X395741000Y-74160000D01*
X359401000Y-59190000D02*
X359401000Y-57905000D01*
X307768500Y-74299500D02*
X305768500Y-74299500D01*
X305768500Y-76449500D02*
X307768500Y-76449500D01*
X313295000Y-77215000D02*
X313295000Y-77580000D01*
X305545000Y-77215000D02*
X305545000Y-77580000D01*
X305545000Y-92965000D02*
X305545000Y-92600000D01*
X313295000Y-92965000D02*
X313295000Y-92600000D01*
X313295000Y-77215000D02*
X305545000Y-77215000D01*
X313295000Y-92965000D02*
X305545000Y-92965000D01*
X313295000Y-77580000D02*
X315120000Y-77580000D01*
X303300500Y-90178000D02*
X303300500Y-91178000D01*
X301600500Y-91178000D02*
X301600500Y-90178000D01*
X354658381Y-58293095D02*
X355467905Y-58293095D01*
X355563143Y-58340714D01*
X355610762Y-58388333D01*
X355658381Y-58483571D01*
X355658381Y-58674048D01*
X355610762Y-58769286D01*
X355563143Y-58816905D01*
X355467905Y-58864524D01*
X354658381Y-58864524D01*
X355658381Y-59864524D02*
X355658381Y-59293095D01*
X355658381Y-59578809D02*
X354658381Y-59578809D01*
X354801238Y-59483571D01*
X354896476Y-59388333D01*
X354944095Y-59293095D01*
D11*
X335303274Y-83129762D02*
X335160417Y-83177381D01*
X334922321Y-83177381D01*
X334827083Y-83129762D01*
X334779464Y-83082143D01*
X334731845Y-82986905D01*
X334731845Y-82891667D01*
X334779464Y-82796429D01*
X334827083Y-82748810D01*
X334922321Y-82701190D01*
X335112798Y-82653571D01*
X335208036Y-82605952D01*
X335255655Y-82558333D01*
X335303274Y-82463095D01*
X335303274Y-82367857D01*
X335255655Y-82272619D01*
X335208036Y-82225000D01*
X335112798Y-82177381D01*
X334874702Y-82177381D01*
X334731845Y-82225000D01*
X334398512Y-82177381D02*
X334160417Y-83177381D01*
X333969940Y-82463095D01*
X333779464Y-83177381D01*
X333541369Y-82177381D01*
X333398512Y-83272619D02*
X332636607Y-83272619D01*
X332446131Y-83129762D02*
X332303274Y-83177381D01*
X332065178Y-83177381D01*
X331969940Y-83129762D01*
X331922321Y-83082143D01*
X331874702Y-82986905D01*
X331874702Y-82891667D01*
X331922321Y-82796429D01*
X331969940Y-82748810D01*
X332065178Y-82701190D01*
X332255655Y-82653571D01*
X332350893Y-82605952D01*
X332398512Y-82558333D01*
X332446131Y-82463095D01*
X332446131Y-82367857D01*
X332398512Y-82272619D01*
X332350893Y-82225000D01*
X332255655Y-82177381D01*
X332017559Y-82177381D01*
X331874702Y-82225000D01*
X331446131Y-83177381D02*
X331446131Y-82177381D01*
X331017559Y-83177381D02*
X331017559Y-82653571D01*
X331065178Y-82558333D01*
X331160416Y-82510714D01*
X331303274Y-82510714D01*
X331398512Y-82558333D01*
X331446131Y-82605952D01*
X330541369Y-83177381D02*
X330541369Y-82510714D01*
X330541369Y-82177381D02*
X330588988Y-82225000D01*
X330541369Y-82272619D01*
X330493750Y-82225000D01*
X330541369Y-82177381D01*
X330541369Y-82272619D01*
X330208036Y-82510714D02*
X329827084Y-82510714D01*
X330065179Y-83177381D02*
X330065179Y-82320238D01*
X330017560Y-82225000D01*
X329922322Y-82177381D01*
X329827084Y-82177381D01*
X329636607Y-82510714D02*
X329255655Y-82510714D01*
X329493750Y-82177381D02*
X329493750Y-83034524D01*
X329446131Y-83129762D01*
X329350893Y-83177381D01*
X329255655Y-83177381D01*
X329160416Y-83272619D02*
X328398511Y-83272619D01*
X327731844Y-82177381D02*
X327922321Y-82177381D01*
X328017559Y-82225000D01*
X328065178Y-82272619D01*
X328160416Y-82415476D01*
X328208035Y-82605952D01*
X328208035Y-82986905D01*
X328160416Y-83082143D01*
X328112797Y-83129762D01*
X328017559Y-83177381D01*
X327827082Y-83177381D01*
X327731844Y-83129762D01*
X327684225Y-83082143D01*
X327636606Y-82986905D01*
X327636606Y-82748810D01*
X327684225Y-82653571D01*
X327731844Y-82605952D01*
X327827082Y-82558333D01*
X328017559Y-82558333D01*
X328112797Y-82605952D01*
X328160416Y-82653571D01*
X328208035Y-82748810D01*
X326731844Y-82177381D02*
X327208035Y-82177381D01*
X327255654Y-82653571D01*
X327208035Y-82605952D01*
X327112797Y-82558333D01*
X326874701Y-82558333D01*
X326779463Y-82605952D01*
X326731844Y-82653571D01*
X326684225Y-82748810D01*
X326684225Y-82986905D01*
X326731844Y-83082143D01*
X326779463Y-83129762D01*
X326874701Y-83177381D01*
X327112797Y-83177381D01*
X327208035Y-83129762D01*
X327255654Y-83082143D01*
D10*
X328437845Y-80811667D02*
X327961654Y-80811667D01*
X328533083Y-81097381D02*
X328199750Y-80097381D01*
X327866416Y-81097381D01*
X334049655Y-81097381D02*
X334049655Y-80097381D01*
X333478226Y-81097381D02*
X333906798Y-80525952D01*
X333478226Y-80097381D02*
X334049655Y-80668810D01*
D11*
X395429762Y-102179762D02*
X395286905Y-102227381D01*
X395048809Y-102227381D01*
X394953571Y-102179762D01*
X394905952Y-102132143D01*
X394858333Y-102036905D01*
X394858333Y-101941667D01*
X394905952Y-101846429D01*
X394953571Y-101798810D01*
X395048809Y-101751190D01*
X395239286Y-101703571D01*
X395334524Y-101655952D01*
X395382143Y-101608333D01*
X395429762Y-101513095D01*
X395429762Y-101417857D01*
X395382143Y-101322619D01*
X395334524Y-101275000D01*
X395239286Y-101227381D01*
X395001190Y-101227381D01*
X394858333Y-101275000D01*
X394525000Y-101227381D02*
X394286905Y-102227381D01*
X394096428Y-101513095D01*
X393905952Y-102227381D01*
X393667857Y-101227381D01*
X393525000Y-102322619D02*
X392763095Y-102322619D01*
X392620238Y-101227381D02*
X391953571Y-102227381D01*
X391953571Y-101227381D02*
X392620238Y-102227381D01*
X391620238Y-101322619D02*
X391572619Y-101275000D01*
X391477381Y-101227381D01*
X391239285Y-101227381D01*
X391144047Y-101275000D01*
X391096428Y-101322619D01*
X391048809Y-101417857D01*
X391048809Y-101513095D01*
X391096428Y-101655952D01*
X391667857Y-102227381D01*
X391048809Y-102227381D01*
X390429762Y-101227381D02*
X390334523Y-101227381D01*
X390239285Y-101275000D01*
X390191666Y-101322619D01*
X390144047Y-101417857D01*
X390096428Y-101608333D01*
X390096428Y-101846429D01*
X390144047Y-102036905D01*
X390191666Y-102132143D01*
X390239285Y-102179762D01*
X390334523Y-102227381D01*
X390429762Y-102227381D01*
X390525000Y-102179762D01*
X390572619Y-102132143D01*
X390620238Y-102036905D01*
X390667857Y-101846429D01*
X390667857Y-101608333D01*
X390620238Y-101417857D01*
X390572619Y-101322619D01*
X390525000Y-101275000D01*
X390429762Y-101227381D01*
X389477381Y-101751190D02*
X389477381Y-102227381D01*
X389810714Y-101227381D02*
X389477381Y-101751190D01*
X389144047Y-101227381D01*
X388334523Y-101227381D02*
X388810714Y-101227381D01*
X388858333Y-101703571D01*
X388810714Y-101655952D01*
X388715476Y-101608333D01*
X388477380Y-101608333D01*
X388382142Y-101655952D01*
X388334523Y-101703571D01*
X388286904Y-101798810D01*
X388286904Y-102036905D01*
X388334523Y-102132143D01*
X388382142Y-102179762D01*
X388477380Y-102227381D01*
X388715476Y-102227381D01*
X388810714Y-102179762D01*
X388858333Y-102132143D01*
X388096428Y-102322619D02*
X387334523Y-102322619D01*
X387191666Y-101227381D02*
X386524999Y-101227381D01*
X386953571Y-102227381D01*
X386001190Y-101655952D02*
X386096428Y-101608333D01*
X386144047Y-101560714D01*
X386191666Y-101465476D01*
X386191666Y-101417857D01*
X386144047Y-101322619D01*
X386096428Y-101275000D01*
X386001190Y-101227381D01*
X385810713Y-101227381D01*
X385715475Y-101275000D01*
X385667856Y-101322619D01*
X385620237Y-101417857D01*
X385620237Y-101465476D01*
X385667856Y-101560714D01*
X385715475Y-101608333D01*
X385810713Y-101655952D01*
X386001190Y-101655952D01*
X386096428Y-101703571D01*
X386144047Y-101751190D01*
X386191666Y-101846429D01*
X386191666Y-102036905D01*
X386144047Y-102132143D01*
X386096428Y-102179762D01*
X386001190Y-102227381D01*
X385810713Y-102227381D01*
X385715475Y-102179762D01*
X385667856Y-102132143D01*
X385620237Y-102036905D01*
X385620237Y-101846429D01*
X385667856Y-101751190D01*
X385715475Y-101703571D01*
X385810713Y-101655952D01*
D10*
X387969095Y-99861667D02*
X387492904Y-99861667D01*
X388064333Y-100147381D02*
X387731000Y-99147381D01*
X387397666Y-100147381D01*
X393580905Y-100147381D02*
X393580905Y-99147381D01*
X393009476Y-100147381D02*
X393438048Y-99575952D01*
X393009476Y-99147381D02*
X393580905Y-99718810D01*
D11*
X376379762Y-102179762D02*
X376236905Y-102227381D01*
X375998809Y-102227381D01*
X375903571Y-102179762D01*
X375855952Y-102132143D01*
X375808333Y-102036905D01*
X375808333Y-101941667D01*
X375855952Y-101846429D01*
X375903571Y-101798810D01*
X375998809Y-101751190D01*
X376189286Y-101703571D01*
X376284524Y-101655952D01*
X376332143Y-101608333D01*
X376379762Y-101513095D01*
X376379762Y-101417857D01*
X376332143Y-101322619D01*
X376284524Y-101275000D01*
X376189286Y-101227381D01*
X375951190Y-101227381D01*
X375808333Y-101275000D01*
X375475000Y-101227381D02*
X375236905Y-102227381D01*
X375046428Y-101513095D01*
X374855952Y-102227381D01*
X374617857Y-101227381D01*
X374475000Y-102322619D02*
X373713095Y-102322619D01*
X373570238Y-101227381D02*
X372903571Y-102227381D01*
X372903571Y-101227381D02*
X373570238Y-102227381D01*
X371998809Y-102227381D02*
X372570238Y-102227381D01*
X372284524Y-102227381D02*
X372284524Y-101227381D01*
X372379762Y-101370238D01*
X372475000Y-101465476D01*
X372570238Y-101513095D01*
X371522619Y-102227381D02*
X371332143Y-102227381D01*
X371236904Y-102179762D01*
X371189285Y-102132143D01*
X371094047Y-101989286D01*
X371046428Y-101798810D01*
X371046428Y-101417857D01*
X371094047Y-101322619D01*
X371141666Y-101275000D01*
X371236904Y-101227381D01*
X371427381Y-101227381D01*
X371522619Y-101275000D01*
X371570238Y-101322619D01*
X371617857Y-101417857D01*
X371617857Y-101655952D01*
X371570238Y-101751190D01*
X371522619Y-101798810D01*
X371427381Y-101846429D01*
X371236904Y-101846429D01*
X371141666Y-101798810D01*
X371094047Y-101751190D01*
X371046428Y-101655952D01*
X370427381Y-101751190D02*
X370427381Y-102227381D01*
X370760714Y-101227381D02*
X370427381Y-101751190D01*
X370094047Y-101227381D01*
X369284523Y-101227381D02*
X369760714Y-101227381D01*
X369808333Y-101703571D01*
X369760714Y-101655952D01*
X369665476Y-101608333D01*
X369427380Y-101608333D01*
X369332142Y-101655952D01*
X369284523Y-101703571D01*
X369236904Y-101798810D01*
X369236904Y-102036905D01*
X369284523Y-102132143D01*
X369332142Y-102179762D01*
X369427380Y-102227381D01*
X369665476Y-102227381D01*
X369760714Y-102179762D01*
X369808333Y-102132143D01*
X369046428Y-102322619D02*
X368284523Y-102322619D01*
X368141666Y-101227381D02*
X367474999Y-101227381D01*
X367903571Y-102227381D01*
X367189285Y-101227381D02*
X366522618Y-101227381D01*
X366951190Y-102227381D01*
D10*
X368919095Y-99861667D02*
X368442904Y-99861667D01*
X369014333Y-100147381D02*
X368681000Y-99147381D01*
X368347666Y-100147381D01*
X374530905Y-100147381D02*
X374530905Y-99147381D01*
X373959476Y-100147381D02*
X374388048Y-99575952D01*
X373959476Y-99147381D02*
X374530905Y-99718810D01*
D11*
X357329762Y-102179762D02*
X357186905Y-102227381D01*
X356948809Y-102227381D01*
X356853571Y-102179762D01*
X356805952Y-102132143D01*
X356758333Y-102036905D01*
X356758333Y-101941667D01*
X356805952Y-101846429D01*
X356853571Y-101798810D01*
X356948809Y-101751190D01*
X357139286Y-101703571D01*
X357234524Y-101655952D01*
X357282143Y-101608333D01*
X357329762Y-101513095D01*
X357329762Y-101417857D01*
X357282143Y-101322619D01*
X357234524Y-101275000D01*
X357139286Y-101227381D01*
X356901190Y-101227381D01*
X356758333Y-101275000D01*
X356425000Y-101227381D02*
X356186905Y-102227381D01*
X355996428Y-101513095D01*
X355805952Y-102227381D01*
X355567857Y-101227381D01*
X355425000Y-102322619D02*
X354663095Y-102322619D01*
X354520238Y-101227381D02*
X353853571Y-102227381D01*
X353853571Y-101227381D02*
X354520238Y-102227381D01*
X352948809Y-102227381D02*
X353520238Y-102227381D01*
X353234524Y-102227381D02*
X353234524Y-101227381D01*
X353329762Y-101370238D01*
X353425000Y-101465476D01*
X353520238Y-101513095D01*
X352377381Y-101655952D02*
X352472619Y-101608333D01*
X352520238Y-101560714D01*
X352567857Y-101465476D01*
X352567857Y-101417857D01*
X352520238Y-101322619D01*
X352472619Y-101275000D01*
X352377381Y-101227381D01*
X352186904Y-101227381D01*
X352091666Y-101275000D01*
X352044047Y-101322619D01*
X351996428Y-101417857D01*
X351996428Y-101465476D01*
X352044047Y-101560714D01*
X352091666Y-101608333D01*
X352186904Y-101655952D01*
X352377381Y-101655952D01*
X352472619Y-101703571D01*
X352520238Y-101751190D01*
X352567857Y-101846429D01*
X352567857Y-102036905D01*
X352520238Y-102132143D01*
X352472619Y-102179762D01*
X352377381Y-102227381D01*
X352186904Y-102227381D01*
X352091666Y-102179762D01*
X352044047Y-102132143D01*
X351996428Y-102036905D01*
X351996428Y-101846429D01*
X352044047Y-101751190D01*
X352091666Y-101703571D01*
X352186904Y-101655952D01*
X351377381Y-101751190D02*
X351377381Y-102227381D01*
X351710714Y-101227381D02*
X351377381Y-101751190D01*
X351044047Y-101227381D01*
X350234523Y-101227381D02*
X350710714Y-101227381D01*
X350758333Y-101703571D01*
X350710714Y-101655952D01*
X350615476Y-101608333D01*
X350377380Y-101608333D01*
X350282142Y-101655952D01*
X350234523Y-101703571D01*
X350186904Y-101798810D01*
X350186904Y-102036905D01*
X350234523Y-102132143D01*
X350282142Y-102179762D01*
X350377380Y-102227381D01*
X350615476Y-102227381D01*
X350710714Y-102179762D01*
X350758333Y-102132143D01*
X349996428Y-102322619D02*
X349234523Y-102322619D01*
X349091666Y-101227381D02*
X348424999Y-101227381D01*
X348853571Y-102227381D01*
X347615475Y-101227381D02*
X347805952Y-101227381D01*
X347901190Y-101275000D01*
X347948809Y-101322619D01*
X348044047Y-101465476D01*
X348091666Y-101655952D01*
X348091666Y-102036905D01*
X348044047Y-102132143D01*
X347996428Y-102179762D01*
X347901190Y-102227381D01*
X347710713Y-102227381D01*
X347615475Y-102179762D01*
X347567856Y-102132143D01*
X347520237Y-102036905D01*
X347520237Y-101798810D01*
X347567856Y-101703571D01*
X347615475Y-101655952D01*
X347710713Y-101608333D01*
X347901190Y-101608333D01*
X347996428Y-101655952D01*
X348044047Y-101703571D01*
X348091666Y-101798810D01*
D10*
X349869095Y-99861667D02*
X349392904Y-99861667D01*
X349964333Y-100147381D02*
X349631000Y-99147381D01*
X349297666Y-100147381D01*
X355480905Y-100147381D02*
X355480905Y-99147381D01*
X354909476Y-100147381D02*
X355338048Y-99575952D01*
X354909476Y-99147381D02*
X355480905Y-99718810D01*
D11*
X325944941Y-102179762D02*
X325802084Y-102227381D01*
X325563988Y-102227381D01*
X325468750Y-102179762D01*
X325421131Y-102132143D01*
X325373512Y-102036905D01*
X325373512Y-101941667D01*
X325421131Y-101846429D01*
X325468750Y-101798810D01*
X325563988Y-101751190D01*
X325754465Y-101703571D01*
X325849703Y-101655952D01*
X325897322Y-101608333D01*
X325944941Y-101513095D01*
X325944941Y-101417857D01*
X325897322Y-101322619D01*
X325849703Y-101275000D01*
X325754465Y-101227381D01*
X325516369Y-101227381D01*
X325373512Y-101275000D01*
X325040179Y-101227381D02*
X324802084Y-102227381D01*
X324611607Y-101513095D01*
X324421131Y-102227381D01*
X324183036Y-101227381D01*
X324040179Y-102322619D02*
X323278274Y-102322619D01*
X323040179Y-102227381D02*
X323040179Y-101227381D01*
X322706845Y-101941667D01*
X322373512Y-101227381D01*
X322373512Y-102227381D01*
X321516369Y-102179762D02*
X321611607Y-102227381D01*
X321802084Y-102227381D01*
X321897322Y-102179762D01*
X321944941Y-102084524D01*
X321944941Y-101703571D01*
X321897322Y-101608333D01*
X321802084Y-101560714D01*
X321611607Y-101560714D01*
X321516369Y-101608333D01*
X321468750Y-101703571D01*
X321468750Y-101798810D01*
X321944941Y-101894048D01*
X321040179Y-101560714D02*
X321040179Y-102227381D01*
X321040179Y-101655952D02*
X320992560Y-101608333D01*
X320897322Y-101560714D01*
X320754464Y-101560714D01*
X320659226Y-101608333D01*
X320611607Y-101703571D01*
X320611607Y-102227381D01*
X319706845Y-101560714D02*
X319706845Y-102227381D01*
X320135417Y-101560714D02*
X320135417Y-102084524D01*
X320087798Y-102179762D01*
X319992560Y-102227381D01*
X319849702Y-102227381D01*
X319754464Y-102179762D01*
X319706845Y-102132143D01*
X319468750Y-102322619D02*
X318706845Y-102322619D01*
X318563988Y-101227381D02*
X317897321Y-101227381D01*
X318325893Y-102227381D01*
X317040178Y-101227381D02*
X317516369Y-101227381D01*
X317563988Y-101703571D01*
X317516369Y-101655952D01*
X317421131Y-101608333D01*
X317183035Y-101608333D01*
X317087797Y-101655952D01*
X317040178Y-101703571D01*
X316992559Y-101798810D01*
X316992559Y-102036905D01*
X317040178Y-102132143D01*
X317087797Y-102179762D01*
X317183035Y-102227381D01*
X317421131Y-102227381D01*
X317516369Y-102179762D01*
X317563988Y-102132143D01*
D10*
X318912845Y-99861667D02*
X318436654Y-99861667D01*
X319008083Y-100147381D02*
X318674750Y-99147381D01*
X318341416Y-100147381D01*
X324524655Y-100147381D02*
X324524655Y-99147381D01*
X323953226Y-100147381D02*
X324381798Y-99575952D01*
X323953226Y-99147381D02*
X324524655Y-99718810D01*
D11*
X301489583Y-102179762D02*
X301346726Y-102227381D01*
X301108630Y-102227381D01*
X301013392Y-102179762D01*
X300965773Y-102132143D01*
X300918154Y-102036905D01*
X300918154Y-101941667D01*
X300965773Y-101846429D01*
X301013392Y-101798810D01*
X301108630Y-101751190D01*
X301299107Y-101703571D01*
X301394345Y-101655952D01*
X301441964Y-101608333D01*
X301489583Y-101513095D01*
X301489583Y-101417857D01*
X301441964Y-101322619D01*
X301394345Y-101275000D01*
X301299107Y-101227381D01*
X301061011Y-101227381D01*
X300918154Y-101275000D01*
X300584821Y-101227381D02*
X300346726Y-102227381D01*
X300156249Y-101513095D01*
X299965773Y-102227381D01*
X299727678Y-101227381D01*
X299584821Y-102322619D02*
X298822916Y-102322619D01*
X298680059Y-101227381D02*
X298441964Y-102227381D01*
X298251487Y-101513095D01*
X298061011Y-102227381D01*
X297822916Y-101227381D01*
X297441964Y-102227381D02*
X297441964Y-101560714D01*
X297441964Y-101227381D02*
X297489583Y-101275000D01*
X297441964Y-101322619D01*
X297394345Y-101275000D01*
X297441964Y-101227381D01*
X297441964Y-101322619D01*
X296965774Y-101560714D02*
X296965774Y-102227381D01*
X296965774Y-101655952D02*
X296918155Y-101608333D01*
X296822917Y-101560714D01*
X296680059Y-101560714D01*
X296584821Y-101608333D01*
X296537202Y-101703571D01*
X296537202Y-102227381D01*
X296299107Y-102322619D02*
X295537202Y-102322619D01*
X295394345Y-101227381D02*
X294727678Y-101227381D01*
X295156250Y-102227381D01*
X293918154Y-101560714D02*
X293918154Y-102227381D01*
X294156250Y-101179762D02*
X294394345Y-101894048D01*
X293775297Y-101894048D01*
D10*
X295100345Y-99861667D02*
X294624154Y-99861667D01*
X295195583Y-100147381D02*
X294862250Y-99147381D01*
X294528916Y-100147381D01*
X300712155Y-100147381D02*
X300712155Y-99147381D01*
X300140726Y-100147381D02*
X300569298Y-99575952D01*
X300140726Y-99147381D02*
X300712155Y-99718810D01*
D11*
X277391370Y-102179762D02*
X277248513Y-102227381D01*
X277010417Y-102227381D01*
X276915179Y-102179762D01*
X276867560Y-102132143D01*
X276819941Y-102036905D01*
X276819941Y-101941667D01*
X276867560Y-101846429D01*
X276915179Y-101798810D01*
X277010417Y-101751190D01*
X277200894Y-101703571D01*
X277296132Y-101655952D01*
X277343751Y-101608333D01*
X277391370Y-101513095D01*
X277391370Y-101417857D01*
X277343751Y-101322619D01*
X277296132Y-101275000D01*
X277200894Y-101227381D01*
X276962798Y-101227381D01*
X276819941Y-101275000D01*
X276486608Y-101227381D02*
X276248513Y-102227381D01*
X276058036Y-101513095D01*
X275867560Y-102227381D01*
X275629465Y-101227381D01*
X275486608Y-102322619D02*
X274724703Y-102322619D01*
X274534227Y-101941667D02*
X274058036Y-101941667D01*
X274629465Y-102227381D02*
X274296132Y-101227381D01*
X273962798Y-102227381D01*
X273486608Y-102227381D02*
X273581846Y-102179762D01*
X273629465Y-102084524D01*
X273629465Y-101227381D01*
X273248512Y-101560714D02*
X272867560Y-101560714D01*
X273105655Y-101227381D02*
X273105655Y-102084524D01*
X273058036Y-102179762D01*
X272962798Y-102227381D01*
X272867560Y-102227381D01*
X272772321Y-102322619D02*
X272010416Y-102322619D01*
X271867559Y-101227381D02*
X271200892Y-101227381D01*
X271629464Y-102227381D01*
X270915178Y-101227381D02*
X270296130Y-101227381D01*
X270629464Y-101608333D01*
X270486606Y-101608333D01*
X270391368Y-101655952D01*
X270343749Y-101703571D01*
X270296130Y-101798810D01*
X270296130Y-102036905D01*
X270343749Y-102132143D01*
X270391368Y-102179762D01*
X270486606Y-102227381D01*
X270772321Y-102227381D01*
X270867559Y-102179762D01*
X270915178Y-102132143D01*
D10*
X271287845Y-99861667D02*
X270811654Y-99861667D01*
X271383083Y-100147381D02*
X271049750Y-99147381D01*
X270716416Y-100147381D01*
X276899655Y-100147381D02*
X276899655Y-99147381D01*
X276328226Y-100147381D02*
X276756798Y-99575952D01*
X276328226Y-99147381D02*
X276899655Y-99718810D01*
D11*
X206834822Y-102179762D02*
X206691965Y-102227381D01*
X206453869Y-102227381D01*
X206358631Y-102179762D01*
X206311012Y-102132143D01*
X206263393Y-102036905D01*
X206263393Y-101941667D01*
X206311012Y-101846429D01*
X206358631Y-101798810D01*
X206453869Y-101751190D01*
X206644346Y-101703571D01*
X206739584Y-101655952D01*
X206787203Y-101608333D01*
X206834822Y-101513095D01*
X206834822Y-101417857D01*
X206787203Y-101322619D01*
X206739584Y-101275000D01*
X206644346Y-101227381D01*
X206406250Y-101227381D01*
X206263393Y-101275000D01*
X205930060Y-101227381D02*
X205691965Y-102227381D01*
X205501488Y-101513095D01*
X205311012Y-102227381D01*
X205072917Y-101227381D01*
X204930060Y-102322619D02*
X204168155Y-102322619D01*
X204025298Y-101227381D02*
X203358631Y-102227381D01*
X203358631Y-101227381D02*
X204025298Y-102227381D01*
X202834822Y-101655952D02*
X202930060Y-101608333D01*
X202977679Y-101560714D01*
X203025298Y-101465476D01*
X203025298Y-101417857D01*
X202977679Y-101322619D01*
X202930060Y-101275000D01*
X202834822Y-101227381D01*
X202644345Y-101227381D01*
X202549107Y-101275000D01*
X202501488Y-101322619D01*
X202453869Y-101417857D01*
X202453869Y-101465476D01*
X202501488Y-101560714D01*
X202549107Y-101608333D01*
X202644345Y-101655952D01*
X202834822Y-101655952D01*
X202930060Y-101703571D01*
X202977679Y-101751190D01*
X203025298Y-101846429D01*
X203025298Y-102036905D01*
X202977679Y-102132143D01*
X202930060Y-102179762D01*
X202834822Y-102227381D01*
X202644345Y-102227381D01*
X202549107Y-102179762D01*
X202501488Y-102132143D01*
X202453869Y-102036905D01*
X202453869Y-101846429D01*
X202501488Y-101751190D01*
X202549107Y-101703571D01*
X202644345Y-101655952D01*
X201834822Y-101751190D02*
X201834822Y-102227381D01*
X202168155Y-101227381D02*
X201834822Y-101751190D01*
X201501488Y-101227381D01*
X200691964Y-101227381D02*
X201168155Y-101227381D01*
X201215774Y-101703571D01*
X201168155Y-101655952D01*
X201072917Y-101608333D01*
X200834821Y-101608333D01*
X200739583Y-101655952D01*
X200691964Y-101703571D01*
X200644345Y-101798810D01*
X200644345Y-102036905D01*
X200691964Y-102132143D01*
X200739583Y-102179762D01*
X200834821Y-102227381D01*
X201072917Y-102227381D01*
X201168155Y-102179762D01*
X201215774Y-102132143D01*
X200453869Y-102322619D02*
X199691964Y-102322619D01*
X199549107Y-101227381D02*
X198882440Y-101227381D01*
X199311012Y-102227381D01*
X198549107Y-101322619D02*
X198501488Y-101275000D01*
X198406250Y-101227381D01*
X198168154Y-101227381D01*
X198072916Y-101275000D01*
X198025297Y-101322619D01*
X197977678Y-101417857D01*
X197977678Y-101513095D01*
X198025297Y-101655952D01*
X198596726Y-102227381D01*
X197977678Y-102227381D01*
D10*
X199850345Y-99861667D02*
X199374154Y-99861667D01*
X199945583Y-100147381D02*
X199612250Y-99147381D01*
X199278916Y-100147381D01*
X205462155Y-100147381D02*
X205462155Y-99147381D01*
X204890726Y-100147381D02*
X205319298Y-99575952D01*
X204890726Y-99147381D02*
X205462155Y-99718810D01*
D11*
X134516370Y-102179762D02*
X134373513Y-102227381D01*
X134135417Y-102227381D01*
X134040179Y-102179762D01*
X133992560Y-102132143D01*
X133944941Y-102036905D01*
X133944941Y-101941667D01*
X133992560Y-101846429D01*
X134040179Y-101798810D01*
X134135417Y-101751190D01*
X134325894Y-101703571D01*
X134421132Y-101655952D01*
X134468751Y-101608333D01*
X134516370Y-101513095D01*
X134516370Y-101417857D01*
X134468751Y-101322619D01*
X134421132Y-101275000D01*
X134325894Y-101227381D01*
X134087798Y-101227381D01*
X133944941Y-101275000D01*
X133611608Y-101227381D02*
X133373513Y-102227381D01*
X133183036Y-101513095D01*
X132992560Y-102227381D01*
X132754465Y-101227381D01*
X132611608Y-102322619D02*
X131849703Y-102322619D01*
X131659227Y-101941667D02*
X131183036Y-101941667D01*
X131754465Y-102227381D02*
X131421132Y-101227381D01*
X131087798Y-102227381D01*
X130611608Y-102227381D02*
X130706846Y-102179762D01*
X130754465Y-102084524D01*
X130754465Y-101227381D01*
X130373512Y-101560714D02*
X129992560Y-101560714D01*
X130230655Y-101227381D02*
X130230655Y-102084524D01*
X130183036Y-102179762D01*
X130087798Y-102227381D01*
X129992560Y-102227381D01*
X129897321Y-102322619D02*
X129135416Y-102322619D01*
X128992559Y-101227381D02*
X128325892Y-101227381D01*
X128754464Y-102227381D01*
X127421130Y-102227381D02*
X127992559Y-102227381D01*
X127706845Y-102227381D02*
X127706845Y-101227381D01*
X127802083Y-101370238D01*
X127897321Y-101465476D01*
X127992559Y-101513095D01*
D10*
X128412845Y-99861667D02*
X127936654Y-99861667D01*
X128508083Y-100147381D02*
X128174750Y-99147381D01*
X127841416Y-100147381D01*
X134024655Y-100147381D02*
X134024655Y-99147381D01*
X133453226Y-100147381D02*
X133881798Y-99575952D01*
X133453226Y-99147381D02*
X134024655Y-99718810D01*
D11*
X110989583Y-102179762D02*
X110846726Y-102227381D01*
X110608630Y-102227381D01*
X110513392Y-102179762D01*
X110465773Y-102132143D01*
X110418154Y-102036905D01*
X110418154Y-101941667D01*
X110465773Y-101846429D01*
X110513392Y-101798810D01*
X110608630Y-101751190D01*
X110799107Y-101703571D01*
X110894345Y-101655952D01*
X110941964Y-101608333D01*
X110989583Y-101513095D01*
X110989583Y-101417857D01*
X110941964Y-101322619D01*
X110894345Y-101275000D01*
X110799107Y-101227381D01*
X110561011Y-101227381D01*
X110418154Y-101275000D01*
X110084821Y-101227381D02*
X109846726Y-102227381D01*
X109656249Y-101513095D01*
X109465773Y-102227381D01*
X109227678Y-101227381D01*
X109084821Y-102322619D02*
X108322916Y-102322619D01*
X108180059Y-101227381D02*
X107941964Y-102227381D01*
X107751487Y-101513095D01*
X107561011Y-102227381D01*
X107322916Y-101227381D01*
X106941964Y-102227381D02*
X106941964Y-101560714D01*
X106941964Y-101227381D02*
X106989583Y-101275000D01*
X106941964Y-101322619D01*
X106894345Y-101275000D01*
X106941964Y-101227381D01*
X106941964Y-101322619D01*
X106465774Y-101560714D02*
X106465774Y-102227381D01*
X106465774Y-101655952D02*
X106418155Y-101608333D01*
X106322917Y-101560714D01*
X106180059Y-101560714D01*
X106084821Y-101608333D01*
X106037202Y-101703571D01*
X106037202Y-102227381D01*
X105799107Y-102322619D02*
X105037202Y-102322619D01*
X104894345Y-101227381D02*
X104227678Y-101227381D01*
X104656250Y-102227381D01*
X103656250Y-101227381D02*
X103561011Y-101227381D01*
X103465773Y-101275000D01*
X103418154Y-101322619D01*
X103370535Y-101417857D01*
X103322916Y-101608333D01*
X103322916Y-101846429D01*
X103370535Y-102036905D01*
X103418154Y-102132143D01*
X103465773Y-102179762D01*
X103561011Y-102227381D01*
X103656250Y-102227381D01*
X103751488Y-102179762D01*
X103799107Y-102132143D01*
X103846726Y-102036905D01*
X103894345Y-101846429D01*
X103894345Y-101608333D01*
X103846726Y-101417857D01*
X103799107Y-101322619D01*
X103751488Y-101275000D01*
X103656250Y-101227381D01*
D10*
X104600345Y-99861667D02*
X104124154Y-99861667D01*
X104695583Y-100147381D02*
X104362250Y-99147381D01*
X104028916Y-100147381D01*
X110212155Y-100147381D02*
X110212155Y-99147381D01*
X109640726Y-100147381D02*
X110069298Y-99575952D01*
X109640726Y-99147381D02*
X110212155Y-99718810D01*
D11*
X87272322Y-102179762D02*
X87129465Y-102227381D01*
X86891369Y-102227381D01*
X86796131Y-102179762D01*
X86748512Y-102132143D01*
X86700893Y-102036905D01*
X86700893Y-101941667D01*
X86748512Y-101846429D01*
X86796131Y-101798810D01*
X86891369Y-101751190D01*
X87081846Y-101703571D01*
X87177084Y-101655952D01*
X87224703Y-101608333D01*
X87272322Y-101513095D01*
X87272322Y-101417857D01*
X87224703Y-101322619D01*
X87177084Y-101275000D01*
X87081846Y-101227381D01*
X86843750Y-101227381D01*
X86700893Y-101275000D01*
X86367560Y-101227381D02*
X86129465Y-102227381D01*
X85938988Y-101513095D01*
X85748512Y-102227381D01*
X85510417Y-101227381D01*
X85367560Y-102322619D02*
X84605655Y-102322619D01*
X83796131Y-102132143D02*
X83843750Y-102179762D01*
X83986607Y-102227381D01*
X84081845Y-102227381D01*
X84224703Y-102179762D01*
X84319941Y-102084524D01*
X84367560Y-101989286D01*
X84415179Y-101798810D01*
X84415179Y-101655952D01*
X84367560Y-101465476D01*
X84319941Y-101370238D01*
X84224703Y-101275000D01*
X84081845Y-101227381D01*
X83986607Y-101227381D01*
X83843750Y-101275000D01*
X83796131Y-101322619D01*
X83510417Y-101560714D02*
X83129465Y-101560714D01*
X83367560Y-101227381D02*
X83367560Y-102084524D01*
X83319941Y-102179762D01*
X83224703Y-102227381D01*
X83129465Y-102227381D01*
X82796131Y-102227381D02*
X82796131Y-101560714D01*
X82796131Y-101751190D02*
X82748512Y-101655952D01*
X82700893Y-101608333D01*
X82605655Y-101560714D01*
X82510416Y-101560714D01*
X82034226Y-102227381D02*
X82129464Y-102179762D01*
X82177083Y-102084524D01*
X82177083Y-101227381D01*
X81891368Y-102322619D02*
X81129463Y-102322619D01*
X80462796Y-101227381D02*
X80653273Y-101227381D01*
X80748511Y-101275000D01*
X80796130Y-101322619D01*
X80891368Y-101465476D01*
X80938987Y-101655952D01*
X80938987Y-102036905D01*
X80891368Y-102132143D01*
X80843749Y-102179762D01*
X80748511Y-102227381D01*
X80558034Y-102227381D01*
X80462796Y-102179762D01*
X80415177Y-102132143D01*
X80367558Y-102036905D01*
X80367558Y-101798810D01*
X80415177Y-101703571D01*
X80462796Y-101655952D01*
X80558034Y-101608333D01*
X80748511Y-101608333D01*
X80843749Y-101655952D01*
X80891368Y-101703571D01*
X80938987Y-101798810D01*
X79891368Y-102227381D02*
X79700892Y-102227381D01*
X79605653Y-102179762D01*
X79558034Y-102132143D01*
X79462796Y-101989286D01*
X79415177Y-101798810D01*
X79415177Y-101417857D01*
X79462796Y-101322619D01*
X79510415Y-101275000D01*
X79605653Y-101227381D01*
X79796130Y-101227381D01*
X79891368Y-101275000D01*
X79938987Y-101322619D01*
X79986606Y-101417857D01*
X79986606Y-101655952D01*
X79938987Y-101751190D01*
X79891368Y-101798810D01*
X79796130Y-101846429D01*
X79605653Y-101846429D01*
X79510415Y-101798810D01*
X79462796Y-101751190D01*
X79415177Y-101655952D01*
D10*
X80787845Y-99861667D02*
X80311654Y-99861667D01*
X80883083Y-100147381D02*
X80549750Y-99147381D01*
X80216416Y-100147381D01*
X86399655Y-100147381D02*
X86399655Y-99147381D01*
X85828226Y-100147381D02*
X86256798Y-99575952D01*
X85828226Y-99147381D02*
X86399655Y-99718810D01*
D11*
X61102381Y-102179762D02*
X60959524Y-102227381D01*
X60721428Y-102227381D01*
X60626190Y-102179762D01*
X60578571Y-102132143D01*
X60530952Y-102036905D01*
X60530952Y-101941667D01*
X60578571Y-101846429D01*
X60626190Y-101798810D01*
X60721428Y-101751190D01*
X60911905Y-101703571D01*
X61007143Y-101655952D01*
X61054762Y-101608333D01*
X61102381Y-101513095D01*
X61102381Y-101417857D01*
X61054762Y-101322619D01*
X61007143Y-101275000D01*
X60911905Y-101227381D01*
X60673809Y-101227381D01*
X60530952Y-101275000D01*
X60197619Y-101227381D02*
X59959524Y-102227381D01*
X59769047Y-101513095D01*
X59578571Y-102227381D01*
X59340476Y-101227381D01*
X59197619Y-102322619D02*
X58435714Y-102322619D01*
X57864285Y-101703571D02*
X58197619Y-101703571D01*
X58197619Y-102227381D02*
X58197619Y-101227381D01*
X57721428Y-101227381D01*
X56816666Y-102227381D02*
X57388095Y-102227381D01*
X57102381Y-102227381D02*
X57102381Y-101227381D01*
X57197619Y-101370238D01*
X57292857Y-101465476D01*
X57388095Y-101513095D01*
X56197619Y-101227381D02*
X56102380Y-101227381D01*
X56007142Y-101275000D01*
X55959523Y-101322619D01*
X55911904Y-101417857D01*
X55864285Y-101608333D01*
X55864285Y-101846429D01*
X55911904Y-102036905D01*
X55959523Y-102132143D01*
X56007142Y-102179762D01*
X56102380Y-102227381D01*
X56197619Y-102227381D01*
X56292857Y-102179762D01*
X56340476Y-102132143D01*
X56388095Y-102036905D01*
X56435714Y-101846429D01*
X56435714Y-101608333D01*
X56388095Y-101417857D01*
X56340476Y-101322619D01*
X56292857Y-101275000D01*
X56197619Y-101227381D01*
X55673809Y-102322619D02*
X54911904Y-102322619D01*
X54245237Y-101227381D02*
X54435714Y-101227381D01*
X54530952Y-101275000D01*
X54578571Y-101322619D01*
X54673809Y-101465476D01*
X54721428Y-101655952D01*
X54721428Y-102036905D01*
X54673809Y-102132143D01*
X54626190Y-102179762D01*
X54530952Y-102227381D01*
X54340475Y-102227381D01*
X54245237Y-102179762D01*
X54197618Y-102132143D01*
X54149999Y-102036905D01*
X54149999Y-101798810D01*
X54197618Y-101703571D01*
X54245237Y-101655952D01*
X54340475Y-101608333D01*
X54530952Y-101608333D01*
X54626190Y-101655952D01*
X54673809Y-101703571D01*
X54721428Y-101798810D01*
X53578571Y-101655952D02*
X53673809Y-101608333D01*
X53721428Y-101560714D01*
X53769047Y-101465476D01*
X53769047Y-101417857D01*
X53721428Y-101322619D01*
X53673809Y-101275000D01*
X53578571Y-101227381D01*
X53388094Y-101227381D01*
X53292856Y-101275000D01*
X53245237Y-101322619D01*
X53197618Y-101417857D01*
X53197618Y-101465476D01*
X53245237Y-101560714D01*
X53292856Y-101608333D01*
X53388094Y-101655952D01*
X53578571Y-101655952D01*
X53673809Y-101703571D01*
X53721428Y-101751190D01*
X53769047Y-101846429D01*
X53769047Y-102036905D01*
X53721428Y-102132143D01*
X53673809Y-102179762D01*
X53578571Y-102227381D01*
X53388094Y-102227381D01*
X53292856Y-102179762D01*
X53245237Y-102132143D01*
X53197618Y-102036905D01*
X53197618Y-101846429D01*
X53245237Y-101751190D01*
X53292856Y-101703571D01*
X53388094Y-101655952D01*
D10*
X54594095Y-99861667D02*
X54117904Y-99861667D01*
X54689333Y-100147381D02*
X54356000Y-99147381D01*
X54022666Y-100147381D01*
X60205905Y-100147381D02*
X60205905Y-99147381D01*
X59634476Y-100147381D02*
X60063048Y-99575952D01*
X59634476Y-99147381D02*
X60205905Y-99718810D01*
D11*
X41576191Y-102179762D02*
X41433334Y-102227381D01*
X41195238Y-102227381D01*
X41100000Y-102179762D01*
X41052381Y-102132143D01*
X41004762Y-102036905D01*
X41004762Y-101941667D01*
X41052381Y-101846429D01*
X41100000Y-101798810D01*
X41195238Y-101751190D01*
X41385715Y-101703571D01*
X41480953Y-101655952D01*
X41528572Y-101608333D01*
X41576191Y-101513095D01*
X41576191Y-101417857D01*
X41528572Y-101322619D01*
X41480953Y-101275000D01*
X41385715Y-101227381D01*
X41147619Y-101227381D01*
X41004762Y-101275000D01*
X40671429Y-101227381D02*
X40433334Y-102227381D01*
X40242857Y-101513095D01*
X40052381Y-102227381D01*
X39814286Y-101227381D01*
X39671429Y-102322619D02*
X38909524Y-102322619D01*
X38338095Y-101703571D02*
X38671429Y-101703571D01*
X38671429Y-102227381D02*
X38671429Y-101227381D01*
X38195238Y-101227381D01*
X37766667Y-102227381D02*
X37576191Y-102227381D01*
X37480952Y-102179762D01*
X37433333Y-102132143D01*
X37338095Y-101989286D01*
X37290476Y-101798810D01*
X37290476Y-101417857D01*
X37338095Y-101322619D01*
X37385714Y-101275000D01*
X37480952Y-101227381D01*
X37671429Y-101227381D01*
X37766667Y-101275000D01*
X37814286Y-101322619D01*
X37861905Y-101417857D01*
X37861905Y-101655952D01*
X37814286Y-101751190D01*
X37766667Y-101798810D01*
X37671429Y-101846429D01*
X37480952Y-101846429D01*
X37385714Y-101798810D01*
X37338095Y-101751190D01*
X37290476Y-101655952D01*
X37100000Y-102322619D02*
X36338095Y-102322619D01*
X35671428Y-101227381D02*
X35861905Y-101227381D01*
X35957143Y-101275000D01*
X36004762Y-101322619D01*
X36100000Y-101465476D01*
X36147619Y-101655952D01*
X36147619Y-102036905D01*
X36100000Y-102132143D01*
X36052381Y-102179762D01*
X35957143Y-102227381D01*
X35766666Y-102227381D01*
X35671428Y-102179762D01*
X35623809Y-102132143D01*
X35576190Y-102036905D01*
X35576190Y-101798810D01*
X35623809Y-101703571D01*
X35671428Y-101655952D01*
X35766666Y-101608333D01*
X35957143Y-101608333D01*
X36052381Y-101655952D01*
X36100000Y-101703571D01*
X36147619Y-101798810D01*
X35242857Y-101227381D02*
X34576190Y-101227381D01*
X35004762Y-102227381D01*
D10*
X35544095Y-99861667D02*
X35067904Y-99861667D01*
X35639333Y-100147381D02*
X35306000Y-99147381D01*
X34972666Y-100147381D01*
X41155905Y-100147381D02*
X41155905Y-99147381D01*
X40584476Y-100147381D02*
X41013048Y-99575952D01*
X40584476Y-99147381D02*
X41155905Y-99718810D01*
D11*
X376379762Y-83129762D02*
X376236905Y-83177381D01*
X375998809Y-83177381D01*
X375903571Y-83129762D01*
X375855952Y-83082143D01*
X375808333Y-82986905D01*
X375808333Y-82891667D01*
X375855952Y-82796429D01*
X375903571Y-82748810D01*
X375998809Y-82701190D01*
X376189286Y-82653571D01*
X376284524Y-82605952D01*
X376332143Y-82558333D01*
X376379762Y-82463095D01*
X376379762Y-82367857D01*
X376332143Y-82272619D01*
X376284524Y-82225000D01*
X376189286Y-82177381D01*
X375951190Y-82177381D01*
X375808333Y-82225000D01*
X375475000Y-82177381D02*
X375236905Y-83177381D01*
X375046428Y-82463095D01*
X374855952Y-83177381D01*
X374617857Y-82177381D01*
X374475000Y-83272619D02*
X373713095Y-83272619D01*
X373570238Y-82177381D02*
X372903571Y-83177381D01*
X372903571Y-82177381D02*
X373570238Y-83177381D01*
X371998809Y-83177381D02*
X372570238Y-83177381D01*
X372284524Y-83177381D02*
X372284524Y-82177381D01*
X372379762Y-82320238D01*
X372475000Y-82415476D01*
X372570238Y-82463095D01*
X371522619Y-83177381D02*
X371332143Y-83177381D01*
X371236904Y-83129762D01*
X371189285Y-83082143D01*
X371094047Y-82939286D01*
X371046428Y-82748810D01*
X371046428Y-82367857D01*
X371094047Y-82272619D01*
X371141666Y-82225000D01*
X371236904Y-82177381D01*
X371427381Y-82177381D01*
X371522619Y-82225000D01*
X371570238Y-82272619D01*
X371617857Y-82367857D01*
X371617857Y-82605952D01*
X371570238Y-82701190D01*
X371522619Y-82748810D01*
X371427381Y-82796429D01*
X371236904Y-82796429D01*
X371141666Y-82748810D01*
X371094047Y-82701190D01*
X371046428Y-82605952D01*
X370427381Y-82701190D02*
X370427381Y-83177381D01*
X370760714Y-82177381D02*
X370427381Y-82701190D01*
X370094047Y-82177381D01*
X369332142Y-82510714D02*
X369332142Y-83177381D01*
X369570238Y-82129762D02*
X369808333Y-82844048D01*
X369189285Y-82844048D01*
X369046428Y-83272619D02*
X368284523Y-83272619D01*
X367617856Y-82177381D02*
X367808333Y-82177381D01*
X367903571Y-82225000D01*
X367951190Y-82272619D01*
X368046428Y-82415476D01*
X368094047Y-82605952D01*
X368094047Y-82986905D01*
X368046428Y-83082143D01*
X367998809Y-83129762D01*
X367903571Y-83177381D01*
X367713094Y-83177381D01*
X367617856Y-83129762D01*
X367570237Y-83082143D01*
X367522618Y-82986905D01*
X367522618Y-82748810D01*
X367570237Y-82653571D01*
X367617856Y-82605952D01*
X367713094Y-82558333D01*
X367903571Y-82558333D01*
X367998809Y-82605952D01*
X368046428Y-82653571D01*
X368094047Y-82748810D01*
X366665475Y-82177381D02*
X366855952Y-82177381D01*
X366951190Y-82225000D01*
X366998809Y-82272619D01*
X367094047Y-82415476D01*
X367141666Y-82605952D01*
X367141666Y-82986905D01*
X367094047Y-83082143D01*
X367046428Y-83129762D01*
X366951190Y-83177381D01*
X366760713Y-83177381D01*
X366665475Y-83129762D01*
X366617856Y-83082143D01*
X366570237Y-82986905D01*
X366570237Y-82748810D01*
X366617856Y-82653571D01*
X366665475Y-82605952D01*
X366760713Y-82558333D01*
X366951190Y-82558333D01*
X367046428Y-82605952D01*
X367094047Y-82653571D01*
X367141666Y-82748810D01*
D10*
X368919095Y-80811667D02*
X368442904Y-80811667D01*
X369014333Y-81097381D02*
X368681000Y-80097381D01*
X368347666Y-81097381D01*
X374530905Y-81097381D02*
X374530905Y-80097381D01*
X373959476Y-81097381D02*
X374388048Y-80525952D01*
X373959476Y-80097381D02*
X374530905Y-80668810D01*
D11*
X300179762Y-83129762D02*
X300036905Y-83177381D01*
X299798809Y-83177381D01*
X299703571Y-83129762D01*
X299655952Y-83082143D01*
X299608333Y-82986905D01*
X299608333Y-82891667D01*
X299655952Y-82796429D01*
X299703571Y-82748810D01*
X299798809Y-82701190D01*
X299989286Y-82653571D01*
X300084524Y-82605952D01*
X300132143Y-82558333D01*
X300179762Y-82463095D01*
X300179762Y-82367857D01*
X300132143Y-82272619D01*
X300084524Y-82225000D01*
X299989286Y-82177381D01*
X299751190Y-82177381D01*
X299608333Y-82225000D01*
X299275000Y-82177381D02*
X299036905Y-83177381D01*
X298846428Y-82463095D01*
X298655952Y-83177381D01*
X298417857Y-82177381D01*
X298275000Y-83272619D02*
X297513095Y-83272619D01*
X297370238Y-82177381D02*
X296703571Y-83177381D01*
X296703571Y-82177381D02*
X297370238Y-83177381D01*
X295798809Y-83177381D02*
X296370238Y-83177381D01*
X296084524Y-83177381D02*
X296084524Y-82177381D01*
X296179762Y-82320238D01*
X296275000Y-82415476D01*
X296370238Y-82463095D01*
X294894047Y-82177381D02*
X295370238Y-82177381D01*
X295417857Y-82653571D01*
X295370238Y-82605952D01*
X295275000Y-82558333D01*
X295036904Y-82558333D01*
X294941666Y-82605952D01*
X294894047Y-82653571D01*
X294846428Y-82748810D01*
X294846428Y-82986905D01*
X294894047Y-83082143D01*
X294941666Y-83129762D01*
X295036904Y-83177381D01*
X295275000Y-83177381D01*
X295370238Y-83129762D01*
X295417857Y-83082143D01*
X294227381Y-82701190D02*
X294227381Y-83177381D01*
X294560714Y-82177381D02*
X294227381Y-82701190D01*
X293894047Y-82177381D01*
X293132142Y-82510714D02*
X293132142Y-83177381D01*
X293370238Y-82129762D02*
X293608333Y-82844048D01*
X292989285Y-82844048D01*
X292846428Y-83272619D02*
X292084523Y-83272619D01*
X291417856Y-82177381D02*
X291608333Y-82177381D01*
X291703571Y-82225000D01*
X291751190Y-82272619D01*
X291846428Y-82415476D01*
X291894047Y-82605952D01*
X291894047Y-82986905D01*
X291846428Y-83082143D01*
X291798809Y-83129762D01*
X291703571Y-83177381D01*
X291513094Y-83177381D01*
X291417856Y-83129762D01*
X291370237Y-83082143D01*
X291322618Y-82986905D01*
X291322618Y-82748810D01*
X291370237Y-82653571D01*
X291417856Y-82605952D01*
X291513094Y-82558333D01*
X291703571Y-82558333D01*
X291798809Y-82605952D01*
X291846428Y-82653571D01*
X291894047Y-82748810D01*
X290465475Y-82510714D02*
X290465475Y-83177381D01*
X290703571Y-82129762D02*
X290941666Y-82844048D01*
X290322618Y-82844048D01*
D10*
X292719095Y-80811667D02*
X292242904Y-80811667D01*
X292814333Y-81097381D02*
X292481000Y-80097381D01*
X292147666Y-81097381D01*
X298330905Y-81097381D02*
X298330905Y-80097381D01*
X297759476Y-81097381D02*
X298188048Y-80525952D01*
X297759476Y-80097381D02*
X298330905Y-80668810D01*
D11*
X281129762Y-83129762D02*
X280986905Y-83177381D01*
X280748809Y-83177381D01*
X280653571Y-83129762D01*
X280605952Y-83082143D01*
X280558333Y-82986905D01*
X280558333Y-82891667D01*
X280605952Y-82796429D01*
X280653571Y-82748810D01*
X280748809Y-82701190D01*
X280939286Y-82653571D01*
X281034524Y-82605952D01*
X281082143Y-82558333D01*
X281129762Y-82463095D01*
X281129762Y-82367857D01*
X281082143Y-82272619D01*
X281034524Y-82225000D01*
X280939286Y-82177381D01*
X280701190Y-82177381D01*
X280558333Y-82225000D01*
X280225000Y-82177381D02*
X279986905Y-83177381D01*
X279796428Y-82463095D01*
X279605952Y-83177381D01*
X279367857Y-82177381D01*
X279225000Y-83272619D02*
X278463095Y-83272619D01*
X278320238Y-82177381D02*
X277653571Y-83177381D01*
X277653571Y-82177381D02*
X278320238Y-83177381D01*
X276748809Y-83177381D02*
X277320238Y-83177381D01*
X277034524Y-83177381D02*
X277034524Y-82177381D01*
X277129762Y-82320238D01*
X277225000Y-82415476D01*
X277320238Y-82463095D01*
X275891666Y-82510714D02*
X275891666Y-83177381D01*
X276129762Y-82129762D02*
X276367857Y-82844048D01*
X275748809Y-82844048D01*
X275177381Y-82701190D02*
X275177381Y-83177381D01*
X275510714Y-82177381D02*
X275177381Y-82701190D01*
X274844047Y-82177381D01*
X274082142Y-82510714D02*
X274082142Y-83177381D01*
X274320238Y-82129762D02*
X274558333Y-82844048D01*
X273939285Y-82844048D01*
X273796428Y-83272619D02*
X273034523Y-83272619D01*
X272367856Y-82177381D02*
X272558333Y-82177381D01*
X272653571Y-82225000D01*
X272701190Y-82272619D01*
X272796428Y-82415476D01*
X272844047Y-82605952D01*
X272844047Y-82986905D01*
X272796428Y-83082143D01*
X272748809Y-83129762D01*
X272653571Y-83177381D01*
X272463094Y-83177381D01*
X272367856Y-83129762D01*
X272320237Y-83082143D01*
X272272618Y-82986905D01*
X272272618Y-82748810D01*
X272320237Y-82653571D01*
X272367856Y-82605952D01*
X272463094Y-82558333D01*
X272653571Y-82558333D01*
X272748809Y-82605952D01*
X272796428Y-82653571D01*
X272844047Y-82748810D01*
X271939285Y-82177381D02*
X271320237Y-82177381D01*
X271653571Y-82558333D01*
X271510713Y-82558333D01*
X271415475Y-82605952D01*
X271367856Y-82653571D01*
X271320237Y-82748810D01*
X271320237Y-82986905D01*
X271367856Y-83082143D01*
X271415475Y-83129762D01*
X271510713Y-83177381D01*
X271796428Y-83177381D01*
X271891666Y-83129762D01*
X271939285Y-83082143D01*
D10*
X273669095Y-80811667D02*
X273192904Y-80811667D01*
X273764333Y-81097381D02*
X273431000Y-80097381D01*
X273097666Y-81097381D01*
X279280905Y-81097381D02*
X279280905Y-80097381D01*
X278709476Y-81097381D02*
X279138048Y-80525952D01*
X278709476Y-80097381D02*
X279280905Y-80668810D01*
D11*
X262079762Y-83129762D02*
X261936905Y-83177381D01*
X261698809Y-83177381D01*
X261603571Y-83129762D01*
X261555952Y-83082143D01*
X261508333Y-82986905D01*
X261508333Y-82891667D01*
X261555952Y-82796429D01*
X261603571Y-82748810D01*
X261698809Y-82701190D01*
X261889286Y-82653571D01*
X261984524Y-82605952D01*
X262032143Y-82558333D01*
X262079762Y-82463095D01*
X262079762Y-82367857D01*
X262032143Y-82272619D01*
X261984524Y-82225000D01*
X261889286Y-82177381D01*
X261651190Y-82177381D01*
X261508333Y-82225000D01*
X261175000Y-82177381D02*
X260936905Y-83177381D01*
X260746428Y-82463095D01*
X260555952Y-83177381D01*
X260317857Y-82177381D01*
X260175000Y-83272619D02*
X259413095Y-83272619D01*
X259270238Y-82177381D02*
X258603571Y-83177381D01*
X258603571Y-82177381D02*
X259270238Y-83177381D01*
X257698809Y-83177381D02*
X258270238Y-83177381D01*
X257984524Y-83177381D02*
X257984524Y-82177381D01*
X258079762Y-82320238D01*
X258175000Y-82415476D01*
X258270238Y-82463095D01*
X257365476Y-82177381D02*
X256746428Y-82177381D01*
X257079762Y-82558333D01*
X256936904Y-82558333D01*
X256841666Y-82605952D01*
X256794047Y-82653571D01*
X256746428Y-82748810D01*
X256746428Y-82986905D01*
X256794047Y-83082143D01*
X256841666Y-83129762D01*
X256936904Y-83177381D01*
X257222619Y-83177381D01*
X257317857Y-83129762D01*
X257365476Y-83082143D01*
X256127381Y-82701190D02*
X256127381Y-83177381D01*
X256460714Y-82177381D02*
X256127381Y-82701190D01*
X255794047Y-82177381D01*
X255032142Y-82510714D02*
X255032142Y-83177381D01*
X255270238Y-82129762D02*
X255508333Y-82844048D01*
X254889285Y-82844048D01*
X254746428Y-83272619D02*
X253984523Y-83272619D01*
X253317856Y-82177381D02*
X253508333Y-82177381D01*
X253603571Y-82225000D01*
X253651190Y-82272619D01*
X253746428Y-82415476D01*
X253794047Y-82605952D01*
X253794047Y-82986905D01*
X253746428Y-83082143D01*
X253698809Y-83129762D01*
X253603571Y-83177381D01*
X253413094Y-83177381D01*
X253317856Y-83129762D01*
X253270237Y-83082143D01*
X253222618Y-82986905D01*
X253222618Y-82748810D01*
X253270237Y-82653571D01*
X253317856Y-82605952D01*
X253413094Y-82558333D01*
X253603571Y-82558333D01*
X253698809Y-82605952D01*
X253746428Y-82653571D01*
X253794047Y-82748810D01*
X252841666Y-82272619D02*
X252794047Y-82225000D01*
X252698809Y-82177381D01*
X252460713Y-82177381D01*
X252365475Y-82225000D01*
X252317856Y-82272619D01*
X252270237Y-82367857D01*
X252270237Y-82463095D01*
X252317856Y-82605952D01*
X252889285Y-83177381D01*
X252270237Y-83177381D01*
D10*
X254619095Y-80811667D02*
X254142904Y-80811667D01*
X254714333Y-81097381D02*
X254381000Y-80097381D01*
X254047666Y-81097381D01*
X260230905Y-81097381D02*
X260230905Y-80097381D01*
X259659476Y-81097381D02*
X260088048Y-80525952D01*
X259659476Y-80097381D02*
X260230905Y-80668810D01*
D11*
X241267857Y-83129762D02*
X241125000Y-83177381D01*
X240886904Y-83177381D01*
X240791666Y-83129762D01*
X240744047Y-83082143D01*
X240696428Y-82986905D01*
X240696428Y-82891667D01*
X240744047Y-82796429D01*
X240791666Y-82748810D01*
X240886904Y-82701190D01*
X241077381Y-82653571D01*
X241172619Y-82605952D01*
X241220238Y-82558333D01*
X241267857Y-82463095D01*
X241267857Y-82367857D01*
X241220238Y-82272619D01*
X241172619Y-82225000D01*
X241077381Y-82177381D01*
X240839285Y-82177381D01*
X240696428Y-82225000D01*
X240363095Y-82177381D02*
X240125000Y-83177381D01*
X239934523Y-82463095D01*
X239744047Y-83177381D01*
X239505952Y-82177381D01*
X239363095Y-83272619D02*
X238601190Y-83272619D01*
X238363095Y-83177381D02*
X238363095Y-82177381D01*
X238029761Y-82891667D01*
X237696428Y-82177381D01*
X237696428Y-83177381D01*
X237458333Y-83272619D02*
X236696428Y-83272619D01*
X236029761Y-82177381D02*
X236220238Y-82177381D01*
X236315476Y-82225000D01*
X236363095Y-82272619D01*
X236458333Y-82415476D01*
X236505952Y-82605952D01*
X236505952Y-82986905D01*
X236458333Y-83082143D01*
X236410714Y-83129762D01*
X236315476Y-83177381D01*
X236124999Y-83177381D01*
X236029761Y-83129762D01*
X235982142Y-83082143D01*
X235934523Y-82986905D01*
X235934523Y-82748810D01*
X235982142Y-82653571D01*
X236029761Y-82605952D01*
X236124999Y-82558333D01*
X236315476Y-82558333D01*
X236410714Y-82605952D01*
X236458333Y-82653571D01*
X236505952Y-82748810D01*
X234982142Y-83177381D02*
X235553571Y-83177381D01*
X235267857Y-83177381D02*
X235267857Y-82177381D01*
X235363095Y-82320238D01*
X235458333Y-82415476D01*
X235553571Y-82463095D01*
D10*
X235569095Y-80811667D02*
X235092904Y-80811667D01*
X235664333Y-81097381D02*
X235331000Y-80097381D01*
X234997666Y-81097381D01*
X241180905Y-81097381D02*
X241180905Y-80097381D01*
X240609476Y-81097381D02*
X241038048Y-80525952D01*
X240609476Y-80097381D02*
X241180905Y-80668810D01*
D11*
X222170238Y-83129762D02*
X222027381Y-83177381D01*
X221789285Y-83177381D01*
X221694047Y-83129762D01*
X221646428Y-83082143D01*
X221598809Y-82986905D01*
X221598809Y-82891667D01*
X221646428Y-82796429D01*
X221694047Y-82748810D01*
X221789285Y-82701190D01*
X221979762Y-82653571D01*
X222075000Y-82605952D01*
X222122619Y-82558333D01*
X222170238Y-82463095D01*
X222170238Y-82367857D01*
X222122619Y-82272619D01*
X222075000Y-82225000D01*
X221979762Y-82177381D01*
X221741666Y-82177381D01*
X221598809Y-82225000D01*
X221265476Y-82177381D02*
X221027381Y-83177381D01*
X220836904Y-82463095D01*
X220646428Y-83177381D01*
X220408333Y-82177381D01*
X220265476Y-83272619D02*
X219503571Y-83272619D01*
X219265476Y-83177381D02*
X219265476Y-82177381D01*
X218694047Y-83177381D01*
X218694047Y-82177381D01*
X218455952Y-83272619D02*
X217694047Y-83272619D01*
X217027380Y-82177381D02*
X217217857Y-82177381D01*
X217313095Y-82225000D01*
X217360714Y-82272619D01*
X217455952Y-82415476D01*
X217503571Y-82605952D01*
X217503571Y-82986905D01*
X217455952Y-83082143D01*
X217408333Y-83129762D01*
X217313095Y-83177381D01*
X217122618Y-83177381D01*
X217027380Y-83129762D01*
X216979761Y-83082143D01*
X216932142Y-82986905D01*
X216932142Y-82748810D01*
X216979761Y-82653571D01*
X217027380Y-82605952D01*
X217122618Y-82558333D01*
X217313095Y-82558333D01*
X217408333Y-82605952D01*
X217455952Y-82653571D01*
X217503571Y-82748810D01*
X216313095Y-82177381D02*
X216217856Y-82177381D01*
X216122618Y-82225000D01*
X216074999Y-82272619D01*
X216027380Y-82367857D01*
X215979761Y-82558333D01*
X215979761Y-82796429D01*
X216027380Y-82986905D01*
X216074999Y-83082143D01*
X216122618Y-83129762D01*
X216217856Y-83177381D01*
X216313095Y-83177381D01*
X216408333Y-83129762D01*
X216455952Y-83082143D01*
X216503571Y-82986905D01*
X216551190Y-82796429D01*
X216551190Y-82558333D01*
X216503571Y-82367857D01*
X216455952Y-82272619D01*
X216408333Y-82225000D01*
X216313095Y-82177381D01*
D10*
X216519095Y-80811667D02*
X216042904Y-80811667D01*
X216614333Y-81097381D02*
X216281000Y-80097381D01*
X215947666Y-81097381D01*
X222130905Y-81097381D02*
X222130905Y-80097381D01*
X221559476Y-81097381D02*
X221988048Y-80525952D01*
X221559476Y-80097381D02*
X222130905Y-80668810D01*
D11*
X203096429Y-83129762D02*
X202953572Y-83177381D01*
X202715476Y-83177381D01*
X202620238Y-83129762D01*
X202572619Y-83082143D01*
X202525000Y-82986905D01*
X202525000Y-82891667D01*
X202572619Y-82796429D01*
X202620238Y-82748810D01*
X202715476Y-82701190D01*
X202905953Y-82653571D01*
X203001191Y-82605952D01*
X203048810Y-82558333D01*
X203096429Y-82463095D01*
X203096429Y-82367857D01*
X203048810Y-82272619D01*
X203001191Y-82225000D01*
X202905953Y-82177381D01*
X202667857Y-82177381D01*
X202525000Y-82225000D01*
X202191667Y-82177381D02*
X201953572Y-83177381D01*
X201763095Y-82463095D01*
X201572619Y-83177381D01*
X201334524Y-82177381D01*
X201191667Y-83272619D02*
X200429762Y-83272619D01*
X199858333Y-82653571D02*
X199715476Y-82701190D01*
X199667857Y-82748810D01*
X199620238Y-82844048D01*
X199620238Y-82986905D01*
X199667857Y-83082143D01*
X199715476Y-83129762D01*
X199810714Y-83177381D01*
X200191667Y-83177381D01*
X200191667Y-82177381D01*
X199858333Y-82177381D01*
X199763095Y-82225000D01*
X199715476Y-82272619D01*
X199667857Y-82367857D01*
X199667857Y-82463095D01*
X199715476Y-82558333D01*
X199763095Y-82605952D01*
X199858333Y-82653571D01*
X200191667Y-82653571D01*
X199429762Y-83272619D02*
X198667857Y-83272619D01*
X197953571Y-82177381D02*
X198429762Y-82177381D01*
X198477381Y-82653571D01*
X198429762Y-82605952D01*
X198334524Y-82558333D01*
X198096428Y-82558333D01*
X198001190Y-82605952D01*
X197953571Y-82653571D01*
X197905952Y-82748810D01*
X197905952Y-82986905D01*
X197953571Y-83082143D01*
X198001190Y-83129762D01*
X198096428Y-83177381D01*
X198334524Y-83177381D01*
X198429762Y-83129762D01*
X198477381Y-83082143D01*
X197429762Y-83177381D02*
X197239286Y-83177381D01*
X197144047Y-83129762D01*
X197096428Y-83082143D01*
X197001190Y-82939286D01*
X196953571Y-82748810D01*
X196953571Y-82367857D01*
X197001190Y-82272619D01*
X197048809Y-82225000D01*
X197144047Y-82177381D01*
X197334524Y-82177381D01*
X197429762Y-82225000D01*
X197477381Y-82272619D01*
X197525000Y-82367857D01*
X197525000Y-82605952D01*
X197477381Y-82701190D01*
X197429762Y-82748810D01*
X197334524Y-82796429D01*
X197144047Y-82796429D01*
X197048809Y-82748810D01*
X197001190Y-82701190D01*
X196953571Y-82605952D01*
D10*
X197469095Y-80811667D02*
X196992904Y-80811667D01*
X197564333Y-81097381D02*
X197231000Y-80097381D01*
X196897666Y-81097381D01*
X203080905Y-81097381D02*
X203080905Y-80097381D01*
X202509476Y-81097381D02*
X202938048Y-80525952D01*
X202509476Y-80097381D02*
X203080905Y-80668810D01*
D11*
X183975000Y-83129762D02*
X183832143Y-83177381D01*
X183594047Y-83177381D01*
X183498809Y-83129762D01*
X183451190Y-83082143D01*
X183403571Y-82986905D01*
X183403571Y-82891667D01*
X183451190Y-82796429D01*
X183498809Y-82748810D01*
X183594047Y-82701190D01*
X183784524Y-82653571D01*
X183879762Y-82605952D01*
X183927381Y-82558333D01*
X183975000Y-82463095D01*
X183975000Y-82367857D01*
X183927381Y-82272619D01*
X183879762Y-82225000D01*
X183784524Y-82177381D01*
X183546428Y-82177381D01*
X183403571Y-82225000D01*
X183070238Y-82177381D02*
X182832143Y-83177381D01*
X182641666Y-82463095D01*
X182451190Y-83177381D01*
X182213095Y-82177381D01*
X182070238Y-83272619D02*
X181308333Y-83272619D01*
X181213095Y-82177381D02*
X180879762Y-83177381D01*
X180546428Y-82177381D01*
X180451190Y-83272619D02*
X179689285Y-83272619D01*
X178974999Y-82177381D02*
X179451190Y-82177381D01*
X179498809Y-82653571D01*
X179451190Y-82605952D01*
X179355952Y-82558333D01*
X179117856Y-82558333D01*
X179022618Y-82605952D01*
X178974999Y-82653571D01*
X178927380Y-82748810D01*
X178927380Y-82986905D01*
X178974999Y-83082143D01*
X179022618Y-83129762D01*
X179117856Y-83177381D01*
X179355952Y-83177381D01*
X179451190Y-83129762D01*
X179498809Y-83082143D01*
X178355952Y-82605952D02*
X178451190Y-82558333D01*
X178498809Y-82510714D01*
X178546428Y-82415476D01*
X178546428Y-82367857D01*
X178498809Y-82272619D01*
X178451190Y-82225000D01*
X178355952Y-82177381D01*
X178165475Y-82177381D01*
X178070237Y-82225000D01*
X178022618Y-82272619D01*
X177974999Y-82367857D01*
X177974999Y-82415476D01*
X178022618Y-82510714D01*
X178070237Y-82558333D01*
X178165475Y-82605952D01*
X178355952Y-82605952D01*
X178451190Y-82653571D01*
X178498809Y-82701190D01*
X178546428Y-82796429D01*
X178546428Y-82986905D01*
X178498809Y-83082143D01*
X178451190Y-83129762D01*
X178355952Y-83177381D01*
X178165475Y-83177381D01*
X178070237Y-83129762D01*
X178022618Y-83082143D01*
X177974999Y-82986905D01*
X177974999Y-82796429D01*
X178022618Y-82701190D01*
X178070237Y-82653571D01*
X178165475Y-82605952D01*
D10*
X178419095Y-80811667D02*
X177942904Y-80811667D01*
X178514333Y-81097381D02*
X178181000Y-80097381D01*
X177847666Y-81097381D01*
X184030905Y-81097381D02*
X184030905Y-80097381D01*
X183459476Y-81097381D02*
X183888048Y-80525952D01*
X183459476Y-80097381D02*
X184030905Y-80668810D01*
D11*
X164996429Y-83129762D02*
X164853572Y-83177381D01*
X164615476Y-83177381D01*
X164520238Y-83129762D01*
X164472619Y-83082143D01*
X164425000Y-82986905D01*
X164425000Y-82891667D01*
X164472619Y-82796429D01*
X164520238Y-82748810D01*
X164615476Y-82701190D01*
X164805953Y-82653571D01*
X164901191Y-82605952D01*
X164948810Y-82558333D01*
X164996429Y-82463095D01*
X164996429Y-82367857D01*
X164948810Y-82272619D01*
X164901191Y-82225000D01*
X164805953Y-82177381D01*
X164567857Y-82177381D01*
X164425000Y-82225000D01*
X164091667Y-82177381D02*
X163853572Y-83177381D01*
X163663095Y-82463095D01*
X163472619Y-83177381D01*
X163234524Y-82177381D01*
X163091667Y-83272619D02*
X162329762Y-83272619D01*
X161520238Y-83082143D02*
X161567857Y-83129762D01*
X161710714Y-83177381D01*
X161805952Y-83177381D01*
X161948810Y-83129762D01*
X162044048Y-83034524D01*
X162091667Y-82939286D01*
X162139286Y-82748810D01*
X162139286Y-82605952D01*
X162091667Y-82415476D01*
X162044048Y-82320238D01*
X161948810Y-82225000D01*
X161805952Y-82177381D01*
X161710714Y-82177381D01*
X161567857Y-82225000D01*
X161520238Y-82272619D01*
X161329762Y-83272619D02*
X160567857Y-83272619D01*
X159853571Y-82177381D02*
X160329762Y-82177381D01*
X160377381Y-82653571D01*
X160329762Y-82605952D01*
X160234524Y-82558333D01*
X159996428Y-82558333D01*
X159901190Y-82605952D01*
X159853571Y-82653571D01*
X159805952Y-82748810D01*
X159805952Y-82986905D01*
X159853571Y-83082143D01*
X159901190Y-83129762D01*
X159996428Y-83177381D01*
X160234524Y-83177381D01*
X160329762Y-83129762D01*
X160377381Y-83082143D01*
X159472619Y-82177381D02*
X158805952Y-82177381D01*
X159234524Y-83177381D01*
D10*
X159369095Y-80811667D02*
X158892904Y-80811667D01*
X159464333Y-81097381D02*
X159131000Y-80097381D01*
X158797666Y-81097381D01*
X164980905Y-81097381D02*
X164980905Y-80097381D01*
X164409476Y-81097381D02*
X164838048Y-80525952D01*
X164409476Y-80097381D02*
X164980905Y-80668810D01*
D11*
X145922619Y-83129762D02*
X145779762Y-83177381D01*
X145541666Y-83177381D01*
X145446428Y-83129762D01*
X145398809Y-83082143D01*
X145351190Y-82986905D01*
X145351190Y-82891667D01*
X145398809Y-82796429D01*
X145446428Y-82748810D01*
X145541666Y-82701190D01*
X145732143Y-82653571D01*
X145827381Y-82605952D01*
X145875000Y-82558333D01*
X145922619Y-82463095D01*
X145922619Y-82367857D01*
X145875000Y-82272619D01*
X145827381Y-82225000D01*
X145732143Y-82177381D01*
X145494047Y-82177381D01*
X145351190Y-82225000D01*
X145017857Y-82177381D02*
X144779762Y-83177381D01*
X144589285Y-82463095D01*
X144398809Y-83177381D01*
X144160714Y-82177381D01*
X144017857Y-83272619D02*
X143255952Y-83272619D01*
X143113095Y-82177381D02*
X142446428Y-83177381D01*
X142446428Y-82177381D02*
X143113095Y-83177381D01*
X142303571Y-83272619D02*
X141541666Y-83272619D01*
X140827380Y-82177381D02*
X141303571Y-82177381D01*
X141351190Y-82653571D01*
X141303571Y-82605952D01*
X141208333Y-82558333D01*
X140970237Y-82558333D01*
X140874999Y-82605952D01*
X140827380Y-82653571D01*
X140779761Y-82748810D01*
X140779761Y-82986905D01*
X140827380Y-83082143D01*
X140874999Y-83129762D01*
X140970237Y-83177381D01*
X141208333Y-83177381D01*
X141303571Y-83129762D01*
X141351190Y-83082143D01*
X139922618Y-82177381D02*
X140113095Y-82177381D01*
X140208333Y-82225000D01*
X140255952Y-82272619D01*
X140351190Y-82415476D01*
X140398809Y-82605952D01*
X140398809Y-82986905D01*
X140351190Y-83082143D01*
X140303571Y-83129762D01*
X140208333Y-83177381D01*
X140017856Y-83177381D01*
X139922618Y-83129762D01*
X139874999Y-83082143D01*
X139827380Y-82986905D01*
X139827380Y-82748810D01*
X139874999Y-82653571D01*
X139922618Y-82605952D01*
X140017856Y-82558333D01*
X140208333Y-82558333D01*
X140303571Y-82605952D01*
X140351190Y-82653571D01*
X140398809Y-82748810D01*
D10*
X140319095Y-80811667D02*
X139842904Y-80811667D01*
X140414333Y-81097381D02*
X140081000Y-80097381D01*
X139747666Y-81097381D01*
X145930905Y-81097381D02*
X145930905Y-80097381D01*
X145359476Y-81097381D02*
X145788048Y-80525952D01*
X145359476Y-80097381D02*
X145930905Y-80668810D01*
D11*
X126872619Y-83129762D02*
X126729762Y-83177381D01*
X126491666Y-83177381D01*
X126396428Y-83129762D01*
X126348809Y-83082143D01*
X126301190Y-82986905D01*
X126301190Y-82891667D01*
X126348809Y-82796429D01*
X126396428Y-82748810D01*
X126491666Y-82701190D01*
X126682143Y-82653571D01*
X126777381Y-82605952D01*
X126825000Y-82558333D01*
X126872619Y-82463095D01*
X126872619Y-82367857D01*
X126825000Y-82272619D01*
X126777381Y-82225000D01*
X126682143Y-82177381D01*
X126444047Y-82177381D01*
X126301190Y-82225000D01*
X125967857Y-82177381D02*
X125729762Y-83177381D01*
X125539285Y-82463095D01*
X125348809Y-83177381D01*
X125110714Y-82177381D01*
X124967857Y-83272619D02*
X124205952Y-83272619D01*
X124063095Y-82177381D02*
X123396428Y-82177381D01*
X124063095Y-83177381D01*
X123396428Y-83177381D01*
X123253571Y-83272619D02*
X122491666Y-83272619D01*
X121777380Y-82177381D02*
X122253571Y-82177381D01*
X122301190Y-82653571D01*
X122253571Y-82605952D01*
X122158333Y-82558333D01*
X121920237Y-82558333D01*
X121824999Y-82605952D01*
X121777380Y-82653571D01*
X121729761Y-82748810D01*
X121729761Y-82986905D01*
X121777380Y-83082143D01*
X121824999Y-83129762D01*
X121920237Y-83177381D01*
X122158333Y-83177381D01*
X122253571Y-83129762D01*
X122301190Y-83082143D01*
X120824999Y-82177381D02*
X121301190Y-82177381D01*
X121348809Y-82653571D01*
X121301190Y-82605952D01*
X121205952Y-82558333D01*
X120967856Y-82558333D01*
X120872618Y-82605952D01*
X120824999Y-82653571D01*
X120777380Y-82748810D01*
X120777380Y-82986905D01*
X120824999Y-83082143D01*
X120872618Y-83129762D01*
X120967856Y-83177381D01*
X121205952Y-83177381D01*
X121301190Y-83129762D01*
X121348809Y-83082143D01*
D10*
X121269095Y-80811667D02*
X120792904Y-80811667D01*
X121364333Y-81097381D02*
X121031000Y-80097381D01*
X120697666Y-81097381D01*
X126880905Y-81097381D02*
X126880905Y-80097381D01*
X126309476Y-81097381D02*
X126738048Y-80525952D01*
X126309476Y-80097381D02*
X126880905Y-80668810D01*
D11*
X97178274Y-83129762D02*
X97035417Y-83177381D01*
X96797321Y-83177381D01*
X96702083Y-83129762D01*
X96654464Y-83082143D01*
X96606845Y-82986905D01*
X96606845Y-82891667D01*
X96654464Y-82796429D01*
X96702083Y-82748810D01*
X96797321Y-82701190D01*
X96987798Y-82653571D01*
X97083036Y-82605952D01*
X97130655Y-82558333D01*
X97178274Y-82463095D01*
X97178274Y-82367857D01*
X97130655Y-82272619D01*
X97083036Y-82225000D01*
X96987798Y-82177381D01*
X96749702Y-82177381D01*
X96606845Y-82225000D01*
X96273512Y-82177381D02*
X96035417Y-83177381D01*
X95844940Y-82463095D01*
X95654464Y-83177381D01*
X95416369Y-82177381D01*
X95273512Y-83272619D02*
X94511607Y-83272619D01*
X94321131Y-83129762D02*
X94178274Y-83177381D01*
X93940178Y-83177381D01*
X93844940Y-83129762D01*
X93797321Y-83082143D01*
X93749702Y-82986905D01*
X93749702Y-82891667D01*
X93797321Y-82796429D01*
X93844940Y-82748810D01*
X93940178Y-82701190D01*
X94130655Y-82653571D01*
X94225893Y-82605952D01*
X94273512Y-82558333D01*
X94321131Y-82463095D01*
X94321131Y-82367857D01*
X94273512Y-82272619D01*
X94225893Y-82225000D01*
X94130655Y-82177381D01*
X93892559Y-82177381D01*
X93749702Y-82225000D01*
X93321131Y-83177381D02*
X93321131Y-82177381D01*
X92892559Y-83177381D02*
X92892559Y-82653571D01*
X92940178Y-82558333D01*
X93035416Y-82510714D01*
X93178274Y-82510714D01*
X93273512Y-82558333D01*
X93321131Y-82605952D01*
X92416369Y-83177381D02*
X92416369Y-82510714D01*
X92416369Y-82177381D02*
X92463988Y-82225000D01*
X92416369Y-82272619D01*
X92368750Y-82225000D01*
X92416369Y-82177381D01*
X92416369Y-82272619D01*
X92083036Y-82510714D02*
X91702084Y-82510714D01*
X91940179Y-83177381D02*
X91940179Y-82320238D01*
X91892560Y-82225000D01*
X91797322Y-82177381D01*
X91702084Y-82177381D01*
X91511607Y-82510714D02*
X91130655Y-82510714D01*
X91368750Y-82177381D02*
X91368750Y-83034524D01*
X91321131Y-83129762D01*
X91225893Y-83177381D01*
X91130655Y-83177381D01*
X91035416Y-83272619D02*
X90273511Y-83272619D01*
X89559225Y-82177381D02*
X90035416Y-82177381D01*
X90083035Y-82653571D01*
X90035416Y-82605952D01*
X89940178Y-82558333D01*
X89702082Y-82558333D01*
X89606844Y-82605952D01*
X89559225Y-82653571D01*
X89511606Y-82748810D01*
X89511606Y-82986905D01*
X89559225Y-83082143D01*
X89606844Y-83129762D01*
X89702082Y-83177381D01*
X89940178Y-83177381D01*
X90035416Y-83129762D01*
X90083035Y-83082143D01*
X88654463Y-82510714D02*
X88654463Y-83177381D01*
X88892559Y-82129762D02*
X89130654Y-82844048D01*
X88511606Y-82844048D01*
D10*
X90312845Y-80811667D02*
X89836654Y-80811667D01*
X90408083Y-81097381D02*
X90074750Y-80097381D01*
X89741416Y-81097381D01*
X95924655Y-81097381D02*
X95924655Y-80097381D01*
X95353226Y-81097381D02*
X95781798Y-80525952D01*
X95353226Y-80097381D02*
X95924655Y-80668810D01*
D11*
X60626191Y-83129762D02*
X60483334Y-83177381D01*
X60245238Y-83177381D01*
X60150000Y-83129762D01*
X60102381Y-83082143D01*
X60054762Y-82986905D01*
X60054762Y-82891667D01*
X60102381Y-82796429D01*
X60150000Y-82748810D01*
X60245238Y-82701190D01*
X60435715Y-82653571D01*
X60530953Y-82605952D01*
X60578572Y-82558333D01*
X60626191Y-82463095D01*
X60626191Y-82367857D01*
X60578572Y-82272619D01*
X60530953Y-82225000D01*
X60435715Y-82177381D01*
X60197619Y-82177381D01*
X60054762Y-82225000D01*
X59721429Y-82177381D02*
X59483334Y-83177381D01*
X59292857Y-82463095D01*
X59102381Y-83177381D01*
X58864286Y-82177381D01*
X58721429Y-83272619D02*
X57959524Y-83272619D01*
X57388095Y-82653571D02*
X57721429Y-82653571D01*
X57721429Y-83177381D02*
X57721429Y-82177381D01*
X57245238Y-82177381D01*
X56721429Y-82605952D02*
X56816667Y-82558333D01*
X56864286Y-82510714D01*
X56911905Y-82415476D01*
X56911905Y-82367857D01*
X56864286Y-82272619D01*
X56816667Y-82225000D01*
X56721429Y-82177381D01*
X56530952Y-82177381D01*
X56435714Y-82225000D01*
X56388095Y-82272619D01*
X56340476Y-82367857D01*
X56340476Y-82415476D01*
X56388095Y-82510714D01*
X56435714Y-82558333D01*
X56530952Y-82605952D01*
X56721429Y-82605952D01*
X56816667Y-82653571D01*
X56864286Y-82701190D01*
X56911905Y-82796429D01*
X56911905Y-82986905D01*
X56864286Y-83082143D01*
X56816667Y-83129762D01*
X56721429Y-83177381D01*
X56530952Y-83177381D01*
X56435714Y-83129762D01*
X56388095Y-83082143D01*
X56340476Y-82986905D01*
X56340476Y-82796429D01*
X56388095Y-82701190D01*
X56435714Y-82653571D01*
X56530952Y-82605952D01*
X56150000Y-83272619D02*
X55388095Y-83272619D01*
X54673809Y-82177381D02*
X55150000Y-82177381D01*
X55197619Y-82653571D01*
X55150000Y-82605952D01*
X55054762Y-82558333D01*
X54816666Y-82558333D01*
X54721428Y-82605952D01*
X54673809Y-82653571D01*
X54626190Y-82748810D01*
X54626190Y-82986905D01*
X54673809Y-83082143D01*
X54721428Y-83129762D01*
X54816666Y-83177381D01*
X55054762Y-83177381D01*
X55150000Y-83129762D01*
X55197619Y-83082143D01*
X54292857Y-82177381D02*
X53673809Y-82177381D01*
X54007143Y-82558333D01*
X53864285Y-82558333D01*
X53769047Y-82605952D01*
X53721428Y-82653571D01*
X53673809Y-82748810D01*
X53673809Y-82986905D01*
X53721428Y-83082143D01*
X53769047Y-83129762D01*
X53864285Y-83177381D01*
X54150000Y-83177381D01*
X54245238Y-83129762D01*
X54292857Y-83082143D01*
D10*
X54594095Y-80811667D02*
X54117904Y-80811667D01*
X54689333Y-81097381D02*
X54356000Y-80097381D01*
X54022666Y-81097381D01*
X60205905Y-81097381D02*
X60205905Y-80097381D01*
X59634476Y-81097381D02*
X60063048Y-80525952D01*
X59634476Y-80097381D02*
X60205905Y-80668810D01*
D11*
X41576191Y-83129762D02*
X41433334Y-83177381D01*
X41195238Y-83177381D01*
X41100000Y-83129762D01*
X41052381Y-83082143D01*
X41004762Y-82986905D01*
X41004762Y-82891667D01*
X41052381Y-82796429D01*
X41100000Y-82748810D01*
X41195238Y-82701190D01*
X41385715Y-82653571D01*
X41480953Y-82605952D01*
X41528572Y-82558333D01*
X41576191Y-82463095D01*
X41576191Y-82367857D01*
X41528572Y-82272619D01*
X41480953Y-82225000D01*
X41385715Y-82177381D01*
X41147619Y-82177381D01*
X41004762Y-82225000D01*
X40671429Y-82177381D02*
X40433334Y-83177381D01*
X40242857Y-82463095D01*
X40052381Y-83177381D01*
X39814286Y-82177381D01*
X39671429Y-83272619D02*
X38909524Y-83272619D01*
X38338095Y-82653571D02*
X38671429Y-82653571D01*
X38671429Y-83177381D02*
X38671429Y-82177381D01*
X38195238Y-82177381D01*
X37909524Y-82177381D02*
X37242857Y-82177381D01*
X37671429Y-83177381D01*
X37100000Y-83272619D02*
X36338095Y-83272619D01*
X35623809Y-82177381D02*
X36100000Y-82177381D01*
X36147619Y-82653571D01*
X36100000Y-82605952D01*
X36004762Y-82558333D01*
X35766666Y-82558333D01*
X35671428Y-82605952D01*
X35623809Y-82653571D01*
X35576190Y-82748810D01*
X35576190Y-82986905D01*
X35623809Y-83082143D01*
X35671428Y-83129762D01*
X35766666Y-83177381D01*
X36004762Y-83177381D01*
X36100000Y-83129762D01*
X36147619Y-83082143D01*
X35195238Y-82272619D02*
X35147619Y-82225000D01*
X35052381Y-82177381D01*
X34814285Y-82177381D01*
X34719047Y-82225000D01*
X34671428Y-82272619D01*
X34623809Y-82367857D01*
X34623809Y-82463095D01*
X34671428Y-82605952D01*
X35242857Y-83177381D01*
X34623809Y-83177381D01*
D10*
X35544095Y-80811667D02*
X35067904Y-80811667D01*
X35639333Y-81097381D02*
X35306000Y-80097381D01*
X34972666Y-81097381D01*
X41155905Y-81097381D02*
X41155905Y-80097381D01*
X40584476Y-81097381D02*
X41013048Y-80525952D01*
X40584476Y-80097381D02*
X41155905Y-80668810D01*
D11*
X340256251Y-64079762D02*
X340113394Y-64127381D01*
X339875298Y-64127381D01*
X339780060Y-64079762D01*
X339732441Y-64032143D01*
X339684822Y-63936905D01*
X339684822Y-63841667D01*
X339732441Y-63746429D01*
X339780060Y-63698810D01*
X339875298Y-63651190D01*
X340065775Y-63603571D01*
X340161013Y-63555952D01*
X340208632Y-63508333D01*
X340256251Y-63413095D01*
X340256251Y-63317857D01*
X340208632Y-63222619D01*
X340161013Y-63175000D01*
X340065775Y-63127381D01*
X339827679Y-63127381D01*
X339684822Y-63175000D01*
X339351489Y-63127381D02*
X339113394Y-64127381D01*
X338922917Y-63413095D01*
X338732441Y-64127381D01*
X338494346Y-63127381D01*
X338351489Y-64222619D02*
X337589584Y-64222619D01*
X337351489Y-63603571D02*
X337018155Y-63603571D01*
X336875298Y-64127381D02*
X337351489Y-64127381D01*
X337351489Y-63127381D01*
X336875298Y-63127381D01*
X336446727Y-63460714D02*
X336446727Y-64127381D01*
X336446727Y-63555952D02*
X336399108Y-63508333D01*
X336303870Y-63460714D01*
X336161012Y-63460714D01*
X336065774Y-63508333D01*
X336018155Y-63603571D01*
X336018155Y-64127381D01*
X335684822Y-63460714D02*
X335303870Y-63460714D01*
X335541965Y-63127381D02*
X335541965Y-63984524D01*
X335494346Y-64079762D01*
X335399108Y-64127381D01*
X335303870Y-64127381D01*
X334589583Y-64079762D02*
X334684821Y-64127381D01*
X334875298Y-64127381D01*
X334970536Y-64079762D01*
X335018155Y-63984524D01*
X335018155Y-63603571D01*
X334970536Y-63508333D01*
X334875298Y-63460714D01*
X334684821Y-63460714D01*
X334589583Y-63508333D01*
X334541964Y-63603571D01*
X334541964Y-63698810D01*
X335018155Y-63794048D01*
X334113393Y-64127381D02*
X334113393Y-63460714D01*
X334113393Y-63651190D02*
X334065774Y-63555952D01*
X334018155Y-63508333D01*
X333922917Y-63460714D01*
X333827678Y-63460714D01*
X333732440Y-64222619D02*
X332970535Y-64222619D01*
X332256249Y-63127381D02*
X332732440Y-63127381D01*
X332780059Y-63603571D01*
X332732440Y-63555952D01*
X332637202Y-63508333D01*
X332399106Y-63508333D01*
X332303868Y-63555952D01*
X332256249Y-63603571D01*
X332208630Y-63698810D01*
X332208630Y-63936905D01*
X332256249Y-64032143D01*
X332303868Y-64079762D01*
X332399106Y-64127381D01*
X332637202Y-64127381D01*
X332732440Y-64079762D01*
X332780059Y-64032143D01*
X331256249Y-64127381D02*
X331827678Y-64127381D01*
X331541964Y-64127381D02*
X331541964Y-63127381D01*
X331637202Y-63270238D01*
X331732440Y-63365476D01*
X331827678Y-63413095D01*
D10*
X333200345Y-61761667D02*
X332724154Y-61761667D01*
X333295583Y-62047381D02*
X332962250Y-61047381D01*
X332628916Y-62047381D01*
X338812155Y-62047381D02*
X338812155Y-61047381D01*
X338240726Y-62047381D02*
X338669298Y-61475952D01*
X338240726Y-61047381D02*
X338812155Y-61618810D01*
D11*
X309704762Y-64079762D02*
X309561905Y-64127381D01*
X309323809Y-64127381D01*
X309228571Y-64079762D01*
X309180952Y-64032143D01*
X309133333Y-63936905D01*
X309133333Y-63841667D01*
X309180952Y-63746429D01*
X309228571Y-63698810D01*
X309323809Y-63651190D01*
X309514286Y-63603571D01*
X309609524Y-63555952D01*
X309657143Y-63508333D01*
X309704762Y-63413095D01*
X309704762Y-63317857D01*
X309657143Y-63222619D01*
X309609524Y-63175000D01*
X309514286Y-63127381D01*
X309276190Y-63127381D01*
X309133333Y-63175000D01*
X308800000Y-63127381D02*
X308561905Y-64127381D01*
X308371428Y-63413095D01*
X308180952Y-64127381D01*
X307942857Y-63127381D01*
X307800000Y-64222619D02*
X307038095Y-64222619D01*
X306895238Y-63127381D02*
X306228571Y-64127381D01*
X306228571Y-63127381D02*
X306895238Y-64127381D01*
X305323809Y-64127381D02*
X305895238Y-64127381D01*
X305609524Y-64127381D02*
X305609524Y-63127381D01*
X305704762Y-63270238D01*
X305800000Y-63365476D01*
X305895238Y-63413095D01*
X304466666Y-63127381D02*
X304657143Y-63127381D01*
X304752381Y-63175000D01*
X304800000Y-63222619D01*
X304895238Y-63365476D01*
X304942857Y-63555952D01*
X304942857Y-63936905D01*
X304895238Y-64032143D01*
X304847619Y-64079762D01*
X304752381Y-64127381D01*
X304561904Y-64127381D01*
X304466666Y-64079762D01*
X304419047Y-64032143D01*
X304371428Y-63936905D01*
X304371428Y-63698810D01*
X304419047Y-63603571D01*
X304466666Y-63555952D01*
X304561904Y-63508333D01*
X304752381Y-63508333D01*
X304847619Y-63555952D01*
X304895238Y-63603571D01*
X304942857Y-63698810D01*
X303752381Y-63651190D02*
X303752381Y-64127381D01*
X304085714Y-63127381D02*
X303752381Y-63651190D01*
X303419047Y-63127381D01*
X303180952Y-63127381D02*
X302561904Y-63127381D01*
X302895238Y-63508333D01*
X302752380Y-63508333D01*
X302657142Y-63555952D01*
X302609523Y-63603571D01*
X302561904Y-63698810D01*
X302561904Y-63936905D01*
X302609523Y-64032143D01*
X302657142Y-64079762D01*
X302752380Y-64127381D01*
X303038095Y-64127381D01*
X303133333Y-64079762D01*
X303180952Y-64032143D01*
X302371428Y-64222619D02*
X301609523Y-64222619D01*
X300895237Y-63127381D02*
X301371428Y-63127381D01*
X301419047Y-63603571D01*
X301371428Y-63555952D01*
X301276190Y-63508333D01*
X301038094Y-63508333D01*
X300942856Y-63555952D01*
X300895237Y-63603571D01*
X300847618Y-63698810D01*
X300847618Y-63936905D01*
X300895237Y-64032143D01*
X300942856Y-64079762D01*
X301038094Y-64127381D01*
X301276190Y-64127381D01*
X301371428Y-64079762D01*
X301419047Y-64032143D01*
X300228571Y-63127381D02*
X300133332Y-63127381D01*
X300038094Y-63175000D01*
X299990475Y-63222619D01*
X299942856Y-63317857D01*
X299895237Y-63508333D01*
X299895237Y-63746429D01*
X299942856Y-63936905D01*
X299990475Y-64032143D01*
X300038094Y-64079762D01*
X300133332Y-64127381D01*
X300228571Y-64127381D01*
X300323809Y-64079762D01*
X300371428Y-64032143D01*
X300419047Y-63936905D01*
X300466666Y-63746429D01*
X300466666Y-63508333D01*
X300419047Y-63317857D01*
X300371428Y-63222619D01*
X300323809Y-63175000D01*
X300228571Y-63127381D01*
D10*
X302244095Y-61761667D02*
X301767904Y-61761667D01*
X302339333Y-62047381D02*
X302006000Y-61047381D01*
X301672666Y-62047381D01*
X307855905Y-62047381D02*
X307855905Y-61047381D01*
X307284476Y-62047381D02*
X307713048Y-61475952D01*
X307284476Y-61047381D02*
X307855905Y-61618810D01*
D11*
X290654762Y-64079762D02*
X290511905Y-64127381D01*
X290273809Y-64127381D01*
X290178571Y-64079762D01*
X290130952Y-64032143D01*
X290083333Y-63936905D01*
X290083333Y-63841667D01*
X290130952Y-63746429D01*
X290178571Y-63698810D01*
X290273809Y-63651190D01*
X290464286Y-63603571D01*
X290559524Y-63555952D01*
X290607143Y-63508333D01*
X290654762Y-63413095D01*
X290654762Y-63317857D01*
X290607143Y-63222619D01*
X290559524Y-63175000D01*
X290464286Y-63127381D01*
X290226190Y-63127381D01*
X290083333Y-63175000D01*
X289750000Y-63127381D02*
X289511905Y-64127381D01*
X289321428Y-63413095D01*
X289130952Y-64127381D01*
X288892857Y-63127381D01*
X288750000Y-64222619D02*
X287988095Y-64222619D01*
X287845238Y-63127381D02*
X287178571Y-64127381D01*
X287178571Y-63127381D02*
X287845238Y-64127381D01*
X286273809Y-64127381D02*
X286845238Y-64127381D01*
X286559524Y-64127381D02*
X286559524Y-63127381D01*
X286654762Y-63270238D01*
X286750000Y-63365476D01*
X286845238Y-63413095D01*
X285369047Y-63127381D02*
X285845238Y-63127381D01*
X285892857Y-63603571D01*
X285845238Y-63555952D01*
X285750000Y-63508333D01*
X285511904Y-63508333D01*
X285416666Y-63555952D01*
X285369047Y-63603571D01*
X285321428Y-63698810D01*
X285321428Y-63936905D01*
X285369047Y-64032143D01*
X285416666Y-64079762D01*
X285511904Y-64127381D01*
X285750000Y-64127381D01*
X285845238Y-64079762D01*
X285892857Y-64032143D01*
X284702381Y-63651190D02*
X284702381Y-64127381D01*
X285035714Y-63127381D02*
X284702381Y-63651190D01*
X284369047Y-63127381D01*
X284130952Y-63127381D02*
X283511904Y-63127381D01*
X283845238Y-63508333D01*
X283702380Y-63508333D01*
X283607142Y-63555952D01*
X283559523Y-63603571D01*
X283511904Y-63698810D01*
X283511904Y-63936905D01*
X283559523Y-64032143D01*
X283607142Y-64079762D01*
X283702380Y-64127381D01*
X283988095Y-64127381D01*
X284083333Y-64079762D01*
X284130952Y-64032143D01*
X283321428Y-64222619D02*
X282559523Y-64222619D01*
X281892856Y-63460714D02*
X281892856Y-64127381D01*
X282130952Y-63079762D02*
X282369047Y-63794048D01*
X281749999Y-63794048D01*
X281321428Y-64127381D02*
X281130952Y-64127381D01*
X281035713Y-64079762D01*
X280988094Y-64032143D01*
X280892856Y-63889286D01*
X280845237Y-63698810D01*
X280845237Y-63317857D01*
X280892856Y-63222619D01*
X280940475Y-63175000D01*
X281035713Y-63127381D01*
X281226190Y-63127381D01*
X281321428Y-63175000D01*
X281369047Y-63222619D01*
X281416666Y-63317857D01*
X281416666Y-63555952D01*
X281369047Y-63651190D01*
X281321428Y-63698810D01*
X281226190Y-63746429D01*
X281035713Y-63746429D01*
X280940475Y-63698810D01*
X280892856Y-63651190D01*
X280845237Y-63555952D01*
D10*
X283194095Y-61761667D02*
X282717904Y-61761667D01*
X283289333Y-62047381D02*
X282956000Y-61047381D01*
X282622666Y-62047381D01*
X288805905Y-62047381D02*
X288805905Y-61047381D01*
X288234476Y-62047381D02*
X288663048Y-61475952D01*
X288234476Y-61047381D02*
X288805905Y-61618810D01*
D11*
X269676191Y-64079762D02*
X269533334Y-64127381D01*
X269295238Y-64127381D01*
X269200000Y-64079762D01*
X269152381Y-64032143D01*
X269104762Y-63936905D01*
X269104762Y-63841667D01*
X269152381Y-63746429D01*
X269200000Y-63698810D01*
X269295238Y-63651190D01*
X269485715Y-63603571D01*
X269580953Y-63555952D01*
X269628572Y-63508333D01*
X269676191Y-63413095D01*
X269676191Y-63317857D01*
X269628572Y-63222619D01*
X269580953Y-63175000D01*
X269485715Y-63127381D01*
X269247619Y-63127381D01*
X269104762Y-63175000D01*
X268771429Y-63127381D02*
X268533334Y-64127381D01*
X268342857Y-63413095D01*
X268152381Y-64127381D01*
X267914286Y-63127381D01*
X267771429Y-64222619D02*
X267009524Y-64222619D01*
X266295238Y-64127381D02*
X266771429Y-64127381D01*
X266771429Y-63127381D01*
X266200000Y-64222619D02*
X265438095Y-64222619D01*
X264771428Y-63460714D02*
X264771428Y-64127381D01*
X265009524Y-63079762D02*
X265247619Y-63794048D01*
X264628571Y-63794048D01*
X264104762Y-63555952D02*
X264200000Y-63508333D01*
X264247619Y-63460714D01*
X264295238Y-63365476D01*
X264295238Y-63317857D01*
X264247619Y-63222619D01*
X264200000Y-63175000D01*
X264104762Y-63127381D01*
X263914285Y-63127381D01*
X263819047Y-63175000D01*
X263771428Y-63222619D01*
X263723809Y-63317857D01*
X263723809Y-63365476D01*
X263771428Y-63460714D01*
X263819047Y-63508333D01*
X263914285Y-63555952D01*
X264104762Y-63555952D01*
X264200000Y-63603571D01*
X264247619Y-63651190D01*
X264295238Y-63746429D01*
X264295238Y-63936905D01*
X264247619Y-64032143D01*
X264200000Y-64079762D01*
X264104762Y-64127381D01*
X263914285Y-64127381D01*
X263819047Y-64079762D01*
X263771428Y-64032143D01*
X263723809Y-63936905D01*
X263723809Y-63746429D01*
X263771428Y-63651190D01*
X263819047Y-63603571D01*
X263914285Y-63555952D01*
D10*
X264144095Y-61761667D02*
X263667904Y-61761667D01*
X264239333Y-62047381D02*
X263906000Y-61047381D01*
X263572666Y-62047381D01*
X269755905Y-62047381D02*
X269755905Y-61047381D01*
X269184476Y-62047381D02*
X269613048Y-61475952D01*
X269184476Y-61047381D02*
X269755905Y-61618810D01*
D11*
X250721429Y-64079762D02*
X250578572Y-64127381D01*
X250340476Y-64127381D01*
X250245238Y-64079762D01*
X250197619Y-64032143D01*
X250150000Y-63936905D01*
X250150000Y-63841667D01*
X250197619Y-63746429D01*
X250245238Y-63698810D01*
X250340476Y-63651190D01*
X250530953Y-63603571D01*
X250626191Y-63555952D01*
X250673810Y-63508333D01*
X250721429Y-63413095D01*
X250721429Y-63317857D01*
X250673810Y-63222619D01*
X250626191Y-63175000D01*
X250530953Y-63127381D01*
X250292857Y-63127381D01*
X250150000Y-63175000D01*
X249816667Y-63127381D02*
X249578572Y-64127381D01*
X249388095Y-63413095D01*
X249197619Y-64127381D01*
X248959524Y-63127381D01*
X248816667Y-64222619D02*
X248054762Y-64222619D01*
X247816667Y-64127381D02*
X247816667Y-63127381D01*
X247245238Y-64127381D02*
X247673810Y-63555952D01*
X247245238Y-63127381D02*
X247816667Y-63698810D01*
X247054762Y-64222619D02*
X246292857Y-64222619D01*
X245626190Y-63460714D02*
X245626190Y-64127381D01*
X245864286Y-63079762D02*
X246102381Y-63794048D01*
X245483333Y-63794048D01*
X245197619Y-63127381D02*
X244530952Y-63127381D01*
X244959524Y-64127381D01*
D10*
X245094095Y-61761667D02*
X244617904Y-61761667D01*
X245189333Y-62047381D02*
X244856000Y-61047381D01*
X244522666Y-62047381D01*
X250705905Y-62047381D02*
X250705905Y-61047381D01*
X250134476Y-62047381D02*
X250563048Y-61475952D01*
X250134476Y-61047381D02*
X250705905Y-61618810D01*
D11*
X231552381Y-64079762D02*
X231409524Y-64127381D01*
X231171428Y-64127381D01*
X231076190Y-64079762D01*
X231028571Y-64032143D01*
X230980952Y-63936905D01*
X230980952Y-63841667D01*
X231028571Y-63746429D01*
X231076190Y-63698810D01*
X231171428Y-63651190D01*
X231361905Y-63603571D01*
X231457143Y-63555952D01*
X231504762Y-63508333D01*
X231552381Y-63413095D01*
X231552381Y-63317857D01*
X231504762Y-63222619D01*
X231457143Y-63175000D01*
X231361905Y-63127381D01*
X231123809Y-63127381D01*
X230980952Y-63175000D01*
X230647619Y-63127381D02*
X230409524Y-64127381D01*
X230219047Y-63413095D01*
X230028571Y-64127381D01*
X229790476Y-63127381D01*
X229647619Y-64222619D02*
X228885714Y-64222619D01*
X228361904Y-63127381D02*
X228361904Y-63841667D01*
X228409524Y-63984524D01*
X228504762Y-64079762D01*
X228647619Y-64127381D01*
X228742857Y-64127381D01*
X228123809Y-64222619D02*
X227361904Y-64222619D01*
X226695237Y-63460714D02*
X226695237Y-64127381D01*
X226933333Y-63079762D02*
X227171428Y-63794048D01*
X226552380Y-63794048D01*
X225742856Y-63127381D02*
X225933333Y-63127381D01*
X226028571Y-63175000D01*
X226076190Y-63222619D01*
X226171428Y-63365476D01*
X226219047Y-63555952D01*
X226219047Y-63936905D01*
X226171428Y-64032143D01*
X226123809Y-64079762D01*
X226028571Y-64127381D01*
X225838094Y-64127381D01*
X225742856Y-64079762D01*
X225695237Y-64032143D01*
X225647618Y-63936905D01*
X225647618Y-63698810D01*
X225695237Y-63603571D01*
X225742856Y-63555952D01*
X225838094Y-63508333D01*
X226028571Y-63508333D01*
X226123809Y-63555952D01*
X226171428Y-63603571D01*
X226219047Y-63698810D01*
D10*
X226044095Y-61761667D02*
X225567904Y-61761667D01*
X226139333Y-62047381D02*
X225806000Y-61047381D01*
X225472666Y-62047381D01*
X231655905Y-62047381D02*
X231655905Y-61047381D01*
X231084476Y-62047381D02*
X231513048Y-61475952D01*
X231084476Y-61047381D02*
X231655905Y-61618810D01*
D11*
X212645238Y-64079762D02*
X212502381Y-64127381D01*
X212264285Y-64127381D01*
X212169047Y-64079762D01*
X212121428Y-64032143D01*
X212073809Y-63936905D01*
X212073809Y-63841667D01*
X212121428Y-63746429D01*
X212169047Y-63698810D01*
X212264285Y-63651190D01*
X212454762Y-63603571D01*
X212550000Y-63555952D01*
X212597619Y-63508333D01*
X212645238Y-63413095D01*
X212645238Y-63317857D01*
X212597619Y-63222619D01*
X212550000Y-63175000D01*
X212454762Y-63127381D01*
X212216666Y-63127381D01*
X212073809Y-63175000D01*
X211740476Y-63127381D02*
X211502381Y-64127381D01*
X211311904Y-63413095D01*
X211121428Y-64127381D01*
X210883333Y-63127381D01*
X210740476Y-64222619D02*
X209978571Y-64222619D01*
X209740476Y-64127381D02*
X209740476Y-63127381D01*
X209740476Y-63603571D02*
X209169047Y-63603571D01*
X209169047Y-64127381D02*
X209169047Y-63127381D01*
X208930952Y-64222619D02*
X208169047Y-64222619D01*
X207502380Y-63460714D02*
X207502380Y-64127381D01*
X207740476Y-63079762D02*
X207978571Y-63794048D01*
X207359523Y-63794048D01*
X206502380Y-63127381D02*
X206978571Y-63127381D01*
X207026190Y-63603571D01*
X206978571Y-63555952D01*
X206883333Y-63508333D01*
X206645237Y-63508333D01*
X206549999Y-63555952D01*
X206502380Y-63603571D01*
X206454761Y-63698810D01*
X206454761Y-63936905D01*
X206502380Y-64032143D01*
X206549999Y-64079762D01*
X206645237Y-64127381D01*
X206883333Y-64127381D01*
X206978571Y-64079762D01*
X207026190Y-64032143D01*
D10*
X206994095Y-61761667D02*
X206517904Y-61761667D01*
X207089333Y-62047381D02*
X206756000Y-61047381D01*
X206422666Y-62047381D01*
X212605905Y-62047381D02*
X212605905Y-61047381D01*
X212034476Y-62047381D02*
X212463048Y-61475952D01*
X212034476Y-61047381D02*
X212605905Y-61618810D01*
D11*
X193571429Y-64079762D02*
X193428572Y-64127381D01*
X193190476Y-64127381D01*
X193095238Y-64079762D01*
X193047619Y-64032143D01*
X193000000Y-63936905D01*
X193000000Y-63841667D01*
X193047619Y-63746429D01*
X193095238Y-63698810D01*
X193190476Y-63651190D01*
X193380953Y-63603571D01*
X193476191Y-63555952D01*
X193523810Y-63508333D01*
X193571429Y-63413095D01*
X193571429Y-63317857D01*
X193523810Y-63222619D01*
X193476191Y-63175000D01*
X193380953Y-63127381D01*
X193142857Y-63127381D01*
X193000000Y-63175000D01*
X192666667Y-63127381D02*
X192428572Y-64127381D01*
X192238095Y-63413095D01*
X192047619Y-64127381D01*
X191809524Y-63127381D01*
X191666667Y-64222619D02*
X190904762Y-64222619D01*
X190142857Y-63175000D02*
X190238095Y-63127381D01*
X190380952Y-63127381D01*
X190523810Y-63175000D01*
X190619048Y-63270238D01*
X190666667Y-63365476D01*
X190714286Y-63555952D01*
X190714286Y-63698810D01*
X190666667Y-63889286D01*
X190619048Y-63984524D01*
X190523810Y-64079762D01*
X190380952Y-64127381D01*
X190285714Y-64127381D01*
X190142857Y-64079762D01*
X190095238Y-64032143D01*
X190095238Y-63698810D01*
X190285714Y-63698810D01*
X189904762Y-64222619D02*
X189142857Y-64222619D01*
X188476190Y-63460714D02*
X188476190Y-64127381D01*
X188714286Y-63079762D02*
X188952381Y-63794048D01*
X188333333Y-63794048D01*
X187523809Y-63460714D02*
X187523809Y-64127381D01*
X187761905Y-63079762D02*
X188000000Y-63794048D01*
X187380952Y-63794048D01*
D10*
X187944095Y-61761667D02*
X187467904Y-61761667D01*
X188039333Y-62047381D02*
X187706000Y-61047381D01*
X187372666Y-62047381D01*
X193555905Y-62047381D02*
X193555905Y-61047381D01*
X192984476Y-62047381D02*
X193413048Y-61475952D01*
X192984476Y-61047381D02*
X193555905Y-61618810D01*
D11*
X174450000Y-64079762D02*
X174307143Y-64127381D01*
X174069047Y-64127381D01*
X173973809Y-64079762D01*
X173926190Y-64032143D01*
X173878571Y-63936905D01*
X173878571Y-63841667D01*
X173926190Y-63746429D01*
X173973809Y-63698810D01*
X174069047Y-63651190D01*
X174259524Y-63603571D01*
X174354762Y-63555952D01*
X174402381Y-63508333D01*
X174450000Y-63413095D01*
X174450000Y-63317857D01*
X174402381Y-63222619D01*
X174354762Y-63175000D01*
X174259524Y-63127381D01*
X174021428Y-63127381D01*
X173878571Y-63175000D01*
X173545238Y-63127381D02*
X173307143Y-64127381D01*
X173116666Y-63413095D01*
X172926190Y-64127381D01*
X172688095Y-63127381D01*
X172545238Y-64222619D02*
X171783333Y-64222619D01*
X171211904Y-63603571D02*
X171545238Y-63603571D01*
X171545238Y-64127381D02*
X171545238Y-63127381D01*
X171069047Y-63127381D01*
X170926190Y-64222619D02*
X170164285Y-64222619D01*
X169497618Y-63460714D02*
X169497618Y-64127381D01*
X169735714Y-63079762D02*
X169973809Y-63794048D01*
X169354761Y-63794048D01*
X169069047Y-63127381D02*
X168449999Y-63127381D01*
X168783333Y-63508333D01*
X168640475Y-63508333D01*
X168545237Y-63555952D01*
X168497618Y-63603571D01*
X168449999Y-63698810D01*
X168449999Y-63936905D01*
X168497618Y-64032143D01*
X168545237Y-64079762D01*
X168640475Y-64127381D01*
X168926190Y-64127381D01*
X169021428Y-64079762D01*
X169069047Y-64032143D01*
D10*
X168894095Y-61761667D02*
X168417904Y-61761667D01*
X168989333Y-62047381D02*
X168656000Y-61047381D01*
X168322666Y-62047381D01*
X174505905Y-62047381D02*
X174505905Y-61047381D01*
X173934476Y-62047381D02*
X174363048Y-61475952D01*
X173934476Y-61047381D02*
X174505905Y-61618810D01*
D11*
X155471429Y-64079762D02*
X155328572Y-64127381D01*
X155090476Y-64127381D01*
X154995238Y-64079762D01*
X154947619Y-64032143D01*
X154900000Y-63936905D01*
X154900000Y-63841667D01*
X154947619Y-63746429D01*
X154995238Y-63698810D01*
X155090476Y-63651190D01*
X155280953Y-63603571D01*
X155376191Y-63555952D01*
X155423810Y-63508333D01*
X155471429Y-63413095D01*
X155471429Y-63317857D01*
X155423810Y-63222619D01*
X155376191Y-63175000D01*
X155280953Y-63127381D01*
X155042857Y-63127381D01*
X154900000Y-63175000D01*
X154566667Y-63127381D02*
X154328572Y-64127381D01*
X154138095Y-63413095D01*
X153947619Y-64127381D01*
X153709524Y-63127381D01*
X153566667Y-64222619D02*
X152804762Y-64222619D01*
X152566667Y-64127381D02*
X152566667Y-63127381D01*
X152328572Y-63127381D01*
X152185714Y-63175000D01*
X152090476Y-63270238D01*
X152042857Y-63365476D01*
X151995238Y-63555952D01*
X151995238Y-63698810D01*
X152042857Y-63889286D01*
X152090476Y-63984524D01*
X152185714Y-64079762D01*
X152328572Y-64127381D01*
X152566667Y-64127381D01*
X151804762Y-64222619D02*
X151042857Y-64222619D01*
X150376190Y-63460714D02*
X150376190Y-64127381D01*
X150614286Y-63079762D02*
X150852381Y-63794048D01*
X150233333Y-63794048D01*
X149900000Y-63222619D02*
X149852381Y-63175000D01*
X149757143Y-63127381D01*
X149519047Y-63127381D01*
X149423809Y-63175000D01*
X149376190Y-63222619D01*
X149328571Y-63317857D01*
X149328571Y-63413095D01*
X149376190Y-63555952D01*
X149947619Y-64127381D01*
X149328571Y-64127381D01*
D10*
X149844095Y-61761667D02*
X149367904Y-61761667D01*
X149939333Y-62047381D02*
X149606000Y-61047381D01*
X149272666Y-62047381D01*
X155455905Y-62047381D02*
X155455905Y-61047381D01*
X154884476Y-62047381D02*
X155313048Y-61475952D01*
X154884476Y-61047381D02*
X155455905Y-61618810D01*
D11*
X136397619Y-64079762D02*
X136254762Y-64127381D01*
X136016666Y-64127381D01*
X135921428Y-64079762D01*
X135873809Y-64032143D01*
X135826190Y-63936905D01*
X135826190Y-63841667D01*
X135873809Y-63746429D01*
X135921428Y-63698810D01*
X136016666Y-63651190D01*
X136207143Y-63603571D01*
X136302381Y-63555952D01*
X136350000Y-63508333D01*
X136397619Y-63413095D01*
X136397619Y-63317857D01*
X136350000Y-63222619D01*
X136302381Y-63175000D01*
X136207143Y-63127381D01*
X135969047Y-63127381D01*
X135826190Y-63175000D01*
X135492857Y-63127381D02*
X135254762Y-64127381D01*
X135064285Y-63413095D01*
X134873809Y-64127381D01*
X134635714Y-63127381D01*
X134492857Y-64222619D02*
X133730952Y-64222619D01*
X133540476Y-64079762D02*
X133397619Y-64127381D01*
X133159523Y-64127381D01*
X133064285Y-64079762D01*
X133016666Y-64032143D01*
X132969047Y-63936905D01*
X132969047Y-63841667D01*
X133016666Y-63746429D01*
X133064285Y-63698810D01*
X133159523Y-63651190D01*
X133350000Y-63603571D01*
X133445238Y-63555952D01*
X133492857Y-63508333D01*
X133540476Y-63413095D01*
X133540476Y-63317857D01*
X133492857Y-63222619D01*
X133445238Y-63175000D01*
X133350000Y-63127381D01*
X133111904Y-63127381D01*
X132969047Y-63175000D01*
X132778571Y-64222619D02*
X132016666Y-64222619D01*
X131349999Y-63460714D02*
X131349999Y-64127381D01*
X131588095Y-63079762D02*
X131826190Y-63794048D01*
X131207142Y-63794048D01*
X130302380Y-64127381D02*
X130873809Y-64127381D01*
X130588095Y-64127381D02*
X130588095Y-63127381D01*
X130683333Y-63270238D01*
X130778571Y-63365476D01*
X130873809Y-63413095D01*
D10*
X130794095Y-61761667D02*
X130317904Y-61761667D01*
X130889333Y-62047381D02*
X130556000Y-61047381D01*
X130222666Y-62047381D01*
X136405905Y-62047381D02*
X136405905Y-61047381D01*
X135834476Y-62047381D02*
X136263048Y-61475952D01*
X135834476Y-61047381D02*
X136405905Y-61618810D01*
D11*
X117300000Y-64079762D02*
X117157143Y-64127381D01*
X116919047Y-64127381D01*
X116823809Y-64079762D01*
X116776190Y-64032143D01*
X116728571Y-63936905D01*
X116728571Y-63841667D01*
X116776190Y-63746429D01*
X116823809Y-63698810D01*
X116919047Y-63651190D01*
X117109524Y-63603571D01*
X117204762Y-63555952D01*
X117252381Y-63508333D01*
X117300000Y-63413095D01*
X117300000Y-63317857D01*
X117252381Y-63222619D01*
X117204762Y-63175000D01*
X117109524Y-63127381D01*
X116871428Y-63127381D01*
X116728571Y-63175000D01*
X116395238Y-63127381D02*
X116157143Y-64127381D01*
X115966666Y-63413095D01*
X115776190Y-64127381D01*
X115538095Y-63127381D01*
X115395238Y-64222619D02*
X114633333Y-64222619D01*
X114442857Y-63841667D02*
X113966666Y-63841667D01*
X114538095Y-64127381D02*
X114204762Y-63127381D01*
X113871428Y-64127381D01*
X113776190Y-64222619D02*
X113014285Y-64222619D01*
X112347618Y-63460714D02*
X112347618Y-64127381D01*
X112585714Y-63079762D02*
X112823809Y-63794048D01*
X112204761Y-63794048D01*
X111633333Y-63127381D02*
X111538094Y-63127381D01*
X111442856Y-63175000D01*
X111395237Y-63222619D01*
X111347618Y-63317857D01*
X111299999Y-63508333D01*
X111299999Y-63746429D01*
X111347618Y-63936905D01*
X111395237Y-64032143D01*
X111442856Y-64079762D01*
X111538094Y-64127381D01*
X111633333Y-64127381D01*
X111728571Y-64079762D01*
X111776190Y-64032143D01*
X111823809Y-63936905D01*
X111871428Y-63746429D01*
X111871428Y-63508333D01*
X111823809Y-63317857D01*
X111776190Y-63222619D01*
X111728571Y-63175000D01*
X111633333Y-63127381D01*
D10*
X111744095Y-61761667D02*
X111267904Y-61761667D01*
X111839333Y-62047381D02*
X111506000Y-61047381D01*
X111172666Y-62047381D01*
X117355905Y-62047381D02*
X117355905Y-61047381D01*
X116784476Y-62047381D02*
X117213048Y-61475952D01*
X116784476Y-61047381D02*
X117355905Y-61618810D01*
D11*
X92487203Y-64079762D02*
X92344346Y-64127381D01*
X92106250Y-64127381D01*
X92011012Y-64079762D01*
X91963393Y-64032143D01*
X91915774Y-63936905D01*
X91915774Y-63841667D01*
X91963393Y-63746429D01*
X92011012Y-63698810D01*
X92106250Y-63651190D01*
X92296727Y-63603571D01*
X92391965Y-63555952D01*
X92439584Y-63508333D01*
X92487203Y-63413095D01*
X92487203Y-63317857D01*
X92439584Y-63222619D01*
X92391965Y-63175000D01*
X92296727Y-63127381D01*
X92058631Y-63127381D01*
X91915774Y-63175000D01*
X91582441Y-63127381D02*
X91344346Y-64127381D01*
X91153869Y-63413095D01*
X90963393Y-64127381D01*
X90725298Y-63127381D01*
X90582441Y-64222619D02*
X89820536Y-64222619D01*
X89011012Y-64032143D02*
X89058631Y-64079762D01*
X89201488Y-64127381D01*
X89296726Y-64127381D01*
X89439584Y-64079762D01*
X89534822Y-63984524D01*
X89582441Y-63889286D01*
X89630060Y-63698810D01*
X89630060Y-63555952D01*
X89582441Y-63365476D01*
X89534822Y-63270238D01*
X89439584Y-63175000D01*
X89296726Y-63127381D01*
X89201488Y-63127381D01*
X89058631Y-63175000D01*
X89011012Y-63222619D01*
X88153869Y-64127381D02*
X88153869Y-63603571D01*
X88201488Y-63508333D01*
X88296726Y-63460714D01*
X88487203Y-63460714D01*
X88582441Y-63508333D01*
X88153869Y-64079762D02*
X88249107Y-64127381D01*
X88487203Y-64127381D01*
X88582441Y-64079762D01*
X88630060Y-63984524D01*
X88630060Y-63889286D01*
X88582441Y-63794048D01*
X88487203Y-63746429D01*
X88249107Y-63746429D01*
X88153869Y-63698810D01*
X87677679Y-63460714D02*
X87677679Y-64460714D01*
X87677679Y-63508333D02*
X87582441Y-63460714D01*
X87391964Y-63460714D01*
X87296726Y-63508333D01*
X87249107Y-63555952D01*
X87201488Y-63651190D01*
X87201488Y-63936905D01*
X87249107Y-64032143D01*
X87296726Y-64079762D01*
X87391964Y-64127381D01*
X87582441Y-64127381D01*
X87677679Y-64079762D01*
X86820536Y-64079762D02*
X86725298Y-64127381D01*
X86534822Y-64127381D01*
X86439583Y-64079762D01*
X86391964Y-63984524D01*
X86391964Y-63936905D01*
X86439583Y-63841667D01*
X86534822Y-63794048D01*
X86677679Y-63794048D01*
X86772917Y-63746429D01*
X86820536Y-63651190D01*
X86820536Y-63603571D01*
X86772917Y-63508333D01*
X86677679Y-63460714D01*
X86534822Y-63460714D01*
X86439583Y-63508333D01*
X86201488Y-64222619D02*
X85439583Y-64222619D01*
X85296726Y-63127381D02*
X84677678Y-63127381D01*
X85011012Y-63508333D01*
X84868154Y-63508333D01*
X84772916Y-63555952D01*
X84725297Y-63603571D01*
X84677678Y-63698810D01*
X84677678Y-63936905D01*
X84725297Y-64032143D01*
X84772916Y-64079762D01*
X84868154Y-64127381D01*
X85153869Y-64127381D01*
X85249107Y-64079762D01*
X85296726Y-64032143D01*
X84201488Y-64127381D02*
X84011012Y-64127381D01*
X83915773Y-64079762D01*
X83868154Y-64032143D01*
X83772916Y-63889286D01*
X83725297Y-63698810D01*
X83725297Y-63317857D01*
X83772916Y-63222619D01*
X83820535Y-63175000D01*
X83915773Y-63127381D01*
X84106250Y-63127381D01*
X84201488Y-63175000D01*
X84249107Y-63222619D01*
X84296726Y-63317857D01*
X84296726Y-63555952D01*
X84249107Y-63651190D01*
X84201488Y-63698810D01*
X84106250Y-63746429D01*
X83915773Y-63746429D01*
X83820535Y-63698810D01*
X83772916Y-63651190D01*
X83725297Y-63555952D01*
D10*
X85550345Y-61761667D02*
X85074154Y-61761667D01*
X85645583Y-62047381D02*
X85312250Y-61047381D01*
X84978916Y-62047381D01*
X91162155Y-62047381D02*
X91162155Y-61047381D01*
X90590726Y-62047381D02*
X91019298Y-61475952D01*
X90590726Y-61047381D02*
X91162155Y-61618810D01*
D11*
X60626191Y-64079762D02*
X60483334Y-64127381D01*
X60245238Y-64127381D01*
X60150000Y-64079762D01*
X60102381Y-64032143D01*
X60054762Y-63936905D01*
X60054762Y-63841667D01*
X60102381Y-63746429D01*
X60150000Y-63698810D01*
X60245238Y-63651190D01*
X60435715Y-63603571D01*
X60530953Y-63555952D01*
X60578572Y-63508333D01*
X60626191Y-63413095D01*
X60626191Y-63317857D01*
X60578572Y-63222619D01*
X60530953Y-63175000D01*
X60435715Y-63127381D01*
X60197619Y-63127381D01*
X60054762Y-63175000D01*
X59721429Y-63127381D02*
X59483334Y-64127381D01*
X59292857Y-63413095D01*
X59102381Y-64127381D01*
X58864286Y-63127381D01*
X58721429Y-64222619D02*
X57959524Y-64222619D01*
X57388095Y-63603571D02*
X57721429Y-63603571D01*
X57721429Y-64127381D02*
X57721429Y-63127381D01*
X57245238Y-63127381D01*
X56435714Y-63127381D02*
X56626191Y-63127381D01*
X56721429Y-63175000D01*
X56769048Y-63222619D01*
X56864286Y-63365476D01*
X56911905Y-63555952D01*
X56911905Y-63936905D01*
X56864286Y-64032143D01*
X56816667Y-64079762D01*
X56721429Y-64127381D01*
X56530952Y-64127381D01*
X56435714Y-64079762D01*
X56388095Y-64032143D01*
X56340476Y-63936905D01*
X56340476Y-63698810D01*
X56388095Y-63603571D01*
X56435714Y-63555952D01*
X56530952Y-63508333D01*
X56721429Y-63508333D01*
X56816667Y-63555952D01*
X56864286Y-63603571D01*
X56911905Y-63698810D01*
X56150000Y-64222619D02*
X55388095Y-64222619D01*
X55245238Y-63127381D02*
X54626190Y-63127381D01*
X54959524Y-63508333D01*
X54816666Y-63508333D01*
X54721428Y-63555952D01*
X54673809Y-63603571D01*
X54626190Y-63698810D01*
X54626190Y-63936905D01*
X54673809Y-64032143D01*
X54721428Y-64079762D01*
X54816666Y-64127381D01*
X55102381Y-64127381D01*
X55197619Y-64079762D01*
X55245238Y-64032143D01*
X54054762Y-63555952D02*
X54150000Y-63508333D01*
X54197619Y-63460714D01*
X54245238Y-63365476D01*
X54245238Y-63317857D01*
X54197619Y-63222619D01*
X54150000Y-63175000D01*
X54054762Y-63127381D01*
X53864285Y-63127381D01*
X53769047Y-63175000D01*
X53721428Y-63222619D01*
X53673809Y-63317857D01*
X53673809Y-63365476D01*
X53721428Y-63460714D01*
X53769047Y-63508333D01*
X53864285Y-63555952D01*
X54054762Y-63555952D01*
X54150000Y-63603571D01*
X54197619Y-63651190D01*
X54245238Y-63746429D01*
X54245238Y-63936905D01*
X54197619Y-64032143D01*
X54150000Y-64079762D01*
X54054762Y-64127381D01*
X53864285Y-64127381D01*
X53769047Y-64079762D01*
X53721428Y-64032143D01*
X53673809Y-63936905D01*
X53673809Y-63746429D01*
X53721428Y-63651190D01*
X53769047Y-63603571D01*
X53864285Y-63555952D01*
D10*
X54594095Y-61761667D02*
X54117904Y-61761667D01*
X54689333Y-62047381D02*
X54356000Y-61047381D01*
X54022666Y-62047381D01*
X60205905Y-62047381D02*
X60205905Y-61047381D01*
X59634476Y-62047381D02*
X60063048Y-61475952D01*
X59634476Y-61047381D02*
X60205905Y-61618810D01*
D11*
X41576191Y-64079762D02*
X41433334Y-64127381D01*
X41195238Y-64127381D01*
X41100000Y-64079762D01*
X41052381Y-64032143D01*
X41004762Y-63936905D01*
X41004762Y-63841667D01*
X41052381Y-63746429D01*
X41100000Y-63698810D01*
X41195238Y-63651190D01*
X41385715Y-63603571D01*
X41480953Y-63555952D01*
X41528572Y-63508333D01*
X41576191Y-63413095D01*
X41576191Y-63317857D01*
X41528572Y-63222619D01*
X41480953Y-63175000D01*
X41385715Y-63127381D01*
X41147619Y-63127381D01*
X41004762Y-63175000D01*
X40671429Y-63127381D02*
X40433334Y-64127381D01*
X40242857Y-63413095D01*
X40052381Y-64127381D01*
X39814286Y-63127381D01*
X39671429Y-64222619D02*
X38909524Y-64222619D01*
X38338095Y-63603571D02*
X38671429Y-63603571D01*
X38671429Y-64127381D02*
X38671429Y-63127381D01*
X38195238Y-63127381D01*
X37338095Y-63127381D02*
X37814286Y-63127381D01*
X37861905Y-63603571D01*
X37814286Y-63555952D01*
X37719048Y-63508333D01*
X37480952Y-63508333D01*
X37385714Y-63555952D01*
X37338095Y-63603571D01*
X37290476Y-63698810D01*
X37290476Y-63936905D01*
X37338095Y-64032143D01*
X37385714Y-64079762D01*
X37480952Y-64127381D01*
X37719048Y-64127381D01*
X37814286Y-64079762D01*
X37861905Y-64032143D01*
X37100000Y-64222619D02*
X36338095Y-64222619D01*
X36195238Y-63127381D02*
X35576190Y-63127381D01*
X35909524Y-63508333D01*
X35766666Y-63508333D01*
X35671428Y-63555952D01*
X35623809Y-63603571D01*
X35576190Y-63698810D01*
X35576190Y-63936905D01*
X35623809Y-64032143D01*
X35671428Y-64079762D01*
X35766666Y-64127381D01*
X36052381Y-64127381D01*
X36147619Y-64079762D01*
X36195238Y-64032143D01*
X35242857Y-63127381D02*
X34576190Y-63127381D01*
X35004762Y-64127381D01*
D10*
X35544095Y-61761667D02*
X35067904Y-61761667D01*
X35639333Y-62047381D02*
X35306000Y-61047381D01*
X34972666Y-62047381D01*
X41155905Y-62047381D02*
X41155905Y-61047381D01*
X40584476Y-62047381D02*
X41013048Y-61475952D01*
X40584476Y-61047381D02*
X41155905Y-61618810D01*
D11*
X395001191Y-45029762D02*
X394858334Y-45077381D01*
X394620238Y-45077381D01*
X394525000Y-45029762D01*
X394477381Y-44982143D01*
X394429762Y-44886905D01*
X394429762Y-44791667D01*
X394477381Y-44696429D01*
X394525000Y-44648810D01*
X394620238Y-44601190D01*
X394810715Y-44553571D01*
X394905953Y-44505952D01*
X394953572Y-44458333D01*
X395001191Y-44363095D01*
X395001191Y-44267857D01*
X394953572Y-44172619D01*
X394905953Y-44125000D01*
X394810715Y-44077381D01*
X394572619Y-44077381D01*
X394429762Y-44125000D01*
X394096429Y-44077381D02*
X393858334Y-45077381D01*
X393667857Y-44363095D01*
X393477381Y-45077381D01*
X393239286Y-44077381D01*
X393096429Y-45172619D02*
X392334524Y-45172619D01*
X392096429Y-45077381D02*
X392096429Y-44077381D01*
X391715476Y-44077381D01*
X391620238Y-44125000D01*
X391572619Y-44172619D01*
X391525000Y-44267857D01*
X391525000Y-44410714D01*
X391572619Y-44505952D01*
X391620238Y-44553571D01*
X391715476Y-44601190D01*
X392096429Y-44601190D01*
X390667857Y-44410714D02*
X390667857Y-45220238D01*
X390715476Y-45315476D01*
X390763095Y-45363095D01*
X390858334Y-45410714D01*
X391001191Y-45410714D01*
X391096429Y-45363095D01*
X390667857Y-45029762D02*
X390763095Y-45077381D01*
X390953572Y-45077381D01*
X391048810Y-45029762D01*
X391096429Y-44982143D01*
X391144048Y-44886905D01*
X391144048Y-44601190D01*
X391096429Y-44505952D01*
X391048810Y-44458333D01*
X390953572Y-44410714D01*
X390763095Y-44410714D01*
X390667857Y-44458333D01*
X390191667Y-45077381D02*
X390191667Y-44077381D01*
X389953572Y-44077381D01*
X389810714Y-44125000D01*
X389715476Y-44220238D01*
X389667857Y-44315476D01*
X389620238Y-44505952D01*
X389620238Y-44648810D01*
X389667857Y-44839286D01*
X389715476Y-44934524D01*
X389810714Y-45029762D01*
X389953572Y-45077381D01*
X390191667Y-45077381D01*
X389191667Y-44410714D02*
X389191667Y-45077381D01*
X389191667Y-44505952D02*
X389144048Y-44458333D01*
X389048810Y-44410714D01*
X388905952Y-44410714D01*
X388810714Y-44458333D01*
X388763095Y-44553571D01*
X388763095Y-45077381D01*
X388525000Y-45172619D02*
X387763095Y-45172619D01*
X387620238Y-44077381D02*
X387001190Y-44077381D01*
X387334524Y-44458333D01*
X387191666Y-44458333D01*
X387096428Y-44505952D01*
X387048809Y-44553571D01*
X387001190Y-44648810D01*
X387001190Y-44886905D01*
X387048809Y-44982143D01*
X387096428Y-45029762D01*
X387191666Y-45077381D01*
X387477381Y-45077381D01*
X387572619Y-45029762D01*
X387620238Y-44982143D01*
X386144047Y-44077381D02*
X386334524Y-44077381D01*
X386429762Y-44125000D01*
X386477381Y-44172619D01*
X386572619Y-44315476D01*
X386620238Y-44505952D01*
X386620238Y-44886905D01*
X386572619Y-44982143D01*
X386525000Y-45029762D01*
X386429762Y-45077381D01*
X386239285Y-45077381D01*
X386144047Y-45029762D01*
X386096428Y-44982143D01*
X386048809Y-44886905D01*
X386048809Y-44648810D01*
X386096428Y-44553571D01*
X386144047Y-44505952D01*
X386239285Y-44458333D01*
X386429762Y-44458333D01*
X386525000Y-44505952D01*
X386572619Y-44553571D01*
X386620238Y-44648810D01*
D10*
X387969095Y-42711667D02*
X387492904Y-42711667D01*
X388064333Y-42997381D02*
X387731000Y-41997381D01*
X387397666Y-42997381D01*
X393580905Y-42997381D02*
X393580905Y-41997381D01*
X393009476Y-42997381D02*
X393438048Y-42425952D01*
X393009476Y-41997381D02*
X393580905Y-42568810D01*
D11*
X375236905Y-45029762D02*
X375094048Y-45077381D01*
X374855952Y-45077381D01*
X374760714Y-45029762D01*
X374713095Y-44982143D01*
X374665476Y-44886905D01*
X374665476Y-44791667D01*
X374713095Y-44696429D01*
X374760714Y-44648810D01*
X374855952Y-44601190D01*
X375046429Y-44553571D01*
X375141667Y-44505952D01*
X375189286Y-44458333D01*
X375236905Y-44363095D01*
X375236905Y-44267857D01*
X375189286Y-44172619D01*
X375141667Y-44125000D01*
X375046429Y-44077381D01*
X374808333Y-44077381D01*
X374665476Y-44125000D01*
X374332143Y-44077381D02*
X374094048Y-45077381D01*
X373903571Y-44363095D01*
X373713095Y-45077381D01*
X373475000Y-44077381D01*
X373332143Y-45172619D02*
X372570238Y-45172619D01*
X372332143Y-45077381D02*
X372332143Y-44077381D01*
X372094048Y-44077381D01*
X371951190Y-44125000D01*
X371855952Y-44220238D01*
X371808333Y-44315476D01*
X371760714Y-44505952D01*
X371760714Y-44648810D01*
X371808333Y-44839286D01*
X371855952Y-44934524D01*
X371951190Y-45029762D01*
X372094048Y-45077381D01*
X372332143Y-45077381D01*
X370951190Y-45029762D02*
X371046428Y-45077381D01*
X371236905Y-45077381D01*
X371332143Y-45029762D01*
X371379762Y-44934524D01*
X371379762Y-44553571D01*
X371332143Y-44458333D01*
X371236905Y-44410714D01*
X371046428Y-44410714D01*
X370951190Y-44458333D01*
X370903571Y-44553571D01*
X370903571Y-44648810D01*
X371379762Y-44744048D01*
X370332143Y-45077381D02*
X370427381Y-45029762D01*
X370475000Y-44934524D01*
X370475000Y-44077381D01*
X370189285Y-45172619D02*
X369427380Y-45172619D01*
X369284523Y-44077381D02*
X368665475Y-44077381D01*
X368998809Y-44458333D01*
X368855951Y-44458333D01*
X368760713Y-44505952D01*
X368713094Y-44553571D01*
X368665475Y-44648810D01*
X368665475Y-44886905D01*
X368713094Y-44982143D01*
X368760713Y-45029762D01*
X368855951Y-45077381D01*
X369141666Y-45077381D01*
X369236904Y-45029762D01*
X369284523Y-44982143D01*
X367760713Y-44077381D02*
X368236904Y-44077381D01*
X368284523Y-44553571D01*
X368236904Y-44505952D01*
X368141666Y-44458333D01*
X367903570Y-44458333D01*
X367808332Y-44505952D01*
X367760713Y-44553571D01*
X367713094Y-44648810D01*
X367713094Y-44886905D01*
X367760713Y-44982143D01*
X367808332Y-45029762D01*
X367903570Y-45077381D01*
X368141666Y-45077381D01*
X368236904Y-45029762D01*
X368284523Y-44982143D01*
D10*
X368919095Y-42711667D02*
X368442904Y-42711667D01*
X369014333Y-42997381D02*
X368681000Y-41997381D01*
X368347666Y-42997381D01*
X374530905Y-42997381D02*
X374530905Y-41997381D01*
X373959476Y-42997381D02*
X374388048Y-42425952D01*
X373959476Y-41997381D02*
X374530905Y-42568810D01*
D11*
X347804762Y-45029762D02*
X347661905Y-45077381D01*
X347423809Y-45077381D01*
X347328571Y-45029762D01*
X347280952Y-44982143D01*
X347233333Y-44886905D01*
X347233333Y-44791667D01*
X347280952Y-44696429D01*
X347328571Y-44648810D01*
X347423809Y-44601190D01*
X347614286Y-44553571D01*
X347709524Y-44505952D01*
X347757143Y-44458333D01*
X347804762Y-44363095D01*
X347804762Y-44267857D01*
X347757143Y-44172619D01*
X347709524Y-44125000D01*
X347614286Y-44077381D01*
X347376190Y-44077381D01*
X347233333Y-44125000D01*
X346900000Y-44077381D02*
X346661905Y-45077381D01*
X346471428Y-44363095D01*
X346280952Y-45077381D01*
X346042857Y-44077381D01*
X345900000Y-45172619D02*
X345138095Y-45172619D01*
X344995238Y-44077381D02*
X344328571Y-45077381D01*
X344328571Y-44077381D02*
X344995238Y-45077381D01*
X343423809Y-45077381D02*
X343995238Y-45077381D01*
X343709524Y-45077381D02*
X343709524Y-44077381D01*
X343804762Y-44220238D01*
X343900000Y-44315476D01*
X343995238Y-44363095D01*
X343090476Y-44077381D02*
X342423809Y-44077381D01*
X342852381Y-45077381D01*
X341852381Y-44601190D02*
X341852381Y-45077381D01*
X342185714Y-44077381D02*
X341852381Y-44601190D01*
X341519047Y-44077381D01*
X341233333Y-44172619D02*
X341185714Y-44125000D01*
X341090476Y-44077381D01*
X340852380Y-44077381D01*
X340757142Y-44125000D01*
X340709523Y-44172619D01*
X340661904Y-44267857D01*
X340661904Y-44363095D01*
X340709523Y-44505952D01*
X341280952Y-45077381D01*
X340661904Y-45077381D01*
X340471428Y-45172619D02*
X339709523Y-45172619D01*
X339566666Y-44077381D02*
X338947618Y-44077381D01*
X339280952Y-44458333D01*
X339138094Y-44458333D01*
X339042856Y-44505952D01*
X338995237Y-44553571D01*
X338947618Y-44648810D01*
X338947618Y-44886905D01*
X338995237Y-44982143D01*
X339042856Y-45029762D01*
X339138094Y-45077381D01*
X339423809Y-45077381D01*
X339519047Y-45029762D01*
X339566666Y-44982143D01*
X338090475Y-44410714D02*
X338090475Y-45077381D01*
X338328571Y-44029762D02*
X338566666Y-44744048D01*
X337947618Y-44744048D01*
D10*
X340344095Y-42711667D02*
X339867904Y-42711667D01*
X340439333Y-42997381D02*
X340106000Y-41997381D01*
X339772666Y-42997381D01*
X345955905Y-42997381D02*
X345955905Y-41997381D01*
X345384476Y-42997381D02*
X345813048Y-42425952D01*
X345384476Y-41997381D02*
X345955905Y-42568810D01*
D11*
X323992262Y-45029762D02*
X323849405Y-45077381D01*
X323611309Y-45077381D01*
X323516071Y-45029762D01*
X323468452Y-44982143D01*
X323420833Y-44886905D01*
X323420833Y-44791667D01*
X323468452Y-44696429D01*
X323516071Y-44648810D01*
X323611309Y-44601190D01*
X323801786Y-44553571D01*
X323897024Y-44505952D01*
X323944643Y-44458333D01*
X323992262Y-44363095D01*
X323992262Y-44267857D01*
X323944643Y-44172619D01*
X323897024Y-44125000D01*
X323801786Y-44077381D01*
X323563690Y-44077381D01*
X323420833Y-44125000D01*
X323087500Y-44077381D02*
X322849405Y-45077381D01*
X322658928Y-44363095D01*
X322468452Y-45077381D01*
X322230357Y-44077381D01*
X322087500Y-45172619D02*
X321325595Y-45172619D01*
X321182738Y-44077381D02*
X320516071Y-45077381D01*
X320516071Y-44077381D02*
X321182738Y-45077381D01*
X319611309Y-45077381D02*
X320182738Y-45077381D01*
X319897024Y-45077381D02*
X319897024Y-44077381D01*
X319992262Y-44220238D01*
X320087500Y-44315476D01*
X320182738Y-44363095D01*
X318754166Y-44077381D02*
X318944643Y-44077381D01*
X319039881Y-44125000D01*
X319087500Y-44172619D01*
X319182738Y-44315476D01*
X319230357Y-44505952D01*
X319230357Y-44886905D01*
X319182738Y-44982143D01*
X319135119Y-45029762D01*
X319039881Y-45077381D01*
X318849404Y-45077381D01*
X318754166Y-45029762D01*
X318706547Y-44982143D01*
X318658928Y-44886905D01*
X318658928Y-44648810D01*
X318706547Y-44553571D01*
X318754166Y-44505952D01*
X318849404Y-44458333D01*
X319039881Y-44458333D01*
X319135119Y-44505952D01*
X319182738Y-44553571D01*
X319230357Y-44648810D01*
X318039881Y-44601190D02*
X318039881Y-45077381D01*
X318373214Y-44077381D02*
X318039881Y-44601190D01*
X317706547Y-44077381D01*
X317420833Y-44172619D02*
X317373214Y-44125000D01*
X317277976Y-44077381D01*
X317039880Y-44077381D01*
X316944642Y-44125000D01*
X316897023Y-44172619D01*
X316849404Y-44267857D01*
X316849404Y-44363095D01*
X316897023Y-44505952D01*
X317468452Y-45077381D01*
X316849404Y-45077381D01*
X316658928Y-45172619D02*
X315897023Y-45172619D01*
X315754166Y-44077381D02*
X315135118Y-44077381D01*
X315468452Y-44458333D01*
X315325594Y-44458333D01*
X315230356Y-44505952D01*
X315182737Y-44553571D01*
X315135118Y-44648810D01*
X315135118Y-44886905D01*
X315182737Y-44982143D01*
X315230356Y-45029762D01*
X315325594Y-45077381D01*
X315611309Y-45077381D01*
X315706547Y-45029762D01*
X315754166Y-44982143D01*
X314801785Y-44077381D02*
X314182737Y-44077381D01*
X314516071Y-44458333D01*
X314373213Y-44458333D01*
X314277975Y-44505952D01*
X314230356Y-44553571D01*
X314182737Y-44648810D01*
X314182737Y-44886905D01*
X314230356Y-44982143D01*
X314277975Y-45029762D01*
X314373213Y-45077381D01*
X314658928Y-45077381D01*
X314754166Y-45029762D01*
X314801785Y-44982143D01*
D10*
X316531595Y-42711667D02*
X316055404Y-42711667D01*
X316626833Y-42997381D02*
X316293500Y-41997381D01*
X315960166Y-42997381D01*
X322143405Y-42997381D02*
X322143405Y-41997381D01*
X321571976Y-42997381D02*
X322000548Y-42425952D01*
X321571976Y-41997381D02*
X322143405Y-42568810D01*
D11*
X304942262Y-45029762D02*
X304799405Y-45077381D01*
X304561309Y-45077381D01*
X304466071Y-45029762D01*
X304418452Y-44982143D01*
X304370833Y-44886905D01*
X304370833Y-44791667D01*
X304418452Y-44696429D01*
X304466071Y-44648810D01*
X304561309Y-44601190D01*
X304751786Y-44553571D01*
X304847024Y-44505952D01*
X304894643Y-44458333D01*
X304942262Y-44363095D01*
X304942262Y-44267857D01*
X304894643Y-44172619D01*
X304847024Y-44125000D01*
X304751786Y-44077381D01*
X304513690Y-44077381D01*
X304370833Y-44125000D01*
X304037500Y-44077381D02*
X303799405Y-45077381D01*
X303608928Y-44363095D01*
X303418452Y-45077381D01*
X303180357Y-44077381D01*
X303037500Y-45172619D02*
X302275595Y-45172619D01*
X302132738Y-44077381D02*
X301466071Y-45077381D01*
X301466071Y-44077381D02*
X302132738Y-45077381D01*
X300561309Y-45077381D02*
X301132738Y-45077381D01*
X300847024Y-45077381D02*
X300847024Y-44077381D01*
X300942262Y-44220238D01*
X301037500Y-44315476D01*
X301132738Y-44363095D01*
X299656547Y-44077381D02*
X300132738Y-44077381D01*
X300180357Y-44553571D01*
X300132738Y-44505952D01*
X300037500Y-44458333D01*
X299799404Y-44458333D01*
X299704166Y-44505952D01*
X299656547Y-44553571D01*
X299608928Y-44648810D01*
X299608928Y-44886905D01*
X299656547Y-44982143D01*
X299704166Y-45029762D01*
X299799404Y-45077381D01*
X300037500Y-45077381D01*
X300132738Y-45029762D01*
X300180357Y-44982143D01*
X298989881Y-44601190D02*
X298989881Y-45077381D01*
X299323214Y-44077381D02*
X298989881Y-44601190D01*
X298656547Y-44077381D01*
X298370833Y-44172619D02*
X298323214Y-44125000D01*
X298227976Y-44077381D01*
X297989880Y-44077381D01*
X297894642Y-44125000D01*
X297847023Y-44172619D01*
X297799404Y-44267857D01*
X297799404Y-44363095D01*
X297847023Y-44505952D01*
X298418452Y-45077381D01*
X297799404Y-45077381D01*
X297608928Y-45172619D02*
X296847023Y-45172619D01*
X296704166Y-44077381D02*
X296085118Y-44077381D01*
X296418452Y-44458333D01*
X296275594Y-44458333D01*
X296180356Y-44505952D01*
X296132737Y-44553571D01*
X296085118Y-44648810D01*
X296085118Y-44886905D01*
X296132737Y-44982143D01*
X296180356Y-45029762D01*
X296275594Y-45077381D01*
X296561309Y-45077381D01*
X296656547Y-45029762D01*
X296704166Y-44982143D01*
X295704166Y-44172619D02*
X295656547Y-44125000D01*
X295561309Y-44077381D01*
X295323213Y-44077381D01*
X295227975Y-44125000D01*
X295180356Y-44172619D01*
X295132737Y-44267857D01*
X295132737Y-44363095D01*
X295180356Y-44505952D01*
X295751785Y-45077381D01*
X295132737Y-45077381D01*
D10*
X297481595Y-42711667D02*
X297005404Y-42711667D01*
X297576833Y-42997381D02*
X297243500Y-41997381D01*
X296910166Y-42997381D01*
X303093405Y-42997381D02*
X303093405Y-41997381D01*
X302521976Y-42997381D02*
X302950548Y-42425952D01*
X302521976Y-41997381D02*
X303093405Y-42568810D01*
D11*
X284058929Y-45029762D02*
X283916072Y-45077381D01*
X283677976Y-45077381D01*
X283582738Y-45029762D01*
X283535119Y-44982143D01*
X283487500Y-44886905D01*
X283487500Y-44791667D01*
X283535119Y-44696429D01*
X283582738Y-44648810D01*
X283677976Y-44601190D01*
X283868453Y-44553571D01*
X283963691Y-44505952D01*
X284011310Y-44458333D01*
X284058929Y-44363095D01*
X284058929Y-44267857D01*
X284011310Y-44172619D01*
X283963691Y-44125000D01*
X283868453Y-44077381D01*
X283630357Y-44077381D01*
X283487500Y-44125000D01*
X283154167Y-44077381D02*
X282916072Y-45077381D01*
X282725595Y-44363095D01*
X282535119Y-45077381D01*
X282297024Y-44077381D01*
X282154167Y-45172619D02*
X281392262Y-45172619D01*
X281154167Y-45077381D02*
X281154167Y-44077381D01*
X280773214Y-44077381D01*
X280677976Y-44125000D01*
X280630357Y-44172619D01*
X280582738Y-44267857D01*
X280582738Y-44410714D01*
X280630357Y-44505952D01*
X280677976Y-44553571D01*
X280773214Y-44601190D01*
X281154167Y-44601190D01*
X280392262Y-45172619D02*
X279630357Y-45172619D01*
X279487500Y-44077381D02*
X278868452Y-44077381D01*
X279201786Y-44458333D01*
X279058928Y-44458333D01*
X278963690Y-44505952D01*
X278916071Y-44553571D01*
X278868452Y-44648810D01*
X278868452Y-44886905D01*
X278916071Y-44982143D01*
X278963690Y-45029762D01*
X279058928Y-45077381D01*
X279344643Y-45077381D01*
X279439881Y-45029762D01*
X279487500Y-44982143D01*
X277916071Y-45077381D02*
X278487500Y-45077381D01*
X278201786Y-45077381D02*
X278201786Y-44077381D01*
X278297024Y-44220238D01*
X278392262Y-44315476D01*
X278487500Y-44363095D01*
D10*
X278431595Y-42711667D02*
X277955404Y-42711667D01*
X278526833Y-42997381D02*
X278193500Y-41997381D01*
X277860166Y-42997381D01*
X284043405Y-42997381D02*
X284043405Y-41997381D01*
X283471976Y-42997381D02*
X283900548Y-42425952D01*
X283471976Y-41997381D02*
X284043405Y-42568810D01*
D11*
X265032738Y-45029762D02*
X264889881Y-45077381D01*
X264651785Y-45077381D01*
X264556547Y-45029762D01*
X264508928Y-44982143D01*
X264461309Y-44886905D01*
X264461309Y-44791667D01*
X264508928Y-44696429D01*
X264556547Y-44648810D01*
X264651785Y-44601190D01*
X264842262Y-44553571D01*
X264937500Y-44505952D01*
X264985119Y-44458333D01*
X265032738Y-44363095D01*
X265032738Y-44267857D01*
X264985119Y-44172619D01*
X264937500Y-44125000D01*
X264842262Y-44077381D01*
X264604166Y-44077381D01*
X264461309Y-44125000D01*
X264127976Y-44077381D02*
X263889881Y-45077381D01*
X263699404Y-44363095D01*
X263508928Y-45077381D01*
X263270833Y-44077381D01*
X263127976Y-45172619D02*
X262366071Y-45172619D01*
X261937500Y-44077381D02*
X261747023Y-44077381D01*
X261651785Y-44125000D01*
X261556547Y-44220238D01*
X261508928Y-44410714D01*
X261508928Y-44744048D01*
X261556547Y-44934524D01*
X261651785Y-45029762D01*
X261747023Y-45077381D01*
X261937500Y-45077381D01*
X262032738Y-45029762D01*
X262127976Y-44934524D01*
X262175595Y-44744048D01*
X262175595Y-44410714D01*
X262127976Y-44220238D01*
X262032738Y-44125000D01*
X261937500Y-44077381D01*
X261318452Y-45172619D02*
X260556547Y-45172619D01*
X260413690Y-44077381D02*
X259794642Y-44077381D01*
X260127976Y-44458333D01*
X259985118Y-44458333D01*
X259889880Y-44505952D01*
X259842261Y-44553571D01*
X259794642Y-44648810D01*
X259794642Y-44886905D01*
X259842261Y-44982143D01*
X259889880Y-45029762D01*
X259985118Y-45077381D01*
X260270833Y-45077381D01*
X260366071Y-45029762D01*
X260413690Y-44982143D01*
X259175595Y-44077381D02*
X259080356Y-44077381D01*
X258985118Y-44125000D01*
X258937499Y-44172619D01*
X258889880Y-44267857D01*
X258842261Y-44458333D01*
X258842261Y-44696429D01*
X258889880Y-44886905D01*
X258937499Y-44982143D01*
X258985118Y-45029762D01*
X259080356Y-45077381D01*
X259175595Y-45077381D01*
X259270833Y-45029762D01*
X259318452Y-44982143D01*
X259366071Y-44886905D01*
X259413690Y-44696429D01*
X259413690Y-44458333D01*
X259366071Y-44267857D01*
X259318452Y-44172619D01*
X259270833Y-44125000D01*
X259175595Y-44077381D01*
D10*
X259381595Y-42711667D02*
X258905404Y-42711667D01*
X259476833Y-42997381D02*
X259143500Y-41997381D01*
X258810166Y-42997381D01*
X264993405Y-42997381D02*
X264993405Y-41997381D01*
X264421976Y-42997381D02*
X264850548Y-42425952D01*
X264421976Y-41997381D02*
X264993405Y-42568810D01*
D11*
X245697024Y-45029762D02*
X245554167Y-45077381D01*
X245316071Y-45077381D01*
X245220833Y-45029762D01*
X245173214Y-44982143D01*
X245125595Y-44886905D01*
X245125595Y-44791667D01*
X245173214Y-44696429D01*
X245220833Y-44648810D01*
X245316071Y-44601190D01*
X245506548Y-44553571D01*
X245601786Y-44505952D01*
X245649405Y-44458333D01*
X245697024Y-44363095D01*
X245697024Y-44267857D01*
X245649405Y-44172619D01*
X245601786Y-44125000D01*
X245506548Y-44077381D01*
X245268452Y-44077381D01*
X245125595Y-44125000D01*
X244792262Y-44077381D02*
X244554167Y-45077381D01*
X244363690Y-44363095D01*
X244173214Y-45077381D01*
X243935119Y-44077381D01*
X243792262Y-45172619D02*
X243030357Y-45172619D01*
X242792262Y-45077381D02*
X242792262Y-44077381D01*
X242554167Y-45172619D02*
X241792262Y-45172619D01*
X241601786Y-44172619D02*
X241554167Y-44125000D01*
X241458929Y-44077381D01*
X241220833Y-44077381D01*
X241125595Y-44125000D01*
X241077976Y-44172619D01*
X241030357Y-44267857D01*
X241030357Y-44363095D01*
X241077976Y-44505952D01*
X241649405Y-45077381D01*
X241030357Y-45077381D01*
X240554167Y-45077381D02*
X240363691Y-45077381D01*
X240268452Y-45029762D01*
X240220833Y-44982143D01*
X240125595Y-44839286D01*
X240077976Y-44648810D01*
X240077976Y-44267857D01*
X240125595Y-44172619D01*
X240173214Y-44125000D01*
X240268452Y-44077381D01*
X240458929Y-44077381D01*
X240554167Y-44125000D01*
X240601786Y-44172619D01*
X240649405Y-44267857D01*
X240649405Y-44505952D01*
X240601786Y-44601190D01*
X240554167Y-44648810D01*
X240458929Y-44696429D01*
X240268452Y-44696429D01*
X240173214Y-44648810D01*
X240125595Y-44601190D01*
X240077976Y-44505952D01*
D10*
X240331595Y-42711667D02*
X239855404Y-42711667D01*
X240426833Y-42997381D02*
X240093500Y-41997381D01*
X239760166Y-42997381D01*
X245943405Y-42997381D02*
X245943405Y-41997381D01*
X245371976Y-42997381D02*
X245800548Y-42425952D01*
X245371976Y-41997381D02*
X245943405Y-42568810D01*
D11*
X226932738Y-45029762D02*
X226789881Y-45077381D01*
X226551785Y-45077381D01*
X226456547Y-45029762D01*
X226408928Y-44982143D01*
X226361309Y-44886905D01*
X226361309Y-44791667D01*
X226408928Y-44696429D01*
X226456547Y-44648810D01*
X226551785Y-44601190D01*
X226742262Y-44553571D01*
X226837500Y-44505952D01*
X226885119Y-44458333D01*
X226932738Y-44363095D01*
X226932738Y-44267857D01*
X226885119Y-44172619D01*
X226837500Y-44125000D01*
X226742262Y-44077381D01*
X226504166Y-44077381D01*
X226361309Y-44125000D01*
X226027976Y-44077381D02*
X225789881Y-45077381D01*
X225599404Y-44363095D01*
X225408928Y-45077381D01*
X225170833Y-44077381D01*
X225027976Y-45172619D02*
X224266071Y-45172619D01*
X224027976Y-44077381D02*
X224027976Y-44886905D01*
X223980357Y-44982143D01*
X223932738Y-45029762D01*
X223837500Y-45077381D01*
X223647023Y-45077381D01*
X223551785Y-45029762D01*
X223504166Y-44982143D01*
X223456547Y-44886905D01*
X223456547Y-44077381D01*
X223218452Y-45172619D02*
X222456547Y-45172619D01*
X222266071Y-44172619D02*
X222218452Y-44125000D01*
X222123214Y-44077381D01*
X221885118Y-44077381D01*
X221789880Y-44125000D01*
X221742261Y-44172619D01*
X221694642Y-44267857D01*
X221694642Y-44363095D01*
X221742261Y-44505952D01*
X222313690Y-45077381D01*
X221694642Y-45077381D01*
X221123214Y-44505952D02*
X221218452Y-44458333D01*
X221266071Y-44410714D01*
X221313690Y-44315476D01*
X221313690Y-44267857D01*
X221266071Y-44172619D01*
X221218452Y-44125000D01*
X221123214Y-44077381D01*
X220932737Y-44077381D01*
X220837499Y-44125000D01*
X220789880Y-44172619D01*
X220742261Y-44267857D01*
X220742261Y-44315476D01*
X220789880Y-44410714D01*
X220837499Y-44458333D01*
X220932737Y-44505952D01*
X221123214Y-44505952D01*
X221218452Y-44553571D01*
X221266071Y-44601190D01*
X221313690Y-44696429D01*
X221313690Y-44886905D01*
X221266071Y-44982143D01*
X221218452Y-45029762D01*
X221123214Y-45077381D01*
X220932737Y-45077381D01*
X220837499Y-45029762D01*
X220789880Y-44982143D01*
X220742261Y-44886905D01*
X220742261Y-44696429D01*
X220789880Y-44601190D01*
X220837499Y-44553571D01*
X220932737Y-44505952D01*
D10*
X221281595Y-42711667D02*
X220805404Y-42711667D01*
X221376833Y-42997381D02*
X221043500Y-41997381D01*
X220710166Y-42997381D01*
X226893405Y-42997381D02*
X226893405Y-41997381D01*
X226321976Y-42997381D02*
X226750548Y-42425952D01*
X226321976Y-41997381D02*
X226893405Y-42568810D01*
D11*
X207787500Y-45029762D02*
X207644643Y-45077381D01*
X207406547Y-45077381D01*
X207311309Y-45029762D01*
X207263690Y-44982143D01*
X207216071Y-44886905D01*
X207216071Y-44791667D01*
X207263690Y-44696429D01*
X207311309Y-44648810D01*
X207406547Y-44601190D01*
X207597024Y-44553571D01*
X207692262Y-44505952D01*
X207739881Y-44458333D01*
X207787500Y-44363095D01*
X207787500Y-44267857D01*
X207739881Y-44172619D01*
X207692262Y-44125000D01*
X207597024Y-44077381D01*
X207358928Y-44077381D01*
X207216071Y-44125000D01*
X206882738Y-44077381D02*
X206644643Y-45077381D01*
X206454166Y-44363095D01*
X206263690Y-45077381D01*
X206025595Y-44077381D01*
X205882738Y-45172619D02*
X205120833Y-45172619D01*
X204692262Y-44601190D02*
X204692262Y-45077381D01*
X205025595Y-44077381D02*
X204692262Y-44601190D01*
X204358928Y-44077381D01*
X204263690Y-45172619D02*
X203501785Y-45172619D01*
X203311309Y-44172619D02*
X203263690Y-44125000D01*
X203168452Y-44077381D01*
X202930356Y-44077381D01*
X202835118Y-44125000D01*
X202787499Y-44172619D01*
X202739880Y-44267857D01*
X202739880Y-44363095D01*
X202787499Y-44505952D01*
X203358928Y-45077381D01*
X202739880Y-45077381D01*
X202406547Y-44077381D02*
X201739880Y-44077381D01*
X202168452Y-45077381D01*
D10*
X202231595Y-42711667D02*
X201755404Y-42711667D01*
X202326833Y-42997381D02*
X201993500Y-41997381D01*
X201660166Y-42997381D01*
X207843405Y-42997381D02*
X207843405Y-41997381D01*
X207271976Y-42997381D02*
X207700548Y-42425952D01*
X207271976Y-41997381D02*
X207843405Y-42568810D01*
D11*
X188689881Y-45029762D02*
X188547024Y-45077381D01*
X188308928Y-45077381D01*
X188213690Y-45029762D01*
X188166071Y-44982143D01*
X188118452Y-44886905D01*
X188118452Y-44791667D01*
X188166071Y-44696429D01*
X188213690Y-44648810D01*
X188308928Y-44601190D01*
X188499405Y-44553571D01*
X188594643Y-44505952D01*
X188642262Y-44458333D01*
X188689881Y-44363095D01*
X188689881Y-44267857D01*
X188642262Y-44172619D01*
X188594643Y-44125000D01*
X188499405Y-44077381D01*
X188261309Y-44077381D01*
X188118452Y-44125000D01*
X187785119Y-44077381D02*
X187547024Y-45077381D01*
X187356547Y-44363095D01*
X187166071Y-45077381D01*
X186927976Y-44077381D01*
X186785119Y-45172619D02*
X186023214Y-45172619D01*
X185927976Y-44077381D02*
X185356547Y-44077381D01*
X185642262Y-45077381D02*
X185642262Y-44077381D01*
X185261309Y-45172619D02*
X184499404Y-45172619D01*
X184308928Y-44172619D02*
X184261309Y-44125000D01*
X184166071Y-44077381D01*
X183927975Y-44077381D01*
X183832737Y-44125000D01*
X183785118Y-44172619D01*
X183737499Y-44267857D01*
X183737499Y-44363095D01*
X183785118Y-44505952D01*
X184356547Y-45077381D01*
X183737499Y-45077381D01*
X182880356Y-44077381D02*
X183070833Y-44077381D01*
X183166071Y-44125000D01*
X183213690Y-44172619D01*
X183308928Y-44315476D01*
X183356547Y-44505952D01*
X183356547Y-44886905D01*
X183308928Y-44982143D01*
X183261309Y-45029762D01*
X183166071Y-45077381D01*
X182975594Y-45077381D01*
X182880356Y-45029762D01*
X182832737Y-44982143D01*
X182785118Y-44886905D01*
X182785118Y-44648810D01*
X182832737Y-44553571D01*
X182880356Y-44505952D01*
X182975594Y-44458333D01*
X183166071Y-44458333D01*
X183261309Y-44505952D01*
X183308928Y-44553571D01*
X183356547Y-44648810D01*
D10*
X183181595Y-42711667D02*
X182705404Y-42711667D01*
X183276833Y-42997381D02*
X182943500Y-41997381D01*
X182610166Y-42997381D01*
X188793405Y-42997381D02*
X188793405Y-41997381D01*
X188221976Y-42997381D02*
X188650548Y-42425952D01*
X188221976Y-41997381D02*
X188793405Y-42568810D01*
D11*
X169758929Y-45029762D02*
X169616072Y-45077381D01*
X169377976Y-45077381D01*
X169282738Y-45029762D01*
X169235119Y-44982143D01*
X169187500Y-44886905D01*
X169187500Y-44791667D01*
X169235119Y-44696429D01*
X169282738Y-44648810D01*
X169377976Y-44601190D01*
X169568453Y-44553571D01*
X169663691Y-44505952D01*
X169711310Y-44458333D01*
X169758929Y-44363095D01*
X169758929Y-44267857D01*
X169711310Y-44172619D01*
X169663691Y-44125000D01*
X169568453Y-44077381D01*
X169330357Y-44077381D01*
X169187500Y-44125000D01*
X168854167Y-44077381D02*
X168616072Y-45077381D01*
X168425595Y-44363095D01*
X168235119Y-45077381D01*
X167997024Y-44077381D01*
X167854167Y-45172619D02*
X167092262Y-45172619D01*
X166282738Y-45077381D02*
X166616072Y-44601190D01*
X166854167Y-45077381D02*
X166854167Y-44077381D01*
X166473214Y-44077381D01*
X166377976Y-44125000D01*
X166330357Y-44172619D01*
X166282738Y-44267857D01*
X166282738Y-44410714D01*
X166330357Y-44505952D01*
X166377976Y-44553571D01*
X166473214Y-44601190D01*
X166854167Y-44601190D01*
X166092262Y-45172619D02*
X165330357Y-45172619D01*
X165139881Y-44172619D02*
X165092262Y-44125000D01*
X164997024Y-44077381D01*
X164758928Y-44077381D01*
X164663690Y-44125000D01*
X164616071Y-44172619D01*
X164568452Y-44267857D01*
X164568452Y-44363095D01*
X164616071Y-44505952D01*
X165187500Y-45077381D01*
X164568452Y-45077381D01*
X163663690Y-44077381D02*
X164139881Y-44077381D01*
X164187500Y-44553571D01*
X164139881Y-44505952D01*
X164044643Y-44458333D01*
X163806547Y-44458333D01*
X163711309Y-44505952D01*
X163663690Y-44553571D01*
X163616071Y-44648810D01*
X163616071Y-44886905D01*
X163663690Y-44982143D01*
X163711309Y-45029762D01*
X163806547Y-45077381D01*
X164044643Y-45077381D01*
X164139881Y-45029762D01*
X164187500Y-44982143D01*
D10*
X164131595Y-42711667D02*
X163655404Y-42711667D01*
X164226833Y-42997381D02*
X163893500Y-41997381D01*
X163560166Y-42997381D01*
X169743405Y-42997381D02*
X169743405Y-41997381D01*
X169171976Y-42997381D02*
X169600548Y-42425952D01*
X169171976Y-41997381D02*
X169743405Y-42568810D01*
D11*
X150661310Y-45029762D02*
X150518453Y-45077381D01*
X150280357Y-45077381D01*
X150185119Y-45029762D01*
X150137500Y-44982143D01*
X150089881Y-44886905D01*
X150089881Y-44791667D01*
X150137500Y-44696429D01*
X150185119Y-44648810D01*
X150280357Y-44601190D01*
X150470834Y-44553571D01*
X150566072Y-44505952D01*
X150613691Y-44458333D01*
X150661310Y-44363095D01*
X150661310Y-44267857D01*
X150613691Y-44172619D01*
X150566072Y-44125000D01*
X150470834Y-44077381D01*
X150232738Y-44077381D01*
X150089881Y-44125000D01*
X149756548Y-44077381D02*
X149518453Y-45077381D01*
X149327976Y-44363095D01*
X149137500Y-45077381D01*
X148899405Y-44077381D01*
X148756548Y-45172619D02*
X147994643Y-45172619D01*
X147756548Y-44553571D02*
X147423214Y-44553571D01*
X147280357Y-45077381D02*
X147756548Y-45077381D01*
X147756548Y-44077381D01*
X147280357Y-44077381D01*
X147089881Y-45172619D02*
X146327976Y-45172619D01*
X146137500Y-44172619D02*
X146089881Y-44125000D01*
X145994643Y-44077381D01*
X145756547Y-44077381D01*
X145661309Y-44125000D01*
X145613690Y-44172619D01*
X145566071Y-44267857D01*
X145566071Y-44363095D01*
X145613690Y-44505952D01*
X146185119Y-45077381D01*
X145566071Y-45077381D01*
X144708928Y-44410714D02*
X144708928Y-45077381D01*
X144947024Y-44029762D02*
X145185119Y-44744048D01*
X144566071Y-44744048D01*
D10*
X145081595Y-42711667D02*
X144605404Y-42711667D01*
X145176833Y-42997381D02*
X144843500Y-41997381D01*
X144510166Y-42997381D01*
X150693405Y-42997381D02*
X150693405Y-41997381D01*
X150121976Y-42997381D02*
X150550548Y-42425952D01*
X150121976Y-41997381D02*
X150693405Y-42568810D01*
D11*
X131730357Y-45029762D02*
X131587500Y-45077381D01*
X131349404Y-45077381D01*
X131254166Y-45029762D01*
X131206547Y-44982143D01*
X131158928Y-44886905D01*
X131158928Y-44791667D01*
X131206547Y-44696429D01*
X131254166Y-44648810D01*
X131349404Y-44601190D01*
X131539881Y-44553571D01*
X131635119Y-44505952D01*
X131682738Y-44458333D01*
X131730357Y-44363095D01*
X131730357Y-44267857D01*
X131682738Y-44172619D01*
X131635119Y-44125000D01*
X131539881Y-44077381D01*
X131301785Y-44077381D01*
X131158928Y-44125000D01*
X130825595Y-44077381D02*
X130587500Y-45077381D01*
X130397023Y-44363095D01*
X130206547Y-45077381D01*
X129968452Y-44077381D01*
X129825595Y-45172619D02*
X129063690Y-45172619D01*
X128920833Y-44077381D02*
X128682738Y-45077381D01*
X128492261Y-44363095D01*
X128301785Y-45077381D01*
X128063690Y-44077381D01*
X127920833Y-45172619D02*
X127158928Y-45172619D01*
X126968452Y-44172619D02*
X126920833Y-44125000D01*
X126825595Y-44077381D01*
X126587499Y-44077381D01*
X126492261Y-44125000D01*
X126444642Y-44172619D01*
X126397023Y-44267857D01*
X126397023Y-44363095D01*
X126444642Y-44505952D01*
X127016071Y-45077381D01*
X126397023Y-45077381D01*
X126063690Y-44077381D02*
X125444642Y-44077381D01*
X125777976Y-44458333D01*
X125635118Y-44458333D01*
X125539880Y-44505952D01*
X125492261Y-44553571D01*
X125444642Y-44648810D01*
X125444642Y-44886905D01*
X125492261Y-44982143D01*
X125539880Y-45029762D01*
X125635118Y-45077381D01*
X125920833Y-45077381D01*
X126016071Y-45029762D01*
X126063690Y-44982143D01*
D10*
X126031595Y-42711667D02*
X125555404Y-42711667D01*
X126126833Y-42997381D02*
X125793500Y-41997381D01*
X125460166Y-42997381D01*
X131643405Y-42997381D02*
X131643405Y-41997381D01*
X131071976Y-42997381D02*
X131500548Y-42425952D01*
X131071976Y-41997381D02*
X131643405Y-42568810D01*
D11*
X112632738Y-45029762D02*
X112489881Y-45077381D01*
X112251785Y-45077381D01*
X112156547Y-45029762D01*
X112108928Y-44982143D01*
X112061309Y-44886905D01*
X112061309Y-44791667D01*
X112108928Y-44696429D01*
X112156547Y-44648810D01*
X112251785Y-44601190D01*
X112442262Y-44553571D01*
X112537500Y-44505952D01*
X112585119Y-44458333D01*
X112632738Y-44363095D01*
X112632738Y-44267857D01*
X112585119Y-44172619D01*
X112537500Y-44125000D01*
X112442262Y-44077381D01*
X112204166Y-44077381D01*
X112061309Y-44125000D01*
X111727976Y-44077381D02*
X111489881Y-45077381D01*
X111299404Y-44363095D01*
X111108928Y-45077381D01*
X110870833Y-44077381D01*
X110727976Y-45172619D02*
X109966071Y-45172619D01*
X109061309Y-45172619D02*
X109156547Y-45125000D01*
X109251785Y-45029762D01*
X109394642Y-44886905D01*
X109489881Y-44839286D01*
X109585119Y-44839286D01*
X109537500Y-45077381D02*
X109632738Y-45029762D01*
X109727976Y-44934524D01*
X109775595Y-44744048D01*
X109775595Y-44410714D01*
X109727976Y-44220238D01*
X109632738Y-44125000D01*
X109537500Y-44077381D01*
X109347023Y-44077381D01*
X109251785Y-44125000D01*
X109156547Y-44220238D01*
X109108928Y-44410714D01*
X109108928Y-44744048D01*
X109156547Y-44934524D01*
X109251785Y-45029762D01*
X109347023Y-45077381D01*
X109537500Y-45077381D01*
X108918452Y-45172619D02*
X108156547Y-45172619D01*
X107966071Y-44172619D02*
X107918452Y-44125000D01*
X107823214Y-44077381D01*
X107585118Y-44077381D01*
X107489880Y-44125000D01*
X107442261Y-44172619D01*
X107394642Y-44267857D01*
X107394642Y-44363095D01*
X107442261Y-44505952D01*
X108013690Y-45077381D01*
X107394642Y-45077381D01*
X107013690Y-44172619D02*
X106966071Y-44125000D01*
X106870833Y-44077381D01*
X106632737Y-44077381D01*
X106537499Y-44125000D01*
X106489880Y-44172619D01*
X106442261Y-44267857D01*
X106442261Y-44363095D01*
X106489880Y-44505952D01*
X107061309Y-45077381D01*
X106442261Y-45077381D01*
D10*
X106981595Y-42711667D02*
X106505404Y-42711667D01*
X107076833Y-42997381D02*
X106743500Y-41997381D01*
X106410166Y-42997381D01*
X112593405Y-42997381D02*
X112593405Y-41997381D01*
X112021976Y-42997381D02*
X112450548Y-42425952D01*
X112021976Y-41997381D02*
X112593405Y-42568810D01*
D11*
X89582143Y-45029762D02*
X89439286Y-45077381D01*
X89201190Y-45077381D01*
X89105952Y-45029762D01*
X89058333Y-44982143D01*
X89010714Y-44886905D01*
X89010714Y-44791667D01*
X89058333Y-44696429D01*
X89105952Y-44648810D01*
X89201190Y-44601190D01*
X89391667Y-44553571D01*
X89486905Y-44505952D01*
X89534524Y-44458333D01*
X89582143Y-44363095D01*
X89582143Y-44267857D01*
X89534524Y-44172619D01*
X89486905Y-44125000D01*
X89391667Y-44077381D01*
X89153571Y-44077381D01*
X89010714Y-44125000D01*
X88677381Y-44077381D02*
X88439286Y-45077381D01*
X88248809Y-44363095D01*
X88058333Y-45077381D01*
X87820238Y-44077381D01*
X87677381Y-45172619D02*
X86915476Y-45172619D01*
X86820238Y-44077381D02*
X86248809Y-44077381D01*
X86534524Y-45077381D02*
X86534524Y-44077381D01*
X85486904Y-45077381D02*
X85486904Y-44553571D01*
X85534523Y-44458333D01*
X85629761Y-44410714D01*
X85820238Y-44410714D01*
X85915476Y-44458333D01*
X85486904Y-45029762D02*
X85582142Y-45077381D01*
X85820238Y-45077381D01*
X85915476Y-45029762D01*
X85963095Y-44934524D01*
X85963095Y-44839286D01*
X85915476Y-44744048D01*
X85820238Y-44696429D01*
X85582142Y-44696429D01*
X85486904Y-44648810D01*
X85010714Y-45077381D02*
X85010714Y-44077381D01*
X85010714Y-44458333D02*
X84915476Y-44410714D01*
X84724999Y-44410714D01*
X84629761Y-44458333D01*
X84582142Y-44505952D01*
X84534523Y-44601190D01*
X84534523Y-44886905D01*
X84582142Y-44982143D01*
X84629761Y-45029762D01*
X84724999Y-45077381D01*
X84915476Y-45077381D01*
X85010714Y-45029762D01*
X84344047Y-45172619D02*
X83582142Y-45172619D01*
X83391666Y-44172619D02*
X83344047Y-44125000D01*
X83248809Y-44077381D01*
X83010713Y-44077381D01*
X82915475Y-44125000D01*
X82867856Y-44172619D01*
X82820237Y-44267857D01*
X82820237Y-44363095D01*
X82867856Y-44505952D01*
X83439285Y-45077381D01*
X82820237Y-45077381D01*
X81867856Y-45077381D02*
X82439285Y-45077381D01*
X82153571Y-45077381D02*
X82153571Y-44077381D01*
X82248809Y-44220238D01*
X82344047Y-44315476D01*
X82439285Y-44363095D01*
D10*
X83169095Y-42711667D02*
X82692904Y-42711667D01*
X83264333Y-42997381D02*
X82931000Y-41997381D01*
X82597666Y-42997381D01*
X88780905Y-42997381D02*
X88780905Y-41997381D01*
X88209476Y-42997381D02*
X88638048Y-42425952D01*
X88209476Y-41997381D02*
X88780905Y-42568810D01*
D11*
X60626191Y-45029762D02*
X60483334Y-45077381D01*
X60245238Y-45077381D01*
X60150000Y-45029762D01*
X60102381Y-44982143D01*
X60054762Y-44886905D01*
X60054762Y-44791667D01*
X60102381Y-44696429D01*
X60150000Y-44648810D01*
X60245238Y-44601190D01*
X60435715Y-44553571D01*
X60530953Y-44505952D01*
X60578572Y-44458333D01*
X60626191Y-44363095D01*
X60626191Y-44267857D01*
X60578572Y-44172619D01*
X60530953Y-44125000D01*
X60435715Y-44077381D01*
X60197619Y-44077381D01*
X60054762Y-44125000D01*
X59721429Y-44077381D02*
X59483334Y-45077381D01*
X59292857Y-44363095D01*
X59102381Y-45077381D01*
X58864286Y-44077381D01*
X58721429Y-45172619D02*
X57959524Y-45172619D01*
X57388095Y-44553571D02*
X57721429Y-44553571D01*
X57721429Y-45077381D02*
X57721429Y-44077381D01*
X57245238Y-44077381D01*
X56435714Y-44410714D02*
X56435714Y-45077381D01*
X56673810Y-44029762D02*
X56911905Y-44744048D01*
X56292857Y-44744048D01*
X56150000Y-45172619D02*
X55388095Y-45172619D01*
X55197619Y-44172619D02*
X55150000Y-44125000D01*
X55054762Y-44077381D01*
X54816666Y-44077381D01*
X54721428Y-44125000D01*
X54673809Y-44172619D01*
X54626190Y-44267857D01*
X54626190Y-44363095D01*
X54673809Y-44505952D01*
X55245238Y-45077381D01*
X54626190Y-45077381D01*
X54007143Y-44077381D02*
X53911904Y-44077381D01*
X53816666Y-44125000D01*
X53769047Y-44172619D01*
X53721428Y-44267857D01*
X53673809Y-44458333D01*
X53673809Y-44696429D01*
X53721428Y-44886905D01*
X53769047Y-44982143D01*
X53816666Y-45029762D01*
X53911904Y-45077381D01*
X54007143Y-45077381D01*
X54102381Y-45029762D01*
X54150000Y-44982143D01*
X54197619Y-44886905D01*
X54245238Y-44696429D01*
X54245238Y-44458333D01*
X54197619Y-44267857D01*
X54150000Y-44172619D01*
X54102381Y-44125000D01*
X54007143Y-44077381D01*
D10*
X54594095Y-42711667D02*
X54117904Y-42711667D01*
X54689333Y-42997381D02*
X54356000Y-41997381D01*
X54022666Y-42997381D01*
X60205905Y-42997381D02*
X60205905Y-41997381D01*
X59634476Y-42997381D02*
X60063048Y-42425952D01*
X59634476Y-41997381D02*
X60205905Y-42568810D01*
D11*
X41576191Y-45029762D02*
X41433334Y-45077381D01*
X41195238Y-45077381D01*
X41100000Y-45029762D01*
X41052381Y-44982143D01*
X41004762Y-44886905D01*
X41004762Y-44791667D01*
X41052381Y-44696429D01*
X41100000Y-44648810D01*
X41195238Y-44601190D01*
X41385715Y-44553571D01*
X41480953Y-44505952D01*
X41528572Y-44458333D01*
X41576191Y-44363095D01*
X41576191Y-44267857D01*
X41528572Y-44172619D01*
X41480953Y-44125000D01*
X41385715Y-44077381D01*
X41147619Y-44077381D01*
X41004762Y-44125000D01*
X40671429Y-44077381D02*
X40433334Y-45077381D01*
X40242857Y-44363095D01*
X40052381Y-45077381D01*
X39814286Y-44077381D01*
X39671429Y-45172619D02*
X38909524Y-45172619D01*
X38338095Y-44553571D02*
X38671429Y-44553571D01*
X38671429Y-45077381D02*
X38671429Y-44077381D01*
X38195238Y-44077381D01*
X37909524Y-44077381D02*
X37290476Y-44077381D01*
X37623810Y-44458333D01*
X37480952Y-44458333D01*
X37385714Y-44505952D01*
X37338095Y-44553571D01*
X37290476Y-44648810D01*
X37290476Y-44886905D01*
X37338095Y-44982143D01*
X37385714Y-45029762D01*
X37480952Y-45077381D01*
X37766667Y-45077381D01*
X37861905Y-45029762D01*
X37909524Y-44982143D01*
X37100000Y-45172619D02*
X36338095Y-45172619D01*
X35576190Y-45077381D02*
X36147619Y-45077381D01*
X35861905Y-45077381D02*
X35861905Y-44077381D01*
X35957143Y-44220238D01*
X36052381Y-44315476D01*
X36147619Y-44363095D01*
X35100000Y-45077381D02*
X34909524Y-45077381D01*
X34814285Y-45029762D01*
X34766666Y-44982143D01*
X34671428Y-44839286D01*
X34623809Y-44648810D01*
X34623809Y-44267857D01*
X34671428Y-44172619D01*
X34719047Y-44125000D01*
X34814285Y-44077381D01*
X35004762Y-44077381D01*
X35100000Y-44125000D01*
X35147619Y-44172619D01*
X35195238Y-44267857D01*
X35195238Y-44505952D01*
X35147619Y-44601190D01*
X35100000Y-44648810D01*
X35004762Y-44696429D01*
X34814285Y-44696429D01*
X34719047Y-44648810D01*
X34671428Y-44601190D01*
X34623809Y-44505952D01*
D10*
X35544095Y-42711667D02*
X35067904Y-42711667D01*
X35639333Y-42997381D02*
X35306000Y-41997381D01*
X34972666Y-42997381D01*
X41155905Y-42997381D02*
X41155905Y-41997381D01*
X40584476Y-42997381D02*
X41013048Y-42425952D01*
X40584476Y-41997381D02*
X41155905Y-42568810D01*
D11*
X395025000Y-25979762D02*
X394882143Y-26027381D01*
X394644047Y-26027381D01*
X394548809Y-25979762D01*
X394501190Y-25932143D01*
X394453571Y-25836905D01*
X394453571Y-25741667D01*
X394501190Y-25646429D01*
X394548809Y-25598810D01*
X394644047Y-25551190D01*
X394834524Y-25503571D01*
X394929762Y-25455952D01*
X394977381Y-25408333D01*
X395025000Y-25313095D01*
X395025000Y-25217857D01*
X394977381Y-25122619D01*
X394929762Y-25075000D01*
X394834524Y-25027381D01*
X394596428Y-25027381D01*
X394453571Y-25075000D01*
X394120238Y-25027381D02*
X393882143Y-26027381D01*
X393691666Y-25313095D01*
X393501190Y-26027381D01*
X393263095Y-25027381D01*
X393120238Y-26122619D02*
X392358333Y-26122619D01*
X392120238Y-26027381D02*
X392120238Y-25027381D01*
X391739285Y-25027381D01*
X391644047Y-25075000D01*
X391596428Y-25122619D01*
X391548809Y-25217857D01*
X391548809Y-25360714D01*
X391596428Y-25455952D01*
X391644047Y-25503571D01*
X391739285Y-25551190D01*
X392120238Y-25551190D01*
X390691666Y-25360714D02*
X390691666Y-26170238D01*
X390739285Y-26265476D01*
X390786904Y-26313095D01*
X390882143Y-26360714D01*
X391025000Y-26360714D01*
X391120238Y-26313095D01*
X390691666Y-25979762D02*
X390786904Y-26027381D01*
X390977381Y-26027381D01*
X391072619Y-25979762D01*
X391120238Y-25932143D01*
X391167857Y-25836905D01*
X391167857Y-25551190D01*
X391120238Y-25455952D01*
X391072619Y-25408333D01*
X390977381Y-25360714D01*
X390786904Y-25360714D01*
X390691666Y-25408333D01*
X390215476Y-25027381D02*
X390215476Y-25836905D01*
X390167857Y-25932143D01*
X390120238Y-25979762D01*
X390025000Y-26027381D01*
X389834523Y-26027381D01*
X389739285Y-25979762D01*
X389691666Y-25932143D01*
X389644047Y-25836905D01*
X389644047Y-25027381D01*
X389167857Y-25360714D02*
X389167857Y-26360714D01*
X389167857Y-25408333D02*
X389072619Y-25360714D01*
X388882142Y-25360714D01*
X388786904Y-25408333D01*
X388739285Y-25455952D01*
X388691666Y-25551190D01*
X388691666Y-25836905D01*
X388739285Y-25932143D01*
X388786904Y-25979762D01*
X388882142Y-26027381D01*
X389072619Y-26027381D01*
X389167857Y-25979762D01*
X388501190Y-26122619D02*
X387739285Y-26122619D01*
X386977380Y-26027381D02*
X387548809Y-26027381D01*
X387263095Y-26027381D02*
X387263095Y-25027381D01*
X387358333Y-25170238D01*
X387453571Y-25265476D01*
X387548809Y-25313095D01*
X386405952Y-25455952D02*
X386501190Y-25408333D01*
X386548809Y-25360714D01*
X386596428Y-25265476D01*
X386596428Y-25217857D01*
X386548809Y-25122619D01*
X386501190Y-25075000D01*
X386405952Y-25027381D01*
X386215475Y-25027381D01*
X386120237Y-25075000D01*
X386072618Y-25122619D01*
X386024999Y-25217857D01*
X386024999Y-25265476D01*
X386072618Y-25360714D01*
X386120237Y-25408333D01*
X386215475Y-25455952D01*
X386405952Y-25455952D01*
X386501190Y-25503571D01*
X386548809Y-25551190D01*
X386596428Y-25646429D01*
X386596428Y-25836905D01*
X386548809Y-25932143D01*
X386501190Y-25979762D01*
X386405952Y-26027381D01*
X386215475Y-26027381D01*
X386120237Y-25979762D01*
X386072618Y-25932143D01*
X386024999Y-25836905D01*
X386024999Y-25646429D01*
X386072618Y-25551190D01*
X386120237Y-25503571D01*
X386215475Y-25455952D01*
D10*
X387969095Y-23661667D02*
X387492904Y-23661667D01*
X388064333Y-23947381D02*
X387731000Y-22947381D01*
X387397666Y-23947381D01*
X393580905Y-23947381D02*
X393580905Y-22947381D01*
X393009476Y-23947381D02*
X393438048Y-23375952D01*
X393009476Y-22947381D02*
X393580905Y-23518810D01*
D11*
X375141667Y-25979762D02*
X374998810Y-26027381D01*
X374760714Y-26027381D01*
X374665476Y-25979762D01*
X374617857Y-25932143D01*
X374570238Y-25836905D01*
X374570238Y-25741667D01*
X374617857Y-25646429D01*
X374665476Y-25598810D01*
X374760714Y-25551190D01*
X374951191Y-25503571D01*
X375046429Y-25455952D01*
X375094048Y-25408333D01*
X375141667Y-25313095D01*
X375141667Y-25217857D01*
X375094048Y-25122619D01*
X375046429Y-25075000D01*
X374951191Y-25027381D01*
X374713095Y-25027381D01*
X374570238Y-25075000D01*
X374236905Y-25027381D02*
X373998810Y-26027381D01*
X373808333Y-25313095D01*
X373617857Y-26027381D01*
X373379762Y-25027381D01*
X373236905Y-26122619D02*
X372475000Y-26122619D01*
X372236905Y-26027381D02*
X372236905Y-25027381D01*
X371760715Y-25360714D02*
X371760715Y-26027381D01*
X371760715Y-25455952D02*
X371713096Y-25408333D01*
X371617858Y-25360714D01*
X371475000Y-25360714D01*
X371379762Y-25408333D01*
X371332143Y-25503571D01*
X371332143Y-26027381D01*
X370903572Y-25979762D02*
X370808334Y-26027381D01*
X370617858Y-26027381D01*
X370522619Y-25979762D01*
X370475000Y-25884524D01*
X370475000Y-25836905D01*
X370522619Y-25741667D01*
X370617858Y-25694048D01*
X370760715Y-25694048D01*
X370855953Y-25646429D01*
X370903572Y-25551190D01*
X370903572Y-25503571D01*
X370855953Y-25408333D01*
X370760715Y-25360714D01*
X370617858Y-25360714D01*
X370522619Y-25408333D01*
X370284524Y-26122619D02*
X369522619Y-26122619D01*
X368760714Y-26027381D02*
X369332143Y-26027381D01*
X369046429Y-26027381D02*
X369046429Y-25027381D01*
X369141667Y-25170238D01*
X369236905Y-25265476D01*
X369332143Y-25313095D01*
X368427381Y-25027381D02*
X367760714Y-25027381D01*
X368189286Y-26027381D01*
D10*
X368919095Y-23661667D02*
X368442904Y-23661667D01*
X369014333Y-23947381D02*
X368681000Y-22947381D01*
X368347666Y-23947381D01*
X374530905Y-23947381D02*
X374530905Y-22947381D01*
X373959476Y-23947381D02*
X374388048Y-23375952D01*
X373959476Y-22947381D02*
X374530905Y-23518810D01*
D11*
X344661310Y-25979762D02*
X344518453Y-26027381D01*
X344280357Y-26027381D01*
X344185119Y-25979762D01*
X344137500Y-25932143D01*
X344089881Y-25836905D01*
X344089881Y-25741667D01*
X344137500Y-25646429D01*
X344185119Y-25598810D01*
X344280357Y-25551190D01*
X344470834Y-25503571D01*
X344566072Y-25455952D01*
X344613691Y-25408333D01*
X344661310Y-25313095D01*
X344661310Y-25217857D01*
X344613691Y-25122619D01*
X344566072Y-25075000D01*
X344470834Y-25027381D01*
X344232738Y-25027381D01*
X344089881Y-25075000D01*
X343756548Y-25027381D02*
X343518453Y-26027381D01*
X343327976Y-25313095D01*
X343137500Y-26027381D01*
X342899405Y-25027381D01*
X342756548Y-26122619D02*
X341994643Y-26122619D01*
X341423214Y-25503571D02*
X341280357Y-25551190D01*
X341232738Y-25598810D01*
X341185119Y-25694048D01*
X341185119Y-25836905D01*
X341232738Y-25932143D01*
X341280357Y-25979762D01*
X341375595Y-26027381D01*
X341756548Y-26027381D01*
X341756548Y-25027381D01*
X341423214Y-25027381D01*
X341327976Y-25075000D01*
X341280357Y-25122619D01*
X341232738Y-25217857D01*
X341232738Y-25313095D01*
X341280357Y-25408333D01*
X341327976Y-25455952D01*
X341423214Y-25503571D01*
X341756548Y-25503571D01*
X340327976Y-26027381D02*
X340327976Y-25503571D01*
X340375595Y-25408333D01*
X340470833Y-25360714D01*
X340661310Y-25360714D01*
X340756548Y-25408333D01*
X340327976Y-25979762D02*
X340423214Y-26027381D01*
X340661310Y-26027381D01*
X340756548Y-25979762D01*
X340804167Y-25884524D01*
X340804167Y-25789286D01*
X340756548Y-25694048D01*
X340661310Y-25646429D01*
X340423214Y-25646429D01*
X340327976Y-25598810D01*
X339423214Y-25979762D02*
X339518452Y-26027381D01*
X339708929Y-26027381D01*
X339804167Y-25979762D01*
X339851786Y-25932143D01*
X339899405Y-25836905D01*
X339899405Y-25551190D01*
X339851786Y-25455952D01*
X339804167Y-25408333D01*
X339708929Y-25360714D01*
X339518452Y-25360714D01*
X339423214Y-25408333D01*
X338994643Y-26027381D02*
X338994643Y-25027381D01*
X338899405Y-25646429D02*
X338613690Y-26027381D01*
X338613690Y-25360714D02*
X338994643Y-25741667D01*
X338232738Y-25979762D02*
X338137500Y-26027381D01*
X337947024Y-26027381D01*
X337851785Y-25979762D01*
X337804166Y-25884524D01*
X337804166Y-25836905D01*
X337851785Y-25741667D01*
X337947024Y-25694048D01*
X338089881Y-25694048D01*
X338185119Y-25646429D01*
X338232738Y-25551190D01*
X338232738Y-25503571D01*
X338185119Y-25408333D01*
X338089881Y-25360714D01*
X337947024Y-25360714D01*
X337851785Y-25408333D01*
X337375595Y-25360714D02*
X337375595Y-26360714D01*
X337375595Y-25408333D02*
X337280357Y-25360714D01*
X337089880Y-25360714D01*
X336994642Y-25408333D01*
X336947023Y-25455952D01*
X336899404Y-25551190D01*
X336899404Y-25836905D01*
X336947023Y-25932143D01*
X336994642Y-25979762D01*
X337089880Y-26027381D01*
X337280357Y-26027381D01*
X337375595Y-25979762D01*
X336042261Y-26027381D02*
X336042261Y-25503571D01*
X336089880Y-25408333D01*
X336185118Y-25360714D01*
X336375595Y-25360714D01*
X336470833Y-25408333D01*
X336042261Y-25979762D02*
X336137499Y-26027381D01*
X336375595Y-26027381D01*
X336470833Y-25979762D01*
X336518452Y-25884524D01*
X336518452Y-25789286D01*
X336470833Y-25694048D01*
X336375595Y-25646429D01*
X336137499Y-25646429D01*
X336042261Y-25598810D01*
X335137499Y-25979762D02*
X335232737Y-26027381D01*
X335423214Y-26027381D01*
X335518452Y-25979762D01*
X335566071Y-25932143D01*
X335613690Y-25836905D01*
X335613690Y-25551190D01*
X335566071Y-25455952D01*
X335518452Y-25408333D01*
X335423214Y-25360714D01*
X335232737Y-25360714D01*
X335137499Y-25408333D01*
X334327975Y-25979762D02*
X334423213Y-26027381D01*
X334613690Y-26027381D01*
X334708928Y-25979762D01*
X334756547Y-25884524D01*
X334756547Y-25503571D01*
X334708928Y-25408333D01*
X334613690Y-25360714D01*
X334423213Y-25360714D01*
X334327975Y-25408333D01*
X334280356Y-25503571D01*
X334280356Y-25598810D01*
X334756547Y-25694048D01*
X334089880Y-26122619D02*
X333327975Y-26122619D01*
X332566070Y-26027381D02*
X333137499Y-26027381D01*
X332851785Y-26027381D02*
X332851785Y-25027381D01*
X332947023Y-25170238D01*
X333042261Y-25265476D01*
X333137499Y-25313095D01*
X331708927Y-25027381D02*
X331899404Y-25027381D01*
X331994642Y-25075000D01*
X332042261Y-25122619D01*
X332137499Y-25265476D01*
X332185118Y-25455952D01*
X332185118Y-25836905D01*
X332137499Y-25932143D01*
X332089880Y-25979762D01*
X331994642Y-26027381D01*
X331804165Y-26027381D01*
X331708927Y-25979762D01*
X331661308Y-25932143D01*
X331613689Y-25836905D01*
X331613689Y-25598810D01*
X331661308Y-25503571D01*
X331708927Y-25455952D01*
X331804165Y-25408333D01*
X331994642Y-25408333D01*
X332089880Y-25455952D01*
X332137499Y-25503571D01*
X332185118Y-25598810D01*
D10*
X335581595Y-23661667D02*
X335105404Y-23661667D01*
X335676833Y-23947381D02*
X335343500Y-22947381D01*
X335010166Y-23947381D01*
X341193405Y-23947381D02*
X341193405Y-22947381D01*
X340621976Y-23947381D02*
X341050548Y-23375952D01*
X340621976Y-22947381D02*
X341193405Y-23518810D01*
D11*
X314467262Y-25979762D02*
X314324405Y-26027381D01*
X314086309Y-26027381D01*
X313991071Y-25979762D01*
X313943452Y-25932143D01*
X313895833Y-25836905D01*
X313895833Y-25741667D01*
X313943452Y-25646429D01*
X313991071Y-25598810D01*
X314086309Y-25551190D01*
X314276786Y-25503571D01*
X314372024Y-25455952D01*
X314419643Y-25408333D01*
X314467262Y-25313095D01*
X314467262Y-25217857D01*
X314419643Y-25122619D01*
X314372024Y-25075000D01*
X314276786Y-25027381D01*
X314038690Y-25027381D01*
X313895833Y-25075000D01*
X313562500Y-25027381D02*
X313324405Y-26027381D01*
X313133928Y-25313095D01*
X312943452Y-26027381D01*
X312705357Y-25027381D01*
X312562500Y-26122619D02*
X311800595Y-26122619D01*
X311657738Y-25027381D02*
X310991071Y-26027381D01*
X310991071Y-25027381D02*
X311657738Y-26027381D01*
X310086309Y-26027381D02*
X310657738Y-26027381D01*
X310372024Y-26027381D02*
X310372024Y-25027381D01*
X310467262Y-25170238D01*
X310562500Y-25265476D01*
X310657738Y-25313095D01*
X309229166Y-25027381D02*
X309419643Y-25027381D01*
X309514881Y-25075000D01*
X309562500Y-25122619D01*
X309657738Y-25265476D01*
X309705357Y-25455952D01*
X309705357Y-25836905D01*
X309657738Y-25932143D01*
X309610119Y-25979762D01*
X309514881Y-26027381D01*
X309324404Y-26027381D01*
X309229166Y-25979762D01*
X309181547Y-25932143D01*
X309133928Y-25836905D01*
X309133928Y-25598810D01*
X309181547Y-25503571D01*
X309229166Y-25455952D01*
X309324404Y-25408333D01*
X309514881Y-25408333D01*
X309610119Y-25455952D01*
X309657738Y-25503571D01*
X309705357Y-25598810D01*
X308514881Y-25551190D02*
X308514881Y-26027381D01*
X308848214Y-25027381D02*
X308514881Y-25551190D01*
X308181547Y-25027381D01*
X307324404Y-26027381D02*
X307895833Y-26027381D01*
X307610119Y-26027381D02*
X307610119Y-25027381D01*
X307705357Y-25170238D01*
X307800595Y-25265476D01*
X307895833Y-25313095D01*
X307133928Y-26122619D02*
X306372023Y-26122619D01*
X305610118Y-26027381D02*
X306181547Y-26027381D01*
X305895833Y-26027381D02*
X305895833Y-25027381D01*
X305991071Y-25170238D01*
X306086309Y-25265476D01*
X306181547Y-25313095D01*
X304705356Y-25027381D02*
X305181547Y-25027381D01*
X305229166Y-25503571D01*
X305181547Y-25455952D01*
X305086309Y-25408333D01*
X304848213Y-25408333D01*
X304752975Y-25455952D01*
X304705356Y-25503571D01*
X304657737Y-25598810D01*
X304657737Y-25836905D01*
X304705356Y-25932143D01*
X304752975Y-25979762D01*
X304848213Y-26027381D01*
X305086309Y-26027381D01*
X305181547Y-25979762D01*
X305229166Y-25932143D01*
D10*
X307006595Y-23661667D02*
X306530404Y-23661667D01*
X307101833Y-23947381D02*
X306768500Y-22947381D01*
X306435166Y-23947381D01*
X312618405Y-23947381D02*
X312618405Y-22947381D01*
X312046976Y-23947381D02*
X312475548Y-23375952D01*
X312046976Y-22947381D02*
X312618405Y-23518810D01*
D11*
X295417262Y-25979762D02*
X295274405Y-26027381D01*
X295036309Y-26027381D01*
X294941071Y-25979762D01*
X294893452Y-25932143D01*
X294845833Y-25836905D01*
X294845833Y-25741667D01*
X294893452Y-25646429D01*
X294941071Y-25598810D01*
X295036309Y-25551190D01*
X295226786Y-25503571D01*
X295322024Y-25455952D01*
X295369643Y-25408333D01*
X295417262Y-25313095D01*
X295417262Y-25217857D01*
X295369643Y-25122619D01*
X295322024Y-25075000D01*
X295226786Y-25027381D01*
X294988690Y-25027381D01*
X294845833Y-25075000D01*
X294512500Y-25027381D02*
X294274405Y-26027381D01*
X294083928Y-25313095D01*
X293893452Y-26027381D01*
X293655357Y-25027381D01*
X293512500Y-26122619D02*
X292750595Y-26122619D01*
X292607738Y-25027381D02*
X291941071Y-26027381D01*
X291941071Y-25027381D02*
X292607738Y-26027381D01*
X291036309Y-26027381D02*
X291607738Y-26027381D01*
X291322024Y-26027381D02*
X291322024Y-25027381D01*
X291417262Y-25170238D01*
X291512500Y-25265476D01*
X291607738Y-25313095D01*
X290131547Y-25027381D02*
X290607738Y-25027381D01*
X290655357Y-25503571D01*
X290607738Y-25455952D01*
X290512500Y-25408333D01*
X290274404Y-25408333D01*
X290179166Y-25455952D01*
X290131547Y-25503571D01*
X290083928Y-25598810D01*
X290083928Y-25836905D01*
X290131547Y-25932143D01*
X290179166Y-25979762D01*
X290274404Y-26027381D01*
X290512500Y-26027381D01*
X290607738Y-25979762D01*
X290655357Y-25932143D01*
X289464881Y-25551190D02*
X289464881Y-26027381D01*
X289798214Y-25027381D02*
X289464881Y-25551190D01*
X289131547Y-25027381D01*
X288274404Y-26027381D02*
X288845833Y-26027381D01*
X288560119Y-26027381D02*
X288560119Y-25027381D01*
X288655357Y-25170238D01*
X288750595Y-25265476D01*
X288845833Y-25313095D01*
X288083928Y-26122619D02*
X287322023Y-26122619D01*
X286560118Y-26027381D02*
X287131547Y-26027381D01*
X286845833Y-26027381D02*
X286845833Y-25027381D01*
X286941071Y-25170238D01*
X287036309Y-25265476D01*
X287131547Y-25313095D01*
X285702975Y-25360714D02*
X285702975Y-26027381D01*
X285941071Y-24979762D02*
X286179166Y-25694048D01*
X285560118Y-25694048D01*
D10*
X287956595Y-23661667D02*
X287480404Y-23661667D01*
X288051833Y-23947381D02*
X287718500Y-22947381D01*
X287385166Y-23947381D01*
X293568405Y-23947381D02*
X293568405Y-22947381D01*
X292996976Y-23947381D02*
X293425548Y-23375952D01*
X292996976Y-22947381D02*
X293568405Y-23518810D01*
D11*
X276367262Y-25979762D02*
X276224405Y-26027381D01*
X275986309Y-26027381D01*
X275891071Y-25979762D01*
X275843452Y-25932143D01*
X275795833Y-25836905D01*
X275795833Y-25741667D01*
X275843452Y-25646429D01*
X275891071Y-25598810D01*
X275986309Y-25551190D01*
X276176786Y-25503571D01*
X276272024Y-25455952D01*
X276319643Y-25408333D01*
X276367262Y-25313095D01*
X276367262Y-25217857D01*
X276319643Y-25122619D01*
X276272024Y-25075000D01*
X276176786Y-25027381D01*
X275938690Y-25027381D01*
X275795833Y-25075000D01*
X275462500Y-25027381D02*
X275224405Y-26027381D01*
X275033928Y-25313095D01*
X274843452Y-26027381D01*
X274605357Y-25027381D01*
X274462500Y-26122619D02*
X273700595Y-26122619D01*
X273557738Y-25027381D02*
X272891071Y-26027381D01*
X272891071Y-25027381D02*
X273557738Y-26027381D01*
X271986309Y-26027381D02*
X272557738Y-26027381D01*
X272272024Y-26027381D02*
X272272024Y-25027381D01*
X272367262Y-25170238D01*
X272462500Y-25265476D01*
X272557738Y-25313095D01*
X271129166Y-25360714D02*
X271129166Y-26027381D01*
X271367262Y-24979762D02*
X271605357Y-25694048D01*
X270986309Y-25694048D01*
X270414881Y-25551190D02*
X270414881Y-26027381D01*
X270748214Y-25027381D02*
X270414881Y-25551190D01*
X270081547Y-25027381D01*
X269224404Y-26027381D02*
X269795833Y-26027381D01*
X269510119Y-26027381D02*
X269510119Y-25027381D01*
X269605357Y-25170238D01*
X269700595Y-25265476D01*
X269795833Y-25313095D01*
X269033928Y-26122619D02*
X268272023Y-26122619D01*
X267510118Y-26027381D02*
X268081547Y-26027381D01*
X267795833Y-26027381D02*
X267795833Y-25027381D01*
X267891071Y-25170238D01*
X267986309Y-25265476D01*
X268081547Y-25313095D01*
X267176785Y-25027381D02*
X266557737Y-25027381D01*
X266891071Y-25408333D01*
X266748213Y-25408333D01*
X266652975Y-25455952D01*
X266605356Y-25503571D01*
X266557737Y-25598810D01*
X266557737Y-25836905D01*
X266605356Y-25932143D01*
X266652975Y-25979762D01*
X266748213Y-26027381D01*
X267033928Y-26027381D01*
X267129166Y-25979762D01*
X267176785Y-25932143D01*
D10*
X268906595Y-23661667D02*
X268430404Y-23661667D01*
X269001833Y-23947381D02*
X268668500Y-22947381D01*
X268335166Y-23947381D01*
X274518405Y-23947381D02*
X274518405Y-22947381D01*
X273946976Y-23947381D02*
X274375548Y-23375952D01*
X273946976Y-22947381D02*
X274518405Y-23518810D01*
D11*
X257317262Y-25979762D02*
X257174405Y-26027381D01*
X256936309Y-26027381D01*
X256841071Y-25979762D01*
X256793452Y-25932143D01*
X256745833Y-25836905D01*
X256745833Y-25741667D01*
X256793452Y-25646429D01*
X256841071Y-25598810D01*
X256936309Y-25551190D01*
X257126786Y-25503571D01*
X257222024Y-25455952D01*
X257269643Y-25408333D01*
X257317262Y-25313095D01*
X257317262Y-25217857D01*
X257269643Y-25122619D01*
X257222024Y-25075000D01*
X257126786Y-25027381D01*
X256888690Y-25027381D01*
X256745833Y-25075000D01*
X256412500Y-25027381D02*
X256174405Y-26027381D01*
X255983928Y-25313095D01*
X255793452Y-26027381D01*
X255555357Y-25027381D01*
X255412500Y-26122619D02*
X254650595Y-26122619D01*
X254507738Y-25027381D02*
X253841071Y-26027381D01*
X253841071Y-25027381D02*
X254507738Y-26027381D01*
X252936309Y-26027381D02*
X253507738Y-26027381D01*
X253222024Y-26027381D02*
X253222024Y-25027381D01*
X253317262Y-25170238D01*
X253412500Y-25265476D01*
X253507738Y-25313095D01*
X252602976Y-25027381D02*
X251983928Y-25027381D01*
X252317262Y-25408333D01*
X252174404Y-25408333D01*
X252079166Y-25455952D01*
X252031547Y-25503571D01*
X251983928Y-25598810D01*
X251983928Y-25836905D01*
X252031547Y-25932143D01*
X252079166Y-25979762D01*
X252174404Y-26027381D01*
X252460119Y-26027381D01*
X252555357Y-25979762D01*
X252602976Y-25932143D01*
X251364881Y-25551190D02*
X251364881Y-26027381D01*
X251698214Y-25027381D02*
X251364881Y-25551190D01*
X251031547Y-25027381D01*
X250174404Y-26027381D02*
X250745833Y-26027381D01*
X250460119Y-26027381D02*
X250460119Y-25027381D01*
X250555357Y-25170238D01*
X250650595Y-25265476D01*
X250745833Y-25313095D01*
X249983928Y-26122619D02*
X249222023Y-26122619D01*
X248460118Y-26027381D02*
X249031547Y-26027381D01*
X248745833Y-26027381D02*
X248745833Y-25027381D01*
X248841071Y-25170238D01*
X248936309Y-25265476D01*
X249031547Y-25313095D01*
X248079166Y-25122619D02*
X248031547Y-25075000D01*
X247936309Y-25027381D01*
X247698213Y-25027381D01*
X247602975Y-25075000D01*
X247555356Y-25122619D01*
X247507737Y-25217857D01*
X247507737Y-25313095D01*
X247555356Y-25455952D01*
X248126785Y-26027381D01*
X247507737Y-26027381D01*
D10*
X249856595Y-23661667D02*
X249380404Y-23661667D01*
X249951833Y-23947381D02*
X249618500Y-22947381D01*
X249285166Y-23947381D01*
X255468405Y-23947381D02*
X255468405Y-22947381D01*
X254896976Y-23947381D02*
X255325548Y-23375952D01*
X254896976Y-22947381D02*
X255468405Y-23518810D01*
D11*
X238267262Y-25979762D02*
X238124405Y-26027381D01*
X237886309Y-26027381D01*
X237791071Y-25979762D01*
X237743452Y-25932143D01*
X237695833Y-25836905D01*
X237695833Y-25741667D01*
X237743452Y-25646429D01*
X237791071Y-25598810D01*
X237886309Y-25551190D01*
X238076786Y-25503571D01*
X238172024Y-25455952D01*
X238219643Y-25408333D01*
X238267262Y-25313095D01*
X238267262Y-25217857D01*
X238219643Y-25122619D01*
X238172024Y-25075000D01*
X238076786Y-25027381D01*
X237838690Y-25027381D01*
X237695833Y-25075000D01*
X237362500Y-25027381D02*
X237124405Y-26027381D01*
X236933928Y-25313095D01*
X236743452Y-26027381D01*
X236505357Y-25027381D01*
X236362500Y-26122619D02*
X235600595Y-26122619D01*
X235457738Y-25027381D02*
X234791071Y-26027381D01*
X234791071Y-25027381D02*
X235457738Y-26027381D01*
X233886309Y-26027381D02*
X234457738Y-26027381D01*
X234172024Y-26027381D02*
X234172024Y-25027381D01*
X234267262Y-25170238D01*
X234362500Y-25265476D01*
X234457738Y-25313095D01*
X233505357Y-25122619D02*
X233457738Y-25075000D01*
X233362500Y-25027381D01*
X233124404Y-25027381D01*
X233029166Y-25075000D01*
X232981547Y-25122619D01*
X232933928Y-25217857D01*
X232933928Y-25313095D01*
X232981547Y-25455952D01*
X233552976Y-26027381D01*
X232933928Y-26027381D01*
X232314881Y-25551190D02*
X232314881Y-26027381D01*
X232648214Y-25027381D02*
X232314881Y-25551190D01*
X231981547Y-25027381D01*
X231124404Y-26027381D02*
X231695833Y-26027381D01*
X231410119Y-26027381D02*
X231410119Y-25027381D01*
X231505357Y-25170238D01*
X231600595Y-25265476D01*
X231695833Y-25313095D01*
X230933928Y-26122619D02*
X230172023Y-26122619D01*
X229410118Y-26027381D02*
X229981547Y-26027381D01*
X229695833Y-26027381D02*
X229695833Y-25027381D01*
X229791071Y-25170238D01*
X229886309Y-25265476D01*
X229981547Y-25313095D01*
X228457737Y-26027381D02*
X229029166Y-26027381D01*
X228743452Y-26027381D02*
X228743452Y-25027381D01*
X228838690Y-25170238D01*
X228933928Y-25265476D01*
X229029166Y-25313095D01*
D10*
X230806595Y-23661667D02*
X230330404Y-23661667D01*
X230901833Y-23947381D02*
X230568500Y-22947381D01*
X230235166Y-23947381D01*
X236418405Y-23947381D02*
X236418405Y-22947381D01*
X235846976Y-23947381D02*
X236275548Y-23375952D01*
X235846976Y-22947381D02*
X236418405Y-23518810D01*
D11*
X219217262Y-25979762D02*
X219074405Y-26027381D01*
X218836309Y-26027381D01*
X218741071Y-25979762D01*
X218693452Y-25932143D01*
X218645833Y-25836905D01*
X218645833Y-25741667D01*
X218693452Y-25646429D01*
X218741071Y-25598810D01*
X218836309Y-25551190D01*
X219026786Y-25503571D01*
X219122024Y-25455952D01*
X219169643Y-25408333D01*
X219217262Y-25313095D01*
X219217262Y-25217857D01*
X219169643Y-25122619D01*
X219122024Y-25075000D01*
X219026786Y-25027381D01*
X218788690Y-25027381D01*
X218645833Y-25075000D01*
X218312500Y-25027381D02*
X218074405Y-26027381D01*
X217883928Y-25313095D01*
X217693452Y-26027381D01*
X217455357Y-25027381D01*
X217312500Y-26122619D02*
X216550595Y-26122619D01*
X216407738Y-25027381D02*
X215741071Y-26027381D01*
X215741071Y-25027381D02*
X216407738Y-26027381D01*
X214836309Y-26027381D02*
X215407738Y-26027381D01*
X215122024Y-26027381D02*
X215122024Y-25027381D01*
X215217262Y-25170238D01*
X215312500Y-25265476D01*
X215407738Y-25313095D01*
X213883928Y-26027381D02*
X214455357Y-26027381D01*
X214169643Y-26027381D02*
X214169643Y-25027381D01*
X214264881Y-25170238D01*
X214360119Y-25265476D01*
X214455357Y-25313095D01*
X213264881Y-25551190D02*
X213264881Y-26027381D01*
X213598214Y-25027381D02*
X213264881Y-25551190D01*
X212931547Y-25027381D01*
X212074404Y-26027381D02*
X212645833Y-26027381D01*
X212360119Y-26027381D02*
X212360119Y-25027381D01*
X212455357Y-25170238D01*
X212550595Y-25265476D01*
X212645833Y-25313095D01*
X211883928Y-26122619D02*
X211122023Y-26122619D01*
X210360118Y-26027381D02*
X210931547Y-26027381D01*
X210645833Y-26027381D02*
X210645833Y-25027381D01*
X210741071Y-25170238D01*
X210836309Y-25265476D01*
X210931547Y-25313095D01*
X209741071Y-25027381D02*
X209645832Y-25027381D01*
X209550594Y-25075000D01*
X209502975Y-25122619D01*
X209455356Y-25217857D01*
X209407737Y-25408333D01*
X209407737Y-25646429D01*
X209455356Y-25836905D01*
X209502975Y-25932143D01*
X209550594Y-25979762D01*
X209645832Y-26027381D01*
X209741071Y-26027381D01*
X209836309Y-25979762D01*
X209883928Y-25932143D01*
X209931547Y-25836905D01*
X209979166Y-25646429D01*
X209979166Y-25408333D01*
X209931547Y-25217857D01*
X209883928Y-25122619D01*
X209836309Y-25075000D01*
X209741071Y-25027381D01*
D10*
X211756595Y-23661667D02*
X211280404Y-23661667D01*
X211851833Y-23947381D02*
X211518500Y-22947381D01*
X211185166Y-23947381D01*
X217368405Y-23947381D02*
X217368405Y-22947381D01*
X216796976Y-23947381D02*
X217225548Y-23375952D01*
X216796976Y-22947381D02*
X217368405Y-23518810D01*
D11*
X199691072Y-25979762D02*
X199548215Y-26027381D01*
X199310119Y-26027381D01*
X199214881Y-25979762D01*
X199167262Y-25932143D01*
X199119643Y-25836905D01*
X199119643Y-25741667D01*
X199167262Y-25646429D01*
X199214881Y-25598810D01*
X199310119Y-25551190D01*
X199500596Y-25503571D01*
X199595834Y-25455952D01*
X199643453Y-25408333D01*
X199691072Y-25313095D01*
X199691072Y-25217857D01*
X199643453Y-25122619D01*
X199595834Y-25075000D01*
X199500596Y-25027381D01*
X199262500Y-25027381D01*
X199119643Y-25075000D01*
X198786310Y-25027381D02*
X198548215Y-26027381D01*
X198357738Y-25313095D01*
X198167262Y-26027381D01*
X197929167Y-25027381D01*
X197786310Y-26122619D02*
X197024405Y-26122619D01*
X196881548Y-25027381D02*
X196214881Y-26027381D01*
X196214881Y-25027381D02*
X196881548Y-26027381D01*
X195310119Y-26027381D02*
X195881548Y-26027381D01*
X195595834Y-26027381D02*
X195595834Y-25027381D01*
X195691072Y-25170238D01*
X195786310Y-25265476D01*
X195881548Y-25313095D01*
X194691072Y-25027381D02*
X194595833Y-25027381D01*
X194500595Y-25075000D01*
X194452976Y-25122619D01*
X194405357Y-25217857D01*
X194357738Y-25408333D01*
X194357738Y-25646429D01*
X194405357Y-25836905D01*
X194452976Y-25932143D01*
X194500595Y-25979762D01*
X194595833Y-26027381D01*
X194691072Y-26027381D01*
X194786310Y-25979762D01*
X194833929Y-25932143D01*
X194881548Y-25836905D01*
X194929167Y-25646429D01*
X194929167Y-25408333D01*
X194881548Y-25217857D01*
X194833929Y-25122619D01*
X194786310Y-25075000D01*
X194691072Y-25027381D01*
X193738691Y-25551190D02*
X193738691Y-26027381D01*
X194072024Y-25027381D02*
X193738691Y-25551190D01*
X193405357Y-25027381D01*
X192548214Y-26027381D02*
X193119643Y-26027381D01*
X192833929Y-26027381D02*
X192833929Y-25027381D01*
X192929167Y-25170238D01*
X193024405Y-25265476D01*
X193119643Y-25313095D01*
X192357738Y-26122619D02*
X191595833Y-26122619D01*
X191310119Y-26027381D02*
X191119643Y-26027381D01*
X191024404Y-25979762D01*
X190976785Y-25932143D01*
X190881547Y-25789286D01*
X190833928Y-25598810D01*
X190833928Y-25217857D01*
X190881547Y-25122619D01*
X190929166Y-25075000D01*
X191024404Y-25027381D01*
X191214881Y-25027381D01*
X191310119Y-25075000D01*
X191357738Y-25122619D01*
X191405357Y-25217857D01*
X191405357Y-25455952D01*
X191357738Y-25551190D01*
X191310119Y-25598810D01*
X191214881Y-25646429D01*
X191024404Y-25646429D01*
X190929166Y-25598810D01*
X190881547Y-25551190D01*
X190833928Y-25455952D01*
D10*
X192706595Y-23661667D02*
X192230404Y-23661667D01*
X192801833Y-23947381D02*
X192468500Y-22947381D01*
X192135166Y-23947381D01*
X198318405Y-23947381D02*
X198318405Y-22947381D01*
X197746976Y-23947381D02*
X198175548Y-23375952D01*
X197746976Y-22947381D02*
X198318405Y-23518810D01*
D11*
X180164881Y-25979762D02*
X180022024Y-26027381D01*
X179783928Y-26027381D01*
X179688690Y-25979762D01*
X179641071Y-25932143D01*
X179593452Y-25836905D01*
X179593452Y-25741667D01*
X179641071Y-25646429D01*
X179688690Y-25598810D01*
X179783928Y-25551190D01*
X179974405Y-25503571D01*
X180069643Y-25455952D01*
X180117262Y-25408333D01*
X180164881Y-25313095D01*
X180164881Y-25217857D01*
X180117262Y-25122619D01*
X180069643Y-25075000D01*
X179974405Y-25027381D01*
X179736309Y-25027381D01*
X179593452Y-25075000D01*
X179260119Y-25027381D02*
X179022024Y-26027381D01*
X178831547Y-25313095D01*
X178641071Y-26027381D01*
X178402976Y-25027381D01*
X178260119Y-26122619D02*
X177498214Y-26122619D01*
X177355357Y-25027381D02*
X176688690Y-26027381D01*
X176688690Y-25027381D02*
X177355357Y-26027381D01*
X176260119Y-26027381D02*
X176069643Y-26027381D01*
X175974404Y-25979762D01*
X175926785Y-25932143D01*
X175831547Y-25789286D01*
X175783928Y-25598810D01*
X175783928Y-25217857D01*
X175831547Y-25122619D01*
X175879166Y-25075000D01*
X175974404Y-25027381D01*
X176164881Y-25027381D01*
X176260119Y-25075000D01*
X176307738Y-25122619D01*
X176355357Y-25217857D01*
X176355357Y-25455952D01*
X176307738Y-25551190D01*
X176260119Y-25598810D01*
X176164881Y-25646429D01*
X175974404Y-25646429D01*
X175879166Y-25598810D01*
X175831547Y-25551190D01*
X175783928Y-25455952D01*
X175164881Y-25551190D02*
X175164881Y-26027381D01*
X175498214Y-25027381D02*
X175164881Y-25551190D01*
X174831547Y-25027381D01*
X173974404Y-26027381D02*
X174545833Y-26027381D01*
X174260119Y-26027381D02*
X174260119Y-25027381D01*
X174355357Y-25170238D01*
X174450595Y-25265476D01*
X174545833Y-25313095D01*
X173783928Y-26122619D02*
X173022023Y-26122619D01*
X172641071Y-25455952D02*
X172736309Y-25408333D01*
X172783928Y-25360714D01*
X172831547Y-25265476D01*
X172831547Y-25217857D01*
X172783928Y-25122619D01*
X172736309Y-25075000D01*
X172641071Y-25027381D01*
X172450594Y-25027381D01*
X172355356Y-25075000D01*
X172307737Y-25122619D01*
X172260118Y-25217857D01*
X172260118Y-25265476D01*
X172307737Y-25360714D01*
X172355356Y-25408333D01*
X172450594Y-25455952D01*
X172641071Y-25455952D01*
X172736309Y-25503571D01*
X172783928Y-25551190D01*
X172831547Y-25646429D01*
X172831547Y-25836905D01*
X172783928Y-25932143D01*
X172736309Y-25979762D01*
X172641071Y-26027381D01*
X172450594Y-26027381D01*
X172355356Y-25979762D01*
X172307737Y-25932143D01*
X172260118Y-25836905D01*
X172260118Y-25646429D01*
X172307737Y-25551190D01*
X172355356Y-25503571D01*
X172450594Y-25455952D01*
D10*
X173656595Y-23661667D02*
X173180404Y-23661667D01*
X173751833Y-23947381D02*
X173418500Y-22947381D01*
X173085166Y-23947381D01*
X179268405Y-23947381D02*
X179268405Y-22947381D01*
X178696976Y-23947381D02*
X179125548Y-23375952D01*
X178696976Y-22947381D02*
X179268405Y-23518810D01*
D11*
X161114881Y-25979762D02*
X160972024Y-26027381D01*
X160733928Y-26027381D01*
X160638690Y-25979762D01*
X160591071Y-25932143D01*
X160543452Y-25836905D01*
X160543452Y-25741667D01*
X160591071Y-25646429D01*
X160638690Y-25598810D01*
X160733928Y-25551190D01*
X160924405Y-25503571D01*
X161019643Y-25455952D01*
X161067262Y-25408333D01*
X161114881Y-25313095D01*
X161114881Y-25217857D01*
X161067262Y-25122619D01*
X161019643Y-25075000D01*
X160924405Y-25027381D01*
X160686309Y-25027381D01*
X160543452Y-25075000D01*
X160210119Y-25027381D02*
X159972024Y-26027381D01*
X159781547Y-25313095D01*
X159591071Y-26027381D01*
X159352976Y-25027381D01*
X159210119Y-26122619D02*
X158448214Y-26122619D01*
X158305357Y-25027381D02*
X157638690Y-26027381D01*
X157638690Y-25027381D02*
X158305357Y-26027381D01*
X157114881Y-25455952D02*
X157210119Y-25408333D01*
X157257738Y-25360714D01*
X157305357Y-25265476D01*
X157305357Y-25217857D01*
X157257738Y-25122619D01*
X157210119Y-25075000D01*
X157114881Y-25027381D01*
X156924404Y-25027381D01*
X156829166Y-25075000D01*
X156781547Y-25122619D01*
X156733928Y-25217857D01*
X156733928Y-25265476D01*
X156781547Y-25360714D01*
X156829166Y-25408333D01*
X156924404Y-25455952D01*
X157114881Y-25455952D01*
X157210119Y-25503571D01*
X157257738Y-25551190D01*
X157305357Y-25646429D01*
X157305357Y-25836905D01*
X157257738Y-25932143D01*
X157210119Y-25979762D01*
X157114881Y-26027381D01*
X156924404Y-26027381D01*
X156829166Y-25979762D01*
X156781547Y-25932143D01*
X156733928Y-25836905D01*
X156733928Y-25646429D01*
X156781547Y-25551190D01*
X156829166Y-25503571D01*
X156924404Y-25455952D01*
X156114881Y-25551190D02*
X156114881Y-26027381D01*
X156448214Y-25027381D02*
X156114881Y-25551190D01*
X155781547Y-25027381D01*
X154924404Y-26027381D02*
X155495833Y-26027381D01*
X155210119Y-26027381D02*
X155210119Y-25027381D01*
X155305357Y-25170238D01*
X155400595Y-25265476D01*
X155495833Y-25313095D01*
X154733928Y-26122619D02*
X153972023Y-26122619D01*
X153829166Y-25027381D02*
X153162499Y-25027381D01*
X153591071Y-26027381D01*
D10*
X154606595Y-23661667D02*
X154130404Y-23661667D01*
X154701833Y-23947381D02*
X154368500Y-22947381D01*
X154035166Y-23947381D01*
X160218405Y-23947381D02*
X160218405Y-22947381D01*
X159646976Y-23947381D02*
X160075548Y-23375952D01*
X159646976Y-22947381D02*
X160218405Y-23518810D01*
D11*
X142064881Y-25979762D02*
X141922024Y-26027381D01*
X141683928Y-26027381D01*
X141588690Y-25979762D01*
X141541071Y-25932143D01*
X141493452Y-25836905D01*
X141493452Y-25741667D01*
X141541071Y-25646429D01*
X141588690Y-25598810D01*
X141683928Y-25551190D01*
X141874405Y-25503571D01*
X141969643Y-25455952D01*
X142017262Y-25408333D01*
X142064881Y-25313095D01*
X142064881Y-25217857D01*
X142017262Y-25122619D01*
X141969643Y-25075000D01*
X141874405Y-25027381D01*
X141636309Y-25027381D01*
X141493452Y-25075000D01*
X141160119Y-25027381D02*
X140922024Y-26027381D01*
X140731547Y-25313095D01*
X140541071Y-26027381D01*
X140302976Y-25027381D01*
X140160119Y-26122619D02*
X139398214Y-26122619D01*
X139255357Y-25027381D02*
X138588690Y-26027381D01*
X138588690Y-25027381D02*
X139255357Y-26027381D01*
X138302976Y-25027381D02*
X137636309Y-25027381D01*
X138064881Y-26027381D01*
X137064881Y-25551190D02*
X137064881Y-26027381D01*
X137398214Y-25027381D02*
X137064881Y-25551190D01*
X136731547Y-25027381D01*
X135874404Y-26027381D02*
X136445833Y-26027381D01*
X136160119Y-26027381D02*
X136160119Y-25027381D01*
X136255357Y-25170238D01*
X136350595Y-25265476D01*
X136445833Y-25313095D01*
X135683928Y-26122619D02*
X134922023Y-26122619D01*
X134255356Y-25027381D02*
X134445833Y-25027381D01*
X134541071Y-25075000D01*
X134588690Y-25122619D01*
X134683928Y-25265476D01*
X134731547Y-25455952D01*
X134731547Y-25836905D01*
X134683928Y-25932143D01*
X134636309Y-25979762D01*
X134541071Y-26027381D01*
X134350594Y-26027381D01*
X134255356Y-25979762D01*
X134207737Y-25932143D01*
X134160118Y-25836905D01*
X134160118Y-25598810D01*
X134207737Y-25503571D01*
X134255356Y-25455952D01*
X134350594Y-25408333D01*
X134541071Y-25408333D01*
X134636309Y-25455952D01*
X134683928Y-25503571D01*
X134731547Y-25598810D01*
D10*
X135556595Y-23661667D02*
X135080404Y-23661667D01*
X135651833Y-23947381D02*
X135318500Y-22947381D01*
X134985166Y-23947381D01*
X141168405Y-23947381D02*
X141168405Y-22947381D01*
X140596976Y-23947381D02*
X141025548Y-23375952D01*
X140596976Y-22947381D02*
X141168405Y-23518810D01*
D11*
X123014881Y-25979762D02*
X122872024Y-26027381D01*
X122633928Y-26027381D01*
X122538690Y-25979762D01*
X122491071Y-25932143D01*
X122443452Y-25836905D01*
X122443452Y-25741667D01*
X122491071Y-25646429D01*
X122538690Y-25598810D01*
X122633928Y-25551190D01*
X122824405Y-25503571D01*
X122919643Y-25455952D01*
X122967262Y-25408333D01*
X123014881Y-25313095D01*
X123014881Y-25217857D01*
X122967262Y-25122619D01*
X122919643Y-25075000D01*
X122824405Y-25027381D01*
X122586309Y-25027381D01*
X122443452Y-25075000D01*
X122110119Y-25027381D02*
X121872024Y-26027381D01*
X121681547Y-25313095D01*
X121491071Y-26027381D01*
X121252976Y-25027381D01*
X121110119Y-26122619D02*
X120348214Y-26122619D01*
X120205357Y-25027381D02*
X119538690Y-26027381D01*
X119538690Y-25027381D02*
X120205357Y-26027381D01*
X118729166Y-25027381D02*
X118919643Y-25027381D01*
X119014881Y-25075000D01*
X119062500Y-25122619D01*
X119157738Y-25265476D01*
X119205357Y-25455952D01*
X119205357Y-25836905D01*
X119157738Y-25932143D01*
X119110119Y-25979762D01*
X119014881Y-26027381D01*
X118824404Y-26027381D01*
X118729166Y-25979762D01*
X118681547Y-25932143D01*
X118633928Y-25836905D01*
X118633928Y-25598810D01*
X118681547Y-25503571D01*
X118729166Y-25455952D01*
X118824404Y-25408333D01*
X119014881Y-25408333D01*
X119110119Y-25455952D01*
X119157738Y-25503571D01*
X119205357Y-25598810D01*
X118014881Y-25551190D02*
X118014881Y-26027381D01*
X118348214Y-25027381D02*
X118014881Y-25551190D01*
X117681547Y-25027381D01*
X116824404Y-26027381D02*
X117395833Y-26027381D01*
X117110119Y-26027381D02*
X117110119Y-25027381D01*
X117205357Y-25170238D01*
X117300595Y-25265476D01*
X117395833Y-25313095D01*
X116633928Y-26122619D02*
X115872023Y-26122619D01*
X115157737Y-25027381D02*
X115633928Y-25027381D01*
X115681547Y-25503571D01*
X115633928Y-25455952D01*
X115538690Y-25408333D01*
X115300594Y-25408333D01*
X115205356Y-25455952D01*
X115157737Y-25503571D01*
X115110118Y-25598810D01*
X115110118Y-25836905D01*
X115157737Y-25932143D01*
X115205356Y-25979762D01*
X115300594Y-26027381D01*
X115538690Y-26027381D01*
X115633928Y-25979762D01*
X115681547Y-25932143D01*
D10*
X116506595Y-23661667D02*
X116030404Y-23661667D01*
X116601833Y-23947381D02*
X116268500Y-22947381D01*
X115935166Y-23947381D01*
X122118405Y-23947381D02*
X122118405Y-22947381D01*
X121546976Y-23947381D02*
X121975548Y-23375952D01*
X121546976Y-22947381D02*
X122118405Y-23518810D01*
D11*
X103964881Y-25979762D02*
X103822024Y-26027381D01*
X103583928Y-26027381D01*
X103488690Y-25979762D01*
X103441071Y-25932143D01*
X103393452Y-25836905D01*
X103393452Y-25741667D01*
X103441071Y-25646429D01*
X103488690Y-25598810D01*
X103583928Y-25551190D01*
X103774405Y-25503571D01*
X103869643Y-25455952D01*
X103917262Y-25408333D01*
X103964881Y-25313095D01*
X103964881Y-25217857D01*
X103917262Y-25122619D01*
X103869643Y-25075000D01*
X103774405Y-25027381D01*
X103536309Y-25027381D01*
X103393452Y-25075000D01*
X103060119Y-25027381D02*
X102822024Y-26027381D01*
X102631547Y-25313095D01*
X102441071Y-26027381D01*
X102202976Y-25027381D01*
X102060119Y-26122619D02*
X101298214Y-26122619D01*
X101155357Y-25027381D02*
X100488690Y-26027381D01*
X100488690Y-25027381D02*
X101155357Y-26027381D01*
X99631547Y-25027381D02*
X100107738Y-25027381D01*
X100155357Y-25503571D01*
X100107738Y-25455952D01*
X100012500Y-25408333D01*
X99774404Y-25408333D01*
X99679166Y-25455952D01*
X99631547Y-25503571D01*
X99583928Y-25598810D01*
X99583928Y-25836905D01*
X99631547Y-25932143D01*
X99679166Y-25979762D01*
X99774404Y-26027381D01*
X100012500Y-26027381D01*
X100107738Y-25979762D01*
X100155357Y-25932143D01*
X98964881Y-25551190D02*
X98964881Y-26027381D01*
X99298214Y-25027381D02*
X98964881Y-25551190D01*
X98631547Y-25027381D01*
X97774404Y-26027381D02*
X98345833Y-26027381D01*
X98060119Y-26027381D02*
X98060119Y-25027381D01*
X98155357Y-25170238D01*
X98250595Y-25265476D01*
X98345833Y-25313095D01*
X97583928Y-26122619D02*
X96822023Y-26122619D01*
X96155356Y-25360714D02*
X96155356Y-26027381D01*
X96393452Y-24979762D02*
X96631547Y-25694048D01*
X96012499Y-25694048D01*
D10*
X97456595Y-23661667D02*
X96980404Y-23661667D01*
X97551833Y-23947381D02*
X97218500Y-22947381D01*
X96885166Y-23947381D01*
X103068405Y-23947381D02*
X103068405Y-22947381D01*
X102496976Y-23947381D02*
X102925548Y-23375952D01*
X102496976Y-22947381D02*
X103068405Y-23518810D01*
D11*
X84914881Y-25979762D02*
X84772024Y-26027381D01*
X84533928Y-26027381D01*
X84438690Y-25979762D01*
X84391071Y-25932143D01*
X84343452Y-25836905D01*
X84343452Y-25741667D01*
X84391071Y-25646429D01*
X84438690Y-25598810D01*
X84533928Y-25551190D01*
X84724405Y-25503571D01*
X84819643Y-25455952D01*
X84867262Y-25408333D01*
X84914881Y-25313095D01*
X84914881Y-25217857D01*
X84867262Y-25122619D01*
X84819643Y-25075000D01*
X84724405Y-25027381D01*
X84486309Y-25027381D01*
X84343452Y-25075000D01*
X84010119Y-25027381D02*
X83772024Y-26027381D01*
X83581547Y-25313095D01*
X83391071Y-26027381D01*
X83152976Y-25027381D01*
X83010119Y-26122619D02*
X82248214Y-26122619D01*
X82105357Y-25027381D02*
X81438690Y-26027381D01*
X81438690Y-25027381D02*
X82105357Y-26027381D01*
X80629166Y-25360714D02*
X80629166Y-26027381D01*
X80867262Y-24979762D02*
X81105357Y-25694048D01*
X80486309Y-25694048D01*
X79914881Y-25551190D02*
X79914881Y-26027381D01*
X80248214Y-25027381D02*
X79914881Y-25551190D01*
X79581547Y-25027381D01*
X78724404Y-26027381D02*
X79295833Y-26027381D01*
X79010119Y-26027381D02*
X79010119Y-25027381D01*
X79105357Y-25170238D01*
X79200595Y-25265476D01*
X79295833Y-25313095D01*
X78533928Y-26122619D02*
X77772023Y-26122619D01*
X77629166Y-25027381D02*
X77010118Y-25027381D01*
X77343452Y-25408333D01*
X77200594Y-25408333D01*
X77105356Y-25455952D01*
X77057737Y-25503571D01*
X77010118Y-25598810D01*
X77010118Y-25836905D01*
X77057737Y-25932143D01*
X77105356Y-25979762D01*
X77200594Y-26027381D01*
X77486309Y-26027381D01*
X77581547Y-25979762D01*
X77629166Y-25932143D01*
D10*
X78406595Y-23661667D02*
X77930404Y-23661667D01*
X78501833Y-23947381D02*
X78168500Y-22947381D01*
X77835166Y-23947381D01*
X84018405Y-23947381D02*
X84018405Y-22947381D01*
X83446976Y-23947381D02*
X83875548Y-23375952D01*
X83446976Y-22947381D02*
X84018405Y-23518810D01*
D11*
X60150000Y-25979762D02*
X60007143Y-26027381D01*
X59769047Y-26027381D01*
X59673809Y-25979762D01*
X59626190Y-25932143D01*
X59578571Y-25836905D01*
X59578571Y-25741667D01*
X59626190Y-25646429D01*
X59673809Y-25598810D01*
X59769047Y-25551190D01*
X59959524Y-25503571D01*
X60054762Y-25455952D01*
X60102381Y-25408333D01*
X60150000Y-25313095D01*
X60150000Y-25217857D01*
X60102381Y-25122619D01*
X60054762Y-25075000D01*
X59959524Y-25027381D01*
X59721428Y-25027381D01*
X59578571Y-25075000D01*
X59245238Y-25027381D02*
X59007143Y-26027381D01*
X58816666Y-25313095D01*
X58626190Y-26027381D01*
X58388095Y-25027381D01*
X58245238Y-26122619D02*
X57483333Y-26122619D01*
X56911904Y-25503571D02*
X57245238Y-25503571D01*
X57245238Y-26027381D02*
X57245238Y-25027381D01*
X56769047Y-25027381D01*
X56435714Y-25122619D02*
X56388095Y-25075000D01*
X56292857Y-25027381D01*
X56054761Y-25027381D01*
X55959523Y-25075000D01*
X55911904Y-25122619D01*
X55864285Y-25217857D01*
X55864285Y-25313095D01*
X55911904Y-25455952D01*
X56483333Y-26027381D01*
X55864285Y-26027381D01*
X55673809Y-26122619D02*
X54911904Y-26122619D01*
X54721428Y-25122619D02*
X54673809Y-25075000D01*
X54578571Y-25027381D01*
X54340475Y-25027381D01*
X54245237Y-25075000D01*
X54197618Y-25122619D01*
X54149999Y-25217857D01*
X54149999Y-25313095D01*
X54197618Y-25455952D01*
X54769047Y-26027381D01*
X54149999Y-26027381D01*
D10*
X54594095Y-23661667D02*
X54117904Y-23661667D01*
X54689333Y-23947381D02*
X54356000Y-22947381D01*
X54022666Y-23947381D01*
X60205905Y-23947381D02*
X60205905Y-22947381D01*
X59634476Y-23947381D02*
X60063048Y-23375952D01*
X59634476Y-22947381D02*
X60205905Y-23518810D01*
D11*
X41100000Y-25979762D02*
X40957143Y-26027381D01*
X40719047Y-26027381D01*
X40623809Y-25979762D01*
X40576190Y-25932143D01*
X40528571Y-25836905D01*
X40528571Y-25741667D01*
X40576190Y-25646429D01*
X40623809Y-25598810D01*
X40719047Y-25551190D01*
X40909524Y-25503571D01*
X41004762Y-25455952D01*
X41052381Y-25408333D01*
X41100000Y-25313095D01*
X41100000Y-25217857D01*
X41052381Y-25122619D01*
X41004762Y-25075000D01*
X40909524Y-25027381D01*
X40671428Y-25027381D01*
X40528571Y-25075000D01*
X40195238Y-25027381D02*
X39957143Y-26027381D01*
X39766666Y-25313095D01*
X39576190Y-26027381D01*
X39338095Y-25027381D01*
X39195238Y-26122619D02*
X38433333Y-26122619D01*
X37861904Y-25503571D02*
X38195238Y-25503571D01*
X38195238Y-26027381D02*
X38195238Y-25027381D01*
X37719047Y-25027381D01*
X36814285Y-26027381D02*
X37385714Y-26027381D01*
X37100000Y-26027381D02*
X37100000Y-25027381D01*
X37195238Y-25170238D01*
X37290476Y-25265476D01*
X37385714Y-25313095D01*
X36623809Y-26122619D02*
X35861904Y-26122619D01*
X35099999Y-26027381D02*
X35671428Y-26027381D01*
X35385714Y-26027381D02*
X35385714Y-25027381D01*
X35480952Y-25170238D01*
X35576190Y-25265476D01*
X35671428Y-25313095D01*
D10*
X35544095Y-23661667D02*
X35067904Y-23661667D01*
X35639333Y-23947381D02*
X35306000Y-22947381D01*
X34972666Y-23947381D01*
X41155905Y-23947381D02*
X41155905Y-22947381D01*
X40584476Y-23947381D02*
X41013048Y-23375952D01*
X40584476Y-22947381D02*
X41155905Y-23518810D01*
X303061666Y-75382381D02*
X303395000Y-74906190D01*
X303633095Y-75382381D02*
X303633095Y-74382381D01*
X303252142Y-74382381D01*
X303156904Y-74430000D01*
X303109285Y-74477619D01*
X303061666Y-74572857D01*
X303061666Y-74715714D01*
X303109285Y-74810952D01*
X303156904Y-74858571D01*
X303252142Y-74906190D01*
X303633095Y-74906190D01*
X302109285Y-75382381D02*
X302680714Y-75382381D01*
X302395000Y-75382381D02*
X302395000Y-74382381D01*
X302490238Y-74525238D01*
X302585476Y-74620476D01*
X302680714Y-74668095D01*
X310181905Y-75742381D02*
X310181905Y-76551905D01*
X310134286Y-76647143D01*
X310086667Y-76694762D01*
X309991429Y-76742381D01*
X309800952Y-76742381D01*
X309705714Y-76694762D01*
X309658095Y-76647143D01*
X309610476Y-76551905D01*
X309610476Y-75742381D01*
X309181905Y-75837619D02*
X309134286Y-75790000D01*
X309039048Y-75742381D01*
X308800952Y-75742381D01*
X308705714Y-75790000D01*
X308658095Y-75837619D01*
X308610476Y-75932857D01*
X308610476Y-76028095D01*
X308658095Y-76170952D01*
X309229524Y-76742381D01*
X308610476Y-76742381D01*
X304907643Y-90511334D02*
X304955262Y-90463715D01*
X305002881Y-90320858D01*
X305002881Y-90225620D01*
X304955262Y-90082762D01*
X304860024Y-89987524D01*
X304764786Y-89939905D01*
X304574310Y-89892286D01*
X304431452Y-89892286D01*
X304240976Y-89939905D01*
X304145738Y-89987524D01*
X304050500Y-90082762D01*
X304002881Y-90225620D01*
X304002881Y-90320858D01*
X304050500Y-90463715D01*
X304098119Y-90511334D01*
X305002881Y-91463715D02*
X305002881Y-90892286D01*
X305002881Y-91178000D02*
X304002881Y-91178000D01*
X304145738Y-91082762D01*
X304240976Y-90987524D01*
X304288595Y-90892286D01*
M02*
