M48
;DRILL file {KiCad 4.0.2-stable} date Sunday, June 05, 2016 'PMt' 07:18:34 PM
;FORMAT={-:-/ absolute / metric / decimal}
FMAT,2
METRIC,TZ
T1C0.300
T2C0.305
T3C0.701
T4C0.800
T5C1.000
T6C1.500
T7C5.300
T8C0.610
T9C1.702
T10C3.988
%
G90
G05
M71
T1
X48.26Y-28.575
X48.26Y-47.625
X48.26Y-66.675
X48.26Y-85.725
X48.26Y-104.775
X73.66Y-28.575
X74.93Y-66.675
X74.93Y-77.216
X74.93Y-85.725
X74.93Y-104.775
X76.835Y-47.625
X100.33Y-47.625
X105.41Y-66.04
X107.95Y-28.575
X114.935Y-85.725
X118.618Y-64.77
X121.92Y-104.775
X127.Y-28.575
X128.016Y-75.438
X133.985Y-85.725
X139.065Y-47.625
X143.51Y-66.675
X144.018Y-75.184
X145.485Y-104.14
X146.05Y-28.575
X153.035Y-85.725
X157.734Y-47.625
X159.512Y-75.438
X162.56Y-66.675
X165.735Y-28.575
X172.085Y-85.725
X181.61Y-66.675
X184.785Y-28.575
X184.855Y-104.775
X191.135Y-85.725
X200.66Y-66.675
X203.835Y-28.575
X210.185Y-85.725
X212.25Y-106.75
X212.75Y-47.5
X217.5Y-50.25
X218.5Y-96.5
X219.71Y-66.675
X222.885Y-28.575
X226.Y-95.
X229.235Y-85.725
X238.Y-109.5
X238.Y-109.5
X238.76Y-66.675
X246.75Y-97.25
X248.285Y-85.09
X252.25Y-97.25
X252.73Y-47.625
X257.81Y-66.675
X260.35Y-28.575
X266.75Y-36.75
X267.335Y-85.725
X271.78Y-47.75
X276.86Y-66.675
X279.4Y-28.575
X283.5Y-107.25
X286.385Y-85.725
X290.83Y-47.75
X291.25Y-36.75
X292.Y-96.25
X295.275Y-66.675
X298.25Y-28.75
X303.Y-84.75
X307.75Y-109.5
X309.88Y-47.625
X318.25Y-76.75
X318.5Y-28.75
X326.Y-89.25
X331.Y-47.5
X334.01Y-47.625
X336.Y-109.5
X351.Y-36.
X358.775Y-47.625
X361.95Y-28.575
X362.585Y-47.625
X369.25Y-59.
X369.25Y-63.
X369.25Y-74.25
X376.Y-74.25
X377.75Y-59.
X379.5Y-47.5
X384.5Y-84.5
X390.525Y-85.725
X394.5Y-25.25
X394.5Y-59.
X394.5Y-75.5
X394.97Y-93.
T2
X49.784Y-75.75
X50.8Y-83.312
X80.824Y-109.565
X92.75Y-74.716
X116.84Y-83.566
X128.778Y-79.502
X130.556Y-80.772
X141.224Y-76.835
X152.654Y-77.47
X160.274Y-42.672
X161.552Y-75.692
X165.354Y-102.489
X166.878Y-79.756
X168.656Y-98.298
X179.768Y-38.291
X181.102Y-94.488
X184.404Y-101.473
X187.198Y-82.039
X192.786Y-93.396
X205.434Y-38.875
X205.451Y-100.774
X209.804Y-54.102
X213.614Y-80.01
X223.075Y-94.094
X227.867Y-105.25
X245.Y-105.5
X246.253Y-92.456
X247.777Y-76.454
X278.43Y-77.968
X282.829Y-82.206
X283.718Y-74.93
X294.132Y-74.922
X296.418Y-92.329
X303.784Y-96.012
X303.784Y-100.33
X305.816Y-84.582
X306.07Y-89.428
X306.324Y-74.422
X309.118Y-87.122
X310.134Y-80.01
X311.88Y-77.431
X312.5Y-91.25
X314.897Y-62.923
X315.735Y-81.284
X315.735Y-85.852
X316.992Y-76.962
X317.12Y-95.25
X318.516Y-83.312
X318.77Y-87.122
X318.77Y-88.392
X319.278Y-80.772
X319.532Y-77.216
X319.532Y-78.74
X320.294Y-58.928
X321.056Y-61.214
X322.072Y-83.312
X324.739Y-92.329
X324.866Y-82.804
X325.12Y-94.297
X334.518Y-75.679
X342.678Y-59.881
X343.408Y-87.63
X346.964Y-107.95
X347.345Y-64.77
X347.345Y-66.675
X349.Y-59.
X350.456Y-61.227
X351.155Y-42.545
X352.25Y-95.898
X353.314Y-64.071
X354.076Y-57.29
X355.1Y-39.433
X355.854Y-37.846
X356.616Y-70.688
X357.632Y-37.274
X360.426Y-79.502
X360.426Y-96.774
X361.188Y-35.877
X362.698Y-54.878
X363.982Y-57.15
X363.982Y-66.802
X363.982Y-107.696
X364.998Y-69.342
X364.998Y-77.47
X364.998Y-87.376
X365.633Y-98.996
X367.909Y-83.86
X370.078Y-95.504
X371.348Y-37.973
X393.7Y-40.132
X396.748Y-38.862
T3
X35.559Y-36.579
X35.559Y-39.627
X35.559Y-74.933
X35.559Y-77.473
X35.559Y-96.523
X45.719Y-36.579
X45.719Y-39.627
X45.719Y-74.933
X45.719Y-77.473
X45.719Y-96.523
X48.263Y-23.115
X48.263Y-33.275
X48.263Y-42.165
X48.263Y-52.325
X48.263Y-61.215
X48.263Y-71.375
X48.263Y-80.265
X48.263Y-90.425
X48.263Y-99.315
X48.263Y-109.475
X76.707Y-36.833
X76.711Y-42.165
X76.711Y-52.325
X78.997Y-61.215
X78.997Y-71.375
X79.247Y-96.523
X83.823Y-80.265
X83.823Y-90.425
X86.867Y-36.833
X89.407Y-96.523
X95.885Y-36.83
X100.587Y-42.165
X100.587Y-52.325
X103.505Y-96.52
X105.159Y-60.961
X105.159Y-71.121
X106.045Y-36.83
X109.982Y-22.86
X109.982Y-33.02
X113.665Y-96.52
X114.811Y-80.265
X114.811Y-90.425
X119.637Y-42.165
X119.637Y-52.325
X122.177Y-99.315
X122.177Y-109.475
X124.463Y-60.961
X124.463Y-71.121
X129.032Y-22.86
X129.032Y-33.02
X133.861Y-80.265
X133.861Y-90.425
X138.687Y-42.165
X138.687Y-52.325
X143.513Y-60.961
X143.513Y-71.121
X148.082Y-22.86
X148.082Y-33.02
X152.911Y-80.265
X152.911Y-90.425
X157.737Y-42.165
X157.737Y-52.325
X162.563Y-60.961
X162.563Y-71.121
X167.132Y-22.86
X167.132Y-33.02
X171.961Y-80.265
X171.961Y-90.425
X176.787Y-42.165
X176.787Y-52.325
X181.613Y-60.961
X181.613Y-71.121
X186.182Y-22.86
X186.182Y-33.02
X191.011Y-80.265
X191.011Y-90.425
X193.551Y-99.315
X193.551Y-109.475
X195.837Y-42.165
X195.837Y-52.325
X200.663Y-60.961
X200.663Y-71.121
X205.232Y-22.86
X205.232Y-33.02
X210.061Y-80.265
X210.061Y-90.425
X214.887Y-42.165
X214.887Y-52.325
X219.713Y-60.707
X219.713Y-70.867
X224.282Y-22.86
X224.282Y-33.02
X229.111Y-80.265
X229.111Y-90.425
X233.937Y-42.165
X233.937Y-52.325
X238.763Y-60.707
X238.763Y-70.867
X248.161Y-80.265
X248.161Y-90.425
X248.285Y-36.83
X252.987Y-42.165
X252.987Y-52.325
X257.813Y-60.707
X257.813Y-70.867
X258.445Y-36.83
X262.382Y-22.86
X262.382Y-33.02
X264.925Y-99.315
X264.925Y-109.475
X267.211Y-80.265
X267.211Y-90.425
X272.037Y-42.165
X272.037Y-52.325
X276.863Y-60.707
X276.863Y-70.867
X281.432Y-22.86
X281.432Y-33.02
X286.261Y-80.265
X286.261Y-90.425
X288.547Y-99.315
X288.547Y-109.475
X291.087Y-42.165
X291.087Y-52.325
X295.913Y-60.707
X295.913Y-70.867
X300.482Y-22.86
X300.482Y-33.02
X310.137Y-42.165
X310.137Y-52.325
X312.423Y-99.315
X312.423Y-109.475
X322.075Y-80.265
X322.075Y-90.425
X326.901Y-60.707
X326.901Y-70.867
X328.93Y-22.86
X328.93Y-33.02
X334.013Y-42.165
X334.013Y-52.325
X343.411Y-99.315
X343.411Y-109.475
X362.461Y-23.115
X362.461Y-33.275
X362.461Y-42.165
X362.461Y-52.325
X362.461Y-99.315
X362.461Y-109.475
X380.495Y-80.265
X380.495Y-90.425
X381.511Y-42.165
X381.511Y-52.325
X385.445Y-36.83
X385.445Y-96.52
X395.605Y-36.83
X395.605Y-96.52
T4
X345.186Y-59.182
X345.186Y-61.722
X345.186Y-64.262
X345.186Y-66.802
X345.186Y-69.342
X345.186Y-71.882
X345.186Y-74.422
X345.186Y-76.962
X345.186Y-79.502
X345.186Y-82.042
X345.186Y-84.582
X345.186Y-87.122
X345.186Y-89.662
X345.186Y-92.202
X360.426Y-59.182
X360.426Y-61.722
X360.426Y-64.262
X360.426Y-66.802
X360.426Y-69.342
X360.426Y-71.882
X360.426Y-74.422
X360.426Y-76.962
X360.426Y-79.502
X360.426Y-82.042
X360.426Y-84.582
X360.426Y-87.122
X360.426Y-89.662
X360.426Y-92.202
T5
X36.83Y-23.495
X36.83Y-42.545
X36.83Y-61.595
X36.83Y-80.645
X36.83Y-99.695
X39.37Y-23.495
X39.37Y-42.545
X39.37Y-61.595
X39.37Y-80.645
X39.37Y-99.695
X55.88Y-23.495
X55.88Y-42.545
X55.88Y-61.595
X55.88Y-80.645
X55.88Y-99.695
X58.42Y-23.495
X58.42Y-42.545
X58.42Y-61.595
X58.42Y-80.645
X58.42Y-99.695
X79.692Y-23.495
X82.074Y-99.695
X82.233Y-23.495
X84.455Y-42.545
X84.614Y-99.695
X86.836Y-61.595
X86.995Y-42.545
X89.376Y-61.595
X91.599Y-80.645
X94.139Y-80.645
X98.742Y-23.495
X101.282Y-23.495
X105.886Y-99.695
X108.267Y-42.545
X108.426Y-99.695
X110.807Y-42.545
X113.03Y-61.595
X115.57Y-61.595
X117.792Y-23.495
X120.332Y-23.495
X122.555Y-80.645
X125.095Y-80.645
X127.317Y-42.545
X129.699Y-99.695
X129.857Y-42.545
X132.08Y-61.595
X132.239Y-99.695
X134.62Y-61.595
X136.843Y-23.495
X139.382Y-23.495
X141.605Y-80.645
X144.145Y-80.645
X146.368Y-42.545
X148.907Y-42.545
X151.13Y-61.595
X153.67Y-61.595
X155.892Y-23.495
X158.433Y-23.495
X160.655Y-80.645
X163.195Y-80.645
X165.417Y-42.545
X167.957Y-42.545
X170.18Y-61.595
X172.72Y-61.595
X174.942Y-23.495
X177.482Y-23.495
X179.705Y-80.645
X182.245Y-80.645
X184.468Y-42.545
X187.007Y-42.545
X189.23Y-61.595
X191.77Y-61.595
X193.992Y-23.495
X196.532Y-23.495
X198.755Y-80.645
X201.136Y-99.695
X201.295Y-80.645
X203.517Y-42.545
X203.676Y-99.695
X206.058Y-42.545
X208.28Y-61.595
X210.82Y-61.595
X213.042Y-23.495
X215.582Y-23.495
X217.805Y-80.645
X220.345Y-80.645
X222.567Y-42.545
X225.107Y-42.545
X227.33Y-61.595
X229.87Y-61.595
X232.093Y-23.495
X234.632Y-23.495
X236.855Y-80.645
X239.395Y-80.645
X241.617Y-42.545
X244.157Y-42.545
X246.38Y-61.595
X248.92Y-61.595
X251.142Y-23.495
X253.682Y-23.495
X255.905Y-80.645
X258.445Y-80.645
X260.667Y-42.545
X263.207Y-42.545
X265.43Y-61.595
X267.97Y-61.595
X270.192Y-23.495
X272.574Y-99.695
X272.733Y-23.495
X274.955Y-80.645
X275.114Y-99.695
X277.495Y-80.645
X279.717Y-42.545
X282.257Y-42.545
X284.48Y-61.595
X287.02Y-61.595
X289.243Y-23.495
X291.782Y-23.495
X294.005Y-80.645
X296.386Y-99.695
X296.545Y-80.645
X298.767Y-42.545
X298.926Y-99.695
X301.308Y-42.545
X303.53Y-61.595
X306.07Y-61.595
X308.292Y-23.495
X310.832Y-23.495
X317.817Y-42.545
X320.199Y-99.695
X320.357Y-42.545
X322.739Y-99.695
X329.724Y-80.645
X332.264Y-80.645
X334.486Y-61.595
X336.868Y-23.495
X337.026Y-61.595
X339.407Y-23.495
X341.63Y-42.545
X344.17Y-42.545
X351.155Y-99.695
X353.695Y-99.695
X370.205Y-23.495
X370.205Y-42.545
X370.205Y-80.645
X370.205Y-99.695
X372.745Y-23.495
X372.745Y-42.545
X372.745Y-80.645
X372.745Y-99.695
X389.255Y-23.495
X389.255Y-42.545
X389.255Y-99.695
X391.795Y-23.495
X391.795Y-42.545
X391.795Y-99.695
T7
X90.424Y-30.162
X95.25Y-102.394
X101.143Y-65.087
X237.998Y-98.425
X242.824Y-30.162
X381.Y-30.162
X381.Y-103.188
T8
X388.525Y-87.725
X392.525Y-83.725
T9
X33.02Y-28.575
X33.02Y-47.625
X33.02Y-66.675
X33.02Y-85.725
X33.02Y-104.775
X43.18Y-28.575
X43.18Y-47.625
X43.18Y-66.675
X43.18Y-85.725
X43.18Y-104.775
X52.07Y-28.575
X52.07Y-47.625
X52.07Y-66.675
X52.07Y-85.725
X52.07Y-104.775
X62.23Y-28.575
X62.23Y-47.625
X62.23Y-66.675
X62.23Y-85.725
X62.23Y-104.775
X75.882Y-28.575
X78.264Y-104.775
X80.645Y-47.625
X83.026Y-66.675
X86.042Y-28.575
X87.789Y-85.725
X88.424Y-104.775
X90.805Y-47.625
X93.186Y-66.675
X94.932Y-28.575
X97.949Y-85.725
X102.076Y-104.775
X104.457Y-47.625
X105.093Y-28.575
X109.22Y-66.675
X112.236Y-104.775
X113.983Y-28.575
X114.617Y-47.625
X118.745Y-85.725
X119.38Y-66.675
X123.507Y-47.625
X124.142Y-28.575
X125.889Y-104.775
X128.27Y-66.675
X128.905Y-85.725
X133.032Y-28.575
X133.667Y-47.625
X136.049Y-104.775
X137.795Y-85.725
X138.43Y-66.675
X142.558Y-47.625
X143.192Y-28.575
X147.32Y-66.675
X147.955Y-85.725
X152.082Y-28.575
X152.718Y-47.625
X156.845Y-85.725
X157.48Y-66.675
X161.607Y-47.625
X162.243Y-28.575
X166.37Y-66.675
X167.005Y-85.725
X171.132Y-28.575
X171.767Y-47.625
X175.895Y-85.725
X176.53Y-66.675
X180.657Y-47.625
X181.292Y-28.575
X185.42Y-66.675
X186.055Y-85.725
X190.183Y-28.575
X190.817Y-47.625
X194.945Y-85.725
X195.58Y-66.675
X197.326Y-104.775
X199.707Y-47.625
X200.343Y-28.575
X204.47Y-66.675
X205.105Y-85.725
X207.486Y-104.775
X209.232Y-28.575
X209.867Y-47.625
X213.995Y-85.725
X214.63Y-66.675
X218.757Y-47.625
X219.392Y-28.575
X223.52Y-66.675
X224.155Y-85.725
X228.282Y-28.575
X228.917Y-47.625
X233.045Y-85.725
X233.68Y-66.675
X237.807Y-47.625
X238.442Y-28.575
X242.57Y-66.675
X243.205Y-85.725
X247.332Y-28.575
X247.968Y-47.625
X252.095Y-85.725
X252.73Y-66.675
X256.858Y-47.625
X257.493Y-28.575
X261.62Y-66.675
X262.255Y-85.725
X266.382Y-28.575
X267.017Y-47.625
X268.764Y-104.775
X271.145Y-85.725
X271.78Y-66.675
X275.907Y-47.625
X276.542Y-28.575
X278.924Y-104.775
X280.67Y-66.675
X281.305Y-85.725
X285.433Y-28.575
X286.067Y-47.625
X290.195Y-85.725
X290.83Y-66.675
X292.576Y-104.775
X294.957Y-47.625
X295.592Y-28.575
X299.72Y-66.675
X300.355Y-85.725
X302.736Y-104.775
X304.482Y-28.575
X305.118Y-47.625
X309.88Y-66.675
X314.007Y-47.625
X314.642Y-28.575
X316.389Y-104.775
X324.167Y-47.625
X325.914Y-85.725
X326.549Y-104.775
X330.676Y-66.675
X333.058Y-28.575
X336.074Y-85.725
X337.82Y-47.625
X340.836Y-66.675
X343.217Y-28.575
X347.345Y-104.775
X347.98Y-47.625
X357.505Y-104.775
X366.395Y-28.575
X366.395Y-47.625
X366.395Y-85.725
X366.395Y-104.775
X376.555Y-28.575
X376.555Y-47.625
X376.555Y-85.725
X376.555Y-104.775
X385.445Y-28.575
X385.445Y-47.625
X385.445Y-104.775
X395.605Y-28.575
X395.605Y-47.625
X395.605Y-104.775
T10
X38.1Y-28.575
X38.1Y-47.625
X38.1Y-66.675
X38.1Y-85.725
X38.1Y-104.775
X57.15Y-28.575
X57.15Y-47.625
X57.15Y-66.675
X57.15Y-85.725
X57.15Y-104.775
X80.962Y-28.575
X83.344Y-104.775
X85.725Y-47.625
X88.106Y-66.675
X92.869Y-85.725
X100.012Y-28.575
X107.156Y-104.775
X109.537Y-47.625
X114.3Y-66.675
X119.062Y-28.575
X123.825Y-85.725
X128.588Y-47.625
X130.969Y-104.775
X133.35Y-66.675
X138.112Y-28.575
X142.875Y-85.725
X147.637Y-47.625
X152.4Y-66.675
X157.162Y-28.575
X161.925Y-85.725
X166.688Y-47.625
X171.45Y-66.675
X176.213Y-28.575
X180.975Y-85.725
X185.737Y-47.625
X190.5Y-66.675
X195.262Y-28.575
X200.025Y-85.725
X202.406Y-104.775
X204.787Y-47.625
X209.55Y-66.675
X214.312Y-28.575
X219.075Y-85.725
X223.837Y-47.625
X228.6Y-66.675
X233.362Y-28.575
X238.125Y-85.725
X242.887Y-47.625
X247.65Y-66.675
X252.412Y-28.575
X257.175Y-85.725
X261.938Y-47.625
X266.7Y-66.675
X271.462Y-28.575
X273.844Y-104.775
X276.225Y-85.725
X280.988Y-47.625
X285.75Y-66.675
X290.512Y-28.575
X295.275Y-85.725
X297.656Y-104.775
X300.037Y-47.625
X304.8Y-66.675
X309.562Y-28.575
X319.087Y-47.625
X321.469Y-104.775
X330.994Y-85.725
X335.756Y-66.675
X338.137Y-28.575
X342.9Y-47.625
X352.425Y-104.775
X371.475Y-28.575
X371.475Y-47.625
X371.475Y-85.725
X371.475Y-104.775
X390.525Y-28.575
X390.525Y-47.625
X390.525Y-104.775
T6
X35.56Y-33.654G85X35.6Y-33.076
G05
X35.56Y-52.704G85X35.6Y-52.126
G05
X35.56Y-71.754G85X35.6Y-71.176
G05
X35.56Y-90.804G85X35.6Y-90.226
G05
X35.56Y-109.854G85X35.6Y-109.276
G05
X41.1Y-32.575G85X41.91Y-31.115
G05
X41.1Y-51.625G85X41.91Y-50.165
G05
X41.1Y-70.675G85X41.91Y-69.215
G05
X41.1Y-89.725G85X41.91Y-88.265
G05
X41.1Y-108.775G85X41.91Y-107.315
G05
X54.61Y-33.654G85X54.65Y-33.076
G05
X54.61Y-52.704G85X54.65Y-52.126
G05
X54.61Y-71.754G85X54.65Y-71.176
G05
X54.61Y-90.804G85X54.65Y-90.226
G05
X54.61Y-109.854G85X54.65Y-109.276
G05
X60.15Y-32.575G85X60.96Y-31.115
G05
X60.15Y-51.625G85X60.96Y-50.165
G05
X60.15Y-70.675G85X60.96Y-69.215
G05
X60.15Y-89.725G85X60.96Y-88.265
G05
X60.15Y-108.775G85X60.96Y-107.315
G05
X78.423Y-33.654G85X78.462Y-33.076
G05
X80.804Y-109.854G85X80.843Y-109.276
G05
X83.185Y-52.704G85X83.225Y-52.126
G05
X83.962Y-32.575G85X84.773Y-31.115
G05
X85.567Y-71.754G85X85.606Y-71.176
G05
X86.343Y-108.775G85X87.154Y-107.315
G05
X88.725Y-51.625G85X89.535Y-50.165
G05
X90.329Y-90.804G85X90.368Y-90.226
G05
X91.106Y-70.675G85X91.917Y-69.215
G05
X95.868Y-89.725G85X96.679Y-88.265
G05
X97.473Y-33.654G85X97.512Y-33.076
G05
X103.012Y-32.575G85X103.823Y-31.115
G05
X104.617Y-109.854G85X104.656Y-109.276
G05
X106.998Y-52.704G85X107.037Y-52.126
G05
X110.156Y-108.775G85X110.967Y-107.315
G05
X111.76Y-71.754G85X111.8Y-71.176
G05
X112.537Y-51.625G85X113.348Y-50.165
G05
X116.523Y-33.654G85X116.562Y-33.076
G05
X117.3Y-70.675G85X118.11Y-69.215
G05
X121.285Y-90.804G85X121.325Y-90.226
G05
X122.062Y-32.575G85X122.873Y-31.115
G05
X126.048Y-52.704G85X126.087Y-52.126
G05
X126.825Y-89.725G85X127.635Y-88.265
G05
X128.429Y-109.854G85X128.468Y-109.276
G05
X130.81Y-71.754G85X130.85Y-71.176
G05
X131.587Y-51.625G85X132.398Y-50.165
G05
X133.968Y-108.775G85X134.779Y-107.315
G05
X135.573Y-33.654G85X135.612Y-33.076
G05
X136.35Y-70.675G85X137.16Y-69.215
G05
X140.335Y-90.804G85X140.375Y-90.226
G05
X141.112Y-32.575G85X141.923Y-31.115
G05
X145.098Y-52.704G85X145.137Y-52.126
G05
X145.875Y-89.725G85X146.685Y-88.265
G05
X149.86Y-71.754G85X149.9Y-71.176
G05
X150.637Y-51.625G85X151.448Y-50.165
G05
X154.623Y-33.654G85X154.662Y-33.076
G05
X155.4Y-70.675G85X156.21Y-69.215
G05
X159.385Y-90.804G85X159.425Y-90.226
G05
X160.162Y-32.575G85X160.973Y-31.115
G05
X164.148Y-52.704G85X164.187Y-52.126
G05
X164.925Y-89.725G85X165.735Y-88.265
G05
X168.91Y-71.754G85X168.95Y-71.176
G05
X169.687Y-51.625G85X170.498Y-50.165
G05
X173.673Y-33.654G85X173.712Y-33.076
G05
X174.45Y-70.675G85X175.26Y-69.215
G05
X178.435Y-90.804G85X178.475Y-90.226
G05
X179.212Y-32.575G85X180.023Y-31.115
G05
X183.198Y-52.704G85X183.237Y-52.126
G05
X183.975Y-89.725G85X184.785Y-88.265
G05
X187.96Y-71.754G85X188.Y-71.176
G05
X188.737Y-51.625G85X189.548Y-50.165
G05
X192.723Y-33.654G85X192.762Y-33.076
G05
X193.5Y-70.675G85X194.31Y-69.215
G05
X197.485Y-90.804G85X197.525Y-90.226
G05
X198.262Y-32.575G85X199.073Y-31.115
G05
X199.867Y-109.854G85X199.906Y-109.276
G05
X202.248Y-52.704G85X202.287Y-52.126
G05
X203.025Y-89.725G85X203.835Y-88.265
G05
X205.406Y-108.775G85X206.217Y-107.315
G05
X207.01Y-71.754G85X207.05Y-71.176
G05
X207.787Y-51.625G85X208.598Y-50.165
G05
X211.773Y-33.654G85X211.812Y-33.076
G05
X212.55Y-70.675G85X213.36Y-69.215
G05
X216.535Y-90.804G85X216.575Y-90.226
G05
X217.312Y-32.575G85X218.123Y-31.115
G05
X221.298Y-52.704G85X221.337Y-52.126
G05
X222.075Y-89.725G85X222.885Y-88.265
G05
X226.06Y-71.754G85X226.1Y-71.176
G05
X226.837Y-51.625G85X227.648Y-50.165
G05
X230.823Y-33.654G85X230.862Y-33.076
G05
X231.6Y-70.675G85X232.41Y-69.215
G05
X235.585Y-90.804G85X235.625Y-90.226
G05
X236.362Y-32.575G85X237.173Y-31.115
G05
X240.348Y-52.704G85X240.387Y-52.126
G05
X241.125Y-89.725G85X241.935Y-88.265
G05
X245.11Y-71.754G85X245.15Y-71.176
G05
X245.887Y-51.625G85X246.698Y-50.165
G05
X249.873Y-33.654G85X249.912Y-33.076
G05
X250.65Y-70.675G85X251.46Y-69.215
G05
X254.635Y-90.804G85X254.675Y-90.226
G05
X255.412Y-32.575G85X256.223Y-31.115
G05
X259.398Y-52.704G85X259.437Y-52.126
G05
X260.175Y-89.725G85X260.985Y-88.265
G05
X264.16Y-71.754G85X264.2Y-71.176
G05
X264.937Y-51.625G85X265.748Y-50.165
G05
X268.923Y-33.654G85X268.962Y-33.076
G05
X269.7Y-70.675G85X270.51Y-69.215
G05
X271.304Y-109.854G85X271.343Y-109.276
G05
X273.685Y-90.804G85X273.725Y-90.226
G05
X274.462Y-32.575G85X275.273Y-31.115
G05
X276.843Y-108.775G85X277.654Y-107.315
G05
X278.448Y-52.704G85X278.487Y-52.126
G05
X279.225Y-89.725G85X280.035Y-88.265
G05
X283.21Y-71.754G85X283.25Y-71.176
G05
X283.987Y-51.625G85X284.798Y-50.165
G05
X287.973Y-33.654G85X288.012Y-33.076
G05
X288.75Y-70.675G85X289.56Y-69.215
G05
X292.735Y-90.804G85X292.775Y-90.226
G05
X293.512Y-32.575G85X294.323Y-31.115
G05
X295.117Y-109.854G85X295.156Y-109.276
G05
X297.498Y-52.704G85X297.537Y-52.126
G05
X298.275Y-89.725G85X299.085Y-88.265
G05
X300.656Y-108.775G85X301.467Y-107.315
G05
X302.26Y-71.754G85X302.3Y-71.176
G05
X303.037Y-51.625G85X303.848Y-50.165
G05
X307.023Y-33.654G85X307.062Y-33.076
G05
X307.8Y-70.675G85X308.61Y-69.215
G05
X312.562Y-32.575G85X313.373Y-31.115
G05
X316.548Y-52.704G85X316.587Y-52.126
G05
X318.929Y-109.854G85X318.968Y-109.276
G05
X322.087Y-51.625G85X322.898Y-50.165
G05
X324.468Y-108.775G85X325.279Y-107.315
G05
X328.454Y-90.804G85X328.493Y-90.226
G05
X333.217Y-71.754G85X333.256Y-71.176
G05
X333.993Y-89.725G85X334.804Y-88.265
G05
X335.598Y-33.654G85X335.637Y-33.076
G05
X338.756Y-70.675G85X339.567Y-69.215
G05
X340.36Y-52.704G85X340.4Y-52.126
G05
X341.137Y-32.575G85X341.948Y-31.115
G05
X345.9Y-51.625G85X346.71Y-50.165
G05
X349.885Y-109.854G85X349.925Y-109.276
G05
X355.425Y-108.775G85X356.235Y-107.315
G05
X368.935Y-33.654G85X368.975Y-33.076
G05
X368.935Y-52.704G85X368.975Y-52.126
G05
X368.935Y-90.804G85X368.975Y-90.226
G05
X368.935Y-109.854G85X368.975Y-109.276
G05
X374.475Y-32.575G85X375.285Y-31.115
G05
X374.475Y-51.625G85X375.285Y-50.165
G05
X374.475Y-89.725G85X375.285Y-88.265
G05
X374.475Y-108.775G85X375.285Y-107.315
G05
X387.985Y-33.654G85X388.025Y-33.076
G05
X387.985Y-52.704G85X388.025Y-52.126
G05
X387.985Y-109.854G85X388.025Y-109.276
G05
X393.525Y-32.575G85X394.335Y-31.115
G05
X393.525Y-51.625G85X394.335Y-50.165
G05
X393.525Y-108.775G85X394.335Y-107.315
G05
T0
M30
