G04 #@! TF.FileFunction,Legend,Top*
%FSLAX46Y46*%
G04 Gerber Fmt 4.6, Leading zero omitted, Abs format (unit mm)*
G04 Created by KiCad (PCBNEW 4.0.3-stable) date Sunday, November 27, 2016 'PMt' 05:54:45 PM*
%MOMM*%
%LPD*%
G01*
G04 APERTURE LIST*
%ADD10C,0.150000*%
%ADD11C,0.200000*%
%ADD12C,0.381000*%
%ADD13C,4.067810*%
%ADD14C,1.781810*%
%ADD15C,2.580000*%
%ADD16R,2.080000X2.080000*%
%ADD17C,2.080000*%
%ADD18C,6.380000*%
%ADD19C,0.979160*%
%ADD20R,1.680000X1.080000*%
%ADD21C,0.689600*%
%ADD22R,1.807200X1.807200*%
%ADD23O,1.807200X1.807200*%
%ADD24R,2.112000X1.807200*%
%ADD25O,2.112000X1.807200*%
G04 APERTURE END LIST*
D10*
D11*
X73025000Y-21590000D02*
X73025000Y-114300000D01*
D12*
X89693750Y-73025000D02*
X87915750Y-73025000D01*
X78771750Y-73025000D02*
X76993750Y-73025000D01*
X76993750Y-73025000D02*
X76993750Y-71247000D01*
X76993750Y-62103000D02*
X76993750Y-60325000D01*
X76993750Y-60325000D02*
X78771750Y-60325000D01*
X87915750Y-60325000D02*
X89693750Y-60325000D01*
X89693750Y-60325000D02*
X89693750Y-62103000D01*
X89693750Y-71247000D02*
X89693750Y-73025000D01*
X44450000Y-34925000D02*
X42672000Y-34925000D01*
X33528000Y-34925000D02*
X31750000Y-34925000D01*
X31750000Y-34925000D02*
X31750000Y-33147000D01*
X31750000Y-24003000D02*
X31750000Y-22225000D01*
X31750000Y-22225000D02*
X33528000Y-22225000D01*
X42672000Y-22225000D02*
X44450000Y-22225000D01*
X44450000Y-22225000D02*
X44450000Y-24003000D01*
X44450000Y-33147000D02*
X44450000Y-34925000D01*
X63500000Y-34925000D02*
X61722000Y-34925000D01*
X52578000Y-34925000D02*
X50800000Y-34925000D01*
X50800000Y-34925000D02*
X50800000Y-33147000D01*
X50800000Y-24003000D02*
X50800000Y-22225000D01*
X50800000Y-22225000D02*
X52578000Y-22225000D01*
X61722000Y-22225000D02*
X63500000Y-22225000D01*
X63500000Y-22225000D02*
X63500000Y-24003000D01*
X63500000Y-33147000D02*
X63500000Y-34925000D01*
X87312500Y-34925000D02*
X85534500Y-34925000D01*
X76390500Y-34925000D02*
X74612500Y-34925000D01*
X74612500Y-34925000D02*
X74612500Y-33147000D01*
X74612500Y-24003000D02*
X74612500Y-22225000D01*
X74612500Y-22225000D02*
X76390500Y-22225000D01*
X85534500Y-22225000D02*
X87312500Y-22225000D01*
X87312500Y-22225000D02*
X87312500Y-24003000D01*
X87312500Y-33147000D02*
X87312500Y-34925000D01*
X106362500Y-34925000D02*
X104584500Y-34925000D01*
X95440500Y-34925000D02*
X93662500Y-34925000D01*
X93662500Y-34925000D02*
X93662500Y-33147000D01*
X93662500Y-24003000D02*
X93662500Y-22225000D01*
X93662500Y-22225000D02*
X95440500Y-22225000D01*
X104584500Y-22225000D02*
X106362500Y-22225000D01*
X106362500Y-22225000D02*
X106362500Y-24003000D01*
X106362500Y-33147000D02*
X106362500Y-34925000D01*
X125412500Y-34925000D02*
X123634500Y-34925000D01*
X114490500Y-34925000D02*
X112712500Y-34925000D01*
X112712500Y-34925000D02*
X112712500Y-33147000D01*
X112712500Y-24003000D02*
X112712500Y-22225000D01*
X112712500Y-22225000D02*
X114490500Y-22225000D01*
X123634500Y-22225000D02*
X125412500Y-22225000D01*
X125412500Y-22225000D02*
X125412500Y-24003000D01*
X125412500Y-33147000D02*
X125412500Y-34925000D01*
X144462500Y-34925000D02*
X142684500Y-34925000D01*
X133540500Y-34925000D02*
X131762500Y-34925000D01*
X131762500Y-34925000D02*
X131762500Y-33147000D01*
X131762500Y-24003000D02*
X131762500Y-22225000D01*
X131762500Y-22225000D02*
X133540500Y-22225000D01*
X142684500Y-22225000D02*
X144462500Y-22225000D01*
X144462500Y-22225000D02*
X144462500Y-24003000D01*
X144462500Y-33147000D02*
X144462500Y-34925000D01*
X163512500Y-34925000D02*
X161734500Y-34925000D01*
X152590500Y-34925000D02*
X150812500Y-34925000D01*
X150812500Y-34925000D02*
X150812500Y-33147000D01*
X150812500Y-24003000D02*
X150812500Y-22225000D01*
X150812500Y-22225000D02*
X152590500Y-22225000D01*
X161734500Y-22225000D02*
X163512500Y-22225000D01*
X163512500Y-22225000D02*
X163512500Y-24003000D01*
X163512500Y-33147000D02*
X163512500Y-34925000D01*
X182562500Y-34925000D02*
X180784500Y-34925000D01*
X171640500Y-34925000D02*
X169862500Y-34925000D01*
X169862500Y-34925000D02*
X169862500Y-33147000D01*
X169862500Y-24003000D02*
X169862500Y-22225000D01*
X169862500Y-22225000D02*
X171640500Y-22225000D01*
X180784500Y-22225000D02*
X182562500Y-22225000D01*
X182562500Y-22225000D02*
X182562500Y-24003000D01*
X182562500Y-33147000D02*
X182562500Y-34925000D01*
X201612500Y-34925000D02*
X199834500Y-34925000D01*
X190690500Y-34925000D02*
X188912500Y-34925000D01*
X188912500Y-34925000D02*
X188912500Y-33147000D01*
X188912500Y-24003000D02*
X188912500Y-22225000D01*
X188912500Y-22225000D02*
X190690500Y-22225000D01*
X199834500Y-22225000D02*
X201612500Y-22225000D01*
X201612500Y-22225000D02*
X201612500Y-24003000D01*
X201612500Y-33147000D02*
X201612500Y-34925000D01*
X220662500Y-34925000D02*
X218884500Y-34925000D01*
X209740500Y-34925000D02*
X207962500Y-34925000D01*
X207962500Y-34925000D02*
X207962500Y-33147000D01*
X207962500Y-24003000D02*
X207962500Y-22225000D01*
X207962500Y-22225000D02*
X209740500Y-22225000D01*
X218884500Y-22225000D02*
X220662500Y-22225000D01*
X220662500Y-22225000D02*
X220662500Y-24003000D01*
X220662500Y-33147000D02*
X220662500Y-34925000D01*
X239712500Y-34925000D02*
X237934500Y-34925000D01*
X228790500Y-34925000D02*
X227012500Y-34925000D01*
X227012500Y-34925000D02*
X227012500Y-33147000D01*
X227012500Y-24003000D02*
X227012500Y-22225000D01*
X227012500Y-22225000D02*
X228790500Y-22225000D01*
X237934500Y-22225000D02*
X239712500Y-22225000D01*
X239712500Y-22225000D02*
X239712500Y-24003000D01*
X239712500Y-33147000D02*
X239712500Y-34925000D01*
X258762500Y-34925000D02*
X256984500Y-34925000D01*
X247840500Y-34925000D02*
X246062500Y-34925000D01*
X246062500Y-34925000D02*
X246062500Y-33147000D01*
X246062500Y-24003000D02*
X246062500Y-22225000D01*
X246062500Y-22225000D02*
X247840500Y-22225000D01*
X256984500Y-22225000D02*
X258762500Y-22225000D01*
X258762500Y-22225000D02*
X258762500Y-24003000D01*
X258762500Y-33147000D02*
X258762500Y-34925000D01*
X277812500Y-34925000D02*
X276034500Y-34925000D01*
X266890500Y-34925000D02*
X265112500Y-34925000D01*
X265112500Y-34925000D02*
X265112500Y-33147000D01*
X265112500Y-24003000D02*
X265112500Y-22225000D01*
X265112500Y-22225000D02*
X266890500Y-22225000D01*
X276034500Y-22225000D02*
X277812500Y-22225000D01*
X277812500Y-22225000D02*
X277812500Y-24003000D01*
X277812500Y-33147000D02*
X277812500Y-34925000D01*
X296862500Y-34925000D02*
X295084500Y-34925000D01*
X285940500Y-34925000D02*
X284162500Y-34925000D01*
X284162500Y-34925000D02*
X284162500Y-33147000D01*
X284162500Y-24003000D02*
X284162500Y-22225000D01*
X284162500Y-22225000D02*
X285940500Y-22225000D01*
X295084500Y-22225000D02*
X296862500Y-22225000D01*
X296862500Y-22225000D02*
X296862500Y-24003000D01*
X296862500Y-33147000D02*
X296862500Y-34925000D01*
X315912500Y-34925000D02*
X314134500Y-34925000D01*
X304990500Y-34925000D02*
X303212500Y-34925000D01*
X303212500Y-34925000D02*
X303212500Y-33147000D01*
X303212500Y-24003000D02*
X303212500Y-22225000D01*
X303212500Y-22225000D02*
X304990500Y-22225000D01*
X314134500Y-22225000D02*
X315912500Y-22225000D01*
X315912500Y-22225000D02*
X315912500Y-24003000D01*
X315912500Y-33147000D02*
X315912500Y-34925000D01*
X344487500Y-34925000D02*
X342709500Y-34925000D01*
X333565500Y-34925000D02*
X331787500Y-34925000D01*
X331787500Y-34925000D02*
X331787500Y-33147000D01*
X331787500Y-24003000D02*
X331787500Y-22225000D01*
X331787500Y-22225000D02*
X333565500Y-22225000D01*
X342709500Y-22225000D02*
X344487500Y-22225000D01*
X344487500Y-22225000D02*
X344487500Y-24003000D01*
X344487500Y-33147000D02*
X344487500Y-34925000D01*
X377825000Y-34925000D02*
X376047000Y-34925000D01*
X366903000Y-34925000D02*
X365125000Y-34925000D01*
X365125000Y-34925000D02*
X365125000Y-33147000D01*
X365125000Y-24003000D02*
X365125000Y-22225000D01*
X365125000Y-22225000D02*
X366903000Y-22225000D01*
X376047000Y-22225000D02*
X377825000Y-22225000D01*
X377825000Y-22225000D02*
X377825000Y-24003000D01*
X377825000Y-33147000D02*
X377825000Y-34925000D01*
X396875000Y-34925000D02*
X395097000Y-34925000D01*
X385953000Y-34925000D02*
X384175000Y-34925000D01*
X384175000Y-34925000D02*
X384175000Y-33147000D01*
X384175000Y-24003000D02*
X384175000Y-22225000D01*
X384175000Y-22225000D02*
X385953000Y-22225000D01*
X395097000Y-22225000D02*
X396875000Y-22225000D01*
X396875000Y-22225000D02*
X396875000Y-24003000D01*
X396875000Y-33147000D02*
X396875000Y-34925000D01*
X44450000Y-53975000D02*
X42672000Y-53975000D01*
X33528000Y-53975000D02*
X31750000Y-53975000D01*
X31750000Y-53975000D02*
X31750000Y-52197000D01*
X31750000Y-43053000D02*
X31750000Y-41275000D01*
X31750000Y-41275000D02*
X33528000Y-41275000D01*
X42672000Y-41275000D02*
X44450000Y-41275000D01*
X44450000Y-41275000D02*
X44450000Y-43053000D01*
X44450000Y-52197000D02*
X44450000Y-53975000D01*
X63500000Y-53975000D02*
X61722000Y-53975000D01*
X52578000Y-53975000D02*
X50800000Y-53975000D01*
X50800000Y-53975000D02*
X50800000Y-52197000D01*
X50800000Y-43053000D02*
X50800000Y-41275000D01*
X50800000Y-41275000D02*
X52578000Y-41275000D01*
X61722000Y-41275000D02*
X63500000Y-41275000D01*
X63500000Y-41275000D02*
X63500000Y-43053000D01*
X63500000Y-52197000D02*
X63500000Y-53975000D01*
X92075000Y-53975000D02*
X90297000Y-53975000D01*
X81153000Y-53975000D02*
X79375000Y-53975000D01*
X79375000Y-53975000D02*
X79375000Y-52197000D01*
X79375000Y-43053000D02*
X79375000Y-41275000D01*
X79375000Y-41275000D02*
X81153000Y-41275000D01*
X90297000Y-41275000D02*
X92075000Y-41275000D01*
X92075000Y-41275000D02*
X92075000Y-43053000D01*
X92075000Y-52197000D02*
X92075000Y-53975000D01*
X115887500Y-53975000D02*
X114109500Y-53975000D01*
X104965500Y-53975000D02*
X103187500Y-53975000D01*
X103187500Y-53975000D02*
X103187500Y-52197000D01*
X103187500Y-43053000D02*
X103187500Y-41275000D01*
X103187500Y-41275000D02*
X104965500Y-41275000D01*
X114109500Y-41275000D02*
X115887500Y-41275000D01*
X115887500Y-41275000D02*
X115887500Y-43053000D01*
X115887500Y-52197000D02*
X115887500Y-53975000D01*
X134937500Y-53975000D02*
X133159500Y-53975000D01*
X124015500Y-53975000D02*
X122237500Y-53975000D01*
X122237500Y-53975000D02*
X122237500Y-52197000D01*
X122237500Y-43053000D02*
X122237500Y-41275000D01*
X122237500Y-41275000D02*
X124015500Y-41275000D01*
X133159500Y-41275000D02*
X134937500Y-41275000D01*
X134937500Y-41275000D02*
X134937500Y-43053000D01*
X134937500Y-52197000D02*
X134937500Y-53975000D01*
X153987500Y-53975000D02*
X152209500Y-53975000D01*
X143065500Y-53975000D02*
X141287500Y-53975000D01*
X141287500Y-53975000D02*
X141287500Y-52197000D01*
X141287500Y-43053000D02*
X141287500Y-41275000D01*
X141287500Y-41275000D02*
X143065500Y-41275000D01*
X152209500Y-41275000D02*
X153987500Y-41275000D01*
X153987500Y-41275000D02*
X153987500Y-43053000D01*
X153987500Y-52197000D02*
X153987500Y-53975000D01*
X173037500Y-53975000D02*
X171259500Y-53975000D01*
X162115500Y-53975000D02*
X160337500Y-53975000D01*
X160337500Y-53975000D02*
X160337500Y-52197000D01*
X160337500Y-43053000D02*
X160337500Y-41275000D01*
X160337500Y-41275000D02*
X162115500Y-41275000D01*
X171259500Y-41275000D02*
X173037500Y-41275000D01*
X173037500Y-41275000D02*
X173037500Y-43053000D01*
X173037500Y-52197000D02*
X173037500Y-53975000D01*
X192087500Y-53975000D02*
X190309500Y-53975000D01*
X181165500Y-53975000D02*
X179387500Y-53975000D01*
X179387500Y-53975000D02*
X179387500Y-52197000D01*
X179387500Y-43053000D02*
X179387500Y-41275000D01*
X179387500Y-41275000D02*
X181165500Y-41275000D01*
X190309500Y-41275000D02*
X192087500Y-41275000D01*
X192087500Y-41275000D02*
X192087500Y-43053000D01*
X192087500Y-52197000D02*
X192087500Y-53975000D01*
X211137500Y-53975000D02*
X209359500Y-53975000D01*
X200215500Y-53975000D02*
X198437500Y-53975000D01*
X198437500Y-53975000D02*
X198437500Y-52197000D01*
X198437500Y-43053000D02*
X198437500Y-41275000D01*
X198437500Y-41275000D02*
X200215500Y-41275000D01*
X209359500Y-41275000D02*
X211137500Y-41275000D01*
X211137500Y-41275000D02*
X211137500Y-43053000D01*
X211137500Y-52197000D02*
X211137500Y-53975000D01*
X230187500Y-53975000D02*
X228409500Y-53975000D01*
X219265500Y-53975000D02*
X217487500Y-53975000D01*
X217487500Y-53975000D02*
X217487500Y-52197000D01*
X217487500Y-43053000D02*
X217487500Y-41275000D01*
X217487500Y-41275000D02*
X219265500Y-41275000D01*
X228409500Y-41275000D02*
X230187500Y-41275000D01*
X230187500Y-41275000D02*
X230187500Y-43053000D01*
X230187500Y-52197000D02*
X230187500Y-53975000D01*
X249237500Y-53975000D02*
X247459500Y-53975000D01*
X238315500Y-53975000D02*
X236537500Y-53975000D01*
X236537500Y-53975000D02*
X236537500Y-52197000D01*
X236537500Y-43053000D02*
X236537500Y-41275000D01*
X236537500Y-41275000D02*
X238315500Y-41275000D01*
X247459500Y-41275000D02*
X249237500Y-41275000D01*
X249237500Y-41275000D02*
X249237500Y-43053000D01*
X249237500Y-52197000D02*
X249237500Y-53975000D01*
X268287500Y-53975000D02*
X266509500Y-53975000D01*
X257365500Y-53975000D02*
X255587500Y-53975000D01*
X255587500Y-53975000D02*
X255587500Y-52197000D01*
X255587500Y-43053000D02*
X255587500Y-41275000D01*
X255587500Y-41275000D02*
X257365500Y-41275000D01*
X266509500Y-41275000D02*
X268287500Y-41275000D01*
X268287500Y-41275000D02*
X268287500Y-43053000D01*
X268287500Y-52197000D02*
X268287500Y-53975000D01*
X287337500Y-53975000D02*
X285559500Y-53975000D01*
X276415500Y-53975000D02*
X274637500Y-53975000D01*
X274637500Y-53975000D02*
X274637500Y-52197000D01*
X274637500Y-43053000D02*
X274637500Y-41275000D01*
X274637500Y-41275000D02*
X276415500Y-41275000D01*
X285559500Y-41275000D02*
X287337500Y-41275000D01*
X287337500Y-41275000D02*
X287337500Y-43053000D01*
X287337500Y-52197000D02*
X287337500Y-53975000D01*
X306387500Y-53975000D02*
X304609500Y-53975000D01*
X295465500Y-53975000D02*
X293687500Y-53975000D01*
X293687500Y-53975000D02*
X293687500Y-52197000D01*
X293687500Y-43053000D02*
X293687500Y-41275000D01*
X293687500Y-41275000D02*
X295465500Y-41275000D01*
X304609500Y-41275000D02*
X306387500Y-41275000D01*
X306387500Y-41275000D02*
X306387500Y-43053000D01*
X306387500Y-52197000D02*
X306387500Y-53975000D01*
X325437500Y-53975000D02*
X323659500Y-53975000D01*
X314515500Y-53975000D02*
X312737500Y-53975000D01*
X312737500Y-53975000D02*
X312737500Y-52197000D01*
X312737500Y-43053000D02*
X312737500Y-41275000D01*
X312737500Y-41275000D02*
X314515500Y-41275000D01*
X323659500Y-41275000D02*
X325437500Y-41275000D01*
X325437500Y-41275000D02*
X325437500Y-43053000D01*
X325437500Y-52197000D02*
X325437500Y-53975000D01*
X349250000Y-53975000D02*
X347472000Y-53975000D01*
X338328000Y-53975000D02*
X336550000Y-53975000D01*
X336550000Y-53975000D02*
X336550000Y-52197000D01*
X336550000Y-43053000D02*
X336550000Y-41275000D01*
X336550000Y-41275000D02*
X338328000Y-41275000D01*
X347472000Y-41275000D02*
X349250000Y-41275000D01*
X349250000Y-41275000D02*
X349250000Y-43053000D01*
X349250000Y-52197000D02*
X349250000Y-53975000D01*
X351631250Y-50800000D02*
X351631250Y-52578000D01*
X351631250Y-61722000D02*
X351631250Y-63500000D01*
X351631250Y-63500000D02*
X349853250Y-63500000D01*
X340709250Y-63500000D02*
X338931250Y-63500000D01*
X338931250Y-63500000D02*
X338931250Y-61722000D01*
X338931250Y-52578000D02*
X338931250Y-50800000D01*
X338931250Y-50800000D02*
X340709250Y-50800000D01*
X349853250Y-50800000D02*
X351631250Y-50800000D01*
X377825000Y-53975000D02*
X376047000Y-53975000D01*
X366903000Y-53975000D02*
X365125000Y-53975000D01*
X365125000Y-53975000D02*
X365125000Y-52197000D01*
X365125000Y-43053000D02*
X365125000Y-41275000D01*
X365125000Y-41275000D02*
X366903000Y-41275000D01*
X376047000Y-41275000D02*
X377825000Y-41275000D01*
X377825000Y-41275000D02*
X377825000Y-43053000D01*
X377825000Y-52197000D02*
X377825000Y-53975000D01*
X396875000Y-53975000D02*
X395097000Y-53975000D01*
X385953000Y-53975000D02*
X384175000Y-53975000D01*
X384175000Y-53975000D02*
X384175000Y-52197000D01*
X384175000Y-43053000D02*
X384175000Y-41275000D01*
X384175000Y-41275000D02*
X385953000Y-41275000D01*
X395097000Y-41275000D02*
X396875000Y-41275000D01*
X396875000Y-41275000D02*
X396875000Y-43053000D01*
X396875000Y-52197000D02*
X396875000Y-53975000D01*
X44450000Y-73025000D02*
X42672000Y-73025000D01*
X33528000Y-73025000D02*
X31750000Y-73025000D01*
X31750000Y-73025000D02*
X31750000Y-71247000D01*
X31750000Y-62103000D02*
X31750000Y-60325000D01*
X31750000Y-60325000D02*
X33528000Y-60325000D01*
X42672000Y-60325000D02*
X44450000Y-60325000D01*
X44450000Y-60325000D02*
X44450000Y-62103000D01*
X44450000Y-71247000D02*
X44450000Y-73025000D01*
X63500000Y-73025000D02*
X61722000Y-73025000D01*
X52578000Y-73025000D02*
X50800000Y-73025000D01*
X50800000Y-73025000D02*
X50800000Y-71247000D01*
X50800000Y-62103000D02*
X50800000Y-60325000D01*
X50800000Y-60325000D02*
X52578000Y-60325000D01*
X61722000Y-60325000D02*
X63500000Y-60325000D01*
X63500000Y-60325000D02*
X63500000Y-62103000D01*
X63500000Y-71247000D02*
X63500000Y-73025000D01*
X94456250Y-73025000D02*
X92678250Y-73025000D01*
X83534250Y-73025000D02*
X81756250Y-73025000D01*
X81756250Y-73025000D02*
X81756250Y-71247000D01*
X81756250Y-62103000D02*
X81756250Y-60325000D01*
X81756250Y-60325000D02*
X83534250Y-60325000D01*
X92678250Y-60325000D02*
X94456250Y-60325000D01*
X94456250Y-60325000D02*
X94456250Y-62103000D01*
X94456250Y-71247000D02*
X94456250Y-73025000D01*
X120650000Y-73025000D02*
X118872000Y-73025000D01*
X109728000Y-73025000D02*
X107950000Y-73025000D01*
X107950000Y-73025000D02*
X107950000Y-71247000D01*
X107950000Y-62103000D02*
X107950000Y-60325000D01*
X107950000Y-60325000D02*
X109728000Y-60325000D01*
X118872000Y-60325000D02*
X120650000Y-60325000D01*
X120650000Y-60325000D02*
X120650000Y-62103000D01*
X120650000Y-71247000D02*
X120650000Y-73025000D01*
X139700000Y-73025000D02*
X137922000Y-73025000D01*
X128778000Y-73025000D02*
X127000000Y-73025000D01*
X127000000Y-73025000D02*
X127000000Y-71247000D01*
X127000000Y-62103000D02*
X127000000Y-60325000D01*
X127000000Y-60325000D02*
X128778000Y-60325000D01*
X137922000Y-60325000D02*
X139700000Y-60325000D01*
X139700000Y-60325000D02*
X139700000Y-62103000D01*
X139700000Y-71247000D02*
X139700000Y-73025000D01*
X158750000Y-73025000D02*
X156972000Y-73025000D01*
X147828000Y-73025000D02*
X146050000Y-73025000D01*
X146050000Y-73025000D02*
X146050000Y-71247000D01*
X146050000Y-62103000D02*
X146050000Y-60325000D01*
X146050000Y-60325000D02*
X147828000Y-60325000D01*
X156972000Y-60325000D02*
X158750000Y-60325000D01*
X158750000Y-60325000D02*
X158750000Y-62103000D01*
X158750000Y-71247000D02*
X158750000Y-73025000D01*
X177800000Y-73025000D02*
X176022000Y-73025000D01*
X166878000Y-73025000D02*
X165100000Y-73025000D01*
X165100000Y-73025000D02*
X165100000Y-71247000D01*
X165100000Y-62103000D02*
X165100000Y-60325000D01*
X165100000Y-60325000D02*
X166878000Y-60325000D01*
X176022000Y-60325000D02*
X177800000Y-60325000D01*
X177800000Y-60325000D02*
X177800000Y-62103000D01*
X177800000Y-71247000D02*
X177800000Y-73025000D01*
X196850000Y-73025000D02*
X195072000Y-73025000D01*
X185928000Y-73025000D02*
X184150000Y-73025000D01*
X184150000Y-73025000D02*
X184150000Y-71247000D01*
X184150000Y-62103000D02*
X184150000Y-60325000D01*
X184150000Y-60325000D02*
X185928000Y-60325000D01*
X195072000Y-60325000D02*
X196850000Y-60325000D01*
X196850000Y-60325000D02*
X196850000Y-62103000D01*
X196850000Y-71247000D02*
X196850000Y-73025000D01*
X215900000Y-73025000D02*
X214122000Y-73025000D01*
X204978000Y-73025000D02*
X203200000Y-73025000D01*
X203200000Y-73025000D02*
X203200000Y-71247000D01*
X203200000Y-62103000D02*
X203200000Y-60325000D01*
X203200000Y-60325000D02*
X204978000Y-60325000D01*
X214122000Y-60325000D02*
X215900000Y-60325000D01*
X215900000Y-60325000D02*
X215900000Y-62103000D01*
X215900000Y-71247000D02*
X215900000Y-73025000D01*
X234950000Y-73025000D02*
X233172000Y-73025000D01*
X224028000Y-73025000D02*
X222250000Y-73025000D01*
X222250000Y-73025000D02*
X222250000Y-71247000D01*
X222250000Y-62103000D02*
X222250000Y-60325000D01*
X222250000Y-60325000D02*
X224028000Y-60325000D01*
X233172000Y-60325000D02*
X234950000Y-60325000D01*
X234950000Y-60325000D02*
X234950000Y-62103000D01*
X234950000Y-71247000D02*
X234950000Y-73025000D01*
X254000000Y-73025000D02*
X252222000Y-73025000D01*
X243078000Y-73025000D02*
X241300000Y-73025000D01*
X241300000Y-73025000D02*
X241300000Y-71247000D01*
X241300000Y-62103000D02*
X241300000Y-60325000D01*
X241300000Y-60325000D02*
X243078000Y-60325000D01*
X252222000Y-60325000D02*
X254000000Y-60325000D01*
X254000000Y-60325000D02*
X254000000Y-62103000D01*
X254000000Y-71247000D02*
X254000000Y-73025000D01*
X273050000Y-73025000D02*
X271272000Y-73025000D01*
X262128000Y-73025000D02*
X260350000Y-73025000D01*
X260350000Y-73025000D02*
X260350000Y-71247000D01*
X260350000Y-62103000D02*
X260350000Y-60325000D01*
X260350000Y-60325000D02*
X262128000Y-60325000D01*
X271272000Y-60325000D02*
X273050000Y-60325000D01*
X273050000Y-60325000D02*
X273050000Y-62103000D01*
X273050000Y-71247000D02*
X273050000Y-73025000D01*
X292100000Y-73025000D02*
X290322000Y-73025000D01*
X281178000Y-73025000D02*
X279400000Y-73025000D01*
X279400000Y-73025000D02*
X279400000Y-71247000D01*
X279400000Y-62103000D02*
X279400000Y-60325000D01*
X279400000Y-60325000D02*
X281178000Y-60325000D01*
X290322000Y-60325000D02*
X292100000Y-60325000D01*
X292100000Y-60325000D02*
X292100000Y-62103000D01*
X292100000Y-71247000D02*
X292100000Y-73025000D01*
X311150000Y-73025000D02*
X309372000Y-73025000D01*
X300228000Y-73025000D02*
X298450000Y-73025000D01*
X298450000Y-73025000D02*
X298450000Y-71247000D01*
X298450000Y-62103000D02*
X298450000Y-60325000D01*
X298450000Y-60325000D02*
X300228000Y-60325000D01*
X309372000Y-60325000D02*
X311150000Y-60325000D01*
X311150000Y-60325000D02*
X311150000Y-62103000D01*
X311150000Y-71247000D02*
X311150000Y-73025000D01*
X342106250Y-73025000D02*
X340328250Y-73025000D01*
X331184250Y-73025000D02*
X329406250Y-73025000D01*
X329406250Y-73025000D02*
X329406250Y-71247000D01*
X329406250Y-62103000D02*
X329406250Y-60325000D01*
X329406250Y-60325000D02*
X331184250Y-60325000D01*
X340328250Y-60325000D02*
X342106250Y-60325000D01*
X342106250Y-60325000D02*
X342106250Y-62103000D01*
X342106250Y-71247000D02*
X342106250Y-73025000D01*
X330200000Y-73025000D02*
X328422000Y-73025000D01*
X319278000Y-73025000D02*
X317500000Y-73025000D01*
X317500000Y-73025000D02*
X317500000Y-71247000D01*
X317500000Y-62103000D02*
X317500000Y-60325000D01*
X317500000Y-60325000D02*
X319278000Y-60325000D01*
X328422000Y-60325000D02*
X330200000Y-60325000D01*
X330200000Y-60325000D02*
X330200000Y-62103000D01*
X330200000Y-71247000D02*
X330200000Y-73025000D01*
X44450000Y-92075000D02*
X42672000Y-92075000D01*
X33528000Y-92075000D02*
X31750000Y-92075000D01*
X31750000Y-92075000D02*
X31750000Y-90297000D01*
X31750000Y-81153000D02*
X31750000Y-79375000D01*
X31750000Y-79375000D02*
X33528000Y-79375000D01*
X42672000Y-79375000D02*
X44450000Y-79375000D01*
X44450000Y-79375000D02*
X44450000Y-81153000D01*
X44450000Y-90297000D02*
X44450000Y-92075000D01*
X63500000Y-92075000D02*
X61722000Y-92075000D01*
X52578000Y-92075000D02*
X50800000Y-92075000D01*
X50800000Y-92075000D02*
X50800000Y-90297000D01*
X50800000Y-81153000D02*
X50800000Y-79375000D01*
X50800000Y-79375000D02*
X52578000Y-79375000D01*
X61722000Y-79375000D02*
X63500000Y-79375000D01*
X63500000Y-79375000D02*
X63500000Y-81153000D01*
X63500000Y-90297000D02*
X63500000Y-92075000D01*
X99218750Y-92075000D02*
X97440750Y-92075000D01*
X88296750Y-92075000D02*
X86518750Y-92075000D01*
X86518750Y-92075000D02*
X86518750Y-90297000D01*
X86518750Y-81153000D02*
X86518750Y-79375000D01*
X86518750Y-79375000D02*
X88296750Y-79375000D01*
X97440750Y-79375000D02*
X99218750Y-79375000D01*
X99218750Y-79375000D02*
X99218750Y-81153000D01*
X99218750Y-90297000D02*
X99218750Y-92075000D01*
X89693750Y-92075000D02*
X87915750Y-92075000D01*
X78771750Y-92075000D02*
X76993750Y-92075000D01*
X76993750Y-92075000D02*
X76993750Y-90297000D01*
X76993750Y-81153000D02*
X76993750Y-79375000D01*
X76993750Y-79375000D02*
X78771750Y-79375000D01*
X87915750Y-79375000D02*
X89693750Y-79375000D01*
X89693750Y-79375000D02*
X89693750Y-81153000D01*
X89693750Y-90297000D02*
X89693750Y-92075000D01*
X111125000Y-92075000D02*
X109347000Y-92075000D01*
X100203000Y-92075000D02*
X98425000Y-92075000D01*
X98425000Y-92075000D02*
X98425000Y-90297000D01*
X98425000Y-81153000D02*
X98425000Y-79375000D01*
X98425000Y-79375000D02*
X100203000Y-79375000D01*
X109347000Y-79375000D02*
X111125000Y-79375000D01*
X111125000Y-79375000D02*
X111125000Y-81153000D01*
X111125000Y-90297000D02*
X111125000Y-92075000D01*
X130175000Y-92075000D02*
X128397000Y-92075000D01*
X119253000Y-92075000D02*
X117475000Y-92075000D01*
X117475000Y-92075000D02*
X117475000Y-90297000D01*
X117475000Y-81153000D02*
X117475000Y-79375000D01*
X117475000Y-79375000D02*
X119253000Y-79375000D01*
X128397000Y-79375000D02*
X130175000Y-79375000D01*
X130175000Y-79375000D02*
X130175000Y-81153000D01*
X130175000Y-90297000D02*
X130175000Y-92075000D01*
X149225000Y-92075000D02*
X147447000Y-92075000D01*
X138303000Y-92075000D02*
X136525000Y-92075000D01*
X136525000Y-92075000D02*
X136525000Y-90297000D01*
X136525000Y-81153000D02*
X136525000Y-79375000D01*
X136525000Y-79375000D02*
X138303000Y-79375000D01*
X147447000Y-79375000D02*
X149225000Y-79375000D01*
X149225000Y-79375000D02*
X149225000Y-81153000D01*
X149225000Y-90297000D02*
X149225000Y-92075000D01*
X168275000Y-92075000D02*
X166497000Y-92075000D01*
X157353000Y-92075000D02*
X155575000Y-92075000D01*
X155575000Y-92075000D02*
X155575000Y-90297000D01*
X155575000Y-81153000D02*
X155575000Y-79375000D01*
X155575000Y-79375000D02*
X157353000Y-79375000D01*
X166497000Y-79375000D02*
X168275000Y-79375000D01*
X168275000Y-79375000D02*
X168275000Y-81153000D01*
X168275000Y-90297000D02*
X168275000Y-92075000D01*
X187325000Y-92075000D02*
X185547000Y-92075000D01*
X176403000Y-92075000D02*
X174625000Y-92075000D01*
X174625000Y-92075000D02*
X174625000Y-90297000D01*
X174625000Y-81153000D02*
X174625000Y-79375000D01*
X174625000Y-79375000D02*
X176403000Y-79375000D01*
X185547000Y-79375000D02*
X187325000Y-79375000D01*
X187325000Y-79375000D02*
X187325000Y-81153000D01*
X187325000Y-90297000D02*
X187325000Y-92075000D01*
X206375000Y-92075000D02*
X204597000Y-92075000D01*
X195453000Y-92075000D02*
X193675000Y-92075000D01*
X193675000Y-92075000D02*
X193675000Y-90297000D01*
X193675000Y-81153000D02*
X193675000Y-79375000D01*
X193675000Y-79375000D02*
X195453000Y-79375000D01*
X204597000Y-79375000D02*
X206375000Y-79375000D01*
X206375000Y-79375000D02*
X206375000Y-81153000D01*
X206375000Y-90297000D02*
X206375000Y-92075000D01*
X225425000Y-92075000D02*
X223647000Y-92075000D01*
X214503000Y-92075000D02*
X212725000Y-92075000D01*
X212725000Y-92075000D02*
X212725000Y-90297000D01*
X212725000Y-81153000D02*
X212725000Y-79375000D01*
X212725000Y-79375000D02*
X214503000Y-79375000D01*
X223647000Y-79375000D02*
X225425000Y-79375000D01*
X225425000Y-79375000D02*
X225425000Y-81153000D01*
X225425000Y-90297000D02*
X225425000Y-92075000D01*
X244475000Y-92075000D02*
X242697000Y-92075000D01*
X233553000Y-92075000D02*
X231775000Y-92075000D01*
X231775000Y-92075000D02*
X231775000Y-90297000D01*
X231775000Y-81153000D02*
X231775000Y-79375000D01*
X231775000Y-79375000D02*
X233553000Y-79375000D01*
X242697000Y-79375000D02*
X244475000Y-79375000D01*
X244475000Y-79375000D02*
X244475000Y-81153000D01*
X244475000Y-90297000D02*
X244475000Y-92075000D01*
X263525000Y-92075000D02*
X261747000Y-92075000D01*
X252603000Y-92075000D02*
X250825000Y-92075000D01*
X250825000Y-92075000D02*
X250825000Y-90297000D01*
X250825000Y-81153000D02*
X250825000Y-79375000D01*
X250825000Y-79375000D02*
X252603000Y-79375000D01*
X261747000Y-79375000D02*
X263525000Y-79375000D01*
X263525000Y-79375000D02*
X263525000Y-81153000D01*
X263525000Y-90297000D02*
X263525000Y-92075000D01*
X282575000Y-92075000D02*
X280797000Y-92075000D01*
X271653000Y-92075000D02*
X269875000Y-92075000D01*
X269875000Y-92075000D02*
X269875000Y-90297000D01*
X269875000Y-81153000D02*
X269875000Y-79375000D01*
X269875000Y-79375000D02*
X271653000Y-79375000D01*
X280797000Y-79375000D02*
X282575000Y-79375000D01*
X282575000Y-79375000D02*
X282575000Y-81153000D01*
X282575000Y-90297000D02*
X282575000Y-92075000D01*
X301625000Y-92075000D02*
X299847000Y-92075000D01*
X290703000Y-92075000D02*
X288925000Y-92075000D01*
X288925000Y-92075000D02*
X288925000Y-90297000D01*
X288925000Y-81153000D02*
X288925000Y-79375000D01*
X288925000Y-79375000D02*
X290703000Y-79375000D01*
X299847000Y-79375000D02*
X301625000Y-79375000D01*
X301625000Y-79375000D02*
X301625000Y-81153000D01*
X301625000Y-90297000D02*
X301625000Y-92075000D01*
X337343750Y-92075000D02*
X335565750Y-92075000D01*
X326421750Y-92075000D02*
X324643750Y-92075000D01*
X324643750Y-92075000D02*
X324643750Y-90297000D01*
X324643750Y-81153000D02*
X324643750Y-79375000D01*
X324643750Y-79375000D02*
X326421750Y-79375000D01*
X335565750Y-79375000D02*
X337343750Y-79375000D01*
X337343750Y-79375000D02*
X337343750Y-81153000D01*
X337343750Y-90297000D02*
X337343750Y-92075000D01*
X377825000Y-92075000D02*
X376047000Y-92075000D01*
X366903000Y-92075000D02*
X365125000Y-92075000D01*
X365125000Y-92075000D02*
X365125000Y-90297000D01*
X365125000Y-81153000D02*
X365125000Y-79375000D01*
X365125000Y-79375000D02*
X366903000Y-79375000D01*
X376047000Y-79375000D02*
X377825000Y-79375000D01*
X377825000Y-79375000D02*
X377825000Y-81153000D01*
X377825000Y-90297000D02*
X377825000Y-92075000D01*
X44450000Y-111125000D02*
X42672000Y-111125000D01*
X33528000Y-111125000D02*
X31750000Y-111125000D01*
X31750000Y-111125000D02*
X31750000Y-109347000D01*
X31750000Y-100203000D02*
X31750000Y-98425000D01*
X31750000Y-98425000D02*
X33528000Y-98425000D01*
X42672000Y-98425000D02*
X44450000Y-98425000D01*
X44450000Y-98425000D02*
X44450000Y-100203000D01*
X44450000Y-109347000D02*
X44450000Y-111125000D01*
X63500000Y-111125000D02*
X61722000Y-111125000D01*
X52578000Y-111125000D02*
X50800000Y-111125000D01*
X50800000Y-111125000D02*
X50800000Y-109347000D01*
X50800000Y-100203000D02*
X50800000Y-98425000D01*
X50800000Y-98425000D02*
X52578000Y-98425000D01*
X61722000Y-98425000D02*
X63500000Y-98425000D01*
X63500000Y-98425000D02*
X63500000Y-100203000D01*
X63500000Y-109347000D02*
X63500000Y-111125000D01*
X89693750Y-111125000D02*
X87915750Y-111125000D01*
X78771750Y-111125000D02*
X76993750Y-111125000D01*
X76993750Y-111125000D02*
X76993750Y-109347000D01*
X76993750Y-100203000D02*
X76993750Y-98425000D01*
X76993750Y-98425000D02*
X78771750Y-98425000D01*
X87915750Y-98425000D02*
X89693750Y-98425000D01*
X89693750Y-98425000D02*
X89693750Y-100203000D01*
X89693750Y-109347000D02*
X89693750Y-111125000D01*
X113506250Y-111125000D02*
X111728250Y-111125000D01*
X102584250Y-111125000D02*
X100806250Y-111125000D01*
X100806250Y-111125000D02*
X100806250Y-109347000D01*
X100806250Y-100203000D02*
X100806250Y-98425000D01*
X100806250Y-98425000D02*
X102584250Y-98425000D01*
X111728250Y-98425000D02*
X113506250Y-98425000D01*
X113506250Y-98425000D02*
X113506250Y-100203000D01*
X113506250Y-109347000D02*
X113506250Y-111125000D01*
X118268750Y-111125000D02*
X116490750Y-111125000D01*
X107346750Y-111125000D02*
X105568750Y-111125000D01*
X105568750Y-111125000D02*
X105568750Y-109347000D01*
X105568750Y-100203000D02*
X105568750Y-98425000D01*
X105568750Y-98425000D02*
X107346750Y-98425000D01*
X116490750Y-98425000D02*
X118268750Y-98425000D01*
X118268750Y-98425000D02*
X118268750Y-100203000D01*
X118268750Y-109347000D02*
X118268750Y-111125000D01*
X137318750Y-111125000D02*
X135540750Y-111125000D01*
X126396750Y-111125000D02*
X124618750Y-111125000D01*
X124618750Y-111125000D02*
X124618750Y-109347000D01*
X124618750Y-100203000D02*
X124618750Y-98425000D01*
X124618750Y-98425000D02*
X126396750Y-98425000D01*
X135540750Y-98425000D02*
X137318750Y-98425000D01*
X137318750Y-98425000D02*
X137318750Y-100203000D01*
X137318750Y-109347000D02*
X137318750Y-111125000D01*
X144462500Y-111125000D02*
X142684500Y-111125000D01*
X133540500Y-111125000D02*
X131762500Y-111125000D01*
X131762500Y-111125000D02*
X131762500Y-109347000D01*
X131762500Y-100203000D02*
X131762500Y-98425000D01*
X131762500Y-98425000D02*
X133540500Y-98425000D01*
X142684500Y-98425000D02*
X144462500Y-98425000D01*
X144462500Y-98425000D02*
X144462500Y-100203000D01*
X144462500Y-109347000D02*
X144462500Y-111125000D01*
X208756250Y-111125000D02*
X206978250Y-111125000D01*
X197834250Y-111125000D02*
X196056250Y-111125000D01*
X196056250Y-111125000D02*
X196056250Y-109347000D01*
X196056250Y-100203000D02*
X196056250Y-98425000D01*
X196056250Y-98425000D02*
X197834250Y-98425000D01*
X206978250Y-98425000D02*
X208756250Y-98425000D01*
X208756250Y-98425000D02*
X208756250Y-100203000D01*
X208756250Y-109347000D02*
X208756250Y-111125000D01*
X220662500Y-111125000D02*
X218884500Y-111125000D01*
X209740500Y-111125000D02*
X207962500Y-111125000D01*
X207962500Y-111125000D02*
X207962500Y-109347000D01*
X207962500Y-100203000D02*
X207962500Y-98425000D01*
X207962500Y-98425000D02*
X209740500Y-98425000D01*
X218884500Y-98425000D02*
X220662500Y-98425000D01*
X220662500Y-98425000D02*
X220662500Y-100203000D01*
X220662500Y-109347000D02*
X220662500Y-111125000D01*
X280193750Y-111125000D02*
X278415750Y-111125000D01*
X269271750Y-111125000D02*
X267493750Y-111125000D01*
X267493750Y-111125000D02*
X267493750Y-109347000D01*
X267493750Y-100203000D02*
X267493750Y-98425000D01*
X267493750Y-98425000D02*
X269271750Y-98425000D01*
X278415750Y-98425000D02*
X280193750Y-98425000D01*
X280193750Y-98425000D02*
X280193750Y-100203000D01*
X280193750Y-109347000D02*
X280193750Y-111125000D01*
X304006250Y-111125000D02*
X302228250Y-111125000D01*
X293084250Y-111125000D02*
X291306250Y-111125000D01*
X291306250Y-111125000D02*
X291306250Y-109347000D01*
X291306250Y-100203000D02*
X291306250Y-98425000D01*
X291306250Y-98425000D02*
X293084250Y-98425000D01*
X302228250Y-98425000D02*
X304006250Y-98425000D01*
X304006250Y-98425000D02*
X304006250Y-100203000D01*
X304006250Y-109347000D02*
X304006250Y-111125000D01*
X325437500Y-111125000D02*
X323659500Y-111125000D01*
X314515500Y-111125000D02*
X312737500Y-111125000D01*
X312737500Y-111125000D02*
X312737500Y-109347000D01*
X312737500Y-100203000D02*
X312737500Y-98425000D01*
X312737500Y-98425000D02*
X314515500Y-98425000D01*
X323659500Y-98425000D02*
X325437500Y-98425000D01*
X325437500Y-98425000D02*
X325437500Y-100203000D01*
X325437500Y-109347000D02*
X325437500Y-111125000D01*
X358775000Y-111125000D02*
X356997000Y-111125000D01*
X347853000Y-111125000D02*
X346075000Y-111125000D01*
X346075000Y-111125000D02*
X346075000Y-109347000D01*
X346075000Y-100203000D02*
X346075000Y-98425000D01*
X346075000Y-98425000D02*
X347853000Y-98425000D01*
X356997000Y-98425000D02*
X358775000Y-98425000D01*
X358775000Y-98425000D02*
X358775000Y-100203000D01*
X358775000Y-109347000D02*
X358775000Y-111125000D01*
X377825000Y-111125000D02*
X376047000Y-111125000D01*
X366903000Y-111125000D02*
X365125000Y-111125000D01*
X365125000Y-111125000D02*
X365125000Y-109347000D01*
X365125000Y-100203000D02*
X365125000Y-98425000D01*
X365125000Y-98425000D02*
X366903000Y-98425000D01*
X376047000Y-98425000D02*
X377825000Y-98425000D01*
X377825000Y-98425000D02*
X377825000Y-100203000D01*
X377825000Y-109347000D02*
X377825000Y-111125000D01*
X396875000Y-111125000D02*
X395097000Y-111125000D01*
X385953000Y-111125000D02*
X384175000Y-111125000D01*
X384175000Y-111125000D02*
X384175000Y-109347000D01*
X384175000Y-100203000D02*
X384175000Y-98425000D01*
X384175000Y-98425000D02*
X385953000Y-98425000D01*
X395097000Y-98425000D02*
X396875000Y-98425000D01*
X396875000Y-98425000D02*
X396875000Y-100203000D01*
X396875000Y-109347000D02*
X396875000Y-111125000D01*
X92075000Y-111125000D02*
X90297000Y-111125000D01*
X81153000Y-111125000D02*
X79375000Y-111125000D01*
X79375000Y-111125000D02*
X79375000Y-109347000D01*
X79375000Y-100203000D02*
X79375000Y-98425000D01*
X79375000Y-98425000D02*
X81153000Y-98425000D01*
X90297000Y-98425000D02*
X92075000Y-98425000D01*
X92075000Y-98425000D02*
X92075000Y-100203000D01*
X92075000Y-109347000D02*
X92075000Y-111125000D01*
X296862500Y-111125000D02*
X295084500Y-111125000D01*
X285940500Y-111125000D02*
X284162500Y-111125000D01*
X284162500Y-111125000D02*
X284162500Y-109347000D01*
X284162500Y-100203000D02*
X284162500Y-98425000D01*
X284162500Y-98425000D02*
X285940500Y-98425000D01*
X295084500Y-98425000D02*
X296862500Y-98425000D01*
X296862500Y-98425000D02*
X296862500Y-100203000D01*
X296862500Y-109347000D02*
X296862500Y-111125000D01*
X327818750Y-111125000D02*
X326040750Y-111125000D01*
X316896750Y-111125000D02*
X315118750Y-111125000D01*
X315118750Y-111125000D02*
X315118750Y-109347000D01*
X315118750Y-100203000D02*
X315118750Y-98425000D01*
X315118750Y-98425000D02*
X316896750Y-98425000D01*
X326040750Y-98425000D02*
X327818750Y-98425000D01*
X327818750Y-98425000D02*
X327818750Y-100203000D01*
X327818750Y-109347000D02*
X327818750Y-111125000D01*
D10*
X391525000Y-87725000D02*
X391925000Y-87725000D01*
X392525000Y-83725000D02*
X392525000Y-84225000D01*
X391525000Y-83725000D02*
X392525000Y-83725000D01*
X388525000Y-87725000D02*
X388525000Y-87125000D01*
X388525000Y-87725000D02*
X388925000Y-87725000D01*
X388925000Y-84325000D02*
X389525000Y-83725000D01*
X391525000Y-83725000D02*
X388925000Y-83725000D01*
X388925000Y-87725000D02*
X391525000Y-87725000D01*
X35067905Y-23661667D02*
X35544096Y-23661667D01*
X34972667Y-23947381D02*
X35306000Y-22947381D01*
X35639334Y-23947381D01*
X40632095Y-23947381D02*
X40632095Y-22947381D01*
X41203524Y-23947381D02*
X40774952Y-23375952D01*
X41203524Y-22947381D02*
X40632095Y-23518810D01*
X54117905Y-23661667D02*
X54594096Y-23661667D01*
X54022667Y-23947381D02*
X54356000Y-22947381D01*
X54689334Y-23947381D01*
X59682095Y-23947381D02*
X59682095Y-22947381D01*
X60253524Y-23947381D02*
X59824952Y-23375952D01*
X60253524Y-22947381D02*
X59682095Y-23518810D01*
X77930405Y-23661667D02*
X78406596Y-23661667D01*
X77835167Y-23947381D02*
X78168500Y-22947381D01*
X78501834Y-23947381D01*
X83494595Y-23947381D02*
X83494595Y-22947381D01*
X84066024Y-23947381D02*
X83637452Y-23375952D01*
X84066024Y-22947381D02*
X83494595Y-23518810D01*
X96980405Y-23661667D02*
X97456596Y-23661667D01*
X96885167Y-23947381D02*
X97218500Y-22947381D01*
X97551834Y-23947381D01*
X102544595Y-23947381D02*
X102544595Y-22947381D01*
X103116024Y-23947381D02*
X102687452Y-23375952D01*
X103116024Y-22947381D02*
X102544595Y-23518810D01*
X116030405Y-23661667D02*
X116506596Y-23661667D01*
X115935167Y-23947381D02*
X116268500Y-22947381D01*
X116601834Y-23947381D01*
X121594595Y-23947381D02*
X121594595Y-22947381D01*
X122166024Y-23947381D02*
X121737452Y-23375952D01*
X122166024Y-22947381D02*
X121594595Y-23518810D01*
X135080405Y-23661667D02*
X135556596Y-23661667D01*
X134985167Y-23947381D02*
X135318500Y-22947381D01*
X135651834Y-23947381D01*
X140644595Y-23947381D02*
X140644595Y-22947381D01*
X141216024Y-23947381D02*
X140787452Y-23375952D01*
X141216024Y-22947381D02*
X140644595Y-23518810D01*
X154130405Y-23661667D02*
X154606596Y-23661667D01*
X154035167Y-23947381D02*
X154368500Y-22947381D01*
X154701834Y-23947381D01*
X159694595Y-23947381D02*
X159694595Y-22947381D01*
X160266024Y-23947381D02*
X159837452Y-23375952D01*
X160266024Y-22947381D02*
X159694595Y-23518810D01*
X173180405Y-23661667D02*
X173656596Y-23661667D01*
X173085167Y-23947381D02*
X173418500Y-22947381D01*
X173751834Y-23947381D01*
X178744595Y-23947381D02*
X178744595Y-22947381D01*
X179316024Y-23947381D02*
X178887452Y-23375952D01*
X179316024Y-22947381D02*
X178744595Y-23518810D01*
X192230405Y-23661667D02*
X192706596Y-23661667D01*
X192135167Y-23947381D02*
X192468500Y-22947381D01*
X192801834Y-23947381D01*
X197794595Y-23947381D02*
X197794595Y-22947381D01*
X198366024Y-23947381D02*
X197937452Y-23375952D01*
X198366024Y-22947381D02*
X197794595Y-23518810D01*
X211280405Y-23661667D02*
X211756596Y-23661667D01*
X211185167Y-23947381D02*
X211518500Y-22947381D01*
X211851834Y-23947381D01*
X216844595Y-23947381D02*
X216844595Y-22947381D01*
X217416024Y-23947381D02*
X216987452Y-23375952D01*
X217416024Y-22947381D02*
X216844595Y-23518810D01*
X230330405Y-23661667D02*
X230806596Y-23661667D01*
X230235167Y-23947381D02*
X230568500Y-22947381D01*
X230901834Y-23947381D01*
X235894595Y-23947381D02*
X235894595Y-22947381D01*
X236466024Y-23947381D02*
X236037452Y-23375952D01*
X236466024Y-22947381D02*
X235894595Y-23518810D01*
X249380405Y-23661667D02*
X249856596Y-23661667D01*
X249285167Y-23947381D02*
X249618500Y-22947381D01*
X249951834Y-23947381D01*
X254944595Y-23947381D02*
X254944595Y-22947381D01*
X255516024Y-23947381D02*
X255087452Y-23375952D01*
X255516024Y-22947381D02*
X254944595Y-23518810D01*
X268430405Y-23661667D02*
X268906596Y-23661667D01*
X268335167Y-23947381D02*
X268668500Y-22947381D01*
X269001834Y-23947381D01*
X273994595Y-23947381D02*
X273994595Y-22947381D01*
X274566024Y-23947381D02*
X274137452Y-23375952D01*
X274566024Y-22947381D02*
X273994595Y-23518810D01*
X287480405Y-23661667D02*
X287956596Y-23661667D01*
X287385167Y-23947381D02*
X287718500Y-22947381D01*
X288051834Y-23947381D01*
X293044595Y-23947381D02*
X293044595Y-22947381D01*
X293616024Y-23947381D02*
X293187452Y-23375952D01*
X293616024Y-22947381D02*
X293044595Y-23518810D01*
X306530405Y-23661667D02*
X307006596Y-23661667D01*
X306435167Y-23947381D02*
X306768500Y-22947381D01*
X307101834Y-23947381D01*
X312094595Y-23947381D02*
X312094595Y-22947381D01*
X312666024Y-23947381D02*
X312237452Y-23375952D01*
X312666024Y-22947381D02*
X312094595Y-23518810D01*
X335105405Y-23661667D02*
X335581596Y-23661667D01*
X335010167Y-23947381D02*
X335343500Y-22947381D01*
X335676834Y-23947381D01*
X340669595Y-23947381D02*
X340669595Y-22947381D01*
X341241024Y-23947381D02*
X340812452Y-23375952D01*
X341241024Y-22947381D02*
X340669595Y-23518810D01*
X368442905Y-23661667D02*
X368919096Y-23661667D01*
X368347667Y-23947381D02*
X368681000Y-22947381D01*
X369014334Y-23947381D01*
X374007095Y-23947381D02*
X374007095Y-22947381D01*
X374578524Y-23947381D02*
X374149952Y-23375952D01*
X374578524Y-22947381D02*
X374007095Y-23518810D01*
X387492905Y-23661667D02*
X387969096Y-23661667D01*
X387397667Y-23947381D02*
X387731000Y-22947381D01*
X388064334Y-23947381D01*
X393057095Y-23947381D02*
X393057095Y-22947381D01*
X393628524Y-23947381D02*
X393199952Y-23375952D01*
X393628524Y-22947381D02*
X393057095Y-23518810D01*
X35067905Y-42711667D02*
X35544096Y-42711667D01*
X34972667Y-42997381D02*
X35306000Y-41997381D01*
X35639334Y-42997381D01*
X40632095Y-42997381D02*
X40632095Y-41997381D01*
X41203524Y-42997381D02*
X40774952Y-42425952D01*
X41203524Y-41997381D02*
X40632095Y-42568810D01*
X54117905Y-42711667D02*
X54594096Y-42711667D01*
X54022667Y-42997381D02*
X54356000Y-41997381D01*
X54689334Y-42997381D01*
X59682095Y-42997381D02*
X59682095Y-41997381D01*
X60253524Y-42997381D02*
X59824952Y-42425952D01*
X60253524Y-41997381D02*
X59682095Y-42568810D01*
X82692905Y-42711667D02*
X83169096Y-42711667D01*
X82597667Y-42997381D02*
X82931000Y-41997381D01*
X83264334Y-42997381D01*
X88257095Y-42997381D02*
X88257095Y-41997381D01*
X88828524Y-42997381D02*
X88399952Y-42425952D01*
X88828524Y-41997381D02*
X88257095Y-42568810D01*
X106505405Y-42711667D02*
X106981596Y-42711667D01*
X106410167Y-42997381D02*
X106743500Y-41997381D01*
X107076834Y-42997381D01*
X112069595Y-42997381D02*
X112069595Y-41997381D01*
X112641024Y-42997381D02*
X112212452Y-42425952D01*
X112641024Y-41997381D02*
X112069595Y-42568810D01*
X125555405Y-42711667D02*
X126031596Y-42711667D01*
X125460167Y-42997381D02*
X125793500Y-41997381D01*
X126126834Y-42997381D01*
X131119595Y-42997381D02*
X131119595Y-41997381D01*
X131691024Y-42997381D02*
X131262452Y-42425952D01*
X131691024Y-41997381D02*
X131119595Y-42568810D01*
X144605405Y-42711667D02*
X145081596Y-42711667D01*
X144510167Y-42997381D02*
X144843500Y-41997381D01*
X145176834Y-42997381D01*
X150169595Y-42997381D02*
X150169595Y-41997381D01*
X150741024Y-42997381D02*
X150312452Y-42425952D01*
X150741024Y-41997381D02*
X150169595Y-42568810D01*
X163655405Y-42711667D02*
X164131596Y-42711667D01*
X163560167Y-42997381D02*
X163893500Y-41997381D01*
X164226834Y-42997381D01*
X169219595Y-42997381D02*
X169219595Y-41997381D01*
X169791024Y-42997381D02*
X169362452Y-42425952D01*
X169791024Y-41997381D02*
X169219595Y-42568810D01*
X182705405Y-42711667D02*
X183181596Y-42711667D01*
X182610167Y-42997381D02*
X182943500Y-41997381D01*
X183276834Y-42997381D01*
X188269595Y-42997381D02*
X188269595Y-41997381D01*
X188841024Y-42997381D02*
X188412452Y-42425952D01*
X188841024Y-41997381D02*
X188269595Y-42568810D01*
X201755405Y-42711667D02*
X202231596Y-42711667D01*
X201660167Y-42997381D02*
X201993500Y-41997381D01*
X202326834Y-42997381D01*
X207319595Y-42997381D02*
X207319595Y-41997381D01*
X207891024Y-42997381D02*
X207462452Y-42425952D01*
X207891024Y-41997381D02*
X207319595Y-42568810D01*
X220805405Y-42711667D02*
X221281596Y-42711667D01*
X220710167Y-42997381D02*
X221043500Y-41997381D01*
X221376834Y-42997381D01*
X226369595Y-42997381D02*
X226369595Y-41997381D01*
X226941024Y-42997381D02*
X226512452Y-42425952D01*
X226941024Y-41997381D02*
X226369595Y-42568810D01*
X239855405Y-42711667D02*
X240331596Y-42711667D01*
X239760167Y-42997381D02*
X240093500Y-41997381D01*
X240426834Y-42997381D01*
X245419595Y-42997381D02*
X245419595Y-41997381D01*
X245991024Y-42997381D02*
X245562452Y-42425952D01*
X245991024Y-41997381D02*
X245419595Y-42568810D01*
X258905405Y-42711667D02*
X259381596Y-42711667D01*
X258810167Y-42997381D02*
X259143500Y-41997381D01*
X259476834Y-42997381D01*
X264469595Y-42997381D02*
X264469595Y-41997381D01*
X265041024Y-42997381D02*
X264612452Y-42425952D01*
X265041024Y-41997381D02*
X264469595Y-42568810D01*
X277955405Y-42711667D02*
X278431596Y-42711667D01*
X277860167Y-42997381D02*
X278193500Y-41997381D01*
X278526834Y-42997381D01*
X283519595Y-42997381D02*
X283519595Y-41997381D01*
X284091024Y-42997381D02*
X283662452Y-42425952D01*
X284091024Y-41997381D02*
X283519595Y-42568810D01*
X297005405Y-42711667D02*
X297481596Y-42711667D01*
X296910167Y-42997381D02*
X297243500Y-41997381D01*
X297576834Y-42997381D01*
X302569595Y-42997381D02*
X302569595Y-41997381D01*
X303141024Y-42997381D02*
X302712452Y-42425952D01*
X303141024Y-41997381D02*
X302569595Y-42568810D01*
X316055405Y-42711667D02*
X316531596Y-42711667D01*
X315960167Y-42997381D02*
X316293500Y-41997381D01*
X316626834Y-42997381D01*
X321619595Y-42997381D02*
X321619595Y-41997381D01*
X322191024Y-42997381D02*
X321762452Y-42425952D01*
X322191024Y-41997381D02*
X321619595Y-42568810D01*
X339867905Y-42711667D02*
X340344096Y-42711667D01*
X339772667Y-42997381D02*
X340106000Y-41997381D01*
X340439334Y-42997381D01*
X345432095Y-42997381D02*
X345432095Y-41997381D01*
X346003524Y-42997381D02*
X345574952Y-42425952D01*
X346003524Y-41997381D02*
X345432095Y-42568810D01*
X340367917Y-60182095D02*
X340367917Y-59705904D01*
X340653631Y-60277333D02*
X339653631Y-59944000D01*
X340653631Y-59610666D01*
X340653631Y-54617905D02*
X339653631Y-54617905D01*
X340653631Y-54046476D02*
X340082202Y-54475048D01*
X339653631Y-54046476D02*
X340225060Y-54617905D01*
X368442905Y-42711667D02*
X368919096Y-42711667D01*
X368347667Y-42997381D02*
X368681000Y-41997381D01*
X369014334Y-42997381D01*
X374007095Y-42997381D02*
X374007095Y-41997381D01*
X374578524Y-42997381D02*
X374149952Y-42425952D01*
X374578524Y-41997381D02*
X374007095Y-42568810D01*
X387492905Y-42711667D02*
X387969096Y-42711667D01*
X387397667Y-42997381D02*
X387731000Y-41997381D01*
X388064334Y-42997381D01*
X393057095Y-42997381D02*
X393057095Y-41997381D01*
X393628524Y-42997381D02*
X393199952Y-42425952D01*
X393628524Y-41997381D02*
X393057095Y-42568810D01*
X35067905Y-61761667D02*
X35544096Y-61761667D01*
X34972667Y-62047381D02*
X35306000Y-61047381D01*
X35639334Y-62047381D01*
X40632095Y-62047381D02*
X40632095Y-61047381D01*
X41203524Y-62047381D02*
X40774952Y-61475952D01*
X41203524Y-61047381D02*
X40632095Y-61618810D01*
X54117905Y-61761667D02*
X54594096Y-61761667D01*
X54022667Y-62047381D02*
X54356000Y-61047381D01*
X54689334Y-62047381D01*
X59682095Y-62047381D02*
X59682095Y-61047381D01*
X60253524Y-62047381D02*
X59824952Y-61475952D01*
X60253524Y-61047381D02*
X59682095Y-61618810D01*
X111267905Y-61761667D02*
X111744096Y-61761667D01*
X111172667Y-62047381D02*
X111506000Y-61047381D01*
X111839334Y-62047381D01*
X116832095Y-62047381D02*
X116832095Y-61047381D01*
X117403524Y-62047381D02*
X116974952Y-61475952D01*
X117403524Y-61047381D02*
X116832095Y-61618810D01*
X130317905Y-61761667D02*
X130794096Y-61761667D01*
X130222667Y-62047381D02*
X130556000Y-61047381D01*
X130889334Y-62047381D01*
X135882095Y-62047381D02*
X135882095Y-61047381D01*
X136453524Y-62047381D02*
X136024952Y-61475952D01*
X136453524Y-61047381D02*
X135882095Y-61618810D01*
X149367905Y-61761667D02*
X149844096Y-61761667D01*
X149272667Y-62047381D02*
X149606000Y-61047381D01*
X149939334Y-62047381D01*
X154932095Y-62047381D02*
X154932095Y-61047381D01*
X155503524Y-62047381D02*
X155074952Y-61475952D01*
X155503524Y-61047381D02*
X154932095Y-61618810D01*
X168417905Y-61761667D02*
X168894096Y-61761667D01*
X168322667Y-62047381D02*
X168656000Y-61047381D01*
X168989334Y-62047381D01*
X173982095Y-62047381D02*
X173982095Y-61047381D01*
X174553524Y-62047381D02*
X174124952Y-61475952D01*
X174553524Y-61047381D02*
X173982095Y-61618810D01*
X187467905Y-61761667D02*
X187944096Y-61761667D01*
X187372667Y-62047381D02*
X187706000Y-61047381D01*
X188039334Y-62047381D01*
X193032095Y-62047381D02*
X193032095Y-61047381D01*
X193603524Y-62047381D02*
X193174952Y-61475952D01*
X193603524Y-61047381D02*
X193032095Y-61618810D01*
X206517905Y-61761667D02*
X206994096Y-61761667D01*
X206422667Y-62047381D02*
X206756000Y-61047381D01*
X207089334Y-62047381D01*
X212082095Y-62047381D02*
X212082095Y-61047381D01*
X212653524Y-62047381D02*
X212224952Y-61475952D01*
X212653524Y-61047381D02*
X212082095Y-61618810D01*
X225567905Y-61761667D02*
X226044096Y-61761667D01*
X225472667Y-62047381D02*
X225806000Y-61047381D01*
X226139334Y-62047381D01*
X231132095Y-62047381D02*
X231132095Y-61047381D01*
X231703524Y-62047381D02*
X231274952Y-61475952D01*
X231703524Y-61047381D02*
X231132095Y-61618810D01*
X244617905Y-61761667D02*
X245094096Y-61761667D01*
X244522667Y-62047381D02*
X244856000Y-61047381D01*
X245189334Y-62047381D01*
X250182095Y-62047381D02*
X250182095Y-61047381D01*
X250753524Y-62047381D02*
X250324952Y-61475952D01*
X250753524Y-61047381D02*
X250182095Y-61618810D01*
X263667905Y-61761667D02*
X264144096Y-61761667D01*
X263572667Y-62047381D02*
X263906000Y-61047381D01*
X264239334Y-62047381D01*
X269232095Y-62047381D02*
X269232095Y-61047381D01*
X269803524Y-62047381D02*
X269374952Y-61475952D01*
X269803524Y-61047381D02*
X269232095Y-61618810D01*
X282717905Y-61761667D02*
X283194096Y-61761667D01*
X282622667Y-62047381D02*
X282956000Y-61047381D01*
X283289334Y-62047381D01*
X288282095Y-62047381D02*
X288282095Y-61047381D01*
X288853524Y-62047381D02*
X288424952Y-61475952D01*
X288853524Y-61047381D02*
X288282095Y-61618810D01*
X301767905Y-61761667D02*
X302244096Y-61761667D01*
X301672667Y-62047381D02*
X302006000Y-61047381D01*
X302339334Y-62047381D01*
X307332095Y-62047381D02*
X307332095Y-61047381D01*
X307903524Y-62047381D02*
X307474952Y-61475952D01*
X307903524Y-61047381D02*
X307332095Y-61618810D01*
X332724155Y-61761667D02*
X333200346Y-61761667D01*
X332628917Y-62047381D02*
X332962250Y-61047381D01*
X333295584Y-62047381D01*
X338288345Y-62047381D02*
X338288345Y-61047381D01*
X338859774Y-62047381D02*
X338431202Y-61475952D01*
X338859774Y-61047381D02*
X338288345Y-61618810D01*
X320817905Y-61761667D02*
X321294096Y-61761667D01*
X320722667Y-62047381D02*
X321056000Y-61047381D01*
X321389334Y-62047381D01*
X326382095Y-62047381D02*
X326382095Y-61047381D01*
X326953524Y-62047381D02*
X326524952Y-61475952D01*
X326953524Y-61047381D02*
X326382095Y-61618810D01*
X35067905Y-80811667D02*
X35544096Y-80811667D01*
X34972667Y-81097381D02*
X35306000Y-80097381D01*
X35639334Y-81097381D01*
X40632095Y-81097381D02*
X40632095Y-80097381D01*
X41203524Y-81097381D02*
X40774952Y-80525952D01*
X41203524Y-80097381D02*
X40632095Y-80668810D01*
X54117905Y-80811667D02*
X54594096Y-80811667D01*
X54022667Y-81097381D02*
X54356000Y-80097381D01*
X54689334Y-81097381D01*
X59682095Y-81097381D02*
X59682095Y-80097381D01*
X60253524Y-81097381D02*
X59824952Y-80525952D01*
X60253524Y-80097381D02*
X59682095Y-80668810D01*
X89836655Y-80811667D02*
X90312846Y-80811667D01*
X89741417Y-81097381D02*
X90074750Y-80097381D01*
X90408084Y-81097381D01*
X95400845Y-81097381D02*
X95400845Y-80097381D01*
X95972274Y-81097381D02*
X95543702Y-80525952D01*
X95972274Y-80097381D02*
X95400845Y-80668810D01*
X80311655Y-80811667D02*
X80787846Y-80811667D01*
X80216417Y-81097381D02*
X80549750Y-80097381D01*
X80883084Y-81097381D01*
X85875845Y-81097381D02*
X85875845Y-80097381D01*
X86447274Y-81097381D02*
X86018702Y-80525952D01*
X86447274Y-80097381D02*
X85875845Y-80668810D01*
X101742905Y-80811667D02*
X102219096Y-80811667D01*
X101647667Y-81097381D02*
X101981000Y-80097381D01*
X102314334Y-81097381D01*
X107307095Y-81097381D02*
X107307095Y-80097381D01*
X107878524Y-81097381D02*
X107449952Y-80525952D01*
X107878524Y-80097381D02*
X107307095Y-80668810D01*
X120792905Y-80811667D02*
X121269096Y-80811667D01*
X120697667Y-81097381D02*
X121031000Y-80097381D01*
X121364334Y-81097381D01*
X126357095Y-81097381D02*
X126357095Y-80097381D01*
X126928524Y-81097381D02*
X126499952Y-80525952D01*
X126928524Y-80097381D02*
X126357095Y-80668810D01*
X139842905Y-80811667D02*
X140319096Y-80811667D01*
X139747667Y-81097381D02*
X140081000Y-80097381D01*
X140414334Y-81097381D01*
X145407095Y-81097381D02*
X145407095Y-80097381D01*
X145978524Y-81097381D02*
X145549952Y-80525952D01*
X145978524Y-80097381D02*
X145407095Y-80668810D01*
X158892905Y-80811667D02*
X159369096Y-80811667D01*
X158797667Y-81097381D02*
X159131000Y-80097381D01*
X159464334Y-81097381D01*
X164457095Y-81097381D02*
X164457095Y-80097381D01*
X165028524Y-81097381D02*
X164599952Y-80525952D01*
X165028524Y-80097381D02*
X164457095Y-80668810D01*
X177942905Y-80811667D02*
X178419096Y-80811667D01*
X177847667Y-81097381D02*
X178181000Y-80097381D01*
X178514334Y-81097381D01*
X183507095Y-81097381D02*
X183507095Y-80097381D01*
X184078524Y-81097381D02*
X183649952Y-80525952D01*
X184078524Y-80097381D02*
X183507095Y-80668810D01*
X196992905Y-80811667D02*
X197469096Y-80811667D01*
X196897667Y-81097381D02*
X197231000Y-80097381D01*
X197564334Y-81097381D01*
X202557095Y-81097381D02*
X202557095Y-80097381D01*
X203128524Y-81097381D02*
X202699952Y-80525952D01*
X203128524Y-80097381D02*
X202557095Y-80668810D01*
X216042905Y-80811667D02*
X216519096Y-80811667D01*
X215947667Y-81097381D02*
X216281000Y-80097381D01*
X216614334Y-81097381D01*
X221607095Y-81097381D02*
X221607095Y-80097381D01*
X222178524Y-81097381D02*
X221749952Y-80525952D01*
X222178524Y-80097381D02*
X221607095Y-80668810D01*
X235092905Y-80811667D02*
X235569096Y-80811667D01*
X234997667Y-81097381D02*
X235331000Y-80097381D01*
X235664334Y-81097381D01*
X240657095Y-81097381D02*
X240657095Y-80097381D01*
X241228524Y-81097381D02*
X240799952Y-80525952D01*
X241228524Y-80097381D02*
X240657095Y-80668810D01*
X254142905Y-80811667D02*
X254619096Y-80811667D01*
X254047667Y-81097381D02*
X254381000Y-80097381D01*
X254714334Y-81097381D01*
X259707095Y-81097381D02*
X259707095Y-80097381D01*
X260278524Y-81097381D02*
X259849952Y-80525952D01*
X260278524Y-80097381D02*
X259707095Y-80668810D01*
X273192905Y-80811667D02*
X273669096Y-80811667D01*
X273097667Y-81097381D02*
X273431000Y-80097381D01*
X273764334Y-81097381D01*
X278757095Y-81097381D02*
X278757095Y-80097381D01*
X279328524Y-81097381D02*
X278899952Y-80525952D01*
X279328524Y-80097381D02*
X278757095Y-80668810D01*
X292242905Y-80811667D02*
X292719096Y-80811667D01*
X292147667Y-81097381D02*
X292481000Y-80097381D01*
X292814334Y-81097381D01*
X297807095Y-81097381D02*
X297807095Y-80097381D01*
X298378524Y-81097381D02*
X297949952Y-80525952D01*
X298378524Y-80097381D02*
X297807095Y-80668810D01*
X327961655Y-80811667D02*
X328437846Y-80811667D01*
X327866417Y-81097381D02*
X328199750Y-80097381D01*
X328533084Y-81097381D01*
X333525845Y-81097381D02*
X333525845Y-80097381D01*
X334097274Y-81097381D02*
X333668702Y-80525952D01*
X334097274Y-80097381D02*
X333525845Y-80668810D01*
X368442905Y-80811667D02*
X368919096Y-80811667D01*
X368347667Y-81097381D02*
X368681000Y-80097381D01*
X369014334Y-81097381D01*
X374007095Y-81097381D02*
X374007095Y-80097381D01*
X374578524Y-81097381D02*
X374149952Y-80525952D01*
X374578524Y-80097381D02*
X374007095Y-80668810D01*
X35067905Y-99861667D02*
X35544096Y-99861667D01*
X34972667Y-100147381D02*
X35306000Y-99147381D01*
X35639334Y-100147381D01*
X40632095Y-100147381D02*
X40632095Y-99147381D01*
X41203524Y-100147381D02*
X40774952Y-99575952D01*
X41203524Y-99147381D02*
X40632095Y-99718810D01*
X54117905Y-99861667D02*
X54594096Y-99861667D01*
X54022667Y-100147381D02*
X54356000Y-99147381D01*
X54689334Y-100147381D01*
X59682095Y-100147381D02*
X59682095Y-99147381D01*
X60253524Y-100147381D02*
X59824952Y-99575952D01*
X60253524Y-99147381D02*
X59682095Y-99718810D01*
X80311655Y-99861667D02*
X80787846Y-99861667D01*
X80216417Y-100147381D02*
X80549750Y-99147381D01*
X80883084Y-100147381D01*
X85875845Y-100147381D02*
X85875845Y-99147381D01*
X86447274Y-100147381D02*
X86018702Y-99575952D01*
X86447274Y-99147381D02*
X85875845Y-99718810D01*
X104124155Y-99861667D02*
X104600346Y-99861667D01*
X104028917Y-100147381D02*
X104362250Y-99147381D01*
X104695584Y-100147381D01*
X109688345Y-100147381D02*
X109688345Y-99147381D01*
X110259774Y-100147381D02*
X109831202Y-99575952D01*
X110259774Y-99147381D02*
X109688345Y-99718810D01*
X108886655Y-99861667D02*
X109362846Y-99861667D01*
X108791417Y-100147381D02*
X109124750Y-99147381D01*
X109458084Y-100147381D01*
X114450845Y-100147381D02*
X114450845Y-99147381D01*
X115022274Y-100147381D02*
X114593702Y-99575952D01*
X115022274Y-99147381D02*
X114450845Y-99718810D01*
X127936655Y-99861667D02*
X128412846Y-99861667D01*
X127841417Y-100147381D02*
X128174750Y-99147381D01*
X128508084Y-100147381D01*
X133500845Y-100147381D02*
X133500845Y-99147381D01*
X134072274Y-100147381D02*
X133643702Y-99575952D01*
X134072274Y-99147381D02*
X133500845Y-99718810D01*
X135080405Y-99861667D02*
X135556596Y-99861667D01*
X134985167Y-100147381D02*
X135318500Y-99147381D01*
X135651834Y-100147381D01*
X140644595Y-100147381D02*
X140644595Y-99147381D01*
X141216024Y-100147381D02*
X140787452Y-99575952D01*
X141216024Y-99147381D02*
X140644595Y-99718810D01*
X199374155Y-99861667D02*
X199850346Y-99861667D01*
X199278917Y-100147381D02*
X199612250Y-99147381D01*
X199945584Y-100147381D01*
X204938345Y-100147381D02*
X204938345Y-99147381D01*
X205509774Y-100147381D02*
X205081202Y-99575952D01*
X205509774Y-99147381D02*
X204938345Y-99718810D01*
X211280405Y-99861667D02*
X211756596Y-99861667D01*
X211185167Y-100147381D02*
X211518500Y-99147381D01*
X211851834Y-100147381D01*
X216844595Y-100147381D02*
X216844595Y-99147381D01*
X217416024Y-100147381D02*
X216987452Y-99575952D01*
X217416024Y-99147381D02*
X216844595Y-99718810D01*
X270811655Y-99861667D02*
X271287846Y-99861667D01*
X270716417Y-100147381D02*
X271049750Y-99147381D01*
X271383084Y-100147381D01*
X276375845Y-100147381D02*
X276375845Y-99147381D01*
X276947274Y-100147381D02*
X276518702Y-99575952D01*
X276947274Y-99147381D02*
X276375845Y-99718810D01*
X294624155Y-99861667D02*
X295100346Y-99861667D01*
X294528917Y-100147381D02*
X294862250Y-99147381D01*
X295195584Y-100147381D01*
X300188345Y-100147381D02*
X300188345Y-99147381D01*
X300759774Y-100147381D02*
X300331202Y-99575952D01*
X300759774Y-99147381D02*
X300188345Y-99718810D01*
X316055405Y-99861667D02*
X316531596Y-99861667D01*
X315960167Y-100147381D02*
X316293500Y-99147381D01*
X316626834Y-100147381D01*
X321619595Y-100147381D02*
X321619595Y-99147381D01*
X322191024Y-100147381D02*
X321762452Y-99575952D01*
X322191024Y-99147381D02*
X321619595Y-99718810D01*
X349392905Y-99861667D02*
X349869096Y-99861667D01*
X349297667Y-100147381D02*
X349631000Y-99147381D01*
X349964334Y-100147381D01*
X354957095Y-100147381D02*
X354957095Y-99147381D01*
X355528524Y-100147381D02*
X355099952Y-99575952D01*
X355528524Y-99147381D02*
X354957095Y-99718810D01*
X368442905Y-99861667D02*
X368919096Y-99861667D01*
X368347667Y-100147381D02*
X368681000Y-99147381D01*
X369014334Y-100147381D01*
X374007095Y-100147381D02*
X374007095Y-99147381D01*
X374578524Y-100147381D02*
X374149952Y-99575952D01*
X374578524Y-99147381D02*
X374007095Y-99718810D01*
X387492905Y-99861667D02*
X387969096Y-99861667D01*
X387397667Y-100147381D02*
X387731000Y-99147381D01*
X388064334Y-100147381D01*
X393057095Y-100147381D02*
X393057095Y-99147381D01*
X393628524Y-100147381D02*
X393199952Y-99575952D01*
X393628524Y-99147381D02*
X393057095Y-99718810D01*
X387477381Y-87267857D02*
X387001190Y-87601191D01*
X387477381Y-87839286D02*
X386477381Y-87839286D01*
X386477381Y-87458333D01*
X386525000Y-87363095D01*
X386572619Y-87315476D01*
X386667857Y-87267857D01*
X386810714Y-87267857D01*
X386905952Y-87315476D01*
X386953571Y-87363095D01*
X387001190Y-87458333D01*
X387001190Y-87839286D01*
X386525000Y-86315476D02*
X386477381Y-86410714D01*
X386477381Y-86553571D01*
X386525000Y-86696429D01*
X386620238Y-86791667D01*
X386715476Y-86839286D01*
X386905952Y-86886905D01*
X387048810Y-86886905D01*
X387239286Y-86839286D01*
X387334524Y-86791667D01*
X387429762Y-86696429D01*
X387477381Y-86553571D01*
X387477381Y-86458333D01*
X387429762Y-86315476D01*
X387382143Y-86267857D01*
X387048810Y-86267857D01*
X387048810Y-86458333D01*
X386953571Y-85505952D02*
X387001190Y-85363095D01*
X387048810Y-85315476D01*
X387144048Y-85267857D01*
X387286905Y-85267857D01*
X387382143Y-85315476D01*
X387429762Y-85363095D01*
X387477381Y-85458333D01*
X387477381Y-85839286D01*
X386477381Y-85839286D01*
X386477381Y-85505952D01*
X386525000Y-85410714D01*
X386572619Y-85363095D01*
X386667857Y-85315476D01*
X386763095Y-85315476D01*
X386858333Y-85363095D01*
X386905952Y-85410714D01*
X386953571Y-85505952D01*
X386953571Y-85839286D01*
X386477381Y-84934524D02*
X386477381Y-84315476D01*
X386858333Y-84648810D01*
X386858333Y-84505952D01*
X386905952Y-84410714D01*
X386953571Y-84363095D01*
X387048810Y-84315476D01*
X387286905Y-84315476D01*
X387382143Y-84363095D01*
X387429762Y-84410714D01*
X387477381Y-84505952D01*
X387477381Y-84791667D01*
X387429762Y-84886905D01*
X387382143Y-84934524D01*
X386477381Y-83982143D02*
X386477381Y-83363095D01*
X386858333Y-83696429D01*
X386858333Y-83553571D01*
X386905952Y-83458333D01*
X386953571Y-83410714D01*
X387048810Y-83363095D01*
X387286905Y-83363095D01*
X387382143Y-83410714D01*
X387429762Y-83458333D01*
X387477381Y-83553571D01*
X387477381Y-83839286D01*
X387429762Y-83934524D01*
X387382143Y-83982143D01*
X388977381Y-88015476D02*
X388501190Y-88348810D01*
X388977381Y-88586905D02*
X387977381Y-88586905D01*
X387977381Y-88205952D01*
X388025000Y-88110714D01*
X388072619Y-88063095D01*
X388167857Y-88015476D01*
X388310714Y-88015476D01*
X388405952Y-88063095D01*
X388453571Y-88110714D01*
X388501190Y-88205952D01*
X388501190Y-88586905D01*
X392053571Y-83153571D02*
X392101190Y-83010714D01*
X392148810Y-82963095D01*
X392244048Y-82915476D01*
X392386905Y-82915476D01*
X392482143Y-82963095D01*
X392529762Y-83010714D01*
X392577381Y-83105952D01*
X392577381Y-83486905D01*
X391577381Y-83486905D01*
X391577381Y-83153571D01*
X391625000Y-83058333D01*
X391672619Y-83010714D01*
X391767857Y-82963095D01*
X391863095Y-82963095D01*
X391958333Y-83010714D01*
X392005952Y-83058333D01*
X392053571Y-83153571D01*
X392053571Y-83486905D01*
X391525000Y-88463095D02*
X391477381Y-88558333D01*
X391477381Y-88701190D01*
X391525000Y-88844048D01*
X391620238Y-88939286D01*
X391715476Y-88986905D01*
X391905952Y-89034524D01*
X392048810Y-89034524D01*
X392239286Y-88986905D01*
X392334524Y-88939286D01*
X392429762Y-88844048D01*
X392477381Y-88701190D01*
X392477381Y-88605952D01*
X392429762Y-88463095D01*
X392382143Y-88415476D01*
X392048810Y-88415476D01*
X392048810Y-88605952D01*
X388691667Y-83063095D02*
X388691667Y-82586904D01*
X388977381Y-83158333D02*
X387977381Y-82825000D01*
X388977381Y-82491666D01*
%LPC*%
D13*
X83343750Y-66675000D03*
D14*
X88423750Y-66675000D03*
X78263750Y-66675000D03*
D15*
X87154203Y-69215046D02*
X86343297Y-70674954D01*
X80843474Y-71175672D02*
X80804026Y-71754328D01*
D16*
X84613750Y-61595000D03*
D17*
X82073750Y-61595000D03*
D18*
X101600000Y-66675000D03*
D13*
X38100000Y-28575000D03*
D14*
X43180000Y-28575000D03*
X33020000Y-28575000D03*
D15*
X41910453Y-31115046D02*
X41099547Y-32574954D01*
X35599724Y-33075672D02*
X35560276Y-33654328D01*
D16*
X39370000Y-23495000D03*
D17*
X36830000Y-23495000D03*
D13*
X57150000Y-28575000D03*
D14*
X62230000Y-28575000D03*
X52070000Y-28575000D03*
D15*
X60960453Y-31115046D02*
X60149547Y-32574954D01*
X54649724Y-33075672D02*
X54610276Y-33654328D01*
D16*
X58420000Y-23495000D03*
D17*
X55880000Y-23495000D03*
D13*
X80962500Y-28575000D03*
D14*
X86042500Y-28575000D03*
X75882500Y-28575000D03*
D15*
X84772953Y-31115046D02*
X83962047Y-32574954D01*
X78462224Y-33075672D02*
X78422776Y-33654328D01*
D16*
X82232500Y-23495000D03*
D17*
X79692500Y-23495000D03*
D13*
X100012500Y-28575000D03*
D14*
X105092500Y-28575000D03*
X94932500Y-28575000D03*
D15*
X103822953Y-31115046D02*
X103012047Y-32574954D01*
X97512224Y-33075672D02*
X97472776Y-33654328D01*
D16*
X101282500Y-23495000D03*
D17*
X98742500Y-23495000D03*
D13*
X119062500Y-28575000D03*
D14*
X124142500Y-28575000D03*
X113982500Y-28575000D03*
D15*
X122872953Y-31115046D02*
X122062047Y-32574954D01*
X116562224Y-33075672D02*
X116522776Y-33654328D01*
D16*
X120332500Y-23495000D03*
D17*
X117792500Y-23495000D03*
D13*
X138112500Y-28575000D03*
D14*
X143192500Y-28575000D03*
X133032500Y-28575000D03*
D15*
X141922953Y-31115046D02*
X141112047Y-32574954D01*
X135612224Y-33075672D02*
X135572776Y-33654328D01*
D16*
X139382500Y-23495000D03*
D17*
X136842500Y-23495000D03*
D13*
X157162500Y-28575000D03*
D14*
X162242500Y-28575000D03*
X152082500Y-28575000D03*
D15*
X160972953Y-31115046D02*
X160162047Y-32574954D01*
X154662224Y-33075672D02*
X154622776Y-33654328D01*
D16*
X158432500Y-23495000D03*
D17*
X155892500Y-23495000D03*
D13*
X176212500Y-28575000D03*
D14*
X181292500Y-28575000D03*
X171132500Y-28575000D03*
D15*
X180022953Y-31115046D02*
X179212047Y-32574954D01*
X173712224Y-33075672D02*
X173672776Y-33654328D01*
D16*
X177482500Y-23495000D03*
D17*
X174942500Y-23495000D03*
D13*
X195262500Y-28575000D03*
D14*
X200342500Y-28575000D03*
X190182500Y-28575000D03*
D15*
X199072953Y-31115046D02*
X198262047Y-32574954D01*
X192762224Y-33075672D02*
X192722776Y-33654328D01*
D16*
X196532500Y-23495000D03*
D17*
X193992500Y-23495000D03*
D13*
X214312500Y-28575000D03*
D14*
X219392500Y-28575000D03*
X209232500Y-28575000D03*
D15*
X218122953Y-31115046D02*
X217312047Y-32574954D01*
X211812224Y-33075672D02*
X211772776Y-33654328D01*
D16*
X215582500Y-23495000D03*
D17*
X213042500Y-23495000D03*
D13*
X233362500Y-28575000D03*
D14*
X238442500Y-28575000D03*
X228282500Y-28575000D03*
D15*
X237172953Y-31115046D02*
X236362047Y-32574954D01*
X230862224Y-33075672D02*
X230822776Y-33654328D01*
D16*
X234632500Y-23495000D03*
D17*
X232092500Y-23495000D03*
D13*
X252412500Y-28575000D03*
D14*
X257492500Y-28575000D03*
X247332500Y-28575000D03*
D15*
X256222953Y-31115046D02*
X255412047Y-32574954D01*
X249912224Y-33075672D02*
X249872776Y-33654328D01*
D16*
X253682500Y-23495000D03*
D17*
X251142500Y-23495000D03*
D13*
X271462500Y-28575000D03*
D14*
X276542500Y-28575000D03*
X266382500Y-28575000D03*
D15*
X275272953Y-31115046D02*
X274462047Y-32574954D01*
X268962224Y-33075672D02*
X268922776Y-33654328D01*
D16*
X272732500Y-23495000D03*
D17*
X270192500Y-23495000D03*
D13*
X290512500Y-28575000D03*
D14*
X295592500Y-28575000D03*
X285432500Y-28575000D03*
D15*
X294322953Y-31115046D02*
X293512047Y-32574954D01*
X288012224Y-33075672D02*
X287972776Y-33654328D01*
D16*
X291782500Y-23495000D03*
D17*
X289242500Y-23495000D03*
D13*
X309562500Y-28575000D03*
D14*
X314642500Y-28575000D03*
X304482500Y-28575000D03*
D15*
X313372953Y-31115046D02*
X312562047Y-32574954D01*
X307062224Y-33075672D02*
X307022776Y-33654328D01*
D16*
X310832500Y-23495000D03*
D17*
X308292500Y-23495000D03*
D13*
X338137500Y-28575000D03*
D14*
X343217500Y-28575000D03*
X333057500Y-28575000D03*
D15*
X341947953Y-31115046D02*
X341137047Y-32574954D01*
X335637224Y-33075672D02*
X335597776Y-33654328D01*
D16*
X339407500Y-23495000D03*
D17*
X336867500Y-23495000D03*
D13*
X371475000Y-28575000D03*
D14*
X376555000Y-28575000D03*
X366395000Y-28575000D03*
D15*
X375285453Y-31115046D02*
X374474547Y-32574954D01*
X368974724Y-33075672D02*
X368935276Y-33654328D01*
D16*
X372745000Y-23495000D03*
D17*
X370205000Y-23495000D03*
D13*
X390525000Y-28575000D03*
D14*
X395605000Y-28575000D03*
X385445000Y-28575000D03*
D15*
X394335453Y-31115046D02*
X393524547Y-32574954D01*
X388024724Y-33075672D02*
X387985276Y-33654328D01*
D16*
X391795000Y-23495000D03*
D17*
X389255000Y-23495000D03*
D13*
X38100000Y-47625000D03*
D14*
X43180000Y-47625000D03*
X33020000Y-47625000D03*
D15*
X41910453Y-50165046D02*
X41099547Y-51624954D01*
X35599724Y-52125672D02*
X35560276Y-52704328D01*
D16*
X39370000Y-42545000D03*
D17*
X36830000Y-42545000D03*
D13*
X57150000Y-47625000D03*
D14*
X62230000Y-47625000D03*
X52070000Y-47625000D03*
D15*
X60960453Y-50165046D02*
X60149547Y-51624954D01*
X54649724Y-52125672D02*
X54610276Y-52704328D01*
D16*
X58420000Y-42545000D03*
D17*
X55880000Y-42545000D03*
D13*
X85725000Y-47625000D03*
D14*
X90805000Y-47625000D03*
X80645000Y-47625000D03*
D15*
X89535453Y-50165046D02*
X88724547Y-51624954D01*
X83224724Y-52125672D02*
X83185276Y-52704328D01*
D16*
X86995000Y-42545000D03*
D17*
X84455000Y-42545000D03*
D13*
X109537500Y-47625000D03*
D14*
X114617500Y-47625000D03*
X104457500Y-47625000D03*
D15*
X113347953Y-50165046D02*
X112537047Y-51624954D01*
X107037224Y-52125672D02*
X106997776Y-52704328D01*
D16*
X110807500Y-42545000D03*
D17*
X108267500Y-42545000D03*
D13*
X128587500Y-47625000D03*
D14*
X133667500Y-47625000D03*
X123507500Y-47625000D03*
D15*
X132397953Y-50165046D02*
X131587047Y-51624954D01*
X126087224Y-52125672D02*
X126047776Y-52704328D01*
D16*
X129857500Y-42545000D03*
D17*
X127317500Y-42545000D03*
D13*
X147637500Y-47625000D03*
D14*
X152717500Y-47625000D03*
X142557500Y-47625000D03*
D15*
X151447953Y-50165046D02*
X150637047Y-51624954D01*
X145137224Y-52125672D02*
X145097776Y-52704328D01*
D16*
X148907500Y-42545000D03*
D17*
X146367500Y-42545000D03*
D13*
X166687500Y-47625000D03*
D14*
X171767500Y-47625000D03*
X161607500Y-47625000D03*
D15*
X170497953Y-50165046D02*
X169687047Y-51624954D01*
X164187224Y-52125672D02*
X164147776Y-52704328D01*
D16*
X167957500Y-42545000D03*
D17*
X165417500Y-42545000D03*
D13*
X185737500Y-47625000D03*
D14*
X190817500Y-47625000D03*
X180657500Y-47625000D03*
D15*
X189547953Y-50165046D02*
X188737047Y-51624954D01*
X183237224Y-52125672D02*
X183197776Y-52704328D01*
D16*
X187007500Y-42545000D03*
D17*
X184467500Y-42545000D03*
D13*
X204787500Y-47625000D03*
D14*
X209867500Y-47625000D03*
X199707500Y-47625000D03*
D15*
X208597953Y-50165046D02*
X207787047Y-51624954D01*
X202287224Y-52125672D02*
X202247776Y-52704328D01*
D16*
X206057500Y-42545000D03*
D17*
X203517500Y-42545000D03*
D13*
X223837500Y-47625000D03*
D14*
X228917500Y-47625000D03*
X218757500Y-47625000D03*
D15*
X227647953Y-50165046D02*
X226837047Y-51624954D01*
X221337224Y-52125672D02*
X221297776Y-52704328D01*
D16*
X225107500Y-42545000D03*
D17*
X222567500Y-42545000D03*
D13*
X242887500Y-47625000D03*
D14*
X247967500Y-47625000D03*
X237807500Y-47625000D03*
D15*
X246697953Y-50165046D02*
X245887047Y-51624954D01*
X240387224Y-52125672D02*
X240347776Y-52704328D01*
D16*
X244157500Y-42545000D03*
D17*
X241617500Y-42545000D03*
D13*
X261937500Y-47625000D03*
D14*
X267017500Y-47625000D03*
X256857500Y-47625000D03*
D15*
X265747953Y-50165046D02*
X264937047Y-51624954D01*
X259437224Y-52125672D02*
X259397776Y-52704328D01*
D16*
X263207500Y-42545000D03*
D17*
X260667500Y-42545000D03*
D13*
X280987500Y-47625000D03*
D14*
X286067500Y-47625000D03*
X275907500Y-47625000D03*
D15*
X284797953Y-50165046D02*
X283987047Y-51624954D01*
X278487224Y-52125672D02*
X278447776Y-52704328D01*
D16*
X282257500Y-42545000D03*
D17*
X279717500Y-42545000D03*
D13*
X300037500Y-47625000D03*
D14*
X305117500Y-47625000D03*
X294957500Y-47625000D03*
D15*
X303847953Y-50165046D02*
X303037047Y-51624954D01*
X297537224Y-52125672D02*
X297497776Y-52704328D01*
D16*
X301307500Y-42545000D03*
D17*
X298767500Y-42545000D03*
D13*
X319087500Y-47625000D03*
D14*
X324167500Y-47625000D03*
X314007500Y-47625000D03*
D15*
X322897953Y-50165046D02*
X322087047Y-51624954D01*
X316587224Y-52125672D02*
X316547776Y-52704328D01*
D16*
X320357500Y-42545000D03*
D17*
X317817500Y-42545000D03*
D13*
X342900000Y-47625000D03*
D14*
X347980000Y-47625000D03*
X337820000Y-47625000D03*
D15*
X346710453Y-50165046D02*
X345899547Y-51624954D01*
X340399724Y-52125672D02*
X340360276Y-52704328D01*
D16*
X344170000Y-42545000D03*
D17*
X341630000Y-42545000D03*
D13*
X345281250Y-57150000D03*
D14*
X345281250Y-52070000D03*
X345281250Y-62230000D03*
D15*
X347821296Y-53339547D02*
X349281204Y-54150453D01*
X349781922Y-59650276D02*
X350360578Y-59689724D01*
D16*
X340201250Y-55880000D03*
D17*
X340201250Y-58420000D03*
D13*
X371475000Y-47625000D03*
D14*
X376555000Y-47625000D03*
X366395000Y-47625000D03*
D15*
X375285453Y-50165046D02*
X374474547Y-51624954D01*
X368974724Y-52125672D02*
X368935276Y-52704328D01*
D16*
X372745000Y-42545000D03*
D17*
X370205000Y-42545000D03*
D13*
X390525000Y-47625000D03*
D14*
X395605000Y-47625000D03*
X385445000Y-47625000D03*
D15*
X394335453Y-50165046D02*
X393524547Y-51624954D01*
X388024724Y-52125672D02*
X387985276Y-52704328D01*
D16*
X391795000Y-42545000D03*
D17*
X389255000Y-42545000D03*
D13*
X38100000Y-66675000D03*
D14*
X43180000Y-66675000D03*
X33020000Y-66675000D03*
D15*
X41910453Y-69215046D02*
X41099547Y-70674954D01*
X35599724Y-71175672D02*
X35560276Y-71754328D01*
D16*
X39370000Y-61595000D03*
D17*
X36830000Y-61595000D03*
D13*
X57150000Y-66675000D03*
D14*
X62230000Y-66675000D03*
X52070000Y-66675000D03*
D15*
X60960453Y-69215046D02*
X60149547Y-70674954D01*
X54649724Y-71175672D02*
X54610276Y-71754328D01*
D16*
X58420000Y-61595000D03*
D17*
X55880000Y-61595000D03*
D13*
X88106250Y-66675000D03*
D14*
X93186250Y-66675000D03*
X83026250Y-66675000D03*
D15*
X91916703Y-69215046D02*
X91105797Y-70674954D01*
X85605974Y-71175672D02*
X85566526Y-71754328D01*
D16*
X89376250Y-61595000D03*
D17*
X86836250Y-61595000D03*
D13*
X114300000Y-66675000D03*
D14*
X119380000Y-66675000D03*
X109220000Y-66675000D03*
D15*
X118110453Y-69215046D02*
X117299547Y-70674954D01*
X111799724Y-71175672D02*
X111760276Y-71754328D01*
D16*
X115570000Y-61595000D03*
D17*
X113030000Y-61595000D03*
D13*
X133350000Y-66675000D03*
D14*
X138430000Y-66675000D03*
X128270000Y-66675000D03*
D15*
X137160453Y-69215046D02*
X136349547Y-70674954D01*
X130849724Y-71175672D02*
X130810276Y-71754328D01*
D16*
X134620000Y-61595000D03*
D17*
X132080000Y-61595000D03*
D13*
X152400000Y-66675000D03*
D14*
X157480000Y-66675000D03*
X147320000Y-66675000D03*
D15*
X156210453Y-69215046D02*
X155399547Y-70674954D01*
X149899724Y-71175672D02*
X149860276Y-71754328D01*
D16*
X153670000Y-61595000D03*
D17*
X151130000Y-61595000D03*
D13*
X171450000Y-66675000D03*
D14*
X176530000Y-66675000D03*
X166370000Y-66675000D03*
D15*
X175260453Y-69215046D02*
X174449547Y-70674954D01*
X168949724Y-71175672D02*
X168910276Y-71754328D01*
D16*
X172720000Y-61595000D03*
D17*
X170180000Y-61595000D03*
D13*
X190500000Y-66675000D03*
D14*
X195580000Y-66675000D03*
X185420000Y-66675000D03*
D15*
X194310453Y-69215046D02*
X193499547Y-70674954D01*
X187999724Y-71175672D02*
X187960276Y-71754328D01*
D16*
X191770000Y-61595000D03*
D17*
X189230000Y-61595000D03*
D13*
X209550000Y-66675000D03*
D14*
X214630000Y-66675000D03*
X204470000Y-66675000D03*
D15*
X213360453Y-69215046D02*
X212549547Y-70674954D01*
X207049724Y-71175672D02*
X207010276Y-71754328D01*
D16*
X210820000Y-61595000D03*
D17*
X208280000Y-61595000D03*
D13*
X228600000Y-66675000D03*
D14*
X233680000Y-66675000D03*
X223520000Y-66675000D03*
D15*
X232410453Y-69215046D02*
X231599547Y-70674954D01*
X226099724Y-71175672D02*
X226060276Y-71754328D01*
D16*
X229870000Y-61595000D03*
D17*
X227330000Y-61595000D03*
D13*
X247650000Y-66675000D03*
D14*
X252730000Y-66675000D03*
X242570000Y-66675000D03*
D15*
X251460453Y-69215046D02*
X250649547Y-70674954D01*
X245149724Y-71175672D02*
X245110276Y-71754328D01*
D16*
X248920000Y-61595000D03*
D17*
X246380000Y-61595000D03*
D13*
X266700000Y-66675000D03*
D14*
X271780000Y-66675000D03*
X261620000Y-66675000D03*
D15*
X270510453Y-69215046D02*
X269699547Y-70674954D01*
X264199724Y-71175672D02*
X264160276Y-71754328D01*
D16*
X267970000Y-61595000D03*
D17*
X265430000Y-61595000D03*
D13*
X285750000Y-66675000D03*
D14*
X290830000Y-66675000D03*
X280670000Y-66675000D03*
D15*
X289560453Y-69215046D02*
X288749547Y-70674954D01*
X283249724Y-71175672D02*
X283210276Y-71754328D01*
D16*
X287020000Y-61595000D03*
D17*
X284480000Y-61595000D03*
D13*
X304800000Y-66675000D03*
D14*
X309880000Y-66675000D03*
X299720000Y-66675000D03*
D15*
X308610453Y-69215046D02*
X307799547Y-70674954D01*
X302299724Y-71175672D02*
X302260276Y-71754328D01*
D16*
X306070000Y-61595000D03*
D17*
X303530000Y-61595000D03*
D13*
X335756250Y-66675000D03*
D14*
X340836250Y-66675000D03*
X330676250Y-66675000D03*
D15*
X339566703Y-69215046D02*
X338755797Y-70674954D01*
X333255974Y-71175672D02*
X333216526Y-71754328D01*
D16*
X337026250Y-61595000D03*
D17*
X334486250Y-61595000D03*
D13*
X323850000Y-66675000D03*
D14*
X328930000Y-66675000D03*
X318770000Y-66675000D03*
D15*
X327660453Y-69215046D02*
X326849547Y-70674954D01*
X321349724Y-71175672D02*
X321310276Y-71754328D01*
D16*
X325120000Y-61595000D03*
D17*
X322580000Y-61595000D03*
D13*
X38100000Y-85725000D03*
D14*
X43180000Y-85725000D03*
X33020000Y-85725000D03*
D15*
X41910453Y-88265046D02*
X41099547Y-89724954D01*
X35599724Y-90225672D02*
X35560276Y-90804328D01*
D16*
X39370000Y-80645000D03*
D17*
X36830000Y-80645000D03*
D13*
X57150000Y-85725000D03*
D14*
X62230000Y-85725000D03*
X52070000Y-85725000D03*
D15*
X60960453Y-88265046D02*
X60149547Y-89724954D01*
X54649724Y-90225672D02*
X54610276Y-90804328D01*
D16*
X58420000Y-80645000D03*
D17*
X55880000Y-80645000D03*
D13*
X92868750Y-85725000D03*
D14*
X97948750Y-85725000D03*
X87788750Y-85725000D03*
D15*
X96679203Y-88265046D02*
X95868297Y-89724954D01*
X90368474Y-90225672D02*
X90329026Y-90804328D01*
D16*
X94138750Y-80645000D03*
D17*
X91598750Y-80645000D03*
D13*
X83343750Y-85725000D03*
D14*
X88423750Y-85725000D03*
X78263750Y-85725000D03*
D15*
X87154203Y-88265046D02*
X86343297Y-89724954D01*
X80843474Y-90225672D02*
X80804026Y-90804328D01*
D16*
X84613750Y-80645000D03*
D17*
X82073750Y-80645000D03*
D13*
X104775000Y-85725000D03*
D14*
X109855000Y-85725000D03*
X99695000Y-85725000D03*
D15*
X108585453Y-88265046D02*
X107774547Y-89724954D01*
X102274724Y-90225672D02*
X102235276Y-90804328D01*
D16*
X106045000Y-80645000D03*
D17*
X103505000Y-80645000D03*
D13*
X123825000Y-85725000D03*
D14*
X128905000Y-85725000D03*
X118745000Y-85725000D03*
D15*
X127635453Y-88265046D02*
X126824547Y-89724954D01*
X121324724Y-90225672D02*
X121285276Y-90804328D01*
D16*
X125095000Y-80645000D03*
D17*
X122555000Y-80645000D03*
D13*
X142875000Y-85725000D03*
D14*
X147955000Y-85725000D03*
X137795000Y-85725000D03*
D15*
X146685453Y-88265046D02*
X145874547Y-89724954D01*
X140374724Y-90225672D02*
X140335276Y-90804328D01*
D16*
X144145000Y-80645000D03*
D17*
X141605000Y-80645000D03*
D13*
X161925000Y-85725000D03*
D14*
X167005000Y-85725000D03*
X156845000Y-85725000D03*
D15*
X165735453Y-88265046D02*
X164924547Y-89724954D01*
X159424724Y-90225672D02*
X159385276Y-90804328D01*
D16*
X163195000Y-80645000D03*
D17*
X160655000Y-80645000D03*
D13*
X180975000Y-85725000D03*
D14*
X186055000Y-85725000D03*
X175895000Y-85725000D03*
D15*
X184785453Y-88265046D02*
X183974547Y-89724954D01*
X178474724Y-90225672D02*
X178435276Y-90804328D01*
D16*
X182245000Y-80645000D03*
D17*
X179705000Y-80645000D03*
D13*
X200025000Y-85725000D03*
D14*
X205105000Y-85725000D03*
X194945000Y-85725000D03*
D15*
X203835453Y-88265046D02*
X203024547Y-89724954D01*
X197524724Y-90225672D02*
X197485276Y-90804328D01*
D16*
X201295000Y-80645000D03*
D17*
X198755000Y-80645000D03*
D13*
X219075000Y-85725000D03*
D14*
X224155000Y-85725000D03*
X213995000Y-85725000D03*
D15*
X222885453Y-88265046D02*
X222074547Y-89724954D01*
X216574724Y-90225672D02*
X216535276Y-90804328D01*
D16*
X220345000Y-80645000D03*
D17*
X217805000Y-80645000D03*
D13*
X238125000Y-85725000D03*
D14*
X243205000Y-85725000D03*
X233045000Y-85725000D03*
D15*
X241935453Y-88265046D02*
X241124547Y-89724954D01*
X235624724Y-90225672D02*
X235585276Y-90804328D01*
D16*
X239395000Y-80645000D03*
D17*
X236855000Y-80645000D03*
D13*
X257175000Y-85725000D03*
D14*
X262255000Y-85725000D03*
X252095000Y-85725000D03*
D15*
X260985453Y-88265046D02*
X260174547Y-89724954D01*
X254674724Y-90225672D02*
X254635276Y-90804328D01*
D16*
X258445000Y-80645000D03*
D17*
X255905000Y-80645000D03*
D13*
X276225000Y-85725000D03*
D14*
X281305000Y-85725000D03*
X271145000Y-85725000D03*
D15*
X280035453Y-88265046D02*
X279224547Y-89724954D01*
X273724724Y-90225672D02*
X273685276Y-90804328D01*
D16*
X277495000Y-80645000D03*
D17*
X274955000Y-80645000D03*
D13*
X295275000Y-85725000D03*
D14*
X300355000Y-85725000D03*
X290195000Y-85725000D03*
D15*
X299085453Y-88265046D02*
X298274547Y-89724954D01*
X292774724Y-90225672D02*
X292735276Y-90804328D01*
D16*
X296545000Y-80645000D03*
D17*
X294005000Y-80645000D03*
D13*
X330993750Y-85725000D03*
D14*
X336073750Y-85725000D03*
X325913750Y-85725000D03*
D15*
X334804203Y-88265046D02*
X333993297Y-89724954D01*
X328493474Y-90225672D02*
X328454026Y-90804328D01*
D16*
X332263750Y-80645000D03*
D17*
X329723750Y-80645000D03*
D13*
X371475000Y-85725000D03*
D14*
X376555000Y-85725000D03*
X366395000Y-85725000D03*
D15*
X375285453Y-88265046D02*
X374474547Y-89724954D01*
X368974724Y-90225672D02*
X368935276Y-90804328D01*
D16*
X372745000Y-80645000D03*
D17*
X370205000Y-80645000D03*
D13*
X38100000Y-104775000D03*
D14*
X43180000Y-104775000D03*
X33020000Y-104775000D03*
D15*
X41910453Y-107315046D02*
X41099547Y-108774954D01*
X35599724Y-109275672D02*
X35560276Y-109854328D01*
D16*
X39370000Y-99695000D03*
D17*
X36830000Y-99695000D03*
D13*
X57150000Y-104775000D03*
D14*
X62230000Y-104775000D03*
X52070000Y-104775000D03*
D15*
X60960453Y-107315046D02*
X60149547Y-108774954D01*
X54649724Y-109275672D02*
X54610276Y-109854328D01*
D16*
X58420000Y-99695000D03*
D17*
X55880000Y-99695000D03*
D13*
X83343750Y-104775000D03*
D14*
X88423750Y-104775000D03*
X78263750Y-104775000D03*
D15*
X87154203Y-107315046D02*
X86343297Y-108774954D01*
X80843474Y-109275672D02*
X80804026Y-109854328D01*
D16*
X84613750Y-99695000D03*
D17*
X82073750Y-99695000D03*
D13*
X107156250Y-104775000D03*
D14*
X112236250Y-104775000D03*
X102076250Y-104775000D03*
D15*
X110966703Y-107315046D02*
X110155797Y-108774954D01*
X104655974Y-109275672D02*
X104616526Y-109854328D01*
D16*
X108426250Y-99695000D03*
D17*
X105886250Y-99695000D03*
D13*
X111918750Y-104775000D03*
D14*
X116998750Y-104775000D03*
X106838750Y-104775000D03*
D15*
X115729203Y-107315046D02*
X114918297Y-108774954D01*
X109418474Y-109275672D02*
X109379026Y-109854328D01*
D16*
X113188750Y-99695000D03*
D17*
X110648750Y-99695000D03*
D13*
X130968750Y-104775000D03*
D14*
X136048750Y-104775000D03*
X125888750Y-104775000D03*
D15*
X134779203Y-107315046D02*
X133968297Y-108774954D01*
X128468474Y-109275672D02*
X128429026Y-109854328D01*
D16*
X132238750Y-99695000D03*
D17*
X129698750Y-99695000D03*
D13*
X138112500Y-104775000D03*
D14*
X143192500Y-104775000D03*
X133032500Y-104775000D03*
D15*
X141922953Y-107315046D02*
X141112047Y-108774954D01*
X135612224Y-109275672D02*
X135572776Y-109854328D01*
D16*
X139382500Y-99695000D03*
D17*
X136842500Y-99695000D03*
D13*
X202406250Y-104775000D03*
D14*
X207486250Y-104775000D03*
X197326250Y-104775000D03*
D15*
X206216703Y-107315046D02*
X205405797Y-108774954D01*
X199905974Y-109275672D02*
X199866526Y-109854328D01*
D16*
X203676250Y-99695000D03*
D17*
X201136250Y-99695000D03*
D13*
X214312500Y-104775000D03*
D14*
X219392500Y-104775000D03*
X209232500Y-104775000D03*
D15*
X218122953Y-107315046D02*
X217312047Y-108774954D01*
X211812224Y-109275672D02*
X211772776Y-109854328D01*
D16*
X215582500Y-99695000D03*
D17*
X213042500Y-99695000D03*
D13*
X273843750Y-104775000D03*
D14*
X278923750Y-104775000D03*
X268763750Y-104775000D03*
D15*
X277654203Y-107315046D02*
X276843297Y-108774954D01*
X271343474Y-109275672D02*
X271304026Y-109854328D01*
D16*
X275113750Y-99695000D03*
D17*
X272573750Y-99695000D03*
D13*
X297656250Y-104775000D03*
D14*
X302736250Y-104775000D03*
X292576250Y-104775000D03*
D15*
X301466703Y-107315046D02*
X300655797Y-108774954D01*
X295155974Y-109275672D02*
X295116526Y-109854328D01*
D16*
X298926250Y-99695000D03*
D17*
X296386250Y-99695000D03*
D13*
X319087500Y-104775000D03*
D14*
X324167500Y-104775000D03*
X314007500Y-104775000D03*
D15*
X322897953Y-107315046D02*
X322087047Y-108774954D01*
X316587224Y-109275672D02*
X316547776Y-109854328D01*
D16*
X320357500Y-99695000D03*
D17*
X317817500Y-99695000D03*
D13*
X352425000Y-104775000D03*
D14*
X357505000Y-104775000D03*
X347345000Y-104775000D03*
D15*
X356235453Y-107315046D02*
X355424547Y-108774954D01*
X349924724Y-109275672D02*
X349885276Y-109854328D01*
D16*
X353695000Y-99695000D03*
D17*
X351155000Y-99695000D03*
D13*
X371475000Y-104775000D03*
D14*
X376555000Y-104775000D03*
X366395000Y-104775000D03*
D15*
X375285453Y-107315046D02*
X374474547Y-108774954D01*
X368974724Y-109275672D02*
X368935276Y-109854328D01*
D16*
X372745000Y-99695000D03*
D17*
X370205000Y-99695000D03*
D13*
X390525000Y-104775000D03*
D14*
X395605000Y-104775000D03*
X385445000Y-104775000D03*
D15*
X394335453Y-107315046D02*
X393524547Y-108774954D01*
X388024724Y-109275672D02*
X387985276Y-109854328D01*
D16*
X391795000Y-99695000D03*
D17*
X389255000Y-99695000D03*
D13*
X85725000Y-104775000D03*
D14*
X90805000Y-104775000D03*
X80645000Y-104775000D03*
D15*
X88724547Y-108774954D02*
X89535453Y-107315046D01*
X83185276Y-109854328D02*
X83224724Y-109275672D01*
D17*
X86995000Y-99695000D03*
D16*
X84455000Y-99695000D03*
D13*
X290512500Y-104775000D03*
D14*
X295592500Y-104775000D03*
X285432500Y-104775000D03*
D15*
X293512047Y-108774954D02*
X294322953Y-107315046D01*
X287972776Y-109854328D02*
X288012224Y-109275672D01*
D17*
X291782500Y-99695000D03*
D16*
X289242500Y-99695000D03*
D13*
X321468750Y-104775000D03*
D14*
X326548750Y-104775000D03*
X316388750Y-104775000D03*
D15*
X324468297Y-108774954D02*
X325279203Y-107315046D01*
X318929026Y-109854328D02*
X318968474Y-109275672D01*
D17*
X322738750Y-99695000D03*
D16*
X320198750Y-99695000D03*
D19*
X350225360Y-23050900D03*
X354624640Y-23050900D03*
D20*
X388925000Y-84975000D03*
X388925000Y-86475000D03*
X392125000Y-84975000D03*
X392125000Y-86475000D03*
D21*
X388525000Y-83725000D03*
X392525000Y-87725000D03*
D18*
X233426000Y-57150000D03*
D22*
X356870000Y-30988000D03*
D23*
X356870000Y-33528000D03*
X359410000Y-30988000D03*
X359410000Y-33528000D03*
X361950000Y-30988000D03*
X361950000Y-33528000D03*
D22*
X349250000Y-87630000D03*
D23*
X349250000Y-90170000D03*
X351790000Y-87630000D03*
X351790000Y-90170000D03*
X354330000Y-87630000D03*
X354330000Y-90170000D03*
X356870000Y-87630000D03*
X356870000Y-90170000D03*
X359410000Y-87630000D03*
X359410000Y-90170000D03*
D24*
X381000000Y-83185000D03*
D25*
X381000000Y-80645000D03*
X381000000Y-78105000D03*
M02*
