G04 #@! TF.FileFunction,Copper,L1,Top,Signal*
%FSLAX46Y46*%
G04 Gerber Fmt 4.6, Leading zero omitted, Abs format (unit mm)*
G04 Created by KiCad (PCBNEW 4.0.3-stable) date Thursday, December 22, 2016 'PMt' 07:44:13 PM*
%MOMM*%
%LPD*%
G01*
G04 APERTURE LIST*
%ADD10C,0.100000*%
%ADD11R,1.050000X1.050000*%
%ADD12C,1.050000*%
%ADD13R,1.300000X1.300000*%
%ADD14C,1.300000*%
%ADD15C,1.200000*%
%ADD16C,0.250000*%
G04 APERTURE END LIST*
D10*
D11*
X137160000Y-101600000D03*
D12*
X137160000Y-102870000D03*
X137160000Y-104140000D03*
X137160000Y-105410000D03*
X137160000Y-106680000D03*
X138430000Y-102870000D03*
X138430000Y-104140000D03*
X138430000Y-105410000D03*
X138430000Y-106680000D03*
X138430000Y-101600000D03*
D13*
X127000000Y-99060000D03*
D14*
X129540000Y-99060000D03*
X127000000Y-101600000D03*
X129540000Y-101600000D03*
X127000000Y-104140000D03*
X129540000Y-104140000D03*
X127000000Y-106680000D03*
X129540000Y-106680000D03*
X127000000Y-109220000D03*
D15*
X129540000Y-109220000D03*
D16*
X134279999Y-100035001D02*
X135844998Y-101600000D01*
X135844998Y-101600000D02*
X137160000Y-101600000D01*
X127000000Y-99060000D02*
X127900000Y-99060000D01*
X127900000Y-99060000D02*
X128875001Y-100035001D01*
X128875001Y-100035001D02*
X134279999Y-100035001D01*
X127000000Y-101600000D02*
X127975001Y-100624999D01*
X127975001Y-100624999D02*
X134172537Y-100624999D01*
X134172537Y-100624999D02*
X136417538Y-102870000D01*
X136417538Y-102870000D02*
X137160000Y-102870000D01*
X127000000Y-104140000D02*
X127975001Y-103164999D01*
X127975001Y-103164999D02*
X135442537Y-103164999D01*
X135442537Y-103164999D02*
X136417538Y-104140000D01*
X136417538Y-104140000D02*
X137160000Y-104140000D01*
X137160000Y-105410000D02*
X137160000Y-105348052D01*
X136926949Y-105115001D02*
X128564999Y-105115001D01*
X137160000Y-105348052D02*
X136926949Y-105115001D01*
X128564999Y-105115001D02*
X127000000Y-106680000D01*
X127000000Y-109220000D02*
X127000000Y-108123002D01*
X127000000Y-108123002D02*
X128270000Y-106853002D01*
X128270000Y-106853002D02*
X128270000Y-106506998D01*
X128270000Y-106506998D02*
X129071999Y-105704999D01*
X136184999Y-105704999D02*
X136635001Y-106155001D01*
X129071999Y-105704999D02*
X136184999Y-105704999D01*
X136635001Y-106155001D02*
X137160000Y-106680000D01*
X129540000Y-106680000D02*
X128614999Y-107605001D01*
X128614999Y-107605001D02*
X128614999Y-109664001D01*
X128614999Y-109664001D02*
X129095999Y-110145001D01*
X129095999Y-110145001D02*
X136223001Y-110145001D01*
X136223001Y-110145001D02*
X139280001Y-107088001D01*
X139280001Y-107088001D02*
X139280001Y-106260001D01*
X139280001Y-106260001D02*
X138954999Y-105934999D01*
X138954999Y-105934999D02*
X138430000Y-105410000D01*
X129540000Y-109220000D02*
X135890000Y-109220000D01*
X135890000Y-109220000D02*
X138430000Y-106680000D01*
X129540000Y-99060000D02*
X136632462Y-99060000D01*
X136632462Y-99060000D02*
X138430000Y-100857538D01*
X138430000Y-100857538D02*
X138430000Y-101600000D01*
M02*
