G04 #@! TF.FileFunction,Copper,L2,Bot,Signal*
%FSLAX46Y46*%
G04 Gerber Fmt 4.6, Leading zero omitted, Abs format (unit mm)*
G04 Created by KiCad (PCBNEW 4.0.3-stable) date Thursday, December 22, 2016 'PMt' 07:44:13 PM*
%MOMM*%
%LPD*%
G01*
G04 APERTURE LIST*
%ADD10C,0.100000*%
%ADD11R,1.050000X1.050000*%
%ADD12C,1.050000*%
%ADD13R,1.300000X1.300000*%
%ADD14C,1.300000*%
%ADD15C,1.200000*%
%ADD16C,0.250000*%
G04 APERTURE END LIST*
D10*
D11*
X137160000Y-101600000D03*
D12*
X137160000Y-102870000D03*
X137160000Y-104140000D03*
X137160000Y-105410000D03*
X137160000Y-106680000D03*
X138430000Y-102870000D03*
X138430000Y-104140000D03*
X138430000Y-105410000D03*
X138430000Y-106680000D03*
X138430000Y-101600000D03*
D13*
X127000000Y-99060000D03*
D14*
X129540000Y-99060000D03*
X127000000Y-101600000D03*
X129540000Y-101600000D03*
X127000000Y-104140000D03*
X129540000Y-104140000D03*
X127000000Y-106680000D03*
X129540000Y-106680000D03*
X127000000Y-109220000D03*
D15*
X129540000Y-109220000D03*
D16*
X138430000Y-102870000D02*
X139280001Y-102019999D01*
X139280001Y-102019999D02*
X139280001Y-101191999D01*
X139280001Y-101191999D02*
X138838001Y-100749999D01*
X130189999Y-100950001D02*
X129540000Y-101600000D01*
X138838001Y-100749999D02*
X130390001Y-100749999D01*
X130390001Y-100749999D02*
X130189999Y-100950001D01*
X138430000Y-104140000D02*
X139730011Y-102839989D01*
X139730011Y-102839989D02*
X139730011Y-101005599D01*
X128890001Y-103490001D02*
X129540000Y-104140000D01*
X139730011Y-101005599D02*
X136809411Y-98084999D01*
X136809411Y-98084999D02*
X129071999Y-98084999D01*
X129071999Y-98084999D02*
X128564999Y-98591999D01*
X128564999Y-98591999D02*
X128564999Y-103164999D01*
X128564999Y-103164999D02*
X128890001Y-103490001D01*
M02*
