M48
;DRILL file {KiCad 4.0.3-stable} date Thursday, December 22, 2016 'PMt' 07:42:18 PM
;FORMAT={-:-/ absolute / metric / decimal}
FMAT,2
METRIC,TZ
T1C0.650
T2C0.700
%
G90
G05
M71
T1
X137.16Y-101.6
X137.16Y-102.87
X137.16Y-104.14
X137.16Y-105.41
X137.16Y-106.68
X138.43Y-101.6
X138.43Y-102.87
X138.43Y-104.14
X138.43Y-105.41
X138.43Y-106.68
T2
X127.Y-99.06
X127.Y-101.6
X127.Y-104.14
X127.Y-106.68
X127.Y-109.22
X129.54Y-99.06
X129.54Y-101.6
X129.54Y-104.14
X129.54Y-106.68
X129.54Y-109.22
T0
M30
